<?xml version="1.0" encoding="utf-8" standalone="no"?>
<!DOCTYPE svg PUBLIC "-//W3C//DTD SVG 1.1//EN"
  "http://www.w3.org/Graphics/SVG/1.1/DTD/svg11.dtd">
<!-- Created with matplotlib (https://matplotlib.org/) -->
<svg height="345.6pt" version="1.1" viewBox="0 0 460.8 345.6" width="460.8pt" xmlns="http://www.w3.org/2000/svg" xmlns:xlink="http://www.w3.org/1999/xlink">
 <defs>
  <style type="text/css">
*{stroke-linecap:butt;stroke-linejoin:round;}
  </style>
 </defs>
 <g id="figure_1">
  <g id="patch_1">
   <path d="M 0 345.6 
L 460.8 345.6 
L 460.8 0 
L 0 0 
z
" style="fill:#ffffff;"/>
  </g>
  <g id="axes_1">
   <g id="patch_2">
    <path d="M 57.6 307.584 
L 414.72 307.584 
L 414.72 41.472 
L 57.6 41.472 
z
" style="fill:#ffffff;"/>
   </g>
   <g id="matplotlib.axis_1">
    <g id="xtick_1">
     <g id="line2d_1">
      <defs>
       <path d="M 0 0 
L 0 3.5 
" id="m54731f534b" style="stroke:#000000;stroke-width:0.8;"/>
      </defs>
      <g>
       <use style="stroke:#000000;stroke-width:0.8;" x="73.832727" xlink:href="#m54731f534b" y="307.584"/>
      </g>
     </g>
     <g id="text_1">
      <!-- 0.35 -->
      <defs>
       <path d="M 31.78125 66.40625 
Q 24.171875 66.40625 20.328125 58.90625 
Q 16.5 51.421875 16.5 36.375 
Q 16.5 21.390625 20.328125 13.890625 
Q 24.171875 6.390625 31.78125 6.390625 
Q 39.453125 6.390625 43.28125 13.890625 
Q 47.125 21.390625 47.125 36.375 
Q 47.125 51.421875 43.28125 58.90625 
Q 39.453125 66.40625 31.78125 66.40625 
z
M 31.78125 74.21875 
Q 44.046875 74.21875 50.515625 64.515625 
Q 56.984375 54.828125 56.984375 36.375 
Q 56.984375 17.96875 50.515625 8.265625 
Q 44.046875 -1.421875 31.78125 -1.421875 
Q 19.53125 -1.421875 13.0625 8.265625 
Q 6.59375 17.96875 6.59375 36.375 
Q 6.59375 54.828125 13.0625 64.515625 
Q 19.53125 74.21875 31.78125 74.21875 
z
" id="DejaVuSans-48"/>
       <path d="M 10.6875 12.40625 
L 21 12.40625 
L 21 0 
L 10.6875 0 
z
" id="DejaVuSans-46"/>
       <path d="M 40.578125 39.3125 
Q 47.65625 37.796875 51.625 33 
Q 55.609375 28.21875 55.609375 21.1875 
Q 55.609375 10.40625 48.1875 4.484375 
Q 40.765625 -1.421875 27.09375 -1.421875 
Q 22.515625 -1.421875 17.65625 -0.515625 
Q 12.796875 0.390625 7.625 2.203125 
L 7.625 11.71875 
Q 11.71875 9.328125 16.59375 8.109375 
Q 21.484375 6.890625 26.8125 6.890625 
Q 36.078125 6.890625 40.9375 10.546875 
Q 45.796875 14.203125 45.796875 21.1875 
Q 45.796875 27.640625 41.28125 31.265625 
Q 36.765625 34.90625 28.71875 34.90625 
L 20.21875 34.90625 
L 20.21875 43.015625 
L 29.109375 43.015625 
Q 36.375 43.015625 40.234375 45.921875 
Q 44.09375 48.828125 44.09375 54.296875 
Q 44.09375 59.90625 40.109375 62.90625 
Q 36.140625 65.921875 28.71875 65.921875 
Q 24.65625 65.921875 20.015625 65.03125 
Q 15.375 64.15625 9.8125 62.3125 
L 9.8125 71.09375 
Q 15.4375 72.65625 20.34375 73.4375 
Q 25.25 74.21875 29.59375 74.21875 
Q 40.828125 74.21875 47.359375 69.109375 
Q 53.90625 64.015625 53.90625 55.328125 
Q 53.90625 49.265625 50.4375 45.09375 
Q 46.96875 40.921875 40.578125 39.3125 
z
" id="DejaVuSans-51"/>
       <path d="M 10.796875 72.90625 
L 49.515625 72.90625 
L 49.515625 64.59375 
L 19.828125 64.59375 
L 19.828125 46.734375 
Q 21.96875 47.46875 24.109375 47.828125 
Q 26.265625 48.1875 28.421875 48.1875 
Q 40.625 48.1875 47.75 41.5 
Q 54.890625 34.8125 54.890625 23.390625 
Q 54.890625 11.625 47.5625 5.09375 
Q 40.234375 -1.421875 26.90625 -1.421875 
Q 22.3125 -1.421875 17.546875 -0.640625 
Q 12.796875 0.140625 7.71875 1.703125 
L 7.71875 11.625 
Q 12.109375 9.234375 16.796875 8.0625 
Q 21.484375 6.890625 26.703125 6.890625 
Q 35.15625 6.890625 40.078125 11.328125 
Q 45.015625 15.765625 45.015625 23.390625 
Q 45.015625 31 40.078125 35.4375 
Q 35.15625 39.890625 26.703125 39.890625 
Q 22.75 39.890625 18.8125 39.015625 
Q 14.890625 38.140625 10.796875 36.28125 
z
" id="DejaVuSans-53"/>
      </defs>
      <g transform="translate(62.699915 322.182437)scale(0.1 -0.1)">
       <use xlink:href="#DejaVuSans-48"/>
       <use x="63.623047" xlink:href="#DejaVuSans-46"/>
       <use x="95.410156" xlink:href="#DejaVuSans-51"/>
       <use x="159.033203" xlink:href="#DejaVuSans-53"/>
      </g>
     </g>
    </g>
    <g id="xtick_2">
     <g id="line2d_2">
      <g>
       <use style="stroke:#000000;stroke-width:0.8;" x="114.414545" xlink:href="#m54731f534b" y="307.584"/>
      </g>
     </g>
     <g id="text_2">
      <!-- 0.40 -->
      <defs>
       <path d="M 37.796875 64.3125 
L 12.890625 25.390625 
L 37.796875 25.390625 
z
M 35.203125 72.90625 
L 47.609375 72.90625 
L 47.609375 25.390625 
L 58.015625 25.390625 
L 58.015625 17.1875 
L 47.609375 17.1875 
L 47.609375 0 
L 37.796875 0 
L 37.796875 17.1875 
L 4.890625 17.1875 
L 4.890625 26.703125 
z
" id="DejaVuSans-52"/>
      </defs>
      <g transform="translate(103.281733 322.182437)scale(0.1 -0.1)">
       <use xlink:href="#DejaVuSans-48"/>
       <use x="63.623047" xlink:href="#DejaVuSans-46"/>
       <use x="95.410156" xlink:href="#DejaVuSans-52"/>
       <use x="159.033203" xlink:href="#DejaVuSans-48"/>
      </g>
     </g>
    </g>
    <g id="xtick_3">
     <g id="line2d_3">
      <g>
       <use style="stroke:#000000;stroke-width:0.8;" x="154.996364" xlink:href="#m54731f534b" y="307.584"/>
      </g>
     </g>
     <g id="text_3">
      <!-- 0.45 -->
      <g transform="translate(143.863551 322.182437)scale(0.1 -0.1)">
       <use xlink:href="#DejaVuSans-48"/>
       <use x="63.623047" xlink:href="#DejaVuSans-46"/>
       <use x="95.410156" xlink:href="#DejaVuSans-52"/>
       <use x="159.033203" xlink:href="#DejaVuSans-53"/>
      </g>
     </g>
    </g>
    <g id="xtick_4">
     <g id="line2d_4">
      <g>
       <use style="stroke:#000000;stroke-width:0.8;" x="195.578182" xlink:href="#m54731f534b" y="307.584"/>
      </g>
     </g>
     <g id="text_4">
      <!-- 0.50 -->
      <g transform="translate(184.445369 322.182437)scale(0.1 -0.1)">
       <use xlink:href="#DejaVuSans-48"/>
       <use x="63.623047" xlink:href="#DejaVuSans-46"/>
       <use x="95.410156" xlink:href="#DejaVuSans-53"/>
       <use x="159.033203" xlink:href="#DejaVuSans-48"/>
      </g>
     </g>
    </g>
    <g id="xtick_5">
     <g id="line2d_5">
      <g>
       <use style="stroke:#000000;stroke-width:0.8;" x="236.16" xlink:href="#m54731f534b" y="307.584"/>
      </g>
     </g>
     <g id="text_5">
      <!-- 0.55 -->
      <g transform="translate(225.027188 322.182437)scale(0.1 -0.1)">
       <use xlink:href="#DejaVuSans-48"/>
       <use x="63.623047" xlink:href="#DejaVuSans-46"/>
       <use x="95.410156" xlink:href="#DejaVuSans-53"/>
       <use x="159.033203" xlink:href="#DejaVuSans-53"/>
      </g>
     </g>
    </g>
    <g id="xtick_6">
     <g id="line2d_6">
      <g>
       <use style="stroke:#000000;stroke-width:0.8;" x="276.741818" xlink:href="#m54731f534b" y="307.584"/>
      </g>
     </g>
     <g id="text_6">
      <!-- 0.60 -->
      <defs>
       <path d="M 33.015625 40.375 
Q 26.375 40.375 22.484375 35.828125 
Q 18.609375 31.296875 18.609375 23.390625 
Q 18.609375 15.53125 22.484375 10.953125 
Q 26.375 6.390625 33.015625 6.390625 
Q 39.65625 6.390625 43.53125 10.953125 
Q 47.40625 15.53125 47.40625 23.390625 
Q 47.40625 31.296875 43.53125 35.828125 
Q 39.65625 40.375 33.015625 40.375 
z
M 52.59375 71.296875 
L 52.59375 62.3125 
Q 48.875 64.0625 45.09375 64.984375 
Q 41.3125 65.921875 37.59375 65.921875 
Q 27.828125 65.921875 22.671875 59.328125 
Q 17.53125 52.734375 16.796875 39.40625 
Q 19.671875 43.65625 24.015625 45.921875 
Q 28.375 48.1875 33.59375 48.1875 
Q 44.578125 48.1875 50.953125 41.515625 
Q 57.328125 34.859375 57.328125 23.390625 
Q 57.328125 12.15625 50.6875 5.359375 
Q 44.046875 -1.421875 33.015625 -1.421875 
Q 20.359375 -1.421875 13.671875 8.265625 
Q 6.984375 17.96875 6.984375 36.375 
Q 6.984375 53.65625 15.1875 63.9375 
Q 23.390625 74.21875 37.203125 74.21875 
Q 40.921875 74.21875 44.703125 73.484375 
Q 48.484375 72.75 52.59375 71.296875 
z
" id="DejaVuSans-54"/>
      </defs>
      <g transform="translate(265.609006 322.182437)scale(0.1 -0.1)">
       <use xlink:href="#DejaVuSans-48"/>
       <use x="63.623047" xlink:href="#DejaVuSans-46"/>
       <use x="95.410156" xlink:href="#DejaVuSans-54"/>
       <use x="159.033203" xlink:href="#DejaVuSans-48"/>
      </g>
     </g>
    </g>
    <g id="xtick_7">
     <g id="line2d_7">
      <g>
       <use style="stroke:#000000;stroke-width:0.8;" x="317.323636" xlink:href="#m54731f534b" y="307.584"/>
      </g>
     </g>
     <g id="text_7">
      <!-- 0.65 -->
      <g transform="translate(306.190824 322.182437)scale(0.1 -0.1)">
       <use xlink:href="#DejaVuSans-48"/>
       <use x="63.623047" xlink:href="#DejaVuSans-46"/>
       <use x="95.410156" xlink:href="#DejaVuSans-54"/>
       <use x="159.033203" xlink:href="#DejaVuSans-53"/>
      </g>
     </g>
    </g>
    <g id="xtick_8">
     <g id="line2d_8">
      <g>
       <use style="stroke:#000000;stroke-width:0.8;" x="357.905455" xlink:href="#m54731f534b" y="307.584"/>
      </g>
     </g>
     <g id="text_8">
      <!-- 0.70 -->
      <defs>
       <path d="M 8.203125 72.90625 
L 55.078125 72.90625 
L 55.078125 68.703125 
L 28.609375 0 
L 18.3125 0 
L 43.21875 64.59375 
L 8.203125 64.59375 
z
" id="DejaVuSans-55"/>
      </defs>
      <g transform="translate(346.772642 322.182437)scale(0.1 -0.1)">
       <use xlink:href="#DejaVuSans-48"/>
       <use x="63.623047" xlink:href="#DejaVuSans-46"/>
       <use x="95.410156" xlink:href="#DejaVuSans-55"/>
       <use x="159.033203" xlink:href="#DejaVuSans-48"/>
      </g>
     </g>
    </g>
    <g id="xtick_9">
     <g id="line2d_9">
      <g>
       <use style="stroke:#000000;stroke-width:0.8;" x="398.487273" xlink:href="#m54731f534b" y="307.584"/>
      </g>
     </g>
     <g id="text_9">
      <!-- 0.75 -->
      <g transform="translate(387.35446 322.182437)scale(0.1 -0.1)">
       <use xlink:href="#DejaVuSans-48"/>
       <use x="63.623047" xlink:href="#DejaVuSans-46"/>
       <use x="95.410156" xlink:href="#DejaVuSans-55"/>
       <use x="159.033203" xlink:href="#DejaVuSans-53"/>
      </g>
     </g>
    </g>
   </g>
   <g id="matplotlib.axis_2">
    <g id="ytick_1">
     <g id="line2d_10">
      <defs>
       <path d="M 0 0 
L -3.5 0 
" id="m00624babcf" style="stroke:#000000;stroke-width:0.8;"/>
      </defs>
      <g>
       <use style="stroke:#000000;stroke-width:0.8;" x="57.6" xlink:href="#m00624babcf" y="277.95623"/>
      </g>
     </g>
     <g id="text_10">
      <!-- 0.70 -->
      <g transform="translate(28.334375 281.755449)scale(0.1 -0.1)">
       <use xlink:href="#DejaVuSans-48"/>
       <use x="63.623047" xlink:href="#DejaVuSans-46"/>
       <use x="95.410156" xlink:href="#DejaVuSans-55"/>
       <use x="159.033203" xlink:href="#DejaVuSans-48"/>
      </g>
     </g>
    </g>
    <g id="ytick_2">
     <g id="line2d_11">
      <g>
       <use style="stroke:#000000;stroke-width:0.8;" x="57.6" xlink:href="#m00624babcf" y="237.190838"/>
      </g>
     </g>
     <g id="text_11">
      <!-- 0.72 -->
      <defs>
       <path d="M 19.1875 8.296875 
L 53.609375 8.296875 
L 53.609375 0 
L 7.328125 0 
L 7.328125 8.296875 
Q 12.9375 14.109375 22.625 23.890625 
Q 32.328125 33.6875 34.8125 36.53125 
Q 39.546875 41.84375 41.421875 45.53125 
Q 43.3125 49.21875 43.3125 52.78125 
Q 43.3125 58.59375 39.234375 62.25 
Q 35.15625 65.921875 28.609375 65.921875 
Q 23.96875 65.921875 18.8125 64.3125 
Q 13.671875 62.703125 7.8125 59.421875 
L 7.8125 69.390625 
Q 13.765625 71.78125 18.9375 73 
Q 24.125 74.21875 28.421875 74.21875 
Q 39.75 74.21875 46.484375 68.546875 
Q 53.21875 62.890625 53.21875 53.421875 
Q 53.21875 48.921875 51.53125 44.890625 
Q 49.859375 40.875 45.40625 35.40625 
Q 44.1875 33.984375 37.640625 27.21875 
Q 31.109375 20.453125 19.1875 8.296875 
z
" id="DejaVuSans-50"/>
      </defs>
      <g transform="translate(28.334375 240.990057)scale(0.1 -0.1)">
       <use xlink:href="#DejaVuSans-48"/>
       <use x="63.623047" xlink:href="#DejaVuSans-46"/>
       <use x="95.410156" xlink:href="#DejaVuSans-55"/>
       <use x="159.033203" xlink:href="#DejaVuSans-50"/>
      </g>
     </g>
    </g>
    <g id="ytick_3">
     <g id="line2d_12">
      <g>
       <use style="stroke:#000000;stroke-width:0.8;" x="57.6" xlink:href="#m00624babcf" y="196.425446"/>
      </g>
     </g>
     <g id="text_12">
      <!-- 0.74 -->
      <g transform="translate(28.334375 200.224665)scale(0.1 -0.1)">
       <use xlink:href="#DejaVuSans-48"/>
       <use x="63.623047" xlink:href="#DejaVuSans-46"/>
       <use x="95.410156" xlink:href="#DejaVuSans-55"/>
       <use x="159.033203" xlink:href="#DejaVuSans-52"/>
      </g>
     </g>
    </g>
    <g id="ytick_4">
     <g id="line2d_13">
      <g>
       <use style="stroke:#000000;stroke-width:0.8;" x="57.6" xlink:href="#m00624babcf" y="155.660054"/>
      </g>
     </g>
     <g id="text_13">
      <!-- 0.76 -->
      <g transform="translate(28.334375 159.459273)scale(0.1 -0.1)">
       <use xlink:href="#DejaVuSans-48"/>
       <use x="63.623047" xlink:href="#DejaVuSans-46"/>
       <use x="95.410156" xlink:href="#DejaVuSans-55"/>
       <use x="159.033203" xlink:href="#DejaVuSans-54"/>
      </g>
     </g>
    </g>
    <g id="ytick_5">
     <g id="line2d_14">
      <g>
       <use style="stroke:#000000;stroke-width:0.8;" x="57.6" xlink:href="#m00624babcf" y="114.894662"/>
      </g>
     </g>
     <g id="text_14">
      <!-- 0.78 -->
      <defs>
       <path d="M 31.78125 34.625 
Q 24.75 34.625 20.71875 30.859375 
Q 16.703125 27.09375 16.703125 20.515625 
Q 16.703125 13.921875 20.71875 10.15625 
Q 24.75 6.390625 31.78125 6.390625 
Q 38.8125 6.390625 42.859375 10.171875 
Q 46.921875 13.96875 46.921875 20.515625 
Q 46.921875 27.09375 42.890625 30.859375 
Q 38.875 34.625 31.78125 34.625 
z
M 21.921875 38.8125 
Q 15.578125 40.375 12.03125 44.71875 
Q 8.5 49.078125 8.5 55.328125 
Q 8.5 64.0625 14.71875 69.140625 
Q 20.953125 74.21875 31.78125 74.21875 
Q 42.671875 74.21875 48.875 69.140625 
Q 55.078125 64.0625 55.078125 55.328125 
Q 55.078125 49.078125 51.53125 44.71875 
Q 48 40.375 41.703125 38.8125 
Q 48.828125 37.15625 52.796875 32.3125 
Q 56.78125 27.484375 56.78125 20.515625 
Q 56.78125 9.90625 50.3125 4.234375 
Q 43.84375 -1.421875 31.78125 -1.421875 
Q 19.734375 -1.421875 13.25 4.234375 
Q 6.78125 9.90625 6.78125 20.515625 
Q 6.78125 27.484375 10.78125 32.3125 
Q 14.796875 37.15625 21.921875 38.8125 
z
M 18.3125 54.390625 
Q 18.3125 48.734375 21.84375 45.5625 
Q 25.390625 42.390625 31.78125 42.390625 
Q 38.140625 42.390625 41.71875 45.5625 
Q 45.3125 48.734375 45.3125 54.390625 
Q 45.3125 60.0625 41.71875 63.234375 
Q 38.140625 66.40625 31.78125 66.40625 
Q 25.390625 66.40625 21.84375 63.234375 
Q 18.3125 60.0625 18.3125 54.390625 
z
" id="DejaVuSans-56"/>
      </defs>
      <g transform="translate(28.334375 118.693881)scale(0.1 -0.1)">
       <use xlink:href="#DejaVuSans-48"/>
       <use x="63.623047" xlink:href="#DejaVuSans-46"/>
       <use x="95.410156" xlink:href="#DejaVuSans-55"/>
       <use x="159.033203" xlink:href="#DejaVuSans-56"/>
      </g>
     </g>
    </g>
    <g id="ytick_6">
     <g id="line2d_15">
      <g>
       <use style="stroke:#000000;stroke-width:0.8;" x="57.6" xlink:href="#m00624babcf" y="74.12927"/>
      </g>
     </g>
     <g id="text_15">
      <!-- 0.80 -->
      <g transform="translate(28.334375 77.928489)scale(0.1 -0.1)">
       <use xlink:href="#DejaVuSans-48"/>
       <use x="63.623047" xlink:href="#DejaVuSans-46"/>
       <use x="95.410156" xlink:href="#DejaVuSans-56"/>
       <use x="159.033203" xlink:href="#DejaVuSans-48"/>
      </g>
     </g>
    </g>
   </g>
   <g id="line2d_16">
    <path clip-path="url(#p63894a631e)" d="M 398.487273 295.488 
L 391.540314 286.445859 
L 384.750127 279.141542 
L 378.111464 272.776677 
L 371.61931 267.09745 
L 365.268868 261.988595 
L 359.055547 257.355679 
L 352.974953 253.054119 
L 347.02288 248.871156 
L 341.195294 244.604105 
L 335.488331 240.130427 
L 329.898284 235.440859 
L 324.421597 230.605852 
L 319.054856 225.733567 
L 313.794783 220.948179 
L 308.638229 216.380068 
L 303.582168 212.147091 
L 298.623691 208.292202 
L 293.76 204.704228 
L 288.988402 201.129306 
L 284.306307 197.327875 
L 279.71122 193.21821 
L 275.200736 188.865837 
L 270.772543 184.396269 
L 266.424407 179.936486 
L 262.154177 175.604669 
L 257.959778 171.525319 
L 253.839208 167.844502 
L 249.790534 164.699631 
L 245.811892 162.086228 
L 241.901479 159.744037 
L 238.057556 157.365244 
L 234.27844 154.889367 
L 230.562508 152.444542 
L 226.908187 150.165863 
L 223.313957 148.131008 
L 219.778349 146.370186 
L 216.299939 144.900739 
L 212.877352 143.871832 
L 209.509254 144.120578 
L 206.194353 145.418551 
L 202.931401 145.877259 
L 199.719184 146.360234 
L 196.556528 147.287078 
L 193.442297 148.71192 
L 190.375385 150.633436 
L 187.354722 153.04008 
L 184.37927 155.912932 
L 181.448022 159.223442 
L 178.56 162.931027 
L 175.714254 166.981288 
L 172.909864 171.306186 
L 170.145933 175.82799 
L 167.421594 180.467968 
L 164.736 185.158256 
L 162.088332 189.851606 
L 159.477791 194.523781 
L 156.903603 199.167558 
L 154.365013 203.782688 
L 151.861288 208.367583 
L 149.391714 212.915232 
L 146.955597 217.412632 
L 144.552262 221.840824 
L 142.181053 226.172573 
L 139.841328 230.365305 
L 137.532465 234.348632 
L 135.253857 238.01179 
L 133.004915 241.206282 
L 130.785061 243.784577 
L 128.593735 245.671933 
L 126.430391 246.919494 
L 124.294496 247.683651 
L 122.185532 248.149924 
L 120.102991 248.46999 
L 118.046381 248.745446 
L 116.01522 249.043933 
L 114.009039 249.425258 
L 112.02738 249.968215 
L 110.069795 250.79884 
L 108.135849 252.100827 
L 106.225116 253.936769 
L 104.337181 255.37386 
L 102.471638 254.47705 
L 100.628091 252.219989 
L 98.806154 250.611024 
L 97.005448 249.84578 
L 95.225605 249.612354 
L 93.466263 249.694838 
L 91.727072 249.98098 
L 90.007687 250.413022 
L 88.307771 250.959798 
L 86.626995 251.603676 
L 84.965038 252.333928 
L 83.321587 253.144353 
L 81.696332 254.030806 
L 80.088975 254.990719 
L 78.49922 256.022336 
L 76.92678 257.123642 
L 75.371374 258.293455 
L 73.832727 259.52933 
" style="fill:none;stroke:#ff7f0e;stroke-linecap:square;stroke-width:1.5;"/>
   </g>
   <g id="line2d_17">
    <path clip-path="url(#p63894a631e)" d="M 398.487273 244.402709 
L 391.540314 236.512399 
L 384.750127 229.644792 
L 378.111464 223.201797 
L 371.61931 216.977493 
L 365.268868 210.93485 
L 359.055547 205.108723 
L 352.974953 199.55056 
L 347.02288 194.307549 
L 341.195294 189.402994 
L 335.488331 184.819615 
L 329.898284 180.480758 
L 324.421597 176.250368 
L 319.054856 171.970921 
L 313.794783 167.523262 
L 308.638229 162.868606 
L 303.582168 158.044414 
L 298.623691 153.1306 
L 293.76 148.214688 
L 288.988402 143.371801 
L 284.306307 138.660262 
L 279.71122 134.126155 
L 275.200736 129.811846 
L 270.772543 125.762593 
L 266.424407 122.023701 
L 262.154177 118.617476 
L 257.959778 115.501203 
L 253.839208 112.550396 
L 249.790534 109.624723 
L 245.811892 106.670131 
L 241.901479 103.740078 
L 238.057556 100.936172 
L 234.27844 98.352253 
L 230.562508 96.05491 
L 226.908187 94.086161 
L 223.313957 92.473189 
L 219.778349 91.245897 
L 216.299939 90.493824 
L 212.877352 90.524736 
L 209.509254 91.492606 
L 206.194353 92.392289 
L 202.931401 93.211305 
L 199.719184 94.361706 
L 196.556528 95.935586 
L 193.442297 97.927019 
L 190.375385 100.315702 
L 187.354722 103.081563 
L 184.37927 106.206437 
L 181.448022 109.673337 
L 178.56 113.465038 
L 175.714254 117.562429 
L 172.909864 121.943086 
L 170.145933 126.580307 
L 167.421594 131.442803 
L 164.736 136.49492 
L 162.088332 141.697169 
L 159.477791 147.006792 
L 156.903603 152.378014 
L 154.365013 157.761662 
L 151.861288 163.103872 
L 149.391714 168.343812 
L 146.955597 173.411023 
L 144.552262 178.224087 
L 142.181053 182.693802 
L 139.841328 186.734101 
L 137.532465 190.28049 
L 135.253857 193.308799 
L 133.004915 195.842642 
L 130.785061 197.94359 
L 128.593735 199.690197 
L 126.430391 201.158515 
L 124.294496 202.41219 
L 122.185532 203.502123 
L 120.102991 204.471645 
L 118.046381 205.363564 
L 116.01522 206.22764 
L 114.009039 207.128023 
L 112.02738 208.147495 
L 110.069795 209.368569 
L 108.135849 210.753195 
L 106.225116 211.801894 
L 104.337181 211.541045 
L 102.471638 210.032706 
L 100.628091 208.523063 
L 98.806154 207.602334 
L 97.005448 207.198025 
L 95.225605 207.139597 
L 93.466263 207.314055 
L 91.727072 207.660036 
L 90.007687 208.14555 
L 88.307771 208.753704 
L 86.626995 209.474975 
L 84.965038 210.303289 
L 83.321587 211.233987 
L 81.696332 212.262641 
L 80.088975 213.384558 
L 78.49922 214.594222 
L 76.92678 215.885127 
L 75.371374 217.24949 
L 73.832727 218.677994 
" style="fill:none;stroke:#2ca02c;stroke-linecap:square;stroke-width:1.5;"/>
   </g>
   <g id="line2d_18">
    <path clip-path="url(#p63894a631e)" d="M 398.487273 224.040264 
L 391.540314 215.413278 
L 384.750127 207.963835 
L 378.111464 201.223187 
L 371.61931 194.988787 
L 365.268868 189.157267 
L 359.055547 183.674078 
L 352.974953 178.50258 
L 347.02288 173.602727 
L 341.195294 168.909681 
L 335.488331 164.326485 
L 329.898284 159.74257 
L 324.421597 155.069179 
L 319.054856 150.269182 
L 313.794783 145.358306 
L 308.638229 140.384903 
L 303.582168 135.406013 
L 298.623691 130.472837 
L 293.76 125.627407 
L 288.988402 120.905154 
L 284.306307 116.340231 
L 279.71122 111.969778 
L 275.200736 107.834996 
L 270.772543 103.974589 
L 266.424407 100.405515 
L 262.154177 97.095567 
L 257.959778 93.955238 
L 253.839208 90.882473 
L 249.790534 87.83341 
L 245.811892 84.84451 
L 241.901479 81.99482 
L 238.057556 79.36193 
L 234.27844 77.00327 
L 230.562508 74.95641 
L 226.908187 73.245863 
L 223.313957 71.892176 
L 219.778349 70.931142 
L 216.299939 70.47604 
L 212.877352 70.80686 
L 209.509254 71.792612 
L 206.194353 72.658529 
L 202.931401 73.589471 
L 199.719184 74.874005 
L 196.556528 76.570716 
L 193.442297 78.675516 
L 190.375385 81.175549 
L 187.354722 84.057929 
L 184.37927 87.309677 
L 181.448022 90.916205 
L 178.56 94.859935 
L 175.714254 99.119308 
L 172.909864 103.66831 
L 170.145933 108.476432 
L 167.421594 113.508895 
L 164.736 118.727018 
L 162.088332 124.088469 
L 159.477791 129.547255 
L 156.903603 135.053236 
L 154.365013 140.551023 
L 151.861288 145.978417 
L 149.391714 151.264902 
L 146.955597 156.331678 
L 144.552262 161.095318 
L 142.181053 165.476884 
L 139.841328 169.415739 
L 137.532465 172.882871 
L 135.253857 175.886412 
L 133.004915 178.465451 
L 130.785061 180.675793 
L 128.593735 182.57562 
L 126.430391 184.21689 
L 124.294496 185.643506 
L 122.185532 186.893904 
L 120.102991 188.005601 
L 118.046381 189.020223 
L 116.01522 189.988469 
L 114.009039 190.97404 
L 112.02738 192.049812 
L 110.069795 193.258745 
L 108.135849 194.464634 
L 106.225116 195.097318 
L 104.337181 194.491304 
L 102.471638 193.067106 
L 100.628091 191.814826 
L 98.806154 191.086099 
L 97.005448 190.796562 
L 95.225605 190.811168 
L 93.466263 191.040733 
L 91.727072 191.435887 
L 90.007687 191.970212 
L 88.307771 192.629191 
L 86.626995 193.404142 
L 84.965038 194.288783 
L 83.321587 195.277794 
L 81.696332 196.36556 
L 80.088975 197.545865 
L 78.49922 198.811554 
L 76.92678 200.15406 
L 75.371374 201.563937 
L 73.832727 203.030107 
" style="fill:none;stroke:#d62728;stroke-linecap:square;stroke-width:1.5;"/>
   </g>
   <g id="line2d_19">
    <path clip-path="url(#p63894a631e)" d="M 398.487273 212.37862 
L 391.540314 203.829726 
L 384.750127 196.469119 
L 378.111464 189.8189 
L 371.61931 183.666999 
L 365.268868 177.910751 
L 359.055547 172.494734 
L 352.974953 167.374131 
L 347.02288 162.487327 
L 341.195294 157.746674 
L 335.488331 153.048129 
L 329.898284 148.300522 
L 324.421597 143.453635 
L 319.054856 138.50587 
L 313.794783 133.491383 
L 308.638229 128.459154 
L 303.582168 123.458019 
L 298.623691 118.530436 
L 293.76 113.712622 
L 288.988402 109.037753 
L 284.306307 104.539302 
L 279.71122 100.253053 
L 275.200736 96.214765 
L 270.772543 92.449743 
L 266.424407 88.95288 
L 262.154177 85.670715 
L 257.959778 82.514198 
L 253.839208 79.412109 
L 249.790534 76.358895 
L 245.811892 73.409032 
L 241.901479 70.63726 
L 238.057556 68.108223 
L 234.27844 65.867622 
L 230.562508 63.945384 
L 226.908187 62.362082 
L 223.313957 61.13756 
L 219.778349 60.311295 
L 216.299939 60.003944 
L 212.877352 60.45931 
L 209.509254 61.439137 
L 206.194353 62.313852 
L 202.931401 63.31247 
L 199.719184 64.673429 
L 196.556528 66.443613 
L 193.442297 68.619798 
L 190.375385 71.191433 
L 187.354722 74.147238 
L 184.37927 77.47478 
L 181.448022 81.159145 
L 178.56 85.181846 
L 175.714254 89.520198 
L 172.909864 94.147098 
L 170.145933 99.031093 
L 167.421594 104.136612 
L 164.736 109.424169 
L 162.088332 114.85042 
L 159.477791 120.367881 
L 156.903603 125.924215 
L 154.365013 131.461062 
L 151.861288 136.912751 
L 149.391714 142.205739 
L 146.955597 147.260341 
L 144.552262 151.996494 
L 142.181053 156.344119 
L 139.841328 160.255598 
L 137.532465 163.714808 
L 135.253857 166.737445 
L 133.004915 169.362244 
L 130.785061 171.638152 
L 128.593735 173.613755 
L 126.430391 175.332204 
L 124.294496 176.831156 
L 122.185532 178.145649 
L 120.102991 179.312051 
L 118.046381 180.372211 
L 116.01522 181.377363 
L 114.009039 182.390125 
L 112.02738 183.47636 
L 110.069795 184.656675 
L 108.135849 185.751963 
L 106.225116 186.193001 
L 104.337181 185.478245 
L 102.471638 184.126632 
L 100.628091 182.998456 
L 98.806154 182.361132 
L 97.005448 182.13002 
L 95.225605 182.184935 
L 93.466263 182.446607 
L 91.727072 182.870594 
L 90.007687 183.432769 
L 88.307771 184.119541 
L 86.626995 184.922367 
L 84.965038 185.834883 
L 83.321587 186.851244 
L 81.696332 187.965358 
L 80.088975 189.170354 
L 78.49922 190.458308 
L 76.92678 191.820224 
L 75.371374 193.245877 
L 73.832727 194.724201 
" style="fill:none;stroke:#9467bd;stroke-linecap:square;stroke-width:1.5;"/>
   </g>
   <g id="line2d_20">
    <path clip-path="url(#p63894a631e)" d="M 398.487273 205.192123 
L 391.540314 196.701205 
L 384.750127 189.375681 
L 378.111464 182.755191 
L 371.61931 176.634544 
L 365.268868 170.912939 
L 359.055547 165.530023 
L 352.974953 160.429005 
L 347.02288 155.533906 
L 341.195294 150.74802 
L 335.488331 145.971082 
L 329.898284 141.128399 
L 324.421597 136.190118 
L 319.054856 131.169678 
L 313.794783 126.10717 
L 308.638229 121.050828 
L 303.582168 116.045957 
L 298.623691 111.131229 
L 293.76 106.339992 
L 288.988402 101.703324 
L 284.306307 97.252943 
L 279.71122 93.022141 
L 275.200736 89.041839 
L 270.772543 85.328717 
L 266.424407 81.866305 
L 262.154177 78.594191 
L 257.959778 75.430202 
L 253.839208 72.32247 
L 249.790534 69.282696 
L 245.811892 66.370225 
L 241.901479 63.655127 
L 238.057556 61.194823 
L 234.27844 59.029171 
L 230.562508 57.184414 
L 226.908187 55.67927 
L 223.313957 54.533455 
L 219.778349 53.788602 
L 216.299939 53.568 
L 212.877352 54.088654 
L 209.509254 55.063982 
L 206.194353 55.952077 
L 202.931401 56.995453 
L 199.719184 58.406017 
L 196.556528 60.224604 
L 193.442297 62.448145 
L 190.375385 65.066881 
L 187.354722 68.06994 
L 184.37927 71.444853 
L 181.448022 75.176358 
L 178.56 79.245487 
L 175.714254 83.629082 
L 172.909864 88.299647 
L 170.145933 93.225432 
L 167.421594 98.370596 
L 164.736 103.695322 
L 162.088332 109.155743 
L 159.477791 114.703533 
L 156.903603 120.285108 
L 154.365013 125.8405 
L 151.861288 131.30235 
L 149.391714 136.596 
L 146.955597 141.642194 
L 144.552262 146.363797 
L 142.181053 150.696304 
L 139.841328 154.599012 
L 137.532465 158.061551 
L 135.253857 161.101963 
L 133.004915 163.757358 
L 130.785061 166.072358 
L 128.593735 168.090512 
L 126.430391 169.85073 
L 124.294496 171.387887 
L 122.185532 172.735654 
L 120.102991 173.930093 
L 118.046381 175.013324 
L 116.01522 176.036782 
L 114.009039 177.062083 
L 112.02738 178.150228 
L 110.069795 179.308091 
L 108.135849 180.334227 
L 106.225116 180.670549 
L 104.337181 179.910145 
L 102.471638 178.609095 
L 100.628091 177.553556 
L 98.806154 176.969515 
L 97.005448 176.773284 
L 95.225605 176.852816 
L 93.466263 177.134181 
L 91.727072 177.575682 
L 90.007687 178.154455 
L 88.307771 178.857408 
L 86.626995 179.676161 
L 84.965038 180.604216 
L 83.321587 181.635567 
L 81.696332 182.763819 
L 80.088975 183.981768 
L 78.49922 185.281241 
L 76.92678 186.652872 
L 75.371374 188.08639 
L 73.832727 189.570611 
" style="fill:none;stroke:#8c564b;stroke-linecap:square;stroke-width:1.5;"/>
   </g>
   <g id="patch_3">
    <path d="M 57.6 307.584 
L 57.6 41.472 
" style="fill:none;stroke:#000000;stroke-linecap:square;stroke-linejoin:miter;stroke-width:0.8;"/>
   </g>
   <g id="patch_4">
    <path d="M 414.72 307.584 
L 414.72 41.472 
" style="fill:none;stroke:#000000;stroke-linecap:square;stroke-linejoin:miter;stroke-width:0.8;"/>
   </g>
   <g id="patch_5">
    <path d="M 57.6 307.584 
L 414.72 307.584 
" style="fill:none;stroke:#000000;stroke-linecap:square;stroke-linejoin:miter;stroke-width:0.8;"/>
   </g>
   <g id="patch_6">
    <path d="M 57.6 41.472 
L 414.72 41.472 
" style="fill:none;stroke:#000000;stroke-linecap:square;stroke-linejoin:miter;stroke-width:0.8;"/>
   </g>
   <g id="text_16">
    <!-- diff: 0.0017562132500590355 -->
    <defs>
     <path d="M 45.40625 46.390625 
L 45.40625 75.984375 
L 54.390625 75.984375 
L 54.390625 0 
L 45.40625 0 
L 45.40625 8.203125 
Q 42.578125 3.328125 38.25 0.953125 
Q 33.9375 -1.421875 27.875 -1.421875 
Q 17.96875 -1.421875 11.734375 6.484375 
Q 5.515625 14.40625 5.515625 27.296875 
Q 5.515625 40.1875 11.734375 48.09375 
Q 17.96875 56 27.875 56 
Q 33.9375 56 38.25 53.625 
Q 42.578125 51.265625 45.40625 46.390625 
z
M 14.796875 27.296875 
Q 14.796875 17.390625 18.875 11.75 
Q 22.953125 6.109375 30.078125 6.109375 
Q 37.203125 6.109375 41.296875 11.75 
Q 45.40625 17.390625 45.40625 27.296875 
Q 45.40625 37.203125 41.296875 42.84375 
Q 37.203125 48.484375 30.078125 48.484375 
Q 22.953125 48.484375 18.875 42.84375 
Q 14.796875 37.203125 14.796875 27.296875 
z
" id="DejaVuSans-100"/>
     <path d="M 9.421875 54.6875 
L 18.40625 54.6875 
L 18.40625 0 
L 9.421875 0 
z
M 9.421875 75.984375 
L 18.40625 75.984375 
L 18.40625 64.59375 
L 9.421875 64.59375 
z
" id="DejaVuSans-105"/>
     <path d="M 37.109375 75.984375 
L 37.109375 68.5 
L 28.515625 68.5 
Q 23.6875 68.5 21.796875 66.546875 
Q 19.921875 64.59375 19.921875 59.515625 
L 19.921875 54.6875 
L 34.71875 54.6875 
L 34.71875 47.703125 
L 19.921875 47.703125 
L 19.921875 0 
L 10.890625 0 
L 10.890625 47.703125 
L 2.296875 47.703125 
L 2.296875 54.6875 
L 10.890625 54.6875 
L 10.890625 58.5 
Q 10.890625 67.625 15.140625 71.796875 
Q 19.390625 75.984375 28.609375 75.984375 
z
" id="DejaVuSans-102"/>
     <path d="M 11.71875 12.40625 
L 22.015625 12.40625 
L 22.015625 0 
L 11.71875 0 
z
M 11.71875 51.703125 
L 22.015625 51.703125 
L 22.015625 39.3125 
L 11.71875 39.3125 
z
" id="DejaVuSans-58"/>
     <path id="DejaVuSans-32"/>
     <path d="M 12.40625 8.296875 
L 28.515625 8.296875 
L 28.515625 63.921875 
L 10.984375 60.40625 
L 10.984375 69.390625 
L 28.421875 72.90625 
L 38.28125 72.90625 
L 38.28125 8.296875 
L 54.390625 8.296875 
L 54.390625 0 
L 12.40625 0 
z
" id="DejaVuSans-49"/>
     <path d="M 10.984375 1.515625 
L 10.984375 10.5 
Q 14.703125 8.734375 18.5 7.8125 
Q 22.3125 6.890625 25.984375 6.890625 
Q 35.75 6.890625 40.890625 13.453125 
Q 46.046875 20.015625 46.78125 33.40625 
Q 43.953125 29.203125 39.59375 26.953125 
Q 35.25 24.703125 29.984375 24.703125 
Q 19.046875 24.703125 12.671875 31.3125 
Q 6.296875 37.9375 6.296875 49.421875 
Q 6.296875 60.640625 12.9375 67.421875 
Q 19.578125 74.21875 30.609375 74.21875 
Q 43.265625 74.21875 49.921875 64.515625 
Q 56.59375 54.828125 56.59375 36.375 
Q 56.59375 19.140625 48.40625 8.859375 
Q 40.234375 -1.421875 26.421875 -1.421875 
Q 22.703125 -1.421875 18.890625 -0.6875 
Q 15.09375 0.046875 10.984375 1.515625 
z
M 30.609375 32.421875 
Q 37.25 32.421875 41.125 36.953125 
Q 45.015625 41.5 45.015625 49.421875 
Q 45.015625 57.28125 41.125 61.84375 
Q 37.25 66.40625 30.609375 66.40625 
Q 23.96875 66.40625 20.09375 61.84375 
Q 16.21875 57.28125 16.21875 49.421875 
Q 16.21875 41.5 20.09375 36.953125 
Q 23.96875 32.421875 30.609375 32.421875 
z
" id="DejaVuSans-57"/>
    </defs>
    <g transform="translate(144.492188 35.472)scale(0.12 -0.12)">
     <use xlink:href="#DejaVuSans-100"/>
     <use x="63.476562" xlink:href="#DejaVuSans-105"/>
     <use x="91.259766" xlink:href="#DejaVuSans-102"/>
     <use x="126.464844" xlink:href="#DejaVuSans-102"/>
     <use x="158.044922" xlink:href="#DejaVuSans-58"/>
     <use x="191.736328" xlink:href="#DejaVuSans-32"/>
     <use x="223.523438" xlink:href="#DejaVuSans-48"/>
     <use x="287.146484" xlink:href="#DejaVuSans-46"/>
     <use x="318.933594" xlink:href="#DejaVuSans-48"/>
     <use x="382.556641" xlink:href="#DejaVuSans-48"/>
     <use x="446.179688" xlink:href="#DejaVuSans-49"/>
     <use x="509.802734" xlink:href="#DejaVuSans-55"/>
     <use x="573.425781" xlink:href="#DejaVuSans-53"/>
     <use x="637.048828" xlink:href="#DejaVuSans-54"/>
     <use x="700.671875" xlink:href="#DejaVuSans-50"/>
     <use x="764.294922" xlink:href="#DejaVuSans-49"/>
     <use x="827.917969" xlink:href="#DejaVuSans-51"/>
     <use x="891.541016" xlink:href="#DejaVuSans-50"/>
     <use x="955.164062" xlink:href="#DejaVuSans-53"/>
     <use x="1018.787109" xlink:href="#DejaVuSans-48"/>
     <use x="1082.410156" xlink:href="#DejaVuSans-48"/>
     <use x="1146.033203" xlink:href="#DejaVuSans-53"/>
     <use x="1209.65625" xlink:href="#DejaVuSans-57"/>
     <use x="1273.279297" xlink:href="#DejaVuSans-48"/>
     <use x="1336.902344" xlink:href="#DejaVuSans-51"/>
     <use x="1400.525391" xlink:href="#DejaVuSans-53"/>
     <use x="1464.148438" xlink:href="#DejaVuSans-53"/>
    </g>
   </g>
   <g id="legend_1">
    <g id="patch_7">
     <path d="M 182.524062 302.584 
L 289.795937 302.584 
Q 291.795937 302.584 291.795937 300.584 
L 291.795937 228.193375 
Q 291.795937 226.193375 289.795937 226.193375 
L 182.524062 226.193375 
Q 180.524062 226.193375 180.524062 228.193375 
L 180.524062 300.584 
Q 180.524062 302.584 182.524062 302.584 
z
" style="fill:#ffffff;opacity:0.8;stroke:#cccccc;stroke-linejoin:miter;"/>
    </g>
    <g id="line2d_21">
     <path d="M 184.524062 234.291812 
L 204.524062 234.291812 
" style="fill:none;stroke:#ff7f0e;stroke-linecap:square;stroke-width:1.5;"/>
    </g>
    <g id="line2d_22"/>
    <g id="text_17">
     <!-- resolution: 100 -->
     <defs>
      <path d="M 41.109375 46.296875 
Q 39.59375 47.171875 37.8125 47.578125 
Q 36.03125 48 33.890625 48 
Q 26.265625 48 22.1875 43.046875 
Q 18.109375 38.09375 18.109375 28.8125 
L 18.109375 0 
L 9.078125 0 
L 9.078125 54.6875 
L 18.109375 54.6875 
L 18.109375 46.1875 
Q 20.953125 51.171875 25.484375 53.578125 
Q 30.03125 56 36.53125 56 
Q 37.453125 56 38.578125 55.875 
Q 39.703125 55.765625 41.0625 55.515625 
z
" id="DejaVuSans-114"/>
      <path d="M 56.203125 29.59375 
L 56.203125 25.203125 
L 14.890625 25.203125 
Q 15.484375 15.921875 20.484375 11.0625 
Q 25.484375 6.203125 34.421875 6.203125 
Q 39.59375 6.203125 44.453125 7.46875 
Q 49.3125 8.734375 54.109375 11.28125 
L 54.109375 2.78125 
Q 49.265625 0.734375 44.1875 -0.34375 
Q 39.109375 -1.421875 33.890625 -1.421875 
Q 20.796875 -1.421875 13.15625 6.1875 
Q 5.515625 13.8125 5.515625 26.8125 
Q 5.515625 40.234375 12.765625 48.109375 
Q 20.015625 56 32.328125 56 
Q 43.359375 56 49.78125 48.890625 
Q 56.203125 41.796875 56.203125 29.59375 
z
M 47.21875 32.234375 
Q 47.125 39.59375 43.09375 43.984375 
Q 39.0625 48.390625 32.421875 48.390625 
Q 24.90625 48.390625 20.390625 44.140625 
Q 15.875 39.890625 15.1875 32.171875 
z
" id="DejaVuSans-101"/>
      <path d="M 44.28125 53.078125 
L 44.28125 44.578125 
Q 40.484375 46.53125 36.375 47.5 
Q 32.28125 48.484375 27.875 48.484375 
Q 21.1875 48.484375 17.84375 46.4375 
Q 14.5 44.390625 14.5 40.28125 
Q 14.5 37.15625 16.890625 35.375 
Q 19.28125 33.59375 26.515625 31.984375 
L 29.59375 31.296875 
Q 39.15625 29.25 43.1875 25.515625 
Q 47.21875 21.78125 47.21875 15.09375 
Q 47.21875 7.46875 41.1875 3.015625 
Q 35.15625 -1.421875 24.609375 -1.421875 
Q 20.21875 -1.421875 15.453125 -0.5625 
Q 10.6875 0.296875 5.421875 2 
L 5.421875 11.28125 
Q 10.40625 8.6875 15.234375 7.390625 
Q 20.0625 6.109375 24.8125 6.109375 
Q 31.15625 6.109375 34.5625 8.28125 
Q 37.984375 10.453125 37.984375 14.40625 
Q 37.984375 18.0625 35.515625 20.015625 
Q 33.0625 21.96875 24.703125 23.78125 
L 21.578125 24.515625 
Q 13.234375 26.265625 9.515625 29.90625 
Q 5.8125 33.546875 5.8125 39.890625 
Q 5.8125 47.609375 11.28125 51.796875 
Q 16.75 56 26.8125 56 
Q 31.78125 56 36.171875 55.265625 
Q 40.578125 54.546875 44.28125 53.078125 
z
" id="DejaVuSans-115"/>
      <path d="M 30.609375 48.390625 
Q 23.390625 48.390625 19.1875 42.75 
Q 14.984375 37.109375 14.984375 27.296875 
Q 14.984375 17.484375 19.15625 11.84375 
Q 23.34375 6.203125 30.609375 6.203125 
Q 37.796875 6.203125 41.984375 11.859375 
Q 46.1875 17.53125 46.1875 27.296875 
Q 46.1875 37.015625 41.984375 42.703125 
Q 37.796875 48.390625 30.609375 48.390625 
z
M 30.609375 56 
Q 42.328125 56 49.015625 48.375 
Q 55.71875 40.765625 55.71875 27.296875 
Q 55.71875 13.875 49.015625 6.21875 
Q 42.328125 -1.421875 30.609375 -1.421875 
Q 18.84375 -1.421875 12.171875 6.21875 
Q 5.515625 13.875 5.515625 27.296875 
Q 5.515625 40.765625 12.171875 48.375 
Q 18.84375 56 30.609375 56 
z
" id="DejaVuSans-111"/>
      <path d="M 9.421875 75.984375 
L 18.40625 75.984375 
L 18.40625 0 
L 9.421875 0 
z
" id="DejaVuSans-108"/>
      <path d="M 8.5 21.578125 
L 8.5 54.6875 
L 17.484375 54.6875 
L 17.484375 21.921875 
Q 17.484375 14.15625 20.5 10.265625 
Q 23.53125 6.390625 29.59375 6.390625 
Q 36.859375 6.390625 41.078125 11.03125 
Q 45.3125 15.671875 45.3125 23.6875 
L 45.3125 54.6875 
L 54.296875 54.6875 
L 54.296875 0 
L 45.3125 0 
L 45.3125 8.40625 
Q 42.046875 3.421875 37.71875 1 
Q 33.40625 -1.421875 27.6875 -1.421875 
Q 18.265625 -1.421875 13.375 4.4375 
Q 8.5 10.296875 8.5 21.578125 
z
M 31.109375 56 
z
" id="DejaVuSans-117"/>
      <path d="M 18.3125 70.21875 
L 18.3125 54.6875 
L 36.8125 54.6875 
L 36.8125 47.703125 
L 18.3125 47.703125 
L 18.3125 18.015625 
Q 18.3125 11.328125 20.140625 9.421875 
Q 21.96875 7.515625 27.59375 7.515625 
L 36.8125 7.515625 
L 36.8125 0 
L 27.59375 0 
Q 17.1875 0 13.234375 3.875 
Q 9.28125 7.765625 9.28125 18.015625 
L 9.28125 47.703125 
L 2.6875 47.703125 
L 2.6875 54.6875 
L 9.28125 54.6875 
L 9.28125 70.21875 
z
" id="DejaVuSans-116"/>
      <path d="M 54.890625 33.015625 
L 54.890625 0 
L 45.90625 0 
L 45.90625 32.71875 
Q 45.90625 40.484375 42.875 44.328125 
Q 39.84375 48.1875 33.796875 48.1875 
Q 26.515625 48.1875 22.3125 43.546875 
Q 18.109375 38.921875 18.109375 30.90625 
L 18.109375 0 
L 9.078125 0 
L 9.078125 54.6875 
L 18.109375 54.6875 
L 18.109375 46.1875 
Q 21.34375 51.125 25.703125 53.5625 
Q 30.078125 56 35.796875 56 
Q 45.21875 56 50.046875 50.171875 
Q 54.890625 44.34375 54.890625 33.015625 
z
" id="DejaVuSans-110"/>
     </defs>
     <g transform="translate(212.524062 237.791812)scale(0.1 -0.1)">
      <use xlink:href="#DejaVuSans-114"/>
      <use x="38.863281" xlink:href="#DejaVuSans-101"/>
      <use x="100.386719" xlink:href="#DejaVuSans-115"/>
      <use x="152.486328" xlink:href="#DejaVuSans-111"/>
      <use x="213.667969" xlink:href="#DejaVuSans-108"/>
      <use x="241.451172" xlink:href="#DejaVuSans-117"/>
      <use x="304.830078" xlink:href="#DejaVuSans-116"/>
      <use x="344.039062" xlink:href="#DejaVuSans-105"/>
      <use x="371.822266" xlink:href="#DejaVuSans-111"/>
      <use x="433.003906" xlink:href="#DejaVuSans-110"/>
      <use x="496.382812" xlink:href="#DejaVuSans-58"/>
      <use x="530.074219" xlink:href="#DejaVuSans-32"/>
      <use x="561.861328" xlink:href="#DejaVuSans-49"/>
      <use x="625.484375" xlink:href="#DejaVuSans-48"/>
      <use x="689.107422" xlink:href="#DejaVuSans-48"/>
     </g>
    </g>
    <g id="line2d_23">
     <path d="M 184.524062 248.969937 
L 204.524062 248.969937 
" style="fill:none;stroke:#2ca02c;stroke-linecap:square;stroke-width:1.5;"/>
    </g>
    <g id="line2d_24"/>
    <g id="text_18">
     <!-- resolution: 200 -->
     <g transform="translate(212.524062 252.469937)scale(0.1 -0.1)">
      <use xlink:href="#DejaVuSans-114"/>
      <use x="38.863281" xlink:href="#DejaVuSans-101"/>
      <use x="100.386719" xlink:href="#DejaVuSans-115"/>
      <use x="152.486328" xlink:href="#DejaVuSans-111"/>
      <use x="213.667969" xlink:href="#DejaVuSans-108"/>
      <use x="241.451172" xlink:href="#DejaVuSans-117"/>
      <use x="304.830078" xlink:href="#DejaVuSans-116"/>
      <use x="344.039062" xlink:href="#DejaVuSans-105"/>
      <use x="371.822266" xlink:href="#DejaVuSans-111"/>
      <use x="433.003906" xlink:href="#DejaVuSans-110"/>
      <use x="496.382812" xlink:href="#DejaVuSans-58"/>
      <use x="530.074219" xlink:href="#DejaVuSans-32"/>
      <use x="561.861328" xlink:href="#DejaVuSans-50"/>
      <use x="625.484375" xlink:href="#DejaVuSans-48"/>
      <use x="689.107422" xlink:href="#DejaVuSans-48"/>
     </g>
    </g>
    <g id="line2d_25">
     <path d="M 184.524062 263.648062 
L 204.524062 263.648062 
" style="fill:none;stroke:#d62728;stroke-linecap:square;stroke-width:1.5;"/>
    </g>
    <g id="line2d_26"/>
    <g id="text_19">
     <!-- resolution: 300 -->
     <g transform="translate(212.524062 267.148062)scale(0.1 -0.1)">
      <use xlink:href="#DejaVuSans-114"/>
      <use x="38.863281" xlink:href="#DejaVuSans-101"/>
      <use x="100.386719" xlink:href="#DejaVuSans-115"/>
      <use x="152.486328" xlink:href="#DejaVuSans-111"/>
      <use x="213.667969" xlink:href="#DejaVuSans-108"/>
      <use x="241.451172" xlink:href="#DejaVuSans-117"/>
      <use x="304.830078" xlink:href="#DejaVuSans-116"/>
      <use x="344.039062" xlink:href="#DejaVuSans-105"/>
      <use x="371.822266" xlink:href="#DejaVuSans-111"/>
      <use x="433.003906" xlink:href="#DejaVuSans-110"/>
      <use x="496.382812" xlink:href="#DejaVuSans-58"/>
      <use x="530.074219" xlink:href="#DejaVuSans-32"/>
      <use x="561.861328" xlink:href="#DejaVuSans-51"/>
      <use x="625.484375" xlink:href="#DejaVuSans-48"/>
      <use x="689.107422" xlink:href="#DejaVuSans-48"/>
     </g>
    </g>
    <g id="line2d_27">
     <path d="M 184.524062 278.326188 
L 204.524062 278.326188 
" style="fill:none;stroke:#9467bd;stroke-linecap:square;stroke-width:1.5;"/>
    </g>
    <g id="line2d_28"/>
    <g id="text_20">
     <!-- resolution: 400 -->
     <g transform="translate(212.524062 281.826188)scale(0.1 -0.1)">
      <use xlink:href="#DejaVuSans-114"/>
      <use x="38.863281" xlink:href="#DejaVuSans-101"/>
      <use x="100.386719" xlink:href="#DejaVuSans-115"/>
      <use x="152.486328" xlink:href="#DejaVuSans-111"/>
      <use x="213.667969" xlink:href="#DejaVuSans-108"/>
      <use x="241.451172" xlink:href="#DejaVuSans-117"/>
      <use x="304.830078" xlink:href="#DejaVuSans-116"/>
      <use x="344.039062" xlink:href="#DejaVuSans-105"/>
      <use x="371.822266" xlink:href="#DejaVuSans-111"/>
      <use x="433.003906" xlink:href="#DejaVuSans-110"/>
      <use x="496.382812" xlink:href="#DejaVuSans-58"/>
      <use x="530.074219" xlink:href="#DejaVuSans-32"/>
      <use x="561.861328" xlink:href="#DejaVuSans-52"/>
      <use x="625.484375" xlink:href="#DejaVuSans-48"/>
      <use x="689.107422" xlink:href="#DejaVuSans-48"/>
     </g>
    </g>
    <g id="line2d_29">
     <path d="M 184.524062 293.004312 
L 204.524062 293.004312 
" style="fill:none;stroke:#8c564b;stroke-linecap:square;stroke-width:1.5;"/>
    </g>
    <g id="line2d_30"/>
    <g id="text_21">
     <!-- resolution: 500 -->
     <g transform="translate(212.524062 296.504312)scale(0.1 -0.1)">
      <use xlink:href="#DejaVuSans-114"/>
      <use x="38.863281" xlink:href="#DejaVuSans-101"/>
      <use x="100.386719" xlink:href="#DejaVuSans-115"/>
      <use x="152.486328" xlink:href="#DejaVuSans-111"/>
      <use x="213.667969" xlink:href="#DejaVuSans-108"/>
      <use x="241.451172" xlink:href="#DejaVuSans-117"/>
      <use x="304.830078" xlink:href="#DejaVuSans-116"/>
      <use x="344.039062" xlink:href="#DejaVuSans-105"/>
      <use x="371.822266" xlink:href="#DejaVuSans-111"/>
      <use x="433.003906" xlink:href="#DejaVuSans-110"/>
      <use x="496.382812" xlink:href="#DejaVuSans-58"/>
      <use x="530.074219" xlink:href="#DejaVuSans-32"/>
      <use x="561.861328" xlink:href="#DejaVuSans-53"/>
      <use x="625.484375" xlink:href="#DejaVuSans-48"/>
      <use x="689.107422" xlink:href="#DejaVuSans-48"/>
     </g>
    </g>
   </g>
  </g>
 </g>
 <defs>
  <clipPath id="p63894a631e">
   <rect height="266.112" width="357.12" x="57.6" y="41.472"/>
  </clipPath>
 </defs>
</svg>
