<?xml version="1.0" encoding="utf-8" standalone="no"?>
<!DOCTYPE svg PUBLIC "-//W3C//DTD SVG 1.1//EN"
  "http://www.w3.org/Graphics/SVG/1.1/DTD/svg11.dtd">
<!-- Created with matplotlib (https://matplotlib.org/) -->
<svg height="345.6pt" version="1.1" viewBox="0 0 460.8 345.6" width="460.8pt" xmlns="http://www.w3.org/2000/svg" xmlns:xlink="http://www.w3.org/1999/xlink">
 <defs>
  <style type="text/css">
*{stroke-linecap:butt;stroke-linejoin:round;}
  </style>
 </defs>
 <g id="figure_1">
  <g id="patch_1">
   <path d="M 0 345.6 
L 460.8 345.6 
L 460.8 0 
L 0 0 
z
" style="fill:#ffffff;"/>
  </g>
  <g id="axes_1">
   <g id="patch_2">
    <path d="M 57.6 307.584 
L 414.72 307.584 
L 414.72 41.472 
L 57.6 41.472 
z
" style="fill:#ffffff;"/>
   </g>
   <g id="matplotlib.axis_1">
    <g id="xtick_1">
     <g id="line2d_1">
      <defs>
       <path d="M 0 0 
L 0 3.5 
" id="m2a0c43b35a" style="stroke:#000000;stroke-width:0.8;"/>
      </defs>
      <g>
       <use style="stroke:#000000;stroke-width:0.8;" x="73.832727" xlink:href="#m2a0c43b35a" y="307.584"/>
      </g>
     </g>
     <g id="text_1">
      <!-- 0.35 -->
      <defs>
       <path d="M 31.78125 66.40625 
Q 24.171875 66.40625 20.328125 58.90625 
Q 16.5 51.421875 16.5 36.375 
Q 16.5 21.390625 20.328125 13.890625 
Q 24.171875 6.390625 31.78125 6.390625 
Q 39.453125 6.390625 43.28125 13.890625 
Q 47.125 21.390625 47.125 36.375 
Q 47.125 51.421875 43.28125 58.90625 
Q 39.453125 66.40625 31.78125 66.40625 
z
M 31.78125 74.21875 
Q 44.046875 74.21875 50.515625 64.515625 
Q 56.984375 54.828125 56.984375 36.375 
Q 56.984375 17.96875 50.515625 8.265625 
Q 44.046875 -1.421875 31.78125 -1.421875 
Q 19.53125 -1.421875 13.0625 8.265625 
Q 6.59375 17.96875 6.59375 36.375 
Q 6.59375 54.828125 13.0625 64.515625 
Q 19.53125 74.21875 31.78125 74.21875 
z
" id="DejaVuSans-48"/>
       <path d="M 10.6875 12.40625 
L 21 12.40625 
L 21 0 
L 10.6875 0 
z
" id="DejaVuSans-46"/>
       <path d="M 40.578125 39.3125 
Q 47.65625 37.796875 51.625 33 
Q 55.609375 28.21875 55.609375 21.1875 
Q 55.609375 10.40625 48.1875 4.484375 
Q 40.765625 -1.421875 27.09375 -1.421875 
Q 22.515625 -1.421875 17.65625 -0.515625 
Q 12.796875 0.390625 7.625 2.203125 
L 7.625 11.71875 
Q 11.71875 9.328125 16.59375 8.109375 
Q 21.484375 6.890625 26.8125 6.890625 
Q 36.078125 6.890625 40.9375 10.546875 
Q 45.796875 14.203125 45.796875 21.1875 
Q 45.796875 27.640625 41.28125 31.265625 
Q 36.765625 34.90625 28.71875 34.90625 
L 20.21875 34.90625 
L 20.21875 43.015625 
L 29.109375 43.015625 
Q 36.375 43.015625 40.234375 45.921875 
Q 44.09375 48.828125 44.09375 54.296875 
Q 44.09375 59.90625 40.109375 62.90625 
Q 36.140625 65.921875 28.71875 65.921875 
Q 24.65625 65.921875 20.015625 65.03125 
Q 15.375 64.15625 9.8125 62.3125 
L 9.8125 71.09375 
Q 15.4375 72.65625 20.34375 73.4375 
Q 25.25 74.21875 29.59375 74.21875 
Q 40.828125 74.21875 47.359375 69.109375 
Q 53.90625 64.015625 53.90625 55.328125 
Q 53.90625 49.265625 50.4375 45.09375 
Q 46.96875 40.921875 40.578125 39.3125 
z
" id="DejaVuSans-51"/>
       <path d="M 10.796875 72.90625 
L 49.515625 72.90625 
L 49.515625 64.59375 
L 19.828125 64.59375 
L 19.828125 46.734375 
Q 21.96875 47.46875 24.109375 47.828125 
Q 26.265625 48.1875 28.421875 48.1875 
Q 40.625 48.1875 47.75 41.5 
Q 54.890625 34.8125 54.890625 23.390625 
Q 54.890625 11.625 47.5625 5.09375 
Q 40.234375 -1.421875 26.90625 -1.421875 
Q 22.3125 -1.421875 17.546875 -0.640625 
Q 12.796875 0.140625 7.71875 1.703125 
L 7.71875 11.625 
Q 12.109375 9.234375 16.796875 8.0625 
Q 21.484375 6.890625 26.703125 6.890625 
Q 35.15625 6.890625 40.078125 11.328125 
Q 45.015625 15.765625 45.015625 23.390625 
Q 45.015625 31 40.078125 35.4375 
Q 35.15625 39.890625 26.703125 39.890625 
Q 22.75 39.890625 18.8125 39.015625 
Q 14.890625 38.140625 10.796875 36.28125 
z
" id="DejaVuSans-53"/>
      </defs>
      <g transform="translate(62.699915 322.182437)scale(0.1 -0.1)">
       <use xlink:href="#DejaVuSans-48"/>
       <use x="63.623047" xlink:href="#DejaVuSans-46"/>
       <use x="95.410156" xlink:href="#DejaVuSans-51"/>
       <use x="159.033203" xlink:href="#DejaVuSans-53"/>
      </g>
     </g>
    </g>
    <g id="xtick_2">
     <g id="line2d_2">
      <g>
       <use style="stroke:#000000;stroke-width:0.8;" x="114.414545" xlink:href="#m2a0c43b35a" y="307.584"/>
      </g>
     </g>
     <g id="text_2">
      <!-- 0.40 -->
      <defs>
       <path d="M 37.796875 64.3125 
L 12.890625 25.390625 
L 37.796875 25.390625 
z
M 35.203125 72.90625 
L 47.609375 72.90625 
L 47.609375 25.390625 
L 58.015625 25.390625 
L 58.015625 17.1875 
L 47.609375 17.1875 
L 47.609375 0 
L 37.796875 0 
L 37.796875 17.1875 
L 4.890625 17.1875 
L 4.890625 26.703125 
z
" id="DejaVuSans-52"/>
      </defs>
      <g transform="translate(103.281733 322.182437)scale(0.1 -0.1)">
       <use xlink:href="#DejaVuSans-48"/>
       <use x="63.623047" xlink:href="#DejaVuSans-46"/>
       <use x="95.410156" xlink:href="#DejaVuSans-52"/>
       <use x="159.033203" xlink:href="#DejaVuSans-48"/>
      </g>
     </g>
    </g>
    <g id="xtick_3">
     <g id="line2d_3">
      <g>
       <use style="stroke:#000000;stroke-width:0.8;" x="154.996364" xlink:href="#m2a0c43b35a" y="307.584"/>
      </g>
     </g>
     <g id="text_3">
      <!-- 0.45 -->
      <g transform="translate(143.863551 322.182437)scale(0.1 -0.1)">
       <use xlink:href="#DejaVuSans-48"/>
       <use x="63.623047" xlink:href="#DejaVuSans-46"/>
       <use x="95.410156" xlink:href="#DejaVuSans-52"/>
       <use x="159.033203" xlink:href="#DejaVuSans-53"/>
      </g>
     </g>
    </g>
    <g id="xtick_4">
     <g id="line2d_4">
      <g>
       <use style="stroke:#000000;stroke-width:0.8;" x="195.578182" xlink:href="#m2a0c43b35a" y="307.584"/>
      </g>
     </g>
     <g id="text_4">
      <!-- 0.50 -->
      <g transform="translate(184.445369 322.182437)scale(0.1 -0.1)">
       <use xlink:href="#DejaVuSans-48"/>
       <use x="63.623047" xlink:href="#DejaVuSans-46"/>
       <use x="95.410156" xlink:href="#DejaVuSans-53"/>
       <use x="159.033203" xlink:href="#DejaVuSans-48"/>
      </g>
     </g>
    </g>
    <g id="xtick_5">
     <g id="line2d_5">
      <g>
       <use style="stroke:#000000;stroke-width:0.8;" x="236.16" xlink:href="#m2a0c43b35a" y="307.584"/>
      </g>
     </g>
     <g id="text_5">
      <!-- 0.55 -->
      <g transform="translate(225.027188 322.182437)scale(0.1 -0.1)">
       <use xlink:href="#DejaVuSans-48"/>
       <use x="63.623047" xlink:href="#DejaVuSans-46"/>
       <use x="95.410156" xlink:href="#DejaVuSans-53"/>
       <use x="159.033203" xlink:href="#DejaVuSans-53"/>
      </g>
     </g>
    </g>
    <g id="xtick_6">
     <g id="line2d_6">
      <g>
       <use style="stroke:#000000;stroke-width:0.8;" x="276.741818" xlink:href="#m2a0c43b35a" y="307.584"/>
      </g>
     </g>
     <g id="text_6">
      <!-- 0.60 -->
      <defs>
       <path d="M 33.015625 40.375 
Q 26.375 40.375 22.484375 35.828125 
Q 18.609375 31.296875 18.609375 23.390625 
Q 18.609375 15.53125 22.484375 10.953125 
Q 26.375 6.390625 33.015625 6.390625 
Q 39.65625 6.390625 43.53125 10.953125 
Q 47.40625 15.53125 47.40625 23.390625 
Q 47.40625 31.296875 43.53125 35.828125 
Q 39.65625 40.375 33.015625 40.375 
z
M 52.59375 71.296875 
L 52.59375 62.3125 
Q 48.875 64.0625 45.09375 64.984375 
Q 41.3125 65.921875 37.59375 65.921875 
Q 27.828125 65.921875 22.671875 59.328125 
Q 17.53125 52.734375 16.796875 39.40625 
Q 19.671875 43.65625 24.015625 45.921875 
Q 28.375 48.1875 33.59375 48.1875 
Q 44.578125 48.1875 50.953125 41.515625 
Q 57.328125 34.859375 57.328125 23.390625 
Q 57.328125 12.15625 50.6875 5.359375 
Q 44.046875 -1.421875 33.015625 -1.421875 
Q 20.359375 -1.421875 13.671875 8.265625 
Q 6.984375 17.96875 6.984375 36.375 
Q 6.984375 53.65625 15.1875 63.9375 
Q 23.390625 74.21875 37.203125 74.21875 
Q 40.921875 74.21875 44.703125 73.484375 
Q 48.484375 72.75 52.59375 71.296875 
z
" id="DejaVuSans-54"/>
      </defs>
      <g transform="translate(265.609006 322.182437)scale(0.1 -0.1)">
       <use xlink:href="#DejaVuSans-48"/>
       <use x="63.623047" xlink:href="#DejaVuSans-46"/>
       <use x="95.410156" xlink:href="#DejaVuSans-54"/>
       <use x="159.033203" xlink:href="#DejaVuSans-48"/>
      </g>
     </g>
    </g>
    <g id="xtick_7">
     <g id="line2d_7">
      <g>
       <use style="stroke:#000000;stroke-width:0.8;" x="317.323636" xlink:href="#m2a0c43b35a" y="307.584"/>
      </g>
     </g>
     <g id="text_7">
      <!-- 0.65 -->
      <g transform="translate(306.190824 322.182437)scale(0.1 -0.1)">
       <use xlink:href="#DejaVuSans-48"/>
       <use x="63.623047" xlink:href="#DejaVuSans-46"/>
       <use x="95.410156" xlink:href="#DejaVuSans-54"/>
       <use x="159.033203" xlink:href="#DejaVuSans-53"/>
      </g>
     </g>
    </g>
    <g id="xtick_8">
     <g id="line2d_8">
      <g>
       <use style="stroke:#000000;stroke-width:0.8;" x="357.905455" xlink:href="#m2a0c43b35a" y="307.584"/>
      </g>
     </g>
     <g id="text_8">
      <!-- 0.70 -->
      <defs>
       <path d="M 8.203125 72.90625 
L 55.078125 72.90625 
L 55.078125 68.703125 
L 28.609375 0 
L 18.3125 0 
L 43.21875 64.59375 
L 8.203125 64.59375 
z
" id="DejaVuSans-55"/>
      </defs>
      <g transform="translate(346.772642 322.182437)scale(0.1 -0.1)">
       <use xlink:href="#DejaVuSans-48"/>
       <use x="63.623047" xlink:href="#DejaVuSans-46"/>
       <use x="95.410156" xlink:href="#DejaVuSans-55"/>
       <use x="159.033203" xlink:href="#DejaVuSans-48"/>
      </g>
     </g>
    </g>
    <g id="xtick_9">
     <g id="line2d_9">
      <g>
       <use style="stroke:#000000;stroke-width:0.8;" x="398.487273" xlink:href="#m2a0c43b35a" y="307.584"/>
      </g>
     </g>
     <g id="text_9">
      <!-- 0.75 -->
      <g transform="translate(387.35446 322.182437)scale(0.1 -0.1)">
       <use xlink:href="#DejaVuSans-48"/>
       <use x="63.623047" xlink:href="#DejaVuSans-46"/>
       <use x="95.410156" xlink:href="#DejaVuSans-55"/>
       <use x="159.033203" xlink:href="#DejaVuSans-53"/>
      </g>
     </g>
    </g>
   </g>
   <g id="matplotlib.axis_2">
    <g id="ytick_1">
     <g id="line2d_10">
      <defs>
       <path d="M 0 0 
L -3.5 0 
" id="m263f586356" style="stroke:#000000;stroke-width:0.8;"/>
      </defs>
      <g>
       <use style="stroke:#000000;stroke-width:0.8;" x="57.6" xlink:href="#m263f586356" y="292.995619"/>
      </g>
     </g>
     <g id="text_10">
      <!-- 0.550 -->
      <g transform="translate(21.971875 296.794838)scale(0.1 -0.1)">
       <use xlink:href="#DejaVuSans-48"/>
       <use x="63.623047" xlink:href="#DejaVuSans-46"/>
       <use x="95.410156" xlink:href="#DejaVuSans-53"/>
       <use x="159.033203" xlink:href="#DejaVuSans-53"/>
       <use x="222.65625" xlink:href="#DejaVuSans-48"/>
      </g>
     </g>
    </g>
    <g id="ytick_2">
     <g id="line2d_11">
      <g>
       <use style="stroke:#000000;stroke-width:0.8;" x="57.6" xlink:href="#m263f586356" y="258.591448"/>
      </g>
     </g>
     <g id="text_11">
      <!-- 0.575 -->
      <g transform="translate(21.971875 262.390666)scale(0.1 -0.1)">
       <use xlink:href="#DejaVuSans-48"/>
       <use x="63.623047" xlink:href="#DejaVuSans-46"/>
       <use x="95.410156" xlink:href="#DejaVuSans-53"/>
       <use x="159.033203" xlink:href="#DejaVuSans-55"/>
       <use x="222.65625" xlink:href="#DejaVuSans-53"/>
      </g>
     </g>
    </g>
    <g id="ytick_3">
     <g id="line2d_12">
      <g>
       <use style="stroke:#000000;stroke-width:0.8;" x="57.6" xlink:href="#m263f586356" y="224.187276"/>
      </g>
     </g>
     <g id="text_12">
      <!-- 0.600 -->
      <g transform="translate(21.971875 227.986494)scale(0.1 -0.1)">
       <use xlink:href="#DejaVuSans-48"/>
       <use x="63.623047" xlink:href="#DejaVuSans-46"/>
       <use x="95.410156" xlink:href="#DejaVuSans-54"/>
       <use x="159.033203" xlink:href="#DejaVuSans-48"/>
       <use x="222.65625" xlink:href="#DejaVuSans-48"/>
      </g>
     </g>
    </g>
    <g id="ytick_4">
     <g id="line2d_13">
      <g>
       <use style="stroke:#000000;stroke-width:0.8;" x="57.6" xlink:href="#m263f586356" y="189.783104"/>
      </g>
     </g>
     <g id="text_13">
      <!-- 0.625 -->
      <defs>
       <path d="M 19.1875 8.296875 
L 53.609375 8.296875 
L 53.609375 0 
L 7.328125 0 
L 7.328125 8.296875 
Q 12.9375 14.109375 22.625 23.890625 
Q 32.328125 33.6875 34.8125 36.53125 
Q 39.546875 41.84375 41.421875 45.53125 
Q 43.3125 49.21875 43.3125 52.78125 
Q 43.3125 58.59375 39.234375 62.25 
Q 35.15625 65.921875 28.609375 65.921875 
Q 23.96875 65.921875 18.8125 64.3125 
Q 13.671875 62.703125 7.8125 59.421875 
L 7.8125 69.390625 
Q 13.765625 71.78125 18.9375 73 
Q 24.125 74.21875 28.421875 74.21875 
Q 39.75 74.21875 46.484375 68.546875 
Q 53.21875 62.890625 53.21875 53.421875 
Q 53.21875 48.921875 51.53125 44.890625 
Q 49.859375 40.875 45.40625 35.40625 
Q 44.1875 33.984375 37.640625 27.21875 
Q 31.109375 20.453125 19.1875 8.296875 
z
" id="DejaVuSans-50"/>
      </defs>
      <g transform="translate(21.971875 193.582323)scale(0.1 -0.1)">
       <use xlink:href="#DejaVuSans-48"/>
       <use x="63.623047" xlink:href="#DejaVuSans-46"/>
       <use x="95.410156" xlink:href="#DejaVuSans-54"/>
       <use x="159.033203" xlink:href="#DejaVuSans-50"/>
       <use x="222.65625" xlink:href="#DejaVuSans-53"/>
      </g>
     </g>
    </g>
    <g id="ytick_5">
     <g id="line2d_14">
      <g>
       <use style="stroke:#000000;stroke-width:0.8;" x="57.6" xlink:href="#m263f586356" y="155.378932"/>
      </g>
     </g>
     <g id="text_14">
      <!-- 0.650 -->
      <g transform="translate(21.971875 159.178151)scale(0.1 -0.1)">
       <use xlink:href="#DejaVuSans-48"/>
       <use x="63.623047" xlink:href="#DejaVuSans-46"/>
       <use x="95.410156" xlink:href="#DejaVuSans-54"/>
       <use x="159.033203" xlink:href="#DejaVuSans-53"/>
       <use x="222.65625" xlink:href="#DejaVuSans-48"/>
      </g>
     </g>
    </g>
    <g id="ytick_6">
     <g id="line2d_15">
      <g>
       <use style="stroke:#000000;stroke-width:0.8;" x="57.6" xlink:href="#m263f586356" y="120.97476"/>
      </g>
     </g>
     <g id="text_15">
      <!-- 0.675 -->
      <g transform="translate(21.971875 124.773979)scale(0.1 -0.1)">
       <use xlink:href="#DejaVuSans-48"/>
       <use x="63.623047" xlink:href="#DejaVuSans-46"/>
       <use x="95.410156" xlink:href="#DejaVuSans-54"/>
       <use x="159.033203" xlink:href="#DejaVuSans-55"/>
       <use x="222.65625" xlink:href="#DejaVuSans-53"/>
      </g>
     </g>
    </g>
    <g id="ytick_7">
     <g id="line2d_16">
      <g>
       <use style="stroke:#000000;stroke-width:0.8;" x="57.6" xlink:href="#m263f586356" y="86.570588"/>
      </g>
     </g>
     <g id="text_16">
      <!-- 0.700 -->
      <g transform="translate(21.971875 90.369807)scale(0.1 -0.1)">
       <use xlink:href="#DejaVuSans-48"/>
       <use x="63.623047" xlink:href="#DejaVuSans-46"/>
       <use x="95.410156" xlink:href="#DejaVuSans-55"/>
       <use x="159.033203" xlink:href="#DejaVuSans-48"/>
       <use x="222.65625" xlink:href="#DejaVuSans-48"/>
      </g>
     </g>
    </g>
    <g id="ytick_8">
     <g id="line2d_17">
      <g>
       <use style="stroke:#000000;stroke-width:0.8;" x="57.6" xlink:href="#m263f586356" y="52.166417"/>
      </g>
     </g>
     <g id="text_17">
      <!-- 0.725 -->
      <g transform="translate(21.971875 55.965635)scale(0.1 -0.1)">
       <use xlink:href="#DejaVuSans-48"/>
       <use x="63.623047" xlink:href="#DejaVuSans-46"/>
       <use x="95.410156" xlink:href="#DejaVuSans-55"/>
       <use x="159.033203" xlink:href="#DejaVuSans-50"/>
       <use x="222.65625" xlink:href="#DejaVuSans-53"/>
      </g>
     </g>
    </g>
   </g>
   <g id="line2d_18">
    <path clip-path="url(#pcc960a4d06)" d="M 398.487273 295.488 
L 391.540314 291.057542 
L 384.750127 286.59732 
L 378.111464 282.227858 
L 371.61931 278.073029 
L 365.268868 274.226721 
L 359.055547 270.69568 
L 352.974953 267.3573 
L 347.02288 263.986203 
L 341.195294 260.357277 
L 335.488331 256.3437 
L 329.898284 251.941323 
L 324.421597 247.235935 
L 319.054856 242.364067 
L 313.794783 237.49391 
L 308.638229 232.814485 
L 303.582168 228.498681 
L 298.623691 224.610418 
L 293.76 221.008879 
L 288.988402 217.399605 
L 284.306307 213.539465 
L 279.71122 209.36886 
L 275.200736 204.968785 
L 270.772543 200.465051 
L 266.424407 195.978257 
L 262.154177 191.622852 
L 257.959778 187.531577 
L 253.839208 183.875925 
L 249.790534 180.817126 
L 245.811892 178.32233 
L 241.901479 176.056025 
L 238.057556 173.677467 
L 234.27844 171.13707 
L 230.562508 168.572101 
L 226.908187 166.124551 
L 223.313957 163.882906 
L 219.778349 161.889783 
L 216.299939 160.174107 
L 212.877352 158.926823 
L 209.509254 159.169273 
L 206.194353 160.499945 
L 202.931401 160.960813 
L 199.719184 161.458407 
L 196.556528 162.400476 
L 193.442297 163.837333 
L 190.375385 165.760488 
L 187.354722 168.151547 
L 184.37927 170.987794 
L 181.448022 174.24179 
L 178.56 177.880479 
L 175.714254 181.864655 
L 172.909864 186.148966 
L 170.145933 190.682506 
L 167.421594 195.410126 
L 164.736 200.27442 
L 162.088332 205.218229 
L 159.477791 210.187299 
L 156.903603 215.132556 
L 154.365013 220.011574 
L 151.861288 224.788964 
L 149.391714 229.435784 
L 146.955597 233.928235 
L 144.552262 238.245998 
L 142.181053 242.370447 
L 139.841328 246.2828 
L 137.532465 249.962273 
L 135.253857 253.384408 
L 133.004915 256.52013 
L 130.785061 259.33645 
L 128.593735 261.7998 
L 126.430391 263.882343 
L 124.294496 265.57005 
L 122.185532 266.869816 
L 120.102991 267.812494 
L 118.046381 268.450333 
L 116.01522 268.850005 
L 114.009039 269.084057 
L 112.02738 269.223645 
L 110.069795 269.333797 
L 108.135849 269.471023 
L 106.225116 269.682156 
L 104.337181 270.002943 
L 102.471638 270.455289 
L 100.628091 271.042286 
L 98.806154 271.741621 
L 97.005448 272.500233 
L 95.225605 273.236181 
L 93.466263 273.85481 
L 91.727072 274.279471 
L 90.007687 274.483891 
L 88.307771 274.505253 
L 86.626995 274.428698 
L 84.965038 274.355871 
L 83.321587 274.377802 
L 81.696332 274.563779 
L 80.088975 274.964554 
L 78.49922 275.624348 
L 76.92678 276.598489 
L 75.371374 277.975801 
L 73.832727 279.903631 
" style="fill:none;stroke:#ff7f0e;stroke-linecap:square;stroke-width:1.5;"/>
   </g>
   <g id="line2d_19">
    <path clip-path="url(#pcc960a4d06)" d="M 398.487273 248.249102 
L 391.540314 244.082018 
L 384.750127 239.588298 
L 378.111464 234.781704 
L 371.61931 229.727994 
L 365.268868 224.523661 
L 359.055547 219.286196 
L 352.974953 214.14202 
L 347.02288 209.207703 
L 341.195294 204.563454 
L 335.488331 200.222108 
L 329.898284 196.1081 
L 324.421597 192.06976 
L 319.054856 187.935719 
L 313.794783 183.584624 
L 308.638229 178.981583 
L 303.582168 174.167866 
L 298.623691 169.226109 
L 293.76 164.247677 
L 288.988402 159.313703 
L 284.306307 154.490076 
L 279.71122 149.832103 
L 275.200736 145.393633 
L 270.772543 141.233947 
L 266.424407 137.410888 
L 262.154177 133.947234 
L 257.959778 130.780739 
L 253.839208 127.761597 
L 249.790534 124.745534 
L 245.811892 121.694725 
L 241.901479 118.676249 
L 238.057556 115.794272 
L 234.27844 113.139145 
L 230.562508 110.772489 
L 226.908187 108.730975 
L 223.313957 107.036287 
L 219.778349 105.715676 
L 216.299939 104.876801 
L 212.877352 104.907858 
L 209.509254 105.930862 
L 206.194353 106.783637 
L 202.931401 107.512937 
L 199.719184 108.555935 
L 196.556528 110.023716 
L 193.442297 111.926028 
L 190.375385 114.254766 
L 187.354722 116.998656 
L 184.37927 120.144358 
L 181.448022 123.675447 
L 178.56 127.571398 
L 175.714254 131.80691 
L 172.909864 136.351535 
L 170.145933 141.169547 
L 167.421594 146.219961 
L 164.736 151.456647 
L 162.088332 156.828554 
L 159.477791 162.280069 
L 156.903603 167.751641 
L 154.365013 173.180808 
L 151.861288 178.503797 
L 149.391714 183.657759 
L 146.955597 188.583606 
L 144.552262 193.229128 
L 142.181053 197.551939 
L 139.841328 201.521684 
L 137.532465 205.121093 
L 135.253857 208.345752 
L 133.004915 211.202787 
L 130.785061 213.708875 
L 128.593735 215.888039 
L 126.430391 217.769569 
L 124.294496 219.386229 
L 122.185532 220.772769 
L 120.102991 221.964631 
L 118.046381 222.996704 
L 116.01522 223.901976 
L 114.009039 224.709957 
L 112.02738 225.444798 
L 110.069795 226.123171 
L 108.135849 226.75222 
L 106.225116 227.328218 
L 104.337181 227.836982 
L 102.471638 228.257113 
L 100.628091 228.566596 
L 98.806154 228.75166 
L 97.005448 228.814993 
L 95.225605 228.779739 
L 93.466263 228.687211 
L 91.727072 228.589481 
L 90.007687 228.540294 
L 88.307771 228.587878 
L 86.626995 228.771505 
L 84.965038 229.121696 
L 83.321587 229.663195 
L 81.696332 230.419665 
L 80.088975 231.419735 
L 78.49922 232.704268 
L 76.92678 234.333479 
L 75.371374 236.386427 
L 73.832727 238.922175 
" style="fill:none;stroke:#2ca02c;stroke-linecap:square;stroke-width:1.5;"/>
   </g>
   <g id="line2d_20">
    <path clip-path="url(#pcc960a4d06)" d="M 398.487273 229.007709 
L 391.540314 223.822484 
L 384.750127 218.519712 
L 378.111464 213.195493 
L 371.61931 207.92486 
L 365.268868 202.768465 
L 359.055547 197.777569 
L 352.974953 192.989356 
L 347.02288 188.409275 
L 341.195294 183.991848 
L 335.488331 179.64126 
L 329.898284 175.242765 
L 324.421597 170.709207 
L 319.054856 166.009371 
L 313.794783 161.163699 
L 308.638229 156.220696 
L 303.582168 151.234472 
L 298.623691 146.253584 
L 293.76 141.320067 
L 288.988402 136.474137 
L 284.306307 131.760302 
L 279.71122 127.231643 
L 275.200736 122.948634 
L 270.772543 118.966754 
L 266.424407 115.308484 
L 262.154177 111.930765 
L 257.959778 108.726973 
L 253.839208 105.589802 
L 249.790534 102.482896 
L 245.811892 99.448119 
L 241.901479 96.561019 
L 238.057556 93.89096 
L 234.27844 91.486917 
L 230.562508 89.379364 
L 226.908187 87.587371 
L 223.313957 86.12876 
L 219.778349 85.0449 
L 216.299939 84.483039 
L 212.877352 84.789389 
L 209.509254 85.740604 
L 206.194353 86.495815 
L 202.931401 87.308306 
L 199.719184 88.490339 
L 196.556528 90.115855 
L 193.442297 92.190101 
L 190.375385 94.704202 
L 187.354722 97.644986 
L 184.37927 100.995849 
L 181.448022 104.736198 
L 178.56 108.840899 
L 175.714254 113.279883 
L 172.909864 118.017911 
L 170.145933 123.014481 
L 167.421594 128.223865 
L 164.736 133.595347 
L 162.088332 139.073739 
L 159.477791 144.60026 
L 156.903603 150.113886 
L 154.365013 155.553187 
L 151.861288 160.858567 
L 149.391714 165.974717 
L 146.955597 170.852951 
L 144.552262 175.453095 
L 142.181053 179.744662 
L 139.841328 183.707219 
L 137.532465 187.330033 
L 135.253857 190.611198 
L 133.004915 193.556512 
L 130.785061 196.178285 
L 128.593735 198.49421 
L 126.430391 200.526299 
L 124.294496 202.299854 
L 122.185532 203.842381 
L 120.102991 205.182372 
L 118.046381 206.347898 
L 116.01522 207.364959 
L 114.009039 208.255673 
L 112.02738 209.036432 
L 110.069795 209.716407 
L 108.135849 210.29695 
L 106.225116 210.772606 
L 104.337181 211.134291 
L 102.471638 211.374535 
L 100.628091 211.493682 
L 98.806154 211.504934 
L 97.005448 211.4361 
L 95.225605 211.327197 
L 93.466263 211.224865 
L 91.727072 211.175938 
L 90.007687 211.222339 
L 88.307771 211.398523 
L 86.626995 211.731487 
L 84.965038 212.242719 
L 83.321587 212.951504 
L 81.696332 213.8791 
L 80.088975 215.053707 
L 78.49922 216.515649 
L 76.92678 218.319672 
L 75.371374 220.522422 
L 73.832727 223.118979 
" style="fill:none;stroke:#d62728;stroke-linecap:square;stroke-width:1.5;"/>
   </g>
   <g id="line2d_21">
    <path clip-path="url(#pcc960a4d06)" d="M 398.487273 217.934681 
L 391.540314 212.60861 
L 384.750127 207.237731 
L 378.111464 201.882033 
L 371.61931 196.60134 
L 365.268868 191.456479 
L 359.055547 186.498435 
L 352.974953 181.749268 
L 347.02288 177.182352 
L 341.195294 172.719636 
L 335.488331 168.255604 
L 329.898284 163.697605 
L 324.421597 158.996967 
L 319.054856 154.153125 
L 313.794783 149.197864 
L 308.638229 144.17607 
L 303.582168 139.133856 
L 298.623691 134.115206 
L 293.76 129.163504 
L 288.988402 124.324831 
L 284.306307 119.65041 
L 279.71122 115.196317 
L 275.200736 111.017159 
L 270.772543 107.149302 
L 266.424407 103.584712 
L 262.154177 100.254698 
L 257.959778 97.056226 
L 253.839208 93.916069 
L 249.790534 90.832033 
L 245.811892 87.856607 
L 241.901479 85.056648 
L 238.057556 82.487725 
L 234.27844 80.188249 
L 230.562508 78.183378 
L 226.908187 76.491693 
L 223.313957 75.13519 
L 219.778349 74.165599 
L 216.299939 73.743696 
L 212.877352 74.162292 
L 209.509254 75.078896 
L 206.194353 75.840792 
L 202.931401 76.739494 
L 199.719184 78.030314 
L 196.556528 79.769522 
L 193.442297 81.957913 
L 190.375385 84.584483 
L 187.354722 87.634303 
L 184.37927 91.089132 
L 181.448022 94.926903 
L 178.56 99.121172 
L 175.714254 103.640711 
L 172.909864 108.449256 
L 170.145933 113.505403 
L 167.421594 118.762703 
L 164.736 124.17001 
L 162.088332 129.672183 
L 159.477791 135.211186 
L 156.903603 140.727633 
L 154.365013 146.162707 
L 151.861288 151.460306 
L 149.391714 156.569165 
L 146.955597 161.444685 
L 144.552262 166.050239 
L 142.181053 170.357857 
L 139.841328 174.348303 
L 137.532465 178.010693 
L 135.253857 181.34183 
L 133.004915 184.345408 
L 130.785061 187.031186 
L 128.593735 189.414148 
L 126.430391 191.513637 
L 124.294496 193.352389 
L 122.185532 194.955422 
L 120.102991 196.348725 
L 118.046381 197.557737 
L 116.01522 198.605645 
L 114.009039 199.511631 
L 112.02738 200.289341 
L 110.069795 200.945979 
L 108.135849 201.482601 
L 106.225116 201.896122 
L 104.337181 202.183134 
L 102.471638 202.344971 
L 100.628091 202.392497 
L 98.806154 202.348838 
L 97.005448 202.248792 
L 95.225605 202.135049 
L 93.466263 202.052787 
L 91.727072 202.044505 
L 90.007687 202.146658 
L 88.307771 202.388502 
L 86.626995 202.792907 
L 84.965038 203.378639 
L 83.321587 204.163483 
L 81.696332 205.168163 
L 80.088975 206.420663 
L 78.49922 207.960199 
L 76.92678 209.836786 
L 75.371374 212.092242 
L 73.832727 214.686884 
" style="fill:none;stroke:#9467bd;stroke-linecap:square;stroke-width:1.5;"/>
   </g>
   <g id="line2d_22">
    <path clip-path="url(#pcc960a4d06)" d="M 398.487273 211.060937 
L 391.540314 205.651162 
L 384.750127 200.215452 
L 378.111464 194.815692 
L 371.61931 189.516916 
L 365.268868 184.381457 
L 359.055547 179.451519 
L 352.974953 174.729375 
L 347.02288 170.165053 
L 341.195294 165.665859 
L 335.488331 161.128871 
L 329.898284 156.477937 
L 324.421597 151.68345 
L 319.054856 146.757436 
L 313.794783 141.736341 
L 308.638229 136.665315 
L 303.582168 131.59 
L 298.623691 126.555028 
L 293.76 121.605544 
L 288.988402 116.789481 
L 284.306307 112.158573 
L 279.71122 107.766338 
L 275.200736 103.659886 
L 270.772543 99.862179 
L 266.424407 96.349221 
L 262.154177 93.044018 
L 257.959778 89.852063 
L 253.839208 86.719557 
L 249.790534 83.658501 
L 245.811892 80.723365 
L 241.901479 77.975679 
L 238.057556 75.464903 
L 234.27844 73.225548 
L 230.562508 71.281429 
L 226.908187 69.651915 
L 223.313957 68.361805 
L 219.778349 67.468199 
L 216.299939 67.135734 
L 212.877352 67.617735 
L 209.509254 68.522801 
L 206.194353 69.306674 
L 202.931401 70.267766 
L 199.719184 71.630338 
L 196.556528 73.441333 
L 193.442297 75.699212 
L 190.375385 78.392007 
L 187.354722 81.504104 
L 184.37927 85.016686 
L 181.448022 88.907187 
L 178.56 93.14873 
L 175.714254 97.709712 
L 172.909864 102.553553 
L 170.145933 107.638608 
L 167.421594 112.918327 
L 164.736 118.341674 
L 162.088332 123.853932 
L 159.477791 129.397897 
L 156.903603 134.915467 
L 154.365013 140.349534 
L 151.861288 145.645992 
L 149.391714 150.755635 
L 146.955597 155.63572 
L 144.552262 160.251016 
L 142.181053 164.57433 
L 139.841328 168.58653 
L 137.532465 172.276231 
L 135.253857 175.639272 
L 133.004915 178.678092 
L 130.785061 181.401055 
L 128.593735 183.821727 
L 126.430391 185.958064 
L 124.294496 187.83145 
L 122.185532 189.46556 
L 120.102991 190.884998 
L 118.046381 192.113744 
L 116.01522 193.173463 
L 114.009039 194.081866 
L 112.02738 194.851411 
L 110.069795 195.488792 
L 108.135849 195.995714 
L 106.225116 196.371325 
L 104.337181 196.616153 
L 102.471638 196.736762 
L 100.628091 196.749564 
L 98.806154 196.682312 
L 97.005448 196.572499 
L 95.225605 196.463233 
L 93.466263 196.398174 
L 91.727072 196.417177 
L 90.007687 196.553753 
L 88.307771 196.834536 
L 86.626995 197.280423 
L 84.965038 197.908902 
L 83.321587 198.737101 
L 81.696332 199.78547 
L 80.088975 201.081749 
L 78.49922 202.664152 
L 76.92678 204.579152 
L 75.371374 206.858828 
L 73.832727 209.442636 
" style="fill:none;stroke:#8c564b;stroke-linecap:square;stroke-width:1.5;"/>
   </g>
   <g id="line2d_23">
    <path clip-path="url(#pcc960a4d06)" d="M 398.487273 206.352413 
L 391.540314 200.882431 
L 384.750127 195.401332 
L 378.111464 189.975535 
L 371.61931 184.67311 
L 365.268868 179.553008 
L 359.055547 174.646449 
L 352.974953 169.939803 
L 347.02288 165.369003 
L 341.195294 160.83621 
L 335.488331 156.244368 
L 329.898284 151.529664 
L 324.421597 146.673993 
L 319.054856 141.696052 
L 313.794783 136.634522 
L 308.638229 131.534732 
L 303.582168 126.442429 
L 298.623691 121.402903 
L 293.76 116.462257 
L 288.988402 111.668934 
L 284.306307 107.073902 
L 279.71122 102.727765 
L 275.200736 98.671673 
L 270.772543 94.919575 
L 266.424407 91.438329 
L 262.154177 88.148074 
L 257.959778 84.961605 
L 253.839208 81.837083 
L 249.790534 78.793959 
L 245.811892 75.887093 
L 241.901479 73.174802 
L 238.057556 70.703256 
L 234.27844 68.505002 
L 230.562508 66.603277 
L 226.908187 65.018 
L 223.313957 63.775601 
L 219.778349 62.936141 
L 216.299939 62.664986 
L 212.877352 63.1874 
L 209.509254 64.088838 
L 206.194353 64.893285 
L 202.931401 65.898715 
L 199.719184 67.310294 
L 196.556528 69.169385 
L 193.442297 71.473105 
L 190.375385 74.208976 
L 187.354722 77.361047 
L 184.37927 80.910227 
L 181.448022 84.833715 
L 178.56 89.104438 
L 175.714254 93.690632 
L 172.909864 98.555597 
L 170.145933 103.657641 
L 167.421594 108.950264 
L 164.736 114.382642 
L 162.088332 119.900477 
L 159.477791 125.447237 
L 156.903603 130.965747 
L 154.365013 136.400034 
L 151.861288 141.697233 
L 149.391714 146.809337 
L 146.955597 151.694606 
L 144.552262 156.318492 
L 142.181053 160.654088 
L 139.841328 164.68216 
L 137.532465 168.390889 
L 135.253857 171.775436 
L 133.004915 174.837423 
L 130.785061 177.584338 
L 128.593735 180.028868 
L 126.430391 182.188111 
L 124.294496 184.082609 
L 122.185532 185.735194 
L 120.102991 187.1696 
L 118.046381 188.408899 
L 116.01522 189.473845 
L 114.009039 190.381314 
L 112.02738 191.143191 
L 110.069795 191.766111 
L 108.135849 192.252513 
L 106.225116 192.603284 
L 104.337181 192.821671 
L 102.471638 192.917573 
L 100.628091 192.910712 
L 98.806154 192.831386 
L 97.005448 192.718361 
L 95.225605 192.614649 
L 93.466263 192.562749 
L 91.727072 192.600789 
L 90.007687 192.76047 
L 88.307771 193.066875 
L 86.626995 193.539752 
L 84.965038 194.195865 
L 83.321587 195.051965 
L 81.696332 196.128328 
L 80.088975 197.45247 
L 78.49922 199.061778 
L 76.92678 201.000118 
L 75.371374 203.292779 
L 73.832727 205.865601 
" style="fill:none;stroke:#e377c2;stroke-linecap:square;stroke-width:1.5;"/>
   </g>
   <g id="line2d_24">
    <path clip-path="url(#pcc960a4d06)" d="M 398.487273 202.919696 
L 391.540314 197.406832 
L 384.750127 191.896455 
L 378.111464 186.457572 
L 371.61931 181.158047 
L 365.268868 176.05184 
L 359.055547 171.161037 
L 352.974953 166.461166 
L 347.02288 161.880214 
L 341.195294 157.319051 
L 335.488331 152.68612 
L 329.898284 147.926215 
L 324.421597 143.028421 
L 319.054856 138.015387 
L 313.794783 132.927152 
L 308.638229 127.809346 
L 303.582168 122.707998 
L 298.623691 117.668859 
L 293.76 112.738441 
L 288.988402 107.965059 
L 284.306307 103.398581 
L 279.71122 99.087032 
L 275.200736 95.067038 
L 270.772543 91.346327 
L 266.424407 87.886118 
L 262.154177 84.605744 
L 257.959778 81.423775 
L 253.839208 78.306362 
L 249.790534 75.277431 
L 245.811892 72.391776 
L 241.901479 69.70555 
L 238.057556 67.262833 
L 234.27844 65.094955 
L 230.562508 63.224813 
L 226.908187 61.672683 
L 223.313957 60.466035 
L 219.778349 59.666745 
L 216.299939 59.439853 
L 212.877352 59.990163 
L 209.509254 60.891004 
L 206.194353 61.712643 
L 202.931401 62.750739 
L 199.719184 64.197628 
L 196.556528 66.090996 
L 193.442297 68.427094 
L 190.375385 71.193138 
L 187.354722 74.372987 
L 184.37927 77.947396 
L 181.448022 81.893438 
L 178.56 86.183935 
L 175.714254 90.787049 
L 172.909864 95.666039 
L 170.145933 100.779228 
L 167.421594 106.08021 
L 164.736 111.518373 
L 162.088332 117.039777 
L 159.477791 122.588412 
L 156.903603 128.107783 
L 154.365013 133.54271 
L 151.861288 138.84116 
L 149.391714 143.955895 
L 146.955597 148.845784 
L 144.552262 153.476658 
L 142.181053 157.821723 
L 139.841328 161.861606 
L 137.532465 165.584141 
L 135.253857 168.984002 
L 133.004915 172.062238 
L 130.785061 174.825738 
L 128.593735 177.286594 
L 126.430391 179.461319 
L 124.294496 181.369885 
L 122.185532 183.034548 
L 120.102991 184.478449 
L 118.046381 185.724052 
L 116.01522 186.791509 
L 114.009039 187.697185 
L 112.02738 188.452663 
L 110.069795 189.064658 
L 108.135849 189.536271 
L 106.225116 189.869716 
L 104.337181 190.07019 
L 102.471638 190.149875 
L 100.628091 190.130655 
L 98.806154 190.044395 
L 97.005448 189.930542 
L 95.225605 189.831901 
L 93.466263 189.790089 
L 91.727072 189.842035 
L 90.007687 190.018226 
L 88.307771 190.342719 
L 86.626995 190.834521 
L 84.965038 191.509925 
L 83.321587 192.385445 
L 81.696332 193.481227 
L 80.088975 194.824587 
L 78.49922 196.45226 
L 76.92678 198.406114 
L 75.371374 200.706509 
L 73.832727 203.269752 
" style="fill:none;stroke:#7f7f7f;stroke-linecap:square;stroke-width:1.5;"/>
   </g>
   <g id="line2d_25">
    <path clip-path="url(#pcc960a4d06)" d="M 398.487273 200.305634 
L 391.540314 194.762352 
L 384.750127 189.232861 
L 378.111464 183.787265 
L 371.61931 178.491983 
L 365.268868 173.396619 
L 359.055547 168.516168 
L 352.974953 163.818718 
L 347.02288 159.227354 
L 341.195294 154.642963 
L 335.488331 149.978581 
L 329.898284 145.185176 
L 324.421597 140.256788 
L 319.054856 135.218677 
L 313.794783 130.111835 
L 308.638229 124.982193 
L 303.582168 119.87601 
L 298.623691 114.83932 
L 293.76 109.918714 
L 288.988402 105.16215 
L 284.306307 100.618399 
L 279.71122 96.333353 
L 275.200736 92.340203 
L 270.772543 88.642204 
L 266.424407 85.196886 
L 262.154177 81.923594 
L 257.959778 78.745436 
L 253.839208 75.634219 
L 249.790534 72.616792 
L 245.811892 69.747735 
L 241.901479 67.081636 
L 238.057556 64.661123 
L 234.27844 62.516696 
L 230.562508 60.671019 
L 226.908187 59.144611 
L 223.313957 57.965654 
L 219.778349 57.19722 
L 216.299939 57.003666 
L 212.877352 57.574371 
L 209.509254 58.475854 
L 206.194353 59.311613 
L 202.931401 60.374648 
L 199.719184 61.848108 
L 196.556528 63.767086 
L 193.442297 66.127233 
L 190.375385 68.915564 
L 187.354722 72.115819 
L 184.37927 75.708659 
L 181.448022 79.671081 
L 178.56 83.975849 
L 175.714254 88.591088 
L 172.909864 93.480053 
L 170.145933 98.601104 
L 167.421594 103.907936 
L 164.736 109.350127 
L 162.088332 114.874032 
L 159.477791 120.42405 
L 156.903603 125.944199 
L 154.365013 131.379882 
L 151.861288 136.679652 
L 149.391714 141.796803 
L 146.955597 146.690605 
L 144.552262 151.327117 
L 142.181053 155.679589 
L 139.841328 159.728514 
L 137.532465 163.461452 
L 135.253857 166.87271 
L 133.004915 169.962917 
L 130.785061 172.73853 
L 128.593735 175.211208 
L 126.430391 177.397044 
L 124.294496 179.315596 
L 122.185532 180.988704 
L 120.102991 182.439084 
L 118.046381 183.68876 
L 116.01522 184.757472 
L 114.009039 185.66124 
L 112.02738 186.411478 
L 110.069795 187.015035 
L 108.135849 187.475561 
L 106.225116 187.796308 
L 104.337181 187.983927 
L 102.471638 188.052247 
L 100.628091 188.02466 
L 98.806154 187.934078 
L 97.005448 187.820353 
L 95.225605 187.726058 
L 93.466263 187.692141 
L 91.727072 187.754647 
L 90.007687 187.943196 
L 88.307771 188.281124 
L 86.626995 188.786912 
L 84.965038 189.476536 
L 83.321587 190.36633 
L 81.696332 191.47635 
L 80.088975 192.833744 
L 78.49922 194.4747 
L 76.92678 196.439561 
L 75.371374 198.744905 
L 73.832727 201.300074 
" style="fill:none;stroke:#bcbd22;stroke-linecap:square;stroke-width:1.5;"/>
   </g>
   <g id="line2d_26">
    <path clip-path="url(#pcc960a4d06)" d="M 398.487273 198.249039 
L 391.540314 192.683529 
L 384.750127 187.14097 
L 378.111464 181.691624 
L 371.61931 176.400543 
L 365.268868 171.313471 
L 359.055547 166.440028 
L 352.974953 161.742864 
L 347.02288 157.141824 
L 341.195294 152.538392 
L 335.488331 147.849287 
L 329.898284 143.030173 
L 324.421597 138.078653 
L 319.054856 133.021862 
L 313.794783 127.901516 
L 308.638229 122.763775 
L 303.582168 117.655086 
L 298.623691 112.621603 
L 293.76 107.709852 
L 288.988402 102.96736 
L 284.306307 98.441913 
L 279.71122 94.177674 
L 275.200736 90.20516 
L 270.772543 86.524307 
L 266.424407 83.090081 
L 262.154177 79.822176 
L 257.959778 76.647307 
L 253.839208 73.541465 
L 249.790534 70.533534 
L 245.811892 67.677842 
L 241.901479 65.02779 
L 238.057556 62.624939 
L 234.27844 60.499183 
L 230.562508 58.673013 
L 226.908187 57.167121 
L 223.313957 56.010199 
L 219.778349 55.266157 
L 216.299939 55.098568 
L 212.877352 55.684831 
L 209.509254 56.587458 
L 206.194353 57.434871 
L 202.931401 58.517521 
L 199.719184 60.011672 
L 196.556528 61.950491 
L 193.442297 64.329191 
L 190.375385 67.134648 
L 187.354722 70.35052 
L 184.37927 73.957407 
L 181.448022 77.932257 
L 178.56 82.247802 
L 175.714254 86.872152 
L 172.909864 91.768569 
L 170.145933 96.895459 
L 167.421594 102.206616 
L 164.736 107.651777 
L 162.088332 113.177543 
L 159.477791 118.728639 
L 156.903603 124.249483 
L 154.365013 129.685918 
L 151.861288 134.986934 
L 149.391714 140.106208 
L 146.955597 145.003291 
L 144.552262 149.644394 
L 142.181053 154.002775 
L 139.841328 158.058809 
L 137.532465 161.799837 
L 135.253857 165.219881 
L 133.004915 168.319251 
L 130.785061 171.104075 
L 128.593735 173.585686 
L 126.430391 175.77986 
L 124.294496 177.705842 
L 122.185532 179.385158 
L 120.102991 180.8402 
L 118.046381 182.09267 
L 116.01522 183.162002 
L 114.009039 184.063976 
L 112.02738 184.809909 
L 110.069795 185.406789 
L 108.135849 185.858728 
L 106.225116 186.169803 
L 104.337181 186.347783 
L 102.471638 186.407739 
L 100.628091 186.37417 
L 98.806154 186.280727 
L 97.005448 186.167518 
L 95.225605 186.076902 
L 93.466263 186.049297 
L 91.727072 186.12008 
L 90.007687 186.318217 
L 88.307771 186.666507 
L 86.626995 187.183047 
L 84.965038 187.883577 
L 83.321587 188.784302 
L 81.696332 189.905198 
L 80.088975 191.273274 
L 78.49922 192.924273 
L 76.92678 194.897306 
L 75.371374 197.206009 
L 73.832727 199.754393 
" style="fill:none;stroke:#17becf;stroke-linecap:square;stroke-width:1.5;"/>
   </g>
   <g id="line2d_27">
    <path clip-path="url(#pcc960a4d06)" d="M 398.487273 196.589066 
L 391.540314 191.006815 
L 384.750127 185.454793 
L 378.111464 180.00332 
L 371.61931 174.715976 
L 365.268868 169.63533 
L 359.055547 164.766773 
L 352.974953 160.068805 
L 347.02288 155.459112 
L 341.195294 150.839889 
L 335.488331 146.130915 
L 329.898284 141.291497 
L 324.421597 136.321926 
L 319.054856 131.250772 
L 313.794783 126.120283 
L 308.638229 120.97682 
L 303.582168 115.866943 
L 298.623691 110.836839 
L 293.76 105.932905 
L 288.988402 101.202229 
L 284.306307 96.691753 
L 279.71122 92.444221 
L 275.200736 88.488031 
L 270.772543 84.820566 
L 266.424407 81.394935 
L 262.154177 78.131302 
L 257.959778 74.959299 
L 253.839208 71.858127 
L 249.790534 68.858156 
L 245.811892 66.01346 
L 241.901479 63.376515 
L 238.057556 60.98806 
L 234.27844 58.877523 
L 230.562508 57.067266 
L 226.908187 55.578105 
L 223.313957 54.439115 
L 219.778349 53.714814 
L 216.299939 53.568 
L 212.877352 54.166523 
L 209.509254 55.070467 
L 206.194353 55.927602 
L 202.931401 57.026063 
L 199.719184 58.53677 
L 196.556528 60.491405 
L 193.442297 62.884847 
L 190.375385 65.70387 
L 187.354722 68.932075 
L 184.37927 72.550019 
L 181.448022 76.534619 
L 178.56 80.858588 
L 175.714254 85.49003 
L 172.909864 90.392224 
L 170.145933 95.523622 
L 167.421594 100.838104 
L 164.736 106.28555 
L 162.088332 111.812762 
L 159.477791 117.36473 
L 156.903603 122.886189 
L 154.365013 128.323327 
L 151.861288 133.625472 
L 149.391714 138.746588 
L 146.955597 143.646434 
L 144.552262 148.291324 
L 142.181053 152.65451 
L 139.841328 156.716264 
L 137.532465 160.46375 
L 135.253857 163.890761 
L 133.004915 166.997359 
L 130.785061 169.789412 
L 128.593735 172.278 
L 126.430391 174.478649 
L 124.294496 176.410363 
L 122.185532 178.094418 
L 120.102991 179.552958 
L 118.046381 180.807434 
L 116.01522 181.877046 
L 114.009039 182.777402 
L 112.02738 183.51976 
L 110.069795 184.111242 
L 108.135849 184.55635 
L 106.225116 184.859827 
L 104.337181 185.030331 
L 102.471638 185.083895 
L 100.628091 185.045863 
L 98.806154 184.950439 
L 97.005448 184.837891 
L 95.225605 184.750396 
L 93.466263 184.72794 
L 91.727072 184.805376 
L 90.007687 185.011163 
L 88.307771 185.367684 
L 86.626995 185.892748 
L 84.965038 186.601902 
L 83.321587 187.511262 
L 81.696332 188.640733 
L 80.088975 190.017201 
L 78.49922 191.676055 
L 76.92678 193.655375 
L 75.371374 195.966466 
L 73.832727 198.509109 
" style="fill:none;stroke:#1f77b4;stroke-linecap:square;stroke-width:1.5;"/>
   </g>
   <g id="patch_3">
    <path d="M 57.6 307.584 
L 57.6 41.472 
" style="fill:none;stroke:#000000;stroke-linecap:square;stroke-linejoin:miter;stroke-width:0.8;"/>
   </g>
   <g id="patch_4">
    <path d="M 414.72 307.584 
L 414.72 41.472 
" style="fill:none;stroke:#000000;stroke-linecap:square;stroke-linejoin:miter;stroke-width:0.8;"/>
   </g>
   <g id="patch_5">
    <path d="M 57.6 307.584 
L 414.72 307.584 
" style="fill:none;stroke:#000000;stroke-linecap:square;stroke-linejoin:miter;stroke-width:0.8;"/>
   </g>
   <g id="patch_6">
    <path d="M 57.6 41.472 
L 414.72 41.472 
" style="fill:none;stroke:#000000;stroke-linecap:square;stroke-linejoin:miter;stroke-width:0.8;"/>
   </g>
   <g id="text_18">
    <!-- diff: 0.0005837016596850209 -->
    <defs>
     <path d="M 45.40625 46.390625 
L 45.40625 75.984375 
L 54.390625 75.984375 
L 54.390625 0 
L 45.40625 0 
L 45.40625 8.203125 
Q 42.578125 3.328125 38.25 0.953125 
Q 33.9375 -1.421875 27.875 -1.421875 
Q 17.96875 -1.421875 11.734375 6.484375 
Q 5.515625 14.40625 5.515625 27.296875 
Q 5.515625 40.1875 11.734375 48.09375 
Q 17.96875 56 27.875 56 
Q 33.9375 56 38.25 53.625 
Q 42.578125 51.265625 45.40625 46.390625 
z
M 14.796875 27.296875 
Q 14.796875 17.390625 18.875 11.75 
Q 22.953125 6.109375 30.078125 6.109375 
Q 37.203125 6.109375 41.296875 11.75 
Q 45.40625 17.390625 45.40625 27.296875 
Q 45.40625 37.203125 41.296875 42.84375 
Q 37.203125 48.484375 30.078125 48.484375 
Q 22.953125 48.484375 18.875 42.84375 
Q 14.796875 37.203125 14.796875 27.296875 
z
" id="DejaVuSans-100"/>
     <path d="M 9.421875 54.6875 
L 18.40625 54.6875 
L 18.40625 0 
L 9.421875 0 
z
M 9.421875 75.984375 
L 18.40625 75.984375 
L 18.40625 64.59375 
L 9.421875 64.59375 
z
" id="DejaVuSans-105"/>
     <path d="M 37.109375 75.984375 
L 37.109375 68.5 
L 28.515625 68.5 
Q 23.6875 68.5 21.796875 66.546875 
Q 19.921875 64.59375 19.921875 59.515625 
L 19.921875 54.6875 
L 34.71875 54.6875 
L 34.71875 47.703125 
L 19.921875 47.703125 
L 19.921875 0 
L 10.890625 0 
L 10.890625 47.703125 
L 2.296875 47.703125 
L 2.296875 54.6875 
L 10.890625 54.6875 
L 10.890625 58.5 
Q 10.890625 67.625 15.140625 71.796875 
Q 19.390625 75.984375 28.609375 75.984375 
z
" id="DejaVuSans-102"/>
     <path d="M 11.71875 12.40625 
L 22.015625 12.40625 
L 22.015625 0 
L 11.71875 0 
z
M 11.71875 51.703125 
L 22.015625 51.703125 
L 22.015625 39.3125 
L 11.71875 39.3125 
z
" id="DejaVuSans-58"/>
     <path id="DejaVuSans-32"/>
     <path d="M 31.78125 34.625 
Q 24.75 34.625 20.71875 30.859375 
Q 16.703125 27.09375 16.703125 20.515625 
Q 16.703125 13.921875 20.71875 10.15625 
Q 24.75 6.390625 31.78125 6.390625 
Q 38.8125 6.390625 42.859375 10.171875 
Q 46.921875 13.96875 46.921875 20.515625 
Q 46.921875 27.09375 42.890625 30.859375 
Q 38.875 34.625 31.78125 34.625 
z
M 21.921875 38.8125 
Q 15.578125 40.375 12.03125 44.71875 
Q 8.5 49.078125 8.5 55.328125 
Q 8.5 64.0625 14.71875 69.140625 
Q 20.953125 74.21875 31.78125 74.21875 
Q 42.671875 74.21875 48.875 69.140625 
Q 55.078125 64.0625 55.078125 55.328125 
Q 55.078125 49.078125 51.53125 44.71875 
Q 48 40.375 41.703125 38.8125 
Q 48.828125 37.15625 52.796875 32.3125 
Q 56.78125 27.484375 56.78125 20.515625 
Q 56.78125 9.90625 50.3125 4.234375 
Q 43.84375 -1.421875 31.78125 -1.421875 
Q 19.734375 -1.421875 13.25 4.234375 
Q 6.78125 9.90625 6.78125 20.515625 
Q 6.78125 27.484375 10.78125 32.3125 
Q 14.796875 37.15625 21.921875 38.8125 
z
M 18.3125 54.390625 
Q 18.3125 48.734375 21.84375 45.5625 
Q 25.390625 42.390625 31.78125 42.390625 
Q 38.140625 42.390625 41.71875 45.5625 
Q 45.3125 48.734375 45.3125 54.390625 
Q 45.3125 60.0625 41.71875 63.234375 
Q 38.140625 66.40625 31.78125 66.40625 
Q 25.390625 66.40625 21.84375 63.234375 
Q 18.3125 60.0625 18.3125 54.390625 
z
" id="DejaVuSans-56"/>
     <path d="M 12.40625 8.296875 
L 28.515625 8.296875 
L 28.515625 63.921875 
L 10.984375 60.40625 
L 10.984375 69.390625 
L 28.421875 72.90625 
L 38.28125 72.90625 
L 38.28125 8.296875 
L 54.390625 8.296875 
L 54.390625 0 
L 12.40625 0 
z
" id="DejaVuSans-49"/>
     <path d="M 10.984375 1.515625 
L 10.984375 10.5 
Q 14.703125 8.734375 18.5 7.8125 
Q 22.3125 6.890625 25.984375 6.890625 
Q 35.75 6.890625 40.890625 13.453125 
Q 46.046875 20.015625 46.78125 33.40625 
Q 43.953125 29.203125 39.59375 26.953125 
Q 35.25 24.703125 29.984375 24.703125 
Q 19.046875 24.703125 12.671875 31.3125 
Q 6.296875 37.9375 6.296875 49.421875 
Q 6.296875 60.640625 12.9375 67.421875 
Q 19.578125 74.21875 30.609375 74.21875 
Q 43.265625 74.21875 49.921875 64.515625 
Q 56.59375 54.828125 56.59375 36.375 
Q 56.59375 19.140625 48.40625 8.859375 
Q 40.234375 -1.421875 26.421875 -1.421875 
Q 22.703125 -1.421875 18.890625 -0.6875 
Q 15.09375 0.046875 10.984375 1.515625 
z
M 30.609375 32.421875 
Q 37.25 32.421875 41.125 36.953125 
Q 45.015625 41.5 45.015625 49.421875 
Q 45.015625 57.28125 41.125 61.84375 
Q 37.25 66.40625 30.609375 66.40625 
Q 23.96875 66.40625 20.09375 61.84375 
Q 16.21875 57.28125 16.21875 49.421875 
Q 16.21875 41.5 20.09375 36.953125 
Q 23.96875 32.421875 30.609375 32.421875 
z
" id="DejaVuSans-57"/>
    </defs>
    <g transform="translate(144.492188 35.472)scale(0.12 -0.12)">
     <use xlink:href="#DejaVuSans-100"/>
     <use x="63.476562" xlink:href="#DejaVuSans-105"/>
     <use x="91.259766" xlink:href="#DejaVuSans-102"/>
     <use x="126.464844" xlink:href="#DejaVuSans-102"/>
     <use x="158.044922" xlink:href="#DejaVuSans-58"/>
     <use x="191.736328" xlink:href="#DejaVuSans-32"/>
     <use x="223.523438" xlink:href="#DejaVuSans-48"/>
     <use x="287.146484" xlink:href="#DejaVuSans-46"/>
     <use x="318.933594" xlink:href="#DejaVuSans-48"/>
     <use x="382.556641" xlink:href="#DejaVuSans-48"/>
     <use x="446.179688" xlink:href="#DejaVuSans-48"/>
     <use x="509.802734" xlink:href="#DejaVuSans-53"/>
     <use x="573.425781" xlink:href="#DejaVuSans-56"/>
     <use x="637.048828" xlink:href="#DejaVuSans-51"/>
     <use x="700.671875" xlink:href="#DejaVuSans-55"/>
     <use x="764.294922" xlink:href="#DejaVuSans-48"/>
     <use x="827.917969" xlink:href="#DejaVuSans-49"/>
     <use x="891.541016" xlink:href="#DejaVuSans-54"/>
     <use x="955.164062" xlink:href="#DejaVuSans-53"/>
     <use x="1018.787109" xlink:href="#DejaVuSans-57"/>
     <use x="1082.410156" xlink:href="#DejaVuSans-54"/>
     <use x="1146.033203" xlink:href="#DejaVuSans-56"/>
     <use x="1209.65625" xlink:href="#DejaVuSans-53"/>
     <use x="1273.279297" xlink:href="#DejaVuSans-48"/>
     <use x="1336.902344" xlink:href="#DejaVuSans-50"/>
     <use x="1400.525391" xlink:href="#DejaVuSans-48"/>
     <use x="1464.148438" xlink:href="#DejaVuSans-57"/>
    </g>
   </g>
   <g id="legend_1">
    <g id="patch_7">
     <path d="M 179.342813 302.584 
L 292.977188 302.584 
Q 294.977188 302.584 294.977188 300.584 
L 294.977188 154.80275 
Q 294.977188 152.80275 292.977188 152.80275 
L 179.342813 152.80275 
Q 177.342813 152.80275 177.342813 154.80275 
L 177.342813 300.584 
Q 177.342813 302.584 179.342813 302.584 
z
" style="fill:#ffffff;opacity:0.8;stroke:#cccccc;stroke-linejoin:miter;"/>
    </g>
    <g id="line2d_28">
     <path d="M 181.342813 160.901187 
L 201.342813 160.901187 
" style="fill:none;stroke:#ff7f0e;stroke-linecap:square;stroke-width:1.5;"/>
    </g>
    <g id="line2d_29"/>
    <g id="text_19">
     <!-- resolution: 100 -->
     <defs>
      <path d="M 41.109375 46.296875 
Q 39.59375 47.171875 37.8125 47.578125 
Q 36.03125 48 33.890625 48 
Q 26.265625 48 22.1875 43.046875 
Q 18.109375 38.09375 18.109375 28.8125 
L 18.109375 0 
L 9.078125 0 
L 9.078125 54.6875 
L 18.109375 54.6875 
L 18.109375 46.1875 
Q 20.953125 51.171875 25.484375 53.578125 
Q 30.03125 56 36.53125 56 
Q 37.453125 56 38.578125 55.875 
Q 39.703125 55.765625 41.0625 55.515625 
z
" id="DejaVuSans-114"/>
      <path d="M 56.203125 29.59375 
L 56.203125 25.203125 
L 14.890625 25.203125 
Q 15.484375 15.921875 20.484375 11.0625 
Q 25.484375 6.203125 34.421875 6.203125 
Q 39.59375 6.203125 44.453125 7.46875 
Q 49.3125 8.734375 54.109375 11.28125 
L 54.109375 2.78125 
Q 49.265625 0.734375 44.1875 -0.34375 
Q 39.109375 -1.421875 33.890625 -1.421875 
Q 20.796875 -1.421875 13.15625 6.1875 
Q 5.515625 13.8125 5.515625 26.8125 
Q 5.515625 40.234375 12.765625 48.109375 
Q 20.015625 56 32.328125 56 
Q 43.359375 56 49.78125 48.890625 
Q 56.203125 41.796875 56.203125 29.59375 
z
M 47.21875 32.234375 
Q 47.125 39.59375 43.09375 43.984375 
Q 39.0625 48.390625 32.421875 48.390625 
Q 24.90625 48.390625 20.390625 44.140625 
Q 15.875 39.890625 15.1875 32.171875 
z
" id="DejaVuSans-101"/>
      <path d="M 44.28125 53.078125 
L 44.28125 44.578125 
Q 40.484375 46.53125 36.375 47.5 
Q 32.28125 48.484375 27.875 48.484375 
Q 21.1875 48.484375 17.84375 46.4375 
Q 14.5 44.390625 14.5 40.28125 
Q 14.5 37.15625 16.890625 35.375 
Q 19.28125 33.59375 26.515625 31.984375 
L 29.59375 31.296875 
Q 39.15625 29.25 43.1875 25.515625 
Q 47.21875 21.78125 47.21875 15.09375 
Q 47.21875 7.46875 41.1875 3.015625 
Q 35.15625 -1.421875 24.609375 -1.421875 
Q 20.21875 -1.421875 15.453125 -0.5625 
Q 10.6875 0.296875 5.421875 2 
L 5.421875 11.28125 
Q 10.40625 8.6875 15.234375 7.390625 
Q 20.0625 6.109375 24.8125 6.109375 
Q 31.15625 6.109375 34.5625 8.28125 
Q 37.984375 10.453125 37.984375 14.40625 
Q 37.984375 18.0625 35.515625 20.015625 
Q 33.0625 21.96875 24.703125 23.78125 
L 21.578125 24.515625 
Q 13.234375 26.265625 9.515625 29.90625 
Q 5.8125 33.546875 5.8125 39.890625 
Q 5.8125 47.609375 11.28125 51.796875 
Q 16.75 56 26.8125 56 
Q 31.78125 56 36.171875 55.265625 
Q 40.578125 54.546875 44.28125 53.078125 
z
" id="DejaVuSans-115"/>
      <path d="M 30.609375 48.390625 
Q 23.390625 48.390625 19.1875 42.75 
Q 14.984375 37.109375 14.984375 27.296875 
Q 14.984375 17.484375 19.15625 11.84375 
Q 23.34375 6.203125 30.609375 6.203125 
Q 37.796875 6.203125 41.984375 11.859375 
Q 46.1875 17.53125 46.1875 27.296875 
Q 46.1875 37.015625 41.984375 42.703125 
Q 37.796875 48.390625 30.609375 48.390625 
z
M 30.609375 56 
Q 42.328125 56 49.015625 48.375 
Q 55.71875 40.765625 55.71875 27.296875 
Q 55.71875 13.875 49.015625 6.21875 
Q 42.328125 -1.421875 30.609375 -1.421875 
Q 18.84375 -1.421875 12.171875 6.21875 
Q 5.515625 13.875 5.515625 27.296875 
Q 5.515625 40.765625 12.171875 48.375 
Q 18.84375 56 30.609375 56 
z
" id="DejaVuSans-111"/>
      <path d="M 9.421875 75.984375 
L 18.40625 75.984375 
L 18.40625 0 
L 9.421875 0 
z
" id="DejaVuSans-108"/>
      <path d="M 8.5 21.578125 
L 8.5 54.6875 
L 17.484375 54.6875 
L 17.484375 21.921875 
Q 17.484375 14.15625 20.5 10.265625 
Q 23.53125 6.390625 29.59375 6.390625 
Q 36.859375 6.390625 41.078125 11.03125 
Q 45.3125 15.671875 45.3125 23.6875 
L 45.3125 54.6875 
L 54.296875 54.6875 
L 54.296875 0 
L 45.3125 0 
L 45.3125 8.40625 
Q 42.046875 3.421875 37.71875 1 
Q 33.40625 -1.421875 27.6875 -1.421875 
Q 18.265625 -1.421875 13.375 4.4375 
Q 8.5 10.296875 8.5 21.578125 
z
M 31.109375 56 
z
" id="DejaVuSans-117"/>
      <path d="M 18.3125 70.21875 
L 18.3125 54.6875 
L 36.8125 54.6875 
L 36.8125 47.703125 
L 18.3125 47.703125 
L 18.3125 18.015625 
Q 18.3125 11.328125 20.140625 9.421875 
Q 21.96875 7.515625 27.59375 7.515625 
L 36.8125 7.515625 
L 36.8125 0 
L 27.59375 0 
Q 17.1875 0 13.234375 3.875 
Q 9.28125 7.765625 9.28125 18.015625 
L 9.28125 47.703125 
L 2.6875 47.703125 
L 2.6875 54.6875 
L 9.28125 54.6875 
L 9.28125 70.21875 
z
" id="DejaVuSans-116"/>
      <path d="M 54.890625 33.015625 
L 54.890625 0 
L 45.90625 0 
L 45.90625 32.71875 
Q 45.90625 40.484375 42.875 44.328125 
Q 39.84375 48.1875 33.796875 48.1875 
Q 26.515625 48.1875 22.3125 43.546875 
Q 18.109375 38.921875 18.109375 30.90625 
L 18.109375 0 
L 9.078125 0 
L 9.078125 54.6875 
L 18.109375 54.6875 
L 18.109375 46.1875 
Q 21.34375 51.125 25.703125 53.5625 
Q 30.078125 56 35.796875 56 
Q 45.21875 56 50.046875 50.171875 
Q 54.890625 44.34375 54.890625 33.015625 
z
" id="DejaVuSans-110"/>
     </defs>
     <g transform="translate(209.342813 164.401187)scale(0.1 -0.1)">
      <use xlink:href="#DejaVuSans-114"/>
      <use x="38.863281" xlink:href="#DejaVuSans-101"/>
      <use x="100.386719" xlink:href="#DejaVuSans-115"/>
      <use x="152.486328" xlink:href="#DejaVuSans-111"/>
      <use x="213.667969" xlink:href="#DejaVuSans-108"/>
      <use x="241.451172" xlink:href="#DejaVuSans-117"/>
      <use x="304.830078" xlink:href="#DejaVuSans-116"/>
      <use x="344.039062" xlink:href="#DejaVuSans-105"/>
      <use x="371.822266" xlink:href="#DejaVuSans-111"/>
      <use x="433.003906" xlink:href="#DejaVuSans-110"/>
      <use x="496.382812" xlink:href="#DejaVuSans-58"/>
      <use x="530.074219" xlink:href="#DejaVuSans-32"/>
      <use x="561.861328" xlink:href="#DejaVuSans-49"/>
      <use x="625.484375" xlink:href="#DejaVuSans-48"/>
      <use x="689.107422" xlink:href="#DejaVuSans-48"/>
     </g>
    </g>
    <g id="line2d_30">
     <path d="M 181.342813 175.579313 
L 201.342813 175.579313 
" style="fill:none;stroke:#2ca02c;stroke-linecap:square;stroke-width:1.5;"/>
    </g>
    <g id="line2d_31"/>
    <g id="text_20">
     <!-- resolution: 200 -->
     <g transform="translate(209.342813 179.079313)scale(0.1 -0.1)">
      <use xlink:href="#DejaVuSans-114"/>
      <use x="38.863281" xlink:href="#DejaVuSans-101"/>
      <use x="100.386719" xlink:href="#DejaVuSans-115"/>
      <use x="152.486328" xlink:href="#DejaVuSans-111"/>
      <use x="213.667969" xlink:href="#DejaVuSans-108"/>
      <use x="241.451172" xlink:href="#DejaVuSans-117"/>
      <use x="304.830078" xlink:href="#DejaVuSans-116"/>
      <use x="344.039062" xlink:href="#DejaVuSans-105"/>
      <use x="371.822266" xlink:href="#DejaVuSans-111"/>
      <use x="433.003906" xlink:href="#DejaVuSans-110"/>
      <use x="496.382812" xlink:href="#DejaVuSans-58"/>
      <use x="530.074219" xlink:href="#DejaVuSans-32"/>
      <use x="561.861328" xlink:href="#DejaVuSans-50"/>
      <use x="625.484375" xlink:href="#DejaVuSans-48"/>
      <use x="689.107422" xlink:href="#DejaVuSans-48"/>
     </g>
    </g>
    <g id="line2d_32">
     <path d="M 181.342813 190.257438 
L 201.342813 190.257438 
" style="fill:none;stroke:#d62728;stroke-linecap:square;stroke-width:1.5;"/>
    </g>
    <g id="line2d_33"/>
    <g id="text_21">
     <!-- resolution: 300 -->
     <g transform="translate(209.342813 193.757438)scale(0.1 -0.1)">
      <use xlink:href="#DejaVuSans-114"/>
      <use x="38.863281" xlink:href="#DejaVuSans-101"/>
      <use x="100.386719" xlink:href="#DejaVuSans-115"/>
      <use x="152.486328" xlink:href="#DejaVuSans-111"/>
      <use x="213.667969" xlink:href="#DejaVuSans-108"/>
      <use x="241.451172" xlink:href="#DejaVuSans-117"/>
      <use x="304.830078" xlink:href="#DejaVuSans-116"/>
      <use x="344.039062" xlink:href="#DejaVuSans-105"/>
      <use x="371.822266" xlink:href="#DejaVuSans-111"/>
      <use x="433.003906" xlink:href="#DejaVuSans-110"/>
      <use x="496.382812" xlink:href="#DejaVuSans-58"/>
      <use x="530.074219" xlink:href="#DejaVuSans-32"/>
      <use x="561.861328" xlink:href="#DejaVuSans-51"/>
      <use x="625.484375" xlink:href="#DejaVuSans-48"/>
      <use x="689.107422" xlink:href="#DejaVuSans-48"/>
     </g>
    </g>
    <g id="line2d_34">
     <path d="M 181.342813 204.935563 
L 201.342813 204.935563 
" style="fill:none;stroke:#9467bd;stroke-linecap:square;stroke-width:1.5;"/>
    </g>
    <g id="line2d_35"/>
    <g id="text_22">
     <!-- resolution: 400 -->
     <g transform="translate(209.342813 208.435563)scale(0.1 -0.1)">
      <use xlink:href="#DejaVuSans-114"/>
      <use x="38.863281" xlink:href="#DejaVuSans-101"/>
      <use x="100.386719" xlink:href="#DejaVuSans-115"/>
      <use x="152.486328" xlink:href="#DejaVuSans-111"/>
      <use x="213.667969" xlink:href="#DejaVuSans-108"/>
      <use x="241.451172" xlink:href="#DejaVuSans-117"/>
      <use x="304.830078" xlink:href="#DejaVuSans-116"/>
      <use x="344.039062" xlink:href="#DejaVuSans-105"/>
      <use x="371.822266" xlink:href="#DejaVuSans-111"/>
      <use x="433.003906" xlink:href="#DejaVuSans-110"/>
      <use x="496.382812" xlink:href="#DejaVuSans-58"/>
      <use x="530.074219" xlink:href="#DejaVuSans-32"/>
      <use x="561.861328" xlink:href="#DejaVuSans-52"/>
      <use x="625.484375" xlink:href="#DejaVuSans-48"/>
      <use x="689.107422" xlink:href="#DejaVuSans-48"/>
     </g>
    </g>
    <g id="line2d_36">
     <path d="M 181.342813 219.613688 
L 201.342813 219.613688 
" style="fill:none;stroke:#8c564b;stroke-linecap:square;stroke-width:1.5;"/>
    </g>
    <g id="line2d_37"/>
    <g id="text_23">
     <!-- resolution: 500 -->
     <g transform="translate(209.342813 223.113688)scale(0.1 -0.1)">
      <use xlink:href="#DejaVuSans-114"/>
      <use x="38.863281" xlink:href="#DejaVuSans-101"/>
      <use x="100.386719" xlink:href="#DejaVuSans-115"/>
      <use x="152.486328" xlink:href="#DejaVuSans-111"/>
      <use x="213.667969" xlink:href="#DejaVuSans-108"/>
      <use x="241.451172" xlink:href="#DejaVuSans-117"/>
      <use x="304.830078" xlink:href="#DejaVuSans-116"/>
      <use x="344.039062" xlink:href="#DejaVuSans-105"/>
      <use x="371.822266" xlink:href="#DejaVuSans-111"/>
      <use x="433.003906" xlink:href="#DejaVuSans-110"/>
      <use x="496.382812" xlink:href="#DejaVuSans-58"/>
      <use x="530.074219" xlink:href="#DejaVuSans-32"/>
      <use x="561.861328" xlink:href="#DejaVuSans-53"/>
      <use x="625.484375" xlink:href="#DejaVuSans-48"/>
      <use x="689.107422" xlink:href="#DejaVuSans-48"/>
     </g>
    </g>
    <g id="line2d_38">
     <path d="M 181.342813 234.291812 
L 201.342813 234.291812 
" style="fill:none;stroke:#e377c2;stroke-linecap:square;stroke-width:1.5;"/>
    </g>
    <g id="line2d_39"/>
    <g id="text_24">
     <!-- resolution: 600 -->
     <g transform="translate(209.342813 237.791812)scale(0.1 -0.1)">
      <use xlink:href="#DejaVuSans-114"/>
      <use x="38.863281" xlink:href="#DejaVuSans-101"/>
      <use x="100.386719" xlink:href="#DejaVuSans-115"/>
      <use x="152.486328" xlink:href="#DejaVuSans-111"/>
      <use x="213.667969" xlink:href="#DejaVuSans-108"/>
      <use x="241.451172" xlink:href="#DejaVuSans-117"/>
      <use x="304.830078" xlink:href="#DejaVuSans-116"/>
      <use x="344.039062" xlink:href="#DejaVuSans-105"/>
      <use x="371.822266" xlink:href="#DejaVuSans-111"/>
      <use x="433.003906" xlink:href="#DejaVuSans-110"/>
      <use x="496.382812" xlink:href="#DejaVuSans-58"/>
      <use x="530.074219" xlink:href="#DejaVuSans-32"/>
      <use x="561.861328" xlink:href="#DejaVuSans-54"/>
      <use x="625.484375" xlink:href="#DejaVuSans-48"/>
      <use x="689.107422" xlink:href="#DejaVuSans-48"/>
     </g>
    </g>
    <g id="line2d_40">
     <path d="M 181.342813 248.969938 
L 201.342813 248.969938 
" style="fill:none;stroke:#7f7f7f;stroke-linecap:square;stroke-width:1.5;"/>
    </g>
    <g id="line2d_41"/>
    <g id="text_25">
     <!-- resolution: 700 -->
     <g transform="translate(209.342813 252.469938)scale(0.1 -0.1)">
      <use xlink:href="#DejaVuSans-114"/>
      <use x="38.863281" xlink:href="#DejaVuSans-101"/>
      <use x="100.386719" xlink:href="#DejaVuSans-115"/>
      <use x="152.486328" xlink:href="#DejaVuSans-111"/>
      <use x="213.667969" xlink:href="#DejaVuSans-108"/>
      <use x="241.451172" xlink:href="#DejaVuSans-117"/>
      <use x="304.830078" xlink:href="#DejaVuSans-116"/>
      <use x="344.039062" xlink:href="#DejaVuSans-105"/>
      <use x="371.822266" xlink:href="#DejaVuSans-111"/>
      <use x="433.003906" xlink:href="#DejaVuSans-110"/>
      <use x="496.382812" xlink:href="#DejaVuSans-58"/>
      <use x="530.074219" xlink:href="#DejaVuSans-32"/>
      <use x="561.861328" xlink:href="#DejaVuSans-55"/>
      <use x="625.484375" xlink:href="#DejaVuSans-48"/>
      <use x="689.107422" xlink:href="#DejaVuSans-48"/>
     </g>
    </g>
    <g id="line2d_42">
     <path d="M 181.342813 263.648062 
L 201.342813 263.648062 
" style="fill:none;stroke:#bcbd22;stroke-linecap:square;stroke-width:1.5;"/>
    </g>
    <g id="line2d_43"/>
    <g id="text_26">
     <!-- resolution: 800 -->
     <g transform="translate(209.342813 267.148062)scale(0.1 -0.1)">
      <use xlink:href="#DejaVuSans-114"/>
      <use x="38.863281" xlink:href="#DejaVuSans-101"/>
      <use x="100.386719" xlink:href="#DejaVuSans-115"/>
      <use x="152.486328" xlink:href="#DejaVuSans-111"/>
      <use x="213.667969" xlink:href="#DejaVuSans-108"/>
      <use x="241.451172" xlink:href="#DejaVuSans-117"/>
      <use x="304.830078" xlink:href="#DejaVuSans-116"/>
      <use x="344.039062" xlink:href="#DejaVuSans-105"/>
      <use x="371.822266" xlink:href="#DejaVuSans-111"/>
      <use x="433.003906" xlink:href="#DejaVuSans-110"/>
      <use x="496.382812" xlink:href="#DejaVuSans-58"/>
      <use x="530.074219" xlink:href="#DejaVuSans-32"/>
      <use x="561.861328" xlink:href="#DejaVuSans-56"/>
      <use x="625.484375" xlink:href="#DejaVuSans-48"/>
      <use x="689.107422" xlink:href="#DejaVuSans-48"/>
     </g>
    </g>
    <g id="line2d_44">
     <path d="M 181.342813 278.326188 
L 201.342813 278.326188 
" style="fill:none;stroke:#17becf;stroke-linecap:square;stroke-width:1.5;"/>
    </g>
    <g id="line2d_45"/>
    <g id="text_27">
     <!-- resolution: 900 -->
     <g transform="translate(209.342813 281.826188)scale(0.1 -0.1)">
      <use xlink:href="#DejaVuSans-114"/>
      <use x="38.863281" xlink:href="#DejaVuSans-101"/>
      <use x="100.386719" xlink:href="#DejaVuSans-115"/>
      <use x="152.486328" xlink:href="#DejaVuSans-111"/>
      <use x="213.667969" xlink:href="#DejaVuSans-108"/>
      <use x="241.451172" xlink:href="#DejaVuSans-117"/>
      <use x="304.830078" xlink:href="#DejaVuSans-116"/>
      <use x="344.039062" xlink:href="#DejaVuSans-105"/>
      <use x="371.822266" xlink:href="#DejaVuSans-111"/>
      <use x="433.003906" xlink:href="#DejaVuSans-110"/>
      <use x="496.382812" xlink:href="#DejaVuSans-58"/>
      <use x="530.074219" xlink:href="#DejaVuSans-32"/>
      <use x="561.861328" xlink:href="#DejaVuSans-57"/>
      <use x="625.484375" xlink:href="#DejaVuSans-48"/>
      <use x="689.107422" xlink:href="#DejaVuSans-48"/>
     </g>
    </g>
    <g id="line2d_46">
     <path d="M 181.342813 293.004312 
L 201.342813 293.004312 
" style="fill:none;stroke:#1f77b4;stroke-linecap:square;stroke-width:1.5;"/>
    </g>
    <g id="line2d_47"/>
    <g id="text_28">
     <!-- resolution: 1000 -->
     <g transform="translate(209.342813 296.504312)scale(0.1 -0.1)">
      <use xlink:href="#DejaVuSans-114"/>
      <use x="38.863281" xlink:href="#DejaVuSans-101"/>
      <use x="100.386719" xlink:href="#DejaVuSans-115"/>
      <use x="152.486328" xlink:href="#DejaVuSans-111"/>
      <use x="213.667969" xlink:href="#DejaVuSans-108"/>
      <use x="241.451172" xlink:href="#DejaVuSans-117"/>
      <use x="304.830078" xlink:href="#DejaVuSans-116"/>
      <use x="344.039062" xlink:href="#DejaVuSans-105"/>
      <use x="371.822266" xlink:href="#DejaVuSans-111"/>
      <use x="433.003906" xlink:href="#DejaVuSans-110"/>
      <use x="496.382812" xlink:href="#DejaVuSans-58"/>
      <use x="530.074219" xlink:href="#DejaVuSans-32"/>
      <use x="561.861328" xlink:href="#DejaVuSans-49"/>
      <use x="625.484375" xlink:href="#DejaVuSans-48"/>
      <use x="689.107422" xlink:href="#DejaVuSans-48"/>
      <use x="752.730469" xlink:href="#DejaVuSans-48"/>
     </g>
    </g>
   </g>
  </g>
 </g>
 <defs>
  <clipPath id="pcc960a4d06">
   <rect height="266.112" width="357.12" x="57.6" y="41.472"/>
  </clipPath>
 </defs>
</svg>
