<?xml version="1.0" encoding="utf-8" standalone="no"?>
<!DOCTYPE svg PUBLIC "-//W3C//DTD SVG 1.1//EN"
  "http://www.w3.org/Graphics/SVG/1.1/DTD/svg11.dtd">
<!-- Created with matplotlib (https://matplotlib.org/) -->
<svg height="345.6pt" version="1.1" viewBox="0 0 460.8 345.6" width="460.8pt" xmlns="http://www.w3.org/2000/svg" xmlns:xlink="http://www.w3.org/1999/xlink">
 <defs>
  <style type="text/css">
*{stroke-linecap:butt;stroke-linejoin:round;}
  </style>
 </defs>
 <g id="figure_1">
  <g id="patch_1">
   <path d="M 0 345.6 
L 460.8 345.6 
L 460.8 0 
L 0 0 
z
" style="fill:#ffffff;"/>
  </g>
  <g id="axes_1">
   <g id="patch_2">
    <path d="M 57.6 307.584 
L 414.72 307.584 
L 414.72 41.472 
L 57.6 41.472 
z
" style="fill:#ffffff;"/>
   </g>
   <g id="matplotlib.axis_1">
    <g id="xtick_1">
     <g id="line2d_1">
      <defs>
       <path d="M 0 0 
L 0 3.5 
" id="m73c33b5036" style="stroke:#000000;stroke-width:0.8;"/>
      </defs>
      <g>
       <use style="stroke:#000000;stroke-width:0.8;" x="73.832727" xlink:href="#m73c33b5036" y="307.584"/>
      </g>
     </g>
     <g id="text_1">
      <!-- 0.35 -->
      <defs>
       <path d="M 31.78125 66.40625 
Q 24.171875 66.40625 20.328125 58.90625 
Q 16.5 51.421875 16.5 36.375 
Q 16.5 21.390625 20.328125 13.890625 
Q 24.171875 6.390625 31.78125 6.390625 
Q 39.453125 6.390625 43.28125 13.890625 
Q 47.125 21.390625 47.125 36.375 
Q 47.125 51.421875 43.28125 58.90625 
Q 39.453125 66.40625 31.78125 66.40625 
z
M 31.78125 74.21875 
Q 44.046875 74.21875 50.515625 64.515625 
Q 56.984375 54.828125 56.984375 36.375 
Q 56.984375 17.96875 50.515625 8.265625 
Q 44.046875 -1.421875 31.78125 -1.421875 
Q 19.53125 -1.421875 13.0625 8.265625 
Q 6.59375 17.96875 6.59375 36.375 
Q 6.59375 54.828125 13.0625 64.515625 
Q 19.53125 74.21875 31.78125 74.21875 
z
" id="DejaVuSans-48"/>
       <path d="M 10.6875 12.40625 
L 21 12.40625 
L 21 0 
L 10.6875 0 
z
" id="DejaVuSans-46"/>
       <path d="M 40.578125 39.3125 
Q 47.65625 37.796875 51.625 33 
Q 55.609375 28.21875 55.609375 21.1875 
Q 55.609375 10.40625 48.1875 4.484375 
Q 40.765625 -1.421875 27.09375 -1.421875 
Q 22.515625 -1.421875 17.65625 -0.515625 
Q 12.796875 0.390625 7.625 2.203125 
L 7.625 11.71875 
Q 11.71875 9.328125 16.59375 8.109375 
Q 21.484375 6.890625 26.8125 6.890625 
Q 36.078125 6.890625 40.9375 10.546875 
Q 45.796875 14.203125 45.796875 21.1875 
Q 45.796875 27.640625 41.28125 31.265625 
Q 36.765625 34.90625 28.71875 34.90625 
L 20.21875 34.90625 
L 20.21875 43.015625 
L 29.109375 43.015625 
Q 36.375 43.015625 40.234375 45.921875 
Q 44.09375 48.828125 44.09375 54.296875 
Q 44.09375 59.90625 40.109375 62.90625 
Q 36.140625 65.921875 28.71875 65.921875 
Q 24.65625 65.921875 20.015625 65.03125 
Q 15.375 64.15625 9.8125 62.3125 
L 9.8125 71.09375 
Q 15.4375 72.65625 20.34375 73.4375 
Q 25.25 74.21875 29.59375 74.21875 
Q 40.828125 74.21875 47.359375 69.109375 
Q 53.90625 64.015625 53.90625 55.328125 
Q 53.90625 49.265625 50.4375 45.09375 
Q 46.96875 40.921875 40.578125 39.3125 
z
" id="DejaVuSans-51"/>
       <path d="M 10.796875 72.90625 
L 49.515625 72.90625 
L 49.515625 64.59375 
L 19.828125 64.59375 
L 19.828125 46.734375 
Q 21.96875 47.46875 24.109375 47.828125 
Q 26.265625 48.1875 28.421875 48.1875 
Q 40.625 48.1875 47.75 41.5 
Q 54.890625 34.8125 54.890625 23.390625 
Q 54.890625 11.625 47.5625 5.09375 
Q 40.234375 -1.421875 26.90625 -1.421875 
Q 22.3125 -1.421875 17.546875 -0.640625 
Q 12.796875 0.140625 7.71875 1.703125 
L 7.71875 11.625 
Q 12.109375 9.234375 16.796875 8.0625 
Q 21.484375 6.890625 26.703125 6.890625 
Q 35.15625 6.890625 40.078125 11.328125 
Q 45.015625 15.765625 45.015625 23.390625 
Q 45.015625 31 40.078125 35.4375 
Q 35.15625 39.890625 26.703125 39.890625 
Q 22.75 39.890625 18.8125 39.015625 
Q 14.890625 38.140625 10.796875 36.28125 
z
" id="DejaVuSans-53"/>
      </defs>
      <g transform="translate(62.699915 322.182437)scale(0.1 -0.1)">
       <use xlink:href="#DejaVuSans-48"/>
       <use x="63.623047" xlink:href="#DejaVuSans-46"/>
       <use x="95.410156" xlink:href="#DejaVuSans-51"/>
       <use x="159.033203" xlink:href="#DejaVuSans-53"/>
      </g>
     </g>
    </g>
    <g id="xtick_2">
     <g id="line2d_2">
      <g>
       <use style="stroke:#000000;stroke-width:0.8;" x="114.414545" xlink:href="#m73c33b5036" y="307.584"/>
      </g>
     </g>
     <g id="text_2">
      <!-- 0.40 -->
      <defs>
       <path d="M 37.796875 64.3125 
L 12.890625 25.390625 
L 37.796875 25.390625 
z
M 35.203125 72.90625 
L 47.609375 72.90625 
L 47.609375 25.390625 
L 58.015625 25.390625 
L 58.015625 17.1875 
L 47.609375 17.1875 
L 47.609375 0 
L 37.796875 0 
L 37.796875 17.1875 
L 4.890625 17.1875 
L 4.890625 26.703125 
z
" id="DejaVuSans-52"/>
      </defs>
      <g transform="translate(103.281733 322.182437)scale(0.1 -0.1)">
       <use xlink:href="#DejaVuSans-48"/>
       <use x="63.623047" xlink:href="#DejaVuSans-46"/>
       <use x="95.410156" xlink:href="#DejaVuSans-52"/>
       <use x="159.033203" xlink:href="#DejaVuSans-48"/>
      </g>
     </g>
    </g>
    <g id="xtick_3">
     <g id="line2d_3">
      <g>
       <use style="stroke:#000000;stroke-width:0.8;" x="154.996364" xlink:href="#m73c33b5036" y="307.584"/>
      </g>
     </g>
     <g id="text_3">
      <!-- 0.45 -->
      <g transform="translate(143.863551 322.182437)scale(0.1 -0.1)">
       <use xlink:href="#DejaVuSans-48"/>
       <use x="63.623047" xlink:href="#DejaVuSans-46"/>
       <use x="95.410156" xlink:href="#DejaVuSans-52"/>
       <use x="159.033203" xlink:href="#DejaVuSans-53"/>
      </g>
     </g>
    </g>
    <g id="xtick_4">
     <g id="line2d_4">
      <g>
       <use style="stroke:#000000;stroke-width:0.8;" x="195.578182" xlink:href="#m73c33b5036" y="307.584"/>
      </g>
     </g>
     <g id="text_4">
      <!-- 0.50 -->
      <g transform="translate(184.445369 322.182437)scale(0.1 -0.1)">
       <use xlink:href="#DejaVuSans-48"/>
       <use x="63.623047" xlink:href="#DejaVuSans-46"/>
       <use x="95.410156" xlink:href="#DejaVuSans-53"/>
       <use x="159.033203" xlink:href="#DejaVuSans-48"/>
      </g>
     </g>
    </g>
    <g id="xtick_5">
     <g id="line2d_5">
      <g>
       <use style="stroke:#000000;stroke-width:0.8;" x="236.16" xlink:href="#m73c33b5036" y="307.584"/>
      </g>
     </g>
     <g id="text_5">
      <!-- 0.55 -->
      <g transform="translate(225.027188 322.182437)scale(0.1 -0.1)">
       <use xlink:href="#DejaVuSans-48"/>
       <use x="63.623047" xlink:href="#DejaVuSans-46"/>
       <use x="95.410156" xlink:href="#DejaVuSans-53"/>
       <use x="159.033203" xlink:href="#DejaVuSans-53"/>
      </g>
     </g>
    </g>
    <g id="xtick_6">
     <g id="line2d_6">
      <g>
       <use style="stroke:#000000;stroke-width:0.8;" x="276.741818" xlink:href="#m73c33b5036" y="307.584"/>
      </g>
     </g>
     <g id="text_6">
      <!-- 0.60 -->
      <defs>
       <path d="M 33.015625 40.375 
Q 26.375 40.375 22.484375 35.828125 
Q 18.609375 31.296875 18.609375 23.390625 
Q 18.609375 15.53125 22.484375 10.953125 
Q 26.375 6.390625 33.015625 6.390625 
Q 39.65625 6.390625 43.53125 10.953125 
Q 47.40625 15.53125 47.40625 23.390625 
Q 47.40625 31.296875 43.53125 35.828125 
Q 39.65625 40.375 33.015625 40.375 
z
M 52.59375 71.296875 
L 52.59375 62.3125 
Q 48.875 64.0625 45.09375 64.984375 
Q 41.3125 65.921875 37.59375 65.921875 
Q 27.828125 65.921875 22.671875 59.328125 
Q 17.53125 52.734375 16.796875 39.40625 
Q 19.671875 43.65625 24.015625 45.921875 
Q 28.375 48.1875 33.59375 48.1875 
Q 44.578125 48.1875 50.953125 41.515625 
Q 57.328125 34.859375 57.328125 23.390625 
Q 57.328125 12.15625 50.6875 5.359375 
Q 44.046875 -1.421875 33.015625 -1.421875 
Q 20.359375 -1.421875 13.671875 8.265625 
Q 6.984375 17.96875 6.984375 36.375 
Q 6.984375 53.65625 15.1875 63.9375 
Q 23.390625 74.21875 37.203125 74.21875 
Q 40.921875 74.21875 44.703125 73.484375 
Q 48.484375 72.75 52.59375 71.296875 
z
" id="DejaVuSans-54"/>
      </defs>
      <g transform="translate(265.609006 322.182437)scale(0.1 -0.1)">
       <use xlink:href="#DejaVuSans-48"/>
       <use x="63.623047" xlink:href="#DejaVuSans-46"/>
       <use x="95.410156" xlink:href="#DejaVuSans-54"/>
       <use x="159.033203" xlink:href="#DejaVuSans-48"/>
      </g>
     </g>
    </g>
    <g id="xtick_7">
     <g id="line2d_7">
      <g>
       <use style="stroke:#000000;stroke-width:0.8;" x="317.323636" xlink:href="#m73c33b5036" y="307.584"/>
      </g>
     </g>
     <g id="text_7">
      <!-- 0.65 -->
      <g transform="translate(306.190824 322.182437)scale(0.1 -0.1)">
       <use xlink:href="#DejaVuSans-48"/>
       <use x="63.623047" xlink:href="#DejaVuSans-46"/>
       <use x="95.410156" xlink:href="#DejaVuSans-54"/>
       <use x="159.033203" xlink:href="#DejaVuSans-53"/>
      </g>
     </g>
    </g>
    <g id="xtick_8">
     <g id="line2d_8">
      <g>
       <use style="stroke:#000000;stroke-width:0.8;" x="357.905455" xlink:href="#m73c33b5036" y="307.584"/>
      </g>
     </g>
     <g id="text_8">
      <!-- 0.70 -->
      <defs>
       <path d="M 8.203125 72.90625 
L 55.078125 72.90625 
L 55.078125 68.703125 
L 28.609375 0 
L 18.3125 0 
L 43.21875 64.59375 
L 8.203125 64.59375 
z
" id="DejaVuSans-55"/>
      </defs>
      <g transform="translate(346.772642 322.182437)scale(0.1 -0.1)">
       <use xlink:href="#DejaVuSans-48"/>
       <use x="63.623047" xlink:href="#DejaVuSans-46"/>
       <use x="95.410156" xlink:href="#DejaVuSans-55"/>
       <use x="159.033203" xlink:href="#DejaVuSans-48"/>
      </g>
     </g>
    </g>
    <g id="xtick_9">
     <g id="line2d_9">
      <g>
       <use style="stroke:#000000;stroke-width:0.8;" x="398.487273" xlink:href="#m73c33b5036" y="307.584"/>
      </g>
     </g>
     <g id="text_9">
      <!-- 0.75 -->
      <g transform="translate(387.35446 322.182437)scale(0.1 -0.1)">
       <use xlink:href="#DejaVuSans-48"/>
       <use x="63.623047" xlink:href="#DejaVuSans-46"/>
       <use x="95.410156" xlink:href="#DejaVuSans-55"/>
       <use x="159.033203" xlink:href="#DejaVuSans-53"/>
      </g>
     </g>
    </g>
   </g>
   <g id="matplotlib.axis_2">
    <g id="ytick_1">
     <g id="line2d_10">
      <defs>
       <path d="M 0 0 
L -3.5 0 
" id="mf2b25e48ef" style="stroke:#000000;stroke-width:0.8;"/>
      </defs>
      <g>
       <use style="stroke:#000000;stroke-width:0.8;" x="57.6" xlink:href="#mf2b25e48ef" y="286.614749"/>
      </g>
     </g>
     <g id="text_10">
      <!-- 0.0 -->
      <g transform="translate(34.696875 290.413967)scale(0.1 -0.1)">
       <use xlink:href="#DejaVuSans-48"/>
       <use x="63.623047" xlink:href="#DejaVuSans-46"/>
       <use x="95.410156" xlink:href="#DejaVuSans-48"/>
      </g>
     </g>
    </g>
    <g id="ytick_2">
     <g id="line2d_11">
      <g>
       <use style="stroke:#000000;stroke-width:0.8;" x="57.6" xlink:href="#mf2b25e48ef" y="252.565483"/>
      </g>
     </g>
     <g id="text_11">
      <!-- 0.1 -->
      <defs>
       <path d="M 12.40625 8.296875 
L 28.515625 8.296875 
L 28.515625 63.921875 
L 10.984375 60.40625 
L 10.984375 69.390625 
L 28.421875 72.90625 
L 38.28125 72.90625 
L 38.28125 8.296875 
L 54.390625 8.296875 
L 54.390625 0 
L 12.40625 0 
z
" id="DejaVuSans-49"/>
      </defs>
      <g transform="translate(34.696875 256.364702)scale(0.1 -0.1)">
       <use xlink:href="#DejaVuSans-48"/>
       <use x="63.623047" xlink:href="#DejaVuSans-46"/>
       <use x="95.410156" xlink:href="#DejaVuSans-49"/>
      </g>
     </g>
    </g>
    <g id="ytick_3">
     <g id="line2d_12">
      <g>
       <use style="stroke:#000000;stroke-width:0.8;" x="57.6" xlink:href="#mf2b25e48ef" y="218.516217"/>
      </g>
     </g>
     <g id="text_12">
      <!-- 0.2 -->
      <defs>
       <path d="M 19.1875 8.296875 
L 53.609375 8.296875 
L 53.609375 0 
L 7.328125 0 
L 7.328125 8.296875 
Q 12.9375 14.109375 22.625 23.890625 
Q 32.328125 33.6875 34.8125 36.53125 
Q 39.546875 41.84375 41.421875 45.53125 
Q 43.3125 49.21875 43.3125 52.78125 
Q 43.3125 58.59375 39.234375 62.25 
Q 35.15625 65.921875 28.609375 65.921875 
Q 23.96875 65.921875 18.8125 64.3125 
Q 13.671875 62.703125 7.8125 59.421875 
L 7.8125 69.390625 
Q 13.765625 71.78125 18.9375 73 
Q 24.125 74.21875 28.421875 74.21875 
Q 39.75 74.21875 46.484375 68.546875 
Q 53.21875 62.890625 53.21875 53.421875 
Q 53.21875 48.921875 51.53125 44.890625 
Q 49.859375 40.875 45.40625 35.40625 
Q 44.1875 33.984375 37.640625 27.21875 
Q 31.109375 20.453125 19.1875 8.296875 
z
" id="DejaVuSans-50"/>
      </defs>
      <g transform="translate(34.696875 222.315436)scale(0.1 -0.1)">
       <use xlink:href="#DejaVuSans-48"/>
       <use x="63.623047" xlink:href="#DejaVuSans-46"/>
       <use x="95.410156" xlink:href="#DejaVuSans-50"/>
      </g>
     </g>
    </g>
    <g id="ytick_4">
     <g id="line2d_13">
      <g>
       <use style="stroke:#000000;stroke-width:0.8;" x="57.6" xlink:href="#mf2b25e48ef" y="184.466952"/>
      </g>
     </g>
     <g id="text_13">
      <!-- 0.3 -->
      <g transform="translate(34.696875 188.26617)scale(0.1 -0.1)">
       <use xlink:href="#DejaVuSans-48"/>
       <use x="63.623047" xlink:href="#DejaVuSans-46"/>
       <use x="95.410156" xlink:href="#DejaVuSans-51"/>
      </g>
     </g>
    </g>
    <g id="ytick_5">
     <g id="line2d_14">
      <g>
       <use style="stroke:#000000;stroke-width:0.8;" x="57.6" xlink:href="#mf2b25e48ef" y="150.417686"/>
      </g>
     </g>
     <g id="text_14">
      <!-- 0.4 -->
      <g transform="translate(34.696875 154.216905)scale(0.1 -0.1)">
       <use xlink:href="#DejaVuSans-48"/>
       <use x="63.623047" xlink:href="#DejaVuSans-46"/>
       <use x="95.410156" xlink:href="#DejaVuSans-52"/>
      </g>
     </g>
    </g>
    <g id="ytick_6">
     <g id="line2d_15">
      <g>
       <use style="stroke:#000000;stroke-width:0.8;" x="57.6" xlink:href="#mf2b25e48ef" y="116.36842"/>
      </g>
     </g>
     <g id="text_15">
      <!-- 0.5 -->
      <g transform="translate(34.696875 120.167639)scale(0.1 -0.1)">
       <use xlink:href="#DejaVuSans-48"/>
       <use x="63.623047" xlink:href="#DejaVuSans-46"/>
       <use x="95.410156" xlink:href="#DejaVuSans-53"/>
      </g>
     </g>
    </g>
    <g id="ytick_7">
     <g id="line2d_16">
      <g>
       <use style="stroke:#000000;stroke-width:0.8;" x="57.6" xlink:href="#mf2b25e48ef" y="82.319155"/>
      </g>
     </g>
     <g id="text_16">
      <!-- 0.6 -->
      <g transform="translate(34.696875 86.118373)scale(0.1 -0.1)">
       <use xlink:href="#DejaVuSans-48"/>
       <use x="63.623047" xlink:href="#DejaVuSans-46"/>
       <use x="95.410156" xlink:href="#DejaVuSans-54"/>
      </g>
     </g>
    </g>
    <g id="ytick_8">
     <g id="line2d_17">
      <g>
       <use style="stroke:#000000;stroke-width:0.8;" x="57.6" xlink:href="#mf2b25e48ef" y="48.269889"/>
      </g>
     </g>
     <g id="text_17">
      <!-- 0.7 -->
      <g transform="translate(34.696875 52.069108)scale(0.1 -0.1)">
       <use xlink:href="#DejaVuSans-48"/>
       <use x="63.623047" xlink:href="#DejaVuSans-46"/>
       <use x="95.410156" xlink:href="#DejaVuSans-55"/>
      </g>
     </g>
    </g>
   </g>
   <g id="line2d_18">
    <path clip-path="url(#pc853563115)" d="M 398.487273 179.404987 
L 391.540314 193.111043 
L 384.750127 208.093754 
L 378.111464 221.104937 
L 371.61931 226.957947 
L 365.268868 222.777007 
L 359.055547 210.895663 
L 352.974953 197.125466 
L 347.02288 186.520338 
L 341.195294 181.386205 
L 335.488331 182.59001 
L 329.898284 190.44398 
L 324.421597 205.271252 
L 319.054856 226.91978 
L 313.794783 252.587634 
L 308.638229 273.642411 
L 303.582168 276.180123 
L 298.623691 254.205612 
L 293.76 219.188204 
L 288.988402 186.664009 
L 284.306307 163.739046 
L 279.71122 150.901609 
L 275.200736 146.937167 
L 270.772543 151.160121 
L 266.424407 164.150896 
L 262.154177 187.899035 
L 257.959778 224.59539 
L 253.839208 269.853922 
L 249.790534 295.488 
L 245.811892 262.885734 
L 241.901479 195.475205 
L 238.057556 140.834077 
L 234.27844 108.668297 
L 230.562508 92.047754 
L 226.908187 84.853266 
L 223.313957 84.155211 
L 219.778349 90.147664 
L 216.299939 108.736341 
L 212.877352 165.027116 
L 209.509254 262.860239 
L 206.194353 157.842143 
L 202.931401 98.905792 
L 199.719184 82.088862 
L 196.556528 76.50803 
L 193.442297 74.558323 
L 190.375385 73.99804 
L 187.354722 73.98975 
L 184.37927 74.172262 
L 181.448022 74.376964 
L 178.56 74.527642 
L 175.714254 74.609256 
L 172.909864 74.635787 
L 170.145933 74.641547 
L 167.421594 74.666268 
L 164.736 74.744218 
L 162.088332 74.9043 
L 159.477791 75.162004 
L 156.903603 75.525488 
L 154.365013 75.994847 
L 151.861288 76.563822 
L 149.391714 77.224299 
L 146.955597 77.961466 
L 144.552262 78.757102 
L 142.181053 79.583823 
L 139.841328 80.403936 
L 137.532465 81.171462 
L 135.253857 81.832589 
L 133.004915 82.338941 
L 130.785061 82.654864 
L 128.593735 82.768903 
L 126.430391 82.698546 
L 124.294496 82.483225 
L 122.185532 82.179831 
L 120.102991 81.846783 
L 118.046381 81.538626 
L 116.01522 81.301832 
L 114.009039 81.172165 
L 112.02738 81.184397 
L 110.069795 81.370219 
L 108.135849 81.768502 
L 106.225116 82.423884 
L 104.337181 83.379512 
L 102.471638 84.668763 
L 100.628091 86.276539 
L 98.806154 88.111756 
L 97.005448 89.969416 
L 95.225605 91.537653 
L 93.466263 92.478569 
L 91.727072 92.538544 
L 90.007687 91.67806 
L 88.307771 90.077185 
L 86.626995 88.054256 
L 84.965038 85.955525 
L 83.321587 84.035076 
L 81.696332 82.469343 
L 80.088975 81.33575 
L 78.49922 80.680852 
L 76.92678 80.590509 
L 75.371374 81.251763 
L 73.832727 83.29769 
" style="fill:none;stroke:#ff7f0e;stroke-linecap:square;stroke-width:1.5;"/>
   </g>
   <g id="line2d_19">
    <path clip-path="url(#pc853563115)" d="M 398.487273 210.473558 
L 391.540314 197.581897 
L 384.750127 184.663689 
L 378.111464 175.354438 
L 371.61931 171.059994 
L 365.268868 172.008493 
L 359.055547 178.198137 
L 352.974953 189.795488 
L 347.02288 206.924475 
L 341.195294 229.057765 
L 335.488331 253.315892 
L 329.898284 272.3606 
L 324.421597 275.304528 
L 319.054856 256.353026 
L 313.794783 222.876757 
L 308.638229 188.253405 
L 303.582168 160.739201 
L 298.623691 142.141023 
L 293.76 131.423995 
L 288.988402 127.214449 
L 284.306307 128.66982 
L 279.71122 135.678962 
L 275.200736 148.827863 
L 270.772543 169.184813 
L 266.424407 197.185576 
L 262.154177 228.527808 
L 257.959778 246.332106 
L 253.839208 227.11228 
L 249.790534 177.455213 
L 245.811892 129.254427 
L 241.901479 97.167551 
L 238.057556 79.128833 
L 234.27844 70.191085 
L 230.562508 66.982417 
L 226.908187 67.855326 
L 223.313957 72.651672 
L 219.778349 83.377599 
L 216.299939 107.752312 
L 212.877352 164.889579 
L 209.509254 177.467622 
L 206.194353 104.396522 
L 202.931401 76.512752 
L 199.719184 67.564095 
L 196.556528 64.088639 
L 193.442297 62.462243 
L 190.375385 61.587412 
L 187.354722 61.098797 
L 184.37927 60.869575 
L 181.448022 60.853046 
L 178.56 61.029364 
L 175.714254 61.383633 
L 172.909864 61.901031 
L 170.145933 62.564571 
L 167.421594 63.354227 
L 164.736 64.247826 
L 162.088332 65.219046 
L 159.477791 66.237914 
L 156.903603 67.269848 
L 154.365013 68.276076 
L 151.861288 69.216281 
L 149.391714 70.051056 
L 146.955597 70.747638 
L 144.552262 71.284108 
L 142.181053 71.653164 
L 139.841328 71.863787 
L 137.532465 71.938598 
L 135.253857 71.910697 
L 133.004915 71.817509 
L 130.785061 71.696154 
L 128.593735 71.580239 
L 126.430391 71.497526 
L 124.294496 71.471444 
L 122.185532 71.521678 
L 120.102991 71.667365 
L 118.046381 71.929677 
L 116.01522 72.333241 
L 114.009039 72.908459 
L 112.02738 73.688569 
L 110.069795 74.705906 
L 108.135849 75.980763 
L 106.225116 77.503921 
L 104.337181 79.216539 
L 102.471638 80.988426 
L 100.628091 82.616435 
L 98.806154 83.849611 
L 97.005448 84.45078 
L 95.225605 84.2767 
L 93.466263 83.329998 
L 91.727072 81.763639 
L 90.007687 79.822887 
L 88.307771 77.770142 
L 86.626995 75.828095 
L 84.965038 74.146947 
L 83.321587 72.817993 
L 81.696332 71.885396 
L 80.088975 71.382881 
L 78.49922 71.37584 
L 76.92678 72.022429 
L 75.371374 73.743392 
L 73.832727 77.518711 
" style="fill:none;stroke:#2ca02c;stroke-linecap:square;stroke-width:1.5;"/>
   </g>
   <g id="line2d_20">
    <path clip-path="url(#pc853563115)" d="M 398.487273 189.994269 
L 391.540314 178.064434 
L 384.750127 170.387505 
L 378.111464 167.516872 
L 371.61931 169.427914 
L 365.268868 176.124418 
L 359.055547 187.730152 
L 352.974953 204.369863 
L 347.02288 225.446732 
L 341.195294 248.233787 
L 335.488331 266.034019 
L 329.898284 268.997837 
L 324.421597 251.60345 
L 319.054856 219.812373 
L 313.794783 185.690626 
L 308.638229 157.439978 
L 303.582168 137.41018 
L 298.623691 124.97012 
L 293.76 118.84411 
L 288.988402 118.073327 
L 284.306307 122.247942 
L 279.71122 131.529426 
L 275.200736 146.553809 
L 270.772543 167.921614 
L 266.424407 194.244002 
L 262.154177 217.098963 
L 257.959778 217.767169 
L 253.839208 185.684898 
L 249.790534 139.981268 
L 245.811892 103.223474 
L 241.901479 80.47542 
L 238.057556 68.316737 
L 234.27844 62.94718 
L 230.562508 61.965505 
L 226.908187 64.229571 
L 223.313957 69.764907 
L 219.778349 80.537428 
L 216.299939 103.682985 
L 212.877352 152.138418 
L 209.509254 146.888195 
L 206.194353 89.619865 
L 202.931401 68.41378 
L 199.719184 61.230794 
L 196.556528 58.296026 
L 193.442297 56.915639 
L 190.375385 56.249221 
L 187.354722 55.995672 
L 184.37927 56.032351 
L 181.448022 56.29912 
L 178.56 56.760004 
L 175.714254 57.387709 
L 172.909864 58.157583 
L 170.145933 59.04548 
L 167.421594 60.025087 
L 164.736 61.067596 
L 162.088332 62.140421 
L 159.477791 63.207387 
L 156.903603 64.230263 
L 154.365013 65.170684 
L 151.861288 65.994532 
L 149.391714 66.675579 
L 146.955597 67.199435 
L 144.552262 67.56577 
L 142.181053 67.787699 
L 139.841328 67.88988 
L 137.532465 67.903847 
L 135.253857 67.863805 
L 133.004915 67.802677 
L 130.785061 67.749278 
L 128.593735 67.728005 
L 126.430391 67.758748 
L 124.294496 67.859067 
L 122.185532 68.04612 
L 120.102991 68.33878 
L 118.046381 68.76008 
L 116.01522 69.337289 
L 114.009039 70.101835 
L 112.02738 71.084749 
L 110.069795 72.308403 
L 108.135849 73.773112 
L 106.225116 75.437575 
L 104.337181 77.201375 
L 102.471638 78.894719 
L 100.628091 80.292676 
L 98.806154 81.160032 
L 97.005448 81.317756 
L 95.225605 80.707284 
L 93.466263 79.412124 
L 91.727072 77.630447 
L 90.007687 75.611421 
L 88.307771 73.589313 
L 86.626995 71.746737 
L 84.965038 70.200233 
L 83.321587 69.015537 
L 81.696332 68.228424 
L 80.088975 67.87314 
L 78.49922 68.030101 
L 76.92678 68.894289 
L 75.371374 70.949588 
L 73.832727 75.28794 
" style="fill:none;stroke:#d62728;stroke-linecap:square;stroke-width:1.5;"/>
   </g>
   <g id="line2d_21">
    <path clip-path="url(#pc853563115)" d="M 398.487273 182.803891 
L 391.540314 172.561631 
L 384.750127 166.884003 
L 378.111464 165.949543 
L 371.61931 169.678194 
L 365.268868 178.119704 
L 359.055547 191.40988 
L 352.974953 209.488938 
L 347.02288 231.166526 
L 341.195294 252.46984 
L 335.488331 265.37564 
L 329.898284 260.775585 
L 324.421597 237.04253 
L 319.054856 203.224909 
L 313.794783 170.549534 
L 308.638229 144.947245 
L 303.582168 127.426007 
L 298.623691 116.980147 
L 293.76 112.367165 
L 288.988402 112.748491 
L 284.306307 117.816603 
L 279.71122 127.774098 
L 275.200736 143.184638 
L 270.772543 164.305667 
L 266.424407 188.821802 
L 262.154177 206.9765 
L 257.959778 201.2829 
L 253.839208 167.088716 
L 249.790534 124.95804 
L 245.811892 92.968396 
L 241.901479 73.765522 
L 238.057556 63.8802 
L 234.27844 59.934154 
L 230.562508 59.81522 
L 226.908187 62.514543 
L 223.313957 68.092456 
L 219.778349 78.452257 
L 216.299939 100.303321 
L 212.877352 143.627376 
L 209.509254 133.27522 
L 206.194353 83.027766 
L 202.931401 64.492966 
L 199.719184 58.096836 
L 196.556528 55.463401 
L 193.442297 54.248422 
L 190.375385 53.707841 
L 187.354722 53.568 
L 184.37927 53.713012 
L 181.448022 54.08365 
L 178.56 54.642858 
L 175.714254 55.362044 
L 172.909864 56.21488 
L 170.145933 57.175074 
L 167.421594 58.213895 
L 164.736 59.299656 
L 162.088332 60.39723 
L 159.477791 61.468647 
L 156.903603 62.475448 
L 154.365013 63.381324 
L 151.861288 64.156461 
L 149.391714 64.781103 
L 146.955597 65.24829 
L 144.552262 65.5649 
L 142.181053 65.749814 
L 139.841328 65.831012 
L 137.532465 65.840984 
L 135.253857 65.812673 
L 133.004915 65.776462 
L 130.785061 65.758181 
L 128.593735 65.779378 
L 126.430391 65.857973 
L 124.294496 66.010332 
L 122.185532 66.253468 
L 120.102991 66.606835 
L 118.046381 67.094341 
L 116.01522 67.744127 
L 114.009039 68.587271 
L 112.02738 69.65256 
L 110.069795 70.956699 
L 108.135849 72.490007 
L 106.225116 74.197194 
L 104.337181 75.961637 
L 102.471638 77.600844 
L 100.628091 78.887027 
L 98.806154 79.597441 
L 97.005448 79.580087 
L 95.225605 78.808676 
L 93.466263 77.393213 
L 91.727072 75.543309 
L 90.007687 73.504983 
L 88.307771 71.50055 
L 86.626995 69.697758 
L 84.965038 68.202065 
L 83.321587 67.071316 
L 81.696332 66.339029 
L 80.088975 66.041577 
L 78.49922 66.265785 
L 76.92678 67.223442 
L 75.371374 69.425601 
L 73.832727 74.008441 
" style="fill:none;stroke:#9467bd;stroke-linecap:square;stroke-width:1.5;"/>
   </g>
   <g id="patch_3">
    <path d="M 57.6 307.584 
L 57.6 41.472 
" style="fill:none;stroke:#000000;stroke-linecap:square;stroke-linejoin:miter;stroke-width:0.8;"/>
   </g>
   <g id="patch_4">
    <path d="M 414.72 307.584 
L 414.72 41.472 
" style="fill:none;stroke:#000000;stroke-linecap:square;stroke-linejoin:miter;stroke-width:0.8;"/>
   </g>
   <g id="patch_5">
    <path d="M 57.6 307.584 
L 414.72 307.584 
" style="fill:none;stroke:#000000;stroke-linecap:square;stroke-linejoin:miter;stroke-width:0.8;"/>
   </g>
   <g id="patch_6">
    <path d="M 57.6 41.472 
L 414.72 41.472 
" style="fill:none;stroke:#000000;stroke-linecap:square;stroke-linejoin:miter;stroke-width:0.8;"/>
   </g>
   <g id="text_18">
    <!-- diff: 0.3149615957073267 -->
    <defs>
     <path d="M 45.40625 46.390625 
L 45.40625 75.984375 
L 54.390625 75.984375 
L 54.390625 0 
L 45.40625 0 
L 45.40625 8.203125 
Q 42.578125 3.328125 38.25 0.953125 
Q 33.9375 -1.421875 27.875 -1.421875 
Q 17.96875 -1.421875 11.734375 6.484375 
Q 5.515625 14.40625 5.515625 27.296875 
Q 5.515625 40.1875 11.734375 48.09375 
Q 17.96875 56 27.875 56 
Q 33.9375 56 38.25 53.625 
Q 42.578125 51.265625 45.40625 46.390625 
z
M 14.796875 27.296875 
Q 14.796875 17.390625 18.875 11.75 
Q 22.953125 6.109375 30.078125 6.109375 
Q 37.203125 6.109375 41.296875 11.75 
Q 45.40625 17.390625 45.40625 27.296875 
Q 45.40625 37.203125 41.296875 42.84375 
Q 37.203125 48.484375 30.078125 48.484375 
Q 22.953125 48.484375 18.875 42.84375 
Q 14.796875 37.203125 14.796875 27.296875 
z
" id="DejaVuSans-100"/>
     <path d="M 9.421875 54.6875 
L 18.40625 54.6875 
L 18.40625 0 
L 9.421875 0 
z
M 9.421875 75.984375 
L 18.40625 75.984375 
L 18.40625 64.59375 
L 9.421875 64.59375 
z
" id="DejaVuSans-105"/>
     <path d="M 37.109375 75.984375 
L 37.109375 68.5 
L 28.515625 68.5 
Q 23.6875 68.5 21.796875 66.546875 
Q 19.921875 64.59375 19.921875 59.515625 
L 19.921875 54.6875 
L 34.71875 54.6875 
L 34.71875 47.703125 
L 19.921875 47.703125 
L 19.921875 0 
L 10.890625 0 
L 10.890625 47.703125 
L 2.296875 47.703125 
L 2.296875 54.6875 
L 10.890625 54.6875 
L 10.890625 58.5 
Q 10.890625 67.625 15.140625 71.796875 
Q 19.390625 75.984375 28.609375 75.984375 
z
" id="DejaVuSans-102"/>
     <path d="M 11.71875 12.40625 
L 22.015625 12.40625 
L 22.015625 0 
L 11.71875 0 
z
M 11.71875 51.703125 
L 22.015625 51.703125 
L 22.015625 39.3125 
L 11.71875 39.3125 
z
" id="DejaVuSans-58"/>
     <path id="DejaVuSans-32"/>
     <path d="M 10.984375 1.515625 
L 10.984375 10.5 
Q 14.703125 8.734375 18.5 7.8125 
Q 22.3125 6.890625 25.984375 6.890625 
Q 35.75 6.890625 40.890625 13.453125 
Q 46.046875 20.015625 46.78125 33.40625 
Q 43.953125 29.203125 39.59375 26.953125 
Q 35.25 24.703125 29.984375 24.703125 
Q 19.046875 24.703125 12.671875 31.3125 
Q 6.296875 37.9375 6.296875 49.421875 
Q 6.296875 60.640625 12.9375 67.421875 
Q 19.578125 74.21875 30.609375 74.21875 
Q 43.265625 74.21875 49.921875 64.515625 
Q 56.59375 54.828125 56.59375 36.375 
Q 56.59375 19.140625 48.40625 8.859375 
Q 40.234375 -1.421875 26.421875 -1.421875 
Q 22.703125 -1.421875 18.890625 -0.6875 
Q 15.09375 0.046875 10.984375 1.515625 
z
M 30.609375 32.421875 
Q 37.25 32.421875 41.125 36.953125 
Q 45.015625 41.5 45.015625 49.421875 
Q 45.015625 57.28125 41.125 61.84375 
Q 37.25 66.40625 30.609375 66.40625 
Q 23.96875 66.40625 20.09375 61.84375 
Q 16.21875 57.28125 16.21875 49.421875 
Q 16.21875 41.5 20.09375 36.953125 
Q 23.96875 32.421875 30.609375 32.421875 
z
" id="DejaVuSans-57"/>
    </defs>
    <g transform="translate(155.944687 35.472)scale(0.12 -0.12)">
     <use xlink:href="#DejaVuSans-100"/>
     <use x="63.476562" xlink:href="#DejaVuSans-105"/>
     <use x="91.259766" xlink:href="#DejaVuSans-102"/>
     <use x="126.464844" xlink:href="#DejaVuSans-102"/>
     <use x="158.044922" xlink:href="#DejaVuSans-58"/>
     <use x="191.736328" xlink:href="#DejaVuSans-32"/>
     <use x="223.523438" xlink:href="#DejaVuSans-48"/>
     <use x="287.146484" xlink:href="#DejaVuSans-46"/>
     <use x="318.933594" xlink:href="#DejaVuSans-51"/>
     <use x="382.556641" xlink:href="#DejaVuSans-49"/>
     <use x="446.179688" xlink:href="#DejaVuSans-52"/>
     <use x="509.802734" xlink:href="#DejaVuSans-57"/>
     <use x="573.425781" xlink:href="#DejaVuSans-54"/>
     <use x="637.048828" xlink:href="#DejaVuSans-49"/>
     <use x="700.671875" xlink:href="#DejaVuSans-53"/>
     <use x="764.294922" xlink:href="#DejaVuSans-57"/>
     <use x="827.917969" xlink:href="#DejaVuSans-53"/>
     <use x="891.541016" xlink:href="#DejaVuSans-55"/>
     <use x="955.164062" xlink:href="#DejaVuSans-48"/>
     <use x="1018.787109" xlink:href="#DejaVuSans-55"/>
     <use x="1082.410156" xlink:href="#DejaVuSans-51"/>
     <use x="1146.033203" xlink:href="#DejaVuSans-50"/>
     <use x="1209.65625" xlink:href="#DejaVuSans-54"/>
     <use x="1273.279297" xlink:href="#DejaVuSans-55"/>
    </g>
   </g>
   <g id="legend_1">
    <g id="patch_7">
     <path d="M 300.448125 108.1845 
L 407.72 108.1845 
Q 409.72 108.1845 409.72 106.1845 
L 409.72 48.472 
Q 409.72 46.472 407.72 46.472 
L 300.448125 46.472 
Q 298.448125 46.472 298.448125 48.472 
L 298.448125 106.1845 
Q 298.448125 108.1845 300.448125 108.1845 
z
" style="fill:#ffffff;opacity:0.8;stroke:#cccccc;stroke-linejoin:miter;"/>
    </g>
    <g id="line2d_22">
     <path d="M 302.448125 54.570438 
L 322.448125 54.570438 
" style="fill:none;stroke:#ff7f0e;stroke-linecap:square;stroke-width:1.5;"/>
    </g>
    <g id="line2d_23"/>
    <g id="text_19">
     <!-- resolution: 100 -->
     <defs>
      <path d="M 41.109375 46.296875 
Q 39.59375 47.171875 37.8125 47.578125 
Q 36.03125 48 33.890625 48 
Q 26.265625 48 22.1875 43.046875 
Q 18.109375 38.09375 18.109375 28.8125 
L 18.109375 0 
L 9.078125 0 
L 9.078125 54.6875 
L 18.109375 54.6875 
L 18.109375 46.1875 
Q 20.953125 51.171875 25.484375 53.578125 
Q 30.03125 56 36.53125 56 
Q 37.453125 56 38.578125 55.875 
Q 39.703125 55.765625 41.0625 55.515625 
z
" id="DejaVuSans-114"/>
      <path d="M 56.203125 29.59375 
L 56.203125 25.203125 
L 14.890625 25.203125 
Q 15.484375 15.921875 20.484375 11.0625 
Q 25.484375 6.203125 34.421875 6.203125 
Q 39.59375 6.203125 44.453125 7.46875 
Q 49.3125 8.734375 54.109375 11.28125 
L 54.109375 2.78125 
Q 49.265625 0.734375 44.1875 -0.34375 
Q 39.109375 -1.421875 33.890625 -1.421875 
Q 20.796875 -1.421875 13.15625 6.1875 
Q 5.515625 13.8125 5.515625 26.8125 
Q 5.515625 40.234375 12.765625 48.109375 
Q 20.015625 56 32.328125 56 
Q 43.359375 56 49.78125 48.890625 
Q 56.203125 41.796875 56.203125 29.59375 
z
M 47.21875 32.234375 
Q 47.125 39.59375 43.09375 43.984375 
Q 39.0625 48.390625 32.421875 48.390625 
Q 24.90625 48.390625 20.390625 44.140625 
Q 15.875 39.890625 15.1875 32.171875 
z
" id="DejaVuSans-101"/>
      <path d="M 44.28125 53.078125 
L 44.28125 44.578125 
Q 40.484375 46.53125 36.375 47.5 
Q 32.28125 48.484375 27.875 48.484375 
Q 21.1875 48.484375 17.84375 46.4375 
Q 14.5 44.390625 14.5 40.28125 
Q 14.5 37.15625 16.890625 35.375 
Q 19.28125 33.59375 26.515625 31.984375 
L 29.59375 31.296875 
Q 39.15625 29.25 43.1875 25.515625 
Q 47.21875 21.78125 47.21875 15.09375 
Q 47.21875 7.46875 41.1875 3.015625 
Q 35.15625 -1.421875 24.609375 -1.421875 
Q 20.21875 -1.421875 15.453125 -0.5625 
Q 10.6875 0.296875 5.421875 2 
L 5.421875 11.28125 
Q 10.40625 8.6875 15.234375 7.390625 
Q 20.0625 6.109375 24.8125 6.109375 
Q 31.15625 6.109375 34.5625 8.28125 
Q 37.984375 10.453125 37.984375 14.40625 
Q 37.984375 18.0625 35.515625 20.015625 
Q 33.0625 21.96875 24.703125 23.78125 
L 21.578125 24.515625 
Q 13.234375 26.265625 9.515625 29.90625 
Q 5.8125 33.546875 5.8125 39.890625 
Q 5.8125 47.609375 11.28125 51.796875 
Q 16.75 56 26.8125 56 
Q 31.78125 56 36.171875 55.265625 
Q 40.578125 54.546875 44.28125 53.078125 
z
" id="DejaVuSans-115"/>
      <path d="M 30.609375 48.390625 
Q 23.390625 48.390625 19.1875 42.75 
Q 14.984375 37.109375 14.984375 27.296875 
Q 14.984375 17.484375 19.15625 11.84375 
Q 23.34375 6.203125 30.609375 6.203125 
Q 37.796875 6.203125 41.984375 11.859375 
Q 46.1875 17.53125 46.1875 27.296875 
Q 46.1875 37.015625 41.984375 42.703125 
Q 37.796875 48.390625 30.609375 48.390625 
z
M 30.609375 56 
Q 42.328125 56 49.015625 48.375 
Q 55.71875 40.765625 55.71875 27.296875 
Q 55.71875 13.875 49.015625 6.21875 
Q 42.328125 -1.421875 30.609375 -1.421875 
Q 18.84375 -1.421875 12.171875 6.21875 
Q 5.515625 13.875 5.515625 27.296875 
Q 5.515625 40.765625 12.171875 48.375 
Q 18.84375 56 30.609375 56 
z
" id="DejaVuSans-111"/>
      <path d="M 9.421875 75.984375 
L 18.40625 75.984375 
L 18.40625 0 
L 9.421875 0 
z
" id="DejaVuSans-108"/>
      <path d="M 8.5 21.578125 
L 8.5 54.6875 
L 17.484375 54.6875 
L 17.484375 21.921875 
Q 17.484375 14.15625 20.5 10.265625 
Q 23.53125 6.390625 29.59375 6.390625 
Q 36.859375 6.390625 41.078125 11.03125 
Q 45.3125 15.671875 45.3125 23.6875 
L 45.3125 54.6875 
L 54.296875 54.6875 
L 54.296875 0 
L 45.3125 0 
L 45.3125 8.40625 
Q 42.046875 3.421875 37.71875 1 
Q 33.40625 -1.421875 27.6875 -1.421875 
Q 18.265625 -1.421875 13.375 4.4375 
Q 8.5 10.296875 8.5 21.578125 
z
M 31.109375 56 
z
" id="DejaVuSans-117"/>
      <path d="M 18.3125 70.21875 
L 18.3125 54.6875 
L 36.8125 54.6875 
L 36.8125 47.703125 
L 18.3125 47.703125 
L 18.3125 18.015625 
Q 18.3125 11.328125 20.140625 9.421875 
Q 21.96875 7.515625 27.59375 7.515625 
L 36.8125 7.515625 
L 36.8125 0 
L 27.59375 0 
Q 17.1875 0 13.234375 3.875 
Q 9.28125 7.765625 9.28125 18.015625 
L 9.28125 47.703125 
L 2.6875 47.703125 
L 2.6875 54.6875 
L 9.28125 54.6875 
L 9.28125 70.21875 
z
" id="DejaVuSans-116"/>
      <path d="M 54.890625 33.015625 
L 54.890625 0 
L 45.90625 0 
L 45.90625 32.71875 
Q 45.90625 40.484375 42.875 44.328125 
Q 39.84375 48.1875 33.796875 48.1875 
Q 26.515625 48.1875 22.3125 43.546875 
Q 18.109375 38.921875 18.109375 30.90625 
L 18.109375 0 
L 9.078125 0 
L 9.078125 54.6875 
L 18.109375 54.6875 
L 18.109375 46.1875 
Q 21.34375 51.125 25.703125 53.5625 
Q 30.078125 56 35.796875 56 
Q 45.21875 56 50.046875 50.171875 
Q 54.890625 44.34375 54.890625 33.015625 
z
" id="DejaVuSans-110"/>
     </defs>
     <g transform="translate(330.448125 58.070438)scale(0.1 -0.1)">
      <use xlink:href="#DejaVuSans-114"/>
      <use x="38.863281" xlink:href="#DejaVuSans-101"/>
      <use x="100.386719" xlink:href="#DejaVuSans-115"/>
      <use x="152.486328" xlink:href="#DejaVuSans-111"/>
      <use x="213.667969" xlink:href="#DejaVuSans-108"/>
      <use x="241.451172" xlink:href="#DejaVuSans-117"/>
      <use x="304.830078" xlink:href="#DejaVuSans-116"/>
      <use x="344.039062" xlink:href="#DejaVuSans-105"/>
      <use x="371.822266" xlink:href="#DejaVuSans-111"/>
      <use x="433.003906" xlink:href="#DejaVuSans-110"/>
      <use x="496.382812" xlink:href="#DejaVuSans-58"/>
      <use x="530.074219" xlink:href="#DejaVuSans-32"/>
      <use x="561.861328" xlink:href="#DejaVuSans-49"/>
      <use x="625.484375" xlink:href="#DejaVuSans-48"/>
      <use x="689.107422" xlink:href="#DejaVuSans-48"/>
     </g>
    </g>
    <g id="line2d_24">
     <path d="M 302.448125 69.248563 
L 322.448125 69.248563 
" style="fill:none;stroke:#2ca02c;stroke-linecap:square;stroke-width:1.5;"/>
    </g>
    <g id="line2d_25"/>
    <g id="text_20">
     <!-- resolution: 200 -->
     <g transform="translate(330.448125 72.748563)scale(0.1 -0.1)">
      <use xlink:href="#DejaVuSans-114"/>
      <use x="38.863281" xlink:href="#DejaVuSans-101"/>
      <use x="100.386719" xlink:href="#DejaVuSans-115"/>
      <use x="152.486328" xlink:href="#DejaVuSans-111"/>
      <use x="213.667969" xlink:href="#DejaVuSans-108"/>
      <use x="241.451172" xlink:href="#DejaVuSans-117"/>
      <use x="304.830078" xlink:href="#DejaVuSans-116"/>
      <use x="344.039062" xlink:href="#DejaVuSans-105"/>
      <use x="371.822266" xlink:href="#DejaVuSans-111"/>
      <use x="433.003906" xlink:href="#DejaVuSans-110"/>
      <use x="496.382812" xlink:href="#DejaVuSans-58"/>
      <use x="530.074219" xlink:href="#DejaVuSans-32"/>
      <use x="561.861328" xlink:href="#DejaVuSans-50"/>
      <use x="625.484375" xlink:href="#DejaVuSans-48"/>
      <use x="689.107422" xlink:href="#DejaVuSans-48"/>
     </g>
    </g>
    <g id="line2d_26">
     <path d="M 302.448125 83.926688 
L 322.448125 83.926688 
" style="fill:none;stroke:#d62728;stroke-linecap:square;stroke-width:1.5;"/>
    </g>
    <g id="line2d_27"/>
    <g id="text_21">
     <!-- resolution: 300 -->
     <g transform="translate(330.448125 87.426688)scale(0.1 -0.1)">
      <use xlink:href="#DejaVuSans-114"/>
      <use x="38.863281" xlink:href="#DejaVuSans-101"/>
      <use x="100.386719" xlink:href="#DejaVuSans-115"/>
      <use x="152.486328" xlink:href="#DejaVuSans-111"/>
      <use x="213.667969" xlink:href="#DejaVuSans-108"/>
      <use x="241.451172" xlink:href="#DejaVuSans-117"/>
      <use x="304.830078" xlink:href="#DejaVuSans-116"/>
      <use x="344.039062" xlink:href="#DejaVuSans-105"/>
      <use x="371.822266" xlink:href="#DejaVuSans-111"/>
      <use x="433.003906" xlink:href="#DejaVuSans-110"/>
      <use x="496.382812" xlink:href="#DejaVuSans-58"/>
      <use x="530.074219" xlink:href="#DejaVuSans-32"/>
      <use x="561.861328" xlink:href="#DejaVuSans-51"/>
      <use x="625.484375" xlink:href="#DejaVuSans-48"/>
      <use x="689.107422" xlink:href="#DejaVuSans-48"/>
     </g>
    </g>
    <g id="line2d_28">
     <path d="M 302.448125 98.604813 
L 322.448125 98.604813 
" style="fill:none;stroke:#9467bd;stroke-linecap:square;stroke-width:1.5;"/>
    </g>
    <g id="line2d_29"/>
    <g id="text_22">
     <!-- resolution: 400 -->
     <g transform="translate(330.448125 102.104813)scale(0.1 -0.1)">
      <use xlink:href="#DejaVuSans-114"/>
      <use x="38.863281" xlink:href="#DejaVuSans-101"/>
      <use x="100.386719" xlink:href="#DejaVuSans-115"/>
      <use x="152.486328" xlink:href="#DejaVuSans-111"/>
      <use x="213.667969" xlink:href="#DejaVuSans-108"/>
      <use x="241.451172" xlink:href="#DejaVuSans-117"/>
      <use x="304.830078" xlink:href="#DejaVuSans-116"/>
      <use x="344.039062" xlink:href="#DejaVuSans-105"/>
      <use x="371.822266" xlink:href="#DejaVuSans-111"/>
      <use x="433.003906" xlink:href="#DejaVuSans-110"/>
      <use x="496.382812" xlink:href="#DejaVuSans-58"/>
      <use x="530.074219" xlink:href="#DejaVuSans-32"/>
      <use x="561.861328" xlink:href="#DejaVuSans-52"/>
      <use x="625.484375" xlink:href="#DejaVuSans-48"/>
      <use x="689.107422" xlink:href="#DejaVuSans-48"/>
     </g>
    </g>
   </g>
  </g>
 </g>
 <defs>
  <clipPath id="pc853563115">
   <rect height="266.112" width="357.12" x="57.6" y="41.472"/>
  </clipPath>
 </defs>
</svg>
