<?xml version="1.0" encoding="utf-8" standalone="no"?>
<!DOCTYPE svg PUBLIC "-//W3C//DTD SVG 1.1//EN"
  "http://www.w3.org/Graphics/SVG/1.1/DTD/svg11.dtd">
<!-- Created with matplotlib (https://matplotlib.org/) -->
<svg height="345.6pt" version="1.1" viewBox="0 0 460.8 345.6" width="460.8pt" xmlns="http://www.w3.org/2000/svg" xmlns:xlink="http://www.w3.org/1999/xlink">
 <defs>
  <style type="text/css">
*{stroke-linecap:butt;stroke-linejoin:round;}
  </style>
 </defs>
 <g id="figure_1">
  <g id="patch_1">
   <path d="M 0 345.6 
L 460.8 345.6 
L 460.8 0 
L 0 0 
z
" style="fill:#ffffff;"/>
  </g>
  <g id="axes_1">
   <g id="patch_2">
    <path d="M 57.6 307.584 
L 414.72 307.584 
L 414.72 41.472 
L 57.6 41.472 
z
" style="fill:#ffffff;"/>
   </g>
   <g id="matplotlib.axis_1">
    <g id="xtick_1">
     <g id="line2d_1">
      <defs>
       <path d="M 0 0 
L 0 3.5 
" id="m4cfb7c9742" style="stroke:#000000;stroke-width:0.8;"/>
      </defs>
      <g>
       <use style="stroke:#000000;stroke-width:0.8;" x="73.832727" xlink:href="#m4cfb7c9742" y="307.584"/>
      </g>
     </g>
     <g id="text_1">
      <!-- 0.35 -->
      <defs>
       <path d="M 31.78125 66.40625 
Q 24.171875 66.40625 20.328125 58.90625 
Q 16.5 51.421875 16.5 36.375 
Q 16.5 21.390625 20.328125 13.890625 
Q 24.171875 6.390625 31.78125 6.390625 
Q 39.453125 6.390625 43.28125 13.890625 
Q 47.125 21.390625 47.125 36.375 
Q 47.125 51.421875 43.28125 58.90625 
Q 39.453125 66.40625 31.78125 66.40625 
z
M 31.78125 74.21875 
Q 44.046875 74.21875 50.515625 64.515625 
Q 56.984375 54.828125 56.984375 36.375 
Q 56.984375 17.96875 50.515625 8.265625 
Q 44.046875 -1.421875 31.78125 -1.421875 
Q 19.53125 -1.421875 13.0625 8.265625 
Q 6.59375 17.96875 6.59375 36.375 
Q 6.59375 54.828125 13.0625 64.515625 
Q 19.53125 74.21875 31.78125 74.21875 
z
" id="DejaVuSans-48"/>
       <path d="M 10.6875 12.40625 
L 21 12.40625 
L 21 0 
L 10.6875 0 
z
" id="DejaVuSans-46"/>
       <path d="M 40.578125 39.3125 
Q 47.65625 37.796875 51.625 33 
Q 55.609375 28.21875 55.609375 21.1875 
Q 55.609375 10.40625 48.1875 4.484375 
Q 40.765625 -1.421875 27.09375 -1.421875 
Q 22.515625 -1.421875 17.65625 -0.515625 
Q 12.796875 0.390625 7.625 2.203125 
L 7.625 11.71875 
Q 11.71875 9.328125 16.59375 8.109375 
Q 21.484375 6.890625 26.8125 6.890625 
Q 36.078125 6.890625 40.9375 10.546875 
Q 45.796875 14.203125 45.796875 21.1875 
Q 45.796875 27.640625 41.28125 31.265625 
Q 36.765625 34.90625 28.71875 34.90625 
L 20.21875 34.90625 
L 20.21875 43.015625 
L 29.109375 43.015625 
Q 36.375 43.015625 40.234375 45.921875 
Q 44.09375 48.828125 44.09375 54.296875 
Q 44.09375 59.90625 40.109375 62.90625 
Q 36.140625 65.921875 28.71875 65.921875 
Q 24.65625 65.921875 20.015625 65.03125 
Q 15.375 64.15625 9.8125 62.3125 
L 9.8125 71.09375 
Q 15.4375 72.65625 20.34375 73.4375 
Q 25.25 74.21875 29.59375 74.21875 
Q 40.828125 74.21875 47.359375 69.109375 
Q 53.90625 64.015625 53.90625 55.328125 
Q 53.90625 49.265625 50.4375 45.09375 
Q 46.96875 40.921875 40.578125 39.3125 
z
" id="DejaVuSans-51"/>
       <path d="M 10.796875 72.90625 
L 49.515625 72.90625 
L 49.515625 64.59375 
L 19.828125 64.59375 
L 19.828125 46.734375 
Q 21.96875 47.46875 24.109375 47.828125 
Q 26.265625 48.1875 28.421875 48.1875 
Q 40.625 48.1875 47.75 41.5 
Q 54.890625 34.8125 54.890625 23.390625 
Q 54.890625 11.625 47.5625 5.09375 
Q 40.234375 -1.421875 26.90625 -1.421875 
Q 22.3125 -1.421875 17.546875 -0.640625 
Q 12.796875 0.140625 7.71875 1.703125 
L 7.71875 11.625 
Q 12.109375 9.234375 16.796875 8.0625 
Q 21.484375 6.890625 26.703125 6.890625 
Q 35.15625 6.890625 40.078125 11.328125 
Q 45.015625 15.765625 45.015625 23.390625 
Q 45.015625 31 40.078125 35.4375 
Q 35.15625 39.890625 26.703125 39.890625 
Q 22.75 39.890625 18.8125 39.015625 
Q 14.890625 38.140625 10.796875 36.28125 
z
" id="DejaVuSans-53"/>
      </defs>
      <g transform="translate(62.699915 322.182437)scale(0.1 -0.1)">
       <use xlink:href="#DejaVuSans-48"/>
       <use x="63.623047" xlink:href="#DejaVuSans-46"/>
       <use x="95.410156" xlink:href="#DejaVuSans-51"/>
       <use x="159.033203" xlink:href="#DejaVuSans-53"/>
      </g>
     </g>
    </g>
    <g id="xtick_2">
     <g id="line2d_2">
      <g>
       <use style="stroke:#000000;stroke-width:0.8;" x="114.414545" xlink:href="#m4cfb7c9742" y="307.584"/>
      </g>
     </g>
     <g id="text_2">
      <!-- 0.40 -->
      <defs>
       <path d="M 37.796875 64.3125 
L 12.890625 25.390625 
L 37.796875 25.390625 
z
M 35.203125 72.90625 
L 47.609375 72.90625 
L 47.609375 25.390625 
L 58.015625 25.390625 
L 58.015625 17.1875 
L 47.609375 17.1875 
L 47.609375 0 
L 37.796875 0 
L 37.796875 17.1875 
L 4.890625 17.1875 
L 4.890625 26.703125 
z
" id="DejaVuSans-52"/>
      </defs>
      <g transform="translate(103.281733 322.182437)scale(0.1 -0.1)">
       <use xlink:href="#DejaVuSans-48"/>
       <use x="63.623047" xlink:href="#DejaVuSans-46"/>
       <use x="95.410156" xlink:href="#DejaVuSans-52"/>
       <use x="159.033203" xlink:href="#DejaVuSans-48"/>
      </g>
     </g>
    </g>
    <g id="xtick_3">
     <g id="line2d_3">
      <g>
       <use style="stroke:#000000;stroke-width:0.8;" x="154.996364" xlink:href="#m4cfb7c9742" y="307.584"/>
      </g>
     </g>
     <g id="text_3">
      <!-- 0.45 -->
      <g transform="translate(143.863551 322.182437)scale(0.1 -0.1)">
       <use xlink:href="#DejaVuSans-48"/>
       <use x="63.623047" xlink:href="#DejaVuSans-46"/>
       <use x="95.410156" xlink:href="#DejaVuSans-52"/>
       <use x="159.033203" xlink:href="#DejaVuSans-53"/>
      </g>
     </g>
    </g>
    <g id="xtick_4">
     <g id="line2d_4">
      <g>
       <use style="stroke:#000000;stroke-width:0.8;" x="195.578182" xlink:href="#m4cfb7c9742" y="307.584"/>
      </g>
     </g>
     <g id="text_4">
      <!-- 0.50 -->
      <g transform="translate(184.445369 322.182437)scale(0.1 -0.1)">
       <use xlink:href="#DejaVuSans-48"/>
       <use x="63.623047" xlink:href="#DejaVuSans-46"/>
       <use x="95.410156" xlink:href="#DejaVuSans-53"/>
       <use x="159.033203" xlink:href="#DejaVuSans-48"/>
      </g>
     </g>
    </g>
    <g id="xtick_5">
     <g id="line2d_5">
      <g>
       <use style="stroke:#000000;stroke-width:0.8;" x="236.16" xlink:href="#m4cfb7c9742" y="307.584"/>
      </g>
     </g>
     <g id="text_5">
      <!-- 0.55 -->
      <g transform="translate(225.027188 322.182437)scale(0.1 -0.1)">
       <use xlink:href="#DejaVuSans-48"/>
       <use x="63.623047" xlink:href="#DejaVuSans-46"/>
       <use x="95.410156" xlink:href="#DejaVuSans-53"/>
       <use x="159.033203" xlink:href="#DejaVuSans-53"/>
      </g>
     </g>
    </g>
    <g id="xtick_6">
     <g id="line2d_6">
      <g>
       <use style="stroke:#000000;stroke-width:0.8;" x="276.741818" xlink:href="#m4cfb7c9742" y="307.584"/>
      </g>
     </g>
     <g id="text_6">
      <!-- 0.60 -->
      <defs>
       <path d="M 33.015625 40.375 
Q 26.375 40.375 22.484375 35.828125 
Q 18.609375 31.296875 18.609375 23.390625 
Q 18.609375 15.53125 22.484375 10.953125 
Q 26.375 6.390625 33.015625 6.390625 
Q 39.65625 6.390625 43.53125 10.953125 
Q 47.40625 15.53125 47.40625 23.390625 
Q 47.40625 31.296875 43.53125 35.828125 
Q 39.65625 40.375 33.015625 40.375 
z
M 52.59375 71.296875 
L 52.59375 62.3125 
Q 48.875 64.0625 45.09375 64.984375 
Q 41.3125 65.921875 37.59375 65.921875 
Q 27.828125 65.921875 22.671875 59.328125 
Q 17.53125 52.734375 16.796875 39.40625 
Q 19.671875 43.65625 24.015625 45.921875 
Q 28.375 48.1875 33.59375 48.1875 
Q 44.578125 48.1875 50.953125 41.515625 
Q 57.328125 34.859375 57.328125 23.390625 
Q 57.328125 12.15625 50.6875 5.359375 
Q 44.046875 -1.421875 33.015625 -1.421875 
Q 20.359375 -1.421875 13.671875 8.265625 
Q 6.984375 17.96875 6.984375 36.375 
Q 6.984375 53.65625 15.1875 63.9375 
Q 23.390625 74.21875 37.203125 74.21875 
Q 40.921875 74.21875 44.703125 73.484375 
Q 48.484375 72.75 52.59375 71.296875 
z
" id="DejaVuSans-54"/>
      </defs>
      <g transform="translate(265.609006 322.182437)scale(0.1 -0.1)">
       <use xlink:href="#DejaVuSans-48"/>
       <use x="63.623047" xlink:href="#DejaVuSans-46"/>
       <use x="95.410156" xlink:href="#DejaVuSans-54"/>
       <use x="159.033203" xlink:href="#DejaVuSans-48"/>
      </g>
     </g>
    </g>
    <g id="xtick_7">
     <g id="line2d_7">
      <g>
       <use style="stroke:#000000;stroke-width:0.8;" x="317.323636" xlink:href="#m4cfb7c9742" y="307.584"/>
      </g>
     </g>
     <g id="text_7">
      <!-- 0.65 -->
      <g transform="translate(306.190824 322.182437)scale(0.1 -0.1)">
       <use xlink:href="#DejaVuSans-48"/>
       <use x="63.623047" xlink:href="#DejaVuSans-46"/>
       <use x="95.410156" xlink:href="#DejaVuSans-54"/>
       <use x="159.033203" xlink:href="#DejaVuSans-53"/>
      </g>
     </g>
    </g>
    <g id="xtick_8">
     <g id="line2d_8">
      <g>
       <use style="stroke:#000000;stroke-width:0.8;" x="357.905455" xlink:href="#m4cfb7c9742" y="307.584"/>
      </g>
     </g>
     <g id="text_8">
      <!-- 0.70 -->
      <defs>
       <path d="M 8.203125 72.90625 
L 55.078125 72.90625 
L 55.078125 68.703125 
L 28.609375 0 
L 18.3125 0 
L 43.21875 64.59375 
L 8.203125 64.59375 
z
" id="DejaVuSans-55"/>
      </defs>
      <g transform="translate(346.772642 322.182437)scale(0.1 -0.1)">
       <use xlink:href="#DejaVuSans-48"/>
       <use x="63.623047" xlink:href="#DejaVuSans-46"/>
       <use x="95.410156" xlink:href="#DejaVuSans-55"/>
       <use x="159.033203" xlink:href="#DejaVuSans-48"/>
      </g>
     </g>
    </g>
    <g id="xtick_9">
     <g id="line2d_9">
      <g>
       <use style="stroke:#000000;stroke-width:0.8;" x="398.487273" xlink:href="#m4cfb7c9742" y="307.584"/>
      </g>
     </g>
     <g id="text_9">
      <!-- 0.75 -->
      <g transform="translate(387.35446 322.182437)scale(0.1 -0.1)">
       <use xlink:href="#DejaVuSans-48"/>
       <use x="63.623047" xlink:href="#DejaVuSans-46"/>
       <use x="95.410156" xlink:href="#DejaVuSans-55"/>
       <use x="159.033203" xlink:href="#DejaVuSans-53"/>
      </g>
     </g>
    </g>
   </g>
   <g id="matplotlib.axis_2">
    <g id="ytick_1">
     <g id="line2d_10">
      <defs>
       <path d="M 0 0 
L -3.5 0 
" id="m827fe04f44" style="stroke:#000000;stroke-width:0.8;"/>
      </defs>
      <g>
       <use style="stroke:#000000;stroke-width:0.8;" x="57.6" xlink:href="#m827fe04f44" y="278.274193"/>
      </g>
     </g>
     <g id="text_10">
      <!-- 0.70 -->
      <g transform="translate(28.334375 282.073412)scale(0.1 -0.1)">
       <use xlink:href="#DejaVuSans-48"/>
       <use x="63.623047" xlink:href="#DejaVuSans-46"/>
       <use x="95.410156" xlink:href="#DejaVuSans-55"/>
       <use x="159.033203" xlink:href="#DejaVuSans-48"/>
      </g>
     </g>
    </g>
    <g id="ytick_2">
     <g id="line2d_11">
      <g>
       <use style="stroke:#000000;stroke-width:0.8;" x="57.6" xlink:href="#m827fe04f44" y="238.248138"/>
      </g>
     </g>
     <g id="text_11">
      <!-- 0.72 -->
      <defs>
       <path d="M 19.1875 8.296875 
L 53.609375 8.296875 
L 53.609375 0 
L 7.328125 0 
L 7.328125 8.296875 
Q 12.9375 14.109375 22.625 23.890625 
Q 32.328125 33.6875 34.8125 36.53125 
Q 39.546875 41.84375 41.421875 45.53125 
Q 43.3125 49.21875 43.3125 52.78125 
Q 43.3125 58.59375 39.234375 62.25 
Q 35.15625 65.921875 28.609375 65.921875 
Q 23.96875 65.921875 18.8125 64.3125 
Q 13.671875 62.703125 7.8125 59.421875 
L 7.8125 69.390625 
Q 13.765625 71.78125 18.9375 73 
Q 24.125 74.21875 28.421875 74.21875 
Q 39.75 74.21875 46.484375 68.546875 
Q 53.21875 62.890625 53.21875 53.421875 
Q 53.21875 48.921875 51.53125 44.890625 
Q 49.859375 40.875 45.40625 35.40625 
Q 44.1875 33.984375 37.640625 27.21875 
Q 31.109375 20.453125 19.1875 8.296875 
z
" id="DejaVuSans-50"/>
      </defs>
      <g transform="translate(28.334375 242.047357)scale(0.1 -0.1)">
       <use xlink:href="#DejaVuSans-48"/>
       <use x="63.623047" xlink:href="#DejaVuSans-46"/>
       <use x="95.410156" xlink:href="#DejaVuSans-55"/>
       <use x="159.033203" xlink:href="#DejaVuSans-50"/>
      </g>
     </g>
    </g>
    <g id="ytick_3">
     <g id="line2d_12">
      <g>
       <use style="stroke:#000000;stroke-width:0.8;" x="57.6" xlink:href="#m827fe04f44" y="198.222083"/>
      </g>
     </g>
     <g id="text_12">
      <!-- 0.74 -->
      <g transform="translate(28.334375 202.021301)scale(0.1 -0.1)">
       <use xlink:href="#DejaVuSans-48"/>
       <use x="63.623047" xlink:href="#DejaVuSans-46"/>
       <use x="95.410156" xlink:href="#DejaVuSans-55"/>
       <use x="159.033203" xlink:href="#DejaVuSans-52"/>
      </g>
     </g>
    </g>
    <g id="ytick_4">
     <g id="line2d_13">
      <g>
       <use style="stroke:#000000;stroke-width:0.8;" x="57.6" xlink:href="#m827fe04f44" y="158.196027"/>
      </g>
     </g>
     <g id="text_13">
      <!-- 0.76 -->
      <g transform="translate(28.334375 161.995246)scale(0.1 -0.1)">
       <use xlink:href="#DejaVuSans-48"/>
       <use x="63.623047" xlink:href="#DejaVuSans-46"/>
       <use x="95.410156" xlink:href="#DejaVuSans-55"/>
       <use x="159.033203" xlink:href="#DejaVuSans-54"/>
      </g>
     </g>
    </g>
    <g id="ytick_5">
     <g id="line2d_14">
      <g>
       <use style="stroke:#000000;stroke-width:0.8;" x="57.6" xlink:href="#m827fe04f44" y="118.169972"/>
      </g>
     </g>
     <g id="text_14">
      <!-- 0.78 -->
      <defs>
       <path d="M 31.78125 34.625 
Q 24.75 34.625 20.71875 30.859375 
Q 16.703125 27.09375 16.703125 20.515625 
Q 16.703125 13.921875 20.71875 10.15625 
Q 24.75 6.390625 31.78125 6.390625 
Q 38.8125 6.390625 42.859375 10.171875 
Q 46.921875 13.96875 46.921875 20.515625 
Q 46.921875 27.09375 42.890625 30.859375 
Q 38.875 34.625 31.78125 34.625 
z
M 21.921875 38.8125 
Q 15.578125 40.375 12.03125 44.71875 
Q 8.5 49.078125 8.5 55.328125 
Q 8.5 64.0625 14.71875 69.140625 
Q 20.953125 74.21875 31.78125 74.21875 
Q 42.671875 74.21875 48.875 69.140625 
Q 55.078125 64.0625 55.078125 55.328125 
Q 55.078125 49.078125 51.53125 44.71875 
Q 48 40.375 41.703125 38.8125 
Q 48.828125 37.15625 52.796875 32.3125 
Q 56.78125 27.484375 56.78125 20.515625 
Q 56.78125 9.90625 50.3125 4.234375 
Q 43.84375 -1.421875 31.78125 -1.421875 
Q 19.734375 -1.421875 13.25 4.234375 
Q 6.78125 9.90625 6.78125 20.515625 
Q 6.78125 27.484375 10.78125 32.3125 
Q 14.796875 37.15625 21.921875 38.8125 
z
M 18.3125 54.390625 
Q 18.3125 48.734375 21.84375 45.5625 
Q 25.390625 42.390625 31.78125 42.390625 
Q 38.140625 42.390625 41.71875 45.5625 
Q 45.3125 48.734375 45.3125 54.390625 
Q 45.3125 60.0625 41.71875 63.234375 
Q 38.140625 66.40625 31.78125 66.40625 
Q 25.390625 66.40625 21.84375 63.234375 
Q 18.3125 60.0625 18.3125 54.390625 
z
" id="DejaVuSans-56"/>
      </defs>
      <g transform="translate(28.334375 121.96919)scale(0.1 -0.1)">
       <use xlink:href="#DejaVuSans-48"/>
       <use x="63.623047" xlink:href="#DejaVuSans-46"/>
       <use x="95.410156" xlink:href="#DejaVuSans-55"/>
       <use x="159.033203" xlink:href="#DejaVuSans-56"/>
      </g>
     </g>
    </g>
    <g id="ytick_6">
     <g id="line2d_15">
      <g>
       <use style="stroke:#000000;stroke-width:0.8;" x="57.6" xlink:href="#m827fe04f44" y="78.143916"/>
      </g>
     </g>
     <g id="text_15">
      <!-- 0.80 -->
      <g transform="translate(28.334375 81.943135)scale(0.1 -0.1)">
       <use xlink:href="#DejaVuSans-48"/>
       <use x="63.623047" xlink:href="#DejaVuSans-46"/>
       <use x="95.410156" xlink:href="#DejaVuSans-56"/>
       <use x="159.033203" xlink:href="#DejaVuSans-48"/>
      </g>
     </g>
    </g>
   </g>
   <g id="line2d_16">
    <path clip-path="url(#pc7166111d8)" d="M 398.487273 295.488 
L 391.540314 286.609851 
L 384.750127 279.438008 
L 378.111464 273.188578 
L 371.61931 267.612352 
L 365.268868 262.596153 
L 359.055547 258.047261 
L 352.974953 253.823716 
L 347.02288 249.716617 
L 341.195294 245.526955 
L 335.488331 241.134413 
L 329.898284 236.529897 
L 324.421597 231.78258 
L 319.054856 226.99866 
L 313.794783 222.300061 
L 308.638229 217.814799 
L 303.582168 213.658593 
L 298.623691 209.873618 
L 293.76 206.350717 
L 288.988402 202.840631 
L 284.306307 199.108144 
L 279.71122 195.073014 
L 275.200736 190.799577 
L 270.772543 186.411071 
L 266.424407 182.032173 
L 262.154177 177.778919 
L 257.959778 173.773554 
L 253.839208 170.159493 
L 249.790534 167.071659 
L 245.811892 164.505653 
L 241.901479 162.205942 
L 238.057556 159.870291 
L 234.27844 157.439318 
L 230.562508 155.038833 
L 226.908187 152.801481 
L 223.313957 150.80353 
L 219.778349 149.074643 
L 216.299939 147.631847 
L 212.877352 146.621601 
L 209.509254 146.865836 
L 206.194353 148.140268 
L 202.931401 148.590656 
L 199.719184 149.064872 
L 196.556528 149.974906 
L 193.442297 151.373907 
L 190.375385 153.260574 
L 187.354722 155.623569 
L 184.37927 158.444319 
L 181.448022 161.694788 
L 178.56 165.335131 
L 175.714254 169.311935 
L 172.909864 173.558395 
L 170.145933 177.998189 
L 167.421594 182.554015 
L 164.736 187.159238 
L 162.088332 191.767468 
L 159.477791 196.354907 
L 156.903603 200.914463 
L 154.365013 205.445891 
L 151.861288 209.947632 
L 149.391714 214.412803 
L 146.955597 218.828637 
L 144.552262 223.176517 
L 142.181053 227.429704 
L 139.841328 231.546395 
L 137.532465 235.457479 
L 135.253857 239.0542 
L 133.004915 242.190756 
L 130.785061 244.72229 
L 128.593735 246.575417 
L 126.430391 247.800351 
L 124.294496 248.550649 
L 122.185532 249.008465 
L 120.102991 249.322727 
L 118.046381 249.593187 
L 116.01522 249.88626 
L 114.009039 250.26067 
L 112.02738 250.793779 
L 110.069795 251.609339 
L 108.135849 252.887713 
L 106.225116 254.690358 
L 104.337181 256.101386 
L 102.471638 255.22084 
L 100.628091 253.004714 
L 98.806154 251.42493 
L 97.005448 250.673565 
L 95.225605 250.444372 
L 93.466263 250.52536 
L 91.727072 250.806313 
L 90.007687 251.230519 
L 88.307771 251.767379 
L 86.626995 252.399579 
L 84.965038 253.116587 
L 83.321587 253.912314 
L 81.696332 254.782689 
L 80.088975 255.725193 
L 78.49922 256.738101 
L 76.92678 257.819433 
L 75.371374 258.968029 
L 73.832727 260.18149 
" style="fill:none;stroke:#ff7f0e;stroke-linecap:square;stroke-width:1.5;"/>
   </g>
   <g id="line2d_17">
    <path clip-path="url(#pc7166111d8)" d="M 398.487273 254.983202 
L 391.540314 246.538923 
L 384.750127 239.768238 
L 378.111464 233.996801 
L 371.61931 228.913289 
L 365.268868 224.264929 
L 359.055547 219.773191 
L 352.974953 215.205102 
L 347.02288 210.437605 
L 341.195294 205.480494 
L 335.488331 200.425017 
L 329.898284 195.391225 
L 324.421597 190.500804 
L 319.054856 185.864538 
L 313.794783 181.56719 
L 308.638229 177.625413 
L 303.582168 173.940192 
L 298.623691 170.306632 
L 293.76 166.517679 
L 288.988402 162.475037 
L 284.306307 158.204261 
L 279.71122 153.79847 
L 275.200736 149.364715 
L 270.772543 145.002876 
L 266.424407 140.807248 
L 262.154177 136.876759 
L 257.959778 133.319761 
L 253.839208 130.227083 
L 249.790534 127.587024 
L 245.811892 125.212131 
L 241.901479 122.857412 
L 238.057556 120.43795 
L 234.27844 118.037186 
L 230.562508 115.773672 
L 226.908187 113.728272 
L 223.313957 111.942829 
L 219.778349 110.441554 
L 216.299939 109.272807 
L 212.877352 108.679804 
L 209.509254 109.387617 
L 206.194353 110.510289 
L 202.931401 111.012623 
L 199.719184 111.752748 
L 196.556528 112.989111 
L 193.442297 114.730862 
L 190.375385 116.953155 
L 187.354722 119.624225 
L 184.37927 122.705789 
L 181.448022 126.151664 
L 178.56 129.908336 
L 175.714254 133.918277 
L 172.909864 138.125645 
L 170.145933 142.482598 
L 167.421594 146.953315 
L 164.736 151.513857 
L 162.088332 156.148154 
L 159.477791 160.842556 
L 156.903603 165.58152 
L 154.365013 170.345511 
L 151.861288 175.110802 
L 149.391714 179.849786 
L 146.955597 184.530348 
L 144.552262 189.112876 
L 142.181053 193.543906 
L 139.841328 197.747293 
L 137.532465 201.617647 
L 135.253857 205.027005 
L 133.004915 207.856071 
L 130.785061 210.044586 
L 128.593735 211.627613 
L 126.430391 212.72376 
L 124.294496 213.484054 
L 122.185532 214.043037 
L 120.102991 214.499163 
L 118.046381 214.920786 
L 116.01522 215.362849 
L 114.009039 215.885624 
L 112.02738 216.574088 
L 110.069795 217.556113 
L 108.135849 218.981033 
L 106.225116 220.746187 
L 104.337181 221.689147 
L 102.471638 220.41314 
L 100.628091 218.30167 
L 98.806154 216.888868 
L 97.005448 216.224452 
L 95.225605 216.029597 
L 93.466263 216.118291 
L 91.727072 216.394034 
L 90.007687 216.808505 
L 88.307771 217.337094 
L 86.626995 217.967121 
L 84.965038 218.691501 
L 83.321587 219.506113 
L 81.696332 220.407955 
L 80.088975 221.394251 
L 78.49922 222.46242 
L 76.92678 223.609001 
L 75.371374 224.830451 
L 73.832727 226.121986 
" style="fill:none;stroke:#2ca02c;stroke-linecap:square;stroke-width:1.5;"/>
   </g>
   <g id="line2d_18">
    <path clip-path="url(#pc7166111d8)" d="M 398.487273 246.280235 
L 391.540314 238.402229 
L 384.750127 232.073115 
L 378.111464 226.561315 
L 371.61931 221.37994 
L 365.268868 216.208485 
L 359.055547 210.892378 
L 352.974953 205.43123 
L 347.02288 199.910759 
L 341.195294 194.439634 
L 335.488331 189.123533 
L 329.898284 184.052579 
L 324.421597 179.293915 
L 319.054856 174.864642 
L 313.794783 170.697808 
L 308.638229 166.639666 
L 303.582168 162.512421 
L 298.623691 158.204652 
L 293.76 153.706352 
L 288.988402 149.07915 
L 284.306307 144.409823 
L 279.71122 139.782942 
L 275.200736 135.27407 
L 270.772543 130.953505 
L 266.424407 126.893782 
L 262.154177 123.171624 
L 257.959778 119.84896 
L 253.839208 116.917393 
L 249.790534 114.248664 
L 245.811892 111.661083 
L 241.901479 109.067378 
L 238.057556 106.509754 
L 234.27844 104.079925 
L 230.562508 101.85688 
L 226.908187 99.894677 
L 223.313957 98.230694 
L 219.778349 96.898922 
L 216.299939 95.967794 
L 212.877352 95.704262 
L 209.509254 96.556104 
L 206.194353 97.551153 
L 202.931401 98.355705 
L 199.719184 99.499251 
L 196.556528 101.107864 
L 193.442297 103.17423 
L 190.375385 105.66912 
L 187.354722 108.558079 
L 184.37927 111.80392 
L 181.448022 115.368694 
L 178.56 119.216347 
L 175.714254 123.315217 
L 172.909864 127.638973 
L 170.145933 132.16541 
L 167.421594 136.873736 
L 164.736 141.741552 
L 162.088332 146.742805 
L 159.477791 151.847024 
L 156.903603 157.019593 
L 154.365013 162.222409 
L 151.861288 167.414058 
L 149.391714 172.548917 
L 146.955597 177.574434 
L 144.552262 182.426664 
L 142.181053 187.02544 
L 139.841328 191.273434 
L 137.532465 195.06615 
L 135.253857 198.317119 
L 133.004915 200.99047 
L 130.785061 203.11903 
L 128.593735 204.791536 
L 126.430391 206.11809 
L 124.294496 207.198695 
L 122.185532 208.110147 
L 120.102991 208.908943 
L 118.046381 209.641443 
L 116.01522 210.355391 
L 114.009039 211.111297 
L 112.02738 211.993814 
L 110.069795 213.113238 
L 108.135849 214.534216 
L 106.225116 215.927348 
L 104.337181 216.140359 
L 102.471638 214.726429 
L 100.628091 213.115448 
L 98.806154 212.147822 
L 97.005448 211.747381 
L 95.225605 211.707916 
L 93.466263 211.899965 
L 91.727072 212.2565 
L 90.007687 212.744095 
L 88.307771 213.345847 
L 86.626995 214.052699 
L 84.965038 214.859462 
L 83.321587 215.762255 
L 81.696332 216.757901 
L 80.088975 217.843013 
L 78.49922 219.013724 
L 76.92678 220.265831 
L 75.371374 221.593704 
L 73.832727 222.991147 
" style="fill:none;stroke:#d62728;stroke-linecap:square;stroke-width:1.5;"/>
   </g>
   <g id="line2d_19">
    <path clip-path="url(#pc7166111d8)" d="M 398.487273 213.374157 
L 391.540314 204.561343 
L 384.750127 197.30066 
L 378.111464 191.009263 
L 371.61931 185.464834 
L 365.268868 180.452291 
L 359.055547 175.707308 
L 352.974953 170.959583 
L 347.02288 166.03688 
L 341.195294 160.916266 
L 335.488331 155.669773 
L 329.898284 150.409308 
L 324.421597 145.246498 
L 319.054856 140.281007 
L 313.794783 135.587946 
L 308.638229 131.190752 
L 303.582168 127.032183 
L 298.623691 122.976794 
L 293.76 118.880528 
L 288.988402 114.67203 
L 284.306307 110.370238 
L 279.71122 106.043161 
L 275.200736 101.764982 
L 270.772543 97.600838 
L 266.424407 93.609815 
L 262.154177 89.855073 
L 257.959778 86.410016 
L 253.839208 83.347297 
L 249.790534 80.690533 
L 245.811892 78.346811 
L 241.901479 76.142081 
L 238.057556 73.98428 
L 234.27844 71.922456 
L 230.562508 70.052621 
L 226.908187 68.443496 
L 223.313957 67.128948 
L 219.778349 66.125163 
L 216.299939 65.458297 
L 212.877352 65.258658 
L 209.509254 66.009978 
L 206.194353 67.34353 
L 202.931401 68.290025 
L 199.719184 69.490682 
L 196.556528 71.165306 
L 193.442297 73.316813 
L 190.375385 75.922375 
L 187.354722 78.954496 
L 184.37927 82.380437 
L 181.448022 86.160521 
L 178.56 90.248045 
L 175.714254 94.591238 
L 172.909864 99.137322 
L 170.145933 103.837715 
L 167.421594 108.65215 
L 164.736 113.549977 
L 162.088332 118.508006 
L 159.477791 123.506451 
L 156.903603 128.52511 
L 154.365013 133.541058 
L 151.861288 138.52817 
L 149.391714 143.457431 
L 146.955597 148.297063 
L 144.552262 153.011162 
L 142.181053 157.55583 
L 139.841328 161.872703 
L 137.532465 165.881841 
L 135.253857 169.481055 
L 133.004915 172.562325 
L 130.785061 175.049781 
L 128.593735 176.941081 
L 126.430391 178.317189 
L 124.294496 179.308592 
L 122.185532 180.046499 
L 120.102991 180.633732 
L 118.046381 181.142536 
L 116.01522 181.627187 
L 114.009039 182.14052 
L 112.02738 182.750616 
L 110.069795 183.557673 
L 108.135849 184.692478 
L 106.225116 186.165922 
L 104.337181 187.240161 
L 102.471638 186.516416 
L 100.628091 184.781038 
L 98.806154 183.589381 
L 97.005448 183.090969 
L 95.225605 183.029411 
L 93.466263 183.229572 
L 91.727072 183.6035 
L 90.007687 184.108793 
L 88.307771 184.724677 
L 86.626995 185.440924 
L 84.965038 186.25181 
L 83.321587 187.154192 
L 81.696332 188.14543 
L 80.088975 189.222986 
L 78.49922 190.384344 
L 76.92678 191.625758 
L 75.371374 192.943814 
L 73.832727 194.333331 
" style="fill:none;stroke:#9467bd;stroke-linecap:square;stroke-width:1.5;"/>
   </g>
   <g id="line2d_20">
    <path clip-path="url(#pc7166111d8)" d="M 398.487273 203.021261 
L 391.540314 194.62017 
L 384.750127 187.782408 
L 378.111464 181.843495 
L 371.61931 176.369145 
L 365.268868 171.030552 
L 359.055547 165.623597 
L 352.974953 160.099371 
L 347.02288 154.502304 
L 341.195294 148.9175 
L 335.488331 143.432774 
L 329.898284 138.125912 
L 324.421597 133.059821 
L 319.054856 128.26663 
L 313.794783 123.727554 
L 308.638229 119.35805 
L 303.582168 115.033689 
L 298.623691 110.652741 
L 293.76 106.182978 
L 288.988402 101.656949 
L 284.306307 97.136774 
L 279.71122 92.68758 
L 275.200736 88.3681 
L 270.772543 84.232232 
L 266.424407 80.33396 
L 262.154177 76.730497 
L 257.959778 73.477234 
L 253.839208 70.600411 
L 249.790534 68.050495 
L 245.811892 65.701459 
L 241.901479 63.449904 
L 238.057556 61.295534 
L 234.27844 59.304003 
L 230.562508 57.542576 
L 226.908187 56.057996 
L 223.313957 54.881229 
L 219.778349 54.037778 
L 216.299939 53.568 
L 212.877352 53.617683 
L 209.509254 54.553398 
L 206.194353 55.854067 
L 202.931401 57.052195 
L 199.719184 58.582367 
L 196.556528 60.559953 
L 193.442297 62.977547 
L 190.375385 65.810015 
L 187.354722 69.027765 
L 184.37927 72.597617 
L 181.448022 76.483517 
L 178.56 80.648385 
L 175.714254 85.056677 
L 172.909864 89.676432 
L 170.145933 94.479829 
L 167.421594 99.441924 
L 164.736 104.538245 
L 162.088332 109.742427 
L 159.477791 115.02473 
L 156.903603 120.351698 
L 154.365013 125.686585 
L 151.861288 130.989955 
L 149.391714 136.219779 
L 146.955597 141.330347 
L 144.552262 146.269587 
L 142.181053 150.974882 
L 139.841328 155.369376 
L 137.532465 159.363527 
L 135.253857 162.868532 
L 133.004915 165.823292 
L 130.785061 168.222378 
L 128.593735 170.12309 
L 126.430391 171.62315 
L 124.294496 172.826219 
L 122.185532 173.818576 
L 120.102991 174.664278 
L 118.046381 175.412303 
L 116.01522 176.107344 
L 114.009039 176.800697 
L 112.02738 177.561049 
L 110.069795 178.481726 
L 108.135849 179.651311 
L 106.225116 180.93867 
L 104.337181 181.495104 
L 102.471638 180.534976 
L 100.628091 179.142901 
L 98.806154 178.307807 
L 97.005448 178.020918 
L 95.225605 178.081119 
L 93.466263 178.361102 
L 91.727072 178.797388 
L 90.007687 179.359757 
L 88.307771 180.033611 
L 86.626995 180.811607 
L 84.965038 181.689524 
L 83.321587 182.664234 
L 81.696332 183.732926 
L 80.088975 184.892325 
L 78.49922 186.138818 
L 76.92678 187.468022 
L 75.371374 188.87472 
L 73.832727 190.352913 
" style="fill:none;stroke:#8c564b;stroke-linecap:square;stroke-width:1.5;"/>
   </g>
   <g id="patch_3">
    <path d="M 57.6 307.584 
L 57.6 41.472 
" style="fill:none;stroke:#000000;stroke-linecap:square;stroke-linejoin:miter;stroke-width:0.8;"/>
   </g>
   <g id="patch_4">
    <path d="M 414.72 307.584 
L 414.72 41.472 
" style="fill:none;stroke:#000000;stroke-linecap:square;stroke-linejoin:miter;stroke-width:0.8;"/>
   </g>
   <g id="patch_5">
    <path d="M 57.6 307.584 
L 414.72 307.584 
" style="fill:none;stroke:#000000;stroke-linecap:square;stroke-linejoin:miter;stroke-width:0.8;"/>
   </g>
   <g id="patch_6">
    <path d="M 57.6 41.472 
L 414.72 41.472 
" style="fill:none;stroke:#000000;stroke-linecap:square;stroke-linejoin:miter;stroke-width:0.8;"/>
   </g>
   <g id="text_16">
    <!-- diff: 0.009281452578333793 -->
    <defs>
     <path d="M 45.40625 46.390625 
L 45.40625 75.984375 
L 54.390625 75.984375 
L 54.390625 0 
L 45.40625 0 
L 45.40625 8.203125 
Q 42.578125 3.328125 38.25 0.953125 
Q 33.9375 -1.421875 27.875 -1.421875 
Q 17.96875 -1.421875 11.734375 6.484375 
Q 5.515625 14.40625 5.515625 27.296875 
Q 5.515625 40.1875 11.734375 48.09375 
Q 17.96875 56 27.875 56 
Q 33.9375 56 38.25 53.625 
Q 42.578125 51.265625 45.40625 46.390625 
z
M 14.796875 27.296875 
Q 14.796875 17.390625 18.875 11.75 
Q 22.953125 6.109375 30.078125 6.109375 
Q 37.203125 6.109375 41.296875 11.75 
Q 45.40625 17.390625 45.40625 27.296875 
Q 45.40625 37.203125 41.296875 42.84375 
Q 37.203125 48.484375 30.078125 48.484375 
Q 22.953125 48.484375 18.875 42.84375 
Q 14.796875 37.203125 14.796875 27.296875 
z
" id="DejaVuSans-100"/>
     <path d="M 9.421875 54.6875 
L 18.40625 54.6875 
L 18.40625 0 
L 9.421875 0 
z
M 9.421875 75.984375 
L 18.40625 75.984375 
L 18.40625 64.59375 
L 9.421875 64.59375 
z
" id="DejaVuSans-105"/>
     <path d="M 37.109375 75.984375 
L 37.109375 68.5 
L 28.515625 68.5 
Q 23.6875 68.5 21.796875 66.546875 
Q 19.921875 64.59375 19.921875 59.515625 
L 19.921875 54.6875 
L 34.71875 54.6875 
L 34.71875 47.703125 
L 19.921875 47.703125 
L 19.921875 0 
L 10.890625 0 
L 10.890625 47.703125 
L 2.296875 47.703125 
L 2.296875 54.6875 
L 10.890625 54.6875 
L 10.890625 58.5 
Q 10.890625 67.625 15.140625 71.796875 
Q 19.390625 75.984375 28.609375 75.984375 
z
" id="DejaVuSans-102"/>
     <path d="M 11.71875 12.40625 
L 22.015625 12.40625 
L 22.015625 0 
L 11.71875 0 
z
M 11.71875 51.703125 
L 22.015625 51.703125 
L 22.015625 39.3125 
L 11.71875 39.3125 
z
" id="DejaVuSans-58"/>
     <path id="DejaVuSans-32"/>
     <path d="M 10.984375 1.515625 
L 10.984375 10.5 
Q 14.703125 8.734375 18.5 7.8125 
Q 22.3125 6.890625 25.984375 6.890625 
Q 35.75 6.890625 40.890625 13.453125 
Q 46.046875 20.015625 46.78125 33.40625 
Q 43.953125 29.203125 39.59375 26.953125 
Q 35.25 24.703125 29.984375 24.703125 
Q 19.046875 24.703125 12.671875 31.3125 
Q 6.296875 37.9375 6.296875 49.421875 
Q 6.296875 60.640625 12.9375 67.421875 
Q 19.578125 74.21875 30.609375 74.21875 
Q 43.265625 74.21875 49.921875 64.515625 
Q 56.59375 54.828125 56.59375 36.375 
Q 56.59375 19.140625 48.40625 8.859375 
Q 40.234375 -1.421875 26.421875 -1.421875 
Q 22.703125 -1.421875 18.890625 -0.6875 
Q 15.09375 0.046875 10.984375 1.515625 
z
M 30.609375 32.421875 
Q 37.25 32.421875 41.125 36.953125 
Q 45.015625 41.5 45.015625 49.421875 
Q 45.015625 57.28125 41.125 61.84375 
Q 37.25 66.40625 30.609375 66.40625 
Q 23.96875 66.40625 20.09375 61.84375 
Q 16.21875 57.28125 16.21875 49.421875 
Q 16.21875 41.5 20.09375 36.953125 
Q 23.96875 32.421875 30.609375 32.421875 
z
" id="DejaVuSans-57"/>
     <path d="M 12.40625 8.296875 
L 28.515625 8.296875 
L 28.515625 63.921875 
L 10.984375 60.40625 
L 10.984375 69.390625 
L 28.421875 72.90625 
L 38.28125 72.90625 
L 38.28125 8.296875 
L 54.390625 8.296875 
L 54.390625 0 
L 12.40625 0 
z
" id="DejaVuSans-49"/>
    </defs>
    <g transform="translate(148.309687 35.472)scale(0.12 -0.12)">
     <use xlink:href="#DejaVuSans-100"/>
     <use x="63.476562" xlink:href="#DejaVuSans-105"/>
     <use x="91.259766" xlink:href="#DejaVuSans-102"/>
     <use x="126.464844" xlink:href="#DejaVuSans-102"/>
     <use x="158.044922" xlink:href="#DejaVuSans-58"/>
     <use x="191.736328" xlink:href="#DejaVuSans-32"/>
     <use x="223.523438" xlink:href="#DejaVuSans-48"/>
     <use x="287.146484" xlink:href="#DejaVuSans-46"/>
     <use x="318.933594" xlink:href="#DejaVuSans-48"/>
     <use x="382.556641" xlink:href="#DejaVuSans-48"/>
     <use x="446.179688" xlink:href="#DejaVuSans-57"/>
     <use x="509.802734" xlink:href="#DejaVuSans-50"/>
     <use x="573.425781" xlink:href="#DejaVuSans-56"/>
     <use x="637.048828" xlink:href="#DejaVuSans-49"/>
     <use x="700.671875" xlink:href="#DejaVuSans-52"/>
     <use x="764.294922" xlink:href="#DejaVuSans-53"/>
     <use x="827.917969" xlink:href="#DejaVuSans-50"/>
     <use x="891.541016" xlink:href="#DejaVuSans-53"/>
     <use x="955.164062" xlink:href="#DejaVuSans-55"/>
     <use x="1018.787109" xlink:href="#DejaVuSans-56"/>
     <use x="1082.410156" xlink:href="#DejaVuSans-51"/>
     <use x="1146.033203" xlink:href="#DejaVuSans-51"/>
     <use x="1209.65625" xlink:href="#DejaVuSans-51"/>
     <use x="1273.279297" xlink:href="#DejaVuSans-55"/>
     <use x="1336.902344" xlink:href="#DejaVuSans-57"/>
     <use x="1400.525391" xlink:href="#DejaVuSans-51"/>
    </g>
   </g>
   <g id="legend_1">
    <g id="patch_7">
     <path d="M 182.524062 302.584 
L 289.795937 302.584 
Q 291.795937 302.584 291.795937 300.584 
L 291.795937 228.193375 
Q 291.795937 226.193375 289.795937 226.193375 
L 182.524062 226.193375 
Q 180.524062 226.193375 180.524062 228.193375 
L 180.524062 300.584 
Q 180.524062 302.584 182.524062 302.584 
z
" style="fill:#ffffff;opacity:0.8;stroke:#cccccc;stroke-linejoin:miter;"/>
    </g>
    <g id="line2d_21">
     <path d="M 184.524062 234.291812 
L 204.524062 234.291812 
" style="fill:none;stroke:#ff7f0e;stroke-linecap:square;stroke-width:1.5;"/>
    </g>
    <g id="line2d_22"/>
    <g id="text_17">
     <!-- resolution: 100 -->
     <defs>
      <path d="M 41.109375 46.296875 
Q 39.59375 47.171875 37.8125 47.578125 
Q 36.03125 48 33.890625 48 
Q 26.265625 48 22.1875 43.046875 
Q 18.109375 38.09375 18.109375 28.8125 
L 18.109375 0 
L 9.078125 0 
L 9.078125 54.6875 
L 18.109375 54.6875 
L 18.109375 46.1875 
Q 20.953125 51.171875 25.484375 53.578125 
Q 30.03125 56 36.53125 56 
Q 37.453125 56 38.578125 55.875 
Q 39.703125 55.765625 41.0625 55.515625 
z
" id="DejaVuSans-114"/>
      <path d="M 56.203125 29.59375 
L 56.203125 25.203125 
L 14.890625 25.203125 
Q 15.484375 15.921875 20.484375 11.0625 
Q 25.484375 6.203125 34.421875 6.203125 
Q 39.59375 6.203125 44.453125 7.46875 
Q 49.3125 8.734375 54.109375 11.28125 
L 54.109375 2.78125 
Q 49.265625 0.734375 44.1875 -0.34375 
Q 39.109375 -1.421875 33.890625 -1.421875 
Q 20.796875 -1.421875 13.15625 6.1875 
Q 5.515625 13.8125 5.515625 26.8125 
Q 5.515625 40.234375 12.765625 48.109375 
Q 20.015625 56 32.328125 56 
Q 43.359375 56 49.78125 48.890625 
Q 56.203125 41.796875 56.203125 29.59375 
z
M 47.21875 32.234375 
Q 47.125 39.59375 43.09375 43.984375 
Q 39.0625 48.390625 32.421875 48.390625 
Q 24.90625 48.390625 20.390625 44.140625 
Q 15.875 39.890625 15.1875 32.171875 
z
" id="DejaVuSans-101"/>
      <path d="M 44.28125 53.078125 
L 44.28125 44.578125 
Q 40.484375 46.53125 36.375 47.5 
Q 32.28125 48.484375 27.875 48.484375 
Q 21.1875 48.484375 17.84375 46.4375 
Q 14.5 44.390625 14.5 40.28125 
Q 14.5 37.15625 16.890625 35.375 
Q 19.28125 33.59375 26.515625 31.984375 
L 29.59375 31.296875 
Q 39.15625 29.25 43.1875 25.515625 
Q 47.21875 21.78125 47.21875 15.09375 
Q 47.21875 7.46875 41.1875 3.015625 
Q 35.15625 -1.421875 24.609375 -1.421875 
Q 20.21875 -1.421875 15.453125 -0.5625 
Q 10.6875 0.296875 5.421875 2 
L 5.421875 11.28125 
Q 10.40625 8.6875 15.234375 7.390625 
Q 20.0625 6.109375 24.8125 6.109375 
Q 31.15625 6.109375 34.5625 8.28125 
Q 37.984375 10.453125 37.984375 14.40625 
Q 37.984375 18.0625 35.515625 20.015625 
Q 33.0625 21.96875 24.703125 23.78125 
L 21.578125 24.515625 
Q 13.234375 26.265625 9.515625 29.90625 
Q 5.8125 33.546875 5.8125 39.890625 
Q 5.8125 47.609375 11.28125 51.796875 
Q 16.75 56 26.8125 56 
Q 31.78125 56 36.171875 55.265625 
Q 40.578125 54.546875 44.28125 53.078125 
z
" id="DejaVuSans-115"/>
      <path d="M 30.609375 48.390625 
Q 23.390625 48.390625 19.1875 42.75 
Q 14.984375 37.109375 14.984375 27.296875 
Q 14.984375 17.484375 19.15625 11.84375 
Q 23.34375 6.203125 30.609375 6.203125 
Q 37.796875 6.203125 41.984375 11.859375 
Q 46.1875 17.53125 46.1875 27.296875 
Q 46.1875 37.015625 41.984375 42.703125 
Q 37.796875 48.390625 30.609375 48.390625 
z
M 30.609375 56 
Q 42.328125 56 49.015625 48.375 
Q 55.71875 40.765625 55.71875 27.296875 
Q 55.71875 13.875 49.015625 6.21875 
Q 42.328125 -1.421875 30.609375 -1.421875 
Q 18.84375 -1.421875 12.171875 6.21875 
Q 5.515625 13.875 5.515625 27.296875 
Q 5.515625 40.765625 12.171875 48.375 
Q 18.84375 56 30.609375 56 
z
" id="DejaVuSans-111"/>
      <path d="M 9.421875 75.984375 
L 18.40625 75.984375 
L 18.40625 0 
L 9.421875 0 
z
" id="DejaVuSans-108"/>
      <path d="M 8.5 21.578125 
L 8.5 54.6875 
L 17.484375 54.6875 
L 17.484375 21.921875 
Q 17.484375 14.15625 20.5 10.265625 
Q 23.53125 6.390625 29.59375 6.390625 
Q 36.859375 6.390625 41.078125 11.03125 
Q 45.3125 15.671875 45.3125 23.6875 
L 45.3125 54.6875 
L 54.296875 54.6875 
L 54.296875 0 
L 45.3125 0 
L 45.3125 8.40625 
Q 42.046875 3.421875 37.71875 1 
Q 33.40625 -1.421875 27.6875 -1.421875 
Q 18.265625 -1.421875 13.375 4.4375 
Q 8.5 10.296875 8.5 21.578125 
z
M 31.109375 56 
z
" id="DejaVuSans-117"/>
      <path d="M 18.3125 70.21875 
L 18.3125 54.6875 
L 36.8125 54.6875 
L 36.8125 47.703125 
L 18.3125 47.703125 
L 18.3125 18.015625 
Q 18.3125 11.328125 20.140625 9.421875 
Q 21.96875 7.515625 27.59375 7.515625 
L 36.8125 7.515625 
L 36.8125 0 
L 27.59375 0 
Q 17.1875 0 13.234375 3.875 
Q 9.28125 7.765625 9.28125 18.015625 
L 9.28125 47.703125 
L 2.6875 47.703125 
L 2.6875 54.6875 
L 9.28125 54.6875 
L 9.28125 70.21875 
z
" id="DejaVuSans-116"/>
      <path d="M 54.890625 33.015625 
L 54.890625 0 
L 45.90625 0 
L 45.90625 32.71875 
Q 45.90625 40.484375 42.875 44.328125 
Q 39.84375 48.1875 33.796875 48.1875 
Q 26.515625 48.1875 22.3125 43.546875 
Q 18.109375 38.921875 18.109375 30.90625 
L 18.109375 0 
L 9.078125 0 
L 9.078125 54.6875 
L 18.109375 54.6875 
L 18.109375 46.1875 
Q 21.34375 51.125 25.703125 53.5625 
Q 30.078125 56 35.796875 56 
Q 45.21875 56 50.046875 50.171875 
Q 54.890625 44.34375 54.890625 33.015625 
z
" id="DejaVuSans-110"/>
     </defs>
     <g transform="translate(212.524062 237.791812)scale(0.1 -0.1)">
      <use xlink:href="#DejaVuSans-114"/>
      <use x="38.863281" xlink:href="#DejaVuSans-101"/>
      <use x="100.386719" xlink:href="#DejaVuSans-115"/>
      <use x="152.486328" xlink:href="#DejaVuSans-111"/>
      <use x="213.667969" xlink:href="#DejaVuSans-108"/>
      <use x="241.451172" xlink:href="#DejaVuSans-117"/>
      <use x="304.830078" xlink:href="#DejaVuSans-116"/>
      <use x="344.039062" xlink:href="#DejaVuSans-105"/>
      <use x="371.822266" xlink:href="#DejaVuSans-111"/>
      <use x="433.003906" xlink:href="#DejaVuSans-110"/>
      <use x="496.382812" xlink:href="#DejaVuSans-58"/>
      <use x="530.074219" xlink:href="#DejaVuSans-32"/>
      <use x="561.861328" xlink:href="#DejaVuSans-49"/>
      <use x="625.484375" xlink:href="#DejaVuSans-48"/>
      <use x="689.107422" xlink:href="#DejaVuSans-48"/>
     </g>
    </g>
    <g id="line2d_23">
     <path d="M 184.524062 248.969937 
L 204.524062 248.969937 
" style="fill:none;stroke:#2ca02c;stroke-linecap:square;stroke-width:1.5;"/>
    </g>
    <g id="line2d_24"/>
    <g id="text_18">
     <!-- resolution: 110 -->
     <g transform="translate(212.524062 252.469937)scale(0.1 -0.1)">
      <use xlink:href="#DejaVuSans-114"/>
      <use x="38.863281" xlink:href="#DejaVuSans-101"/>
      <use x="100.386719" xlink:href="#DejaVuSans-115"/>
      <use x="152.486328" xlink:href="#DejaVuSans-111"/>
      <use x="213.667969" xlink:href="#DejaVuSans-108"/>
      <use x="241.451172" xlink:href="#DejaVuSans-117"/>
      <use x="304.830078" xlink:href="#DejaVuSans-116"/>
      <use x="344.039062" xlink:href="#DejaVuSans-105"/>
      <use x="371.822266" xlink:href="#DejaVuSans-111"/>
      <use x="433.003906" xlink:href="#DejaVuSans-110"/>
      <use x="496.382812" xlink:href="#DejaVuSans-58"/>
      <use x="530.074219" xlink:href="#DejaVuSans-32"/>
      <use x="561.861328" xlink:href="#DejaVuSans-49"/>
      <use x="625.484375" xlink:href="#DejaVuSans-49"/>
      <use x="689.107422" xlink:href="#DejaVuSans-48"/>
     </g>
    </g>
    <g id="line2d_25">
     <path d="M 184.524062 263.648062 
L 204.524062 263.648062 
" style="fill:none;stroke:#d62728;stroke-linecap:square;stroke-width:1.5;"/>
    </g>
    <g id="line2d_26"/>
    <g id="text_19">
     <!-- resolution: 120 -->
     <g transform="translate(212.524062 267.148062)scale(0.1 -0.1)">
      <use xlink:href="#DejaVuSans-114"/>
      <use x="38.863281" xlink:href="#DejaVuSans-101"/>
      <use x="100.386719" xlink:href="#DejaVuSans-115"/>
      <use x="152.486328" xlink:href="#DejaVuSans-111"/>
      <use x="213.667969" xlink:href="#DejaVuSans-108"/>
      <use x="241.451172" xlink:href="#DejaVuSans-117"/>
      <use x="304.830078" xlink:href="#DejaVuSans-116"/>
      <use x="344.039062" xlink:href="#DejaVuSans-105"/>
      <use x="371.822266" xlink:href="#DejaVuSans-111"/>
      <use x="433.003906" xlink:href="#DejaVuSans-110"/>
      <use x="496.382812" xlink:href="#DejaVuSans-58"/>
      <use x="530.074219" xlink:href="#DejaVuSans-32"/>
      <use x="561.861328" xlink:href="#DejaVuSans-49"/>
      <use x="625.484375" xlink:href="#DejaVuSans-50"/>
      <use x="689.107422" xlink:href="#DejaVuSans-48"/>
     </g>
    </g>
    <g id="line2d_27">
     <path d="M 184.524062 278.326188 
L 204.524062 278.326188 
" style="fill:none;stroke:#9467bd;stroke-linecap:square;stroke-width:1.5;"/>
    </g>
    <g id="line2d_28"/>
    <g id="text_20">
     <!-- resolution: 130 -->
     <g transform="translate(212.524062 281.826188)scale(0.1 -0.1)">
      <use xlink:href="#DejaVuSans-114"/>
      <use x="38.863281" xlink:href="#DejaVuSans-101"/>
      <use x="100.386719" xlink:href="#DejaVuSans-115"/>
      <use x="152.486328" xlink:href="#DejaVuSans-111"/>
      <use x="213.667969" xlink:href="#DejaVuSans-108"/>
      <use x="241.451172" xlink:href="#DejaVuSans-117"/>
      <use x="304.830078" xlink:href="#DejaVuSans-116"/>
      <use x="344.039062" xlink:href="#DejaVuSans-105"/>
      <use x="371.822266" xlink:href="#DejaVuSans-111"/>
      <use x="433.003906" xlink:href="#DejaVuSans-110"/>
      <use x="496.382812" xlink:href="#DejaVuSans-58"/>
      <use x="530.074219" xlink:href="#DejaVuSans-32"/>
      <use x="561.861328" xlink:href="#DejaVuSans-49"/>
      <use x="625.484375" xlink:href="#DejaVuSans-51"/>
      <use x="689.107422" xlink:href="#DejaVuSans-48"/>
     </g>
    </g>
    <g id="line2d_29">
     <path d="M 184.524062 293.004312 
L 204.524062 293.004312 
" style="fill:none;stroke:#8c564b;stroke-linecap:square;stroke-width:1.5;"/>
    </g>
    <g id="line2d_30"/>
    <g id="text_21">
     <!-- resolution: 140 -->
     <g transform="translate(212.524062 296.504312)scale(0.1 -0.1)">
      <use xlink:href="#DejaVuSans-114"/>
      <use x="38.863281" xlink:href="#DejaVuSans-101"/>
      <use x="100.386719" xlink:href="#DejaVuSans-115"/>
      <use x="152.486328" xlink:href="#DejaVuSans-111"/>
      <use x="213.667969" xlink:href="#DejaVuSans-108"/>
      <use x="241.451172" xlink:href="#DejaVuSans-117"/>
      <use x="304.830078" xlink:href="#DejaVuSans-116"/>
      <use x="344.039062" xlink:href="#DejaVuSans-105"/>
      <use x="371.822266" xlink:href="#DejaVuSans-111"/>
      <use x="433.003906" xlink:href="#DejaVuSans-110"/>
      <use x="496.382812" xlink:href="#DejaVuSans-58"/>
      <use x="530.074219" xlink:href="#DejaVuSans-32"/>
      <use x="561.861328" xlink:href="#DejaVuSans-49"/>
      <use x="625.484375" xlink:href="#DejaVuSans-52"/>
      <use x="689.107422" xlink:href="#DejaVuSans-48"/>
     </g>
    </g>
   </g>
  </g>
 </g>
 <defs>
  <clipPath id="pc7166111d8">
   <rect height="266.112" width="357.12" x="57.6" y="41.472"/>
  </clipPath>
 </defs>
</svg>
