<?xml version="1.0" encoding="utf-8" standalone="no"?>
<!DOCTYPE svg PUBLIC "-//W3C//DTD SVG 1.1//EN"
  "http://www.w3.org/Graphics/SVG/1.1/DTD/svg11.dtd">
<!-- Created with matplotlib (https://matplotlib.org/) -->
<svg height="345.6pt" version="1.1" viewBox="0 0 460.8 345.6" width="460.8pt" xmlns="http://www.w3.org/2000/svg" xmlns:xlink="http://www.w3.org/1999/xlink">
 <defs>
  <style type="text/css">
*{stroke-linecap:butt;stroke-linejoin:round;}
  </style>
 </defs>
 <g id="figure_1">
  <g id="patch_1">
   <path d="M 0 345.6 
L 460.8 345.6 
L 460.8 0 
L 0 0 
z
" style="fill:#ffffff;"/>
  </g>
  <g id="axes_1">
   <g id="patch_2">
    <path d="M 57.6 307.584 
L 414.72 307.584 
L 414.72 41.472 
L 57.6 41.472 
z
" style="fill:#ffffff;"/>
   </g>
   <g id="matplotlib.axis_1">
    <g id="xtick_1">
     <g id="line2d_1">
      <defs>
       <path d="M 0 0 
L 0 3.5 
" id="m0652c06161" style="stroke:#000000;stroke-width:0.8;"/>
      </defs>
      <g>
       <use style="stroke:#000000;stroke-width:0.8;" x="73.832727" xlink:href="#m0652c06161" y="307.584"/>
      </g>
     </g>
     <g id="text_1">
      <!-- 350 -->
      <defs>
       <path d="M 40.578125 39.3125 
Q 47.65625 37.796875 51.625 33 
Q 55.609375 28.21875 55.609375 21.1875 
Q 55.609375 10.40625 48.1875 4.484375 
Q 40.765625 -1.421875 27.09375 -1.421875 
Q 22.515625 -1.421875 17.65625 -0.515625 
Q 12.796875 0.390625 7.625 2.203125 
L 7.625 11.71875 
Q 11.71875 9.328125 16.59375 8.109375 
Q 21.484375 6.890625 26.8125 6.890625 
Q 36.078125 6.890625 40.9375 10.546875 
Q 45.796875 14.203125 45.796875 21.1875 
Q 45.796875 27.640625 41.28125 31.265625 
Q 36.765625 34.90625 28.71875 34.90625 
L 20.21875 34.90625 
L 20.21875 43.015625 
L 29.109375 43.015625 
Q 36.375 43.015625 40.234375 45.921875 
Q 44.09375 48.828125 44.09375 54.296875 
Q 44.09375 59.90625 40.109375 62.90625 
Q 36.140625 65.921875 28.71875 65.921875 
Q 24.65625 65.921875 20.015625 65.03125 
Q 15.375 64.15625 9.8125 62.3125 
L 9.8125 71.09375 
Q 15.4375 72.65625 20.34375 73.4375 
Q 25.25 74.21875 29.59375 74.21875 
Q 40.828125 74.21875 47.359375 69.109375 
Q 53.90625 64.015625 53.90625 55.328125 
Q 53.90625 49.265625 50.4375 45.09375 
Q 46.96875 40.921875 40.578125 39.3125 
z
" id="DejaVuSans-51"/>
       <path d="M 10.796875 72.90625 
L 49.515625 72.90625 
L 49.515625 64.59375 
L 19.828125 64.59375 
L 19.828125 46.734375 
Q 21.96875 47.46875 24.109375 47.828125 
Q 26.265625 48.1875 28.421875 48.1875 
Q 40.625 48.1875 47.75 41.5 
Q 54.890625 34.8125 54.890625 23.390625 
Q 54.890625 11.625 47.5625 5.09375 
Q 40.234375 -1.421875 26.90625 -1.421875 
Q 22.3125 -1.421875 17.546875 -0.640625 
Q 12.796875 0.140625 7.71875 1.703125 
L 7.71875 11.625 
Q 12.109375 9.234375 16.796875 8.0625 
Q 21.484375 6.890625 26.703125 6.890625 
Q 35.15625 6.890625 40.078125 11.328125 
Q 45.015625 15.765625 45.015625 23.390625 
Q 45.015625 31 40.078125 35.4375 
Q 35.15625 39.890625 26.703125 39.890625 
Q 22.75 39.890625 18.8125 39.015625 
Q 14.890625 38.140625 10.796875 36.28125 
z
" id="DejaVuSans-53"/>
       <path d="M 31.78125 66.40625 
Q 24.171875 66.40625 20.328125 58.90625 
Q 16.5 51.421875 16.5 36.375 
Q 16.5 21.390625 20.328125 13.890625 
Q 24.171875 6.390625 31.78125 6.390625 
Q 39.453125 6.390625 43.28125 13.890625 
Q 47.125 21.390625 47.125 36.375 
Q 47.125 51.421875 43.28125 58.90625 
Q 39.453125 66.40625 31.78125 66.40625 
z
M 31.78125 74.21875 
Q 44.046875 74.21875 50.515625 64.515625 
Q 56.984375 54.828125 56.984375 36.375 
Q 56.984375 17.96875 50.515625 8.265625 
Q 44.046875 -1.421875 31.78125 -1.421875 
Q 19.53125 -1.421875 13.0625 8.265625 
Q 6.59375 17.96875 6.59375 36.375 
Q 6.59375 54.828125 13.0625 64.515625 
Q 19.53125 74.21875 31.78125 74.21875 
z
" id="DejaVuSans-48"/>
      </defs>
      <g transform="translate(64.288977 322.182437)scale(0.1 -0.1)">
       <use xlink:href="#DejaVuSans-51"/>
       <use x="63.623047" xlink:href="#DejaVuSans-53"/>
       <use x="127.246094" xlink:href="#DejaVuSans-48"/>
      </g>
     </g>
    </g>
    <g id="xtick_2">
     <g id="line2d_2">
      <g>
       <use style="stroke:#000000;stroke-width:0.8;" x="114.414545" xlink:href="#m0652c06161" y="307.584"/>
      </g>
     </g>
     <g id="text_2">
      <!-- 400 -->
      <defs>
       <path d="M 37.796875 64.3125 
L 12.890625 25.390625 
L 37.796875 25.390625 
z
M 35.203125 72.90625 
L 47.609375 72.90625 
L 47.609375 25.390625 
L 58.015625 25.390625 
L 58.015625 17.1875 
L 47.609375 17.1875 
L 47.609375 0 
L 37.796875 0 
L 37.796875 17.1875 
L 4.890625 17.1875 
L 4.890625 26.703125 
z
" id="DejaVuSans-52"/>
      </defs>
      <g transform="translate(104.870795 322.182437)scale(0.1 -0.1)">
       <use xlink:href="#DejaVuSans-52"/>
       <use x="63.623047" xlink:href="#DejaVuSans-48"/>
       <use x="127.246094" xlink:href="#DejaVuSans-48"/>
      </g>
     </g>
    </g>
    <g id="xtick_3">
     <g id="line2d_3">
      <g>
       <use style="stroke:#000000;stroke-width:0.8;" x="154.996364" xlink:href="#m0652c06161" y="307.584"/>
      </g>
     </g>
     <g id="text_3">
      <!-- 450 -->
      <g transform="translate(145.452614 322.182437)scale(0.1 -0.1)">
       <use xlink:href="#DejaVuSans-52"/>
       <use x="63.623047" xlink:href="#DejaVuSans-53"/>
       <use x="127.246094" xlink:href="#DejaVuSans-48"/>
      </g>
     </g>
    </g>
    <g id="xtick_4">
     <g id="line2d_4">
      <g>
       <use style="stroke:#000000;stroke-width:0.8;" x="195.578182" xlink:href="#m0652c06161" y="307.584"/>
      </g>
     </g>
     <g id="text_4">
      <!-- 500 -->
      <g transform="translate(186.034432 322.182437)scale(0.1 -0.1)">
       <use xlink:href="#DejaVuSans-53"/>
       <use x="63.623047" xlink:href="#DejaVuSans-48"/>
       <use x="127.246094" xlink:href="#DejaVuSans-48"/>
      </g>
     </g>
    </g>
    <g id="xtick_5">
     <g id="line2d_5">
      <g>
       <use style="stroke:#000000;stroke-width:0.8;" x="236.16" xlink:href="#m0652c06161" y="307.584"/>
      </g>
     </g>
     <g id="text_5">
      <!-- 550 -->
      <g transform="translate(226.61625 322.182437)scale(0.1 -0.1)">
       <use xlink:href="#DejaVuSans-53"/>
       <use x="63.623047" xlink:href="#DejaVuSans-53"/>
       <use x="127.246094" xlink:href="#DejaVuSans-48"/>
      </g>
     </g>
    </g>
    <g id="xtick_6">
     <g id="line2d_6">
      <g>
       <use style="stroke:#000000;stroke-width:0.8;" x="276.741818" xlink:href="#m0652c06161" y="307.584"/>
      </g>
     </g>
     <g id="text_6">
      <!-- 600 -->
      <defs>
       <path d="M 33.015625 40.375 
Q 26.375 40.375 22.484375 35.828125 
Q 18.609375 31.296875 18.609375 23.390625 
Q 18.609375 15.53125 22.484375 10.953125 
Q 26.375 6.390625 33.015625 6.390625 
Q 39.65625 6.390625 43.53125 10.953125 
Q 47.40625 15.53125 47.40625 23.390625 
Q 47.40625 31.296875 43.53125 35.828125 
Q 39.65625 40.375 33.015625 40.375 
z
M 52.59375 71.296875 
L 52.59375 62.3125 
Q 48.875 64.0625 45.09375 64.984375 
Q 41.3125 65.921875 37.59375 65.921875 
Q 27.828125 65.921875 22.671875 59.328125 
Q 17.53125 52.734375 16.796875 39.40625 
Q 19.671875 43.65625 24.015625 45.921875 
Q 28.375 48.1875 33.59375 48.1875 
Q 44.578125 48.1875 50.953125 41.515625 
Q 57.328125 34.859375 57.328125 23.390625 
Q 57.328125 12.15625 50.6875 5.359375 
Q 44.046875 -1.421875 33.015625 -1.421875 
Q 20.359375 -1.421875 13.671875 8.265625 
Q 6.984375 17.96875 6.984375 36.375 
Q 6.984375 53.65625 15.1875 63.9375 
Q 23.390625 74.21875 37.203125 74.21875 
Q 40.921875 74.21875 44.703125 73.484375 
Q 48.484375 72.75 52.59375 71.296875 
z
" id="DejaVuSans-54"/>
      </defs>
      <g transform="translate(267.198068 322.182437)scale(0.1 -0.1)">
       <use xlink:href="#DejaVuSans-54"/>
       <use x="63.623047" xlink:href="#DejaVuSans-48"/>
       <use x="127.246094" xlink:href="#DejaVuSans-48"/>
      </g>
     </g>
    </g>
    <g id="xtick_7">
     <g id="line2d_7">
      <g>
       <use style="stroke:#000000;stroke-width:0.8;" x="317.323636" xlink:href="#m0652c06161" y="307.584"/>
      </g>
     </g>
     <g id="text_7">
      <!-- 650 -->
      <g transform="translate(307.779886 322.182437)scale(0.1 -0.1)">
       <use xlink:href="#DejaVuSans-54"/>
       <use x="63.623047" xlink:href="#DejaVuSans-53"/>
       <use x="127.246094" xlink:href="#DejaVuSans-48"/>
      </g>
     </g>
    </g>
    <g id="xtick_8">
     <g id="line2d_8">
      <g>
       <use style="stroke:#000000;stroke-width:0.8;" x="357.905455" xlink:href="#m0652c06161" y="307.584"/>
      </g>
     </g>
     <g id="text_8">
      <!-- 700 -->
      <defs>
       <path d="M 8.203125 72.90625 
L 55.078125 72.90625 
L 55.078125 68.703125 
L 28.609375 0 
L 18.3125 0 
L 43.21875 64.59375 
L 8.203125 64.59375 
z
" id="DejaVuSans-55"/>
      </defs>
      <g transform="translate(348.361705 322.182437)scale(0.1 -0.1)">
       <use xlink:href="#DejaVuSans-55"/>
       <use x="63.623047" xlink:href="#DejaVuSans-48"/>
       <use x="127.246094" xlink:href="#DejaVuSans-48"/>
      </g>
     </g>
    </g>
    <g id="xtick_9">
     <g id="line2d_9">
      <g>
       <use style="stroke:#000000;stroke-width:0.8;" x="398.487273" xlink:href="#m0652c06161" y="307.584"/>
      </g>
     </g>
     <g id="text_9">
      <!-- 750 -->
      <g transform="translate(388.943523 322.182437)scale(0.1 -0.1)">
       <use xlink:href="#DejaVuSans-55"/>
       <use x="63.623047" xlink:href="#DejaVuSans-53"/>
       <use x="127.246094" xlink:href="#DejaVuSans-48"/>
      </g>
     </g>
    </g>
    <g id="text_10">
     <!-- wavelengths -->
     <defs>
      <path d="M 4.203125 54.6875 
L 13.1875 54.6875 
L 24.421875 12.015625 
L 35.59375 54.6875 
L 46.1875 54.6875 
L 57.421875 12.015625 
L 68.609375 54.6875 
L 77.59375 54.6875 
L 63.28125 0 
L 52.6875 0 
L 40.921875 44.828125 
L 29.109375 0 
L 18.5 0 
z
" id="DejaVuSans-119"/>
      <path d="M 34.28125 27.484375 
Q 23.390625 27.484375 19.1875 25 
Q 14.984375 22.515625 14.984375 16.5 
Q 14.984375 11.71875 18.140625 8.90625 
Q 21.296875 6.109375 26.703125 6.109375 
Q 34.1875 6.109375 38.703125 11.40625 
Q 43.21875 16.703125 43.21875 25.484375 
L 43.21875 27.484375 
z
M 52.203125 31.203125 
L 52.203125 0 
L 43.21875 0 
L 43.21875 8.296875 
Q 40.140625 3.328125 35.546875 0.953125 
Q 30.953125 -1.421875 24.3125 -1.421875 
Q 15.921875 -1.421875 10.953125 3.296875 
Q 6 8.015625 6 15.921875 
Q 6 25.140625 12.171875 29.828125 
Q 18.359375 34.515625 30.609375 34.515625 
L 43.21875 34.515625 
L 43.21875 35.40625 
Q 43.21875 41.609375 39.140625 45 
Q 35.0625 48.390625 27.6875 48.390625 
Q 23 48.390625 18.546875 47.265625 
Q 14.109375 46.140625 10.015625 43.890625 
L 10.015625 52.203125 
Q 14.9375 54.109375 19.578125 55.046875 
Q 24.21875 56 28.609375 56 
Q 40.484375 56 46.34375 49.84375 
Q 52.203125 43.703125 52.203125 31.203125 
z
" id="DejaVuSans-97"/>
      <path d="M 2.984375 54.6875 
L 12.5 54.6875 
L 29.59375 8.796875 
L 46.6875 54.6875 
L 56.203125 54.6875 
L 35.6875 0 
L 23.484375 0 
z
" id="DejaVuSans-118"/>
      <path d="M 56.203125 29.59375 
L 56.203125 25.203125 
L 14.890625 25.203125 
Q 15.484375 15.921875 20.484375 11.0625 
Q 25.484375 6.203125 34.421875 6.203125 
Q 39.59375 6.203125 44.453125 7.46875 
Q 49.3125 8.734375 54.109375 11.28125 
L 54.109375 2.78125 
Q 49.265625 0.734375 44.1875 -0.34375 
Q 39.109375 -1.421875 33.890625 -1.421875 
Q 20.796875 -1.421875 13.15625 6.1875 
Q 5.515625 13.8125 5.515625 26.8125 
Q 5.515625 40.234375 12.765625 48.109375 
Q 20.015625 56 32.328125 56 
Q 43.359375 56 49.78125 48.890625 
Q 56.203125 41.796875 56.203125 29.59375 
z
M 47.21875 32.234375 
Q 47.125 39.59375 43.09375 43.984375 
Q 39.0625 48.390625 32.421875 48.390625 
Q 24.90625 48.390625 20.390625 44.140625 
Q 15.875 39.890625 15.1875 32.171875 
z
" id="DejaVuSans-101"/>
      <path d="M 9.421875 75.984375 
L 18.40625 75.984375 
L 18.40625 0 
L 9.421875 0 
z
" id="DejaVuSans-108"/>
      <path d="M 54.890625 33.015625 
L 54.890625 0 
L 45.90625 0 
L 45.90625 32.71875 
Q 45.90625 40.484375 42.875 44.328125 
Q 39.84375 48.1875 33.796875 48.1875 
Q 26.515625 48.1875 22.3125 43.546875 
Q 18.109375 38.921875 18.109375 30.90625 
L 18.109375 0 
L 9.078125 0 
L 9.078125 54.6875 
L 18.109375 54.6875 
L 18.109375 46.1875 
Q 21.34375 51.125 25.703125 53.5625 
Q 30.078125 56 35.796875 56 
Q 45.21875 56 50.046875 50.171875 
Q 54.890625 44.34375 54.890625 33.015625 
z
" id="DejaVuSans-110"/>
      <path d="M 45.40625 27.984375 
Q 45.40625 37.75 41.375 43.109375 
Q 37.359375 48.484375 30.078125 48.484375 
Q 22.859375 48.484375 18.828125 43.109375 
Q 14.796875 37.75 14.796875 27.984375 
Q 14.796875 18.265625 18.828125 12.890625 
Q 22.859375 7.515625 30.078125 7.515625 
Q 37.359375 7.515625 41.375 12.890625 
Q 45.40625 18.265625 45.40625 27.984375 
z
M 54.390625 6.78125 
Q 54.390625 -7.171875 48.1875 -13.984375 
Q 42 -20.796875 29.203125 -20.796875 
Q 24.46875 -20.796875 20.265625 -20.09375 
Q 16.0625 -19.390625 12.109375 -17.921875 
L 12.109375 -9.1875 
Q 16.0625 -11.328125 19.921875 -12.34375 
Q 23.78125 -13.375 27.78125 -13.375 
Q 36.625 -13.375 41.015625 -8.765625 
Q 45.40625 -4.15625 45.40625 5.171875 
L 45.40625 9.625 
Q 42.625 4.78125 38.28125 2.390625 
Q 33.9375 0 27.875 0 
Q 17.828125 0 11.671875 7.65625 
Q 5.515625 15.328125 5.515625 27.984375 
Q 5.515625 40.671875 11.671875 48.328125 
Q 17.828125 56 27.875 56 
Q 33.9375 56 38.28125 53.609375 
Q 42.625 51.21875 45.40625 46.390625 
L 45.40625 54.6875 
L 54.390625 54.6875 
z
" id="DejaVuSans-103"/>
      <path d="M 18.3125 70.21875 
L 18.3125 54.6875 
L 36.8125 54.6875 
L 36.8125 47.703125 
L 18.3125 47.703125 
L 18.3125 18.015625 
Q 18.3125 11.328125 20.140625 9.421875 
Q 21.96875 7.515625 27.59375 7.515625 
L 36.8125 7.515625 
L 36.8125 0 
L 27.59375 0 
Q 17.1875 0 13.234375 3.875 
Q 9.28125 7.765625 9.28125 18.015625 
L 9.28125 47.703125 
L 2.6875 47.703125 
L 2.6875 54.6875 
L 9.28125 54.6875 
L 9.28125 70.21875 
z
" id="DejaVuSans-116"/>
      <path d="M 54.890625 33.015625 
L 54.890625 0 
L 45.90625 0 
L 45.90625 32.71875 
Q 45.90625 40.484375 42.875 44.328125 
Q 39.84375 48.1875 33.796875 48.1875 
Q 26.515625 48.1875 22.3125 43.546875 
Q 18.109375 38.921875 18.109375 30.90625 
L 18.109375 0 
L 9.078125 0 
L 9.078125 75.984375 
L 18.109375 75.984375 
L 18.109375 46.1875 
Q 21.34375 51.125 25.703125 53.5625 
Q 30.078125 56 35.796875 56 
Q 45.21875 56 50.046875 50.171875 
Q 54.890625 44.34375 54.890625 33.015625 
z
" id="DejaVuSans-104"/>
      <path d="M 44.28125 53.078125 
L 44.28125 44.578125 
Q 40.484375 46.53125 36.375 47.5 
Q 32.28125 48.484375 27.875 48.484375 
Q 21.1875 48.484375 17.84375 46.4375 
Q 14.5 44.390625 14.5 40.28125 
Q 14.5 37.15625 16.890625 35.375 
Q 19.28125 33.59375 26.515625 31.984375 
L 29.59375 31.296875 
Q 39.15625 29.25 43.1875 25.515625 
Q 47.21875 21.78125 47.21875 15.09375 
Q 47.21875 7.46875 41.1875 3.015625 
Q 35.15625 -1.421875 24.609375 -1.421875 
Q 20.21875 -1.421875 15.453125 -0.5625 
Q 10.6875 0.296875 5.421875 2 
L 5.421875 11.28125 
Q 10.40625 8.6875 15.234375 7.390625 
Q 20.0625 6.109375 24.8125 6.109375 
Q 31.15625 6.109375 34.5625 8.28125 
Q 37.984375 10.453125 37.984375 14.40625 
Q 37.984375 18.0625 35.515625 20.015625 
Q 33.0625 21.96875 24.703125 23.78125 
L 21.578125 24.515625 
Q 13.234375 26.265625 9.515625 29.90625 
Q 5.8125 33.546875 5.8125 39.890625 
Q 5.8125 47.609375 11.28125 51.796875 
Q 16.75 56 26.8125 56 
Q 31.78125 56 36.171875 55.265625 
Q 40.578125 54.546875 44.28125 53.078125 
z
" id="DejaVuSans-115"/>
     </defs>
     <g transform="translate(204.42875 335.860562)scale(0.1 -0.1)">
      <use xlink:href="#DejaVuSans-119"/>
      <use x="81.787109" xlink:href="#DejaVuSans-97"/>
      <use x="143.066406" xlink:href="#DejaVuSans-118"/>
      <use x="202.246094" xlink:href="#DejaVuSans-101"/>
      <use x="263.769531" xlink:href="#DejaVuSans-108"/>
      <use x="291.552734" xlink:href="#DejaVuSans-101"/>
      <use x="353.076172" xlink:href="#DejaVuSans-110"/>
      <use x="416.455078" xlink:href="#DejaVuSans-103"/>
      <use x="479.931641" xlink:href="#DejaVuSans-116"/>
      <use x="519.140625" xlink:href="#DejaVuSans-104"/>
      <use x="582.519531" xlink:href="#DejaVuSans-115"/>
     </g>
    </g>
   </g>
   <g id="matplotlib.axis_2">
    <g id="ytick_1">
     <g id="line2d_10">
      <defs>
       <path d="M 0 0 
L -3.5 0 
" id="m2aaad8d2aa" style="stroke:#000000;stroke-width:0.8;"/>
      </defs>
      <g>
       <use style="stroke:#000000;stroke-width:0.8;" x="57.6" xlink:href="#m2aaad8d2aa" y="302.076649"/>
      </g>
     </g>
     <g id="text_11">
      <!-- 0.3 -->
      <defs>
       <path d="M 10.6875 12.40625 
L 21 12.40625 
L 21 0 
L 10.6875 0 
z
" id="DejaVuSans-46"/>
      </defs>
      <g transform="translate(34.696875 305.875867)scale(0.1 -0.1)">
       <use xlink:href="#DejaVuSans-48"/>
       <use x="63.623047" xlink:href="#DejaVuSans-46"/>
       <use x="95.410156" xlink:href="#DejaVuSans-51"/>
      </g>
     </g>
    </g>
    <g id="ytick_2">
     <g id="line2d_11">
      <g>
       <use style="stroke:#000000;stroke-width:0.8;" x="57.6" xlink:href="#m2aaad8d2aa" y="265.094021"/>
      </g>
     </g>
     <g id="text_12">
      <!-- 0.4 -->
      <g transform="translate(34.696875 268.893239)scale(0.1 -0.1)">
       <use xlink:href="#DejaVuSans-48"/>
       <use x="63.623047" xlink:href="#DejaVuSans-46"/>
       <use x="95.410156" xlink:href="#DejaVuSans-52"/>
      </g>
     </g>
    </g>
    <g id="ytick_3">
     <g id="line2d_12">
      <g>
       <use style="stroke:#000000;stroke-width:0.8;" x="57.6" xlink:href="#m2aaad8d2aa" y="228.111392"/>
      </g>
     </g>
     <g id="text_13">
      <!-- 0.5 -->
      <g transform="translate(34.696875 231.910611)scale(0.1 -0.1)">
       <use xlink:href="#DejaVuSans-48"/>
       <use x="63.623047" xlink:href="#DejaVuSans-46"/>
       <use x="95.410156" xlink:href="#DejaVuSans-53"/>
      </g>
     </g>
    </g>
    <g id="ytick_4">
     <g id="line2d_13">
      <g>
       <use style="stroke:#000000;stroke-width:0.8;" x="57.6" xlink:href="#m2aaad8d2aa" y="191.128764"/>
      </g>
     </g>
     <g id="text_14">
      <!-- 0.6 -->
      <g transform="translate(34.696875 194.927983)scale(0.1 -0.1)">
       <use xlink:href="#DejaVuSans-48"/>
       <use x="63.623047" xlink:href="#DejaVuSans-46"/>
       <use x="95.410156" xlink:href="#DejaVuSans-54"/>
      </g>
     </g>
    </g>
    <g id="ytick_5">
     <g id="line2d_14">
      <g>
       <use style="stroke:#000000;stroke-width:0.8;" x="57.6" xlink:href="#m2aaad8d2aa" y="154.146136"/>
      </g>
     </g>
     <g id="text_15">
      <!-- 0.7 -->
      <g transform="translate(34.696875 157.945355)scale(0.1 -0.1)">
       <use xlink:href="#DejaVuSans-48"/>
       <use x="63.623047" xlink:href="#DejaVuSans-46"/>
       <use x="95.410156" xlink:href="#DejaVuSans-55"/>
      </g>
     </g>
    </g>
    <g id="ytick_6">
     <g id="line2d_15">
      <g>
       <use style="stroke:#000000;stroke-width:0.8;" x="57.6" xlink:href="#m2aaad8d2aa" y="117.163508"/>
      </g>
     </g>
     <g id="text_16">
      <!-- 0.8 -->
      <defs>
       <path d="M 31.78125 34.625 
Q 24.75 34.625 20.71875 30.859375 
Q 16.703125 27.09375 16.703125 20.515625 
Q 16.703125 13.921875 20.71875 10.15625 
Q 24.75 6.390625 31.78125 6.390625 
Q 38.8125 6.390625 42.859375 10.171875 
Q 46.921875 13.96875 46.921875 20.515625 
Q 46.921875 27.09375 42.890625 30.859375 
Q 38.875 34.625 31.78125 34.625 
z
M 21.921875 38.8125 
Q 15.578125 40.375 12.03125 44.71875 
Q 8.5 49.078125 8.5 55.328125 
Q 8.5 64.0625 14.71875 69.140625 
Q 20.953125 74.21875 31.78125 74.21875 
Q 42.671875 74.21875 48.875 69.140625 
Q 55.078125 64.0625 55.078125 55.328125 
Q 55.078125 49.078125 51.53125 44.71875 
Q 48 40.375 41.703125 38.8125 
Q 48.828125 37.15625 52.796875 32.3125 
Q 56.78125 27.484375 56.78125 20.515625 
Q 56.78125 9.90625 50.3125 4.234375 
Q 43.84375 -1.421875 31.78125 -1.421875 
Q 19.734375 -1.421875 13.25 4.234375 
Q 6.78125 9.90625 6.78125 20.515625 
Q 6.78125 27.484375 10.78125 32.3125 
Q 14.796875 37.15625 21.921875 38.8125 
z
M 18.3125 54.390625 
Q 18.3125 48.734375 21.84375 45.5625 
Q 25.390625 42.390625 31.78125 42.390625 
Q 38.140625 42.390625 41.71875 45.5625 
Q 45.3125 48.734375 45.3125 54.390625 
Q 45.3125 60.0625 41.71875 63.234375 
Q 38.140625 66.40625 31.78125 66.40625 
Q 25.390625 66.40625 21.84375 63.234375 
Q 18.3125 60.0625 18.3125 54.390625 
z
" id="DejaVuSans-56"/>
      </defs>
      <g transform="translate(34.696875 120.962727)scale(0.1 -0.1)">
       <use xlink:href="#DejaVuSans-48"/>
       <use x="63.623047" xlink:href="#DejaVuSans-46"/>
       <use x="95.410156" xlink:href="#DejaVuSans-56"/>
      </g>
     </g>
    </g>
    <g id="ytick_7">
     <g id="line2d_16">
      <g>
       <use style="stroke:#000000;stroke-width:0.8;" x="57.6" xlink:href="#m2aaad8d2aa" y="80.18088"/>
      </g>
     </g>
     <g id="text_17">
      <!-- 0.9 -->
      <defs>
       <path d="M 10.984375 1.515625 
L 10.984375 10.5 
Q 14.703125 8.734375 18.5 7.8125 
Q 22.3125 6.890625 25.984375 6.890625 
Q 35.75 6.890625 40.890625 13.453125 
Q 46.046875 20.015625 46.78125 33.40625 
Q 43.953125 29.203125 39.59375 26.953125 
Q 35.25 24.703125 29.984375 24.703125 
Q 19.046875 24.703125 12.671875 31.3125 
Q 6.296875 37.9375 6.296875 49.421875 
Q 6.296875 60.640625 12.9375 67.421875 
Q 19.578125 74.21875 30.609375 74.21875 
Q 43.265625 74.21875 49.921875 64.515625 
Q 56.59375 54.828125 56.59375 36.375 
Q 56.59375 19.140625 48.40625 8.859375 
Q 40.234375 -1.421875 26.421875 -1.421875 
Q 22.703125 -1.421875 18.890625 -0.6875 
Q 15.09375 0.046875 10.984375 1.515625 
z
M 30.609375 32.421875 
Q 37.25 32.421875 41.125 36.953125 
Q 45.015625 41.5 45.015625 49.421875 
Q 45.015625 57.28125 41.125 61.84375 
Q 37.25 66.40625 30.609375 66.40625 
Q 23.96875 66.40625 20.09375 61.84375 
Q 16.21875 57.28125 16.21875 49.421875 
Q 16.21875 41.5 20.09375 36.953125 
Q 23.96875 32.421875 30.609375 32.421875 
z
" id="DejaVuSans-57"/>
      </defs>
      <g transform="translate(34.696875 83.980098)scale(0.1 -0.1)">
       <use xlink:href="#DejaVuSans-48"/>
       <use x="63.623047" xlink:href="#DejaVuSans-46"/>
       <use x="95.410156" xlink:href="#DejaVuSans-57"/>
      </g>
     </g>
    </g>
    <g id="ytick_8">
     <g id="line2d_17">
      <g>
       <use style="stroke:#000000;stroke-width:0.8;" x="57.6" xlink:href="#m2aaad8d2aa" y="43.198251"/>
      </g>
     </g>
     <g id="text_18">
      <!-- 1.0 -->
      <defs>
       <path d="M 12.40625 8.296875 
L 28.515625 8.296875 
L 28.515625 63.921875 
L 10.984375 60.40625 
L 10.984375 69.390625 
L 28.421875 72.90625 
L 38.28125 72.90625 
L 38.28125 8.296875 
L 54.390625 8.296875 
L 54.390625 0 
L 12.40625 0 
z
" id="DejaVuSans-49"/>
      </defs>
      <g transform="translate(34.696875 46.99747)scale(0.1 -0.1)">
       <use xlink:href="#DejaVuSans-49"/>
       <use x="63.623047" xlink:href="#DejaVuSans-46"/>
       <use x="95.410156" xlink:href="#DejaVuSans-48"/>
      </g>
     </g>
    </g>
    <g id="text_19">
     <!-- transmission -->
     <defs>
      <path d="M 41.109375 46.296875 
Q 39.59375 47.171875 37.8125 47.578125 
Q 36.03125 48 33.890625 48 
Q 26.265625 48 22.1875 43.046875 
Q 18.109375 38.09375 18.109375 28.8125 
L 18.109375 0 
L 9.078125 0 
L 9.078125 54.6875 
L 18.109375 54.6875 
L 18.109375 46.1875 
Q 20.953125 51.171875 25.484375 53.578125 
Q 30.03125 56 36.53125 56 
Q 37.453125 56 38.578125 55.875 
Q 39.703125 55.765625 41.0625 55.515625 
z
" id="DejaVuSans-114"/>
      <path d="M 52 44.1875 
Q 55.375 50.25 60.0625 53.125 
Q 64.75 56 71.09375 56 
Q 79.640625 56 84.28125 50.015625 
Q 88.921875 44.046875 88.921875 33.015625 
L 88.921875 0 
L 79.890625 0 
L 79.890625 32.71875 
Q 79.890625 40.578125 77.09375 44.375 
Q 74.3125 48.1875 68.609375 48.1875 
Q 61.625 48.1875 57.5625 43.546875 
Q 53.515625 38.921875 53.515625 30.90625 
L 53.515625 0 
L 44.484375 0 
L 44.484375 32.71875 
Q 44.484375 40.625 41.703125 44.40625 
Q 38.921875 48.1875 33.109375 48.1875 
Q 26.21875 48.1875 22.15625 43.53125 
Q 18.109375 38.875 18.109375 30.90625 
L 18.109375 0 
L 9.078125 0 
L 9.078125 54.6875 
L 18.109375 54.6875 
L 18.109375 46.1875 
Q 21.1875 51.21875 25.484375 53.609375 
Q 29.78125 56 35.6875 56 
Q 41.65625 56 45.828125 52.96875 
Q 50 49.953125 52 44.1875 
z
" id="DejaVuSans-109"/>
      <path d="M 9.421875 54.6875 
L 18.40625 54.6875 
L 18.40625 0 
L 9.421875 0 
z
M 9.421875 75.984375 
L 18.40625 75.984375 
L 18.40625 64.59375 
L 9.421875 64.59375 
z
" id="DejaVuSans-105"/>
      <path d="M 30.609375 48.390625 
Q 23.390625 48.390625 19.1875 42.75 
Q 14.984375 37.109375 14.984375 27.296875 
Q 14.984375 17.484375 19.15625 11.84375 
Q 23.34375 6.203125 30.609375 6.203125 
Q 37.796875 6.203125 41.984375 11.859375 
Q 46.1875 17.53125 46.1875 27.296875 
Q 46.1875 37.015625 41.984375 42.703125 
Q 37.796875 48.390625 30.609375 48.390625 
z
M 30.609375 56 
Q 42.328125 56 49.015625 48.375 
Q 55.71875 40.765625 55.71875 27.296875 
Q 55.71875 13.875 49.015625 6.21875 
Q 42.328125 -1.421875 30.609375 -1.421875 
Q 18.84375 -1.421875 12.171875 6.21875 
Q 5.515625 13.875 5.515625 27.296875 
Q 5.515625 40.765625 12.171875 48.375 
Q 18.84375 56 30.609375 56 
z
" id="DejaVuSans-111"/>
     </defs>
     <g transform="translate(28.617187 206.467062)rotate(-90)scale(0.1 -0.1)">
      <use xlink:href="#DejaVuSans-116"/>
      <use x="39.208984" xlink:href="#DejaVuSans-114"/>
      <use x="80.322266" xlink:href="#DejaVuSans-97"/>
      <use x="141.601562" xlink:href="#DejaVuSans-110"/>
      <use x="204.980469" xlink:href="#DejaVuSans-115"/>
      <use x="257.080078" xlink:href="#DejaVuSans-109"/>
      <use x="354.492188" xlink:href="#DejaVuSans-105"/>
      <use x="382.275391" xlink:href="#DejaVuSans-115"/>
      <use x="434.375" xlink:href="#DejaVuSans-115"/>
      <use x="486.474609" xlink:href="#DejaVuSans-105"/>
      <use x="514.257812" xlink:href="#DejaVuSans-111"/>
      <use x="575.439453" xlink:href="#DejaVuSans-110"/>
     </g>
    </g>
   </g>
   <g id="line2d_18">
    <path clip-path="url(#pd61970fc2f)" d="M 398.487273 291.618908 
L 391.540314 291.430094 
L 384.750127 291.678108 
L 378.111464 292.377997 
L 371.61931 293.288752 
L 365.268868 294.300519 
L 359.055547 295.143476 
L 352.974953 295.488 
L 347.02288 294.962206 
L 341.195294 293.013235 
L 335.488331 289.10574 
L 329.898284 282.610512 
L 324.421597 273.048781 
L 319.054856 260.214922 
L 313.794783 244.390406 
L 308.638229 226.550634 
L 303.582168 208.267171 
L 298.623691 191.474107 
L 293.76 177.870293 
L 288.988402 168.418239 
L 284.306307 163.1152 
L 279.71122 161.194668 
L 275.200736 161.61762 
L 270.772543 163.462108 
L 266.424407 166.129455 
L 262.154177 169.334655 
L 257.959778 173.008805 
L 253.839208 177.181675 
L 249.790534 181.712718 
L 245.811892 185.693405 
L 241.901479 186.412683 
L 238.057556 179.909871 
L 234.27844 166.580156 
L 230.562508 153.372573 
L 226.908187 145.264905 
L 223.313957 142.223966 
L 219.778349 142.875325 
L 216.299939 146.817505 
L 212.877352 156.137227 
L 209.509254 178.631183 
L 206.194353 178.174453 
L 202.931401 143.818101 
L 199.719184 137.418167 
L 196.556528 137.766585 
L 193.442297 139.308094 
L 190.375385 141.029444 
L 187.354722 142.718096 
L 184.37927 144.337615 
L 181.448022 145.895689 
L 178.56 147.40947 
L 175.714254 148.90019 
L 172.909864 150.385469 
L 170.145933 151.881353 
L 167.421594 153.400573 
L 164.736 154.951348 
L 162.088332 156.539687 
L 159.477791 158.166185 
L 156.903603 159.828653 
L 154.365013 161.520566 
L 151.861288 163.231037 
L 149.391714 164.946375 
L 146.955597 166.647823 
L 144.552262 168.314402 
L 142.181053 169.921432 
L 139.841328 171.441921 
L 137.532465 172.848308 
L 135.253857 174.111822 
L 133.004915 175.206813 
L 130.785061 176.110352 
L 128.593735 176.805951 
L 126.430391 177.285862 
L 124.294496 177.551461 
L 122.185532 177.617612 
L 120.102991 177.510164 
L 118.046381 177.268455 
L 116.01522 176.943315 
L 114.009039 176.59437 
L 112.02738 176.291439 
L 110.069795 176.108293 
L 108.135849 176.126278 
L 106.225116 176.430941 
L 104.337181 177.112929 
L 102.471638 178.271846 
L 100.628091 180.008905 
L 98.806154 182.429045 
L 97.005448 185.616249 
L 95.225605 189.599778 
L 93.466263 194.286158 
L 91.727072 199.347534 
L 90.007687 204.125627 
L 88.307771 207.596818 
L 86.626995 208.600084 
L 84.965038 206.348574 
L 83.321587 200.971232 
L 81.696332 193.633907 
L 80.088975 185.984885 
L 78.49922 179.492982 
L 76.92678 175.118433 
L 75.371374 173.501489 
L 73.832727 175.68009 
" style="fill:none;stroke:#ff7f0e;stroke-linecap:square;stroke-width:1.5;"/>
   </g>
   <g id="line2d_19">
    <path clip-path="url(#pd61970fc2f)" d="M 398.487273 86.115169 
L 391.540314 81.415676 
L 384.750127 78.960396 
L 378.111464 80.346319 
L 371.61931 79.624903 
L 365.268868 79.952242 
L 359.055547 80.141817 
L 352.974953 79.745185 
L 347.02288 79.949094 
L 341.195294 79.482499 
L 335.488331 79.30999 
L 329.898284 78.943488 
L 324.421597 78.474393 
L 319.054856 78.1479 
L 313.794783 77.690587 
L 308.638229 77.495393 
L 303.582168 77.437984 
L 298.623691 77.678786 
L 293.76 78.267432 
L 288.988402 79.075381 
L 284.306307 80.123827 
L 279.71122 81.213854 
L 275.200736 82.325004 
L 270.772543 83.421898 
L 266.424407 84.506043 
L 262.154177 85.701899 
L 257.959778 87.111839 
L 253.839208 89.049837 
L 249.790534 91.917023 
L 245.811892 96.072835 
L 241.901479 100.968151 
L 238.057556 104.048951 
L 234.27844 102.534711 
L 230.562508 97.430902 
L 226.908187 92.365803 
L 223.313957 89.278135 
L 219.778349 87.994021 
L 216.299939 87.724653 
L 212.877352 88.492385 
L 209.509254 98.616664 
L 206.194353 118.899684 
L 202.931401 99.378669 
L 199.719184 92.643624 
L 196.556528 92.983463 
L 193.442297 94.596332 
L 190.375385 96.344871 
L 187.354722 98.026325 
L 184.37927 99.621716 
L 181.448022 101.134012 
L 178.56 102.585289 
L 175.714254 103.982645 
L 172.909864 105.338477 
L 170.145933 106.66159 
L 167.421594 107.953012 
L 164.736 109.22283 
L 162.088332 110.467367 
L 159.477791 111.692526 
L 156.903603 112.897521 
L 154.365013 114.080235 
L 151.861288 115.24481 
L 149.391714 116.383626 
L 146.955597 117.500779 
L 144.552262 118.589895 
L 142.181053 119.648034 
L 139.841328 120.673793 
L 137.532465 121.654529 
L 135.253857 122.588251 
L 133.004915 123.454602 
L 130.785061 124.237402 
L 128.593735 124.912183 
L 126.430391 125.448019 
L 124.294496 125.842002 
L 122.185532 126.104107 
L 120.102991 126.300309 
L 118.046381 126.503586 
L 116.01522 126.770866 
L 114.009039 127.136333 
L 112.02738 127.577864 
L 110.069795 128.086912 
L 108.135849 128.625417 
L 106.225116 129.156564 
L 104.337181 129.512144 
L 102.471638 128.938686 
L 100.628091 127.525483 
L 98.806154 127.165392 
L 97.005448 127.659579 
L 95.225605 128.310928 
L 93.466263 128.880278 
L 91.727072 129.386268 
L 90.007687 129.787318 
L 88.307771 130.150188 
L 86.626995 130.469405 
L 84.965038 130.736598 
L 83.321587 131.037165 
L 81.696332 131.267105 
L 80.088975 131.567593 
L 78.49922 131.848638 
L 76.92678 132.144026 
L 75.371374 132.562919 
L 73.832727 132.888539 
" style="fill:none;stroke:#2ca02c;stroke-linecap:square;stroke-width:1.5;"/>
   </g>
   <g id="line2d_20">
    <path clip-path="url(#pd61970fc2f)" d="M 398.487273 111.841163 
L 391.540314 121.70488 
L 384.750127 117.893274 
L 378.111464 92.348088 
L 371.61931 82.727664 
L 365.268868 85.488487 
L 359.055547 90.616063 
L 352.974953 93.962096 
L 347.02288 155.674337 
L 341.195294 76.101701 
L 335.488331 71.676887 
L 329.898284 76.620233 
L 324.421597 79.213139 
L 319.054856 80.261646 
L 313.794783 80.336058 
L 308.638229 79.889002 
L 303.582168 79.251319 
L 298.623691 78.719738 
L 293.76 78.528459 
L 288.988402 78.828176 
L 284.306307 79.649822 
L 279.71122 80.908993 
L 275.200736 82.455798 
L 270.772543 84.123169 
L 266.424407 85.782654 
L 262.154177 87.345595 
L 257.959778 88.759782 
L 253.839208 89.985096 
L 249.790534 90.956788 
L 245.811892 91.545816 
L 241.901479 91.530666 
L 238.057556 90.740895 
L 234.27844 89.376973 
L 230.562508 88.045979 
L 226.908187 87.258043 
L 223.313957 87.129399 
L 219.778349 87.571881 
L 216.299939 88.534478 
L 212.877352 90.163443 
L 209.509254 92.6046 
L 206.194353 92.173676 
L 202.931401 88.729192 
L 199.719184 87.876264 
L 196.556528 88.02168 
L 193.442297 88.35315 
L 190.375385 88.6902 
L 187.354722 89.003204 
L 184.37927 89.29974 
L 181.448022 89.598108 
L 178.56 89.91738 
L 175.714254 90.275016 
L 172.909864 90.685606 
L 170.145933 91.160487 
L 167.421594 91.709835 
L 164.736 92.343042 
L 162.088332 93.071322 
L 159.477791 93.906909 
L 156.903603 94.857942 
L 154.365013 95.914263 
L 151.861288 97.019777 
L 149.391714 98.048299 
L 146.955597 98.816903 
L 144.552262 99.176854 
L 142.181053 99.13378 
L 139.841328 98.86943 
L 137.532465 98.625686 
L 135.253857 98.568382 
L 133.004915 98.750687 
L 130.785061 99.185429 
L 128.593735 100.079409 
L 126.430391 102.527937 
L 124.294496 108.422193 
L 122.185532 111.697896 
L 120.102991 107.046136 
L 118.046381 103.356437 
L 116.01522 102.167996 
L 114.009039 102.091567 
L 112.02738 102.396141 
L 110.069795 102.811077 
L 108.135849 103.241304 
L 106.225116 103.655541 
L 104.337181 104.044604 
L 102.471638 104.409494 
L 100.628091 104.7533 
L 98.806154 105.080599 
L 97.005448 105.396591 
L 95.225605 105.704048 
L 93.466263 106.00733 
L 91.727072 106.306061 
L 90.007687 106.599875 
L 88.307771 106.88597 
L 86.626995 107.158498 
L 84.965038 107.418133 
L 83.321587 107.662567 
L 81.696332 107.900893 
L 80.088975 108.140204 
L 78.49922 108.385918 
L 76.92678 108.647479 
L 75.371374 108.915776 
L 73.832727 109.199158 
" style="fill:none;stroke:#d62728;stroke-linecap:square;stroke-width:1.5;"/>
   </g>
   <g id="line2d_21">
    <path clip-path="url(#pd61970fc2f)" d="M 398.487273 103.150744 
L 391.540314 100.140559 
L 384.750127 99.220076 
L 378.111464 100.472188 
L 371.61931 104.146999 
L 365.268868 110.467439 
L 359.055547 118.282403 
L 352.974953 120.337187 
L 347.02288 106.715988 
L 341.195294 87.100016 
L 335.488331 75.039878 
L 329.898284 70.361168 
L 324.421597 70.620437 
L 319.054856 77.066448 
L 313.794783 97.336656 
L 308.638229 75.204186 
L 303.582168 61.103176 
L 298.623691 60.08386 
L 293.76 61.030817 
L 288.988402 62.444868 
L 284.306307 63.974668 
L 279.71122 65.467425 
L 275.200736 66.830563 
L 270.772543 68.015697 
L 266.424407 69.020241 
L 262.154177 69.866885 
L 257.959778 70.60422 
L 253.839208 71.303971 
L 249.790534 72.0598 
L 245.811892 72.945529 
L 241.901479 73.874317 
L 238.057556 74.473963 
L 234.27844 74.352195 
L 230.562508 73.647697 
L 226.908187 72.906746 
L 223.313957 72.481981 
L 219.778349 72.377691 
L 216.299939 72.425414 
L 212.877352 72.55971 
L 209.509254 74.224703 
L 206.194353 77.950342 
L 202.931401 76.187184 
L 199.719184 75.610661 
L 196.556528 76.141521 
L 193.442297 76.88799 
L 190.375385 77.64195 
L 187.354722 78.365401 
L 184.37927 79.055772 
L 181.448022 79.718216 
L 178.56 80.358841 
L 175.714254 80.982974 
L 172.909864 81.594356 
L 170.145933 82.193779 
L 167.421594 82.778719 
L 164.736 83.3433 
L 162.088332 83.881881 
L 159.477791 84.394923 
L 156.903603 84.892448 
L 154.365013 85.390896 
L 151.861288 85.905293 
L 149.391714 86.446305 
L 146.955597 87.023484 
L 144.552262 87.65273 
L 142.181053 88.360587 
L 139.841328 89.129319 
L 137.532465 89.585418 
L 135.253857 89.292149 
L 133.004915 89.046603 
L 130.785061 89.160453 
L 128.593735 89.436149 
L 126.430391 89.76218 
L 124.294496 90.103552 
L 122.185532 90.45421 
L 120.102991 90.818118 
L 118.046381 91.201384 
L 116.01522 91.607574 
L 114.009039 92.031286 
L 112.02738 92.452956 
L 110.069795 92.835625 
L 108.135849 93.13077 
L 106.225116 93.296135 
L 104.337181 93.316686 
L 102.471638 93.217181 
L 100.628091 93.052332 
L 98.806154 92.886138 
L 97.005448 92.776117 
L 95.225605 92.774055 
L 93.466263 92.957746 
L 91.727072 93.503888 
L 90.007687 94.775963 
L 88.307771 96.847357 
L 86.626995 97.901963 
L 84.965038 96.610638 
L 83.321587 94.929749 
L 81.696332 93.954206 
L 80.088975 93.540407 
L 78.49922 93.426723 
L 76.92678 93.466779 
L 75.371374 93.585228 
L 73.832727 93.75101 
" style="fill:none;stroke:#9467bd;stroke-linecap:square;stroke-width:1.5;"/>
   </g>
   <g id="line2d_22">
    <path clip-path="url(#pd61970fc2f)" d="M 398.487273 86.434247 
L 391.540314 79.8027 
L 384.750127 76.546831 
L 378.111464 74.922545 
L 371.61931 74.071995 
L 365.268868 73.678221 
L 359.055547 73.472955 
L 352.974953 73.24291 
L 347.02288 72.89121 
L 341.195294 72.319532 
L 335.488331 71.410737 
L 329.898284 69.379947 
L 324.421597 65.455192 
L 319.054856 61.727197 
L 313.794783 60.178042 
L 308.638229 60.214519 
L 303.582168 60.744557 
L 298.623691 60.959584 
L 293.76 61.983878 
L 288.988402 65.52222 
L 284.306307 61.739736 
L 279.71122 63.298198 
L 275.200736 65.271849 
L 270.772543 66.990529 
L 266.424407 68.427022 
L 262.154177 69.598011 
L 257.959778 70.518994 
L 253.839208 71.201347 
L 249.790534 71.646419 
L 245.811892 71.840952 
L 241.901479 71.764401 
L 238.057556 71.431568 
L 234.27844 70.957139 
L 230.562508 70.528267 
L 226.908187 70.28216 
L 223.313957 70.252624 
L 219.778349 70.424334 
L 216.299939 70.800873 
L 212.877352 71.446229 
L 209.509254 72.359139 
L 206.194353 72.3053 
L 202.931401 71.293731 
L 199.719184 71.099589 
L 196.556528 71.325966 
L 193.442297 71.685862 
L 190.375385 72.10037 
L 187.354722 72.55053 
L 184.37927 73.034168 
L 181.448022 73.549159 
L 178.56 74.079724 
L 175.714254 74.583516 
L 172.909864 74.999446 
L 170.145933 75.289881 
L 167.421594 75.485941 
L 164.736 75.675061 
L 162.088332 75.936383 
L 159.477791 76.295335 
L 156.903603 76.724115 
L 154.365013 77.171825 
L 151.861288 77.665232 
L 149.391714 78.631419 
L 146.955597 80.059881 
L 144.552262 79.843736 
L 142.181053 79.393618 
L 139.841328 79.622588 
L 137.532465 80.137602 
L 135.253857 80.706417 
L 133.004915 81.254564 
L 130.785061 81.761558 
L 128.593735 82.221875 
L 126.430391 82.632606 
L 124.294496 82.991227 
L 122.185532 83.296162 
L 120.102991 83.550188 
L 118.046381 83.761315 
L 116.01522 83.941364 
L 114.009039 84.103683 
L 112.02738 84.260379 
L 110.069795 84.423866 
L 108.135849 84.608323 
L 106.225116 84.832813 
L 104.337181 85.099838 
L 102.471638 85.269552 
L 100.628091 85.142418 
L 98.806154 84.969928 
L 97.005448 84.979977 
L 95.225605 85.135712 
L 93.466263 85.369415 
L 91.727072 85.640658 
L 90.007687 85.91824 
L 88.307771 86.174517 
L 86.626995 86.381981 
L 84.965038 86.51928 
L 83.321587 86.582087 
L 81.696332 86.579458 
L 80.088975 86.540717 
L 78.49922 86.498853 
L 76.92678 86.489631 
L 75.371374 86.554664 
L 73.832727 86.74151 
" style="fill:none;stroke:#8c564b;stroke-linecap:square;stroke-width:1.5;"/>
   </g>
   <g id="line2d_23">
    <path clip-path="url(#pd61970fc2f)" d="M 398.487273 85.51276 
L 391.540314 83.007227 
L 384.750127 80.867987 
L 378.111464 77.534751 
L 371.61931 71.378127 
L 365.268868 66.39326 
L 359.055547 66.928226 
L 352.974953 67.191072 
L 347.02288 67.443123 
L 341.195294 67.898423 
L 335.488331 68.648286 
L 329.898284 69.659361 
L 324.421597 70.63046 
L 319.054856 70.702227 
L 313.794783 68.698908 
L 308.638229 64.916102 
L 303.582168 61.538806 
L 298.623691 59.880265 
L 293.76 59.805819 
L 288.988402 60.953946 
L 284.306307 63.403294 
L 279.71122 67.324024 
L 275.200736 64.865127 
L 270.772543 61.255961 
L 266.424407 61.260037 
L 262.154177 61.858196 
L 257.959778 62.46015 
L 253.839208 62.992394 
L 249.790534 63.479445 
L 245.811892 63.958476 
L 241.901479 64.419212 
L 238.057556 64.76038 
L 234.27844 64.87197 
L 230.562508 64.798514 
L 226.908187 64.707318 
L 223.313957 64.711725 
L 219.778349 64.813841 
L 216.299939 64.950774 
L 212.877352 65.087185 
L 209.509254 65.727906 
L 206.194353 67.201425 
L 202.931401 67.008569 
L 199.719184 67.019 
L 196.556528 67.3492 
L 193.442297 67.734797 
L 190.375385 68.10908 
L 187.354722 68.461544 
L 184.37927 68.795387 
L 181.448022 69.118377 
L 178.56 69.440582 
L 175.714254 69.77215 
L 172.909864 70.120897 
L 170.145933 70.491672 
L 167.421594 70.888455 
L 164.736 71.318018 
L 162.088332 71.793861 
L 159.477791 72.335302 
L 156.903603 72.910813 
L 154.365013 73.240623 
L 151.861288 73.25133 
L 149.391714 73.391823 
L 146.955597 73.69798 
L 144.552262 74.078918 
L 142.181053 74.489228 
L 139.841328 74.904139 
L 137.532465 75.301142 
L 135.253857 75.658276 
L 133.004915 75.961546 
L 130.785061 76.211495 
L 128.593735 76.420627 
L 126.430391 76.603784 
L 124.294496 76.770341 
L 122.185532 76.92419 
L 120.102991 77.077379 
L 118.046381 77.298243 
L 116.01522 77.786066 
L 114.009039 78.498121 
L 112.02738 78.583397 
L 110.069795 78.193203 
L 108.135849 77.952267 
L 106.225116 77.895597 
L 104.337181 77.931487 
L 102.471638 78.008836 
L 100.628091 78.106702 
L 98.806154 78.216569 
L 97.005448 78.33441 
L 95.225605 78.457616 
L 93.466263 78.583896 
L 91.727072 78.711119 
L 90.007687 78.836388 
L 88.307771 78.955677 
L 86.626995 79.062966 
L 84.965038 79.152438 
L 83.321587 79.229916 
L 81.696332 79.332361 
L 80.088975 79.519784 
L 78.49922 79.800536 
L 76.92678 80.115518 
L 75.371374 80.413864 
L 73.832727 80.673138 
" style="fill:none;stroke:#e377c2;stroke-linecap:square;stroke-width:1.5;"/>
   </g>
   <g id="line2d_24">
    <path clip-path="url(#pd61970fc2f)" d="M 398.487273 93.777401 
L 391.540314 98.199964 
L 384.750127 93.807209 
L 378.111464 82.263151 
L 371.61931 73.543249 
L 365.268868 69.303646 
L 359.055547 68.462765 
L 352.974953 72.562989 
L 347.02288 85.464256 
L 341.195294 68.384512 
L 335.488331 62.281947 
L 329.898284 60.686814 
L 324.421597 59.895229 
L 319.054856 59.254879 
L 313.794783 58.629284 
L 308.638229 57.999836 
L 303.582168 57.327345 
L 298.623691 56.644541 
L 293.76 56.327623 
L 288.988402 56.664135 
L 284.306307 57.496756 
L 279.71122 58.508011 
L 275.200736 59.417578 
L 270.772543 60.399843 
L 266.424407 63.172432 
L 262.154177 62.365931 
L 257.959778 62.32303 
L 253.839208 62.715142 
L 249.790534 63.016811 
L 245.811892 63.1628 
L 241.901479 63.158423 
L 238.057556 63.034505 
L 234.27844 62.858235 
L 230.562508 62.718348 
L 226.908187 62.678947 
L 223.313957 62.761236 
L 219.778349 62.965777 
L 216.299939 63.301351 
L 212.877352 63.803903 
L 209.509254 64.44564 
L 206.194353 64.543461 
L 202.931401 64.149453 
L 199.719184 64.190349 
L 196.556528 64.474686 
L 193.442297 64.834937 
L 190.375385 65.198462 
L 187.354722 65.514302 
L 184.37927 65.75533 
L 181.448022 65.939621 
L 178.56 66.118176 
L 175.714254 66.334251 
L 172.909864 66.598002 
L 170.145933 66.887668 
L 167.421594 67.161198 
L 164.736 67.40662 
L 162.088332 67.816554 
L 159.477791 68.210702 
L 156.903603 68.160554 
L 154.365013 68.402217 
L 151.861288 68.879468 
L 149.391714 69.404694 
L 146.955597 69.910937 
L 144.552262 70.37732 
L 142.181053 70.798184 
L 139.841328 71.176446 
L 137.532465 71.520932 
L 135.253857 71.843246 
L 133.004915 72.155997 
L 130.785061 72.473146 
L 128.593735 72.811597 
L 126.430391 73.184577 
L 124.294496 73.537563 
L 122.185532 73.672088 
L 120.102991 73.633506 
L 118.046381 73.664353 
L 116.01522 73.77702 
L 114.009039 73.90878 
L 112.02738 74.017391 
L 110.069795 74.084769 
L 108.135849 74.111678 
L 106.225116 74.110751 
L 104.337181 74.098467 
L 102.471638 74.090109 
L 100.628091 74.100144 
L 98.806154 74.153353 
L 97.005448 74.313581 
L 95.225605 74.711129 
L 93.466263 75.337664 
L 91.727072 75.60864 
L 90.007687 75.299995 
L 88.307771 74.959661 
L 86.626995 74.808203 
L 84.965038 74.794788 
L 83.321587 74.8546 
L 81.696332 74.95267 
L 80.088975 75.071894 
L 78.49922 75.20461 
L 76.92678 75.346899 
L 75.371374 75.494688 
L 73.832727 75.644773 
" style="fill:none;stroke:#7f7f7f;stroke-linecap:square;stroke-width:1.5;"/>
   </g>
   <g id="line2d_25">
    <path clip-path="url(#pd61970fc2f)" d="M 398.487273 76.980733 
L 391.540314 74.576001 
L 384.750127 72.706401 
L 378.111464 70.772169 
L 371.61931 68.379806 
L 365.268868 65.156386 
L 359.055547 61.942348 
L 352.974953 60.074293 
L 347.02288 59.308745 
L 341.195294 58.973632 
L 335.488331 58.561654 
L 329.898284 57.475336 
L 324.421597 56.697571 
L 319.054856 56.64849 
L 313.794783 57.677617 
L 308.638229 58.535709 
L 303.582168 59.116961 
L 298.623691 59.19307 
L 293.76 58.622546 
L 288.988402 57.782234 
L 284.306307 57.297991 
L 279.71122 57.396903 
L 275.200736 57.955335 
L 270.772543 58.841465 
L 266.424407 60.09074 
L 262.154177 61.595329 
L 257.959778 60.584883 
L 253.839208 59.079506 
L 249.790534 59.012041 
L 245.811892 59.275403 
L 241.901479 59.580155 
L 238.057556 59.830692 
L 234.27844 59.971534 
L 230.562508 60.022365 
L 226.908187 60.058373 
L 223.313957 60.132544 
L 219.778349 60.246837 
L 216.299939 60.368212 
L 212.877352 60.464819 
L 209.509254 60.737256 
L 206.194353 61.387492 
L 202.931401 61.423875 
L 199.719184 61.550923 
L 196.556528 61.800002 
L 193.442297 62.065527 
L 190.375385 62.330958 
L 187.354722 62.602278 
L 184.37927 62.88598 
L 181.448022 63.184629 
L 178.56 63.499001 
L 175.714254 63.83138 
L 172.909864 64.187771 
L 170.145933 64.574588 
L 167.421594 64.95844 
L 164.736 65.173944 
L 162.088332 65.258597 
L 159.477791 65.45778 
L 156.903603 65.740889 
L 154.365013 66.044959 
L 151.861288 66.344147 
L 149.391714 66.633023 
L 146.955597 66.915131 
L 144.552262 67.193744 
L 142.181053 67.46585 
L 139.841328 67.720402 
L 137.532465 67.940629 
L 135.253857 68.122652 
L 133.004915 68.340912 
L 130.785061 68.663189 
L 128.593735 68.834578 
L 126.430391 68.9362 
L 124.294496 69.112456 
L 122.185532 69.320887 
L 120.102991 69.524635 
L 118.046381 69.712674 
L 116.01522 69.884227 
L 114.009039 70.04129 
L 112.02738 70.185724 
L 110.069795 70.317913 
L 108.135849 70.435153 
L 106.225116 70.53011 
L 104.337181 70.593614 
L 102.471638 70.633709 
L 100.628091 70.697692 
L 98.806154 70.807766 
L 97.005448 70.923514 
L 95.225605 71.012672 
L 93.466263 71.069332 
L 91.727072 71.10109 
L 90.007687 71.119983 
L 88.307771 71.138801 
L 86.626995 71.169979 
L 84.965038 71.227649 
L 83.321587 71.335433 
L 81.696332 71.537044 
L 80.088975 71.881484 
L 78.49922 72.27587 
L 76.92678 72.411693 
L 75.371374 72.271001 
L 73.832727 72.121119 
" style="fill:none;stroke:#bcbd22;stroke-linecap:square;stroke-width:1.5;"/>
   </g>
   <g id="line2d_26">
    <path clip-path="url(#pd61970fc2f)" d="M 398.487273 70.255547 
L 391.540314 68.889295 
L 384.750127 65.945489 
L 378.111464 63.377776 
L 371.61931 64.840558 
L 365.268868 66.320846 
L 359.055547 67.493975 
L 352.974953 67.284393 
L 347.02288 64.802366 
L 341.195294 61.497272 
L 335.488331 59.12836 
L 329.898284 57.945032 
L 324.421597 57.769432 
L 319.054856 58.996018 
L 313.794783 62.771613 
L 308.638229 59.194503 
L 303.582168 55.431661 
L 298.623691 54.596832 
L 293.76 54.541318 
L 288.988402 54.786058 
L 284.306307 55.145045 
L 279.71122 55.589815 
L 275.200736 56.147075 
L 270.772543 56.759775 
L 266.424407 57.325048 
L 262.154177 57.747552 
L 257.959778 58.049572 
L 253.839208 58.942919 
L 249.790534 58.709656 
L 245.811892 58.478045 
L 241.901479 58.512685 
L 238.057556 58.529958 
L 234.27844 58.517165 
L 230.562508 58.519749 
L 226.908187 58.577014 
L 223.313957 58.705431 
L 219.778349 58.90836 
L 216.299939 59.191286 
L 212.877352 59.568967 
L 209.509254 59.998369 
L 206.194353 60.090839 
L 202.931401 59.9635 
L 199.719184 60.081987 
L 196.556528 60.29191 
L 193.442297 60.486974 
L 190.375385 60.652747 
L 187.354722 60.814301 
L 184.37927 60.996334 
L 181.448022 61.203574 
L 178.56 61.419294 
L 175.714254 61.607499 
L 172.909864 61.739696 
L 170.145933 61.918818 
L 167.421594 62.086492 
L 164.736 62.240538 
L 162.088332 62.60507 
L 159.477791 63.034089 
L 156.903603 63.444489 
L 154.365013 63.821486 
L 151.861288 64.170647 
L 149.391714 64.502282 
L 146.955597 64.827409 
L 144.552262 65.158068 
L 142.181053 65.508726 
L 139.841328 65.886022 
L 137.532465 66.21801 
L 135.253857 66.366976 
L 133.004915 66.440258 
L 130.785061 66.547072 
L 128.593735 66.671906 
L 126.430391 66.792842 
L 124.294496 66.903089 
L 122.185532 67.002214 
L 120.102991 67.089646 
L 118.046381 67.163677 
L 116.01522 67.228661 
L 114.009039 67.322118 
L 112.02738 67.540018 
L 110.069795 67.823458 
L 108.135849 67.873685 
L 106.225116 67.816265 
L 104.337181 67.823651 
L 102.471638 67.885211 
L 100.628091 67.96913 
L 98.806154 68.060735 
L 97.005448 68.15484 
L 95.225605 68.248785 
L 93.466263 68.339158 
L 91.727072 68.420635 
L 90.007687 68.488624 
L 88.307771 68.544204 
L 86.626995 68.593043 
L 84.965038 68.645361 
L 83.321587 68.705334 
L 81.696332 68.763228 
L 80.088975 68.813367 
L 78.49922 68.859201 
L 76.92678 68.908625 
L 75.371374 68.971141 
L 73.832727 69.060639 
" style="fill:none;stroke:#17becf;stroke-linecap:square;stroke-width:1.5;"/>
   </g>
   <g id="line2d_27">
    <path clip-path="url(#pd61970fc2f)" d="M 398.487273 76.037416 
L 391.540314 70.205323 
L 384.750127 67.013839 
L 378.111464 65.9313 
L 371.61931 67.615385 
L 365.268868 75.919432 
L 359.055547 65.729425 
L 352.974953 59.874647 
L 347.02288 57.700415 
L 341.195294 56.133389 
L 335.488331 54.795559 
L 329.898284 53.900226 
L 324.421597 53.568 
L 319.054856 53.611634 
L 313.794783 53.816094 
L 308.638229 53.994264 
L 303.582168 53.890474 
L 298.623691 53.997271 
L 293.76 54.370979 
L 288.988402 55.066758 
L 284.306307 55.40244 
L 279.71122 55.438813 
L 275.200736 55.446285 
L 270.772543 55.610005 
L 266.424407 55.939145 
L 262.154177 56.386327 
L 257.959778 56.947978 
L 253.839208 57.666323 
L 249.790534 58.000054 
L 245.811892 57.030977 
L 241.901479 56.699658 
L 238.057556 56.765321 
L 234.27844 56.859163 
L 230.562508 56.921947 
L 226.908187 56.980972 
L 223.313957 57.062154 
L 219.778349 57.16452 
L 216.299939 57.264416 
L 212.877352 57.329327 
L 209.509254 57.442207 
L 206.194353 57.77086 
L 202.931401 57.896542 
L 199.719184 58.08433 
L 196.556528 58.326164 
L 193.442297 58.578317 
L 190.375385 58.836134 
L 187.354722 59.099968 
L 184.37927 59.370158 
L 181.448022 59.648337 
L 178.56 59.936885 
L 175.714254 60.225718 
L 172.909864 60.440661 
L 170.145933 60.531223 
L 167.421594 60.667101 
L 164.736 60.869549 
L 162.088332 61.094825 
L 159.477791 61.330936 
L 156.903603 61.576465 
L 154.365013 61.826825 
L 151.861288 62.070083 
L 149.391714 62.285539 
L 146.955597 62.451722 
L 144.552262 62.599974 
L 142.181053 62.81137 
L 139.841328 63.032481 
L 137.532465 63.293852 
L 135.253857 63.582415 
L 133.004915 63.857972 
L 130.785061 64.109249 
L 128.593735 64.337529 
L 126.430391 64.545915 
L 124.294496 64.735641 
L 122.185532 64.903541 
L 120.102991 65.038741 
L 118.046381 65.12471 
L 116.01522 65.172797 
L 114.009039 65.229859 
L 112.02738 65.297254 
L 110.069795 65.355024 
L 108.135849 65.39832 
L 106.225116 65.43128 
L 104.337181 65.460025 
L 102.471638 65.491562 
L 100.628091 65.53868 
L 98.806154 65.631953 
L 97.005448 65.81628 
L 95.225605 66.035166 
L 93.466263 66.10735 
L 91.727072 66.074577 
L 90.007687 66.063678 
L 88.307771 66.095966 
L 86.626995 66.155066 
L 84.965038 66.225906 
L 83.321587 66.298035 
L 81.696332 66.362684 
L 80.088975 66.41308 
L 78.49922 66.449525 
L 76.92678 66.489464 
L 75.371374 66.560938 
L 73.832727 66.663264 
" style="fill:none;stroke:#1f77b4;stroke-linecap:square;stroke-width:1.5;"/>
   </g>
   <g id="patch_3">
    <path d="M 57.6 307.584 
L 57.6 41.472 
" style="fill:none;stroke:#000000;stroke-linecap:square;stroke-linejoin:miter;stroke-width:0.8;"/>
   </g>
   <g id="patch_4">
    <path d="M 414.72 307.584 
L 414.72 41.472 
" style="fill:none;stroke:#000000;stroke-linecap:square;stroke-linejoin:miter;stroke-width:0.8;"/>
   </g>
   <g id="patch_5">
    <path d="M 57.6 307.584 
L 414.72 307.584 
" style="fill:none;stroke:#000000;stroke-linecap:square;stroke-linejoin:miter;stroke-width:0.8;"/>
   </g>
   <g id="patch_6">
    <path d="M 57.6 41.472 
L 414.72 41.472 
" style="fill:none;stroke:#000000;stroke-linecap:square;stroke-linejoin:miter;stroke-width:0.8;"/>
   </g>
   <g id="text_20">
    <!-- transmissionToWavelengths -->
    <defs>
     <path d="M -0.296875 72.90625 
L 61.375 72.90625 
L 61.375 64.59375 
L 35.5 64.59375 
L 35.5 0 
L 25.59375 0 
L 25.59375 64.59375 
L -0.296875 64.59375 
z
" id="DejaVuSans-84"/>
     <path d="M 3.328125 72.90625 
L 13.28125 72.90625 
L 28.609375 11.28125 
L 43.890625 72.90625 
L 54.984375 72.90625 
L 70.3125 11.28125 
L 85.59375 72.90625 
L 95.609375 72.90625 
L 77.296875 0 
L 64.890625 0 
L 49.515625 63.28125 
L 33.984375 0 
L 21.578125 0 
z
" id="DejaVuSans-87"/>
    </defs>
    <g transform="translate(152.796562 35.472)scale(0.12 -0.12)">
     <use xlink:href="#DejaVuSans-116"/>
     <use x="39.208984" xlink:href="#DejaVuSans-114"/>
     <use x="80.322266" xlink:href="#DejaVuSans-97"/>
     <use x="141.601562" xlink:href="#DejaVuSans-110"/>
     <use x="204.980469" xlink:href="#DejaVuSans-115"/>
     <use x="257.080078" xlink:href="#DejaVuSans-109"/>
     <use x="354.492188" xlink:href="#DejaVuSans-105"/>
     <use x="382.275391" xlink:href="#DejaVuSans-115"/>
     <use x="434.375" xlink:href="#DejaVuSans-115"/>
     <use x="486.474609" xlink:href="#DejaVuSans-105"/>
     <use x="514.257812" xlink:href="#DejaVuSans-111"/>
     <use x="575.439453" xlink:href="#DejaVuSans-110"/>
     <use x="638.818359" xlink:href="#DejaVuSans-84"/>
     <use x="682.902344" xlink:href="#DejaVuSans-111"/>
     <use x="744.083984" xlink:href="#DejaVuSans-87"/>
     <use x="836.585938" xlink:href="#DejaVuSans-97"/>
     <use x="897.865234" xlink:href="#DejaVuSans-118"/>
     <use x="957.044922" xlink:href="#DejaVuSans-101"/>
     <use x="1018.568359" xlink:href="#DejaVuSans-108"/>
     <use x="1046.351562" xlink:href="#DejaVuSans-101"/>
     <use x="1107.875" xlink:href="#DejaVuSans-110"/>
     <use x="1171.253906" xlink:href="#DejaVuSans-103"/>
     <use x="1234.730469" xlink:href="#DejaVuSans-116"/>
     <use x="1273.939453" xlink:href="#DejaVuSans-104"/>
     <use x="1337.318359" xlink:href="#DejaVuSans-115"/>
    </g>
   </g>
   <g id="legend_1">
    <g id="patch_7">
     <path d="M 265.565313 250.80925 
L 407.72 250.80925 
Q 409.72 250.80925 409.72 248.80925 
L 409.72 100.24675 
Q 409.72 98.24675 407.72 98.24675 
L 265.565313 98.24675 
Q 263.565313 98.24675 263.565313 100.24675 
L 263.565313 248.80925 
Q 263.565313 250.80925 265.565313 250.80925 
z
" style="fill:#ffffff;opacity:0.8;stroke:#cccccc;stroke-linejoin:miter;"/>
    </g>
    <g id="line2d_28">
     <path d="M 267.565313 106.345187 
L 287.565313 106.345187 
" style="fill:none;stroke:#ff7f0e;stroke-linecap:square;stroke-width:1.5;"/>
    </g>
    <g id="line2d_29"/>
    <g id="text_21">
     <!-- spacing_thickness:0.5 -->
     <defs>
      <path d="M 18.109375 8.203125 
L 18.109375 -20.796875 
L 9.078125 -20.796875 
L 9.078125 54.6875 
L 18.109375 54.6875 
L 18.109375 46.390625 
Q 20.953125 51.265625 25.265625 53.625 
Q 29.59375 56 35.59375 56 
Q 45.5625 56 51.78125 48.09375 
Q 58.015625 40.1875 58.015625 27.296875 
Q 58.015625 14.40625 51.78125 6.484375 
Q 45.5625 -1.421875 35.59375 -1.421875 
Q 29.59375 -1.421875 25.265625 0.953125 
Q 20.953125 3.328125 18.109375 8.203125 
z
M 48.6875 27.296875 
Q 48.6875 37.203125 44.609375 42.84375 
Q 40.53125 48.484375 33.40625 48.484375 
Q 26.265625 48.484375 22.1875 42.84375 
Q 18.109375 37.203125 18.109375 27.296875 
Q 18.109375 17.390625 22.1875 11.75 
Q 26.265625 6.109375 33.40625 6.109375 
Q 40.53125 6.109375 44.609375 11.75 
Q 48.6875 17.390625 48.6875 27.296875 
z
" id="DejaVuSans-112"/>
      <path d="M 48.78125 52.59375 
L 48.78125 44.1875 
Q 44.96875 46.296875 41.140625 47.34375 
Q 37.3125 48.390625 33.40625 48.390625 
Q 24.65625 48.390625 19.8125 42.84375 
Q 14.984375 37.3125 14.984375 27.296875 
Q 14.984375 17.28125 19.8125 11.734375 
Q 24.65625 6.203125 33.40625 6.203125 
Q 37.3125 6.203125 41.140625 7.25 
Q 44.96875 8.296875 48.78125 10.40625 
L 48.78125 2.09375 
Q 45.015625 0.34375 40.984375 -0.53125 
Q 36.96875 -1.421875 32.421875 -1.421875 
Q 20.0625 -1.421875 12.78125 6.34375 
Q 5.515625 14.109375 5.515625 27.296875 
Q 5.515625 40.671875 12.859375 48.328125 
Q 20.21875 56 33.015625 56 
Q 37.15625 56 41.109375 55.140625 
Q 45.0625 54.296875 48.78125 52.59375 
z
" id="DejaVuSans-99"/>
      <path d="M 50.984375 -16.609375 
L 50.984375 -23.578125 
L -0.984375 -23.578125 
L -0.984375 -16.609375 
z
" id="DejaVuSans-95"/>
      <path d="M 9.078125 75.984375 
L 18.109375 75.984375 
L 18.109375 31.109375 
L 44.921875 54.6875 
L 56.390625 54.6875 
L 27.390625 29.109375 
L 57.625 0 
L 45.90625 0 
L 18.109375 26.703125 
L 18.109375 0 
L 9.078125 0 
z
" id="DejaVuSans-107"/>
      <path d="M 11.71875 12.40625 
L 22.015625 12.40625 
L 22.015625 0 
L 11.71875 0 
z
M 11.71875 51.703125 
L 22.015625 51.703125 
L 22.015625 39.3125 
L 11.71875 39.3125 
z
" id="DejaVuSans-58"/>
     </defs>
     <g transform="translate(295.565313 109.845187)scale(0.1 -0.1)">
      <use xlink:href="#DejaVuSans-115"/>
      <use x="52.099609" xlink:href="#DejaVuSans-112"/>
      <use x="115.576172" xlink:href="#DejaVuSans-97"/>
      <use x="176.855469" xlink:href="#DejaVuSans-99"/>
      <use x="231.835938" xlink:href="#DejaVuSans-105"/>
      <use x="259.619141" xlink:href="#DejaVuSans-110"/>
      <use x="322.998047" xlink:href="#DejaVuSans-103"/>
      <use x="386.474609" xlink:href="#DejaVuSans-95"/>
      <use x="436.474609" xlink:href="#DejaVuSans-116"/>
      <use x="475.683594" xlink:href="#DejaVuSans-104"/>
      <use x="539.0625" xlink:href="#DejaVuSans-105"/>
      <use x="566.845703" xlink:href="#DejaVuSans-99"/>
      <use x="621.826172" xlink:href="#DejaVuSans-107"/>
      <use x="679.736328" xlink:href="#DejaVuSans-110"/>
      <use x="743.115234" xlink:href="#DejaVuSans-101"/>
      <use x="804.638672" xlink:href="#DejaVuSans-115"/>
      <use x="856.738281" xlink:href="#DejaVuSans-115"/>
      <use x="908.837891" xlink:href="#DejaVuSans-58"/>
      <use x="942.529297" xlink:href="#DejaVuSans-48"/>
      <use x="1006.152344" xlink:href="#DejaVuSans-46"/>
      <use x="1037.939453" xlink:href="#DejaVuSans-53"/>
     </g>
    </g>
    <g id="line2d_30">
     <path d="M 267.565313 121.301437 
L 287.565313 121.301437 
" style="fill:none;stroke:#2ca02c;stroke-linecap:square;stroke-width:1.5;"/>
    </g>
    <g id="line2d_31"/>
    <g id="text_22">
     <!-- spacing_thickness:1.0 -->
     <g transform="translate(295.565313 124.801437)scale(0.1 -0.1)">
      <use xlink:href="#DejaVuSans-115"/>
      <use x="52.099609" xlink:href="#DejaVuSans-112"/>
      <use x="115.576172" xlink:href="#DejaVuSans-97"/>
      <use x="176.855469" xlink:href="#DejaVuSans-99"/>
      <use x="231.835938" xlink:href="#DejaVuSans-105"/>
      <use x="259.619141" xlink:href="#DejaVuSans-110"/>
      <use x="322.998047" xlink:href="#DejaVuSans-103"/>
      <use x="386.474609" xlink:href="#DejaVuSans-95"/>
      <use x="436.474609" xlink:href="#DejaVuSans-116"/>
      <use x="475.683594" xlink:href="#DejaVuSans-104"/>
      <use x="539.0625" xlink:href="#DejaVuSans-105"/>
      <use x="566.845703" xlink:href="#DejaVuSans-99"/>
      <use x="621.826172" xlink:href="#DejaVuSans-107"/>
      <use x="679.736328" xlink:href="#DejaVuSans-110"/>
      <use x="743.115234" xlink:href="#DejaVuSans-101"/>
      <use x="804.638672" xlink:href="#DejaVuSans-115"/>
      <use x="856.738281" xlink:href="#DejaVuSans-115"/>
      <use x="908.837891" xlink:href="#DejaVuSans-58"/>
      <use x="942.529297" xlink:href="#DejaVuSans-49"/>
      <use x="1006.152344" xlink:href="#DejaVuSans-46"/>
      <use x="1037.939453" xlink:href="#DejaVuSans-48"/>
     </g>
    </g>
    <g id="line2d_32">
     <path d="M 267.565313 136.257688 
L 287.565313 136.257688 
" style="fill:none;stroke:#d62728;stroke-linecap:square;stroke-width:1.5;"/>
    </g>
    <g id="line2d_33"/>
    <g id="text_23">
     <!-- spacing_thickness:1.5 -->
     <g transform="translate(295.565313 139.757688)scale(0.1 -0.1)">
      <use xlink:href="#DejaVuSans-115"/>
      <use x="52.099609" xlink:href="#DejaVuSans-112"/>
      <use x="115.576172" xlink:href="#DejaVuSans-97"/>
      <use x="176.855469" xlink:href="#DejaVuSans-99"/>
      <use x="231.835938" xlink:href="#DejaVuSans-105"/>
      <use x="259.619141" xlink:href="#DejaVuSans-110"/>
      <use x="322.998047" xlink:href="#DejaVuSans-103"/>
      <use x="386.474609" xlink:href="#DejaVuSans-95"/>
      <use x="436.474609" xlink:href="#DejaVuSans-116"/>
      <use x="475.683594" xlink:href="#DejaVuSans-104"/>
      <use x="539.0625" xlink:href="#DejaVuSans-105"/>
      <use x="566.845703" xlink:href="#DejaVuSans-99"/>
      <use x="621.826172" xlink:href="#DejaVuSans-107"/>
      <use x="679.736328" xlink:href="#DejaVuSans-110"/>
      <use x="743.115234" xlink:href="#DejaVuSans-101"/>
      <use x="804.638672" xlink:href="#DejaVuSans-115"/>
      <use x="856.738281" xlink:href="#DejaVuSans-115"/>
      <use x="908.837891" xlink:href="#DejaVuSans-58"/>
      <use x="942.529297" xlink:href="#DejaVuSans-49"/>
      <use x="1006.152344" xlink:href="#DejaVuSans-46"/>
      <use x="1037.939453" xlink:href="#DejaVuSans-53"/>
     </g>
    </g>
    <g id="line2d_34">
     <path d="M 267.565313 151.213937 
L 287.565313 151.213937 
" style="fill:none;stroke:#9467bd;stroke-linecap:square;stroke-width:1.5;"/>
    </g>
    <g id="line2d_35"/>
    <g id="text_24">
     <!-- spacing_thickness:2.0 -->
     <defs>
      <path d="M 19.1875 8.296875 
L 53.609375 8.296875 
L 53.609375 0 
L 7.328125 0 
L 7.328125 8.296875 
Q 12.9375 14.109375 22.625 23.890625 
Q 32.328125 33.6875 34.8125 36.53125 
Q 39.546875 41.84375 41.421875 45.53125 
Q 43.3125 49.21875 43.3125 52.78125 
Q 43.3125 58.59375 39.234375 62.25 
Q 35.15625 65.921875 28.609375 65.921875 
Q 23.96875 65.921875 18.8125 64.3125 
Q 13.671875 62.703125 7.8125 59.421875 
L 7.8125 69.390625 
Q 13.765625 71.78125 18.9375 73 
Q 24.125 74.21875 28.421875 74.21875 
Q 39.75 74.21875 46.484375 68.546875 
Q 53.21875 62.890625 53.21875 53.421875 
Q 53.21875 48.921875 51.53125 44.890625 
Q 49.859375 40.875 45.40625 35.40625 
Q 44.1875 33.984375 37.640625 27.21875 
Q 31.109375 20.453125 19.1875 8.296875 
z
" id="DejaVuSans-50"/>
     </defs>
     <g transform="translate(295.565313 154.713937)scale(0.1 -0.1)">
      <use xlink:href="#DejaVuSans-115"/>
      <use x="52.099609" xlink:href="#DejaVuSans-112"/>
      <use x="115.576172" xlink:href="#DejaVuSans-97"/>
      <use x="176.855469" xlink:href="#DejaVuSans-99"/>
      <use x="231.835938" xlink:href="#DejaVuSans-105"/>
      <use x="259.619141" xlink:href="#DejaVuSans-110"/>
      <use x="322.998047" xlink:href="#DejaVuSans-103"/>
      <use x="386.474609" xlink:href="#DejaVuSans-95"/>
      <use x="436.474609" xlink:href="#DejaVuSans-116"/>
      <use x="475.683594" xlink:href="#DejaVuSans-104"/>
      <use x="539.0625" xlink:href="#DejaVuSans-105"/>
      <use x="566.845703" xlink:href="#DejaVuSans-99"/>
      <use x="621.826172" xlink:href="#DejaVuSans-107"/>
      <use x="679.736328" xlink:href="#DejaVuSans-110"/>
      <use x="743.115234" xlink:href="#DejaVuSans-101"/>
      <use x="804.638672" xlink:href="#DejaVuSans-115"/>
      <use x="856.738281" xlink:href="#DejaVuSans-115"/>
      <use x="908.837891" xlink:href="#DejaVuSans-58"/>
      <use x="942.529297" xlink:href="#DejaVuSans-50"/>
      <use x="1006.152344" xlink:href="#DejaVuSans-46"/>
      <use x="1037.939453" xlink:href="#DejaVuSans-48"/>
     </g>
    </g>
    <g id="line2d_36">
     <path d="M 267.565313 166.170187 
L 287.565313 166.170187 
" style="fill:none;stroke:#8c564b;stroke-linecap:square;stroke-width:1.5;"/>
    </g>
    <g id="line2d_37"/>
    <g id="text_25">
     <!-- spacing_thickness:2.5 -->
     <g transform="translate(295.565313 169.670187)scale(0.1 -0.1)">
      <use xlink:href="#DejaVuSans-115"/>
      <use x="52.099609" xlink:href="#DejaVuSans-112"/>
      <use x="115.576172" xlink:href="#DejaVuSans-97"/>
      <use x="176.855469" xlink:href="#DejaVuSans-99"/>
      <use x="231.835938" xlink:href="#DejaVuSans-105"/>
      <use x="259.619141" xlink:href="#DejaVuSans-110"/>
      <use x="322.998047" xlink:href="#DejaVuSans-103"/>
      <use x="386.474609" xlink:href="#DejaVuSans-95"/>
      <use x="436.474609" xlink:href="#DejaVuSans-116"/>
      <use x="475.683594" xlink:href="#DejaVuSans-104"/>
      <use x="539.0625" xlink:href="#DejaVuSans-105"/>
      <use x="566.845703" xlink:href="#DejaVuSans-99"/>
      <use x="621.826172" xlink:href="#DejaVuSans-107"/>
      <use x="679.736328" xlink:href="#DejaVuSans-110"/>
      <use x="743.115234" xlink:href="#DejaVuSans-101"/>
      <use x="804.638672" xlink:href="#DejaVuSans-115"/>
      <use x="856.738281" xlink:href="#DejaVuSans-115"/>
      <use x="908.837891" xlink:href="#DejaVuSans-58"/>
      <use x="942.529297" xlink:href="#DejaVuSans-50"/>
      <use x="1006.152344" xlink:href="#DejaVuSans-46"/>
      <use x="1037.939453" xlink:href="#DejaVuSans-53"/>
     </g>
    </g>
    <g id="line2d_38">
     <path d="M 267.565313 181.126438 
L 287.565313 181.126438 
" style="fill:none;stroke:#e377c2;stroke-linecap:square;stroke-width:1.5;"/>
    </g>
    <g id="line2d_39"/>
    <g id="text_26">
     <!-- spacing_thickness:3.0 -->
     <g transform="translate(295.565313 184.626438)scale(0.1 -0.1)">
      <use xlink:href="#DejaVuSans-115"/>
      <use x="52.099609" xlink:href="#DejaVuSans-112"/>
      <use x="115.576172" xlink:href="#DejaVuSans-97"/>
      <use x="176.855469" xlink:href="#DejaVuSans-99"/>
      <use x="231.835938" xlink:href="#DejaVuSans-105"/>
      <use x="259.619141" xlink:href="#DejaVuSans-110"/>
      <use x="322.998047" xlink:href="#DejaVuSans-103"/>
      <use x="386.474609" xlink:href="#DejaVuSans-95"/>
      <use x="436.474609" xlink:href="#DejaVuSans-116"/>
      <use x="475.683594" xlink:href="#DejaVuSans-104"/>
      <use x="539.0625" xlink:href="#DejaVuSans-105"/>
      <use x="566.845703" xlink:href="#DejaVuSans-99"/>
      <use x="621.826172" xlink:href="#DejaVuSans-107"/>
      <use x="679.736328" xlink:href="#DejaVuSans-110"/>
      <use x="743.115234" xlink:href="#DejaVuSans-101"/>
      <use x="804.638672" xlink:href="#DejaVuSans-115"/>
      <use x="856.738281" xlink:href="#DejaVuSans-115"/>
      <use x="908.837891" xlink:href="#DejaVuSans-58"/>
      <use x="942.529297" xlink:href="#DejaVuSans-51"/>
      <use x="1006.152344" xlink:href="#DejaVuSans-46"/>
      <use x="1037.939453" xlink:href="#DejaVuSans-48"/>
     </g>
    </g>
    <g id="line2d_40">
     <path d="M 267.565313 196.082687 
L 287.565313 196.082687 
" style="fill:none;stroke:#7f7f7f;stroke-linecap:square;stroke-width:1.5;"/>
    </g>
    <g id="line2d_41"/>
    <g id="text_27">
     <!-- spacing_thickness:3.5 -->
     <g transform="translate(295.565313 199.582687)scale(0.1 -0.1)">
      <use xlink:href="#DejaVuSans-115"/>
      <use x="52.099609" xlink:href="#DejaVuSans-112"/>
      <use x="115.576172" xlink:href="#DejaVuSans-97"/>
      <use x="176.855469" xlink:href="#DejaVuSans-99"/>
      <use x="231.835938" xlink:href="#DejaVuSans-105"/>
      <use x="259.619141" xlink:href="#DejaVuSans-110"/>
      <use x="322.998047" xlink:href="#DejaVuSans-103"/>
      <use x="386.474609" xlink:href="#DejaVuSans-95"/>
      <use x="436.474609" xlink:href="#DejaVuSans-116"/>
      <use x="475.683594" xlink:href="#DejaVuSans-104"/>
      <use x="539.0625" xlink:href="#DejaVuSans-105"/>
      <use x="566.845703" xlink:href="#DejaVuSans-99"/>
      <use x="621.826172" xlink:href="#DejaVuSans-107"/>
      <use x="679.736328" xlink:href="#DejaVuSans-110"/>
      <use x="743.115234" xlink:href="#DejaVuSans-101"/>
      <use x="804.638672" xlink:href="#DejaVuSans-115"/>
      <use x="856.738281" xlink:href="#DejaVuSans-115"/>
      <use x="908.837891" xlink:href="#DejaVuSans-58"/>
      <use x="942.529297" xlink:href="#DejaVuSans-51"/>
      <use x="1006.152344" xlink:href="#DejaVuSans-46"/>
      <use x="1037.939453" xlink:href="#DejaVuSans-53"/>
     </g>
    </g>
    <g id="line2d_42">
     <path d="M 267.565313 211.038937 
L 287.565313 211.038937 
" style="fill:none;stroke:#bcbd22;stroke-linecap:square;stroke-width:1.5;"/>
    </g>
    <g id="line2d_43"/>
    <g id="text_28">
     <!-- spacing_thickness:4.0 -->
     <g transform="translate(295.565313 214.538937)scale(0.1 -0.1)">
      <use xlink:href="#DejaVuSans-115"/>
      <use x="52.099609" xlink:href="#DejaVuSans-112"/>
      <use x="115.576172" xlink:href="#DejaVuSans-97"/>
      <use x="176.855469" xlink:href="#DejaVuSans-99"/>
      <use x="231.835938" xlink:href="#DejaVuSans-105"/>
      <use x="259.619141" xlink:href="#DejaVuSans-110"/>
      <use x="322.998047" xlink:href="#DejaVuSans-103"/>
      <use x="386.474609" xlink:href="#DejaVuSans-95"/>
      <use x="436.474609" xlink:href="#DejaVuSans-116"/>
      <use x="475.683594" xlink:href="#DejaVuSans-104"/>
      <use x="539.0625" xlink:href="#DejaVuSans-105"/>
      <use x="566.845703" xlink:href="#DejaVuSans-99"/>
      <use x="621.826172" xlink:href="#DejaVuSans-107"/>
      <use x="679.736328" xlink:href="#DejaVuSans-110"/>
      <use x="743.115234" xlink:href="#DejaVuSans-101"/>
      <use x="804.638672" xlink:href="#DejaVuSans-115"/>
      <use x="856.738281" xlink:href="#DejaVuSans-115"/>
      <use x="908.837891" xlink:href="#DejaVuSans-58"/>
      <use x="942.529297" xlink:href="#DejaVuSans-52"/>
      <use x="1006.152344" xlink:href="#DejaVuSans-46"/>
      <use x="1037.939453" xlink:href="#DejaVuSans-48"/>
     </g>
    </g>
    <g id="line2d_44">
     <path d="M 267.565313 225.995187 
L 287.565313 225.995187 
" style="fill:none;stroke:#17becf;stroke-linecap:square;stroke-width:1.5;"/>
    </g>
    <g id="line2d_45"/>
    <g id="text_29">
     <!-- spacing_thickness:4.5 -->
     <g transform="translate(295.565313 229.495187)scale(0.1 -0.1)">
      <use xlink:href="#DejaVuSans-115"/>
      <use x="52.099609" xlink:href="#DejaVuSans-112"/>
      <use x="115.576172" xlink:href="#DejaVuSans-97"/>
      <use x="176.855469" xlink:href="#DejaVuSans-99"/>
      <use x="231.835938" xlink:href="#DejaVuSans-105"/>
      <use x="259.619141" xlink:href="#DejaVuSans-110"/>
      <use x="322.998047" xlink:href="#DejaVuSans-103"/>
      <use x="386.474609" xlink:href="#DejaVuSans-95"/>
      <use x="436.474609" xlink:href="#DejaVuSans-116"/>
      <use x="475.683594" xlink:href="#DejaVuSans-104"/>
      <use x="539.0625" xlink:href="#DejaVuSans-105"/>
      <use x="566.845703" xlink:href="#DejaVuSans-99"/>
      <use x="621.826172" xlink:href="#DejaVuSans-107"/>
      <use x="679.736328" xlink:href="#DejaVuSans-110"/>
      <use x="743.115234" xlink:href="#DejaVuSans-101"/>
      <use x="804.638672" xlink:href="#DejaVuSans-115"/>
      <use x="856.738281" xlink:href="#DejaVuSans-115"/>
      <use x="908.837891" xlink:href="#DejaVuSans-58"/>
      <use x="942.529297" xlink:href="#DejaVuSans-52"/>
      <use x="1006.152344" xlink:href="#DejaVuSans-46"/>
      <use x="1037.939453" xlink:href="#DejaVuSans-53"/>
     </g>
    </g>
    <g id="line2d_46">
     <path d="M 267.565313 240.951437 
L 287.565313 240.951437 
" style="fill:none;stroke:#1f77b4;stroke-linecap:square;stroke-width:1.5;"/>
    </g>
    <g id="line2d_47"/>
    <g id="text_30">
     <!-- spacing_thickness:5.0 -->
     <g transform="translate(295.565313 244.451437)scale(0.1 -0.1)">
      <use xlink:href="#DejaVuSans-115"/>
      <use x="52.099609" xlink:href="#DejaVuSans-112"/>
      <use x="115.576172" xlink:href="#DejaVuSans-97"/>
      <use x="176.855469" xlink:href="#DejaVuSans-99"/>
      <use x="231.835938" xlink:href="#DejaVuSans-105"/>
      <use x="259.619141" xlink:href="#DejaVuSans-110"/>
      <use x="322.998047" xlink:href="#DejaVuSans-103"/>
      <use x="386.474609" xlink:href="#DejaVuSans-95"/>
      <use x="436.474609" xlink:href="#DejaVuSans-116"/>
      <use x="475.683594" xlink:href="#DejaVuSans-104"/>
      <use x="539.0625" xlink:href="#DejaVuSans-105"/>
      <use x="566.845703" xlink:href="#DejaVuSans-99"/>
      <use x="621.826172" xlink:href="#DejaVuSans-107"/>
      <use x="679.736328" xlink:href="#DejaVuSans-110"/>
      <use x="743.115234" xlink:href="#DejaVuSans-101"/>
      <use x="804.638672" xlink:href="#DejaVuSans-115"/>
      <use x="856.738281" xlink:href="#DejaVuSans-115"/>
      <use x="908.837891" xlink:href="#DejaVuSans-58"/>
      <use x="942.529297" xlink:href="#DejaVuSans-53"/>
      <use x="1006.152344" xlink:href="#DejaVuSans-46"/>
      <use x="1037.939453" xlink:href="#DejaVuSans-48"/>
     </g>
    </g>
   </g>
  </g>
 </g>
 <defs>
  <clipPath id="pd61970fc2f">
   <rect height="266.112" width="357.12" x="57.6" y="41.472"/>
  </clipPath>
 </defs>
</svg>
