<?xml version="1.0" encoding="utf-8" standalone="no"?>
<!DOCTYPE svg PUBLIC "-//W3C//DTD SVG 1.1//EN"
  "http://www.w3.org/Graphics/SVG/1.1/DTD/svg11.dtd">
<!-- Created with matplotlib (https://matplotlib.org/) -->
<svg height="345.6pt" version="1.1" viewBox="0 0 460.8 345.6" width="460.8pt" xmlns="http://www.w3.org/2000/svg" xmlns:xlink="http://www.w3.org/1999/xlink">
 <defs>
  <style type="text/css">
*{stroke-linecap:butt;stroke-linejoin:round;}
  </style>
 </defs>
 <g id="figure_1">
  <g id="patch_1">
   <path d="M 0 345.6 
L 460.8 345.6 
L 460.8 0 
L 0 0 
z
" style="fill:#ffffff;"/>
  </g>
  <g id="axes_1">
   <g id="patch_2">
    <path d="M 57.6 307.584 
L 414.72 307.584 
L 414.72 41.472 
L 57.6 41.472 
z
" style="fill:#ffffff;"/>
   </g>
   <g id="matplotlib.axis_1">
    <g id="xtick_1">
     <g id="line2d_1">
      <defs>
       <path d="M 0 0 
L 0 3.5 
" id="m0a1a724b81" style="stroke:#000000;stroke-width:0.8;"/>
      </defs>
      <g>
       <use style="stroke:#000000;stroke-width:0.8;" x="73.832727" xlink:href="#m0a1a724b81" y="307.584"/>
      </g>
     </g>
     <g id="text_1">
      <!-- 400 -->
      <defs>
       <path d="M 37.796875 64.3125 
L 12.890625 25.390625 
L 37.796875 25.390625 
z
M 35.203125 72.90625 
L 47.609375 72.90625 
L 47.609375 25.390625 
L 58.015625 25.390625 
L 58.015625 17.1875 
L 47.609375 17.1875 
L 47.609375 0 
L 37.796875 0 
L 37.796875 17.1875 
L 4.890625 17.1875 
L 4.890625 26.703125 
z
" id="DejaVuSans-52"/>
       <path d="M 31.78125 66.40625 
Q 24.171875 66.40625 20.328125 58.90625 
Q 16.5 51.421875 16.5 36.375 
Q 16.5 21.390625 20.328125 13.890625 
Q 24.171875 6.390625 31.78125 6.390625 
Q 39.453125 6.390625 43.28125 13.890625 
Q 47.125 21.390625 47.125 36.375 
Q 47.125 51.421875 43.28125 58.90625 
Q 39.453125 66.40625 31.78125 66.40625 
z
M 31.78125 74.21875 
Q 44.046875 74.21875 50.515625 64.515625 
Q 56.984375 54.828125 56.984375 36.375 
Q 56.984375 17.96875 50.515625 8.265625 
Q 44.046875 -1.421875 31.78125 -1.421875 
Q 19.53125 -1.421875 13.0625 8.265625 
Q 6.59375 17.96875 6.59375 36.375 
Q 6.59375 54.828125 13.0625 64.515625 
Q 19.53125 74.21875 31.78125 74.21875 
z
" id="DejaVuSans-48"/>
      </defs>
      <g transform="translate(64.288977 322.182437)scale(0.1 -0.1)">
       <use xlink:href="#DejaVuSans-52"/>
       <use x="63.623047" xlink:href="#DejaVuSans-48"/>
       <use x="127.246094" xlink:href="#DejaVuSans-48"/>
      </g>
     </g>
    </g>
    <g id="xtick_2">
     <g id="line2d_2">
      <g>
       <use style="stroke:#000000;stroke-width:0.8;" x="127.941818" xlink:href="#m0a1a724b81" y="307.584"/>
      </g>
     </g>
     <g id="text_2">
      <!-- 450 -->
      <defs>
       <path d="M 10.796875 72.90625 
L 49.515625 72.90625 
L 49.515625 64.59375 
L 19.828125 64.59375 
L 19.828125 46.734375 
Q 21.96875 47.46875 24.109375 47.828125 
Q 26.265625 48.1875 28.421875 48.1875 
Q 40.625 48.1875 47.75 41.5 
Q 54.890625 34.8125 54.890625 23.390625 
Q 54.890625 11.625 47.5625 5.09375 
Q 40.234375 -1.421875 26.90625 -1.421875 
Q 22.3125 -1.421875 17.546875 -0.640625 
Q 12.796875 0.140625 7.71875 1.703125 
L 7.71875 11.625 
Q 12.109375 9.234375 16.796875 8.0625 
Q 21.484375 6.890625 26.703125 6.890625 
Q 35.15625 6.890625 40.078125 11.328125 
Q 45.015625 15.765625 45.015625 23.390625 
Q 45.015625 31 40.078125 35.4375 
Q 35.15625 39.890625 26.703125 39.890625 
Q 22.75 39.890625 18.8125 39.015625 
Q 14.890625 38.140625 10.796875 36.28125 
z
" id="DejaVuSans-53"/>
      </defs>
      <g transform="translate(118.398068 322.182437)scale(0.1 -0.1)">
       <use xlink:href="#DejaVuSans-52"/>
       <use x="63.623047" xlink:href="#DejaVuSans-53"/>
       <use x="127.246094" xlink:href="#DejaVuSans-48"/>
      </g>
     </g>
    </g>
    <g id="xtick_3">
     <g id="line2d_3">
      <g>
       <use style="stroke:#000000;stroke-width:0.8;" x="182.050909" xlink:href="#m0a1a724b81" y="307.584"/>
      </g>
     </g>
     <g id="text_3">
      <!-- 500 -->
      <g transform="translate(172.507159 322.182437)scale(0.1 -0.1)">
       <use xlink:href="#DejaVuSans-53"/>
       <use x="63.623047" xlink:href="#DejaVuSans-48"/>
       <use x="127.246094" xlink:href="#DejaVuSans-48"/>
      </g>
     </g>
    </g>
    <g id="xtick_4">
     <g id="line2d_4">
      <g>
       <use style="stroke:#000000;stroke-width:0.8;" x="236.16" xlink:href="#m0a1a724b81" y="307.584"/>
      </g>
     </g>
     <g id="text_4">
      <!-- 550 -->
      <g transform="translate(226.61625 322.182437)scale(0.1 -0.1)">
       <use xlink:href="#DejaVuSans-53"/>
       <use x="63.623047" xlink:href="#DejaVuSans-53"/>
       <use x="127.246094" xlink:href="#DejaVuSans-48"/>
      </g>
     </g>
    </g>
    <g id="xtick_5">
     <g id="line2d_5">
      <g>
       <use style="stroke:#000000;stroke-width:0.8;" x="290.269091" xlink:href="#m0a1a724b81" y="307.584"/>
      </g>
     </g>
     <g id="text_5">
      <!-- 600 -->
      <defs>
       <path d="M 33.015625 40.375 
Q 26.375 40.375 22.484375 35.828125 
Q 18.609375 31.296875 18.609375 23.390625 
Q 18.609375 15.53125 22.484375 10.953125 
Q 26.375 6.390625 33.015625 6.390625 
Q 39.65625 6.390625 43.53125 10.953125 
Q 47.40625 15.53125 47.40625 23.390625 
Q 47.40625 31.296875 43.53125 35.828125 
Q 39.65625 40.375 33.015625 40.375 
z
M 52.59375 71.296875 
L 52.59375 62.3125 
Q 48.875 64.0625 45.09375 64.984375 
Q 41.3125 65.921875 37.59375 65.921875 
Q 27.828125 65.921875 22.671875 59.328125 
Q 17.53125 52.734375 16.796875 39.40625 
Q 19.671875 43.65625 24.015625 45.921875 
Q 28.375 48.1875 33.59375 48.1875 
Q 44.578125 48.1875 50.953125 41.515625 
Q 57.328125 34.859375 57.328125 23.390625 
Q 57.328125 12.15625 50.6875 5.359375 
Q 44.046875 -1.421875 33.015625 -1.421875 
Q 20.359375 -1.421875 13.671875 8.265625 
Q 6.984375 17.96875 6.984375 36.375 
Q 6.984375 53.65625 15.1875 63.9375 
Q 23.390625 74.21875 37.203125 74.21875 
Q 40.921875 74.21875 44.703125 73.484375 
Q 48.484375 72.75 52.59375 71.296875 
z
" id="DejaVuSans-54"/>
      </defs>
      <g transform="translate(280.725341 322.182437)scale(0.1 -0.1)">
       <use xlink:href="#DejaVuSans-54"/>
       <use x="63.623047" xlink:href="#DejaVuSans-48"/>
       <use x="127.246094" xlink:href="#DejaVuSans-48"/>
      </g>
     </g>
    </g>
    <g id="xtick_6">
     <g id="line2d_6">
      <g>
       <use style="stroke:#000000;stroke-width:0.8;" x="344.378182" xlink:href="#m0a1a724b81" y="307.584"/>
      </g>
     </g>
     <g id="text_6">
      <!-- 650 -->
      <g transform="translate(334.834432 322.182437)scale(0.1 -0.1)">
       <use xlink:href="#DejaVuSans-54"/>
       <use x="63.623047" xlink:href="#DejaVuSans-53"/>
       <use x="127.246094" xlink:href="#DejaVuSans-48"/>
      </g>
     </g>
    </g>
    <g id="xtick_7">
     <g id="line2d_7">
      <g>
       <use style="stroke:#000000;stroke-width:0.8;" x="398.487273" xlink:href="#m0a1a724b81" y="307.584"/>
      </g>
     </g>
     <g id="text_7">
      <!-- 700 -->
      <defs>
       <path d="M 8.203125 72.90625 
L 55.078125 72.90625 
L 55.078125 68.703125 
L 28.609375 0 
L 18.3125 0 
L 43.21875 64.59375 
L 8.203125 64.59375 
z
" id="DejaVuSans-55"/>
      </defs>
      <g transform="translate(388.943523 322.182437)scale(0.1 -0.1)">
       <use xlink:href="#DejaVuSans-55"/>
       <use x="63.623047" xlink:href="#DejaVuSans-48"/>
       <use x="127.246094" xlink:href="#DejaVuSans-48"/>
      </g>
     </g>
    </g>
    <g id="text_8">
     <!-- Wavelengths -->
     <defs>
      <path d="M 3.328125 72.90625 
L 13.28125 72.90625 
L 28.609375 11.28125 
L 43.890625 72.90625 
L 54.984375 72.90625 
L 70.3125 11.28125 
L 85.59375 72.90625 
L 95.609375 72.90625 
L 77.296875 0 
L 64.890625 0 
L 49.515625 63.28125 
L 33.984375 0 
L 21.578125 0 
z
" id="DejaVuSans-87"/>
      <path d="M 34.28125 27.484375 
Q 23.390625 27.484375 19.1875 25 
Q 14.984375 22.515625 14.984375 16.5 
Q 14.984375 11.71875 18.140625 8.90625 
Q 21.296875 6.109375 26.703125 6.109375 
Q 34.1875 6.109375 38.703125 11.40625 
Q 43.21875 16.703125 43.21875 25.484375 
L 43.21875 27.484375 
z
M 52.203125 31.203125 
L 52.203125 0 
L 43.21875 0 
L 43.21875 8.296875 
Q 40.140625 3.328125 35.546875 0.953125 
Q 30.953125 -1.421875 24.3125 -1.421875 
Q 15.921875 -1.421875 10.953125 3.296875 
Q 6 8.015625 6 15.921875 
Q 6 25.140625 12.171875 29.828125 
Q 18.359375 34.515625 30.609375 34.515625 
L 43.21875 34.515625 
L 43.21875 35.40625 
Q 43.21875 41.609375 39.140625 45 
Q 35.0625 48.390625 27.6875 48.390625 
Q 23 48.390625 18.546875 47.265625 
Q 14.109375 46.140625 10.015625 43.890625 
L 10.015625 52.203125 
Q 14.9375 54.109375 19.578125 55.046875 
Q 24.21875 56 28.609375 56 
Q 40.484375 56 46.34375 49.84375 
Q 52.203125 43.703125 52.203125 31.203125 
z
" id="DejaVuSans-97"/>
      <path d="M 2.984375 54.6875 
L 12.5 54.6875 
L 29.59375 8.796875 
L 46.6875 54.6875 
L 56.203125 54.6875 
L 35.6875 0 
L 23.484375 0 
z
" id="DejaVuSans-118"/>
      <path d="M 56.203125 29.59375 
L 56.203125 25.203125 
L 14.890625 25.203125 
Q 15.484375 15.921875 20.484375 11.0625 
Q 25.484375 6.203125 34.421875 6.203125 
Q 39.59375 6.203125 44.453125 7.46875 
Q 49.3125 8.734375 54.109375 11.28125 
L 54.109375 2.78125 
Q 49.265625 0.734375 44.1875 -0.34375 
Q 39.109375 -1.421875 33.890625 -1.421875 
Q 20.796875 -1.421875 13.15625 6.1875 
Q 5.515625 13.8125 5.515625 26.8125 
Q 5.515625 40.234375 12.765625 48.109375 
Q 20.015625 56 32.328125 56 
Q 43.359375 56 49.78125 48.890625 
Q 56.203125 41.796875 56.203125 29.59375 
z
M 47.21875 32.234375 
Q 47.125 39.59375 43.09375 43.984375 
Q 39.0625 48.390625 32.421875 48.390625 
Q 24.90625 48.390625 20.390625 44.140625 
Q 15.875 39.890625 15.1875 32.171875 
z
" id="DejaVuSans-101"/>
      <path d="M 9.421875 75.984375 
L 18.40625 75.984375 
L 18.40625 0 
L 9.421875 0 
z
" id="DejaVuSans-108"/>
      <path d="M 54.890625 33.015625 
L 54.890625 0 
L 45.90625 0 
L 45.90625 32.71875 
Q 45.90625 40.484375 42.875 44.328125 
Q 39.84375 48.1875 33.796875 48.1875 
Q 26.515625 48.1875 22.3125 43.546875 
Q 18.109375 38.921875 18.109375 30.90625 
L 18.109375 0 
L 9.078125 0 
L 9.078125 54.6875 
L 18.109375 54.6875 
L 18.109375 46.1875 
Q 21.34375 51.125 25.703125 53.5625 
Q 30.078125 56 35.796875 56 
Q 45.21875 56 50.046875 50.171875 
Q 54.890625 44.34375 54.890625 33.015625 
z
" id="DejaVuSans-110"/>
      <path d="M 45.40625 27.984375 
Q 45.40625 37.75 41.375 43.109375 
Q 37.359375 48.484375 30.078125 48.484375 
Q 22.859375 48.484375 18.828125 43.109375 
Q 14.796875 37.75 14.796875 27.984375 
Q 14.796875 18.265625 18.828125 12.890625 
Q 22.859375 7.515625 30.078125 7.515625 
Q 37.359375 7.515625 41.375 12.890625 
Q 45.40625 18.265625 45.40625 27.984375 
z
M 54.390625 6.78125 
Q 54.390625 -7.171875 48.1875 -13.984375 
Q 42 -20.796875 29.203125 -20.796875 
Q 24.46875 -20.796875 20.265625 -20.09375 
Q 16.0625 -19.390625 12.109375 -17.921875 
L 12.109375 -9.1875 
Q 16.0625 -11.328125 19.921875 -12.34375 
Q 23.78125 -13.375 27.78125 -13.375 
Q 36.625 -13.375 41.015625 -8.765625 
Q 45.40625 -4.15625 45.40625 5.171875 
L 45.40625 9.625 
Q 42.625 4.78125 38.28125 2.390625 
Q 33.9375 0 27.875 0 
Q 17.828125 0 11.671875 7.65625 
Q 5.515625 15.328125 5.515625 27.984375 
Q 5.515625 40.671875 11.671875 48.328125 
Q 17.828125 56 27.875 56 
Q 33.9375 56 38.28125 53.609375 
Q 42.625 51.21875 45.40625 46.390625 
L 45.40625 54.6875 
L 54.390625 54.6875 
z
" id="DejaVuSans-103"/>
      <path d="M 18.3125 70.21875 
L 18.3125 54.6875 
L 36.8125 54.6875 
L 36.8125 47.703125 
L 18.3125 47.703125 
L 18.3125 18.015625 
Q 18.3125 11.328125 20.140625 9.421875 
Q 21.96875 7.515625 27.59375 7.515625 
L 36.8125 7.515625 
L 36.8125 0 
L 27.59375 0 
Q 17.1875 0 13.234375 3.875 
Q 9.28125 7.765625 9.28125 18.015625 
L 9.28125 47.703125 
L 2.6875 47.703125 
L 2.6875 54.6875 
L 9.28125 54.6875 
L 9.28125 70.21875 
z
" id="DejaVuSans-116"/>
      <path d="M 54.890625 33.015625 
L 54.890625 0 
L 45.90625 0 
L 45.90625 32.71875 
Q 45.90625 40.484375 42.875 44.328125 
Q 39.84375 48.1875 33.796875 48.1875 
Q 26.515625 48.1875 22.3125 43.546875 
Q 18.109375 38.921875 18.109375 30.90625 
L 18.109375 0 
L 9.078125 0 
L 9.078125 75.984375 
L 18.109375 75.984375 
L 18.109375 46.1875 
Q 21.34375 51.125 25.703125 53.5625 
Q 30.078125 56 35.796875 56 
Q 45.21875 56 50.046875 50.171875 
Q 54.890625 44.34375 54.890625 33.015625 
z
" id="DejaVuSans-104"/>
      <path d="M 44.28125 53.078125 
L 44.28125 44.578125 
Q 40.484375 46.53125 36.375 47.5 
Q 32.28125 48.484375 27.875 48.484375 
Q 21.1875 48.484375 17.84375 46.4375 
Q 14.5 44.390625 14.5 40.28125 
Q 14.5 37.15625 16.890625 35.375 
Q 19.28125 33.59375 26.515625 31.984375 
L 29.59375 31.296875 
Q 39.15625 29.25 43.1875 25.515625 
Q 47.21875 21.78125 47.21875 15.09375 
Q 47.21875 7.46875 41.1875 3.015625 
Q 35.15625 -1.421875 24.609375 -1.421875 
Q 20.21875 -1.421875 15.453125 -0.5625 
Q 10.6875 0.296875 5.421875 2 
L 5.421875 11.28125 
Q 10.40625 8.6875 15.234375 7.390625 
Q 20.0625 6.109375 24.8125 6.109375 
Q 31.15625 6.109375 34.5625 8.28125 
Q 37.984375 10.453125 37.984375 14.40625 
Q 37.984375 18.0625 35.515625 20.015625 
Q 33.0625 21.96875 24.703125 23.78125 
L 21.578125 24.515625 
Q 13.234375 26.265625 9.515625 29.90625 
Q 5.8125 33.546875 5.8125 39.890625 
Q 5.8125 47.609375 11.28125 51.796875 
Q 16.75 56 26.8125 56 
Q 31.78125 56 36.171875 55.265625 
Q 40.578125 54.546875 44.28125 53.078125 
z
" id="DejaVuSans-115"/>
     </defs>
     <g transform="translate(203.892812 335.860562)scale(0.1 -0.1)">
      <use xlink:href="#DejaVuSans-87"/>
      <use x="92.501953" xlink:href="#DejaVuSans-97"/>
      <use x="153.78125" xlink:href="#DejaVuSans-118"/>
      <use x="212.960938" xlink:href="#DejaVuSans-101"/>
      <use x="274.484375" xlink:href="#DejaVuSans-108"/>
      <use x="302.267578" xlink:href="#DejaVuSans-101"/>
      <use x="363.791016" xlink:href="#DejaVuSans-110"/>
      <use x="427.169922" xlink:href="#DejaVuSans-103"/>
      <use x="490.646484" xlink:href="#DejaVuSans-116"/>
      <use x="529.855469" xlink:href="#DejaVuSans-104"/>
      <use x="593.234375" xlink:href="#DejaVuSans-115"/>
     </g>
    </g>
   </g>
   <g id="matplotlib.axis_2">
    <g id="ytick_1">
     <g id="line2d_8">
      <defs>
       <path d="M 0 0 
L -3.5 0 
" id="m03e99c8223" style="stroke:#000000;stroke-width:0.8;"/>
      </defs>
      <g>
       <use style="stroke:#000000;stroke-width:0.8;" x="57.6" xlink:href="#m03e99c8223" y="258.764562"/>
      </g>
     </g>
     <g id="text_9">
      <!-- 0.1 -->
      <defs>
       <path d="M 10.6875 12.40625 
L 21 12.40625 
L 21 0 
L 10.6875 0 
z
" id="DejaVuSans-46"/>
       <path d="M 12.40625 8.296875 
L 28.515625 8.296875 
L 28.515625 63.921875 
L 10.984375 60.40625 
L 10.984375 69.390625 
L 28.421875 72.90625 
L 38.28125 72.90625 
L 38.28125 8.296875 
L 54.390625 8.296875 
L 54.390625 0 
L 12.40625 0 
z
" id="DejaVuSans-49"/>
      </defs>
      <g transform="translate(34.696875 262.56378)scale(0.1 -0.1)">
       <use xlink:href="#DejaVuSans-48"/>
       <use x="63.623047" xlink:href="#DejaVuSans-46"/>
       <use x="95.410156" xlink:href="#DejaVuSans-49"/>
      </g>
     </g>
    </g>
    <g id="ytick_2">
     <g id="line2d_9">
      <g>
       <use style="stroke:#000000;stroke-width:0.8;" x="57.6" xlink:href="#m03e99c8223" y="207.954813"/>
      </g>
     </g>
     <g id="text_10">
      <!-- 0.2 -->
      <defs>
       <path d="M 19.1875 8.296875 
L 53.609375 8.296875 
L 53.609375 0 
L 7.328125 0 
L 7.328125 8.296875 
Q 12.9375 14.109375 22.625 23.890625 
Q 32.328125 33.6875 34.8125 36.53125 
Q 39.546875 41.84375 41.421875 45.53125 
Q 43.3125 49.21875 43.3125 52.78125 
Q 43.3125 58.59375 39.234375 62.25 
Q 35.15625 65.921875 28.609375 65.921875 
Q 23.96875 65.921875 18.8125 64.3125 
Q 13.671875 62.703125 7.8125 59.421875 
L 7.8125 69.390625 
Q 13.765625 71.78125 18.9375 73 
Q 24.125 74.21875 28.421875 74.21875 
Q 39.75 74.21875 46.484375 68.546875 
Q 53.21875 62.890625 53.21875 53.421875 
Q 53.21875 48.921875 51.53125 44.890625 
Q 49.859375 40.875 45.40625 35.40625 
Q 44.1875 33.984375 37.640625 27.21875 
Q 31.109375 20.453125 19.1875 8.296875 
z
" id="DejaVuSans-50"/>
      </defs>
      <g transform="translate(34.696875 211.754031)scale(0.1 -0.1)">
       <use xlink:href="#DejaVuSans-48"/>
       <use x="63.623047" xlink:href="#DejaVuSans-46"/>
       <use x="95.410156" xlink:href="#DejaVuSans-50"/>
      </g>
     </g>
    </g>
    <g id="ytick_3">
     <g id="line2d_10">
      <g>
       <use style="stroke:#000000;stroke-width:0.8;" x="57.6" xlink:href="#m03e99c8223" y="157.145063"/>
      </g>
     </g>
     <g id="text_11">
      <!-- 0.3 -->
      <defs>
       <path d="M 40.578125 39.3125 
Q 47.65625 37.796875 51.625 33 
Q 55.609375 28.21875 55.609375 21.1875 
Q 55.609375 10.40625 48.1875 4.484375 
Q 40.765625 -1.421875 27.09375 -1.421875 
Q 22.515625 -1.421875 17.65625 -0.515625 
Q 12.796875 0.390625 7.625 2.203125 
L 7.625 11.71875 
Q 11.71875 9.328125 16.59375 8.109375 
Q 21.484375 6.890625 26.8125 6.890625 
Q 36.078125 6.890625 40.9375 10.546875 
Q 45.796875 14.203125 45.796875 21.1875 
Q 45.796875 27.640625 41.28125 31.265625 
Q 36.765625 34.90625 28.71875 34.90625 
L 20.21875 34.90625 
L 20.21875 43.015625 
L 29.109375 43.015625 
Q 36.375 43.015625 40.234375 45.921875 
Q 44.09375 48.828125 44.09375 54.296875 
Q 44.09375 59.90625 40.109375 62.90625 
Q 36.140625 65.921875 28.71875 65.921875 
Q 24.65625 65.921875 20.015625 65.03125 
Q 15.375 64.15625 9.8125 62.3125 
L 9.8125 71.09375 
Q 15.4375 72.65625 20.34375 73.4375 
Q 25.25 74.21875 29.59375 74.21875 
Q 40.828125 74.21875 47.359375 69.109375 
Q 53.90625 64.015625 53.90625 55.328125 
Q 53.90625 49.265625 50.4375 45.09375 
Q 46.96875 40.921875 40.578125 39.3125 
z
" id="DejaVuSans-51"/>
      </defs>
      <g transform="translate(34.696875 160.944282)scale(0.1 -0.1)">
       <use xlink:href="#DejaVuSans-48"/>
       <use x="63.623047" xlink:href="#DejaVuSans-46"/>
       <use x="95.410156" xlink:href="#DejaVuSans-51"/>
      </g>
     </g>
    </g>
    <g id="ytick_4">
     <g id="line2d_11">
      <g>
       <use style="stroke:#000000;stroke-width:0.8;" x="57.6" xlink:href="#m03e99c8223" y="106.335314"/>
      </g>
     </g>
     <g id="text_12">
      <!-- 0.4 -->
      <g transform="translate(34.696875 110.134533)scale(0.1 -0.1)">
       <use xlink:href="#DejaVuSans-48"/>
       <use x="63.623047" xlink:href="#DejaVuSans-46"/>
       <use x="95.410156" xlink:href="#DejaVuSans-52"/>
      </g>
     </g>
    </g>
    <g id="ytick_5">
     <g id="line2d_12">
      <g>
       <use style="stroke:#000000;stroke-width:0.8;" x="57.6" xlink:href="#m03e99c8223" y="55.525565"/>
      </g>
     </g>
     <g id="text_13">
      <!-- 0.5 -->
      <g transform="translate(34.696875 59.324784)scale(0.1 -0.1)">
       <use xlink:href="#DejaVuSans-48"/>
       <use x="63.623047" xlink:href="#DejaVuSans-46"/>
       <use x="95.410156" xlink:href="#DejaVuSans-53"/>
      </g>
     </g>
    </g>
    <g id="text_14">
     <!-- Transmission -->
     <defs>
      <path d="M -0.296875 72.90625 
L 61.375 72.90625 
L 61.375 64.59375 
L 35.5 64.59375 
L 35.5 0 
L 25.59375 0 
L 25.59375 64.59375 
L -0.296875 64.59375 
z
" id="DejaVuSans-84"/>
      <path d="M 41.109375 46.296875 
Q 39.59375 47.171875 37.8125 47.578125 
Q 36.03125 48 33.890625 48 
Q 26.265625 48 22.1875 43.046875 
Q 18.109375 38.09375 18.109375 28.8125 
L 18.109375 0 
L 9.078125 0 
L 9.078125 54.6875 
L 18.109375 54.6875 
L 18.109375 46.1875 
Q 20.953125 51.171875 25.484375 53.578125 
Q 30.03125 56 36.53125 56 
Q 37.453125 56 38.578125 55.875 
Q 39.703125 55.765625 41.0625 55.515625 
z
" id="DejaVuSans-114"/>
      <path d="M 52 44.1875 
Q 55.375 50.25 60.0625 53.125 
Q 64.75 56 71.09375 56 
Q 79.640625 56 84.28125 50.015625 
Q 88.921875 44.046875 88.921875 33.015625 
L 88.921875 0 
L 79.890625 0 
L 79.890625 32.71875 
Q 79.890625 40.578125 77.09375 44.375 
Q 74.3125 48.1875 68.609375 48.1875 
Q 61.625 48.1875 57.5625 43.546875 
Q 53.515625 38.921875 53.515625 30.90625 
L 53.515625 0 
L 44.484375 0 
L 44.484375 32.71875 
Q 44.484375 40.625 41.703125 44.40625 
Q 38.921875 48.1875 33.109375 48.1875 
Q 26.21875 48.1875 22.15625 43.53125 
Q 18.109375 38.875 18.109375 30.90625 
L 18.109375 0 
L 9.078125 0 
L 9.078125 54.6875 
L 18.109375 54.6875 
L 18.109375 46.1875 
Q 21.1875 51.21875 25.484375 53.609375 
Q 29.78125 56 35.6875 56 
Q 41.65625 56 45.828125 52.96875 
Q 50 49.953125 52 44.1875 
z
" id="DejaVuSans-109"/>
      <path d="M 9.421875 54.6875 
L 18.40625 54.6875 
L 18.40625 0 
L 9.421875 0 
z
M 9.421875 75.984375 
L 18.40625 75.984375 
L 18.40625 64.59375 
L 9.421875 64.59375 
z
" id="DejaVuSans-105"/>
      <path d="M 30.609375 48.390625 
Q 23.390625 48.390625 19.1875 42.75 
Q 14.984375 37.109375 14.984375 27.296875 
Q 14.984375 17.484375 19.15625 11.84375 
Q 23.34375 6.203125 30.609375 6.203125 
Q 37.796875 6.203125 41.984375 11.859375 
Q 46.1875 17.53125 46.1875 27.296875 
Q 46.1875 37.015625 41.984375 42.703125 
Q 37.796875 48.390625 30.609375 48.390625 
z
M 30.609375 56 
Q 42.328125 56 49.015625 48.375 
Q 55.71875 40.765625 55.71875 27.296875 
Q 55.71875 13.875 49.015625 6.21875 
Q 42.328125 -1.421875 30.609375 -1.421875 
Q 18.84375 -1.421875 12.171875 6.21875 
Q 5.515625 13.875 5.515625 27.296875 
Q 5.515625 40.765625 12.171875 48.375 
Q 18.84375 56 30.609375 56 
z
" id="DejaVuSans-111"/>
     </defs>
     <g transform="translate(28.617187 206.823312)rotate(-90)scale(0.1 -0.1)">
      <use xlink:href="#DejaVuSans-84"/>
      <use x="46.333984" xlink:href="#DejaVuSans-114"/>
      <use x="87.447266" xlink:href="#DejaVuSans-97"/>
      <use x="148.726562" xlink:href="#DejaVuSans-110"/>
      <use x="212.105469" xlink:href="#DejaVuSans-115"/>
      <use x="264.205078" xlink:href="#DejaVuSans-109"/>
      <use x="361.617188" xlink:href="#DejaVuSans-105"/>
      <use x="389.400391" xlink:href="#DejaVuSans-115"/>
      <use x="441.5" xlink:href="#DejaVuSans-115"/>
      <use x="493.599609" xlink:href="#DejaVuSans-105"/>
      <use x="521.382812" xlink:href="#DejaVuSans-111"/>
      <use x="582.564453" xlink:href="#DejaVuSans-110"/>
     </g>
    </g>
   </g>
   <g id="line2d_13">
    <path clip-path="url(#p917a0538ff)" d="M 398.487273 148.385977 
L 392.791579 148.287219 
L 387.180896 148.218349 
L 381.653333 148.169324 
L 376.207059 148.129881 
L 370.840292 148.089681 
L 365.551304 148.038441 
L 360.338417 147.966088 
L 355.2 147.862895 
L 350.134468 147.719624 
L 345.140282 147.527661 
L 340.215944 147.279146 
L 335.36 146.967086 
L 330.571034 146.585461 
L 325.847671 146.12932 
L 321.188571 145.594854 
L 316.592432 144.979457 
L 312.057987 144.281772 
L 307.584 143.501722 
L 303.169272 142.64052 
L 298.812632 141.700669 
L 294.512941 140.685945 
L 290.269091 139.601371 
L 286.08 138.453178 
L 281.944615 137.248753 
L 277.861911 135.996588 
L 273.830886 134.706215 
L 269.850566 133.38814 
L 265.92 132.053779 
L 262.038261 130.715384 
L 258.204444 129.38598 
L 254.417669 128.079293 
L 250.677073 126.809691 
L 246.981818 125.59212 
L 243.331084 124.44205 
L 239.724072 123.375417 
L 236.16 122.408575 
L 232.638107 121.558248 
L 229.157647 120.841483 
L 225.717895 120.275605 
L 222.31814 119.878166 
L 218.957688 119.666899 
L 215.635862 119.659658 
L 212.352 119.874355 
L 209.105455 120.328882 
L 205.895593 121.041019 
L 202.721798 122.028321 
L 199.583464 123.307975 
L 196.48 124.896629 
L 193.410829 126.810171 
L 190.375385 129.06346 
L 187.373115 131.669994 
L 184.403478 134.641498 
L 181.465946 137.987411 
L 178.56 141.71428 
L 175.685134 145.825008 
L 172.840851 150.317973 
L 170.026667 155.185993 
L 167.242105 160.415139 
L 164.486702 165.983418 
L 161.76 171.859378 
L 159.061554 178.000731 
L 156.390928 184.353137 
L 153.747692 190.849392 
L 151.131429 197.409335 
L 148.541726 203.940844 
L 145.978182 210.342357 
L 143.440402 216.507265 
L 140.928 222.330352 
L 138.440597 227.716082 
L 135.977822 232.588022 
L 133.53931 236.898123 
L 131.124706 240.634127 
L 128.733659 243.823326 
L 126.365825 246.531323 
L 124.02087 248.855447 
L 121.698462 250.913659 
L 119.398278 252.830894 
L 117.12 254.725251 
L 114.863318 256.696315 
L 112.627925 258.817127 
L 110.413521 261.130365 
L 108.219813 263.648405 
L 106.046512 266.356398 
L 103.893333 269.217274 
L 101.76 272.177647 
L 99.646239 275.173853 
L 97.551781 278.137581 
L 95.476364 281.000829 
L 93.419729 283.700045 
L 91.381622 286.179467 
L 89.361794 288.393698 
L 87.36 290.309584 
L 85.376 291.907473 
L 83.409558 293.181895 
L 81.460441 294.141744 
L 79.528421 294.809981 
L 77.613275 295.222919 
L 75.714783 295.429127 
L 73.832727 295.488 
" style="fill:none;stroke:#ff7f0e;stroke-linecap:square;stroke-width:1.5;"/>
   </g>
   <g id="line2d_14">
    <path clip-path="url(#p917a0538ff)" d="M 398.487273 138.164505 
L 392.791579 137.981523 
L 387.180896 137.828716 
L 381.653333 137.697351 
L 376.207059 137.578359 
L 370.840292 137.462467 
L 365.551304 137.340329 
L 360.338417 137.202661 
L 355.2 137.040382 
L 350.134468 136.844748 
L 345.140282 136.607485 
L 340.215944 136.320914 
L 335.36 135.978072 
L 330.571034 135.572814 
L 325.847671 135.099913 
L 321.188571 134.555143 
L 316.592432 133.935344 
L 312.057987 133.238478 
L 307.584 132.463666 
L 303.169272 131.611216 
L 298.812632 130.682631 
L 294.512941 129.680604 
L 290.269091 128.609007 
L 286.08 127.472865 
L 281.944615 126.278315 
L 277.861911 125.032569 
L 273.830886 123.743862 
L 269.850566 122.421398 
L 265.92 121.075292 
L 262.038261 119.716513 
L 258.204444 118.356824 
L 254.417669 117.008724 
L 250.677073 115.685391 
L 246.981818 114.400632 
L 243.331084 113.168829 
L 239.724072 112.004892 
L 236.16 110.924212 
L 232.638107 109.942623 
L 229.157647 109.076356 
L 225.717895 108.341998 
L 222.31814 107.756447 
L 218.957688 107.336868 
L 215.635862 107.100639 
L 212.352 107.065288 
L 209.105455 107.248421 
L 205.895593 107.66764 
L 202.721798 108.340425 
L 199.583464 109.284014 
L 196.48 110.515231 
L 193.410829 112.050287 
L 190.375385 113.904527 
L 187.373115 116.092123 
L 184.403478 118.625691 
L 181.465946 121.515817 
L 178.56 124.770492 
L 175.685134 128.394418 
L 172.840851 132.388182 
L 170.026667 136.747287 
L 167.242105 141.461031 
L 164.486702 146.511259 
L 161.76 151.871011 
L 159.061554 157.503173 
L 156.390928 163.359243 
L 153.747692 169.378431 
L 151.131429 175.487394 
L 148.541726 181.600945 
L 145.978182 187.624156 
L 143.440402 193.456219 
L 140.928 198.996255 
L 138.440597 204.150949 
L 135.977822 208.843414 
L 133.53931 213.022122 
L 131.124706 216.668317 
L 128.733659 219.800205 
L 126.365825 222.472552 
L 124.02087 224.771248 
L 121.698462 226.80347 
L 119.398278 228.685146 
L 117.12 230.527976 
L 114.863318 232.42814 
L 112.627925 234.458257 
L 110.413521 236.663185 
L 108.219813 239.059503 
L 106.046512 241.637899 
L 103.893333 244.367492 
L 101.76 247.201132 
L 99.646239 250.080935 
L 97.551781 252.943531 
L 95.476364 255.724738 
L 93.419729 258.363528 
L 91.381622 260.805266 
L 89.361794 263.004257 
L 87.36 264.925657 
L 85.376 266.546803 
L 83.409558 267.858027 
L 81.460441 268.862987 
L 79.528421 269.578567 
L 77.613275 270.034369 
L 75.714783 270.271859 
L 73.832727 270.34317 
" style="fill:none;stroke:#2ca02c;stroke-linecap:square;stroke-width:1.5;"/>
   </g>
   <g id="line2d_15">
    <path clip-path="url(#p917a0538ff)" d="M 398.487273 119.873241 
L 392.791579 119.679671 
L 387.180896 119.514338 
L 381.653333 119.369405 
L 376.207059 119.236667 
L 370.840292 119.10767 
L 365.551304 118.973836 
L 360.338417 118.826592 
L 355.2 118.657496 
L 350.134468 118.458372 
L 345.140282 118.221432 
L 340.215944 117.939396 
L 335.36 117.605609 
L 330.571034 117.21414 
L 325.847671 116.759882 
L 321.188571 116.238627 
L 316.592432 115.647139 
L 312.057987 114.983209 
L 307.584 114.245694 
L 303.169272 113.434548 
L 298.812632 112.550837 
L 294.512941 111.596736 
L 290.269091 110.575529 
L 286.08 109.491581 
L 281.944615 108.350316 
L 277.861911 107.158175 
L 273.830886 105.922578 
L 269.850566 104.651875 
L 265.92 103.355294 
L 262.038261 102.042895 
L 258.204444 100.725507 
L 254.417669 99.414686 
L 250.677073 98.122658 
L 246.981818 96.862274 
L 243.331084 95.646963 
L 239.724072 94.490686 
L 236.16 93.407898 
L 232.638107 92.413509 
L 229.157647 91.52284 
L 225.717895 90.751591 
L 222.31814 90.115793 
L 218.957688 89.63177 
L 215.635862 89.316083 
L 212.352 89.185477 
L 209.105455 89.256806 
L 205.895593 89.546957 
L 202.721798 90.072741 
L 199.583464 90.850773 
L 196.48 91.897314 
L 193.410829 93.228087 
L 190.375385 94.858033 
L 187.373115 96.801028 
L 184.403478 99.069523 
L 181.465946 101.674106 
L 178.56 104.622971 
L 175.685134 107.921269 
L 172.840851 111.570341 
L 170.026667 115.566809 
L 167.242105 119.901523 
L 164.486702 124.558384 
L 161.76 129.513073 
L 159.061554 134.731753 
L 156.390928 140.169888 
L 153.747692 145.771349 
L 151.131429 151.468091 
L 148.541726 157.180744 
L 145.978182 162.820485 
L 143.440402 168.292552 
L 140.928 173.501607 
L 138.440597 178.35884 
L 135.977822 182.790274 
L 133.53931 186.745228 
L 131.124706 190.20343 
L 128.733659 193.179187 
L 126.365825 195.721297 
L 124.02087 197.908227 
L 121.698462 199.839107 
L 119.398278 201.622089 
L 117.12 203.362163 
L 114.863318 205.150464 
L 112.627925 207.056528 
L 110.413521 209.124141 
L 108.219813 211.370634 
L 106.046512 213.788936 
L 103.893333 216.351491 
L 101.76 219.015142 
L 99.646239 221.726268 
L 97.551781 224.425694 
L 95.476364 227.053088 
L 93.419729 229.550703 
L 91.381622 231.866458 
L 89.361794 233.956377 
L 87.36 235.786431 
L 85.376 237.33385 
L 83.409558 238.58794 
L 81.460441 239.55047 
L 79.528421 240.235628 
L 77.613275 240.669624 
L 75.714783 240.889937 
L 73.832727 240.944262 
" style="fill:none;stroke:#d62728;stroke-linecap:square;stroke-width:1.5;"/>
   </g>
   <g id="line2d_16">
    <path clip-path="url(#p917a0538ff)" d="M 398.487273 100.178498 
L 392.791579 99.989787 
L 387.180896 99.827275 
L 381.653333 99.683771 
L 376.207059 99.551718 
L 370.840292 99.423303 
L 365.551304 99.290576 
L 360.338417 99.145567 
L 355.2 98.980408 
L 350.134468 98.787457 
L 345.140282 98.559415 
L 340.215944 98.289439 
L 335.36 97.971253 
L 330.571034 97.599242 
L 325.847671 97.168544 
L 321.188571 96.675129 
L 316.592432 96.115862 
L 312.057987 95.488561 
L 307.584 94.792035 
L 303.169272 94.026114 
L 298.812632 93.191663 
L 294.512941 92.29059 
L 290.269091 91.325838 
L 286.08 90.301365 
L 281.944615 89.222125 
L 277.861911 88.094034 
L 273.830886 86.923928 
L 269.850566 85.719527 
L 265.92 84.489381 
L 262.038261 83.24283 
L 258.204444 81.98995 
L 254.417669 80.741509 
L 250.677073 79.508917 
L 246.981818 78.304183 
L 243.331084 77.139872 
L 239.724072 76.029064 
L 236.16 74.985316 
L 232.638107 74.022626 
L 229.157647 73.155396 
L 225.717895 72.398393 
L 222.31814 71.766713 
L 218.957688 71.275739 
L 215.635862 70.941089 
L 212.352 70.778567 
L 209.105455 70.804093 
L 205.895593 71.033623 
L 202.721798 71.48306 
L 199.583464 72.168127 
L 196.48 73.104227 
L 193.410829 74.306265 
L 190.375385 75.788426 
L 187.373115 77.563903 
L 184.403478 79.644562 
L 181.465946 82.040539 
L 178.56 84.759733 
L 175.685134 87.80721 
L 172.840851 91.184481 
L 170.026667 94.88865 
L 167.242105 98.911433 
L 164.486702 103.238052 
L 161.76 107.846041 
L 159.061554 112.704024 
L 156.390928 117.770599 
L 153.747692 122.993484 
L 151.131429 128.309194 
L 148.541726 133.643561 
L 145.978182 138.913462 
L 143.440402 144.030073 
L 140.928 148.90386 
L 138.440597 153.451214 
L 135.977822 157.602236 
L 133.53931 161.308682 
L 131.124706 164.550683 
L 128.733659 167.340733 
L 126.365825 169.723695 
L 124.02087 171.772381 
L 121.698462 173.57918 
L 119.398278 175.245194 
L 117.12 176.868818 
L 114.863318 178.535689 
L 112.627925 180.311372 
L 110.413521 182.237396 
L 108.219813 184.330528 
L 106.046512 186.584642 
L 103.893333 188.974342 
L 101.76 191.459511 
L 99.646239 193.99011 
L 97.551781 196.510776 
L 95.476364 198.964938 
L 93.419729 201.298342 
L 91.381622 203.461944 
L 89.361794 205.414217 
L 87.36 207.122888 
L 85.376 208.566191 
L 83.409558 209.733656 
L 81.460441 210.626482 
L 79.528421 211.257528 
L 77.613275 211.650949 
L 75.714783 211.841518 
L 73.832727 211.873646 
" style="fill:none;stroke:#9467bd;stroke-linecap:square;stroke-width:1.5;"/>
   </g>
   <g id="line2d_17">
    <path clip-path="url(#p917a0538ff)" d="M 398.487273 81.447732 
L 392.791579 81.26719 
L 387.180896 81.111035 
L 381.653333 80.972587 
L 376.207059 80.844811 
L 370.840292 80.720427 
L 365.551304 80.592013 
L 360.338417 80.452125 
L 355.2 80.293402 
L 350.134468 80.108689 
L 345.140282 79.891142 
L 340.215944 79.634341 
L 335.36 79.332386 
L 330.571034 78.979992 
L 325.847671 78.572575 
L 321.188571 78.106324 
L 316.592432 77.578265 
L 312.057987 76.986313 
L 307.584 76.329307 
L 303.169272 75.607043 
L 298.812632 74.820289 
L 294.512941 73.970787 
L 290.269091 73.061248 
L 286.08 72.095343 
L 281.944615 71.077672 
L 277.861911 70.013742 
L 273.830886 68.909928 
L 269.850566 67.773431 
L 265.92 66.612242 
L 262.038261 65.435092 
L 258.204444 64.251408 
L 254.417669 63.07127 
L 250.677073 61.905366 
L 246.981818 60.764951 
L 243.331084 59.661804 
L 239.724072 58.608196 
L 236.16 57.616846 
L 232.638107 56.700895 
L 229.157647 55.873863 
L 225.717895 55.149622 
L 222.31814 54.542354 
L 218.957688 54.066512 
L 215.635862 53.736776 
L 212.352 53.568 
L 209.105455 53.575151 
L 205.895593 53.773233 
L 202.721798 54.177198 
L 199.583464 54.801832 
L 196.48 55.661624 
L 193.410829 56.770593 
L 190.375385 58.142084 
L 187.373115 59.788516 
L 184.403478 61.721062 
L 181.465946 63.949274 
L 178.56 66.480612 
L 175.685134 69.31988 
L 172.840851 72.468555 
L 170.026667 75.923986 
L 167.242105 79.678476 
L 164.486702 83.718247 
L 161.76 88.022316 
L 159.061554 92.561356 
L 156.390928 97.29664 
L 153.747692 102.179236 
L 151.131429 107.149707 
L 148.541726 112.138582 
L 145.978182 117.067971 
L 143.440402 121.854605 
L 140.928 126.414506 
L 138.440597 130.669202 
L 135.977822 134.553022 
L 133.53931 138.020549 
L 131.124706 141.05294 
L 128.733659 143.66167 
L 126.365825 145.88858 
L 124.02087 147.801735 
L 121.698462 149.487609 
L 119.398278 151.040902 
L 117.12 152.553838 
L 114.863318 154.10673 
L 112.627925 155.761109 
L 110.413521 157.556002 
L 108.219813 159.507227 
L 106.046512 161.609134 
L 103.893333 163.837998 
L 101.76 166.156271 
L 99.646239 168.517085 
L 97.551781 170.868557 
L 95.476364 173.15765 
L 93.419729 175.33348 
L 91.381622 177.350035 
L 89.361794 179.168334 
L 87.36 180.758071 
L 85.376 182.098782 
L 83.409558 183.180599 
L 81.460441 184.004598 
L 79.528421 184.582797 
L 77.613275 184.937818 
L 75.714783 185.102249 
L 73.832727 185.117734 
" style="fill:none;stroke:#8c564b;stroke-linecap:square;stroke-width:1.5;"/>
   </g>
   <g id="patch_3">
    <path d="M 57.6 307.584 
L 57.6 41.472 
" style="fill:none;stroke:#000000;stroke-linecap:square;stroke-linejoin:miter;stroke-width:0.8;"/>
   </g>
   <g id="patch_4">
    <path d="M 414.72 307.584 
L 414.72 41.472 
" style="fill:none;stroke:#000000;stroke-linecap:square;stroke-linejoin:miter;stroke-width:0.8;"/>
   </g>
   <g id="patch_5">
    <path d="M 57.6 307.584 
L 414.72 307.584 
" style="fill:none;stroke:#000000;stroke-linecap:square;stroke-linejoin:miter;stroke-width:0.8;"/>
   </g>
   <g id="patch_6">
    <path d="M 57.6 41.472 
L 414.72 41.472 
" style="fill:none;stroke:#000000;stroke-linecap:square;stroke-linejoin:miter;stroke-width:0.8;"/>
   </g>
   <g id="text_15">
    <!-- TransmissionToWavelengths Resolution:100 BTX:0.02 Polarization: Ey -->
    <defs>
     <path id="DejaVuSans-32"/>
     <path d="M 44.390625 34.1875 
Q 47.5625 33.109375 50.5625 29.59375 
Q 53.5625 26.078125 56.59375 19.921875 
L 66.609375 0 
L 56 0 
L 46.6875 18.703125 
Q 43.0625 26.03125 39.671875 28.421875 
Q 36.28125 30.8125 30.421875 30.8125 
L 19.671875 30.8125 
L 19.671875 0 
L 9.8125 0 
L 9.8125 72.90625 
L 32.078125 72.90625 
Q 44.578125 72.90625 50.734375 67.671875 
Q 56.890625 62.453125 56.890625 51.90625 
Q 56.890625 45.015625 53.6875 40.46875 
Q 50.484375 35.9375 44.390625 34.1875 
z
M 19.671875 64.796875 
L 19.671875 38.921875 
L 32.078125 38.921875 
Q 39.203125 38.921875 42.84375 42.21875 
Q 46.484375 45.515625 46.484375 51.90625 
Q 46.484375 58.296875 42.84375 61.546875 
Q 39.203125 64.796875 32.078125 64.796875 
z
" id="DejaVuSans-82"/>
     <path d="M 8.5 21.578125 
L 8.5 54.6875 
L 17.484375 54.6875 
L 17.484375 21.921875 
Q 17.484375 14.15625 20.5 10.265625 
Q 23.53125 6.390625 29.59375 6.390625 
Q 36.859375 6.390625 41.078125 11.03125 
Q 45.3125 15.671875 45.3125 23.6875 
L 45.3125 54.6875 
L 54.296875 54.6875 
L 54.296875 0 
L 45.3125 0 
L 45.3125 8.40625 
Q 42.046875 3.421875 37.71875 1 
Q 33.40625 -1.421875 27.6875 -1.421875 
Q 18.265625 -1.421875 13.375 4.4375 
Q 8.5 10.296875 8.5 21.578125 
z
M 31.109375 56 
z
" id="DejaVuSans-117"/>
     <path d="M 11.71875 12.40625 
L 22.015625 12.40625 
L 22.015625 0 
L 11.71875 0 
z
M 11.71875 51.703125 
L 22.015625 51.703125 
L 22.015625 39.3125 
L 11.71875 39.3125 
z
" id="DejaVuSans-58"/>
     <path d="M 19.671875 34.8125 
L 19.671875 8.109375 
L 35.5 8.109375 
Q 43.453125 8.109375 47.28125 11.40625 
Q 51.125 14.703125 51.125 21.484375 
Q 51.125 28.328125 47.28125 31.5625 
Q 43.453125 34.8125 35.5 34.8125 
z
M 19.671875 64.796875 
L 19.671875 42.828125 
L 34.28125 42.828125 
Q 41.5 42.828125 45.03125 45.53125 
Q 48.578125 48.25 48.578125 53.8125 
Q 48.578125 59.328125 45.03125 62.0625 
Q 41.5 64.796875 34.28125 64.796875 
z
M 9.8125 72.90625 
L 35.015625 72.90625 
Q 46.296875 72.90625 52.390625 68.21875 
Q 58.5 63.53125 58.5 54.890625 
Q 58.5 48.1875 55.375 44.234375 
Q 52.25 40.28125 46.1875 39.3125 
Q 53.46875 37.75 57.5 32.78125 
Q 61.53125 27.828125 61.53125 20.40625 
Q 61.53125 10.640625 54.890625 5.3125 
Q 48.25 0 35.984375 0 
L 9.8125 0 
z
" id="DejaVuSans-66"/>
     <path d="M 6.296875 72.90625 
L 16.890625 72.90625 
L 35.015625 45.796875 
L 53.21875 72.90625 
L 63.8125 72.90625 
L 40.375 37.890625 
L 65.375 0 
L 54.78125 0 
L 34.28125 31 
L 13.625 0 
L 2.984375 0 
L 29 38.921875 
z
" id="DejaVuSans-88"/>
     <path d="M 19.671875 64.796875 
L 19.671875 37.40625 
L 32.078125 37.40625 
Q 38.96875 37.40625 42.71875 40.96875 
Q 46.484375 44.53125 46.484375 51.125 
Q 46.484375 57.671875 42.71875 61.234375 
Q 38.96875 64.796875 32.078125 64.796875 
z
M 9.8125 72.90625 
L 32.078125 72.90625 
Q 44.34375 72.90625 50.609375 67.359375 
Q 56.890625 61.8125 56.890625 51.125 
Q 56.890625 40.328125 50.609375 34.8125 
Q 44.34375 29.296875 32.078125 29.296875 
L 19.671875 29.296875 
L 19.671875 0 
L 9.8125 0 
z
" id="DejaVuSans-80"/>
     <path d="M 5.515625 54.6875 
L 48.1875 54.6875 
L 48.1875 46.484375 
L 14.40625 7.171875 
L 48.1875 7.171875 
L 48.1875 0 
L 4.296875 0 
L 4.296875 8.203125 
L 38.09375 47.515625 
L 5.515625 47.515625 
z
" id="DejaVuSans-122"/>
     <path d="M 9.8125 72.90625 
L 55.90625 72.90625 
L 55.90625 64.59375 
L 19.671875 64.59375 
L 19.671875 43.015625 
L 54.390625 43.015625 
L 54.390625 34.71875 
L 19.671875 34.71875 
L 19.671875 8.296875 
L 56.78125 8.296875 
L 56.78125 0 
L 9.8125 0 
z
" id="DejaVuSans-69"/>
     <path d="M 32.171875 -5.078125 
Q 28.375 -14.84375 24.75 -17.8125 
Q 21.140625 -20.796875 15.09375 -20.796875 
L 7.90625 -20.796875 
L 7.90625 -13.28125 
L 13.1875 -13.28125 
Q 16.890625 -13.28125 18.9375 -11.515625 
Q 21 -9.765625 23.484375 -3.21875 
L 25.09375 0.875 
L 2.984375 54.6875 
L 12.5 54.6875 
L 29.59375 11.921875 
L 46.6875 54.6875 
L 56.203125 54.6875 
z
" id="DejaVuSans-121"/>
    </defs>
    <g transform="translate(28.414688 35.472)scale(0.12 -0.12)">
     <use xlink:href="#DejaVuSans-84"/>
     <use x="46.333984" xlink:href="#DejaVuSans-114"/>
     <use x="87.447266" xlink:href="#DejaVuSans-97"/>
     <use x="148.726562" xlink:href="#DejaVuSans-110"/>
     <use x="212.105469" xlink:href="#DejaVuSans-115"/>
     <use x="264.205078" xlink:href="#DejaVuSans-109"/>
     <use x="361.617188" xlink:href="#DejaVuSans-105"/>
     <use x="389.400391" xlink:href="#DejaVuSans-115"/>
     <use x="441.5" xlink:href="#DejaVuSans-115"/>
     <use x="493.599609" xlink:href="#DejaVuSans-105"/>
     <use x="521.382812" xlink:href="#DejaVuSans-111"/>
     <use x="582.564453" xlink:href="#DejaVuSans-110"/>
     <use x="645.943359" xlink:href="#DejaVuSans-84"/>
     <use x="690.027344" xlink:href="#DejaVuSans-111"/>
     <use x="751.208984" xlink:href="#DejaVuSans-87"/>
     <use x="843.710938" xlink:href="#DejaVuSans-97"/>
     <use x="904.990234" xlink:href="#DejaVuSans-118"/>
     <use x="964.169922" xlink:href="#DejaVuSans-101"/>
     <use x="1025.693359" xlink:href="#DejaVuSans-108"/>
     <use x="1053.476562" xlink:href="#DejaVuSans-101"/>
     <use x="1115" xlink:href="#DejaVuSans-110"/>
     <use x="1178.378906" xlink:href="#DejaVuSans-103"/>
     <use x="1241.855469" xlink:href="#DejaVuSans-116"/>
     <use x="1281.064453" xlink:href="#DejaVuSans-104"/>
     <use x="1344.443359" xlink:href="#DejaVuSans-115"/>
     <use x="1396.542969" xlink:href="#DejaVuSans-32"/>
     <use x="1428.330078" xlink:href="#DejaVuSans-82"/>
     <use x="1493.3125" xlink:href="#DejaVuSans-101"/>
     <use x="1554.835938" xlink:href="#DejaVuSans-115"/>
     <use x="1606.935547" xlink:href="#DejaVuSans-111"/>
     <use x="1668.117188" xlink:href="#DejaVuSans-108"/>
     <use x="1695.900391" xlink:href="#DejaVuSans-117"/>
     <use x="1759.279297" xlink:href="#DejaVuSans-116"/>
     <use x="1798.488281" xlink:href="#DejaVuSans-105"/>
     <use x="1826.271484" xlink:href="#DejaVuSans-111"/>
     <use x="1887.453125" xlink:href="#DejaVuSans-110"/>
     <use x="1950.832031" xlink:href="#DejaVuSans-58"/>
     <use x="1984.523438" xlink:href="#DejaVuSans-49"/>
     <use x="2048.146484" xlink:href="#DejaVuSans-48"/>
     <use x="2111.769531" xlink:href="#DejaVuSans-48"/>
     <use x="2175.392578" xlink:href="#DejaVuSans-32"/>
     <use x="2207.179688" xlink:href="#DejaVuSans-66"/>
     <use x="2275.783203" xlink:href="#DejaVuSans-84"/>
     <use x="2336.867188" xlink:href="#DejaVuSans-88"/>
     <use x="2405.373047" xlink:href="#DejaVuSans-58"/>
     <use x="2439.064453" xlink:href="#DejaVuSans-48"/>
     <use x="2502.6875" xlink:href="#DejaVuSans-46"/>
     <use x="2534.474609" xlink:href="#DejaVuSans-48"/>
     <use x="2598.097656" xlink:href="#DejaVuSans-50"/>
     <use x="2661.720703" xlink:href="#DejaVuSans-32"/>
     <use x="2693.507812" xlink:href="#DejaVuSans-80"/>
     <use x="2750.185547" xlink:href="#DejaVuSans-111"/>
     <use x="2811.367188" xlink:href="#DejaVuSans-108"/>
     <use x="2839.150391" xlink:href="#DejaVuSans-97"/>
     <use x="2900.429688" xlink:href="#DejaVuSans-114"/>
     <use x="2941.542969" xlink:href="#DejaVuSans-105"/>
     <use x="2969.326172" xlink:href="#DejaVuSans-122"/>
     <use x="3021.816406" xlink:href="#DejaVuSans-97"/>
     <use x="3083.095703" xlink:href="#DejaVuSans-116"/>
     <use x="3122.304688" xlink:href="#DejaVuSans-105"/>
     <use x="3150.087891" xlink:href="#DejaVuSans-111"/>
     <use x="3211.269531" xlink:href="#DejaVuSans-110"/>
     <use x="3274.648438" xlink:href="#DejaVuSans-58"/>
     <use x="3308.339844" xlink:href="#DejaVuSans-32"/>
     <use x="3340.126953" xlink:href="#DejaVuSans-69"/>
     <use x="3403.310547" xlink:href="#DejaVuSans-121"/>
    </g>
   </g>
   <g id="legend_1">
    <g id="patch_7">
     <path d="M 295.349688 302.584 
L 407.72 302.584 
Q 409.72 302.584 409.72 300.584 
L 409.72 228.193375 
Q 409.72 226.193375 407.72 226.193375 
L 295.349688 226.193375 
Q 293.349688 226.193375 293.349688 228.193375 
L 293.349688 300.584 
Q 293.349688 302.584 295.349688 302.584 
z
" style="fill:#ffffff;opacity:0.8;stroke:#cccccc;stroke-linejoin:miter;"/>
    </g>
    <g id="line2d_18">
     <path d="M 297.349688 234.291812 
L 317.349688 234.291812 
" style="fill:none;stroke:#ff7f0e;stroke-linecap:square;stroke-width:1.5;"/>
    </g>
    <g id="line2d_19"/>
    <g id="text_16">
     <!-- ST:0.05 BTY:0.5  -->
     <defs>
      <path d="M 53.515625 70.515625 
L 53.515625 60.890625 
Q 47.90625 63.578125 42.921875 64.890625 
Q 37.9375 66.21875 33.296875 66.21875 
Q 25.25 66.21875 20.875 63.09375 
Q 16.5 59.96875 16.5 54.203125 
Q 16.5 49.359375 19.40625 46.890625 
Q 22.3125 44.4375 30.421875 42.921875 
L 36.375 41.703125 
Q 47.40625 39.59375 52.65625 34.296875 
Q 57.90625 29 57.90625 20.125 
Q 57.90625 9.515625 50.796875 4.046875 
Q 43.703125 -1.421875 29.984375 -1.421875 
Q 24.8125 -1.421875 18.96875 -0.25 
Q 13.140625 0.921875 6.890625 3.21875 
L 6.890625 13.375 
Q 12.890625 10.015625 18.65625 8.296875 
Q 24.421875 6.59375 29.984375 6.59375 
Q 38.421875 6.59375 43.015625 9.90625 
Q 47.609375 13.234375 47.609375 19.390625 
Q 47.609375 24.75 44.3125 27.78125 
Q 41.015625 30.8125 33.5 32.328125 
L 27.484375 33.5 
Q 16.453125 35.6875 11.515625 40.375 
Q 6.59375 45.0625 6.59375 53.421875 
Q 6.59375 63.09375 13.40625 68.65625 
Q 20.21875 74.21875 32.171875 74.21875 
Q 37.3125 74.21875 42.625 73.28125 
Q 47.953125 72.359375 53.515625 70.515625 
z
" id="DejaVuSans-83"/>
      <path d="M -0.203125 72.90625 
L 10.40625 72.90625 
L 30.609375 42.921875 
L 50.6875 72.90625 
L 61.28125 72.90625 
L 35.5 34.71875 
L 35.5 0 
L 25.59375 0 
L 25.59375 34.71875 
z
" id="DejaVuSans-89"/>
     </defs>
     <g transform="translate(325.349688 237.791812)scale(0.1 -0.1)">
      <use xlink:href="#DejaVuSans-83"/>
      <use x="63.476562" xlink:href="#DejaVuSans-84"/>
      <use x="113.560547" xlink:href="#DejaVuSans-58"/>
      <use x="147.251953" xlink:href="#DejaVuSans-48"/>
      <use x="210.875" xlink:href="#DejaVuSans-46"/>
      <use x="242.662109" xlink:href="#DejaVuSans-48"/>
      <use x="306.285156" xlink:href="#DejaVuSans-53"/>
      <use x="369.908203" xlink:href="#DejaVuSans-32"/>
      <use x="401.695312" xlink:href="#DejaVuSans-66"/>
      <use x="470.298828" xlink:href="#DejaVuSans-84"/>
      <use x="531.382812" xlink:href="#DejaVuSans-89"/>
      <use x="579.216797" xlink:href="#DejaVuSans-58"/>
      <use x="612.908203" xlink:href="#DejaVuSans-48"/>
      <use x="676.53125" xlink:href="#DejaVuSans-46"/>
      <use x="708.318359" xlink:href="#DejaVuSans-53"/>
      <use x="771.941406" xlink:href="#DejaVuSans-32"/>
     </g>
    </g>
    <g id="line2d_20">
     <path d="M 297.349688 248.969937 
L 317.349688 248.969937 
" style="fill:none;stroke:#2ca02c;stroke-linecap:square;stroke-width:1.5;"/>
    </g>
    <g id="line2d_21"/>
    <g id="text_17">
     <!-- ST:0.1 BTY:0.5  -->
     <g transform="translate(325.349688 252.469937)scale(0.1 -0.1)">
      <use xlink:href="#DejaVuSans-83"/>
      <use x="63.476562" xlink:href="#DejaVuSans-84"/>
      <use x="113.560547" xlink:href="#DejaVuSans-58"/>
      <use x="147.251953" xlink:href="#DejaVuSans-48"/>
      <use x="210.875" xlink:href="#DejaVuSans-46"/>
      <use x="242.662109" xlink:href="#DejaVuSans-49"/>
      <use x="306.285156" xlink:href="#DejaVuSans-32"/>
      <use x="338.072266" xlink:href="#DejaVuSans-66"/>
      <use x="406.675781" xlink:href="#DejaVuSans-84"/>
      <use x="467.759766" xlink:href="#DejaVuSans-89"/>
      <use x="515.59375" xlink:href="#DejaVuSans-58"/>
      <use x="549.285156" xlink:href="#DejaVuSans-48"/>
      <use x="612.908203" xlink:href="#DejaVuSans-46"/>
      <use x="644.695312" xlink:href="#DejaVuSans-53"/>
      <use x="708.318359" xlink:href="#DejaVuSans-32"/>
     </g>
    </g>
    <g id="line2d_22">
     <path d="M 297.349688 263.648062 
L 317.349688 263.648062 
" style="fill:none;stroke:#d62728;stroke-linecap:square;stroke-width:1.5;"/>
    </g>
    <g id="line2d_23"/>
    <g id="text_18">
     <!-- ST:0.15 BTY:0.5  -->
     <g transform="translate(325.349688 267.148062)scale(0.1 -0.1)">
      <use xlink:href="#DejaVuSans-83"/>
      <use x="63.476562" xlink:href="#DejaVuSans-84"/>
      <use x="113.560547" xlink:href="#DejaVuSans-58"/>
      <use x="147.251953" xlink:href="#DejaVuSans-48"/>
      <use x="210.875" xlink:href="#DejaVuSans-46"/>
      <use x="242.662109" xlink:href="#DejaVuSans-49"/>
      <use x="306.285156" xlink:href="#DejaVuSans-53"/>
      <use x="369.908203" xlink:href="#DejaVuSans-32"/>
      <use x="401.695312" xlink:href="#DejaVuSans-66"/>
      <use x="470.298828" xlink:href="#DejaVuSans-84"/>
      <use x="531.382812" xlink:href="#DejaVuSans-89"/>
      <use x="579.216797" xlink:href="#DejaVuSans-58"/>
      <use x="612.908203" xlink:href="#DejaVuSans-48"/>
      <use x="676.53125" xlink:href="#DejaVuSans-46"/>
      <use x="708.318359" xlink:href="#DejaVuSans-53"/>
      <use x="771.941406" xlink:href="#DejaVuSans-32"/>
     </g>
    </g>
    <g id="line2d_24">
     <path d="M 297.349688 278.326188 
L 317.349688 278.326188 
" style="fill:none;stroke:#9467bd;stroke-linecap:square;stroke-width:1.5;"/>
    </g>
    <g id="line2d_25"/>
    <g id="text_19">
     <!-- ST:0.2 BTY:0.5  -->
     <g transform="translate(325.349688 281.826188)scale(0.1 -0.1)">
      <use xlink:href="#DejaVuSans-83"/>
      <use x="63.476562" xlink:href="#DejaVuSans-84"/>
      <use x="113.560547" xlink:href="#DejaVuSans-58"/>
      <use x="147.251953" xlink:href="#DejaVuSans-48"/>
      <use x="210.875" xlink:href="#DejaVuSans-46"/>
      <use x="242.662109" xlink:href="#DejaVuSans-50"/>
      <use x="306.285156" xlink:href="#DejaVuSans-32"/>
      <use x="338.072266" xlink:href="#DejaVuSans-66"/>
      <use x="406.675781" xlink:href="#DejaVuSans-84"/>
      <use x="467.759766" xlink:href="#DejaVuSans-89"/>
      <use x="515.59375" xlink:href="#DejaVuSans-58"/>
      <use x="549.285156" xlink:href="#DejaVuSans-48"/>
      <use x="612.908203" xlink:href="#DejaVuSans-46"/>
      <use x="644.695312" xlink:href="#DejaVuSans-53"/>
      <use x="708.318359" xlink:href="#DejaVuSans-32"/>
     </g>
    </g>
    <g id="line2d_26">
     <path d="M 297.349688 293.004312 
L 317.349688 293.004312 
" style="fill:none;stroke:#8c564b;stroke-linecap:square;stroke-width:1.5;"/>
    </g>
    <g id="line2d_27"/>
    <g id="text_20">
     <!-- ST:0.25 BTY:0.5  -->
     <g transform="translate(325.349688 296.504312)scale(0.1 -0.1)">
      <use xlink:href="#DejaVuSans-83"/>
      <use x="63.476562" xlink:href="#DejaVuSans-84"/>
      <use x="113.560547" xlink:href="#DejaVuSans-58"/>
      <use x="147.251953" xlink:href="#DejaVuSans-48"/>
      <use x="210.875" xlink:href="#DejaVuSans-46"/>
      <use x="242.662109" xlink:href="#DejaVuSans-50"/>
      <use x="306.285156" xlink:href="#DejaVuSans-53"/>
      <use x="369.908203" xlink:href="#DejaVuSans-32"/>
      <use x="401.695312" xlink:href="#DejaVuSans-66"/>
      <use x="470.298828" xlink:href="#DejaVuSans-84"/>
      <use x="531.382812" xlink:href="#DejaVuSans-89"/>
      <use x="579.216797" xlink:href="#DejaVuSans-58"/>
      <use x="612.908203" xlink:href="#DejaVuSans-48"/>
      <use x="676.53125" xlink:href="#DejaVuSans-46"/>
      <use x="708.318359" xlink:href="#DejaVuSans-53"/>
      <use x="771.941406" xlink:href="#DejaVuSans-32"/>
     </g>
    </g>
   </g>
  </g>
 </g>
 <defs>
  <clipPath id="p917a0538ff">
   <rect height="266.112" width="357.12" x="57.6" y="41.472"/>
  </clipPath>
 </defs>
</svg>
