<?xml version="1.0" encoding="utf-8" standalone="no"?>
<!DOCTYPE svg PUBLIC "-//W3C//DTD SVG 1.1//EN"
  "http://www.w3.org/Graphics/SVG/1.1/DTD/svg11.dtd">
<!-- Created with matplotlib (https://matplotlib.org/) -->
<svg height="345.6pt" version="1.1" viewBox="0 0 460.8 345.6" width="460.8pt" xmlns="http://www.w3.org/2000/svg" xmlns:xlink="http://www.w3.org/1999/xlink">
 <defs>
  <style type="text/css">
*{stroke-linecap:butt;stroke-linejoin:round;}
  </style>
 </defs>
 <g id="figure_1">
  <g id="patch_1">
   <path d="M 0 345.6 
L 460.8 345.6 
L 460.8 0 
L 0 0 
z
" style="fill:#ffffff;"/>
  </g>
  <g id="axes_1">
   <g id="patch_2">
    <path d="M 57.6 307.584 
L 414.72 307.584 
L 414.72 41.472 
L 57.6 41.472 
z
" style="fill:#ffffff;"/>
   </g>
   <g id="matplotlib.axis_1">
    <g id="xtick_1">
     <g id="line2d_1">
      <defs>
       <path d="M 0 0 
L 0 3.5 
" id="m26b384a8ae" style="stroke:#000000;stroke-width:0.8;"/>
      </defs>
      <g>
       <use style="stroke:#000000;stroke-width:0.8;" x="73.832727" xlink:href="#m26b384a8ae" y="307.584"/>
      </g>
     </g>
     <g id="text_1">
      <!-- 400 -->
      <defs>
       <path d="M 37.796875 64.3125 
L 12.890625 25.390625 
L 37.796875 25.390625 
z
M 35.203125 72.90625 
L 47.609375 72.90625 
L 47.609375 25.390625 
L 58.015625 25.390625 
L 58.015625 17.1875 
L 47.609375 17.1875 
L 47.609375 0 
L 37.796875 0 
L 37.796875 17.1875 
L 4.890625 17.1875 
L 4.890625 26.703125 
z
" id="DejaVuSans-52"/>
       <path d="M 31.78125 66.40625 
Q 24.171875 66.40625 20.328125 58.90625 
Q 16.5 51.421875 16.5 36.375 
Q 16.5 21.390625 20.328125 13.890625 
Q 24.171875 6.390625 31.78125 6.390625 
Q 39.453125 6.390625 43.28125 13.890625 
Q 47.125 21.390625 47.125 36.375 
Q 47.125 51.421875 43.28125 58.90625 
Q 39.453125 66.40625 31.78125 66.40625 
z
M 31.78125 74.21875 
Q 44.046875 74.21875 50.515625 64.515625 
Q 56.984375 54.828125 56.984375 36.375 
Q 56.984375 17.96875 50.515625 8.265625 
Q 44.046875 -1.421875 31.78125 -1.421875 
Q 19.53125 -1.421875 13.0625 8.265625 
Q 6.59375 17.96875 6.59375 36.375 
Q 6.59375 54.828125 13.0625 64.515625 
Q 19.53125 74.21875 31.78125 74.21875 
z
" id="DejaVuSans-48"/>
      </defs>
      <g transform="translate(64.288977 322.182437)scale(0.1 -0.1)">
       <use xlink:href="#DejaVuSans-52"/>
       <use x="63.623047" xlink:href="#DejaVuSans-48"/>
       <use x="127.246094" xlink:href="#DejaVuSans-48"/>
      </g>
     </g>
    </g>
    <g id="xtick_2">
     <g id="line2d_2">
      <g>
       <use style="stroke:#000000;stroke-width:0.8;" x="127.941818" xlink:href="#m26b384a8ae" y="307.584"/>
      </g>
     </g>
     <g id="text_2">
      <!-- 450 -->
      <defs>
       <path d="M 10.796875 72.90625 
L 49.515625 72.90625 
L 49.515625 64.59375 
L 19.828125 64.59375 
L 19.828125 46.734375 
Q 21.96875 47.46875 24.109375 47.828125 
Q 26.265625 48.1875 28.421875 48.1875 
Q 40.625 48.1875 47.75 41.5 
Q 54.890625 34.8125 54.890625 23.390625 
Q 54.890625 11.625 47.5625 5.09375 
Q 40.234375 -1.421875 26.90625 -1.421875 
Q 22.3125 -1.421875 17.546875 -0.640625 
Q 12.796875 0.140625 7.71875 1.703125 
L 7.71875 11.625 
Q 12.109375 9.234375 16.796875 8.0625 
Q 21.484375 6.890625 26.703125 6.890625 
Q 35.15625 6.890625 40.078125 11.328125 
Q 45.015625 15.765625 45.015625 23.390625 
Q 45.015625 31 40.078125 35.4375 
Q 35.15625 39.890625 26.703125 39.890625 
Q 22.75 39.890625 18.8125 39.015625 
Q 14.890625 38.140625 10.796875 36.28125 
z
" id="DejaVuSans-53"/>
      </defs>
      <g transform="translate(118.398068 322.182437)scale(0.1 -0.1)">
       <use xlink:href="#DejaVuSans-52"/>
       <use x="63.623047" xlink:href="#DejaVuSans-53"/>
       <use x="127.246094" xlink:href="#DejaVuSans-48"/>
      </g>
     </g>
    </g>
    <g id="xtick_3">
     <g id="line2d_3">
      <g>
       <use style="stroke:#000000;stroke-width:0.8;" x="182.050909" xlink:href="#m26b384a8ae" y="307.584"/>
      </g>
     </g>
     <g id="text_3">
      <!-- 500 -->
      <g transform="translate(172.507159 322.182437)scale(0.1 -0.1)">
       <use xlink:href="#DejaVuSans-53"/>
       <use x="63.623047" xlink:href="#DejaVuSans-48"/>
       <use x="127.246094" xlink:href="#DejaVuSans-48"/>
      </g>
     </g>
    </g>
    <g id="xtick_4">
     <g id="line2d_4">
      <g>
       <use style="stroke:#000000;stroke-width:0.8;" x="236.16" xlink:href="#m26b384a8ae" y="307.584"/>
      </g>
     </g>
     <g id="text_4">
      <!-- 550 -->
      <g transform="translate(226.61625 322.182437)scale(0.1 -0.1)">
       <use xlink:href="#DejaVuSans-53"/>
       <use x="63.623047" xlink:href="#DejaVuSans-53"/>
       <use x="127.246094" xlink:href="#DejaVuSans-48"/>
      </g>
     </g>
    </g>
    <g id="xtick_5">
     <g id="line2d_5">
      <g>
       <use style="stroke:#000000;stroke-width:0.8;" x="290.269091" xlink:href="#m26b384a8ae" y="307.584"/>
      </g>
     </g>
     <g id="text_5">
      <!-- 600 -->
      <defs>
       <path d="M 33.015625 40.375 
Q 26.375 40.375 22.484375 35.828125 
Q 18.609375 31.296875 18.609375 23.390625 
Q 18.609375 15.53125 22.484375 10.953125 
Q 26.375 6.390625 33.015625 6.390625 
Q 39.65625 6.390625 43.53125 10.953125 
Q 47.40625 15.53125 47.40625 23.390625 
Q 47.40625 31.296875 43.53125 35.828125 
Q 39.65625 40.375 33.015625 40.375 
z
M 52.59375 71.296875 
L 52.59375 62.3125 
Q 48.875 64.0625 45.09375 64.984375 
Q 41.3125 65.921875 37.59375 65.921875 
Q 27.828125 65.921875 22.671875 59.328125 
Q 17.53125 52.734375 16.796875 39.40625 
Q 19.671875 43.65625 24.015625 45.921875 
Q 28.375 48.1875 33.59375 48.1875 
Q 44.578125 48.1875 50.953125 41.515625 
Q 57.328125 34.859375 57.328125 23.390625 
Q 57.328125 12.15625 50.6875 5.359375 
Q 44.046875 -1.421875 33.015625 -1.421875 
Q 20.359375 -1.421875 13.671875 8.265625 
Q 6.984375 17.96875 6.984375 36.375 
Q 6.984375 53.65625 15.1875 63.9375 
Q 23.390625 74.21875 37.203125 74.21875 
Q 40.921875 74.21875 44.703125 73.484375 
Q 48.484375 72.75 52.59375 71.296875 
z
" id="DejaVuSans-54"/>
      </defs>
      <g transform="translate(280.725341 322.182437)scale(0.1 -0.1)">
       <use xlink:href="#DejaVuSans-54"/>
       <use x="63.623047" xlink:href="#DejaVuSans-48"/>
       <use x="127.246094" xlink:href="#DejaVuSans-48"/>
      </g>
     </g>
    </g>
    <g id="xtick_6">
     <g id="line2d_6">
      <g>
       <use style="stroke:#000000;stroke-width:0.8;" x="344.378182" xlink:href="#m26b384a8ae" y="307.584"/>
      </g>
     </g>
     <g id="text_6">
      <!-- 650 -->
      <g transform="translate(334.834432 322.182437)scale(0.1 -0.1)">
       <use xlink:href="#DejaVuSans-54"/>
       <use x="63.623047" xlink:href="#DejaVuSans-53"/>
       <use x="127.246094" xlink:href="#DejaVuSans-48"/>
      </g>
     </g>
    </g>
    <g id="xtick_7">
     <g id="line2d_7">
      <g>
       <use style="stroke:#000000;stroke-width:0.8;" x="398.487273" xlink:href="#m26b384a8ae" y="307.584"/>
      </g>
     </g>
     <g id="text_7">
      <!-- 700 -->
      <defs>
       <path d="M 8.203125 72.90625 
L 55.078125 72.90625 
L 55.078125 68.703125 
L 28.609375 0 
L 18.3125 0 
L 43.21875 64.59375 
L 8.203125 64.59375 
z
" id="DejaVuSans-55"/>
      </defs>
      <g transform="translate(388.943523 322.182437)scale(0.1 -0.1)">
       <use xlink:href="#DejaVuSans-55"/>
       <use x="63.623047" xlink:href="#DejaVuSans-48"/>
       <use x="127.246094" xlink:href="#DejaVuSans-48"/>
      </g>
     </g>
    </g>
    <g id="text_8">
     <!-- Wavelengths -->
     <defs>
      <path d="M 3.328125 72.90625 
L 13.28125 72.90625 
L 28.609375 11.28125 
L 43.890625 72.90625 
L 54.984375 72.90625 
L 70.3125 11.28125 
L 85.59375 72.90625 
L 95.609375 72.90625 
L 77.296875 0 
L 64.890625 0 
L 49.515625 63.28125 
L 33.984375 0 
L 21.578125 0 
z
" id="DejaVuSans-87"/>
      <path d="M 34.28125 27.484375 
Q 23.390625 27.484375 19.1875 25 
Q 14.984375 22.515625 14.984375 16.5 
Q 14.984375 11.71875 18.140625 8.90625 
Q 21.296875 6.109375 26.703125 6.109375 
Q 34.1875 6.109375 38.703125 11.40625 
Q 43.21875 16.703125 43.21875 25.484375 
L 43.21875 27.484375 
z
M 52.203125 31.203125 
L 52.203125 0 
L 43.21875 0 
L 43.21875 8.296875 
Q 40.140625 3.328125 35.546875 0.953125 
Q 30.953125 -1.421875 24.3125 -1.421875 
Q 15.921875 -1.421875 10.953125 3.296875 
Q 6 8.015625 6 15.921875 
Q 6 25.140625 12.171875 29.828125 
Q 18.359375 34.515625 30.609375 34.515625 
L 43.21875 34.515625 
L 43.21875 35.40625 
Q 43.21875 41.609375 39.140625 45 
Q 35.0625 48.390625 27.6875 48.390625 
Q 23 48.390625 18.546875 47.265625 
Q 14.109375 46.140625 10.015625 43.890625 
L 10.015625 52.203125 
Q 14.9375 54.109375 19.578125 55.046875 
Q 24.21875 56 28.609375 56 
Q 40.484375 56 46.34375 49.84375 
Q 52.203125 43.703125 52.203125 31.203125 
z
" id="DejaVuSans-97"/>
      <path d="M 2.984375 54.6875 
L 12.5 54.6875 
L 29.59375 8.796875 
L 46.6875 54.6875 
L 56.203125 54.6875 
L 35.6875 0 
L 23.484375 0 
z
" id="DejaVuSans-118"/>
      <path d="M 56.203125 29.59375 
L 56.203125 25.203125 
L 14.890625 25.203125 
Q 15.484375 15.921875 20.484375 11.0625 
Q 25.484375 6.203125 34.421875 6.203125 
Q 39.59375 6.203125 44.453125 7.46875 
Q 49.3125 8.734375 54.109375 11.28125 
L 54.109375 2.78125 
Q 49.265625 0.734375 44.1875 -0.34375 
Q 39.109375 -1.421875 33.890625 -1.421875 
Q 20.796875 -1.421875 13.15625 6.1875 
Q 5.515625 13.8125 5.515625 26.8125 
Q 5.515625 40.234375 12.765625 48.109375 
Q 20.015625 56 32.328125 56 
Q 43.359375 56 49.78125 48.890625 
Q 56.203125 41.796875 56.203125 29.59375 
z
M 47.21875 32.234375 
Q 47.125 39.59375 43.09375 43.984375 
Q 39.0625 48.390625 32.421875 48.390625 
Q 24.90625 48.390625 20.390625 44.140625 
Q 15.875 39.890625 15.1875 32.171875 
z
" id="DejaVuSans-101"/>
      <path d="M 9.421875 75.984375 
L 18.40625 75.984375 
L 18.40625 0 
L 9.421875 0 
z
" id="DejaVuSans-108"/>
      <path d="M 54.890625 33.015625 
L 54.890625 0 
L 45.90625 0 
L 45.90625 32.71875 
Q 45.90625 40.484375 42.875 44.328125 
Q 39.84375 48.1875 33.796875 48.1875 
Q 26.515625 48.1875 22.3125 43.546875 
Q 18.109375 38.921875 18.109375 30.90625 
L 18.109375 0 
L 9.078125 0 
L 9.078125 54.6875 
L 18.109375 54.6875 
L 18.109375 46.1875 
Q 21.34375 51.125 25.703125 53.5625 
Q 30.078125 56 35.796875 56 
Q 45.21875 56 50.046875 50.171875 
Q 54.890625 44.34375 54.890625 33.015625 
z
" id="DejaVuSans-110"/>
      <path d="M 45.40625 27.984375 
Q 45.40625 37.75 41.375 43.109375 
Q 37.359375 48.484375 30.078125 48.484375 
Q 22.859375 48.484375 18.828125 43.109375 
Q 14.796875 37.75 14.796875 27.984375 
Q 14.796875 18.265625 18.828125 12.890625 
Q 22.859375 7.515625 30.078125 7.515625 
Q 37.359375 7.515625 41.375 12.890625 
Q 45.40625 18.265625 45.40625 27.984375 
z
M 54.390625 6.78125 
Q 54.390625 -7.171875 48.1875 -13.984375 
Q 42 -20.796875 29.203125 -20.796875 
Q 24.46875 -20.796875 20.265625 -20.09375 
Q 16.0625 -19.390625 12.109375 -17.921875 
L 12.109375 -9.1875 
Q 16.0625 -11.328125 19.921875 -12.34375 
Q 23.78125 -13.375 27.78125 -13.375 
Q 36.625 -13.375 41.015625 -8.765625 
Q 45.40625 -4.15625 45.40625 5.171875 
L 45.40625 9.625 
Q 42.625 4.78125 38.28125 2.390625 
Q 33.9375 0 27.875 0 
Q 17.828125 0 11.671875 7.65625 
Q 5.515625 15.328125 5.515625 27.984375 
Q 5.515625 40.671875 11.671875 48.328125 
Q 17.828125 56 27.875 56 
Q 33.9375 56 38.28125 53.609375 
Q 42.625 51.21875 45.40625 46.390625 
L 45.40625 54.6875 
L 54.390625 54.6875 
z
" id="DejaVuSans-103"/>
      <path d="M 18.3125 70.21875 
L 18.3125 54.6875 
L 36.8125 54.6875 
L 36.8125 47.703125 
L 18.3125 47.703125 
L 18.3125 18.015625 
Q 18.3125 11.328125 20.140625 9.421875 
Q 21.96875 7.515625 27.59375 7.515625 
L 36.8125 7.515625 
L 36.8125 0 
L 27.59375 0 
Q 17.1875 0 13.234375 3.875 
Q 9.28125 7.765625 9.28125 18.015625 
L 9.28125 47.703125 
L 2.6875 47.703125 
L 2.6875 54.6875 
L 9.28125 54.6875 
L 9.28125 70.21875 
z
" id="DejaVuSans-116"/>
      <path d="M 54.890625 33.015625 
L 54.890625 0 
L 45.90625 0 
L 45.90625 32.71875 
Q 45.90625 40.484375 42.875 44.328125 
Q 39.84375 48.1875 33.796875 48.1875 
Q 26.515625 48.1875 22.3125 43.546875 
Q 18.109375 38.921875 18.109375 30.90625 
L 18.109375 0 
L 9.078125 0 
L 9.078125 75.984375 
L 18.109375 75.984375 
L 18.109375 46.1875 
Q 21.34375 51.125 25.703125 53.5625 
Q 30.078125 56 35.796875 56 
Q 45.21875 56 50.046875 50.171875 
Q 54.890625 44.34375 54.890625 33.015625 
z
" id="DejaVuSans-104"/>
      <path d="M 44.28125 53.078125 
L 44.28125 44.578125 
Q 40.484375 46.53125 36.375 47.5 
Q 32.28125 48.484375 27.875 48.484375 
Q 21.1875 48.484375 17.84375 46.4375 
Q 14.5 44.390625 14.5 40.28125 
Q 14.5 37.15625 16.890625 35.375 
Q 19.28125 33.59375 26.515625 31.984375 
L 29.59375 31.296875 
Q 39.15625 29.25 43.1875 25.515625 
Q 47.21875 21.78125 47.21875 15.09375 
Q 47.21875 7.46875 41.1875 3.015625 
Q 35.15625 -1.421875 24.609375 -1.421875 
Q 20.21875 -1.421875 15.453125 -0.5625 
Q 10.6875 0.296875 5.421875 2 
L 5.421875 11.28125 
Q 10.40625 8.6875 15.234375 7.390625 
Q 20.0625 6.109375 24.8125 6.109375 
Q 31.15625 6.109375 34.5625 8.28125 
Q 37.984375 10.453125 37.984375 14.40625 
Q 37.984375 18.0625 35.515625 20.015625 
Q 33.0625 21.96875 24.703125 23.78125 
L 21.578125 24.515625 
Q 13.234375 26.265625 9.515625 29.90625 
Q 5.8125 33.546875 5.8125 39.890625 
Q 5.8125 47.609375 11.28125 51.796875 
Q 16.75 56 26.8125 56 
Q 31.78125 56 36.171875 55.265625 
Q 40.578125 54.546875 44.28125 53.078125 
z
" id="DejaVuSans-115"/>
     </defs>
     <g transform="translate(203.892812 335.860562)scale(0.1 -0.1)">
      <use xlink:href="#DejaVuSans-87"/>
      <use x="92.501953" xlink:href="#DejaVuSans-97"/>
      <use x="153.78125" xlink:href="#DejaVuSans-118"/>
      <use x="212.960938" xlink:href="#DejaVuSans-101"/>
      <use x="274.484375" xlink:href="#DejaVuSans-108"/>
      <use x="302.267578" xlink:href="#DejaVuSans-101"/>
      <use x="363.791016" xlink:href="#DejaVuSans-110"/>
      <use x="427.169922" xlink:href="#DejaVuSans-103"/>
      <use x="490.646484" xlink:href="#DejaVuSans-116"/>
      <use x="529.855469" xlink:href="#DejaVuSans-104"/>
      <use x="593.234375" xlink:href="#DejaVuSans-115"/>
     </g>
    </g>
   </g>
   <g id="matplotlib.axis_2">
    <g id="ytick_1">
     <g id="line2d_8">
      <defs>
       <path d="M 0 0 
L -3.5 0 
" id="m42b2b69c6c" style="stroke:#000000;stroke-width:0.8;"/>
      </defs>
      <g>
       <use style="stroke:#000000;stroke-width:0.8;" x="57.6" xlink:href="#m42b2b69c6c" y="278.714864"/>
      </g>
     </g>
     <g id="text_9">
      <!-- 0.50 -->
      <defs>
       <path d="M 10.6875 12.40625 
L 21 12.40625 
L 21 0 
L 10.6875 0 
z
" id="DejaVuSans-46"/>
      </defs>
      <g transform="translate(28.334375 282.514083)scale(0.1 -0.1)">
       <use xlink:href="#DejaVuSans-48"/>
       <use x="63.623047" xlink:href="#DejaVuSans-46"/>
       <use x="95.410156" xlink:href="#DejaVuSans-53"/>
       <use x="159.033203" xlink:href="#DejaVuSans-48"/>
      </g>
     </g>
    </g>
    <g id="ytick_2">
     <g id="line2d_9">
      <g>
       <use style="stroke:#000000;stroke-width:0.8;" x="57.6" xlink:href="#m42b2b69c6c" y="227.543512"/>
      </g>
     </g>
     <g id="text_10">
      <!-- 0.55 -->
      <g transform="translate(28.334375 231.342731)scale(0.1 -0.1)">
       <use xlink:href="#DejaVuSans-48"/>
       <use x="63.623047" xlink:href="#DejaVuSans-46"/>
       <use x="95.410156" xlink:href="#DejaVuSans-53"/>
       <use x="159.033203" xlink:href="#DejaVuSans-53"/>
      </g>
     </g>
    </g>
    <g id="ytick_3">
     <g id="line2d_10">
      <g>
       <use style="stroke:#000000;stroke-width:0.8;" x="57.6" xlink:href="#m42b2b69c6c" y="176.37216"/>
      </g>
     </g>
     <g id="text_11">
      <!-- 0.60 -->
      <g transform="translate(28.334375 180.171379)scale(0.1 -0.1)">
       <use xlink:href="#DejaVuSans-48"/>
       <use x="63.623047" xlink:href="#DejaVuSans-46"/>
       <use x="95.410156" xlink:href="#DejaVuSans-54"/>
       <use x="159.033203" xlink:href="#DejaVuSans-48"/>
      </g>
     </g>
    </g>
    <g id="ytick_4">
     <g id="line2d_11">
      <g>
       <use style="stroke:#000000;stroke-width:0.8;" x="57.6" xlink:href="#m42b2b69c6c" y="125.200808"/>
      </g>
     </g>
     <g id="text_12">
      <!-- 0.65 -->
      <g transform="translate(28.334375 129.000027)scale(0.1 -0.1)">
       <use xlink:href="#DejaVuSans-48"/>
       <use x="63.623047" xlink:href="#DejaVuSans-46"/>
       <use x="95.410156" xlink:href="#DejaVuSans-54"/>
       <use x="159.033203" xlink:href="#DejaVuSans-53"/>
      </g>
     </g>
    </g>
    <g id="ytick_5">
     <g id="line2d_12">
      <g>
       <use style="stroke:#000000;stroke-width:0.8;" x="57.6" xlink:href="#m42b2b69c6c" y="74.029456"/>
      </g>
     </g>
     <g id="text_13">
      <!-- 0.70 -->
      <g transform="translate(28.334375 77.828675)scale(0.1 -0.1)">
       <use xlink:href="#DejaVuSans-48"/>
       <use x="63.623047" xlink:href="#DejaVuSans-46"/>
       <use x="95.410156" xlink:href="#DejaVuSans-55"/>
       <use x="159.033203" xlink:href="#DejaVuSans-48"/>
      </g>
     </g>
    </g>
    <g id="text_14">
     <!-- Transmission -->
     <defs>
      <path d="M -0.296875 72.90625 
L 61.375 72.90625 
L 61.375 64.59375 
L 35.5 64.59375 
L 35.5 0 
L 25.59375 0 
L 25.59375 64.59375 
L -0.296875 64.59375 
z
" id="DejaVuSans-84"/>
      <path d="M 41.109375 46.296875 
Q 39.59375 47.171875 37.8125 47.578125 
Q 36.03125 48 33.890625 48 
Q 26.265625 48 22.1875 43.046875 
Q 18.109375 38.09375 18.109375 28.8125 
L 18.109375 0 
L 9.078125 0 
L 9.078125 54.6875 
L 18.109375 54.6875 
L 18.109375 46.1875 
Q 20.953125 51.171875 25.484375 53.578125 
Q 30.03125 56 36.53125 56 
Q 37.453125 56 38.578125 55.875 
Q 39.703125 55.765625 41.0625 55.515625 
z
" id="DejaVuSans-114"/>
      <path d="M 52 44.1875 
Q 55.375 50.25 60.0625 53.125 
Q 64.75 56 71.09375 56 
Q 79.640625 56 84.28125 50.015625 
Q 88.921875 44.046875 88.921875 33.015625 
L 88.921875 0 
L 79.890625 0 
L 79.890625 32.71875 
Q 79.890625 40.578125 77.09375 44.375 
Q 74.3125 48.1875 68.609375 48.1875 
Q 61.625 48.1875 57.5625 43.546875 
Q 53.515625 38.921875 53.515625 30.90625 
L 53.515625 0 
L 44.484375 0 
L 44.484375 32.71875 
Q 44.484375 40.625 41.703125 44.40625 
Q 38.921875 48.1875 33.109375 48.1875 
Q 26.21875 48.1875 22.15625 43.53125 
Q 18.109375 38.875 18.109375 30.90625 
L 18.109375 0 
L 9.078125 0 
L 9.078125 54.6875 
L 18.109375 54.6875 
L 18.109375 46.1875 
Q 21.1875 51.21875 25.484375 53.609375 
Q 29.78125 56 35.6875 56 
Q 41.65625 56 45.828125 52.96875 
Q 50 49.953125 52 44.1875 
z
" id="DejaVuSans-109"/>
      <path d="M 9.421875 54.6875 
L 18.40625 54.6875 
L 18.40625 0 
L 9.421875 0 
z
M 9.421875 75.984375 
L 18.40625 75.984375 
L 18.40625 64.59375 
L 9.421875 64.59375 
z
" id="DejaVuSans-105"/>
      <path d="M 30.609375 48.390625 
Q 23.390625 48.390625 19.1875 42.75 
Q 14.984375 37.109375 14.984375 27.296875 
Q 14.984375 17.484375 19.15625 11.84375 
Q 23.34375 6.203125 30.609375 6.203125 
Q 37.796875 6.203125 41.984375 11.859375 
Q 46.1875 17.53125 46.1875 27.296875 
Q 46.1875 37.015625 41.984375 42.703125 
Q 37.796875 48.390625 30.609375 48.390625 
z
M 30.609375 56 
Q 42.328125 56 49.015625 48.375 
Q 55.71875 40.765625 55.71875 27.296875 
Q 55.71875 13.875 49.015625 6.21875 
Q 42.328125 -1.421875 30.609375 -1.421875 
Q 18.84375 -1.421875 12.171875 6.21875 
Q 5.515625 13.875 5.515625 27.296875 
Q 5.515625 40.765625 12.171875 48.375 
Q 18.84375 56 30.609375 56 
z
" id="DejaVuSans-111"/>
     </defs>
     <g transform="translate(22.254687 206.823312)rotate(-90)scale(0.1 -0.1)">
      <use xlink:href="#DejaVuSans-84"/>
      <use x="46.333984" xlink:href="#DejaVuSans-114"/>
      <use x="87.447266" xlink:href="#DejaVuSans-97"/>
      <use x="148.726562" xlink:href="#DejaVuSans-110"/>
      <use x="212.105469" xlink:href="#DejaVuSans-115"/>
      <use x="264.205078" xlink:href="#DejaVuSans-109"/>
      <use x="361.617188" xlink:href="#DejaVuSans-105"/>
      <use x="389.400391" xlink:href="#DejaVuSans-115"/>
      <use x="441.5" xlink:href="#DejaVuSans-115"/>
      <use x="493.599609" xlink:href="#DejaVuSans-105"/>
      <use x="521.382812" xlink:href="#DejaVuSans-111"/>
      <use x="582.564453" xlink:href="#DejaVuSans-110"/>
     </g>
    </g>
   </g>
   <g id="line2d_13">
    <path clip-path="url(#p64ded735ad)" d="M 398.487273 240.911702 
L 392.791579 240.463417 
L 387.180896 240.086019 
L 381.653333 239.768746 
L 376.207059 239.499874 
L 370.840292 239.266753 
L 365.551304 239.055672 
L 360.338417 238.851562 
L 355.2 238.637575 
L 350.134468 238.394726 
L 345.140282 238.102022 
L 340.215944 237.737596 
L 335.36 237.281142 
L 330.571034 236.717058 
L 325.847671 236.036768 
L 321.188571 235.238726 
L 316.592432 234.326078 
L 312.057987 233.303519 
L 307.584 232.175013 
L 303.169272 230.943019 
L 298.812632 229.608872 
L 294.512941 228.173701 
L 290.269091 226.63947 
L 286.08 225.009976 
L 281.944615 223.291895 
L 277.861911 221.495913 
L 273.830886 219.637373 
L 269.850566 217.73278 
L 265.92 215.778798 
L 262.038261 213.698339 
L 258.204444 211.351967 
L 254.417669 208.760807 
L 250.677073 206.105595 
L 246.981818 203.48189 
L 243.331084 200.897024 
L 239.724072 198.341546 
L 236.16 195.81218 
L 232.638107 193.312834 
L 229.157647 190.852252 
L 225.717895 188.442201 
L 222.31814 186.096424 
L 218.957688 183.83007 
L 215.635862 181.659392 
L 212.352 179.601603 
L 209.105455 177.674806 
L 205.895593 175.897976 
L 202.721798 174.290973 
L 199.583464 172.874562 
L 196.48 171.670433 
L 193.410829 170.701221 
L 190.375385 169.990492 
L 187.373115 169.562709 
L 184.403478 169.443128 
L 181.465946 169.657633 
L 178.56 170.232454 
L 175.685134 171.193748 
L 172.840851 172.566982 
L 170.026667 174.376082 
L 167.242105 176.64227 
L 164.486702 179.382531 
L 161.76 182.607665 
L 159.061554 186.319883 
L 156.390928 190.509975 
L 153.747692 195.154168 
L 151.131429 200.210913 
L 148.541726 205.61804 
L 145.978182 211.290913 
L 143.440402 217.122389 
L 140.928 222.985493 
L 138.440597 228.739503 
L 135.977822 234.239737 
L 133.53931 239.350426 
L 131.124706 243.959117 
L 128.733659 247.99012 
L 126.365825 251.414177 
L 124.02087 254.252054 
L 121.698462 256.571042 
L 119.398278 258.475056 
L 117.12 260.090467 
L 114.863318 261.550504 
L 112.627925 262.980901 
L 110.413521 264.488655 
L 108.219813 266.154705 
L 106.046512 268.030449 
L 103.893333 270.137452 
L 101.76 272.469446 
L 99.646239 274.995805 
L 97.551781 277.665786 
L 95.476364 280.413082 
L 93.419729 283.160382 
L 91.381622 285.823771 
L 89.361794 288.316876 
L 87.36 290.55472 
L 85.376 292.457229 
L 83.409558 293.952354 
L 81.460441 294.978756 
L 79.528421 295.488 
L 77.613275 295.446205 
L 75.714783 294.835119 
L 73.832727 293.652609 
" style="fill:none;stroke:#ff7f0e;stroke-linecap:square;stroke-width:1.5;"/>
   </g>
   <g id="line2d_14">
    <path clip-path="url(#p64ded735ad)" d="M 398.487273 202.859006 
L 392.791579 202.361319 
L 387.180896 201.749033 
L 381.653333 201.064481 
L 376.207059 200.36474 
L 370.840292 199.697922 
L 365.551304 199.09201 
L 360.338417 198.556089 
L 355.2 198.087468 
L 350.134468 197.679671 
L 345.140282 197.329705 
L 340.215944 197.045402 
L 335.36 196.854271 
L 330.571034 196.811261 
L 325.847671 196.974932 
L 321.188571 197.215176 
L 316.592432 196.790467 
L 312.057987 195.055684 
L 307.584 192.829093 
L 303.169272 190.846278 
L 298.812632 189.123334 
L 294.512941 187.519951 
L 290.269091 185.938323 
L 286.08 184.325683 
L 281.944615 182.655492 
L 277.861911 180.915413 
L 273.830886 179.101053 
L 269.850566 177.212768 
L 265.92 175.253991 
L 262.038261 173.230313 
L 258.204444 171.148947 
L 254.417669 169.018397 
L 250.677073 166.848244 
L 246.981818 164.648987 
L 243.331084 162.431936 
L 239.724072 160.20912 
L 236.16 157.993222 
L 232.638107 155.797524 
L 229.157647 153.635871 
L 225.717895 151.522642 
L 222.31814 149.472744 
L 218.957688 147.501611 
L 215.635862 145.625216 
L 212.352 143.8601 
L 209.105455 142.223407 
L 205.895593 140.73293 
L 202.721798 139.407155 
L 199.583464 138.265317 
L 196.48 137.327443 
L 193.410829 136.614381 
L 190.375385 136.147815 
L 187.373115 135.950235 
L 184.403478 136.04486 
L 181.465946 136.455483 
L 178.56 137.206212 
L 175.685134 138.32107 
L 172.840851 139.823412 
L 170.026667 141.735098 
L 167.242105 144.07538 
L 164.486702 146.859425 
L 161.76 150.096428 
L 159.061554 153.787298 
L 156.390928 157.921932 
L 153.747692 162.476195 
L 151.131429 167.408864 
L 148.541726 172.658943 
L 145.978182 178.144 
L 143.440402 183.760307 
L 140.928 189.385646 
L 138.440597 194.885469 
L 135.977822 200.122593 
L 133.53931 204.969802 
L 131.124706 209.323718 
L 128.733659 213.117478 
L 126.365825 216.329503 
L 124.02087 218.986192 
L 121.698462 221.157761 
L 119.398278 222.948053 
L 117.12 224.48053 
L 114.863318 225.883236 
L 112.627925 227.275247 
L 110.413521 228.756294 
L 108.219813 230.400221 
L 106.046512 232.2521 
L 103.893333 234.328307 
L 101.76 236.618716 
L 99.646239 239.090196 
L 97.551781 241.690803 
L 95.476364 244.354232 
L 93.419729 247.00426 
L 91.381622 249.559052 
L 89.361794 251.935226 
L 87.36 254.05164 
L 85.376 255.832832 
L 83.409558 257.21206 
L 81.460441 258.133881 
L 79.528421 258.556187 
L 77.613275 258.451662 
L 75.714783 257.808622 
L 73.832727 256.63123 
" style="fill:none;stroke:#2ca02c;stroke-linecap:square;stroke-width:1.5;"/>
   </g>
   <g id="line2d_15">
    <path clip-path="url(#p64ded735ad)" d="M 398.487273 160.019584 
L 392.791579 160.296639 
L 387.180896 161.14025 
L 381.653333 162.715654 
L 376.207059 164.43053 
L 370.840292 163.89935 
L 365.551304 161.084855 
L 360.338417 158.686232 
L 355.2 157.246646 
L 350.134468 156.374695 
L 345.140282 155.773739 
L 340.215944 155.287794 
L 335.36 154.834991 
L 330.571034 154.368945 
L 325.847671 153.860887 
L 321.188571 153.291511 
L 316.592432 152.64715 
L 312.057987 151.917909 
L 307.584 151.096719 
L 303.169272 150.178835 
L 298.812632 149.161548 
L 294.512941 148.043993 
L 290.269091 146.826987 
L 286.08 145.512889 
L 281.944615 144.105454 
L 277.861911 142.609676 
L 273.830886 141.031637 
L 269.850566 139.378356 
L 265.92 137.657646 
L 262.038261 135.877982 
L 258.204444 134.048392 
L 254.417669 132.178361 
L 250.677073 130.277768 
L 246.981818 128.356829 
L 243.331084 126.42608 
L 239.724072 124.496361 
L 236.16 122.578829 
L 232.638107 120.684984 
L 229.157647 118.826699 
L 225.717895 117.016267 
L 222.31814 115.266451 
L 218.957688 113.590539 
L 215.635862 112.0024 
L 212.352 110.516545 
L 209.105455 109.148177 
L 205.895593 107.913251 
L 202.721798 106.828516 
L 199.583464 105.911558 
L 196.48 105.180827 
L 193.410829 104.655648 
L 190.375385 104.356209 
L 187.373115 104.303509 
L 184.403478 104.51926 
L 181.465946 105.025719 
L 178.56 105.845422 
L 175.685134 107.000788 
L 172.840851 108.51356 
L 170.026667 110.404016 
L 167.242105 112.689913 
L 164.486702 115.385097 
L 161.76 118.497733 
L 159.061554 122.028133 
L 156.390928 125.966206 
L 153.747692 130.288641 
L 151.131429 134.956065 
L 148.541726 139.910573 
L 145.978182 145.074244 
L 143.440402 150.349383 
L 140.928 155.621304 
L 138.440597 160.76428 
L 135.977822 165.650803 
L 133.53931 170.163503 
L 131.124706 174.208124 
L 128.733659 177.7252 
L 126.365825 180.697869 
L 124.02087 183.153879 
L 121.698462 185.16115 
L 119.398278 186.817808 
L 117.12 188.238859 
L 114.863318 189.542131 
L 112.627925 190.835816 
L 110.413521 192.209105 
L 108.219813 193.72648 
L 106.046512 195.425419 
L 103.893333 197.316861 
L 101.76 199.387612 
L 99.646239 201.603946 
L 97.551781 203.915809 
L 95.476364 206.261223 
L 93.419729 208.570611 
L 91.381622 210.770891 
L 89.361794 212.789243 
L 87.36 214.556467 
L 85.376 216.009919 
L 83.409558 217.09595 
L 81.460441 217.771851 
L 79.528421 218.007266 
L 77.613275 217.785078 
L 75.714783 217.101772 
L 73.832727 215.967319 
" style="fill:none;stroke:#d62728;stroke-linecap:square;stroke-width:1.5;"/>
   </g>
   <g id="line2d_16">
    <path clip-path="url(#p64ded735ad)" d="M 398.487273 121.559344 
L 392.791579 121.206074 
L 387.180896 121.00586 
L 381.653333 120.898925 
L 376.207059 120.848015 
L 370.840292 120.826874 
L 365.551304 120.815151 
L 360.338417 120.79607 
L 355.2 120.755332 
L 350.134468 120.68059 
L 345.140282 120.561197 
L 340.215944 120.388052 
L 335.36 120.153494 
L 330.571034 119.851197 
L 325.847671 119.476052 
L 321.188571 119.02405 
L 316.592432 118.492153 
L 312.057987 117.878182 
L 307.584 117.180706 
L 303.169272 116.398958 
L 298.812632 115.532778 
L 294.512941 114.58257 
L 290.269091 113.549294 
L 286.08 112.434473 
L 281.944615 111.240222 
L 277.861911 109.969282 
L 273.830886 108.625078 
L 269.850566 107.211757 
L 265.92 105.734246 
L 262.038261 104.198281 
L 258.204444 102.610441 
L 254.417669 100.978157 
L 250.677073 99.309705 
L 246.981818 97.614184 
L 243.331084 95.901479 
L 239.724072 94.182204 
L 236.16 92.467648 
L 232.638107 90.769702 
L 229.157647 89.100802 
L 225.717895 87.473868 
L 222.31814 85.902257 
L 218.957688 84.399729 
L 215.635862 82.980433 
L 212.352 81.658905 
L 209.105455 80.450083 
L 205.895593 79.369336 
L 202.721798 78.432511 
L 199.583464 77.65597 
L 196.48 77.056642 
L 193.410829 76.652057 
L 190.375385 76.460364 
L 187.373115 76.500317 
L 184.403478 76.791209 
L 181.465946 77.352736 
L 178.56 78.204767 
L 175.685134 79.366974 
L 172.840851 80.858298 
L 170.026667 82.696192 
L 167.242105 84.895588 
L 164.486702 87.467543 
L 161.76 90.417526 
L 159.061554 93.743319 
L 156.390928 97.432589 
L 153.747692 101.460253 
L 151.131429 105.785898 
L 148.541726 110.351673 
L 145.978182 115.081253 
L 143.440402 119.880597 
L 140.928 124.64121 
L 138.440597 129.246404 
L 135.977822 133.580506 
L 133.53931 137.540196 
L 131.124706 141.046314 
L 128.733659 144.053909 
L 126.365825 146.55827 
L 124.02087 148.595462 
L 121.698462 150.237084 
L 119.398278 151.580388 
L 117.12 152.735826 
L 114.863318 153.814382 
L 112.627925 154.916639 
L 110.413521 156.12477 
L 108.219813 157.497774 
L 106.046512 159.069655 
L 103.893333 160.849909 
L 101.76 162.825558 
L 99.646239 164.964115 
L 97.551781 167.21699 
L 95.476364 169.523047 
L 93.419729 171.81217 
L 91.381622 174.008776 
L 89.361794 176.035294 
L 87.36 177.815614 
L 85.376 179.278488 
L 83.409558 180.360826 
L 81.460441 181.010751 
L 79.528421 181.190221 
L 77.613275 180.877015 
L 75.714783 180.065884 
L 73.832727 178.768731 
" style="fill:none;stroke:#9467bd;stroke-linecap:square;stroke-width:1.5;"/>
   </g>
   <g id="line2d_17">
    <path clip-path="url(#p64ded735ad)" d="M 398.487273 92.430262 
L 392.791579 92.39574 
L 387.180896 92.386121 
L 381.653333 92.394324 
L 376.207059 92.413705 
L 370.840292 92.437817 
L 365.551304 92.460204 
L 360.338417 92.474242 
L 355.2 92.473037 
L 350.134468 92.449375 
L 345.140282 92.395736 
L 340.215944 92.304356 
L 335.36 92.167342 
L 330.571034 91.976823 
L 325.847671 91.725135 
L 321.188571 91.405022 
L 316.592432 91.009857 
L 312.057987 90.533855 
L 307.584 89.972278 
L 303.169272 89.321615 
L 298.812632 88.579724 
L 294.512941 87.745927 
L 290.269091 86.821055 
L 286.08 85.807432 
L 281.944615 84.708802 
L 277.861911 83.530213 
L 273.830886 82.277858 
L 269.850566 80.958892 
L 265.92 79.581242 
L 262.038261 78.15342 
L 258.204444 76.68435 
L 254.417669 75.183224 
L 250.677073 73.659384 
L 246.981818 72.12224 
L 243.331084 70.581221 
L 239.724072 69.045751 
L 236.16 67.525257 
L 232.638107 66.029195 
L 229.157647 64.567095 
L 225.717895 63.148624 
L 222.31814 61.78366 
L 218.957688 60.482365 
L 215.635862 59.255281 
L 212.352 58.113414 
L 209.105455 57.068327 
L 205.895593 56.132225 
L 202.721798 55.318043 
L 199.583464 54.639508 
L 196.48 54.111202 
L 193.410829 53.748585 
L 190.375385 53.568 
L 187.373115 53.586629 
L 184.403478 53.822396 
L 181.465946 54.2938 
L 178.56 55.019662 
L 175.685134 56.018748 
L 172.840851 57.309252 
L 170.026667 58.908099 
L 167.242105 60.83002 
L 164.486702 63.086373 
L 161.76 65.683667 
L 159.061554 68.621784 
L 156.390928 71.891933 
L 153.747692 75.47443 
L 151.131429 79.336507 
L 148.541726 83.430482 
L 145.978182 87.692753 
L 143.440402 92.044197 
L 140.928 96.392582 
L 138.440597 100.637423 
L 135.977822 104.677338 
L 133.53931 108.419366 
L 131.124706 111.788951 
L 128.733659 114.738801 
L 126.365825 117.254652 
L 124.02087 119.356484 
L 121.698462 121.094739 
L 119.398278 122.542281 
L 117.12 123.783804 
L 114.863318 124.904784 
L 112.627925 125.981857 
L 110.413521 127.075889 
L 108.219813 128.228229 
L 106.046512 129.459987 
L 103.893333 130.773708 
L 101.76 132.156613 
L 99.646239 133.584528 
L 97.551781 135.025772 
L 95.476364 136.444503 
L 93.419729 137.803302 
L 91.381622 139.065041 
L 89.361794 140.194256 
L 87.36 141.158281 
L 85.376 141.928391 
L 83.409558 142.481063 
L 81.460441 142.79936 
L 79.528421 142.874366 
L 77.613275 142.706469 
L 75.714783 142.306184 
L 73.832727 141.693924 
" style="fill:none;stroke:#8c564b;stroke-linecap:square;stroke-width:1.5;"/>
   </g>
   <g id="patch_3">
    <path d="M 57.6 307.584 
L 57.6 41.472 
" style="fill:none;stroke:#000000;stroke-linecap:square;stroke-linejoin:miter;stroke-width:0.8;"/>
   </g>
   <g id="patch_4">
    <path d="M 414.72 307.584 
L 414.72 41.472 
" style="fill:none;stroke:#000000;stroke-linecap:square;stroke-linejoin:miter;stroke-width:0.8;"/>
   </g>
   <g id="patch_5">
    <path d="M 57.6 307.584 
L 414.72 307.584 
" style="fill:none;stroke:#000000;stroke-linecap:square;stroke-linejoin:miter;stroke-width:0.8;"/>
   </g>
   <g id="patch_6">
    <path d="M 57.6 41.472 
L 414.72 41.472 
" style="fill:none;stroke:#000000;stroke-linecap:square;stroke-linejoin:miter;stroke-width:0.8;"/>
   </g>
   <g id="text_15">
    <!-- TransmissionToWavelengths Resolution:500 BTX:0.02 Polarization: Ez -->
    <defs>
     <path id="DejaVuSans-32"/>
     <path d="M 44.390625 34.1875 
Q 47.5625 33.109375 50.5625 29.59375 
Q 53.5625 26.078125 56.59375 19.921875 
L 66.609375 0 
L 56 0 
L 46.6875 18.703125 
Q 43.0625 26.03125 39.671875 28.421875 
Q 36.28125 30.8125 30.421875 30.8125 
L 19.671875 30.8125 
L 19.671875 0 
L 9.8125 0 
L 9.8125 72.90625 
L 32.078125 72.90625 
Q 44.578125 72.90625 50.734375 67.671875 
Q 56.890625 62.453125 56.890625 51.90625 
Q 56.890625 45.015625 53.6875 40.46875 
Q 50.484375 35.9375 44.390625 34.1875 
z
M 19.671875 64.796875 
L 19.671875 38.921875 
L 32.078125 38.921875 
Q 39.203125 38.921875 42.84375 42.21875 
Q 46.484375 45.515625 46.484375 51.90625 
Q 46.484375 58.296875 42.84375 61.546875 
Q 39.203125 64.796875 32.078125 64.796875 
z
" id="DejaVuSans-82"/>
     <path d="M 8.5 21.578125 
L 8.5 54.6875 
L 17.484375 54.6875 
L 17.484375 21.921875 
Q 17.484375 14.15625 20.5 10.265625 
Q 23.53125 6.390625 29.59375 6.390625 
Q 36.859375 6.390625 41.078125 11.03125 
Q 45.3125 15.671875 45.3125 23.6875 
L 45.3125 54.6875 
L 54.296875 54.6875 
L 54.296875 0 
L 45.3125 0 
L 45.3125 8.40625 
Q 42.046875 3.421875 37.71875 1 
Q 33.40625 -1.421875 27.6875 -1.421875 
Q 18.265625 -1.421875 13.375 4.4375 
Q 8.5 10.296875 8.5 21.578125 
z
M 31.109375 56 
z
" id="DejaVuSans-117"/>
     <path d="M 11.71875 12.40625 
L 22.015625 12.40625 
L 22.015625 0 
L 11.71875 0 
z
M 11.71875 51.703125 
L 22.015625 51.703125 
L 22.015625 39.3125 
L 11.71875 39.3125 
z
" id="DejaVuSans-58"/>
     <path d="M 19.671875 34.8125 
L 19.671875 8.109375 
L 35.5 8.109375 
Q 43.453125 8.109375 47.28125 11.40625 
Q 51.125 14.703125 51.125 21.484375 
Q 51.125 28.328125 47.28125 31.5625 
Q 43.453125 34.8125 35.5 34.8125 
z
M 19.671875 64.796875 
L 19.671875 42.828125 
L 34.28125 42.828125 
Q 41.5 42.828125 45.03125 45.53125 
Q 48.578125 48.25 48.578125 53.8125 
Q 48.578125 59.328125 45.03125 62.0625 
Q 41.5 64.796875 34.28125 64.796875 
z
M 9.8125 72.90625 
L 35.015625 72.90625 
Q 46.296875 72.90625 52.390625 68.21875 
Q 58.5 63.53125 58.5 54.890625 
Q 58.5 48.1875 55.375 44.234375 
Q 52.25 40.28125 46.1875 39.3125 
Q 53.46875 37.75 57.5 32.78125 
Q 61.53125 27.828125 61.53125 20.40625 
Q 61.53125 10.640625 54.890625 5.3125 
Q 48.25 0 35.984375 0 
L 9.8125 0 
z
" id="DejaVuSans-66"/>
     <path d="M 6.296875 72.90625 
L 16.890625 72.90625 
L 35.015625 45.796875 
L 53.21875 72.90625 
L 63.8125 72.90625 
L 40.375 37.890625 
L 65.375 0 
L 54.78125 0 
L 34.28125 31 
L 13.625 0 
L 2.984375 0 
L 29 38.921875 
z
" id="DejaVuSans-88"/>
     <path d="M 19.1875 8.296875 
L 53.609375 8.296875 
L 53.609375 0 
L 7.328125 0 
L 7.328125 8.296875 
Q 12.9375 14.109375 22.625 23.890625 
Q 32.328125 33.6875 34.8125 36.53125 
Q 39.546875 41.84375 41.421875 45.53125 
Q 43.3125 49.21875 43.3125 52.78125 
Q 43.3125 58.59375 39.234375 62.25 
Q 35.15625 65.921875 28.609375 65.921875 
Q 23.96875 65.921875 18.8125 64.3125 
Q 13.671875 62.703125 7.8125 59.421875 
L 7.8125 69.390625 
Q 13.765625 71.78125 18.9375 73 
Q 24.125 74.21875 28.421875 74.21875 
Q 39.75 74.21875 46.484375 68.546875 
Q 53.21875 62.890625 53.21875 53.421875 
Q 53.21875 48.921875 51.53125 44.890625 
Q 49.859375 40.875 45.40625 35.40625 
Q 44.1875 33.984375 37.640625 27.21875 
Q 31.109375 20.453125 19.1875 8.296875 
z
" id="DejaVuSans-50"/>
     <path d="M 19.671875 64.796875 
L 19.671875 37.40625 
L 32.078125 37.40625 
Q 38.96875 37.40625 42.71875 40.96875 
Q 46.484375 44.53125 46.484375 51.125 
Q 46.484375 57.671875 42.71875 61.234375 
Q 38.96875 64.796875 32.078125 64.796875 
z
M 9.8125 72.90625 
L 32.078125 72.90625 
Q 44.34375 72.90625 50.609375 67.359375 
Q 56.890625 61.8125 56.890625 51.125 
Q 56.890625 40.328125 50.609375 34.8125 
Q 44.34375 29.296875 32.078125 29.296875 
L 19.671875 29.296875 
L 19.671875 0 
L 9.8125 0 
z
" id="DejaVuSans-80"/>
     <path d="M 5.515625 54.6875 
L 48.1875 54.6875 
L 48.1875 46.484375 
L 14.40625 7.171875 
L 48.1875 7.171875 
L 48.1875 0 
L 4.296875 0 
L 4.296875 8.203125 
L 38.09375 47.515625 
L 5.515625 47.515625 
z
" id="DejaVuSans-122"/>
     <path d="M 9.8125 72.90625 
L 55.90625 72.90625 
L 55.90625 64.59375 
L 19.671875 64.59375 
L 19.671875 43.015625 
L 54.390625 43.015625 
L 54.390625 34.71875 
L 19.671875 34.71875 
L 19.671875 8.296875 
L 56.78125 8.296875 
L 56.78125 0 
L 9.8125 0 
z
" id="DejaVuSans-69"/>
    </defs>
    <g transform="translate(28.816875 35.472)scale(0.12 -0.12)">
     <use xlink:href="#DejaVuSans-84"/>
     <use x="46.333984" xlink:href="#DejaVuSans-114"/>
     <use x="87.447266" xlink:href="#DejaVuSans-97"/>
     <use x="148.726562" xlink:href="#DejaVuSans-110"/>
     <use x="212.105469" xlink:href="#DejaVuSans-115"/>
     <use x="264.205078" xlink:href="#DejaVuSans-109"/>
     <use x="361.617188" xlink:href="#DejaVuSans-105"/>
     <use x="389.400391" xlink:href="#DejaVuSans-115"/>
     <use x="441.5" xlink:href="#DejaVuSans-115"/>
     <use x="493.599609" xlink:href="#DejaVuSans-105"/>
     <use x="521.382812" xlink:href="#DejaVuSans-111"/>
     <use x="582.564453" xlink:href="#DejaVuSans-110"/>
     <use x="645.943359" xlink:href="#DejaVuSans-84"/>
     <use x="690.027344" xlink:href="#DejaVuSans-111"/>
     <use x="751.208984" xlink:href="#DejaVuSans-87"/>
     <use x="843.710938" xlink:href="#DejaVuSans-97"/>
     <use x="904.990234" xlink:href="#DejaVuSans-118"/>
     <use x="964.169922" xlink:href="#DejaVuSans-101"/>
     <use x="1025.693359" xlink:href="#DejaVuSans-108"/>
     <use x="1053.476562" xlink:href="#DejaVuSans-101"/>
     <use x="1115" xlink:href="#DejaVuSans-110"/>
     <use x="1178.378906" xlink:href="#DejaVuSans-103"/>
     <use x="1241.855469" xlink:href="#DejaVuSans-116"/>
     <use x="1281.064453" xlink:href="#DejaVuSans-104"/>
     <use x="1344.443359" xlink:href="#DejaVuSans-115"/>
     <use x="1396.542969" xlink:href="#DejaVuSans-32"/>
     <use x="1428.330078" xlink:href="#DejaVuSans-82"/>
     <use x="1493.3125" xlink:href="#DejaVuSans-101"/>
     <use x="1554.835938" xlink:href="#DejaVuSans-115"/>
     <use x="1606.935547" xlink:href="#DejaVuSans-111"/>
     <use x="1668.117188" xlink:href="#DejaVuSans-108"/>
     <use x="1695.900391" xlink:href="#DejaVuSans-117"/>
     <use x="1759.279297" xlink:href="#DejaVuSans-116"/>
     <use x="1798.488281" xlink:href="#DejaVuSans-105"/>
     <use x="1826.271484" xlink:href="#DejaVuSans-111"/>
     <use x="1887.453125" xlink:href="#DejaVuSans-110"/>
     <use x="1950.832031" xlink:href="#DejaVuSans-58"/>
     <use x="1984.523438" xlink:href="#DejaVuSans-53"/>
     <use x="2048.146484" xlink:href="#DejaVuSans-48"/>
     <use x="2111.769531" xlink:href="#DejaVuSans-48"/>
     <use x="2175.392578" xlink:href="#DejaVuSans-32"/>
     <use x="2207.179688" xlink:href="#DejaVuSans-66"/>
     <use x="2275.783203" xlink:href="#DejaVuSans-84"/>
     <use x="2336.867188" xlink:href="#DejaVuSans-88"/>
     <use x="2405.373047" xlink:href="#DejaVuSans-58"/>
     <use x="2439.064453" xlink:href="#DejaVuSans-48"/>
     <use x="2502.6875" xlink:href="#DejaVuSans-46"/>
     <use x="2534.474609" xlink:href="#DejaVuSans-48"/>
     <use x="2598.097656" xlink:href="#DejaVuSans-50"/>
     <use x="2661.720703" xlink:href="#DejaVuSans-32"/>
     <use x="2693.507812" xlink:href="#DejaVuSans-80"/>
     <use x="2750.185547" xlink:href="#DejaVuSans-111"/>
     <use x="2811.367188" xlink:href="#DejaVuSans-108"/>
     <use x="2839.150391" xlink:href="#DejaVuSans-97"/>
     <use x="2900.429688" xlink:href="#DejaVuSans-114"/>
     <use x="2941.542969" xlink:href="#DejaVuSans-105"/>
     <use x="2969.326172" xlink:href="#DejaVuSans-122"/>
     <use x="3021.816406" xlink:href="#DejaVuSans-97"/>
     <use x="3083.095703" xlink:href="#DejaVuSans-116"/>
     <use x="3122.304688" xlink:href="#DejaVuSans-105"/>
     <use x="3150.087891" xlink:href="#DejaVuSans-111"/>
     <use x="3211.269531" xlink:href="#DejaVuSans-110"/>
     <use x="3274.648438" xlink:href="#DejaVuSans-58"/>
     <use x="3308.339844" xlink:href="#DejaVuSans-32"/>
     <use x="3340.126953" xlink:href="#DejaVuSans-69"/>
     <use x="3403.310547" xlink:href="#DejaVuSans-122"/>
    </g>
   </g>
   <g id="legend_1">
    <g id="patch_7">
     <path d="M 179.974844 302.584 
L 292.345156 302.584 
Q 294.345156 302.584 294.345156 300.584 
L 294.345156 228.193375 
Q 294.345156 226.193375 292.345156 226.193375 
L 179.974844 226.193375 
Q 177.974844 226.193375 177.974844 228.193375 
L 177.974844 300.584 
Q 177.974844 302.584 179.974844 302.584 
z
" style="fill:#ffffff;opacity:0.8;stroke:#cccccc;stroke-linejoin:miter;"/>
    </g>
    <g id="line2d_18">
     <path d="M 181.974844 234.291812 
L 201.974844 234.291812 
" style="fill:none;stroke:#ff7f0e;stroke-linecap:square;stroke-width:1.5;"/>
    </g>
    <g id="line2d_19"/>
    <g id="text_16">
     <!-- ST:0.05 BTY:0.5  -->
     <defs>
      <path d="M 53.515625 70.515625 
L 53.515625 60.890625 
Q 47.90625 63.578125 42.921875 64.890625 
Q 37.9375 66.21875 33.296875 66.21875 
Q 25.25 66.21875 20.875 63.09375 
Q 16.5 59.96875 16.5 54.203125 
Q 16.5 49.359375 19.40625 46.890625 
Q 22.3125 44.4375 30.421875 42.921875 
L 36.375 41.703125 
Q 47.40625 39.59375 52.65625 34.296875 
Q 57.90625 29 57.90625 20.125 
Q 57.90625 9.515625 50.796875 4.046875 
Q 43.703125 -1.421875 29.984375 -1.421875 
Q 24.8125 -1.421875 18.96875 -0.25 
Q 13.140625 0.921875 6.890625 3.21875 
L 6.890625 13.375 
Q 12.890625 10.015625 18.65625 8.296875 
Q 24.421875 6.59375 29.984375 6.59375 
Q 38.421875 6.59375 43.015625 9.90625 
Q 47.609375 13.234375 47.609375 19.390625 
Q 47.609375 24.75 44.3125 27.78125 
Q 41.015625 30.8125 33.5 32.328125 
L 27.484375 33.5 
Q 16.453125 35.6875 11.515625 40.375 
Q 6.59375 45.0625 6.59375 53.421875 
Q 6.59375 63.09375 13.40625 68.65625 
Q 20.21875 74.21875 32.171875 74.21875 
Q 37.3125 74.21875 42.625 73.28125 
Q 47.953125 72.359375 53.515625 70.515625 
z
" id="DejaVuSans-83"/>
      <path d="M -0.203125 72.90625 
L 10.40625 72.90625 
L 30.609375 42.921875 
L 50.6875 72.90625 
L 61.28125 72.90625 
L 35.5 34.71875 
L 35.5 0 
L 25.59375 0 
L 25.59375 34.71875 
z
" id="DejaVuSans-89"/>
     </defs>
     <g transform="translate(209.974844 237.791812)scale(0.1 -0.1)">
      <use xlink:href="#DejaVuSans-83"/>
      <use x="63.476562" xlink:href="#DejaVuSans-84"/>
      <use x="113.560547" xlink:href="#DejaVuSans-58"/>
      <use x="147.251953" xlink:href="#DejaVuSans-48"/>
      <use x="210.875" xlink:href="#DejaVuSans-46"/>
      <use x="242.662109" xlink:href="#DejaVuSans-48"/>
      <use x="306.285156" xlink:href="#DejaVuSans-53"/>
      <use x="369.908203" xlink:href="#DejaVuSans-32"/>
      <use x="401.695312" xlink:href="#DejaVuSans-66"/>
      <use x="470.298828" xlink:href="#DejaVuSans-84"/>
      <use x="531.382812" xlink:href="#DejaVuSans-89"/>
      <use x="579.216797" xlink:href="#DejaVuSans-58"/>
      <use x="612.908203" xlink:href="#DejaVuSans-48"/>
      <use x="676.53125" xlink:href="#DejaVuSans-46"/>
      <use x="708.318359" xlink:href="#DejaVuSans-53"/>
      <use x="771.941406" xlink:href="#DejaVuSans-32"/>
     </g>
    </g>
    <g id="line2d_20">
     <path d="M 181.974844 248.969937 
L 201.974844 248.969937 
" style="fill:none;stroke:#2ca02c;stroke-linecap:square;stroke-width:1.5;"/>
    </g>
    <g id="line2d_21"/>
    <g id="text_17">
     <!-- ST:0.1 BTY:0.5  -->
     <defs>
      <path d="M 12.40625 8.296875 
L 28.515625 8.296875 
L 28.515625 63.921875 
L 10.984375 60.40625 
L 10.984375 69.390625 
L 28.421875 72.90625 
L 38.28125 72.90625 
L 38.28125 8.296875 
L 54.390625 8.296875 
L 54.390625 0 
L 12.40625 0 
z
" id="DejaVuSans-49"/>
     </defs>
     <g transform="translate(209.974844 252.469937)scale(0.1 -0.1)">
      <use xlink:href="#DejaVuSans-83"/>
      <use x="63.476562" xlink:href="#DejaVuSans-84"/>
      <use x="113.560547" xlink:href="#DejaVuSans-58"/>
      <use x="147.251953" xlink:href="#DejaVuSans-48"/>
      <use x="210.875" xlink:href="#DejaVuSans-46"/>
      <use x="242.662109" xlink:href="#DejaVuSans-49"/>
      <use x="306.285156" xlink:href="#DejaVuSans-32"/>
      <use x="338.072266" xlink:href="#DejaVuSans-66"/>
      <use x="406.675781" xlink:href="#DejaVuSans-84"/>
      <use x="467.759766" xlink:href="#DejaVuSans-89"/>
      <use x="515.59375" xlink:href="#DejaVuSans-58"/>
      <use x="549.285156" xlink:href="#DejaVuSans-48"/>
      <use x="612.908203" xlink:href="#DejaVuSans-46"/>
      <use x="644.695312" xlink:href="#DejaVuSans-53"/>
      <use x="708.318359" xlink:href="#DejaVuSans-32"/>
     </g>
    </g>
    <g id="line2d_22">
     <path d="M 181.974844 263.648062 
L 201.974844 263.648062 
" style="fill:none;stroke:#d62728;stroke-linecap:square;stroke-width:1.5;"/>
    </g>
    <g id="line2d_23"/>
    <g id="text_18">
     <!-- ST:0.15 BTY:0.5  -->
     <g transform="translate(209.974844 267.148062)scale(0.1 -0.1)">
      <use xlink:href="#DejaVuSans-83"/>
      <use x="63.476562" xlink:href="#DejaVuSans-84"/>
      <use x="113.560547" xlink:href="#DejaVuSans-58"/>
      <use x="147.251953" xlink:href="#DejaVuSans-48"/>
      <use x="210.875" xlink:href="#DejaVuSans-46"/>
      <use x="242.662109" xlink:href="#DejaVuSans-49"/>
      <use x="306.285156" xlink:href="#DejaVuSans-53"/>
      <use x="369.908203" xlink:href="#DejaVuSans-32"/>
      <use x="401.695312" xlink:href="#DejaVuSans-66"/>
      <use x="470.298828" xlink:href="#DejaVuSans-84"/>
      <use x="531.382812" xlink:href="#DejaVuSans-89"/>
      <use x="579.216797" xlink:href="#DejaVuSans-58"/>
      <use x="612.908203" xlink:href="#DejaVuSans-48"/>
      <use x="676.53125" xlink:href="#DejaVuSans-46"/>
      <use x="708.318359" xlink:href="#DejaVuSans-53"/>
      <use x="771.941406" xlink:href="#DejaVuSans-32"/>
     </g>
    </g>
    <g id="line2d_24">
     <path d="M 181.974844 278.326188 
L 201.974844 278.326188 
" style="fill:none;stroke:#9467bd;stroke-linecap:square;stroke-width:1.5;"/>
    </g>
    <g id="line2d_25"/>
    <g id="text_19">
     <!-- ST:0.2 BTY:0.5  -->
     <g transform="translate(209.974844 281.826188)scale(0.1 -0.1)">
      <use xlink:href="#DejaVuSans-83"/>
      <use x="63.476562" xlink:href="#DejaVuSans-84"/>
      <use x="113.560547" xlink:href="#DejaVuSans-58"/>
      <use x="147.251953" xlink:href="#DejaVuSans-48"/>
      <use x="210.875" xlink:href="#DejaVuSans-46"/>
      <use x="242.662109" xlink:href="#DejaVuSans-50"/>
      <use x="306.285156" xlink:href="#DejaVuSans-32"/>
      <use x="338.072266" xlink:href="#DejaVuSans-66"/>
      <use x="406.675781" xlink:href="#DejaVuSans-84"/>
      <use x="467.759766" xlink:href="#DejaVuSans-89"/>
      <use x="515.59375" xlink:href="#DejaVuSans-58"/>
      <use x="549.285156" xlink:href="#DejaVuSans-48"/>
      <use x="612.908203" xlink:href="#DejaVuSans-46"/>
      <use x="644.695312" xlink:href="#DejaVuSans-53"/>
      <use x="708.318359" xlink:href="#DejaVuSans-32"/>
     </g>
    </g>
    <g id="line2d_26">
     <path d="M 181.974844 293.004312 
L 201.974844 293.004312 
" style="fill:none;stroke:#8c564b;stroke-linecap:square;stroke-width:1.5;"/>
    </g>
    <g id="line2d_27"/>
    <g id="text_20">
     <!-- ST:0.25 BTY:0.5  -->
     <g transform="translate(209.974844 296.504312)scale(0.1 -0.1)">
      <use xlink:href="#DejaVuSans-83"/>
      <use x="63.476562" xlink:href="#DejaVuSans-84"/>
      <use x="113.560547" xlink:href="#DejaVuSans-58"/>
      <use x="147.251953" xlink:href="#DejaVuSans-48"/>
      <use x="210.875" xlink:href="#DejaVuSans-46"/>
      <use x="242.662109" xlink:href="#DejaVuSans-50"/>
      <use x="306.285156" xlink:href="#DejaVuSans-53"/>
      <use x="369.908203" xlink:href="#DejaVuSans-32"/>
      <use x="401.695312" xlink:href="#DejaVuSans-66"/>
      <use x="470.298828" xlink:href="#DejaVuSans-84"/>
      <use x="531.382812" xlink:href="#DejaVuSans-89"/>
      <use x="579.216797" xlink:href="#DejaVuSans-58"/>
      <use x="612.908203" xlink:href="#DejaVuSans-48"/>
      <use x="676.53125" xlink:href="#DejaVuSans-46"/>
      <use x="708.318359" xlink:href="#DejaVuSans-53"/>
      <use x="771.941406" xlink:href="#DejaVuSans-32"/>
     </g>
    </g>
   </g>
  </g>
 </g>
 <defs>
  <clipPath id="p64ded735ad">
   <rect height="266.112" width="357.12" x="57.6" y="41.472"/>
  </clipPath>
 </defs>
</svg>
