<?xml version="1.0" encoding="utf-8" standalone="no"?>
<!DOCTYPE svg PUBLIC "-//W3C//DTD SVG 1.1//EN"
  "http://www.w3.org/Graphics/SVG/1.1/DTD/svg11.dtd">
<!-- Created with matplotlib (https://matplotlib.org/) -->
<svg height="345.6pt" version="1.1" viewBox="0 0 460.8 345.6" width="460.8pt" xmlns="http://www.w3.org/2000/svg" xmlns:xlink="http://www.w3.org/1999/xlink">
 <defs>
  <style type="text/css">
*{stroke-linecap:butt;stroke-linejoin:round;}
  </style>
 </defs>
 <g id="figure_1">
  <g id="patch_1">
   <path d="M 0 345.6 
L 460.8 345.6 
L 460.8 0 
L 0 0 
z
" style="fill:#ffffff;"/>
  </g>
  <g id="axes_1">
   <g id="patch_2">
    <path d="M 57.6 307.584 
L 414.72 307.584 
L 414.72 41.472 
L 57.6 41.472 
z
" style="fill:#ffffff;"/>
   </g>
   <g id="matplotlib.axis_1">
    <g id="xtick_1">
     <g id="line2d_1">
      <defs>
       <path d="M 0 0 
L 0 3.5 
" id="m911678e456" style="stroke:#000000;stroke-width:0.8;"/>
      </defs>
      <g>
       <use style="stroke:#000000;stroke-width:0.8;" x="73.832727" xlink:href="#m911678e456" y="307.584"/>
      </g>
     </g>
     <g id="text_1">
      <!-- 400 -->
      <defs>
       <path d="M 37.796875 64.3125 
L 12.890625 25.390625 
L 37.796875 25.390625 
z
M 35.203125 72.90625 
L 47.609375 72.90625 
L 47.609375 25.390625 
L 58.015625 25.390625 
L 58.015625 17.1875 
L 47.609375 17.1875 
L 47.609375 0 
L 37.796875 0 
L 37.796875 17.1875 
L 4.890625 17.1875 
L 4.890625 26.703125 
z
" id="DejaVuSans-52"/>
       <path d="M 31.78125 66.40625 
Q 24.171875 66.40625 20.328125 58.90625 
Q 16.5 51.421875 16.5 36.375 
Q 16.5 21.390625 20.328125 13.890625 
Q 24.171875 6.390625 31.78125 6.390625 
Q 39.453125 6.390625 43.28125 13.890625 
Q 47.125 21.390625 47.125 36.375 
Q 47.125 51.421875 43.28125 58.90625 
Q 39.453125 66.40625 31.78125 66.40625 
z
M 31.78125 74.21875 
Q 44.046875 74.21875 50.515625 64.515625 
Q 56.984375 54.828125 56.984375 36.375 
Q 56.984375 17.96875 50.515625 8.265625 
Q 44.046875 -1.421875 31.78125 -1.421875 
Q 19.53125 -1.421875 13.0625 8.265625 
Q 6.59375 17.96875 6.59375 36.375 
Q 6.59375 54.828125 13.0625 64.515625 
Q 19.53125 74.21875 31.78125 74.21875 
z
" id="DejaVuSans-48"/>
      </defs>
      <g transform="translate(64.288977 322.182437)scale(0.1 -0.1)">
       <use xlink:href="#DejaVuSans-52"/>
       <use x="63.623047" xlink:href="#DejaVuSans-48"/>
       <use x="127.246094" xlink:href="#DejaVuSans-48"/>
      </g>
     </g>
    </g>
    <g id="xtick_2">
     <g id="line2d_2">
      <g>
       <use style="stroke:#000000;stroke-width:0.8;" x="127.941818" xlink:href="#m911678e456" y="307.584"/>
      </g>
     </g>
     <g id="text_2">
      <!-- 450 -->
      <defs>
       <path d="M 10.796875 72.90625 
L 49.515625 72.90625 
L 49.515625 64.59375 
L 19.828125 64.59375 
L 19.828125 46.734375 
Q 21.96875 47.46875 24.109375 47.828125 
Q 26.265625 48.1875 28.421875 48.1875 
Q 40.625 48.1875 47.75 41.5 
Q 54.890625 34.8125 54.890625 23.390625 
Q 54.890625 11.625 47.5625 5.09375 
Q 40.234375 -1.421875 26.90625 -1.421875 
Q 22.3125 -1.421875 17.546875 -0.640625 
Q 12.796875 0.140625 7.71875 1.703125 
L 7.71875 11.625 
Q 12.109375 9.234375 16.796875 8.0625 
Q 21.484375 6.890625 26.703125 6.890625 
Q 35.15625 6.890625 40.078125 11.328125 
Q 45.015625 15.765625 45.015625 23.390625 
Q 45.015625 31 40.078125 35.4375 
Q 35.15625 39.890625 26.703125 39.890625 
Q 22.75 39.890625 18.8125 39.015625 
Q 14.890625 38.140625 10.796875 36.28125 
z
" id="DejaVuSans-53"/>
      </defs>
      <g transform="translate(118.398068 322.182437)scale(0.1 -0.1)">
       <use xlink:href="#DejaVuSans-52"/>
       <use x="63.623047" xlink:href="#DejaVuSans-53"/>
       <use x="127.246094" xlink:href="#DejaVuSans-48"/>
      </g>
     </g>
    </g>
    <g id="xtick_3">
     <g id="line2d_3">
      <g>
       <use style="stroke:#000000;stroke-width:0.8;" x="182.050909" xlink:href="#m911678e456" y="307.584"/>
      </g>
     </g>
     <g id="text_3">
      <!-- 500 -->
      <g transform="translate(172.507159 322.182437)scale(0.1 -0.1)">
       <use xlink:href="#DejaVuSans-53"/>
       <use x="63.623047" xlink:href="#DejaVuSans-48"/>
       <use x="127.246094" xlink:href="#DejaVuSans-48"/>
      </g>
     </g>
    </g>
    <g id="xtick_4">
     <g id="line2d_4">
      <g>
       <use style="stroke:#000000;stroke-width:0.8;" x="236.16" xlink:href="#m911678e456" y="307.584"/>
      </g>
     </g>
     <g id="text_4">
      <!-- 550 -->
      <g transform="translate(226.61625 322.182437)scale(0.1 -0.1)">
       <use xlink:href="#DejaVuSans-53"/>
       <use x="63.623047" xlink:href="#DejaVuSans-53"/>
       <use x="127.246094" xlink:href="#DejaVuSans-48"/>
      </g>
     </g>
    </g>
    <g id="xtick_5">
     <g id="line2d_5">
      <g>
       <use style="stroke:#000000;stroke-width:0.8;" x="290.269091" xlink:href="#m911678e456" y="307.584"/>
      </g>
     </g>
     <g id="text_5">
      <!-- 600 -->
      <defs>
       <path d="M 33.015625 40.375 
Q 26.375 40.375 22.484375 35.828125 
Q 18.609375 31.296875 18.609375 23.390625 
Q 18.609375 15.53125 22.484375 10.953125 
Q 26.375 6.390625 33.015625 6.390625 
Q 39.65625 6.390625 43.53125 10.953125 
Q 47.40625 15.53125 47.40625 23.390625 
Q 47.40625 31.296875 43.53125 35.828125 
Q 39.65625 40.375 33.015625 40.375 
z
M 52.59375 71.296875 
L 52.59375 62.3125 
Q 48.875 64.0625 45.09375 64.984375 
Q 41.3125 65.921875 37.59375 65.921875 
Q 27.828125 65.921875 22.671875 59.328125 
Q 17.53125 52.734375 16.796875 39.40625 
Q 19.671875 43.65625 24.015625 45.921875 
Q 28.375 48.1875 33.59375 48.1875 
Q 44.578125 48.1875 50.953125 41.515625 
Q 57.328125 34.859375 57.328125 23.390625 
Q 57.328125 12.15625 50.6875 5.359375 
Q 44.046875 -1.421875 33.015625 -1.421875 
Q 20.359375 -1.421875 13.671875 8.265625 
Q 6.984375 17.96875 6.984375 36.375 
Q 6.984375 53.65625 15.1875 63.9375 
Q 23.390625 74.21875 37.203125 74.21875 
Q 40.921875 74.21875 44.703125 73.484375 
Q 48.484375 72.75 52.59375 71.296875 
z
" id="DejaVuSans-54"/>
      </defs>
      <g transform="translate(280.725341 322.182437)scale(0.1 -0.1)">
       <use xlink:href="#DejaVuSans-54"/>
       <use x="63.623047" xlink:href="#DejaVuSans-48"/>
       <use x="127.246094" xlink:href="#DejaVuSans-48"/>
      </g>
     </g>
    </g>
    <g id="xtick_6">
     <g id="line2d_6">
      <g>
       <use style="stroke:#000000;stroke-width:0.8;" x="344.378182" xlink:href="#m911678e456" y="307.584"/>
      </g>
     </g>
     <g id="text_6">
      <!-- 650 -->
      <g transform="translate(334.834432 322.182437)scale(0.1 -0.1)">
       <use xlink:href="#DejaVuSans-54"/>
       <use x="63.623047" xlink:href="#DejaVuSans-53"/>
       <use x="127.246094" xlink:href="#DejaVuSans-48"/>
      </g>
     </g>
    </g>
    <g id="xtick_7">
     <g id="line2d_7">
      <g>
       <use style="stroke:#000000;stroke-width:0.8;" x="398.487273" xlink:href="#m911678e456" y="307.584"/>
      </g>
     </g>
     <g id="text_7">
      <!-- 700 -->
      <defs>
       <path d="M 8.203125 72.90625 
L 55.078125 72.90625 
L 55.078125 68.703125 
L 28.609375 0 
L 18.3125 0 
L 43.21875 64.59375 
L 8.203125 64.59375 
z
" id="DejaVuSans-55"/>
      </defs>
      <g transform="translate(388.943523 322.182437)scale(0.1 -0.1)">
       <use xlink:href="#DejaVuSans-55"/>
       <use x="63.623047" xlink:href="#DejaVuSans-48"/>
       <use x="127.246094" xlink:href="#DejaVuSans-48"/>
      </g>
     </g>
    </g>
    <g id="text_8">
     <!-- Wavelengths -->
     <defs>
      <path d="M 3.328125 72.90625 
L 13.28125 72.90625 
L 28.609375 11.28125 
L 43.890625 72.90625 
L 54.984375 72.90625 
L 70.3125 11.28125 
L 85.59375 72.90625 
L 95.609375 72.90625 
L 77.296875 0 
L 64.890625 0 
L 49.515625 63.28125 
L 33.984375 0 
L 21.578125 0 
z
" id="DejaVuSans-87"/>
      <path d="M 34.28125 27.484375 
Q 23.390625 27.484375 19.1875 25 
Q 14.984375 22.515625 14.984375 16.5 
Q 14.984375 11.71875 18.140625 8.90625 
Q 21.296875 6.109375 26.703125 6.109375 
Q 34.1875 6.109375 38.703125 11.40625 
Q 43.21875 16.703125 43.21875 25.484375 
L 43.21875 27.484375 
z
M 52.203125 31.203125 
L 52.203125 0 
L 43.21875 0 
L 43.21875 8.296875 
Q 40.140625 3.328125 35.546875 0.953125 
Q 30.953125 -1.421875 24.3125 -1.421875 
Q 15.921875 -1.421875 10.953125 3.296875 
Q 6 8.015625 6 15.921875 
Q 6 25.140625 12.171875 29.828125 
Q 18.359375 34.515625 30.609375 34.515625 
L 43.21875 34.515625 
L 43.21875 35.40625 
Q 43.21875 41.609375 39.140625 45 
Q 35.0625 48.390625 27.6875 48.390625 
Q 23 48.390625 18.546875 47.265625 
Q 14.109375 46.140625 10.015625 43.890625 
L 10.015625 52.203125 
Q 14.9375 54.109375 19.578125 55.046875 
Q 24.21875 56 28.609375 56 
Q 40.484375 56 46.34375 49.84375 
Q 52.203125 43.703125 52.203125 31.203125 
z
" id="DejaVuSans-97"/>
      <path d="M 2.984375 54.6875 
L 12.5 54.6875 
L 29.59375 8.796875 
L 46.6875 54.6875 
L 56.203125 54.6875 
L 35.6875 0 
L 23.484375 0 
z
" id="DejaVuSans-118"/>
      <path d="M 56.203125 29.59375 
L 56.203125 25.203125 
L 14.890625 25.203125 
Q 15.484375 15.921875 20.484375 11.0625 
Q 25.484375 6.203125 34.421875 6.203125 
Q 39.59375 6.203125 44.453125 7.46875 
Q 49.3125 8.734375 54.109375 11.28125 
L 54.109375 2.78125 
Q 49.265625 0.734375 44.1875 -0.34375 
Q 39.109375 -1.421875 33.890625 -1.421875 
Q 20.796875 -1.421875 13.15625 6.1875 
Q 5.515625 13.8125 5.515625 26.8125 
Q 5.515625 40.234375 12.765625 48.109375 
Q 20.015625 56 32.328125 56 
Q 43.359375 56 49.78125 48.890625 
Q 56.203125 41.796875 56.203125 29.59375 
z
M 47.21875 32.234375 
Q 47.125 39.59375 43.09375 43.984375 
Q 39.0625 48.390625 32.421875 48.390625 
Q 24.90625 48.390625 20.390625 44.140625 
Q 15.875 39.890625 15.1875 32.171875 
z
" id="DejaVuSans-101"/>
      <path d="M 9.421875 75.984375 
L 18.40625 75.984375 
L 18.40625 0 
L 9.421875 0 
z
" id="DejaVuSans-108"/>
      <path d="M 54.890625 33.015625 
L 54.890625 0 
L 45.90625 0 
L 45.90625 32.71875 
Q 45.90625 40.484375 42.875 44.328125 
Q 39.84375 48.1875 33.796875 48.1875 
Q 26.515625 48.1875 22.3125 43.546875 
Q 18.109375 38.921875 18.109375 30.90625 
L 18.109375 0 
L 9.078125 0 
L 9.078125 54.6875 
L 18.109375 54.6875 
L 18.109375 46.1875 
Q 21.34375 51.125 25.703125 53.5625 
Q 30.078125 56 35.796875 56 
Q 45.21875 56 50.046875 50.171875 
Q 54.890625 44.34375 54.890625 33.015625 
z
" id="DejaVuSans-110"/>
      <path d="M 45.40625 27.984375 
Q 45.40625 37.75 41.375 43.109375 
Q 37.359375 48.484375 30.078125 48.484375 
Q 22.859375 48.484375 18.828125 43.109375 
Q 14.796875 37.75 14.796875 27.984375 
Q 14.796875 18.265625 18.828125 12.890625 
Q 22.859375 7.515625 30.078125 7.515625 
Q 37.359375 7.515625 41.375 12.890625 
Q 45.40625 18.265625 45.40625 27.984375 
z
M 54.390625 6.78125 
Q 54.390625 -7.171875 48.1875 -13.984375 
Q 42 -20.796875 29.203125 -20.796875 
Q 24.46875 -20.796875 20.265625 -20.09375 
Q 16.0625 -19.390625 12.109375 -17.921875 
L 12.109375 -9.1875 
Q 16.0625 -11.328125 19.921875 -12.34375 
Q 23.78125 -13.375 27.78125 -13.375 
Q 36.625 -13.375 41.015625 -8.765625 
Q 45.40625 -4.15625 45.40625 5.171875 
L 45.40625 9.625 
Q 42.625 4.78125 38.28125 2.390625 
Q 33.9375 0 27.875 0 
Q 17.828125 0 11.671875 7.65625 
Q 5.515625 15.328125 5.515625 27.984375 
Q 5.515625 40.671875 11.671875 48.328125 
Q 17.828125 56 27.875 56 
Q 33.9375 56 38.28125 53.609375 
Q 42.625 51.21875 45.40625 46.390625 
L 45.40625 54.6875 
L 54.390625 54.6875 
z
" id="DejaVuSans-103"/>
      <path d="M 18.3125 70.21875 
L 18.3125 54.6875 
L 36.8125 54.6875 
L 36.8125 47.703125 
L 18.3125 47.703125 
L 18.3125 18.015625 
Q 18.3125 11.328125 20.140625 9.421875 
Q 21.96875 7.515625 27.59375 7.515625 
L 36.8125 7.515625 
L 36.8125 0 
L 27.59375 0 
Q 17.1875 0 13.234375 3.875 
Q 9.28125 7.765625 9.28125 18.015625 
L 9.28125 47.703125 
L 2.6875 47.703125 
L 2.6875 54.6875 
L 9.28125 54.6875 
L 9.28125 70.21875 
z
" id="DejaVuSans-116"/>
      <path d="M 54.890625 33.015625 
L 54.890625 0 
L 45.90625 0 
L 45.90625 32.71875 
Q 45.90625 40.484375 42.875 44.328125 
Q 39.84375 48.1875 33.796875 48.1875 
Q 26.515625 48.1875 22.3125 43.546875 
Q 18.109375 38.921875 18.109375 30.90625 
L 18.109375 0 
L 9.078125 0 
L 9.078125 75.984375 
L 18.109375 75.984375 
L 18.109375 46.1875 
Q 21.34375 51.125 25.703125 53.5625 
Q 30.078125 56 35.796875 56 
Q 45.21875 56 50.046875 50.171875 
Q 54.890625 44.34375 54.890625 33.015625 
z
" id="DejaVuSans-104"/>
      <path d="M 44.28125 53.078125 
L 44.28125 44.578125 
Q 40.484375 46.53125 36.375 47.5 
Q 32.28125 48.484375 27.875 48.484375 
Q 21.1875 48.484375 17.84375 46.4375 
Q 14.5 44.390625 14.5 40.28125 
Q 14.5 37.15625 16.890625 35.375 
Q 19.28125 33.59375 26.515625 31.984375 
L 29.59375 31.296875 
Q 39.15625 29.25 43.1875 25.515625 
Q 47.21875 21.78125 47.21875 15.09375 
Q 47.21875 7.46875 41.1875 3.015625 
Q 35.15625 -1.421875 24.609375 -1.421875 
Q 20.21875 -1.421875 15.453125 -0.5625 
Q 10.6875 0.296875 5.421875 2 
L 5.421875 11.28125 
Q 10.40625 8.6875 15.234375 7.390625 
Q 20.0625 6.109375 24.8125 6.109375 
Q 31.15625 6.109375 34.5625 8.28125 
Q 37.984375 10.453125 37.984375 14.40625 
Q 37.984375 18.0625 35.515625 20.015625 
Q 33.0625 21.96875 24.703125 23.78125 
L 21.578125 24.515625 
Q 13.234375 26.265625 9.515625 29.90625 
Q 5.8125 33.546875 5.8125 39.890625 
Q 5.8125 47.609375 11.28125 51.796875 
Q 16.75 56 26.8125 56 
Q 31.78125 56 36.171875 55.265625 
Q 40.578125 54.546875 44.28125 53.078125 
z
" id="DejaVuSans-115"/>
     </defs>
     <g transform="translate(203.892812 335.860562)scale(0.1 -0.1)">
      <use xlink:href="#DejaVuSans-87"/>
      <use x="92.501953" xlink:href="#DejaVuSans-97"/>
      <use x="153.78125" xlink:href="#DejaVuSans-118"/>
      <use x="212.960938" xlink:href="#DejaVuSans-101"/>
      <use x="274.484375" xlink:href="#DejaVuSans-108"/>
      <use x="302.267578" xlink:href="#DejaVuSans-101"/>
      <use x="363.791016" xlink:href="#DejaVuSans-110"/>
      <use x="427.169922" xlink:href="#DejaVuSans-103"/>
      <use x="490.646484" xlink:href="#DejaVuSans-116"/>
      <use x="529.855469" xlink:href="#DejaVuSans-104"/>
      <use x="593.234375" xlink:href="#DejaVuSans-115"/>
     </g>
    </g>
   </g>
   <g id="matplotlib.axis_2">
    <g id="ytick_1">
     <g id="line2d_8">
      <defs>
       <path d="M 0 0 
L -3.5 0 
" id="m33d75ecd0a" style="stroke:#000000;stroke-width:0.8;"/>
      </defs>
      <g>
       <use style="stroke:#000000;stroke-width:0.8;" x="57.6" xlink:href="#m33d75ecd0a" y="287.673576"/>
      </g>
     </g>
     <g id="text_9">
      <!-- 0.50 -->
      <defs>
       <path d="M 10.6875 12.40625 
L 21 12.40625 
L 21 0 
L 10.6875 0 
z
" id="DejaVuSans-46"/>
      </defs>
      <g transform="translate(28.334375 291.472795)scale(0.1 -0.1)">
       <use xlink:href="#DejaVuSans-48"/>
       <use x="63.623047" xlink:href="#DejaVuSans-46"/>
       <use x="95.410156" xlink:href="#DejaVuSans-53"/>
       <use x="159.033203" xlink:href="#DejaVuSans-48"/>
      </g>
     </g>
    </g>
    <g id="ytick_2">
     <g id="line2d_9">
      <g>
       <use style="stroke:#000000;stroke-width:0.8;" x="57.6" xlink:href="#m33d75ecd0a" y="228.58658"/>
      </g>
     </g>
     <g id="text_10">
      <!-- 0.55 -->
      <g transform="translate(28.334375 232.385798)scale(0.1 -0.1)">
       <use xlink:href="#DejaVuSans-48"/>
       <use x="63.623047" xlink:href="#DejaVuSans-46"/>
       <use x="95.410156" xlink:href="#DejaVuSans-53"/>
       <use x="159.033203" xlink:href="#DejaVuSans-53"/>
      </g>
     </g>
    </g>
    <g id="ytick_3">
     <g id="line2d_10">
      <g>
       <use style="stroke:#000000;stroke-width:0.8;" x="57.6" xlink:href="#m33d75ecd0a" y="169.499583"/>
      </g>
     </g>
     <g id="text_11">
      <!-- 0.60 -->
      <g transform="translate(28.334375 173.298802)scale(0.1 -0.1)">
       <use xlink:href="#DejaVuSans-48"/>
       <use x="63.623047" xlink:href="#DejaVuSans-46"/>
       <use x="95.410156" xlink:href="#DejaVuSans-54"/>
       <use x="159.033203" xlink:href="#DejaVuSans-48"/>
      </g>
     </g>
    </g>
    <g id="ytick_4">
     <g id="line2d_11">
      <g>
       <use style="stroke:#000000;stroke-width:0.8;" x="57.6" xlink:href="#m33d75ecd0a" y="110.412587"/>
      </g>
     </g>
     <g id="text_12">
      <!-- 0.65 -->
      <g transform="translate(28.334375 114.211806)scale(0.1 -0.1)">
       <use xlink:href="#DejaVuSans-48"/>
       <use x="63.623047" xlink:href="#DejaVuSans-46"/>
       <use x="95.410156" xlink:href="#DejaVuSans-54"/>
       <use x="159.033203" xlink:href="#DejaVuSans-53"/>
      </g>
     </g>
    </g>
    <g id="ytick_5">
     <g id="line2d_12">
      <g>
       <use style="stroke:#000000;stroke-width:0.8;" x="57.6" xlink:href="#m33d75ecd0a" y="51.325591"/>
      </g>
     </g>
     <g id="text_13">
      <!-- 0.70 -->
      <g transform="translate(28.334375 55.12481)scale(0.1 -0.1)">
       <use xlink:href="#DejaVuSans-48"/>
       <use x="63.623047" xlink:href="#DejaVuSans-46"/>
       <use x="95.410156" xlink:href="#DejaVuSans-55"/>
       <use x="159.033203" xlink:href="#DejaVuSans-48"/>
      </g>
     </g>
    </g>
    <g id="text_14">
     <!-- Transmission -->
     <defs>
      <path d="M -0.296875 72.90625 
L 61.375 72.90625 
L 61.375 64.59375 
L 35.5 64.59375 
L 35.5 0 
L 25.59375 0 
L 25.59375 64.59375 
L -0.296875 64.59375 
z
" id="DejaVuSans-84"/>
      <path d="M 41.109375 46.296875 
Q 39.59375 47.171875 37.8125 47.578125 
Q 36.03125 48 33.890625 48 
Q 26.265625 48 22.1875 43.046875 
Q 18.109375 38.09375 18.109375 28.8125 
L 18.109375 0 
L 9.078125 0 
L 9.078125 54.6875 
L 18.109375 54.6875 
L 18.109375 46.1875 
Q 20.953125 51.171875 25.484375 53.578125 
Q 30.03125 56 36.53125 56 
Q 37.453125 56 38.578125 55.875 
Q 39.703125 55.765625 41.0625 55.515625 
z
" id="DejaVuSans-114"/>
      <path d="M 52 44.1875 
Q 55.375 50.25 60.0625 53.125 
Q 64.75 56 71.09375 56 
Q 79.640625 56 84.28125 50.015625 
Q 88.921875 44.046875 88.921875 33.015625 
L 88.921875 0 
L 79.890625 0 
L 79.890625 32.71875 
Q 79.890625 40.578125 77.09375 44.375 
Q 74.3125 48.1875 68.609375 48.1875 
Q 61.625 48.1875 57.5625 43.546875 
Q 53.515625 38.921875 53.515625 30.90625 
L 53.515625 0 
L 44.484375 0 
L 44.484375 32.71875 
Q 44.484375 40.625 41.703125 44.40625 
Q 38.921875 48.1875 33.109375 48.1875 
Q 26.21875 48.1875 22.15625 43.53125 
Q 18.109375 38.875 18.109375 30.90625 
L 18.109375 0 
L 9.078125 0 
L 9.078125 54.6875 
L 18.109375 54.6875 
L 18.109375 46.1875 
Q 21.1875 51.21875 25.484375 53.609375 
Q 29.78125 56 35.6875 56 
Q 41.65625 56 45.828125 52.96875 
Q 50 49.953125 52 44.1875 
z
" id="DejaVuSans-109"/>
      <path d="M 9.421875 54.6875 
L 18.40625 54.6875 
L 18.40625 0 
L 9.421875 0 
z
M 9.421875 75.984375 
L 18.40625 75.984375 
L 18.40625 64.59375 
L 9.421875 64.59375 
z
" id="DejaVuSans-105"/>
      <path d="M 30.609375 48.390625 
Q 23.390625 48.390625 19.1875 42.75 
Q 14.984375 37.109375 14.984375 27.296875 
Q 14.984375 17.484375 19.15625 11.84375 
Q 23.34375 6.203125 30.609375 6.203125 
Q 37.796875 6.203125 41.984375 11.859375 
Q 46.1875 17.53125 46.1875 27.296875 
Q 46.1875 37.015625 41.984375 42.703125 
Q 37.796875 48.390625 30.609375 48.390625 
z
M 30.609375 56 
Q 42.328125 56 49.015625 48.375 
Q 55.71875 40.765625 55.71875 27.296875 
Q 55.71875 13.875 49.015625 6.21875 
Q 42.328125 -1.421875 30.609375 -1.421875 
Q 18.84375 -1.421875 12.171875 6.21875 
Q 5.515625 13.875 5.515625 27.296875 
Q 5.515625 40.765625 12.171875 48.375 
Q 18.84375 56 30.609375 56 
z
" id="DejaVuSans-111"/>
     </defs>
     <g transform="translate(22.254687 206.823312)rotate(-90)scale(0.1 -0.1)">
      <use xlink:href="#DejaVuSans-84"/>
      <use x="46.333984" xlink:href="#DejaVuSans-114"/>
      <use x="87.447266" xlink:href="#DejaVuSans-97"/>
      <use x="148.726562" xlink:href="#DejaVuSans-110"/>
      <use x="212.105469" xlink:href="#DejaVuSans-115"/>
      <use x="264.205078" xlink:href="#DejaVuSans-109"/>
      <use x="361.617188" xlink:href="#DejaVuSans-105"/>
      <use x="389.400391" xlink:href="#DejaVuSans-115"/>
      <use x="441.5" xlink:href="#DejaVuSans-115"/>
      <use x="493.599609" xlink:href="#DejaVuSans-105"/>
      <use x="521.382812" xlink:href="#DejaVuSans-111"/>
      <use x="582.564453" xlink:href="#DejaVuSans-110"/>
     </g>
    </g>
   </g>
   <g id="line2d_13">
    <path clip-path="url(#pe05d0c83c1)" d="M 398.487273 288.378182 
L 392.791579 286.894619 
L 387.180896 285.582405 
L 381.653333 284.41704 
L 376.207059 283.375629 
L 370.840292 282.436771 
L 365.551304 281.579631 
L 360.338417 280.782336 
L 355.2 280.019577 
L 350.134468 279.259227 
L 345.140282 278.458131 
L 340.215944 277.558462 
L 335.36 276.488995 
L 330.571034 275.178717 
L 325.847671 273.58677 
L 321.188571 271.734222 
L 316.592432 269.704581 
L 312.057987 267.600765 
L 307.584 265.494633 
L 303.169272 263.409102 
L 298.812632 261.331679 
L 294.512941 259.235972 
L 290.269091 257.096803 
L 286.08 254.897616 
L 281.944615 252.633774 
L 277.861911 250.315386 
L 273.830886 247.972443 
L 269.850566 245.663357 
L 265.92 243.4724 
L 262.038261 241.37291 
L 258.204444 238.582909 
L 254.417669 234.008213 
L 250.677073 229.153338 
L 246.981818 225.00947 
L 243.331084 221.273181 
L 239.724072 217.686525 
L 236.16 214.148832 
L 232.638107 210.62983 
L 229.157647 207.127161 
L 225.717895 203.650209 
L 222.31814 200.213882 
L 218.957688 196.83608 
L 215.635862 193.536606 
L 212.352 190.336682 
L 209.105455 187.258732 
L 205.895593 184.326291 
L 202.721798 181.563979 
L 199.583464 178.997503 
L 196.48 176.653678 
L 193.410829 174.560431 
L 190.375385 172.746808 
L 187.373115 171.242932 
L 184.403478 170.079917 
L 181.465946 169.28971 
L 178.56 168.904816 
L 175.685134 168.957881 
L 172.840851 169.481078 
L 170.026667 170.505226 
L 167.242105 172.058596 
L 164.486702 174.165306 
L 161.76 176.843253 
L 159.061554 180.101529 
L 156.390928 183.937327 
L 153.747692 188.332415 
L 151.131429 193.249423 
L 148.541726 198.628342 
L 145.978182 204.383893 
L 143.440402 210.404636 
L 140.928 216.554806 
L 138.440597 222.6798 
L 135.977822 228.615789 
L 133.53931 234.20315 
L 131.124706 239.302274 
L 128.733659 243.809292 
L 126.365825 247.668615 
L 124.02087 250.879488 
L 121.698462 253.494927 
L 119.398278 255.613198 
L 117.12 257.363714 
L 114.863318 258.890282 
L 112.627925 260.334728 
L 110.413521 261.823263 
L 108.219813 263.456841 
L 106.046512 265.305753 
L 103.893333 267.407906 
L 101.76 269.769945 
L 99.646239 272.370256 
L 97.551781 275.163078 
L 95.476364 278.083122 
L 93.419729 281.050334 
L 91.381622 283.974572 
L 89.361794 286.760076 
L 87.36 289.309696 
L 85.376 291.528821 
L 83.409558 293.328983 
L 81.460441 294.63109 
L 79.528421 295.368233 
L 77.613275 295.488 
L 75.714783 294.954251 
L 73.832727 293.748295 
" style="fill:none;stroke:#ff7f0e;stroke-linecap:square;stroke-width:1.5;"/>
   </g>
   <g id="line2d_14">
    <path clip-path="url(#pe05d0c83c1)" d="M 398.487273 269.847832 
L 392.791579 267.854594 
L 387.180896 264.72622 
L 381.653333 260.687097 
L 376.207059 256.377735 
L 370.840292 252.450273 
L 365.551304 249.247439 
L 360.338417 246.805387 
L 355.2 245.010632 
L 350.134468 243.727631 
L 345.140282 242.860804 
L 340.215944 242.381459 
L 335.36 242.353581 
L 330.571034 242.988053 
L 325.847671 244.748969 
L 321.188571 248.347883 
L 316.592432 252.72647 
L 312.057987 248.844682 
L 307.584 237.452444 
L 303.169272 230.080608 
L 298.812632 226.090524 
L 294.512941 223.401755 
L 290.269091 221.141779 
L 286.08 218.980964 
L 281.944615 216.786459 
L 277.861911 214.50071 
L 273.830886 212.098026 
L 269.850566 209.56785 
L 265.92 206.907775 
L 262.038261 204.120418 
L 258.204444 201.21189 
L 254.417669 198.190976 
L 250.677073 195.068624 
L 246.981818 191.857583 
L 243.331084 188.572118 
L 239.724072 185.227761 
L 236.16 181.841105 
L 232.638107 178.429625 
L 229.157647 175.011538 
L 225.717895 171.605703 
L 222.31814 168.231554 
L 218.957688 164.909073 
L 215.635862 161.658795 
L 212.352 158.501842 
L 209.105455 155.459977 
L 205.895593 152.555674 
L 202.721798 149.812199 
L 199.583464 147.253693 
L 196.48 144.905247 
L 193.410829 142.792961 
L 190.375385 140.943987 
L 187.373115 139.386518 
L 184.403478 138.149742 
L 181.465946 137.263696 
L 178.56 136.759039 
L 175.685134 136.666661 
L 172.840851 137.017117 
L 170.026667 137.839816 
L 167.242105 139.161903 
L 164.486702 141.006766 
L 161.76 143.392105 
L 159.061554 146.327512 
L 156.390928 149.811561 
L 153.747692 153.828492 
L 151.131429 158.344681 
L 148.541726 163.305288 
L 145.978182 168.631685 
L 143.440402 174.220476 
L 140.928 179.945047 
L 138.440597 185.660533 
L 135.977822 191.21269 
L 133.53931 196.450408 
L 131.124706 201.240586 
L 128.733659 205.483055 
L 126.365825 209.122646 
L 124.02087 212.155719 
L 121.698462 214.629545 
L 119.398278 216.634614 
L 117.12 218.291569 
L 114.863318 219.7355 
L 112.627925 221.100466 
L 110.413521 222.506489 
L 108.219813 224.050272 
L 106.046512 225.799874 
L 103.893333 227.792885 
L 101.76 230.037292 
L 99.646239 232.514153 
L 97.551781 235.181331 
L 95.476364 237.97775 
L 93.419729 240.827796 
L 91.381622 243.645678 
L 89.361794 246.339636 
L 87.36 248.815955 
L 85.376 250.982748 
L 83.409558 252.753482 
L 81.460441 254.050193 
L 79.528421 254.806331 
L 77.613275 254.969161 
L 75.714783 254.501655 
L 73.832727 253.383799 
" style="fill:none;stroke:#2ca02c;stroke-linecap:square;stroke-width:1.5;"/>
   </g>
   <g id="line2d_15">
    <path clip-path="url(#pe05d0c83c1)" d="M 398.487273 221.30464 
L 392.791579 222.402529 
L 387.180896 225.658771 
L 381.653333 232.868318 
L 376.207059 246.579715 
L 370.840292 256.736928 
L 365.551304 236.105381 
L 360.338417 215.646147 
L 355.2 206.786185 
L 350.134468 202.925849 
L 345.140282 200.922702 
L 340.215944 199.656126 
L 335.36 198.691095 
L 330.571034 197.834397 
L 325.847671 196.987512 
L 321.188571 196.093362 
L 316.592432 195.115303 
L 312.057987 194.028234 
L 307.584 192.814602 
L 303.169272 191.462484 
L 298.812632 189.964535 
L 294.512941 188.317288 
L 290.269091 186.520567 
L 286.08 184.576925 
L 281.944615 182.491079 
L 277.861911 180.269374 
L 273.830886 177.91929 
L 269.850566 175.449027 
L 265.92 172.86719 
L 262.038261 170.182578 
L 258.204444 167.404081 
L 254.417669 164.540663 
L 250.677073 161.601435 
L 246.981818 158.595766 
L 243.331084 155.533443 
L 239.724072 152.424844 
L 236.16 149.281106 
L 232.638107 146.114289 
L 229.157647 142.93751 
L 225.717895 139.765056 
L 222.31814 136.612457 
L 218.957688 133.496543 
L 215.635862 130.435454 
L 212.352 127.448644 
L 209.105455 124.556854 
L 205.895593 121.782072 
L 202.721798 119.147487 
L 199.583464 116.677431 
L 196.48 114.397327 
L 193.410829 112.333618 
L 190.375385 110.513704 
L 187.373115 108.965851 
L 184.403478 107.719082 
L 181.465946 106.803008 
L 178.56 106.247594 
L 175.685134 106.082807 
L 172.840851 106.338105 
L 170.026667 107.041717 
L 167.242105 108.219646 
L 164.486702 109.894325 
L 161.76 112.082864 
L 159.061554 114.794832 
L 156.390928 118.029577 
L 153.747692 121.773131 
L 151.131429 125.994901 
L 148.541726 130.644484 
L 145.978182 135.649164 
L 143.440402 140.912848 
L 140.928 146.317331 
L 138.440597 151.726731 
L 135.977822 156.995583 
L 133.53931 161.980423 
L 131.124706 166.553691 
L 128.733659 170.617853 
L 126.365825 174.117021 
L 124.02087 177.0435 
L 121.698462 179.437676 
L 119.398278 181.381186 
L 117.12 182.984891 
L 114.863318 184.374184 
L 112.627925 185.674342 
L 110.413521 186.99812 
L 108.219813 188.436802 
L 106.046512 190.055014 
L 103.893333 191.888891 
L 101.76 193.946839 
L 99.646239 196.212073 
L 97.551781 198.646186 
L 95.476364 201.193239 
L 93.419729 203.78399 
L 91.381622 206.340059 
L 89.361794 208.777926 
L 87.36 211.012674 
L 85.376 212.961471 
L 83.409558 214.546734 
L 81.460441 215.698948 
L 79.528421 216.359098 
L 77.613275 216.480665 
L 75.714783 216.031151 
L 73.832727 214.993123 
" style="fill:none;stroke:#d62728;stroke-linecap:square;stroke-width:1.5;"/>
   </g>
   <g id="line2d_16">
    <path clip-path="url(#pe05d0c83c1)" d="M 398.487273 174.951462 
L 392.791579 173.164049 
L 387.180896 172.021442 
L 381.653333 171.210149 
L 376.207059 170.575174 
L 370.840292 170.02875 
L 365.551304 169.515367 
L 360.338417 168.997234 
L 355.2 168.44777 
L 350.134468 167.848405 
L 345.140282 167.186727 
L 340.215944 166.455151 
L 335.36 165.649756 
L 330.571034 164.769175 
L 325.847671 163.813553 
L 321.188571 162.7836 
L 316.592432 161.679803 
L 312.057987 160.501838 
L 307.584 159.248196 
L 303.169272 157.916017 
L 298.812632 156.501105 
L 294.512941 154.998109 
L 290.269091 153.400816 
L 286.08 151.702536 
L 281.944615 149.896544 
L 277.861911 147.976566 
L 273.830886 145.937262 
L 269.850566 143.774703 
L 265.92 141.486803 
L 262.038261 139.073693 
L 258.204444 136.538004 
L 254.417669 133.885037 
L 250.677073 131.122824 
L 246.981818 128.26206 
L 243.331084 125.315916 
L 239.724072 122.299758 
L 236.16 119.230795 
L 232.638107 116.127689 
L 229.157647 113.010165 
L 225.717895 109.898645 
L 222.31814 106.813948 
L 218.957688 103.777057 
L 215.635862 100.808972 
L 212.352 97.930639 
L 209.105455 95.162961 
L 205.895593 92.526857 
L 202.721798 90.043377 
L 199.583464 87.733839 
L 196.48 85.619974 
L 193.410829 83.724069 
L 190.375385 82.069089 
L 187.373115 80.678756 
L 184.403478 79.577578 
L 181.465946 78.79079 
L 178.56 78.344201 
L 175.685134 78.263898 
L 172.840851 78.575775 
L 170.026667 79.304837 
L 167.242105 80.474225 
L 164.486702 82.103896 
L 161.76 84.208909 
L 159.061554 86.79727 
L 156.390928 89.867332 
L 153.747692 93.40483 
L 151.131429 97.379717 
L 148.541726 101.743162 
L 145.978182 106.425232 
L 143.440402 111.333997 
L 140.928 116.356904 
L 138.440597 121.365216 
L 135.977822 126.221958 
L 133.53931 130.793141 
L 131.124706 134.961111 
L 128.733659 138.637926 
L 126.365825 141.776136 
L 124.02087 144.374553 
L 121.698462 146.477563 
L 119.398278 148.168091 
L 117.12 149.555793 
L 114.863318 150.76295 
L 112.627925 151.910677 
L 110.413521 153.107418 
L 108.219813 154.440806 
L 106.046512 155.973066 
L 103.893333 157.739492 
L 101.76 159.749249 
L 99.646239 161.987703 
L 97.551781 164.419592 
L 95.476364 166.992573 
L 93.419729 169.640804 
L 91.381622 172.288421 
L 89.361794 174.852836 
L 87.36 177.247849 
L 85.376 179.386642 
L 83.409558 181.184674 
L 81.460441 182.562574 
L 79.528421 183.449055 
L 77.613275 183.783849 
L 75.714783 183.520615 
L 73.832727 182.629628 
" style="fill:none;stroke:#9467bd;stroke-linecap:square;stroke-width:1.5;"/>
   </g>
   <g id="line2d_17">
    <path clip-path="url(#pe05d0c83c1)" d="M 398.487273 143.700736 
L 392.791579 142.844174 
L 387.180896 141.981596 
L 381.653333 141.121523 
L 376.207059 140.274782 
L 370.840292 139.452122 
L 365.551304 138.662343 
L 360.338417 137.910996 
L 355.2 137.199642 
L 350.134468 136.525591 
L 345.140282 135.882003 
L 340.215944 135.258246 
L 335.36 134.640417 
L 330.571034 134.01197 
L 325.847671 133.354399 
L 321.188571 132.647971 
L 316.592432 131.872498 
L 312.057987 131.008141 
L 307.584 130.036234 
L 303.169272 128.940102 
L 298.812632 127.705825 
L 294.512941 126.322886 
L 290.269091 124.784662 
L 286.08 123.088664 
L 281.944615 121.236536 
L 277.861911 119.233782 
L 273.830886 117.089262 
L 269.850566 114.814523 
L 265.92 112.423043 
L 262.038261 109.929473 
L 258.204444 107.348949 
L 254.417669 104.696533 
L 250.677073 101.986803 
L 246.981818 99.233606 
L 243.331084 96.449962 
L 239.724072 93.648086 
L 236.16 90.839506 
L 232.638107 88.035252 
L 229.157647 85.246071 
L 225.717895 82.482677 
L 222.31814 79.755991 
L 218.957688 77.077383 
L 215.635862 74.458897 
L 212.352 71.91346 
L 209.105455 69.455078 
L 205.895593 67.098995 
L 202.721798 64.861843 
L 199.583464 62.761746 
L 196.48 60.818392 
L 193.410829 59.053054 
L 190.375385 57.488558 
L 187.373115 56.14919 
L 184.403478 55.060523 
L 181.465946 54.249177 
L 178.56 53.742476 
L 175.685134 53.568 
L 172.840851 53.753011 
L 170.026667 54.323699 
L 167.242105 55.304223 
L 164.486702 56.715478 
L 161.76 58.573547 
L 159.061554 60.887773 
L 156.390928 63.658473 
L 153.747692 66.874308 
L 151.131429 70.509506 
L 148.541726 74.521202 
L 145.978182 78.847382 
L 143.440402 83.406091 
L 140.928 88.096619 
L 138.440597 92.803402 
L 135.977822 97.403007 
L 133.53931 101.774009 
L 131.124706 105.808756 
L 128.733659 109.425191 
L 126.365825 112.576458 
L 124.02087 115.256152 
L 121.698462 117.497927 
L 119.398278 119.369486 
L 117.12 120.962251 
L 114.863318 122.37884 
L 112.627925 123.720645 
L 110.413521 125.077318 
L 108.219813 126.519263 
L 106.046512 128.093394 
L 103.893333 129.8219 
L 101.76 131.703407 
L 99.646239 133.715812 
L 97.551781 135.82014 
L 95.476364 137.964838 
L 93.419729 140.09006 
L 91.381622 142.131658 
L 89.361794 144.024695 
L 87.36 145.706441 
L 85.376 147.118918 
L 83.409558 148.211086 
L 81.460441 148.940813 
L 79.528421 149.276744 
L 77.613275 149.200147 
L 75.714783 148.706819 
L 73.832727 147.809067 
" style="fill:none;stroke:#8c564b;stroke-linecap:square;stroke-width:1.5;"/>
   </g>
   <g id="patch_3">
    <path d="M 57.6 307.584 
L 57.6 41.472 
" style="fill:none;stroke:#000000;stroke-linecap:square;stroke-linejoin:miter;stroke-width:0.8;"/>
   </g>
   <g id="patch_4">
    <path d="M 414.72 307.584 
L 414.72 41.472 
" style="fill:none;stroke:#000000;stroke-linecap:square;stroke-linejoin:miter;stroke-width:0.8;"/>
   </g>
   <g id="patch_5">
    <path d="M 57.6 307.584 
L 414.72 307.584 
" style="fill:none;stroke:#000000;stroke-linecap:square;stroke-linejoin:miter;stroke-width:0.8;"/>
   </g>
   <g id="patch_6">
    <path d="M 57.6 41.472 
L 414.72 41.472 
" style="fill:none;stroke:#000000;stroke-linecap:square;stroke-linejoin:miter;stroke-width:0.8;"/>
   </g>
   <g id="text_15">
    <!-- TransmissionToWavelengths Resolution:500 BTX:0.02 Polarization: Ey -->
    <defs>
     <path id="DejaVuSans-32"/>
     <path d="M 44.390625 34.1875 
Q 47.5625 33.109375 50.5625 29.59375 
Q 53.5625 26.078125 56.59375 19.921875 
L 66.609375 0 
L 56 0 
L 46.6875 18.703125 
Q 43.0625 26.03125 39.671875 28.421875 
Q 36.28125 30.8125 30.421875 30.8125 
L 19.671875 30.8125 
L 19.671875 0 
L 9.8125 0 
L 9.8125 72.90625 
L 32.078125 72.90625 
Q 44.578125 72.90625 50.734375 67.671875 
Q 56.890625 62.453125 56.890625 51.90625 
Q 56.890625 45.015625 53.6875 40.46875 
Q 50.484375 35.9375 44.390625 34.1875 
z
M 19.671875 64.796875 
L 19.671875 38.921875 
L 32.078125 38.921875 
Q 39.203125 38.921875 42.84375 42.21875 
Q 46.484375 45.515625 46.484375 51.90625 
Q 46.484375 58.296875 42.84375 61.546875 
Q 39.203125 64.796875 32.078125 64.796875 
z
" id="DejaVuSans-82"/>
     <path d="M 8.5 21.578125 
L 8.5 54.6875 
L 17.484375 54.6875 
L 17.484375 21.921875 
Q 17.484375 14.15625 20.5 10.265625 
Q 23.53125 6.390625 29.59375 6.390625 
Q 36.859375 6.390625 41.078125 11.03125 
Q 45.3125 15.671875 45.3125 23.6875 
L 45.3125 54.6875 
L 54.296875 54.6875 
L 54.296875 0 
L 45.3125 0 
L 45.3125 8.40625 
Q 42.046875 3.421875 37.71875 1 
Q 33.40625 -1.421875 27.6875 -1.421875 
Q 18.265625 -1.421875 13.375 4.4375 
Q 8.5 10.296875 8.5 21.578125 
z
M 31.109375 56 
z
" id="DejaVuSans-117"/>
     <path d="M 11.71875 12.40625 
L 22.015625 12.40625 
L 22.015625 0 
L 11.71875 0 
z
M 11.71875 51.703125 
L 22.015625 51.703125 
L 22.015625 39.3125 
L 11.71875 39.3125 
z
" id="DejaVuSans-58"/>
     <path d="M 19.671875 34.8125 
L 19.671875 8.109375 
L 35.5 8.109375 
Q 43.453125 8.109375 47.28125 11.40625 
Q 51.125 14.703125 51.125 21.484375 
Q 51.125 28.328125 47.28125 31.5625 
Q 43.453125 34.8125 35.5 34.8125 
z
M 19.671875 64.796875 
L 19.671875 42.828125 
L 34.28125 42.828125 
Q 41.5 42.828125 45.03125 45.53125 
Q 48.578125 48.25 48.578125 53.8125 
Q 48.578125 59.328125 45.03125 62.0625 
Q 41.5 64.796875 34.28125 64.796875 
z
M 9.8125 72.90625 
L 35.015625 72.90625 
Q 46.296875 72.90625 52.390625 68.21875 
Q 58.5 63.53125 58.5 54.890625 
Q 58.5 48.1875 55.375 44.234375 
Q 52.25 40.28125 46.1875 39.3125 
Q 53.46875 37.75 57.5 32.78125 
Q 61.53125 27.828125 61.53125 20.40625 
Q 61.53125 10.640625 54.890625 5.3125 
Q 48.25 0 35.984375 0 
L 9.8125 0 
z
" id="DejaVuSans-66"/>
     <path d="M 6.296875 72.90625 
L 16.890625 72.90625 
L 35.015625 45.796875 
L 53.21875 72.90625 
L 63.8125 72.90625 
L 40.375 37.890625 
L 65.375 0 
L 54.78125 0 
L 34.28125 31 
L 13.625 0 
L 2.984375 0 
L 29 38.921875 
z
" id="DejaVuSans-88"/>
     <path d="M 19.1875 8.296875 
L 53.609375 8.296875 
L 53.609375 0 
L 7.328125 0 
L 7.328125 8.296875 
Q 12.9375 14.109375 22.625 23.890625 
Q 32.328125 33.6875 34.8125 36.53125 
Q 39.546875 41.84375 41.421875 45.53125 
Q 43.3125 49.21875 43.3125 52.78125 
Q 43.3125 58.59375 39.234375 62.25 
Q 35.15625 65.921875 28.609375 65.921875 
Q 23.96875 65.921875 18.8125 64.3125 
Q 13.671875 62.703125 7.8125 59.421875 
L 7.8125 69.390625 
Q 13.765625 71.78125 18.9375 73 
Q 24.125 74.21875 28.421875 74.21875 
Q 39.75 74.21875 46.484375 68.546875 
Q 53.21875 62.890625 53.21875 53.421875 
Q 53.21875 48.921875 51.53125 44.890625 
Q 49.859375 40.875 45.40625 35.40625 
Q 44.1875 33.984375 37.640625 27.21875 
Q 31.109375 20.453125 19.1875 8.296875 
z
" id="DejaVuSans-50"/>
     <path d="M 19.671875 64.796875 
L 19.671875 37.40625 
L 32.078125 37.40625 
Q 38.96875 37.40625 42.71875 40.96875 
Q 46.484375 44.53125 46.484375 51.125 
Q 46.484375 57.671875 42.71875 61.234375 
Q 38.96875 64.796875 32.078125 64.796875 
z
M 9.8125 72.90625 
L 32.078125 72.90625 
Q 44.34375 72.90625 50.609375 67.359375 
Q 56.890625 61.8125 56.890625 51.125 
Q 56.890625 40.328125 50.609375 34.8125 
Q 44.34375 29.296875 32.078125 29.296875 
L 19.671875 29.296875 
L 19.671875 0 
L 9.8125 0 
z
" id="DejaVuSans-80"/>
     <path d="M 5.515625 54.6875 
L 48.1875 54.6875 
L 48.1875 46.484375 
L 14.40625 7.171875 
L 48.1875 7.171875 
L 48.1875 0 
L 4.296875 0 
L 4.296875 8.203125 
L 38.09375 47.515625 
L 5.515625 47.515625 
z
" id="DejaVuSans-122"/>
     <path d="M 9.8125 72.90625 
L 55.90625 72.90625 
L 55.90625 64.59375 
L 19.671875 64.59375 
L 19.671875 43.015625 
L 54.390625 43.015625 
L 54.390625 34.71875 
L 19.671875 34.71875 
L 19.671875 8.296875 
L 56.78125 8.296875 
L 56.78125 0 
L 9.8125 0 
z
" id="DejaVuSans-69"/>
     <path d="M 32.171875 -5.078125 
Q 28.375 -14.84375 24.75 -17.8125 
Q 21.140625 -20.796875 15.09375 -20.796875 
L 7.90625 -20.796875 
L 7.90625 -13.28125 
L 13.1875 -13.28125 
Q 16.890625 -13.28125 18.9375 -11.515625 
Q 21 -9.765625 23.484375 -3.21875 
L 25.09375 0.875 
L 2.984375 54.6875 
L 12.5 54.6875 
L 29.59375 11.921875 
L 46.6875 54.6875 
L 56.203125 54.6875 
z
" id="DejaVuSans-121"/>
    </defs>
    <g transform="translate(28.414688 35.472)scale(0.12 -0.12)">
     <use xlink:href="#DejaVuSans-84"/>
     <use x="46.333984" xlink:href="#DejaVuSans-114"/>
     <use x="87.447266" xlink:href="#DejaVuSans-97"/>
     <use x="148.726562" xlink:href="#DejaVuSans-110"/>
     <use x="212.105469" xlink:href="#DejaVuSans-115"/>
     <use x="264.205078" xlink:href="#DejaVuSans-109"/>
     <use x="361.617188" xlink:href="#DejaVuSans-105"/>
     <use x="389.400391" xlink:href="#DejaVuSans-115"/>
     <use x="441.5" xlink:href="#DejaVuSans-115"/>
     <use x="493.599609" xlink:href="#DejaVuSans-105"/>
     <use x="521.382812" xlink:href="#DejaVuSans-111"/>
     <use x="582.564453" xlink:href="#DejaVuSans-110"/>
     <use x="645.943359" xlink:href="#DejaVuSans-84"/>
     <use x="690.027344" xlink:href="#DejaVuSans-111"/>
     <use x="751.208984" xlink:href="#DejaVuSans-87"/>
     <use x="843.710938" xlink:href="#DejaVuSans-97"/>
     <use x="904.990234" xlink:href="#DejaVuSans-118"/>
     <use x="964.169922" xlink:href="#DejaVuSans-101"/>
     <use x="1025.693359" xlink:href="#DejaVuSans-108"/>
     <use x="1053.476562" xlink:href="#DejaVuSans-101"/>
     <use x="1115" xlink:href="#DejaVuSans-110"/>
     <use x="1178.378906" xlink:href="#DejaVuSans-103"/>
     <use x="1241.855469" xlink:href="#DejaVuSans-116"/>
     <use x="1281.064453" xlink:href="#DejaVuSans-104"/>
     <use x="1344.443359" xlink:href="#DejaVuSans-115"/>
     <use x="1396.542969" xlink:href="#DejaVuSans-32"/>
     <use x="1428.330078" xlink:href="#DejaVuSans-82"/>
     <use x="1493.3125" xlink:href="#DejaVuSans-101"/>
     <use x="1554.835938" xlink:href="#DejaVuSans-115"/>
     <use x="1606.935547" xlink:href="#DejaVuSans-111"/>
     <use x="1668.117188" xlink:href="#DejaVuSans-108"/>
     <use x="1695.900391" xlink:href="#DejaVuSans-117"/>
     <use x="1759.279297" xlink:href="#DejaVuSans-116"/>
     <use x="1798.488281" xlink:href="#DejaVuSans-105"/>
     <use x="1826.271484" xlink:href="#DejaVuSans-111"/>
     <use x="1887.453125" xlink:href="#DejaVuSans-110"/>
     <use x="1950.832031" xlink:href="#DejaVuSans-58"/>
     <use x="1984.523438" xlink:href="#DejaVuSans-53"/>
     <use x="2048.146484" xlink:href="#DejaVuSans-48"/>
     <use x="2111.769531" xlink:href="#DejaVuSans-48"/>
     <use x="2175.392578" xlink:href="#DejaVuSans-32"/>
     <use x="2207.179688" xlink:href="#DejaVuSans-66"/>
     <use x="2275.783203" xlink:href="#DejaVuSans-84"/>
     <use x="2336.867188" xlink:href="#DejaVuSans-88"/>
     <use x="2405.373047" xlink:href="#DejaVuSans-58"/>
     <use x="2439.064453" xlink:href="#DejaVuSans-48"/>
     <use x="2502.6875" xlink:href="#DejaVuSans-46"/>
     <use x="2534.474609" xlink:href="#DejaVuSans-48"/>
     <use x="2598.097656" xlink:href="#DejaVuSans-50"/>
     <use x="2661.720703" xlink:href="#DejaVuSans-32"/>
     <use x="2693.507812" xlink:href="#DejaVuSans-80"/>
     <use x="2750.185547" xlink:href="#DejaVuSans-111"/>
     <use x="2811.367188" xlink:href="#DejaVuSans-108"/>
     <use x="2839.150391" xlink:href="#DejaVuSans-97"/>
     <use x="2900.429688" xlink:href="#DejaVuSans-114"/>
     <use x="2941.542969" xlink:href="#DejaVuSans-105"/>
     <use x="2969.326172" xlink:href="#DejaVuSans-122"/>
     <use x="3021.816406" xlink:href="#DejaVuSans-97"/>
     <use x="3083.095703" xlink:href="#DejaVuSans-116"/>
     <use x="3122.304688" xlink:href="#DejaVuSans-105"/>
     <use x="3150.087891" xlink:href="#DejaVuSans-111"/>
     <use x="3211.269531" xlink:href="#DejaVuSans-110"/>
     <use x="3274.648438" xlink:href="#DejaVuSans-58"/>
     <use x="3308.339844" xlink:href="#DejaVuSans-32"/>
     <use x="3340.126953" xlink:href="#DejaVuSans-69"/>
     <use x="3403.310547" xlink:href="#DejaVuSans-121"/>
    </g>
   </g>
   <g id="legend_1">
    <g id="patch_7">
     <path d="M 295.349688 122.862625 
L 407.72 122.862625 
Q 409.72 122.862625 409.72 120.862625 
L 409.72 48.472 
Q 409.72 46.472 407.72 46.472 
L 295.349688 46.472 
Q 293.349688 46.472 293.349688 48.472 
L 293.349688 120.862625 
Q 293.349688 122.862625 295.349688 122.862625 
z
" style="fill:#ffffff;opacity:0.8;stroke:#cccccc;stroke-linejoin:miter;"/>
    </g>
    <g id="line2d_18">
     <path d="M 297.349688 54.570438 
L 317.349688 54.570438 
" style="fill:none;stroke:#ff7f0e;stroke-linecap:square;stroke-width:1.5;"/>
    </g>
    <g id="line2d_19"/>
    <g id="text_16">
     <!-- ST:0.05 BTY:0.5  -->
     <defs>
      <path d="M 53.515625 70.515625 
L 53.515625 60.890625 
Q 47.90625 63.578125 42.921875 64.890625 
Q 37.9375 66.21875 33.296875 66.21875 
Q 25.25 66.21875 20.875 63.09375 
Q 16.5 59.96875 16.5 54.203125 
Q 16.5 49.359375 19.40625 46.890625 
Q 22.3125 44.4375 30.421875 42.921875 
L 36.375 41.703125 
Q 47.40625 39.59375 52.65625 34.296875 
Q 57.90625 29 57.90625 20.125 
Q 57.90625 9.515625 50.796875 4.046875 
Q 43.703125 -1.421875 29.984375 -1.421875 
Q 24.8125 -1.421875 18.96875 -0.25 
Q 13.140625 0.921875 6.890625 3.21875 
L 6.890625 13.375 
Q 12.890625 10.015625 18.65625 8.296875 
Q 24.421875 6.59375 29.984375 6.59375 
Q 38.421875 6.59375 43.015625 9.90625 
Q 47.609375 13.234375 47.609375 19.390625 
Q 47.609375 24.75 44.3125 27.78125 
Q 41.015625 30.8125 33.5 32.328125 
L 27.484375 33.5 
Q 16.453125 35.6875 11.515625 40.375 
Q 6.59375 45.0625 6.59375 53.421875 
Q 6.59375 63.09375 13.40625 68.65625 
Q 20.21875 74.21875 32.171875 74.21875 
Q 37.3125 74.21875 42.625 73.28125 
Q 47.953125 72.359375 53.515625 70.515625 
z
" id="DejaVuSans-83"/>
      <path d="M -0.203125 72.90625 
L 10.40625 72.90625 
L 30.609375 42.921875 
L 50.6875 72.90625 
L 61.28125 72.90625 
L 35.5 34.71875 
L 35.5 0 
L 25.59375 0 
L 25.59375 34.71875 
z
" id="DejaVuSans-89"/>
     </defs>
     <g transform="translate(325.349688 58.070438)scale(0.1 -0.1)">
      <use xlink:href="#DejaVuSans-83"/>
      <use x="63.476562" xlink:href="#DejaVuSans-84"/>
      <use x="113.560547" xlink:href="#DejaVuSans-58"/>
      <use x="147.251953" xlink:href="#DejaVuSans-48"/>
      <use x="210.875" xlink:href="#DejaVuSans-46"/>
      <use x="242.662109" xlink:href="#DejaVuSans-48"/>
      <use x="306.285156" xlink:href="#DejaVuSans-53"/>
      <use x="369.908203" xlink:href="#DejaVuSans-32"/>
      <use x="401.695312" xlink:href="#DejaVuSans-66"/>
      <use x="470.298828" xlink:href="#DejaVuSans-84"/>
      <use x="531.382812" xlink:href="#DejaVuSans-89"/>
      <use x="579.216797" xlink:href="#DejaVuSans-58"/>
      <use x="612.908203" xlink:href="#DejaVuSans-48"/>
      <use x="676.53125" xlink:href="#DejaVuSans-46"/>
      <use x="708.318359" xlink:href="#DejaVuSans-53"/>
      <use x="771.941406" xlink:href="#DejaVuSans-32"/>
     </g>
    </g>
    <g id="line2d_20">
     <path d="M 297.349688 69.248563 
L 317.349688 69.248563 
" style="fill:none;stroke:#2ca02c;stroke-linecap:square;stroke-width:1.5;"/>
    </g>
    <g id="line2d_21"/>
    <g id="text_17">
     <!-- ST:0.1 BTY:0.5  -->
     <defs>
      <path d="M 12.40625 8.296875 
L 28.515625 8.296875 
L 28.515625 63.921875 
L 10.984375 60.40625 
L 10.984375 69.390625 
L 28.421875 72.90625 
L 38.28125 72.90625 
L 38.28125 8.296875 
L 54.390625 8.296875 
L 54.390625 0 
L 12.40625 0 
z
" id="DejaVuSans-49"/>
     </defs>
     <g transform="translate(325.349688 72.748563)scale(0.1 -0.1)">
      <use xlink:href="#DejaVuSans-83"/>
      <use x="63.476562" xlink:href="#DejaVuSans-84"/>
      <use x="113.560547" xlink:href="#DejaVuSans-58"/>
      <use x="147.251953" xlink:href="#DejaVuSans-48"/>
      <use x="210.875" xlink:href="#DejaVuSans-46"/>
      <use x="242.662109" xlink:href="#DejaVuSans-49"/>
      <use x="306.285156" xlink:href="#DejaVuSans-32"/>
      <use x="338.072266" xlink:href="#DejaVuSans-66"/>
      <use x="406.675781" xlink:href="#DejaVuSans-84"/>
      <use x="467.759766" xlink:href="#DejaVuSans-89"/>
      <use x="515.59375" xlink:href="#DejaVuSans-58"/>
      <use x="549.285156" xlink:href="#DejaVuSans-48"/>
      <use x="612.908203" xlink:href="#DejaVuSans-46"/>
      <use x="644.695312" xlink:href="#DejaVuSans-53"/>
      <use x="708.318359" xlink:href="#DejaVuSans-32"/>
     </g>
    </g>
    <g id="line2d_22">
     <path d="M 297.349688 83.926688 
L 317.349688 83.926688 
" style="fill:none;stroke:#d62728;stroke-linecap:square;stroke-width:1.5;"/>
    </g>
    <g id="line2d_23"/>
    <g id="text_18">
     <!-- ST:0.15 BTY:0.5  -->
     <g transform="translate(325.349688 87.426688)scale(0.1 -0.1)">
      <use xlink:href="#DejaVuSans-83"/>
      <use x="63.476562" xlink:href="#DejaVuSans-84"/>
      <use x="113.560547" xlink:href="#DejaVuSans-58"/>
      <use x="147.251953" xlink:href="#DejaVuSans-48"/>
      <use x="210.875" xlink:href="#DejaVuSans-46"/>
      <use x="242.662109" xlink:href="#DejaVuSans-49"/>
      <use x="306.285156" xlink:href="#DejaVuSans-53"/>
      <use x="369.908203" xlink:href="#DejaVuSans-32"/>
      <use x="401.695312" xlink:href="#DejaVuSans-66"/>
      <use x="470.298828" xlink:href="#DejaVuSans-84"/>
      <use x="531.382812" xlink:href="#DejaVuSans-89"/>
      <use x="579.216797" xlink:href="#DejaVuSans-58"/>
      <use x="612.908203" xlink:href="#DejaVuSans-48"/>
      <use x="676.53125" xlink:href="#DejaVuSans-46"/>
      <use x="708.318359" xlink:href="#DejaVuSans-53"/>
      <use x="771.941406" xlink:href="#DejaVuSans-32"/>
     </g>
    </g>
    <g id="line2d_24">
     <path d="M 297.349688 98.604813 
L 317.349688 98.604813 
" style="fill:none;stroke:#9467bd;stroke-linecap:square;stroke-width:1.5;"/>
    </g>
    <g id="line2d_25"/>
    <g id="text_19">
     <!-- ST:0.2 BTY:0.5  -->
     <g transform="translate(325.349688 102.104813)scale(0.1 -0.1)">
      <use xlink:href="#DejaVuSans-83"/>
      <use x="63.476562" xlink:href="#DejaVuSans-84"/>
      <use x="113.560547" xlink:href="#DejaVuSans-58"/>
      <use x="147.251953" xlink:href="#DejaVuSans-48"/>
      <use x="210.875" xlink:href="#DejaVuSans-46"/>
      <use x="242.662109" xlink:href="#DejaVuSans-50"/>
      <use x="306.285156" xlink:href="#DejaVuSans-32"/>
      <use x="338.072266" xlink:href="#DejaVuSans-66"/>
      <use x="406.675781" xlink:href="#DejaVuSans-84"/>
      <use x="467.759766" xlink:href="#DejaVuSans-89"/>
      <use x="515.59375" xlink:href="#DejaVuSans-58"/>
      <use x="549.285156" xlink:href="#DejaVuSans-48"/>
      <use x="612.908203" xlink:href="#DejaVuSans-46"/>
      <use x="644.695312" xlink:href="#DejaVuSans-53"/>
      <use x="708.318359" xlink:href="#DejaVuSans-32"/>
     </g>
    </g>
    <g id="line2d_26">
     <path d="M 297.349688 113.282938 
L 317.349688 113.282938 
" style="fill:none;stroke:#8c564b;stroke-linecap:square;stroke-width:1.5;"/>
    </g>
    <g id="line2d_27"/>
    <g id="text_20">
     <!-- ST:0.25 BTY:0.5  -->
     <g transform="translate(325.349688 116.782938)scale(0.1 -0.1)">
      <use xlink:href="#DejaVuSans-83"/>
      <use x="63.476562" xlink:href="#DejaVuSans-84"/>
      <use x="113.560547" xlink:href="#DejaVuSans-58"/>
      <use x="147.251953" xlink:href="#DejaVuSans-48"/>
      <use x="210.875" xlink:href="#DejaVuSans-46"/>
      <use x="242.662109" xlink:href="#DejaVuSans-50"/>
      <use x="306.285156" xlink:href="#DejaVuSans-53"/>
      <use x="369.908203" xlink:href="#DejaVuSans-32"/>
      <use x="401.695312" xlink:href="#DejaVuSans-66"/>
      <use x="470.298828" xlink:href="#DejaVuSans-84"/>
      <use x="531.382812" xlink:href="#DejaVuSans-89"/>
      <use x="579.216797" xlink:href="#DejaVuSans-58"/>
      <use x="612.908203" xlink:href="#DejaVuSans-48"/>
      <use x="676.53125" xlink:href="#DejaVuSans-46"/>
      <use x="708.318359" xlink:href="#DejaVuSans-53"/>
      <use x="771.941406" xlink:href="#DejaVuSans-32"/>
     </g>
    </g>
   </g>
  </g>
 </g>
 <defs>
  <clipPath id="pe05d0c83c1">
   <rect height="266.112" width="357.12" x="57.6" y="41.472"/>
  </clipPath>
 </defs>
</svg>
