<?xml version="1.0" encoding="utf-8" standalone="no"?>
<!DOCTYPE svg PUBLIC "-//W3C//DTD SVG 1.1//EN"
  "http://www.w3.org/Graphics/SVG/1.1/DTD/svg11.dtd">
<!-- Created with matplotlib (https://matplotlib.org/) -->
<svg height="345.6pt" version="1.1" viewBox="0 0 460.8 345.6" width="460.8pt" xmlns="http://www.w3.org/2000/svg" xmlns:xlink="http://www.w3.org/1999/xlink">
 <defs>
  <style type="text/css">
*{stroke-linecap:butt;stroke-linejoin:round;}
  </style>
 </defs>
 <g id="figure_1">
  <g id="patch_1">
   <path d="M 0 345.6 
L 460.8 345.6 
L 460.8 0 
L 0 0 
z
" style="fill:#ffffff;"/>
  </g>
  <g id="axes_1">
   <g id="patch_2">
    <path d="M 57.6 307.584 
L 414.72 307.584 
L 414.72 41.472 
L 57.6 41.472 
z
" style="fill:#ffffff;"/>
   </g>
   <g id="matplotlib.axis_1">
    <g id="xtick_1">
     <g id="line2d_1">
      <defs>
       <path d="M 0 0 
L 0 3.5 
" id="m7510c39eb4" style="stroke:#000000;stroke-width:0.8;"/>
      </defs>
      <g>
       <use style="stroke:#000000;stroke-width:0.8;" x="73.832727" xlink:href="#m7510c39eb4" y="307.584"/>
      </g>
     </g>
     <g id="text_1">
      <!-- 400 -->
      <defs>
       <path d="M 37.796875 64.3125 
L 12.890625 25.390625 
L 37.796875 25.390625 
z
M 35.203125 72.90625 
L 47.609375 72.90625 
L 47.609375 25.390625 
L 58.015625 25.390625 
L 58.015625 17.1875 
L 47.609375 17.1875 
L 47.609375 0 
L 37.796875 0 
L 37.796875 17.1875 
L 4.890625 17.1875 
L 4.890625 26.703125 
z
" id="DejaVuSans-52"/>
       <path d="M 31.78125 66.40625 
Q 24.171875 66.40625 20.328125 58.90625 
Q 16.5 51.421875 16.5 36.375 
Q 16.5 21.390625 20.328125 13.890625 
Q 24.171875 6.390625 31.78125 6.390625 
Q 39.453125 6.390625 43.28125 13.890625 
Q 47.125 21.390625 47.125 36.375 
Q 47.125 51.421875 43.28125 58.90625 
Q 39.453125 66.40625 31.78125 66.40625 
z
M 31.78125 74.21875 
Q 44.046875 74.21875 50.515625 64.515625 
Q 56.984375 54.828125 56.984375 36.375 
Q 56.984375 17.96875 50.515625 8.265625 
Q 44.046875 -1.421875 31.78125 -1.421875 
Q 19.53125 -1.421875 13.0625 8.265625 
Q 6.59375 17.96875 6.59375 36.375 
Q 6.59375 54.828125 13.0625 64.515625 
Q 19.53125 74.21875 31.78125 74.21875 
z
" id="DejaVuSans-48"/>
      </defs>
      <g transform="translate(64.288977 322.182437)scale(0.1 -0.1)">
       <use xlink:href="#DejaVuSans-52"/>
       <use x="63.623047" xlink:href="#DejaVuSans-48"/>
       <use x="127.246094" xlink:href="#DejaVuSans-48"/>
      </g>
     </g>
    </g>
    <g id="xtick_2">
     <g id="line2d_2">
      <g>
       <use style="stroke:#000000;stroke-width:0.8;" x="127.941818" xlink:href="#m7510c39eb4" y="307.584"/>
      </g>
     </g>
     <g id="text_2">
      <!-- 450 -->
      <defs>
       <path d="M 10.796875 72.90625 
L 49.515625 72.90625 
L 49.515625 64.59375 
L 19.828125 64.59375 
L 19.828125 46.734375 
Q 21.96875 47.46875 24.109375 47.828125 
Q 26.265625 48.1875 28.421875 48.1875 
Q 40.625 48.1875 47.75 41.5 
Q 54.890625 34.8125 54.890625 23.390625 
Q 54.890625 11.625 47.5625 5.09375 
Q 40.234375 -1.421875 26.90625 -1.421875 
Q 22.3125 -1.421875 17.546875 -0.640625 
Q 12.796875 0.140625 7.71875 1.703125 
L 7.71875 11.625 
Q 12.109375 9.234375 16.796875 8.0625 
Q 21.484375 6.890625 26.703125 6.890625 
Q 35.15625 6.890625 40.078125 11.328125 
Q 45.015625 15.765625 45.015625 23.390625 
Q 45.015625 31 40.078125 35.4375 
Q 35.15625 39.890625 26.703125 39.890625 
Q 22.75 39.890625 18.8125 39.015625 
Q 14.890625 38.140625 10.796875 36.28125 
z
" id="DejaVuSans-53"/>
      </defs>
      <g transform="translate(118.398068 322.182437)scale(0.1 -0.1)">
       <use xlink:href="#DejaVuSans-52"/>
       <use x="63.623047" xlink:href="#DejaVuSans-53"/>
       <use x="127.246094" xlink:href="#DejaVuSans-48"/>
      </g>
     </g>
    </g>
    <g id="xtick_3">
     <g id="line2d_3">
      <g>
       <use style="stroke:#000000;stroke-width:0.8;" x="182.050909" xlink:href="#m7510c39eb4" y="307.584"/>
      </g>
     </g>
     <g id="text_3">
      <!-- 500 -->
      <g transform="translate(172.507159 322.182437)scale(0.1 -0.1)">
       <use xlink:href="#DejaVuSans-53"/>
       <use x="63.623047" xlink:href="#DejaVuSans-48"/>
       <use x="127.246094" xlink:href="#DejaVuSans-48"/>
      </g>
     </g>
    </g>
    <g id="xtick_4">
     <g id="line2d_4">
      <g>
       <use style="stroke:#000000;stroke-width:0.8;" x="236.16" xlink:href="#m7510c39eb4" y="307.584"/>
      </g>
     </g>
     <g id="text_4">
      <!-- 550 -->
      <g transform="translate(226.61625 322.182437)scale(0.1 -0.1)">
       <use xlink:href="#DejaVuSans-53"/>
       <use x="63.623047" xlink:href="#DejaVuSans-53"/>
       <use x="127.246094" xlink:href="#DejaVuSans-48"/>
      </g>
     </g>
    </g>
    <g id="xtick_5">
     <g id="line2d_5">
      <g>
       <use style="stroke:#000000;stroke-width:0.8;" x="290.269091" xlink:href="#m7510c39eb4" y="307.584"/>
      </g>
     </g>
     <g id="text_5">
      <!-- 600 -->
      <defs>
       <path d="M 33.015625 40.375 
Q 26.375 40.375 22.484375 35.828125 
Q 18.609375 31.296875 18.609375 23.390625 
Q 18.609375 15.53125 22.484375 10.953125 
Q 26.375 6.390625 33.015625 6.390625 
Q 39.65625 6.390625 43.53125 10.953125 
Q 47.40625 15.53125 47.40625 23.390625 
Q 47.40625 31.296875 43.53125 35.828125 
Q 39.65625 40.375 33.015625 40.375 
z
M 52.59375 71.296875 
L 52.59375 62.3125 
Q 48.875 64.0625 45.09375 64.984375 
Q 41.3125 65.921875 37.59375 65.921875 
Q 27.828125 65.921875 22.671875 59.328125 
Q 17.53125 52.734375 16.796875 39.40625 
Q 19.671875 43.65625 24.015625 45.921875 
Q 28.375 48.1875 33.59375 48.1875 
Q 44.578125 48.1875 50.953125 41.515625 
Q 57.328125 34.859375 57.328125 23.390625 
Q 57.328125 12.15625 50.6875 5.359375 
Q 44.046875 -1.421875 33.015625 -1.421875 
Q 20.359375 -1.421875 13.671875 8.265625 
Q 6.984375 17.96875 6.984375 36.375 
Q 6.984375 53.65625 15.1875 63.9375 
Q 23.390625 74.21875 37.203125 74.21875 
Q 40.921875 74.21875 44.703125 73.484375 
Q 48.484375 72.75 52.59375 71.296875 
z
" id="DejaVuSans-54"/>
      </defs>
      <g transform="translate(280.725341 322.182437)scale(0.1 -0.1)">
       <use xlink:href="#DejaVuSans-54"/>
       <use x="63.623047" xlink:href="#DejaVuSans-48"/>
       <use x="127.246094" xlink:href="#DejaVuSans-48"/>
      </g>
     </g>
    </g>
    <g id="xtick_6">
     <g id="line2d_6">
      <g>
       <use style="stroke:#000000;stroke-width:0.8;" x="344.378182" xlink:href="#m7510c39eb4" y="307.584"/>
      </g>
     </g>
     <g id="text_6">
      <!-- 650 -->
      <g transform="translate(334.834432 322.182437)scale(0.1 -0.1)">
       <use xlink:href="#DejaVuSans-54"/>
       <use x="63.623047" xlink:href="#DejaVuSans-53"/>
       <use x="127.246094" xlink:href="#DejaVuSans-48"/>
      </g>
     </g>
    </g>
    <g id="xtick_7">
     <g id="line2d_7">
      <g>
       <use style="stroke:#000000;stroke-width:0.8;" x="398.487273" xlink:href="#m7510c39eb4" y="307.584"/>
      </g>
     </g>
     <g id="text_7">
      <!-- 700 -->
      <defs>
       <path d="M 8.203125 72.90625 
L 55.078125 72.90625 
L 55.078125 68.703125 
L 28.609375 0 
L 18.3125 0 
L 43.21875 64.59375 
L 8.203125 64.59375 
z
" id="DejaVuSans-55"/>
      </defs>
      <g transform="translate(388.943523 322.182437)scale(0.1 -0.1)">
       <use xlink:href="#DejaVuSans-55"/>
       <use x="63.623047" xlink:href="#DejaVuSans-48"/>
       <use x="127.246094" xlink:href="#DejaVuSans-48"/>
      </g>
     </g>
    </g>
    <g id="text_8">
     <!-- wavelengths -->
     <defs>
      <path d="M 4.203125 54.6875 
L 13.1875 54.6875 
L 24.421875 12.015625 
L 35.59375 54.6875 
L 46.1875 54.6875 
L 57.421875 12.015625 
L 68.609375 54.6875 
L 77.59375 54.6875 
L 63.28125 0 
L 52.6875 0 
L 40.921875 44.828125 
L 29.109375 0 
L 18.5 0 
z
" id="DejaVuSans-119"/>
      <path d="M 34.28125 27.484375 
Q 23.390625 27.484375 19.1875 25 
Q 14.984375 22.515625 14.984375 16.5 
Q 14.984375 11.71875 18.140625 8.90625 
Q 21.296875 6.109375 26.703125 6.109375 
Q 34.1875 6.109375 38.703125 11.40625 
Q 43.21875 16.703125 43.21875 25.484375 
L 43.21875 27.484375 
z
M 52.203125 31.203125 
L 52.203125 0 
L 43.21875 0 
L 43.21875 8.296875 
Q 40.140625 3.328125 35.546875 0.953125 
Q 30.953125 -1.421875 24.3125 -1.421875 
Q 15.921875 -1.421875 10.953125 3.296875 
Q 6 8.015625 6 15.921875 
Q 6 25.140625 12.171875 29.828125 
Q 18.359375 34.515625 30.609375 34.515625 
L 43.21875 34.515625 
L 43.21875 35.40625 
Q 43.21875 41.609375 39.140625 45 
Q 35.0625 48.390625 27.6875 48.390625 
Q 23 48.390625 18.546875 47.265625 
Q 14.109375 46.140625 10.015625 43.890625 
L 10.015625 52.203125 
Q 14.9375 54.109375 19.578125 55.046875 
Q 24.21875 56 28.609375 56 
Q 40.484375 56 46.34375 49.84375 
Q 52.203125 43.703125 52.203125 31.203125 
z
" id="DejaVuSans-97"/>
      <path d="M 2.984375 54.6875 
L 12.5 54.6875 
L 29.59375 8.796875 
L 46.6875 54.6875 
L 56.203125 54.6875 
L 35.6875 0 
L 23.484375 0 
z
" id="DejaVuSans-118"/>
      <path d="M 56.203125 29.59375 
L 56.203125 25.203125 
L 14.890625 25.203125 
Q 15.484375 15.921875 20.484375 11.0625 
Q 25.484375 6.203125 34.421875 6.203125 
Q 39.59375 6.203125 44.453125 7.46875 
Q 49.3125 8.734375 54.109375 11.28125 
L 54.109375 2.78125 
Q 49.265625 0.734375 44.1875 -0.34375 
Q 39.109375 -1.421875 33.890625 -1.421875 
Q 20.796875 -1.421875 13.15625 6.1875 
Q 5.515625 13.8125 5.515625 26.8125 
Q 5.515625 40.234375 12.765625 48.109375 
Q 20.015625 56 32.328125 56 
Q 43.359375 56 49.78125 48.890625 
Q 56.203125 41.796875 56.203125 29.59375 
z
M 47.21875 32.234375 
Q 47.125 39.59375 43.09375 43.984375 
Q 39.0625 48.390625 32.421875 48.390625 
Q 24.90625 48.390625 20.390625 44.140625 
Q 15.875 39.890625 15.1875 32.171875 
z
" id="DejaVuSans-101"/>
      <path d="M 9.421875 75.984375 
L 18.40625 75.984375 
L 18.40625 0 
L 9.421875 0 
z
" id="DejaVuSans-108"/>
      <path d="M 54.890625 33.015625 
L 54.890625 0 
L 45.90625 0 
L 45.90625 32.71875 
Q 45.90625 40.484375 42.875 44.328125 
Q 39.84375 48.1875 33.796875 48.1875 
Q 26.515625 48.1875 22.3125 43.546875 
Q 18.109375 38.921875 18.109375 30.90625 
L 18.109375 0 
L 9.078125 0 
L 9.078125 54.6875 
L 18.109375 54.6875 
L 18.109375 46.1875 
Q 21.34375 51.125 25.703125 53.5625 
Q 30.078125 56 35.796875 56 
Q 45.21875 56 50.046875 50.171875 
Q 54.890625 44.34375 54.890625 33.015625 
z
" id="DejaVuSans-110"/>
      <path d="M 45.40625 27.984375 
Q 45.40625 37.75 41.375 43.109375 
Q 37.359375 48.484375 30.078125 48.484375 
Q 22.859375 48.484375 18.828125 43.109375 
Q 14.796875 37.75 14.796875 27.984375 
Q 14.796875 18.265625 18.828125 12.890625 
Q 22.859375 7.515625 30.078125 7.515625 
Q 37.359375 7.515625 41.375 12.890625 
Q 45.40625 18.265625 45.40625 27.984375 
z
M 54.390625 6.78125 
Q 54.390625 -7.171875 48.1875 -13.984375 
Q 42 -20.796875 29.203125 -20.796875 
Q 24.46875 -20.796875 20.265625 -20.09375 
Q 16.0625 -19.390625 12.109375 -17.921875 
L 12.109375 -9.1875 
Q 16.0625 -11.328125 19.921875 -12.34375 
Q 23.78125 -13.375 27.78125 -13.375 
Q 36.625 -13.375 41.015625 -8.765625 
Q 45.40625 -4.15625 45.40625 5.171875 
L 45.40625 9.625 
Q 42.625 4.78125 38.28125 2.390625 
Q 33.9375 0 27.875 0 
Q 17.828125 0 11.671875 7.65625 
Q 5.515625 15.328125 5.515625 27.984375 
Q 5.515625 40.671875 11.671875 48.328125 
Q 17.828125 56 27.875 56 
Q 33.9375 56 38.28125 53.609375 
Q 42.625 51.21875 45.40625 46.390625 
L 45.40625 54.6875 
L 54.390625 54.6875 
z
" id="DejaVuSans-103"/>
      <path d="M 18.3125 70.21875 
L 18.3125 54.6875 
L 36.8125 54.6875 
L 36.8125 47.703125 
L 18.3125 47.703125 
L 18.3125 18.015625 
Q 18.3125 11.328125 20.140625 9.421875 
Q 21.96875 7.515625 27.59375 7.515625 
L 36.8125 7.515625 
L 36.8125 0 
L 27.59375 0 
Q 17.1875 0 13.234375 3.875 
Q 9.28125 7.765625 9.28125 18.015625 
L 9.28125 47.703125 
L 2.6875 47.703125 
L 2.6875 54.6875 
L 9.28125 54.6875 
L 9.28125 70.21875 
z
" id="DejaVuSans-116"/>
      <path d="M 54.890625 33.015625 
L 54.890625 0 
L 45.90625 0 
L 45.90625 32.71875 
Q 45.90625 40.484375 42.875 44.328125 
Q 39.84375 48.1875 33.796875 48.1875 
Q 26.515625 48.1875 22.3125 43.546875 
Q 18.109375 38.921875 18.109375 30.90625 
L 18.109375 0 
L 9.078125 0 
L 9.078125 75.984375 
L 18.109375 75.984375 
L 18.109375 46.1875 
Q 21.34375 51.125 25.703125 53.5625 
Q 30.078125 56 35.796875 56 
Q 45.21875 56 50.046875 50.171875 
Q 54.890625 44.34375 54.890625 33.015625 
z
" id="DejaVuSans-104"/>
      <path d="M 44.28125 53.078125 
L 44.28125 44.578125 
Q 40.484375 46.53125 36.375 47.5 
Q 32.28125 48.484375 27.875 48.484375 
Q 21.1875 48.484375 17.84375 46.4375 
Q 14.5 44.390625 14.5 40.28125 
Q 14.5 37.15625 16.890625 35.375 
Q 19.28125 33.59375 26.515625 31.984375 
L 29.59375 31.296875 
Q 39.15625 29.25 43.1875 25.515625 
Q 47.21875 21.78125 47.21875 15.09375 
Q 47.21875 7.46875 41.1875 3.015625 
Q 35.15625 -1.421875 24.609375 -1.421875 
Q 20.21875 -1.421875 15.453125 -0.5625 
Q 10.6875 0.296875 5.421875 2 
L 5.421875 11.28125 
Q 10.40625 8.6875 15.234375 7.390625 
Q 20.0625 6.109375 24.8125 6.109375 
Q 31.15625 6.109375 34.5625 8.28125 
Q 37.984375 10.453125 37.984375 14.40625 
Q 37.984375 18.0625 35.515625 20.015625 
Q 33.0625 21.96875 24.703125 23.78125 
L 21.578125 24.515625 
Q 13.234375 26.265625 9.515625 29.90625 
Q 5.8125 33.546875 5.8125 39.890625 
Q 5.8125 47.609375 11.28125 51.796875 
Q 16.75 56 26.8125 56 
Q 31.78125 56 36.171875 55.265625 
Q 40.578125 54.546875 44.28125 53.078125 
z
" id="DejaVuSans-115"/>
     </defs>
     <g transform="translate(204.42875 335.860562)scale(0.1 -0.1)">
      <use xlink:href="#DejaVuSans-119"/>
      <use x="81.787109" xlink:href="#DejaVuSans-97"/>
      <use x="143.066406" xlink:href="#DejaVuSans-118"/>
      <use x="202.246094" xlink:href="#DejaVuSans-101"/>
      <use x="263.769531" xlink:href="#DejaVuSans-108"/>
      <use x="291.552734" xlink:href="#DejaVuSans-101"/>
      <use x="353.076172" xlink:href="#DejaVuSans-110"/>
      <use x="416.455078" xlink:href="#DejaVuSans-103"/>
      <use x="479.931641" xlink:href="#DejaVuSans-116"/>
      <use x="519.140625" xlink:href="#DejaVuSans-104"/>
      <use x="582.519531" xlink:href="#DejaVuSans-115"/>
     </g>
    </g>
   </g>
   <g id="matplotlib.axis_2">
    <g id="ytick_1">
     <g id="line2d_8">
      <defs>
       <path d="M 0 0 
L -3.5 0 
" id="m91511d0e2c" style="stroke:#000000;stroke-width:0.8;"/>
      </defs>
      <g>
       <use style="stroke:#000000;stroke-width:0.8;" x="57.6" xlink:href="#m91511d0e2c" y="276.113661"/>
      </g>
     </g>
     <g id="text_9">
      <!-- 0.40 -->
      <defs>
       <path d="M 10.6875 12.40625 
L 21 12.40625 
L 21 0 
L 10.6875 0 
z
" id="DejaVuSans-46"/>
      </defs>
      <g transform="translate(28.334375 279.91288)scale(0.1 -0.1)">
       <use xlink:href="#DejaVuSans-48"/>
       <use x="63.623047" xlink:href="#DejaVuSans-46"/>
       <use x="95.410156" xlink:href="#DejaVuSans-52"/>
       <use x="159.033203" xlink:href="#DejaVuSans-48"/>
      </g>
     </g>
    </g>
    <g id="ytick_2">
     <g id="line2d_9">
      <g>
       <use style="stroke:#000000;stroke-width:0.8;" x="57.6" xlink:href="#m91511d0e2c" y="225.853135"/>
      </g>
     </g>
     <g id="text_10">
      <!-- 0.45 -->
      <g transform="translate(28.334375 229.652353)scale(0.1 -0.1)">
       <use xlink:href="#DejaVuSans-48"/>
       <use x="63.623047" xlink:href="#DejaVuSans-46"/>
       <use x="95.410156" xlink:href="#DejaVuSans-52"/>
       <use x="159.033203" xlink:href="#DejaVuSans-53"/>
      </g>
     </g>
    </g>
    <g id="ytick_3">
     <g id="line2d_10">
      <g>
       <use style="stroke:#000000;stroke-width:0.8;" x="57.6" xlink:href="#m91511d0e2c" y="175.592608"/>
      </g>
     </g>
     <g id="text_11">
      <!-- 0.50 -->
      <g transform="translate(28.334375 179.391827)scale(0.1 -0.1)">
       <use xlink:href="#DejaVuSans-48"/>
       <use x="63.623047" xlink:href="#DejaVuSans-46"/>
       <use x="95.410156" xlink:href="#DejaVuSans-53"/>
       <use x="159.033203" xlink:href="#DejaVuSans-48"/>
      </g>
     </g>
    </g>
    <g id="ytick_4">
     <g id="line2d_11">
      <g>
       <use style="stroke:#000000;stroke-width:0.8;" x="57.6" xlink:href="#m91511d0e2c" y="125.332081"/>
      </g>
     </g>
     <g id="text_12">
      <!-- 0.55 -->
      <g transform="translate(28.334375 129.1313)scale(0.1 -0.1)">
       <use xlink:href="#DejaVuSans-48"/>
       <use x="63.623047" xlink:href="#DejaVuSans-46"/>
       <use x="95.410156" xlink:href="#DejaVuSans-53"/>
       <use x="159.033203" xlink:href="#DejaVuSans-53"/>
      </g>
     </g>
    </g>
    <g id="ytick_5">
     <g id="line2d_12">
      <g>
       <use style="stroke:#000000;stroke-width:0.8;" x="57.6" xlink:href="#m91511d0e2c" y="75.071554"/>
      </g>
     </g>
     <g id="text_13">
      <!-- 0.60 -->
      <g transform="translate(28.334375 78.870773)scale(0.1 -0.1)">
       <use xlink:href="#DejaVuSans-48"/>
       <use x="63.623047" xlink:href="#DejaVuSans-46"/>
       <use x="95.410156" xlink:href="#DejaVuSans-54"/>
       <use x="159.033203" xlink:href="#DejaVuSans-48"/>
      </g>
     </g>
    </g>
    <g id="text_14">
     <!-- transmission -->
     <defs>
      <path d="M 41.109375 46.296875 
Q 39.59375 47.171875 37.8125 47.578125 
Q 36.03125 48 33.890625 48 
Q 26.265625 48 22.1875 43.046875 
Q 18.109375 38.09375 18.109375 28.8125 
L 18.109375 0 
L 9.078125 0 
L 9.078125 54.6875 
L 18.109375 54.6875 
L 18.109375 46.1875 
Q 20.953125 51.171875 25.484375 53.578125 
Q 30.03125 56 36.53125 56 
Q 37.453125 56 38.578125 55.875 
Q 39.703125 55.765625 41.0625 55.515625 
z
" id="DejaVuSans-114"/>
      <path d="M 52 44.1875 
Q 55.375 50.25 60.0625 53.125 
Q 64.75 56 71.09375 56 
Q 79.640625 56 84.28125 50.015625 
Q 88.921875 44.046875 88.921875 33.015625 
L 88.921875 0 
L 79.890625 0 
L 79.890625 32.71875 
Q 79.890625 40.578125 77.09375 44.375 
Q 74.3125 48.1875 68.609375 48.1875 
Q 61.625 48.1875 57.5625 43.546875 
Q 53.515625 38.921875 53.515625 30.90625 
L 53.515625 0 
L 44.484375 0 
L 44.484375 32.71875 
Q 44.484375 40.625 41.703125 44.40625 
Q 38.921875 48.1875 33.109375 48.1875 
Q 26.21875 48.1875 22.15625 43.53125 
Q 18.109375 38.875 18.109375 30.90625 
L 18.109375 0 
L 9.078125 0 
L 9.078125 54.6875 
L 18.109375 54.6875 
L 18.109375 46.1875 
Q 21.1875 51.21875 25.484375 53.609375 
Q 29.78125 56 35.6875 56 
Q 41.65625 56 45.828125 52.96875 
Q 50 49.953125 52 44.1875 
z
" id="DejaVuSans-109"/>
      <path d="M 9.421875 54.6875 
L 18.40625 54.6875 
L 18.40625 0 
L 9.421875 0 
z
M 9.421875 75.984375 
L 18.40625 75.984375 
L 18.40625 64.59375 
L 9.421875 64.59375 
z
" id="DejaVuSans-105"/>
      <path d="M 30.609375 48.390625 
Q 23.390625 48.390625 19.1875 42.75 
Q 14.984375 37.109375 14.984375 27.296875 
Q 14.984375 17.484375 19.15625 11.84375 
Q 23.34375 6.203125 30.609375 6.203125 
Q 37.796875 6.203125 41.984375 11.859375 
Q 46.1875 17.53125 46.1875 27.296875 
Q 46.1875 37.015625 41.984375 42.703125 
Q 37.796875 48.390625 30.609375 48.390625 
z
M 30.609375 56 
Q 42.328125 56 49.015625 48.375 
Q 55.71875 40.765625 55.71875 27.296875 
Q 55.71875 13.875 49.015625 6.21875 
Q 42.328125 -1.421875 30.609375 -1.421875 
Q 18.84375 -1.421875 12.171875 6.21875 
Q 5.515625 13.875 5.515625 27.296875 
Q 5.515625 40.765625 12.171875 48.375 
Q 18.84375 56 30.609375 56 
z
" id="DejaVuSans-111"/>
     </defs>
     <g transform="translate(22.254687 206.467062)rotate(-90)scale(0.1 -0.1)">
      <use xlink:href="#DejaVuSans-116"/>
      <use x="39.208984" xlink:href="#DejaVuSans-114"/>
      <use x="80.322266" xlink:href="#DejaVuSans-97"/>
      <use x="141.601562" xlink:href="#DejaVuSans-110"/>
      <use x="204.980469" xlink:href="#DejaVuSans-115"/>
      <use x="257.080078" xlink:href="#DejaVuSans-109"/>
      <use x="354.492188" xlink:href="#DejaVuSans-105"/>
      <use x="382.275391" xlink:href="#DejaVuSans-115"/>
      <use x="434.375" xlink:href="#DejaVuSans-115"/>
      <use x="486.474609" xlink:href="#DejaVuSans-105"/>
      <use x="514.257812" xlink:href="#DejaVuSans-111"/>
      <use x="575.439453" xlink:href="#DejaVuSans-110"/>
     </g>
    </g>
   </g>
   <g id="line2d_13">
    <path clip-path="url(#p3473cd6258)" d="M 398.487273 295.488 
L 392.791579 293.124345 
L 387.180896 290.772153 
L 381.653333 288.604342 
L 376.207059 286.737259 
L 370.840292 285.205054 
L 365.551304 283.980656 
L 360.338417 283.009798 
L 355.2 282.235192 
L 350.134468 281.607152 
L 345.140282 281.085009 
L 340.215944 280.633095 
L 335.36 280.212162 
L 330.571034 279.764448 
L 325.847671 279.190353 
L 321.188571 278.323652 
L 316.592432 276.942021 
L 312.057987 274.880407 
L 307.584 272.221833 
L 303.169272 269.317347 
L 298.812632 266.524355 
L 294.512941 263.992676 
L 290.269091 261.695089 
L 286.08 259.544066 
L 281.944615 257.462771 
L 277.861911 255.408255 
L 273.830886 253.378165 
L 269.850566 251.423923 
L 265.92 249.690717 
L 262.038261 248.492459 
L 258.204444 248.011522 
L 254.417669 245.329968 
L 250.677073 238.774633 
L 246.981818 233.565483 
L 243.331084 229.614301 
L 239.724072 226.082286 
L 236.16 222.667157 
L 232.638107 219.274182 
L 229.157647 215.877103 
L 225.717895 212.474642 
L 222.31814 209.075996 
L 218.957688 205.695493 
L 215.635862 202.350446 
L 212.352 199.060239 
L 209.105455 195.845919 
L 205.895593 192.730021 
L 202.721798 189.736501 
L 199.583464 186.890707 
L 196.48 184.219374 
L 193.410829 181.750613 
L 190.375385 179.51388 
L 187.373115 177.539911 
L 184.403478 175.860606 
L 181.465946 174.508834 
L 178.56 173.518128 
L 175.685134 172.922241 
L 172.840851 172.754514 
L 170.026667 173.047005 
L 167.242105 173.829323 
L 164.486702 175.127109 
L 161.76 176.960109 
L 159.061554 179.339802 
L 156.390928 182.266608 
L 153.747692 185.726753 
L 151.131429 189.689003 
L 148.541726 194.101646 
L 145.978182 198.890248 
L 143.440402 203.956943 
L 140.928 209.182045 
L 138.440597 214.428729 
L 135.977822 219.551176 
L 133.53931 224.405905 
L 131.124706 228.865179 
L 128.733659 232.830494 
L 126.365825 236.243671 
L 124.02087 239.093226 
L 121.698462 241.414531 
L 119.398278 243.283708 
L 117.12 244.806525 
L 114.863318 246.104582 
L 112.627925 247.301253 
L 110.413521 248.509465 
L 108.219813 249.822592 
L 106.046512 251.30885 
L 103.893333 253.008973 
L 101.76 254.936484 
L 99.646239 257.079838 
L 97.551781 259.405692 
L 95.476364 261.862774 
L 93.419729 264.385954 
L 91.381622 266.900268 
L 89.361794 269.324775 
L 87.36 271.576152 
L 85.376 273.572001 
L 83.409558 275.233831 
L 81.460441 276.489707 
L 79.528421 277.276541 
L 77.613275 277.542037 
L 75.714783 277.246277 
L 73.832727 276.362949 
" style="fill:none;stroke:#ff7f0e;stroke-linecap:square;stroke-width:1.5;"/>
   </g>
   <g id="line2d_14">
    <path clip-path="url(#p3473cd6258)" d="M 398.487273 273.50737 
L 392.791579 275.389884 
L 387.180896 277.122109 
L 381.653333 277.733642 
L 376.207059 275.82765 
L 370.840292 270.598076 
L 365.551304 263.168586 
L 360.338417 255.898657 
L 355.2 250.32517 
L 350.134468 246.651789 
L 345.140282 244.485051 
L 340.215944 243.4175 
L 335.36 243.231196 
L 330.571034 243.965426 
L 325.847671 246.051012 
L 321.188571 250.711504 
L 316.592432 260.462228 
L 312.057987 270.872832 
L 307.584 254.076014 
L 303.169272 236.643423 
L 298.812632 229.754851 
L 294.512941 226.546094 
L 290.269091 224.429062 
L 286.08 222.617553 
L 281.944615 220.843986 
L 277.861911 219.005708 
L 273.830886 217.059937 
L 269.850566 214.988414 
L 265.92 212.784122 
L 262.038261 210.445841 
L 258.204444 207.975745 
L 254.417669 205.378278 
L 250.677073 202.659623 
L 246.981818 199.827445 
L 243.331084 196.890774 
L 239.724072 193.859958 
L 236.16 190.746642 
L 232.638107 187.563755 
L 229.157647 184.325508 
L 225.717895 181.047383 
L 222.31814 177.746125 
L 218.957688 174.43975 
L 215.635862 171.147539 
L 212.352 167.890045 
L 209.105455 164.689099 
L 205.895593 161.56781 
L 202.721798 158.550568 
L 199.583464 155.663042 
L 196.48 152.932177 
L 193.410829 150.386171 
L 190.375385 148.054445 
L 187.373115 145.967573 
L 184.403478 144.157171 
L 181.465946 142.655704 
L 178.56 141.496213 
L 175.685134 140.711905 
L 172.840851 140.335574 
L 170.026667 140.398816 
L 167.242105 140.930963 
L 164.486702 141.957688 
L 161.76 143.499225 
L 159.061554 145.568167 
L 156.390928 148.166844 
L 153.747692 151.284361 
L 151.131429 154.893479 
L 148.541726 158.947668 
L 145.978182 163.378845 
L 143.440402 168.096465 
L 140.928 172.98876 
L 138.440597 177.926831 
L 135.977822 182.772025 
L 133.53931 187.386427 
L 131.124706 191.645486 
L 128.733659 195.45096 
L 126.365825 198.741851 
L 124.02087 201.501053 
L 121.698462 203.756226 
L 119.398278 205.574637 
L 117.12 207.053091 
L 114.863318 208.305027 
L 112.627925 209.44713 
L 110.413521 210.587505 
L 108.219813 211.816699 
L 106.046512 213.202039 
L 103.893333 214.785098 
L 101.76 216.58171 
L 99.646239 218.583811 
L 97.551781 220.762436 
L 95.476364 223.07133 
L 93.419729 225.450772 
L 91.381622 227.831373 
L 89.361794 230.137682 
L 87.36 232.291524 
L 85.376 234.215037 
L 83.409558 235.833414 
L 81.460441 237.077354 
L 79.528421 237.885241 
L 77.613275 238.205049 
L 75.714783 237.995936 
L 73.832727 237.229501 
" style="fill:none;stroke:#2ca02c;stroke-linecap:square;stroke-width:1.5;"/>
   </g>
   <g id="line2d_15">
    <path clip-path="url(#p3473cd6258)" d="M 398.487273 218.783661 
L 392.791579 219.149994 
L 387.180896 222.176734 
L 381.653333 229.498643 
L 376.207059 246.000885 
L 370.840292 279.313294 
L 365.551304 280.580869 
L 360.338417 230.135175 
L 355.2 208.646968 
L 350.134468 201.49823 
L 345.140282 198.680185 
L 340.215944 197.327069 
L 335.36 196.527528 
L 330.571034 195.942164 
L 325.847671 195.425693 
L 321.188571 194.907431 
L 316.592432 194.348226 
L 312.057987 193.723301 
L 307.584 193.014907 
L 303.169272 192.209029 
L 298.812632 191.293883 
L 294.512941 190.259226 
L 290.269091 189.096084 
L 286.08 187.796675 
L 281.944615 186.354465 
L 277.861911 184.764291 
L 273.830886 183.022513 
L 269.850566 181.127177 
L 265.92 179.078153 
L 262.038261 176.877234 
L 258.204444 174.5282 
L 254.417669 172.036826 
L 250.677073 169.410851 
L 246.981818 166.6599 
L 243.331084 163.795367 
L 239.724072 160.830274 
L 236.16 157.779096 
L 232.638107 154.657586 
L 229.157647 151.482599 
L 225.717895 148.27193 
L 222.31814 145.044185 
L 218.957688 141.818687 
L 215.635862 138.615413 
L 212.352 135.454982 
L 209.105455 132.358659 
L 205.895593 129.348405 
L 202.721798 126.446933 
L 199.583464 123.677787 
L 196.48 121.065412 
L 193.410829 118.635228 
L 190.375385 116.413675 
L 187.373115 114.428219 
L 184.403478 112.707309 
L 181.465946 111.280256 
L 178.56 110.177005 
L 175.685134 109.427783 
L 172.840851 109.06257 
L 170.026667 109.110361 
L 167.242105 109.598153 
L 164.486702 110.549619 
L 161.76 111.983409 
L 159.061554 113.91105 
L 156.390928 116.33445 
L 153.747692 119.243094 
L 151.131429 122.61109 
L 148.541726 126.394396 
L 145.978182 130.52871 
L 143.440402 134.928668 
L 140.928 139.489084 
L 138.440597 144.088906 
L 135.977822 148.598288 
L 133.53931 152.888572 
L 131.124706 156.844243 
L 128.733659 160.375098 
L 126.365825 163.426422 
L 124.02087 165.985045 
L 121.698462 168.079886 
L 119.398278 169.77684 
L 117.12 171.169093 
L 114.863318 172.364858 
L 112.627925 173.474749 
L 110.413521 174.60067 
L 108.219813 175.827407 
L 106.046512 177.217317 
L 103.893333 178.807916 
L 101.76 180.611843 
L 99.646239 182.618514 
L 97.551781 184.796877 
L 95.476364 187.098787 
L 93.419729 189.462656 
L 91.381622 191.817186 
L 89.361794 194.085051 
L 87.36 196.186462 
L 85.376 198.042564 
L 83.409558 199.578595 
L 81.460441 200.726772 
L 79.528421 201.428788 
L 77.613275 201.637843 
L 75.714783 201.320133 
L 73.832727 200.455729 
" style="fill:none;stroke:#d62728;stroke-linecap:square;stroke-width:1.5;"/>
   </g>
   <g id="line2d_16">
    <path clip-path="url(#p3473cd6258)" d="M 398.487273 168.462321 
L 392.791579 166.290313 
L 387.180896 165.165263 
L 381.653333 164.521796 
L 376.207059 164.126681 
L 370.840292 163.87228 
L 365.551304 163.702974 
L 360.338417 163.585873 
L 355.2 163.498243 
L 350.134468 163.42186 
L 345.140282 163.3404 
L 340.215944 163.238232 
L 335.36 163.099871 
L 330.571034 162.909787 
L 325.847671 162.652444 
L 321.188571 162.312489 
L 316.592432 161.87507 
L 312.057987 161.326218 
L 307.584 160.65325 
L 303.169272 159.845167 
L 298.812632 158.893001 
L 294.512941 157.790096 
L 290.269091 156.532306 
L 286.08 155.11808 
L 281.944615 153.548448 
L 277.861911 151.826878 
L 273.830886 149.959031 
L 269.850566 147.952422 
L 265.92 145.816024 
L 262.038261 143.559845 
L 258.204444 141.194513 
L 254.417669 138.730913 
L 250.677073 136.179887 
L 246.981818 133.552019 
L 243.331084 130.857514 
L 239.724072 128.10617 
L 236.16 125.307428 
L 232.638107 122.470506 
L 229.157647 119.604586 
L 225.717895 116.719066 
L 222.31814 113.823825 
L 218.957688 110.929532 
L 215.635862 108.047937 
L 212.352 105.192172 
L 209.105455 102.377017 
L 205.895593 99.619132 
L 202.721798 96.937244 
L 199.583464 94.352261 
L 196.48 91.887321 
L 193.410829 89.567752 
L 190.375385 87.420943 
L 187.373115 85.476134 
L 184.403478 83.76411 
L 181.465946 82.316821 
L 178.56 81.166915 
L 175.685134 80.347187 
L 172.840851 79.88991 
L 170.026667 79.826037 
L 167.242105 80.184206 
L 164.486702 80.989507 
L 161.76 82.26194 
L 159.061554 84.014535 
L 156.390928 86.2511 
L 153.747692 88.96365 
L 151.131429 92.12966 
L 148.541726 95.709399 
L 145.978182 99.643782 
L 143.440402 103.853327 
L 140.928 108.238908 
L 138.440597 112.684981 
L 135.977822 117.065729 
L 133.53931 121.254085 
L 131.124706 125.1329 
L 128.733659 128.606772 
L 126.365825 131.612496 
L 124.02087 134.126049 
L 121.698462 136.164564 
L 119.398278 137.782776 
L 117.12 139.064707 
L 114.863318 140.1123 
L 112.627925 141.033156 
L 110.413521 141.929378 
L 108.219813 142.888858 
L 106.046512 143.979613 
L 103.893333 145.247073 
L 101.76 146.713815 
L 99.646239 148.381062 
L 97.551781 150.231265 
L 95.476364 152.231217 
L 93.419729 154.335311 
L 91.381622 156.488653 
L 89.361794 158.629911 
L 87.36 160.693787 
L 85.376 162.613124 
L 83.409558 164.320633 
L 81.460441 165.75029 
L 79.528421 166.838488 
L 77.613275 167.525067 
L 75.714783 167.754432 
L 73.832727 167.477008 
" style="fill:none;stroke:#9467bd;stroke-linecap:square;stroke-width:1.5;"/>
   </g>
   <g id="line2d_17">
    <path clip-path="url(#p3473cd6258)" d="M 398.487273 134.571375 
L 392.791579 134.506138 
L 387.180896 134.480954 
L 381.653333 134.483068 
L 376.207059 134.499096 
L 370.840292 134.515007 
L 365.551304 134.516321 
L 360.338417 134.488407 
L 355.2 134.416859 
L 350.134468 134.287942 
L 345.140282 134.08906 
L 340.215944 133.809224 
L 335.36 133.439456 
L 330.571034 132.973069 
L 325.847671 132.405804 
L 321.188571 131.735795 
L 316.592432 130.963368 
L 312.057987 130.090706 
L 307.584 129.121404 
L 303.169272 128.059961 
L 298.812632 126.911251 
L 294.512941 125.680003 
L 290.269091 124.370337 
L 286.08 122.985367 
L 281.944615 121.526896 
L 277.861911 119.995217 
L 273.830886 118.389014 
L 269.850566 116.705386 
L 265.92 114.939988 
L 262.038261 113.087297 
L 258.204444 111.141017 
L 254.417669 109.094622 
L 250.677073 106.94203 
L 246.981818 104.678387 
L 243.331084 102.300915 
L 239.724072 99.809758 
L 236.16 97.208723 
L 232.638107 94.505836 
L 229.157647 91.713605 
L 225.717895 88.848953 
L 222.31814 85.932799 
L 218.957688 82.989341 
L 215.635862 80.04515 
L 212.352 77.128179 
L 209.105455 74.266842 
L 205.895593 71.489252 
L 202.721798 68.822681 
L 199.583464 66.293274 
L 196.48 63.925983 
L 193.410829 61.744676 
L 190.375385 59.77236 
L 187.373115 58.031454 
L 184.403478 56.54405 
L 181.465946 55.332118 
L 178.56 54.417599 
L 175.685134 53.822367 
L 172.840851 53.568 
L 170.026667 53.675336 
L 167.242105 54.163751 
L 164.486702 55.050131 
L 161.76 56.347483 
L 159.061554 58.063167 
L 156.390928 60.196764 
L 153.747692 62.737668 
L 151.131429 65.662548 
L 148.541726 68.932999 
L 145.978182 72.493797 
L 143.440402 76.272329 
L 140.928 80.17982 
L 138.440597 84.114911 
L 135.977822 87.969877 
L 133.53931 91.639248 
L 131.124706 95.029966 
L 128.733659 98.071535 
L 126.365825 100.724278 
L 124.02087 102.983937 
L 121.698462 104.881553 
L 119.398278 106.478555 
L 117.12 107.85807 
L 114.863318 109.114109 
L 112.627925 110.340462 
L 110.413521 111.620802 
L 108.219813 113.020942 
L 106.046512 114.583612 
L 103.893333 116.325737 
L 101.76 118.238015 
L 99.646239 120.286646 
L 97.551781 122.417084 
L 95.476364 124.559691 
L 93.419729 126.636841 
L 91.381622 128.57067 
L 89.361794 130.29019 
L 87.36 131.736536 
L 85.376 132.865551 
L 83.409558 133.647801 
L 81.460441 134.066905 
L 79.528421 134.117425 
L 77.613275 133.803464 
L 75.714783 133.138701 
L 73.832727 132.148171 
" style="fill:none;stroke:#8c564b;stroke-linecap:square;stroke-width:1.5;"/>
   </g>
   <g id="patch_3">
    <path d="M 57.6 307.584 
L 57.6 41.472 
" style="fill:none;stroke:#000000;stroke-linecap:square;stroke-linejoin:miter;stroke-width:0.8;"/>
   </g>
   <g id="patch_4">
    <path d="M 414.72 307.584 
L 414.72 41.472 
" style="fill:none;stroke:#000000;stroke-linecap:square;stroke-linejoin:miter;stroke-width:0.8;"/>
   </g>
   <g id="patch_5">
    <path d="M 57.6 307.584 
L 414.72 307.584 
" style="fill:none;stroke:#000000;stroke-linecap:square;stroke-linejoin:miter;stroke-width:0.8;"/>
   </g>
   <g id="patch_6">
    <path d="M 57.6 41.472 
L 414.72 41.472 
" style="fill:none;stroke:#000000;stroke-linecap:square;stroke-linejoin:miter;stroke-width:0.8;"/>
   </g>
   <g id="text_15">
    <!-- transmissionToWavelengths -->
    <defs>
     <path d="M -0.296875 72.90625 
L 61.375 72.90625 
L 61.375 64.59375 
L 35.5 64.59375 
L 35.5 0 
L 25.59375 0 
L 25.59375 64.59375 
L -0.296875 64.59375 
z
" id="DejaVuSans-84"/>
     <path d="M 3.328125 72.90625 
L 13.28125 72.90625 
L 28.609375 11.28125 
L 43.890625 72.90625 
L 54.984375 72.90625 
L 70.3125 11.28125 
L 85.59375 72.90625 
L 95.609375 72.90625 
L 77.296875 0 
L 64.890625 0 
L 49.515625 63.28125 
L 33.984375 0 
L 21.578125 0 
z
" id="DejaVuSans-87"/>
    </defs>
    <g transform="translate(152.796562 35.472)scale(0.12 -0.12)">
     <use xlink:href="#DejaVuSans-116"/>
     <use x="39.208984" xlink:href="#DejaVuSans-114"/>
     <use x="80.322266" xlink:href="#DejaVuSans-97"/>
     <use x="141.601562" xlink:href="#DejaVuSans-110"/>
     <use x="204.980469" xlink:href="#DejaVuSans-115"/>
     <use x="257.080078" xlink:href="#DejaVuSans-109"/>
     <use x="354.492188" xlink:href="#DejaVuSans-105"/>
     <use x="382.275391" xlink:href="#DejaVuSans-115"/>
     <use x="434.375" xlink:href="#DejaVuSans-115"/>
     <use x="486.474609" xlink:href="#DejaVuSans-105"/>
     <use x="514.257812" xlink:href="#DejaVuSans-111"/>
     <use x="575.439453" xlink:href="#DejaVuSans-110"/>
     <use x="638.818359" xlink:href="#DejaVuSans-84"/>
     <use x="682.902344" xlink:href="#DejaVuSans-111"/>
     <use x="744.083984" xlink:href="#DejaVuSans-87"/>
     <use x="836.585938" xlink:href="#DejaVuSans-97"/>
     <use x="897.865234" xlink:href="#DejaVuSans-118"/>
     <use x="957.044922" xlink:href="#DejaVuSans-101"/>
     <use x="1018.568359" xlink:href="#DejaVuSans-108"/>
     <use x="1046.351562" xlink:href="#DejaVuSans-101"/>
     <use x="1107.875" xlink:href="#DejaVuSans-110"/>
     <use x="1171.253906" xlink:href="#DejaVuSans-103"/>
     <use x="1234.730469" xlink:href="#DejaVuSans-116"/>
     <use x="1273.939453" xlink:href="#DejaVuSans-104"/>
     <use x="1337.318359" xlink:href="#DejaVuSans-115"/>
    </g>
   </g>
   <g id="legend_1">
    <g id="patch_7">
     <path d="M 249.896562 122.862625 
L 407.72 122.862625 
Q 409.72 122.862625 409.72 120.862625 
L 409.72 48.472 
Q 409.72 46.472 407.72 46.472 
L 249.896562 46.472 
Q 247.896562 46.472 247.896562 48.472 
L 247.896562 120.862625 
Q 247.896562 122.862625 249.896562 122.862625 
z
" style="fill:#ffffff;opacity:0.8;stroke:#cccccc;stroke-linejoin:miter;"/>
    </g>
    <g id="line2d_18">
     <path d="M 251.896562 54.570438 
L 271.896562 54.570438 
" style="fill:none;stroke:#ff7f0e;stroke-linecap:square;stroke-width:1.5;"/>
    </g>
    <g id="line2d_19"/>
    <g id="text_16">
     <!-- ST:0.05 BTY:0.5 BTX:0.02 -->
     <defs>
      <path d="M 53.515625 70.515625 
L 53.515625 60.890625 
Q 47.90625 63.578125 42.921875 64.890625 
Q 37.9375 66.21875 33.296875 66.21875 
Q 25.25 66.21875 20.875 63.09375 
Q 16.5 59.96875 16.5 54.203125 
Q 16.5 49.359375 19.40625 46.890625 
Q 22.3125 44.4375 30.421875 42.921875 
L 36.375 41.703125 
Q 47.40625 39.59375 52.65625 34.296875 
Q 57.90625 29 57.90625 20.125 
Q 57.90625 9.515625 50.796875 4.046875 
Q 43.703125 -1.421875 29.984375 -1.421875 
Q 24.8125 -1.421875 18.96875 -0.25 
Q 13.140625 0.921875 6.890625 3.21875 
L 6.890625 13.375 
Q 12.890625 10.015625 18.65625 8.296875 
Q 24.421875 6.59375 29.984375 6.59375 
Q 38.421875 6.59375 43.015625 9.90625 
Q 47.609375 13.234375 47.609375 19.390625 
Q 47.609375 24.75 44.3125 27.78125 
Q 41.015625 30.8125 33.5 32.328125 
L 27.484375 33.5 
Q 16.453125 35.6875 11.515625 40.375 
Q 6.59375 45.0625 6.59375 53.421875 
Q 6.59375 63.09375 13.40625 68.65625 
Q 20.21875 74.21875 32.171875 74.21875 
Q 37.3125 74.21875 42.625 73.28125 
Q 47.953125 72.359375 53.515625 70.515625 
z
" id="DejaVuSans-83"/>
      <path d="M 11.71875 12.40625 
L 22.015625 12.40625 
L 22.015625 0 
L 11.71875 0 
z
M 11.71875 51.703125 
L 22.015625 51.703125 
L 22.015625 39.3125 
L 11.71875 39.3125 
z
" id="DejaVuSans-58"/>
      <path id="DejaVuSans-32"/>
      <path d="M 19.671875 34.8125 
L 19.671875 8.109375 
L 35.5 8.109375 
Q 43.453125 8.109375 47.28125 11.40625 
Q 51.125 14.703125 51.125 21.484375 
Q 51.125 28.328125 47.28125 31.5625 
Q 43.453125 34.8125 35.5 34.8125 
z
M 19.671875 64.796875 
L 19.671875 42.828125 
L 34.28125 42.828125 
Q 41.5 42.828125 45.03125 45.53125 
Q 48.578125 48.25 48.578125 53.8125 
Q 48.578125 59.328125 45.03125 62.0625 
Q 41.5 64.796875 34.28125 64.796875 
z
M 9.8125 72.90625 
L 35.015625 72.90625 
Q 46.296875 72.90625 52.390625 68.21875 
Q 58.5 63.53125 58.5 54.890625 
Q 58.5 48.1875 55.375 44.234375 
Q 52.25 40.28125 46.1875 39.3125 
Q 53.46875 37.75 57.5 32.78125 
Q 61.53125 27.828125 61.53125 20.40625 
Q 61.53125 10.640625 54.890625 5.3125 
Q 48.25 0 35.984375 0 
L 9.8125 0 
z
" id="DejaVuSans-66"/>
      <path d="M -0.203125 72.90625 
L 10.40625 72.90625 
L 30.609375 42.921875 
L 50.6875 72.90625 
L 61.28125 72.90625 
L 35.5 34.71875 
L 35.5 0 
L 25.59375 0 
L 25.59375 34.71875 
z
" id="DejaVuSans-89"/>
      <path d="M 6.296875 72.90625 
L 16.890625 72.90625 
L 35.015625 45.796875 
L 53.21875 72.90625 
L 63.8125 72.90625 
L 40.375 37.890625 
L 65.375 0 
L 54.78125 0 
L 34.28125 31 
L 13.625 0 
L 2.984375 0 
L 29 38.921875 
z
" id="DejaVuSans-88"/>
      <path d="M 19.1875 8.296875 
L 53.609375 8.296875 
L 53.609375 0 
L 7.328125 0 
L 7.328125 8.296875 
Q 12.9375 14.109375 22.625 23.890625 
Q 32.328125 33.6875 34.8125 36.53125 
Q 39.546875 41.84375 41.421875 45.53125 
Q 43.3125 49.21875 43.3125 52.78125 
Q 43.3125 58.59375 39.234375 62.25 
Q 35.15625 65.921875 28.609375 65.921875 
Q 23.96875 65.921875 18.8125 64.3125 
Q 13.671875 62.703125 7.8125 59.421875 
L 7.8125 69.390625 
Q 13.765625 71.78125 18.9375 73 
Q 24.125 74.21875 28.421875 74.21875 
Q 39.75 74.21875 46.484375 68.546875 
Q 53.21875 62.890625 53.21875 53.421875 
Q 53.21875 48.921875 51.53125 44.890625 
Q 49.859375 40.875 45.40625 35.40625 
Q 44.1875 33.984375 37.640625 27.21875 
Q 31.109375 20.453125 19.1875 8.296875 
z
" id="DejaVuSans-50"/>
     </defs>
     <g transform="translate(279.896562 58.070438)scale(0.1 -0.1)">
      <use xlink:href="#DejaVuSans-83"/>
      <use x="63.476562" xlink:href="#DejaVuSans-84"/>
      <use x="113.560547" xlink:href="#DejaVuSans-58"/>
      <use x="147.251953" xlink:href="#DejaVuSans-48"/>
      <use x="210.875" xlink:href="#DejaVuSans-46"/>
      <use x="242.662109" xlink:href="#DejaVuSans-48"/>
      <use x="306.285156" xlink:href="#DejaVuSans-53"/>
      <use x="369.908203" xlink:href="#DejaVuSans-32"/>
      <use x="401.695312" xlink:href="#DejaVuSans-66"/>
      <use x="470.298828" xlink:href="#DejaVuSans-84"/>
      <use x="531.382812" xlink:href="#DejaVuSans-89"/>
      <use x="579.216797" xlink:href="#DejaVuSans-58"/>
      <use x="612.908203" xlink:href="#DejaVuSans-48"/>
      <use x="676.53125" xlink:href="#DejaVuSans-46"/>
      <use x="708.318359" xlink:href="#DejaVuSans-53"/>
      <use x="771.941406" xlink:href="#DejaVuSans-32"/>
      <use x="803.728516" xlink:href="#DejaVuSans-66"/>
      <use x="872.332031" xlink:href="#DejaVuSans-84"/>
      <use x="933.416016" xlink:href="#DejaVuSans-88"/>
      <use x="1001.921875" xlink:href="#DejaVuSans-58"/>
      <use x="1035.613281" xlink:href="#DejaVuSans-48"/>
      <use x="1099.236328" xlink:href="#DejaVuSans-46"/>
      <use x="1131.023438" xlink:href="#DejaVuSans-48"/>
      <use x="1194.646484" xlink:href="#DejaVuSans-50"/>
     </g>
    </g>
    <g id="line2d_20">
     <path d="M 251.896562 69.248563 
L 271.896562 69.248563 
" style="fill:none;stroke:#2ca02c;stroke-linecap:square;stroke-width:1.5;"/>
    </g>
    <g id="line2d_21"/>
    <g id="text_17">
     <!-- ST:0.1 BTY:0.5 BTX:0.02 -->
     <defs>
      <path d="M 12.40625 8.296875 
L 28.515625 8.296875 
L 28.515625 63.921875 
L 10.984375 60.40625 
L 10.984375 69.390625 
L 28.421875 72.90625 
L 38.28125 72.90625 
L 38.28125 8.296875 
L 54.390625 8.296875 
L 54.390625 0 
L 12.40625 0 
z
" id="DejaVuSans-49"/>
     </defs>
     <g transform="translate(279.896562 72.748563)scale(0.1 -0.1)">
      <use xlink:href="#DejaVuSans-83"/>
      <use x="63.476562" xlink:href="#DejaVuSans-84"/>
      <use x="113.560547" xlink:href="#DejaVuSans-58"/>
      <use x="147.251953" xlink:href="#DejaVuSans-48"/>
      <use x="210.875" xlink:href="#DejaVuSans-46"/>
      <use x="242.662109" xlink:href="#DejaVuSans-49"/>
      <use x="306.285156" xlink:href="#DejaVuSans-32"/>
      <use x="338.072266" xlink:href="#DejaVuSans-66"/>
      <use x="406.675781" xlink:href="#DejaVuSans-84"/>
      <use x="467.759766" xlink:href="#DejaVuSans-89"/>
      <use x="515.59375" xlink:href="#DejaVuSans-58"/>
      <use x="549.285156" xlink:href="#DejaVuSans-48"/>
      <use x="612.908203" xlink:href="#DejaVuSans-46"/>
      <use x="644.695312" xlink:href="#DejaVuSans-53"/>
      <use x="708.318359" xlink:href="#DejaVuSans-32"/>
      <use x="740.105469" xlink:href="#DejaVuSans-66"/>
      <use x="808.708984" xlink:href="#DejaVuSans-84"/>
      <use x="869.792969" xlink:href="#DejaVuSans-88"/>
      <use x="938.298828" xlink:href="#DejaVuSans-58"/>
      <use x="971.990234" xlink:href="#DejaVuSans-48"/>
      <use x="1035.613281" xlink:href="#DejaVuSans-46"/>
      <use x="1067.400391" xlink:href="#DejaVuSans-48"/>
      <use x="1131.023438" xlink:href="#DejaVuSans-50"/>
     </g>
    </g>
    <g id="line2d_22">
     <path d="M 251.896562 83.926688 
L 271.896562 83.926688 
" style="fill:none;stroke:#d62728;stroke-linecap:square;stroke-width:1.5;"/>
    </g>
    <g id="line2d_23"/>
    <g id="text_18">
     <!-- ST:0.15 BTY:0.5 BTX:0.02 -->
     <g transform="translate(279.896562 87.426688)scale(0.1 -0.1)">
      <use xlink:href="#DejaVuSans-83"/>
      <use x="63.476562" xlink:href="#DejaVuSans-84"/>
      <use x="113.560547" xlink:href="#DejaVuSans-58"/>
      <use x="147.251953" xlink:href="#DejaVuSans-48"/>
      <use x="210.875" xlink:href="#DejaVuSans-46"/>
      <use x="242.662109" xlink:href="#DejaVuSans-49"/>
      <use x="306.285156" xlink:href="#DejaVuSans-53"/>
      <use x="369.908203" xlink:href="#DejaVuSans-32"/>
      <use x="401.695312" xlink:href="#DejaVuSans-66"/>
      <use x="470.298828" xlink:href="#DejaVuSans-84"/>
      <use x="531.382812" xlink:href="#DejaVuSans-89"/>
      <use x="579.216797" xlink:href="#DejaVuSans-58"/>
      <use x="612.908203" xlink:href="#DejaVuSans-48"/>
      <use x="676.53125" xlink:href="#DejaVuSans-46"/>
      <use x="708.318359" xlink:href="#DejaVuSans-53"/>
      <use x="771.941406" xlink:href="#DejaVuSans-32"/>
      <use x="803.728516" xlink:href="#DejaVuSans-66"/>
      <use x="872.332031" xlink:href="#DejaVuSans-84"/>
      <use x="933.416016" xlink:href="#DejaVuSans-88"/>
      <use x="1001.921875" xlink:href="#DejaVuSans-58"/>
      <use x="1035.613281" xlink:href="#DejaVuSans-48"/>
      <use x="1099.236328" xlink:href="#DejaVuSans-46"/>
      <use x="1131.023438" xlink:href="#DejaVuSans-48"/>
      <use x="1194.646484" xlink:href="#DejaVuSans-50"/>
     </g>
    </g>
    <g id="line2d_24">
     <path d="M 251.896562 98.604813 
L 271.896562 98.604813 
" style="fill:none;stroke:#9467bd;stroke-linecap:square;stroke-width:1.5;"/>
    </g>
    <g id="line2d_25"/>
    <g id="text_19">
     <!-- ST:0.2 BTY:0.5 BTX:0.02 -->
     <g transform="translate(279.896562 102.104813)scale(0.1 -0.1)">
      <use xlink:href="#DejaVuSans-83"/>
      <use x="63.476562" xlink:href="#DejaVuSans-84"/>
      <use x="113.560547" xlink:href="#DejaVuSans-58"/>
      <use x="147.251953" xlink:href="#DejaVuSans-48"/>
      <use x="210.875" xlink:href="#DejaVuSans-46"/>
      <use x="242.662109" xlink:href="#DejaVuSans-50"/>
      <use x="306.285156" xlink:href="#DejaVuSans-32"/>
      <use x="338.072266" xlink:href="#DejaVuSans-66"/>
      <use x="406.675781" xlink:href="#DejaVuSans-84"/>
      <use x="467.759766" xlink:href="#DejaVuSans-89"/>
      <use x="515.59375" xlink:href="#DejaVuSans-58"/>
      <use x="549.285156" xlink:href="#DejaVuSans-48"/>
      <use x="612.908203" xlink:href="#DejaVuSans-46"/>
      <use x="644.695312" xlink:href="#DejaVuSans-53"/>
      <use x="708.318359" xlink:href="#DejaVuSans-32"/>
      <use x="740.105469" xlink:href="#DejaVuSans-66"/>
      <use x="808.708984" xlink:href="#DejaVuSans-84"/>
      <use x="869.792969" xlink:href="#DejaVuSans-88"/>
      <use x="938.298828" xlink:href="#DejaVuSans-58"/>
      <use x="971.990234" xlink:href="#DejaVuSans-48"/>
      <use x="1035.613281" xlink:href="#DejaVuSans-46"/>
      <use x="1067.400391" xlink:href="#DejaVuSans-48"/>
      <use x="1131.023438" xlink:href="#DejaVuSans-50"/>
     </g>
    </g>
    <g id="line2d_26">
     <path d="M 251.896562 113.282938 
L 271.896562 113.282938 
" style="fill:none;stroke:#8c564b;stroke-linecap:square;stroke-width:1.5;"/>
    </g>
    <g id="line2d_27"/>
    <g id="text_20">
     <!-- ST:0.25 BTY:0.5 BTX:0.02 -->
     <g transform="translate(279.896562 116.782938)scale(0.1 -0.1)">
      <use xlink:href="#DejaVuSans-83"/>
      <use x="63.476562" xlink:href="#DejaVuSans-84"/>
      <use x="113.560547" xlink:href="#DejaVuSans-58"/>
      <use x="147.251953" xlink:href="#DejaVuSans-48"/>
      <use x="210.875" xlink:href="#DejaVuSans-46"/>
      <use x="242.662109" xlink:href="#DejaVuSans-50"/>
      <use x="306.285156" xlink:href="#DejaVuSans-53"/>
      <use x="369.908203" xlink:href="#DejaVuSans-32"/>
      <use x="401.695312" xlink:href="#DejaVuSans-66"/>
      <use x="470.298828" xlink:href="#DejaVuSans-84"/>
      <use x="531.382812" xlink:href="#DejaVuSans-89"/>
      <use x="579.216797" xlink:href="#DejaVuSans-58"/>
      <use x="612.908203" xlink:href="#DejaVuSans-48"/>
      <use x="676.53125" xlink:href="#DejaVuSans-46"/>
      <use x="708.318359" xlink:href="#DejaVuSans-53"/>
      <use x="771.941406" xlink:href="#DejaVuSans-32"/>
      <use x="803.728516" xlink:href="#DejaVuSans-66"/>
      <use x="872.332031" xlink:href="#DejaVuSans-84"/>
      <use x="933.416016" xlink:href="#DejaVuSans-88"/>
      <use x="1001.921875" xlink:href="#DejaVuSans-58"/>
      <use x="1035.613281" xlink:href="#DejaVuSans-48"/>
      <use x="1099.236328" xlink:href="#DejaVuSans-46"/>
      <use x="1131.023438" xlink:href="#DejaVuSans-48"/>
      <use x="1194.646484" xlink:href="#DejaVuSans-50"/>
     </g>
    </g>
   </g>
  </g>
 </g>
 <defs>
  <clipPath id="p3473cd6258">
   <rect height="266.112" width="357.12" x="57.6" y="41.472"/>
  </clipPath>
 </defs>
</svg>
