<?xml version="1.0" encoding="utf-8" standalone="no"?>
<!DOCTYPE svg PUBLIC "-//W3C//DTD SVG 1.1//EN"
  "http://www.w3.org/Graphics/SVG/1.1/DTD/svg11.dtd">
<!-- Created with matplotlib (https://matplotlib.org/) -->
<svg height="345.6pt" version="1.1" viewBox="0 0 460.8 345.6" width="460.8pt" xmlns="http://www.w3.org/2000/svg" xmlns:xlink="http://www.w3.org/1999/xlink">
 <defs>
  <style type="text/css">
*{stroke-linecap:butt;stroke-linejoin:round;}
  </style>
 </defs>
 <g id="figure_1">
  <g id="patch_1">
   <path d="M 0 345.6 
L 460.8 345.6 
L 460.8 0 
L 0 0 
z
" style="fill:#ffffff;"/>
  </g>
  <g id="axes_1">
   <g id="patch_2">
    <path d="M 57.6 307.584 
L 414.72 307.584 
L 414.72 41.472 
L 57.6 41.472 
z
" style="fill:#ffffff;"/>
   </g>
   <g id="matplotlib.axis_1">
    <g id="xtick_1">
     <g id="line2d_1">
      <defs>
       <path d="M 0 0 
L 0 3.5 
" id="m19982e0033" style="stroke:#000000;stroke-width:0.8;"/>
      </defs>
      <g>
       <use style="stroke:#000000;stroke-width:0.8;" x="73.832727" xlink:href="#m19982e0033" y="307.584"/>
      </g>
     </g>
     <g id="text_1">
      <!-- 350 -->
      <defs>
       <path d="M 40.578125 39.3125 
Q 47.65625 37.796875 51.625 33 
Q 55.609375 28.21875 55.609375 21.1875 
Q 55.609375 10.40625 48.1875 4.484375 
Q 40.765625 -1.421875 27.09375 -1.421875 
Q 22.515625 -1.421875 17.65625 -0.515625 
Q 12.796875 0.390625 7.625 2.203125 
L 7.625 11.71875 
Q 11.71875 9.328125 16.59375 8.109375 
Q 21.484375 6.890625 26.8125 6.890625 
Q 36.078125 6.890625 40.9375 10.546875 
Q 45.796875 14.203125 45.796875 21.1875 
Q 45.796875 27.640625 41.28125 31.265625 
Q 36.765625 34.90625 28.71875 34.90625 
L 20.21875 34.90625 
L 20.21875 43.015625 
L 29.109375 43.015625 
Q 36.375 43.015625 40.234375 45.921875 
Q 44.09375 48.828125 44.09375 54.296875 
Q 44.09375 59.90625 40.109375 62.90625 
Q 36.140625 65.921875 28.71875 65.921875 
Q 24.65625 65.921875 20.015625 65.03125 
Q 15.375 64.15625 9.8125 62.3125 
L 9.8125 71.09375 
Q 15.4375 72.65625 20.34375 73.4375 
Q 25.25 74.21875 29.59375 74.21875 
Q 40.828125 74.21875 47.359375 69.109375 
Q 53.90625 64.015625 53.90625 55.328125 
Q 53.90625 49.265625 50.4375 45.09375 
Q 46.96875 40.921875 40.578125 39.3125 
z
" id="DejaVuSans-51"/>
       <path d="M 10.796875 72.90625 
L 49.515625 72.90625 
L 49.515625 64.59375 
L 19.828125 64.59375 
L 19.828125 46.734375 
Q 21.96875 47.46875 24.109375 47.828125 
Q 26.265625 48.1875 28.421875 48.1875 
Q 40.625 48.1875 47.75 41.5 
Q 54.890625 34.8125 54.890625 23.390625 
Q 54.890625 11.625 47.5625 5.09375 
Q 40.234375 -1.421875 26.90625 -1.421875 
Q 22.3125 -1.421875 17.546875 -0.640625 
Q 12.796875 0.140625 7.71875 1.703125 
L 7.71875 11.625 
Q 12.109375 9.234375 16.796875 8.0625 
Q 21.484375 6.890625 26.703125 6.890625 
Q 35.15625 6.890625 40.078125 11.328125 
Q 45.015625 15.765625 45.015625 23.390625 
Q 45.015625 31 40.078125 35.4375 
Q 35.15625 39.890625 26.703125 39.890625 
Q 22.75 39.890625 18.8125 39.015625 
Q 14.890625 38.140625 10.796875 36.28125 
z
" id="DejaVuSans-53"/>
       <path d="M 31.78125 66.40625 
Q 24.171875 66.40625 20.328125 58.90625 
Q 16.5 51.421875 16.5 36.375 
Q 16.5 21.390625 20.328125 13.890625 
Q 24.171875 6.390625 31.78125 6.390625 
Q 39.453125 6.390625 43.28125 13.890625 
Q 47.125 21.390625 47.125 36.375 
Q 47.125 51.421875 43.28125 58.90625 
Q 39.453125 66.40625 31.78125 66.40625 
z
M 31.78125 74.21875 
Q 44.046875 74.21875 50.515625 64.515625 
Q 56.984375 54.828125 56.984375 36.375 
Q 56.984375 17.96875 50.515625 8.265625 
Q 44.046875 -1.421875 31.78125 -1.421875 
Q 19.53125 -1.421875 13.0625 8.265625 
Q 6.59375 17.96875 6.59375 36.375 
Q 6.59375 54.828125 13.0625 64.515625 
Q 19.53125 74.21875 31.78125 74.21875 
z
" id="DejaVuSans-48"/>
      </defs>
      <g transform="translate(64.288977 322.182437)scale(0.1 -0.1)">
       <use xlink:href="#DejaVuSans-51"/>
       <use x="63.623047" xlink:href="#DejaVuSans-53"/>
       <use x="127.246094" xlink:href="#DejaVuSans-48"/>
      </g>
     </g>
    </g>
    <g id="xtick_2">
     <g id="line2d_2">
      <g>
       <use style="stroke:#000000;stroke-width:0.8;" x="114.414545" xlink:href="#m19982e0033" y="307.584"/>
      </g>
     </g>
     <g id="text_2">
      <!-- 400 -->
      <defs>
       <path d="M 37.796875 64.3125 
L 12.890625 25.390625 
L 37.796875 25.390625 
z
M 35.203125 72.90625 
L 47.609375 72.90625 
L 47.609375 25.390625 
L 58.015625 25.390625 
L 58.015625 17.1875 
L 47.609375 17.1875 
L 47.609375 0 
L 37.796875 0 
L 37.796875 17.1875 
L 4.890625 17.1875 
L 4.890625 26.703125 
z
" id="DejaVuSans-52"/>
      </defs>
      <g transform="translate(104.870795 322.182437)scale(0.1 -0.1)">
       <use xlink:href="#DejaVuSans-52"/>
       <use x="63.623047" xlink:href="#DejaVuSans-48"/>
       <use x="127.246094" xlink:href="#DejaVuSans-48"/>
      </g>
     </g>
    </g>
    <g id="xtick_3">
     <g id="line2d_3">
      <g>
       <use style="stroke:#000000;stroke-width:0.8;" x="154.996364" xlink:href="#m19982e0033" y="307.584"/>
      </g>
     </g>
     <g id="text_3">
      <!-- 450 -->
      <g transform="translate(145.452614 322.182437)scale(0.1 -0.1)">
       <use xlink:href="#DejaVuSans-52"/>
       <use x="63.623047" xlink:href="#DejaVuSans-53"/>
       <use x="127.246094" xlink:href="#DejaVuSans-48"/>
      </g>
     </g>
    </g>
    <g id="xtick_4">
     <g id="line2d_4">
      <g>
       <use style="stroke:#000000;stroke-width:0.8;" x="195.578182" xlink:href="#m19982e0033" y="307.584"/>
      </g>
     </g>
     <g id="text_4">
      <!-- 500 -->
      <g transform="translate(186.034432 322.182437)scale(0.1 -0.1)">
       <use xlink:href="#DejaVuSans-53"/>
       <use x="63.623047" xlink:href="#DejaVuSans-48"/>
       <use x="127.246094" xlink:href="#DejaVuSans-48"/>
      </g>
     </g>
    </g>
    <g id="xtick_5">
     <g id="line2d_5">
      <g>
       <use style="stroke:#000000;stroke-width:0.8;" x="236.16" xlink:href="#m19982e0033" y="307.584"/>
      </g>
     </g>
     <g id="text_5">
      <!-- 550 -->
      <g transform="translate(226.61625 322.182437)scale(0.1 -0.1)">
       <use xlink:href="#DejaVuSans-53"/>
       <use x="63.623047" xlink:href="#DejaVuSans-53"/>
       <use x="127.246094" xlink:href="#DejaVuSans-48"/>
      </g>
     </g>
    </g>
    <g id="xtick_6">
     <g id="line2d_6">
      <g>
       <use style="stroke:#000000;stroke-width:0.8;" x="276.741818" xlink:href="#m19982e0033" y="307.584"/>
      </g>
     </g>
     <g id="text_6">
      <!-- 600 -->
      <defs>
       <path d="M 33.015625 40.375 
Q 26.375 40.375 22.484375 35.828125 
Q 18.609375 31.296875 18.609375 23.390625 
Q 18.609375 15.53125 22.484375 10.953125 
Q 26.375 6.390625 33.015625 6.390625 
Q 39.65625 6.390625 43.53125 10.953125 
Q 47.40625 15.53125 47.40625 23.390625 
Q 47.40625 31.296875 43.53125 35.828125 
Q 39.65625 40.375 33.015625 40.375 
z
M 52.59375 71.296875 
L 52.59375 62.3125 
Q 48.875 64.0625 45.09375 64.984375 
Q 41.3125 65.921875 37.59375 65.921875 
Q 27.828125 65.921875 22.671875 59.328125 
Q 17.53125 52.734375 16.796875 39.40625 
Q 19.671875 43.65625 24.015625 45.921875 
Q 28.375 48.1875 33.59375 48.1875 
Q 44.578125 48.1875 50.953125 41.515625 
Q 57.328125 34.859375 57.328125 23.390625 
Q 57.328125 12.15625 50.6875 5.359375 
Q 44.046875 -1.421875 33.015625 -1.421875 
Q 20.359375 -1.421875 13.671875 8.265625 
Q 6.984375 17.96875 6.984375 36.375 
Q 6.984375 53.65625 15.1875 63.9375 
Q 23.390625 74.21875 37.203125 74.21875 
Q 40.921875 74.21875 44.703125 73.484375 
Q 48.484375 72.75 52.59375 71.296875 
z
" id="DejaVuSans-54"/>
      </defs>
      <g transform="translate(267.198068 322.182437)scale(0.1 -0.1)">
       <use xlink:href="#DejaVuSans-54"/>
       <use x="63.623047" xlink:href="#DejaVuSans-48"/>
       <use x="127.246094" xlink:href="#DejaVuSans-48"/>
      </g>
     </g>
    </g>
    <g id="xtick_7">
     <g id="line2d_7">
      <g>
       <use style="stroke:#000000;stroke-width:0.8;" x="317.323636" xlink:href="#m19982e0033" y="307.584"/>
      </g>
     </g>
     <g id="text_7">
      <!-- 650 -->
      <g transform="translate(307.779886 322.182437)scale(0.1 -0.1)">
       <use xlink:href="#DejaVuSans-54"/>
       <use x="63.623047" xlink:href="#DejaVuSans-53"/>
       <use x="127.246094" xlink:href="#DejaVuSans-48"/>
      </g>
     </g>
    </g>
    <g id="xtick_8">
     <g id="line2d_8">
      <g>
       <use style="stroke:#000000;stroke-width:0.8;" x="357.905455" xlink:href="#m19982e0033" y="307.584"/>
      </g>
     </g>
     <g id="text_8">
      <!-- 700 -->
      <defs>
       <path d="M 8.203125 72.90625 
L 55.078125 72.90625 
L 55.078125 68.703125 
L 28.609375 0 
L 18.3125 0 
L 43.21875 64.59375 
L 8.203125 64.59375 
z
" id="DejaVuSans-55"/>
      </defs>
      <g transform="translate(348.361705 322.182437)scale(0.1 -0.1)">
       <use xlink:href="#DejaVuSans-55"/>
       <use x="63.623047" xlink:href="#DejaVuSans-48"/>
       <use x="127.246094" xlink:href="#DejaVuSans-48"/>
      </g>
     </g>
    </g>
    <g id="xtick_9">
     <g id="line2d_9">
      <g>
       <use style="stroke:#000000;stroke-width:0.8;" x="398.487273" xlink:href="#m19982e0033" y="307.584"/>
      </g>
     </g>
     <g id="text_9">
      <!-- 750 -->
      <g transform="translate(388.943523 322.182437)scale(0.1 -0.1)">
       <use xlink:href="#DejaVuSans-55"/>
       <use x="63.623047" xlink:href="#DejaVuSans-53"/>
       <use x="127.246094" xlink:href="#DejaVuSans-48"/>
      </g>
     </g>
    </g>
    <g id="text_10">
     <!-- wavelengths -->
     <defs>
      <path d="M 4.203125 54.6875 
L 13.1875 54.6875 
L 24.421875 12.015625 
L 35.59375 54.6875 
L 46.1875 54.6875 
L 57.421875 12.015625 
L 68.609375 54.6875 
L 77.59375 54.6875 
L 63.28125 0 
L 52.6875 0 
L 40.921875 44.828125 
L 29.109375 0 
L 18.5 0 
z
" id="DejaVuSans-119"/>
      <path d="M 34.28125 27.484375 
Q 23.390625 27.484375 19.1875 25 
Q 14.984375 22.515625 14.984375 16.5 
Q 14.984375 11.71875 18.140625 8.90625 
Q 21.296875 6.109375 26.703125 6.109375 
Q 34.1875 6.109375 38.703125 11.40625 
Q 43.21875 16.703125 43.21875 25.484375 
L 43.21875 27.484375 
z
M 52.203125 31.203125 
L 52.203125 0 
L 43.21875 0 
L 43.21875 8.296875 
Q 40.140625 3.328125 35.546875 0.953125 
Q 30.953125 -1.421875 24.3125 -1.421875 
Q 15.921875 -1.421875 10.953125 3.296875 
Q 6 8.015625 6 15.921875 
Q 6 25.140625 12.171875 29.828125 
Q 18.359375 34.515625 30.609375 34.515625 
L 43.21875 34.515625 
L 43.21875 35.40625 
Q 43.21875 41.609375 39.140625 45 
Q 35.0625 48.390625 27.6875 48.390625 
Q 23 48.390625 18.546875 47.265625 
Q 14.109375 46.140625 10.015625 43.890625 
L 10.015625 52.203125 
Q 14.9375 54.109375 19.578125 55.046875 
Q 24.21875 56 28.609375 56 
Q 40.484375 56 46.34375 49.84375 
Q 52.203125 43.703125 52.203125 31.203125 
z
" id="DejaVuSans-97"/>
      <path d="M 2.984375 54.6875 
L 12.5 54.6875 
L 29.59375 8.796875 
L 46.6875 54.6875 
L 56.203125 54.6875 
L 35.6875 0 
L 23.484375 0 
z
" id="DejaVuSans-118"/>
      <path d="M 56.203125 29.59375 
L 56.203125 25.203125 
L 14.890625 25.203125 
Q 15.484375 15.921875 20.484375 11.0625 
Q 25.484375 6.203125 34.421875 6.203125 
Q 39.59375 6.203125 44.453125 7.46875 
Q 49.3125 8.734375 54.109375 11.28125 
L 54.109375 2.78125 
Q 49.265625 0.734375 44.1875 -0.34375 
Q 39.109375 -1.421875 33.890625 -1.421875 
Q 20.796875 -1.421875 13.15625 6.1875 
Q 5.515625 13.8125 5.515625 26.8125 
Q 5.515625 40.234375 12.765625 48.109375 
Q 20.015625 56 32.328125 56 
Q 43.359375 56 49.78125 48.890625 
Q 56.203125 41.796875 56.203125 29.59375 
z
M 47.21875 32.234375 
Q 47.125 39.59375 43.09375 43.984375 
Q 39.0625 48.390625 32.421875 48.390625 
Q 24.90625 48.390625 20.390625 44.140625 
Q 15.875 39.890625 15.1875 32.171875 
z
" id="DejaVuSans-101"/>
      <path d="M 9.421875 75.984375 
L 18.40625 75.984375 
L 18.40625 0 
L 9.421875 0 
z
" id="DejaVuSans-108"/>
      <path d="M 54.890625 33.015625 
L 54.890625 0 
L 45.90625 0 
L 45.90625 32.71875 
Q 45.90625 40.484375 42.875 44.328125 
Q 39.84375 48.1875 33.796875 48.1875 
Q 26.515625 48.1875 22.3125 43.546875 
Q 18.109375 38.921875 18.109375 30.90625 
L 18.109375 0 
L 9.078125 0 
L 9.078125 54.6875 
L 18.109375 54.6875 
L 18.109375 46.1875 
Q 21.34375 51.125 25.703125 53.5625 
Q 30.078125 56 35.796875 56 
Q 45.21875 56 50.046875 50.171875 
Q 54.890625 44.34375 54.890625 33.015625 
z
" id="DejaVuSans-110"/>
      <path d="M 45.40625 27.984375 
Q 45.40625 37.75 41.375 43.109375 
Q 37.359375 48.484375 30.078125 48.484375 
Q 22.859375 48.484375 18.828125 43.109375 
Q 14.796875 37.75 14.796875 27.984375 
Q 14.796875 18.265625 18.828125 12.890625 
Q 22.859375 7.515625 30.078125 7.515625 
Q 37.359375 7.515625 41.375 12.890625 
Q 45.40625 18.265625 45.40625 27.984375 
z
M 54.390625 6.78125 
Q 54.390625 -7.171875 48.1875 -13.984375 
Q 42 -20.796875 29.203125 -20.796875 
Q 24.46875 -20.796875 20.265625 -20.09375 
Q 16.0625 -19.390625 12.109375 -17.921875 
L 12.109375 -9.1875 
Q 16.0625 -11.328125 19.921875 -12.34375 
Q 23.78125 -13.375 27.78125 -13.375 
Q 36.625 -13.375 41.015625 -8.765625 
Q 45.40625 -4.15625 45.40625 5.171875 
L 45.40625 9.625 
Q 42.625 4.78125 38.28125 2.390625 
Q 33.9375 0 27.875 0 
Q 17.828125 0 11.671875 7.65625 
Q 5.515625 15.328125 5.515625 27.984375 
Q 5.515625 40.671875 11.671875 48.328125 
Q 17.828125 56 27.875 56 
Q 33.9375 56 38.28125 53.609375 
Q 42.625 51.21875 45.40625 46.390625 
L 45.40625 54.6875 
L 54.390625 54.6875 
z
" id="DejaVuSans-103"/>
      <path d="M 18.3125 70.21875 
L 18.3125 54.6875 
L 36.8125 54.6875 
L 36.8125 47.703125 
L 18.3125 47.703125 
L 18.3125 18.015625 
Q 18.3125 11.328125 20.140625 9.421875 
Q 21.96875 7.515625 27.59375 7.515625 
L 36.8125 7.515625 
L 36.8125 0 
L 27.59375 0 
Q 17.1875 0 13.234375 3.875 
Q 9.28125 7.765625 9.28125 18.015625 
L 9.28125 47.703125 
L 2.6875 47.703125 
L 2.6875 54.6875 
L 9.28125 54.6875 
L 9.28125 70.21875 
z
" id="DejaVuSans-116"/>
      <path d="M 54.890625 33.015625 
L 54.890625 0 
L 45.90625 0 
L 45.90625 32.71875 
Q 45.90625 40.484375 42.875 44.328125 
Q 39.84375 48.1875 33.796875 48.1875 
Q 26.515625 48.1875 22.3125 43.546875 
Q 18.109375 38.921875 18.109375 30.90625 
L 18.109375 0 
L 9.078125 0 
L 9.078125 75.984375 
L 18.109375 75.984375 
L 18.109375 46.1875 
Q 21.34375 51.125 25.703125 53.5625 
Q 30.078125 56 35.796875 56 
Q 45.21875 56 50.046875 50.171875 
Q 54.890625 44.34375 54.890625 33.015625 
z
" id="DejaVuSans-104"/>
      <path d="M 44.28125 53.078125 
L 44.28125 44.578125 
Q 40.484375 46.53125 36.375 47.5 
Q 32.28125 48.484375 27.875 48.484375 
Q 21.1875 48.484375 17.84375 46.4375 
Q 14.5 44.390625 14.5 40.28125 
Q 14.5 37.15625 16.890625 35.375 
Q 19.28125 33.59375 26.515625 31.984375 
L 29.59375 31.296875 
Q 39.15625 29.25 43.1875 25.515625 
Q 47.21875 21.78125 47.21875 15.09375 
Q 47.21875 7.46875 41.1875 3.015625 
Q 35.15625 -1.421875 24.609375 -1.421875 
Q 20.21875 -1.421875 15.453125 -0.5625 
Q 10.6875 0.296875 5.421875 2 
L 5.421875 11.28125 
Q 10.40625 8.6875 15.234375 7.390625 
Q 20.0625 6.109375 24.8125 6.109375 
Q 31.15625 6.109375 34.5625 8.28125 
Q 37.984375 10.453125 37.984375 14.40625 
Q 37.984375 18.0625 35.515625 20.015625 
Q 33.0625 21.96875 24.703125 23.78125 
L 21.578125 24.515625 
Q 13.234375 26.265625 9.515625 29.90625 
Q 5.8125 33.546875 5.8125 39.890625 
Q 5.8125 47.609375 11.28125 51.796875 
Q 16.75 56 26.8125 56 
Q 31.78125 56 36.171875 55.265625 
Q 40.578125 54.546875 44.28125 53.078125 
z
" id="DejaVuSans-115"/>
     </defs>
     <g transform="translate(204.42875 335.860562)scale(0.1 -0.1)">
      <use xlink:href="#DejaVuSans-119"/>
      <use x="81.787109" xlink:href="#DejaVuSans-97"/>
      <use x="143.066406" xlink:href="#DejaVuSans-118"/>
      <use x="202.246094" xlink:href="#DejaVuSans-101"/>
      <use x="263.769531" xlink:href="#DejaVuSans-108"/>
      <use x="291.552734" xlink:href="#DejaVuSans-101"/>
      <use x="353.076172" xlink:href="#DejaVuSans-110"/>
      <use x="416.455078" xlink:href="#DejaVuSans-103"/>
      <use x="479.931641" xlink:href="#DejaVuSans-116"/>
      <use x="519.140625" xlink:href="#DejaVuSans-104"/>
      <use x="582.519531" xlink:href="#DejaVuSans-115"/>
     </g>
    </g>
   </g>
   <g id="matplotlib.axis_2">
    <g id="ytick_1">
     <g id="line2d_10">
      <defs>
       <path d="M 0 0 
L -3.5 0 
" id="m18fa4bc0b9" style="stroke:#000000;stroke-width:0.8;"/>
      </defs>
      <g>
       <use style="stroke:#000000;stroke-width:0.8;" x="57.6" xlink:href="#m18fa4bc0b9" y="295.488684"/>
      </g>
     </g>
     <g id="text_11">
      <!-- 0.00 -->
      <defs>
       <path d="M 10.6875 12.40625 
L 21 12.40625 
L 21 0 
L 10.6875 0 
z
" id="DejaVuSans-46"/>
      </defs>
      <g transform="translate(28.334375 299.287902)scale(0.1 -0.1)">
       <use xlink:href="#DejaVuSans-48"/>
       <use x="63.623047" xlink:href="#DejaVuSans-46"/>
       <use x="95.410156" xlink:href="#DejaVuSans-48"/>
       <use x="159.033203" xlink:href="#DejaVuSans-48"/>
      </g>
     </g>
    </g>
    <g id="ytick_2">
     <g id="line2d_11">
      <g>
       <use style="stroke:#000000;stroke-width:0.8;" x="57.6" xlink:href="#m18fa4bc0b9" y="261.310708"/>
      </g>
     </g>
     <g id="text_12">
      <!-- 0.02 -->
      <defs>
       <path d="M 19.1875 8.296875 
L 53.609375 8.296875 
L 53.609375 0 
L 7.328125 0 
L 7.328125 8.296875 
Q 12.9375 14.109375 22.625 23.890625 
Q 32.328125 33.6875 34.8125 36.53125 
Q 39.546875 41.84375 41.421875 45.53125 
Q 43.3125 49.21875 43.3125 52.78125 
Q 43.3125 58.59375 39.234375 62.25 
Q 35.15625 65.921875 28.609375 65.921875 
Q 23.96875 65.921875 18.8125 64.3125 
Q 13.671875 62.703125 7.8125 59.421875 
L 7.8125 69.390625 
Q 13.765625 71.78125 18.9375 73 
Q 24.125 74.21875 28.421875 74.21875 
Q 39.75 74.21875 46.484375 68.546875 
Q 53.21875 62.890625 53.21875 53.421875 
Q 53.21875 48.921875 51.53125 44.890625 
Q 49.859375 40.875 45.40625 35.40625 
Q 44.1875 33.984375 37.640625 27.21875 
Q 31.109375 20.453125 19.1875 8.296875 
z
" id="DejaVuSans-50"/>
      </defs>
      <g transform="translate(28.334375 265.109926)scale(0.1 -0.1)">
       <use xlink:href="#DejaVuSans-48"/>
       <use x="63.623047" xlink:href="#DejaVuSans-46"/>
       <use x="95.410156" xlink:href="#DejaVuSans-48"/>
       <use x="159.033203" xlink:href="#DejaVuSans-50"/>
      </g>
     </g>
    </g>
    <g id="ytick_3">
     <g id="line2d_12">
      <g>
       <use style="stroke:#000000;stroke-width:0.8;" x="57.6" xlink:href="#m18fa4bc0b9" y="227.132732"/>
      </g>
     </g>
     <g id="text_13">
      <!-- 0.04 -->
      <g transform="translate(28.334375 230.93195)scale(0.1 -0.1)">
       <use xlink:href="#DejaVuSans-48"/>
       <use x="63.623047" xlink:href="#DejaVuSans-46"/>
       <use x="95.410156" xlink:href="#DejaVuSans-48"/>
       <use x="159.033203" xlink:href="#DejaVuSans-52"/>
      </g>
     </g>
    </g>
    <g id="ytick_4">
     <g id="line2d_13">
      <g>
       <use style="stroke:#000000;stroke-width:0.8;" x="57.6" xlink:href="#m18fa4bc0b9" y="192.954755"/>
      </g>
     </g>
     <g id="text_14">
      <!-- 0.06 -->
      <g transform="translate(28.334375 196.753974)scale(0.1 -0.1)">
       <use xlink:href="#DejaVuSans-48"/>
       <use x="63.623047" xlink:href="#DejaVuSans-46"/>
       <use x="95.410156" xlink:href="#DejaVuSans-48"/>
       <use x="159.033203" xlink:href="#DejaVuSans-54"/>
      </g>
     </g>
    </g>
    <g id="ytick_5">
     <g id="line2d_14">
      <g>
       <use style="stroke:#000000;stroke-width:0.8;" x="57.6" xlink:href="#m18fa4bc0b9" y="158.776779"/>
      </g>
     </g>
     <g id="text_15">
      <!-- 0.08 -->
      <defs>
       <path d="M 31.78125 34.625 
Q 24.75 34.625 20.71875 30.859375 
Q 16.703125 27.09375 16.703125 20.515625 
Q 16.703125 13.921875 20.71875 10.15625 
Q 24.75 6.390625 31.78125 6.390625 
Q 38.8125 6.390625 42.859375 10.171875 
Q 46.921875 13.96875 46.921875 20.515625 
Q 46.921875 27.09375 42.890625 30.859375 
Q 38.875 34.625 31.78125 34.625 
z
M 21.921875 38.8125 
Q 15.578125 40.375 12.03125 44.71875 
Q 8.5 49.078125 8.5 55.328125 
Q 8.5 64.0625 14.71875 69.140625 
Q 20.953125 74.21875 31.78125 74.21875 
Q 42.671875 74.21875 48.875 69.140625 
Q 55.078125 64.0625 55.078125 55.328125 
Q 55.078125 49.078125 51.53125 44.71875 
Q 48 40.375 41.703125 38.8125 
Q 48.828125 37.15625 52.796875 32.3125 
Q 56.78125 27.484375 56.78125 20.515625 
Q 56.78125 9.90625 50.3125 4.234375 
Q 43.84375 -1.421875 31.78125 -1.421875 
Q 19.734375 -1.421875 13.25 4.234375 
Q 6.78125 9.90625 6.78125 20.515625 
Q 6.78125 27.484375 10.78125 32.3125 
Q 14.796875 37.15625 21.921875 38.8125 
z
M 18.3125 54.390625 
Q 18.3125 48.734375 21.84375 45.5625 
Q 25.390625 42.390625 31.78125 42.390625 
Q 38.140625 42.390625 41.71875 45.5625 
Q 45.3125 48.734375 45.3125 54.390625 
Q 45.3125 60.0625 41.71875 63.234375 
Q 38.140625 66.40625 31.78125 66.40625 
Q 25.390625 66.40625 21.84375 63.234375 
Q 18.3125 60.0625 18.3125 54.390625 
z
" id="DejaVuSans-56"/>
      </defs>
      <g transform="translate(28.334375 162.575998)scale(0.1 -0.1)">
       <use xlink:href="#DejaVuSans-48"/>
       <use x="63.623047" xlink:href="#DejaVuSans-46"/>
       <use x="95.410156" xlink:href="#DejaVuSans-48"/>
       <use x="159.033203" xlink:href="#DejaVuSans-56"/>
      </g>
     </g>
    </g>
    <g id="ytick_6">
     <g id="line2d_15">
      <g>
       <use style="stroke:#000000;stroke-width:0.8;" x="57.6" xlink:href="#m18fa4bc0b9" y="124.598803"/>
      </g>
     </g>
     <g id="text_16">
      <!-- 0.10 -->
      <defs>
       <path d="M 12.40625 8.296875 
L 28.515625 8.296875 
L 28.515625 63.921875 
L 10.984375 60.40625 
L 10.984375 69.390625 
L 28.421875 72.90625 
L 38.28125 72.90625 
L 38.28125 8.296875 
L 54.390625 8.296875 
L 54.390625 0 
L 12.40625 0 
z
" id="DejaVuSans-49"/>
      </defs>
      <g transform="translate(28.334375 128.398022)scale(0.1 -0.1)">
       <use xlink:href="#DejaVuSans-48"/>
       <use x="63.623047" xlink:href="#DejaVuSans-46"/>
       <use x="95.410156" xlink:href="#DejaVuSans-49"/>
       <use x="159.033203" xlink:href="#DejaVuSans-48"/>
      </g>
     </g>
    </g>
    <g id="ytick_7">
     <g id="line2d_16">
      <g>
       <use style="stroke:#000000;stroke-width:0.8;" x="57.6" xlink:href="#m18fa4bc0b9" y="90.420827"/>
      </g>
     </g>
     <g id="text_17">
      <!-- 0.12 -->
      <g transform="translate(28.334375 94.220046)scale(0.1 -0.1)">
       <use xlink:href="#DejaVuSans-48"/>
       <use x="63.623047" xlink:href="#DejaVuSans-46"/>
       <use x="95.410156" xlink:href="#DejaVuSans-49"/>
       <use x="159.033203" xlink:href="#DejaVuSans-50"/>
      </g>
     </g>
    </g>
    <g id="ytick_8">
     <g id="line2d_17">
      <g>
       <use style="stroke:#000000;stroke-width:0.8;" x="57.6" xlink:href="#m18fa4bc0b9" y="56.242851"/>
      </g>
     </g>
     <g id="text_18">
      <!-- 0.14 -->
      <g transform="translate(28.334375 60.04207)scale(0.1 -0.1)">
       <use xlink:href="#DejaVuSans-48"/>
       <use x="63.623047" xlink:href="#DejaVuSans-46"/>
       <use x="95.410156" xlink:href="#DejaVuSans-49"/>
       <use x="159.033203" xlink:href="#DejaVuSans-52"/>
      </g>
     </g>
    </g>
    <g id="text_19">
     <!-- transmission -->
     <defs>
      <path d="M 41.109375 46.296875 
Q 39.59375 47.171875 37.8125 47.578125 
Q 36.03125 48 33.890625 48 
Q 26.265625 48 22.1875 43.046875 
Q 18.109375 38.09375 18.109375 28.8125 
L 18.109375 0 
L 9.078125 0 
L 9.078125 54.6875 
L 18.109375 54.6875 
L 18.109375 46.1875 
Q 20.953125 51.171875 25.484375 53.578125 
Q 30.03125 56 36.53125 56 
Q 37.453125 56 38.578125 55.875 
Q 39.703125 55.765625 41.0625 55.515625 
z
" id="DejaVuSans-114"/>
      <path d="M 52 44.1875 
Q 55.375 50.25 60.0625 53.125 
Q 64.75 56 71.09375 56 
Q 79.640625 56 84.28125 50.015625 
Q 88.921875 44.046875 88.921875 33.015625 
L 88.921875 0 
L 79.890625 0 
L 79.890625 32.71875 
Q 79.890625 40.578125 77.09375 44.375 
Q 74.3125 48.1875 68.609375 48.1875 
Q 61.625 48.1875 57.5625 43.546875 
Q 53.515625 38.921875 53.515625 30.90625 
L 53.515625 0 
L 44.484375 0 
L 44.484375 32.71875 
Q 44.484375 40.625 41.703125 44.40625 
Q 38.921875 48.1875 33.109375 48.1875 
Q 26.21875 48.1875 22.15625 43.53125 
Q 18.109375 38.875 18.109375 30.90625 
L 18.109375 0 
L 9.078125 0 
L 9.078125 54.6875 
L 18.109375 54.6875 
L 18.109375 46.1875 
Q 21.1875 51.21875 25.484375 53.609375 
Q 29.78125 56 35.6875 56 
Q 41.65625 56 45.828125 52.96875 
Q 50 49.953125 52 44.1875 
z
" id="DejaVuSans-109"/>
      <path d="M 9.421875 54.6875 
L 18.40625 54.6875 
L 18.40625 0 
L 9.421875 0 
z
M 9.421875 75.984375 
L 18.40625 75.984375 
L 18.40625 64.59375 
L 9.421875 64.59375 
z
" id="DejaVuSans-105"/>
      <path d="M 30.609375 48.390625 
Q 23.390625 48.390625 19.1875 42.75 
Q 14.984375 37.109375 14.984375 27.296875 
Q 14.984375 17.484375 19.15625 11.84375 
Q 23.34375 6.203125 30.609375 6.203125 
Q 37.796875 6.203125 41.984375 11.859375 
Q 46.1875 17.53125 46.1875 27.296875 
Q 46.1875 37.015625 41.984375 42.703125 
Q 37.796875 48.390625 30.609375 48.390625 
z
M 30.609375 56 
Q 42.328125 56 49.015625 48.375 
Q 55.71875 40.765625 55.71875 27.296875 
Q 55.71875 13.875 49.015625 6.21875 
Q 42.328125 -1.421875 30.609375 -1.421875 
Q 18.84375 -1.421875 12.171875 6.21875 
Q 5.515625 13.875 5.515625 27.296875 
Q 5.515625 40.765625 12.171875 48.375 
Q 18.84375 56 30.609375 56 
z
" id="DejaVuSans-111"/>
     </defs>
     <g transform="translate(22.254687 206.467062)rotate(-90)scale(0.1 -0.1)">
      <use xlink:href="#DejaVuSans-116"/>
      <use x="39.208984" xlink:href="#DejaVuSans-114"/>
      <use x="80.322266" xlink:href="#DejaVuSans-97"/>
      <use x="141.601562" xlink:href="#DejaVuSans-110"/>
      <use x="204.980469" xlink:href="#DejaVuSans-115"/>
      <use x="257.080078" xlink:href="#DejaVuSans-109"/>
      <use x="354.492188" xlink:href="#DejaVuSans-105"/>
      <use x="382.275391" xlink:href="#DejaVuSans-115"/>
      <use x="434.375" xlink:href="#DejaVuSans-115"/>
      <use x="486.474609" xlink:href="#DejaVuSans-105"/>
      <use x="514.257812" xlink:href="#DejaVuSans-111"/>
      <use x="575.439453" xlink:href="#DejaVuSans-110"/>
     </g>
    </g>
   </g>
   <g id="line2d_18">
    <path clip-path="url(#p96e24a0f4f)" d="M 398.487273 295.488 
L 391.540314 295.487643 
L 384.750127 295.487113 
L 378.111464 295.486334 
L 371.61931 295.485195 
L 365.268868 295.483548 
L 359.055547 295.481186 
L 352.974953 295.477828 
L 347.02288 295.473094 
L 341.195294 295.466481 
L 335.488331 295.457323 
L 329.898284 295.444754 
L 324.421597 295.427653 
L 319.054856 295.404595 
L 313.794783 295.37378 
L 308.638229 295.33297 
L 303.582168 295.279409 
L 298.623691 295.209749 
L 293.76 295.119977 
L 288.988402 295.005348 
L 284.306307 294.860328 
L 279.71122 294.678566 
L 275.200736 294.452883 
L 270.772543 294.175307 
L 266.424407 293.837151 
L 262.154177 293.429143 
L 257.959778 292.941628 
L 253.839208 292.364834 
L 249.790534 291.689226 
L 245.811892 290.905922 
L 241.901479 290.0072 
L 238.057556 288.987077 
L 234.27844 287.841958 
L 230.562508 286.571296 
L 226.908187 285.177896 
L 223.313957 283.667445 
L 219.778349 282.04859 
L 216.299939 280.334711 
L 212.877352 278.54476 
L 209.509254 276.703252 
L 206.194353 274.844403 
L 202.931401 273.002359 
L 199.719184 271.192256 
L 196.556528 269.453816 
L 193.442297 267.827337 
L 190.375385 266.348849 
L 187.354722 265.051766 
L 184.37927 263.966198 
L 181.448022 263.117847 
L 178.56 262.526969 
L 175.714254 262.20754 
L 172.909864 262.166679 
L 170.145933 262.404383 
L 167.421594 262.913559 
L 164.736 263.680381 
L 162.088332 264.684921 
L 159.477791 265.902031 
L 156.903603 267.302409 
L 154.365013 268.853787 
L 151.861288 270.522175 
L 149.391714 272.27309 
L 146.955597 274.072704 
L 144.552262 275.888871 
L 142.181053 277.69198 
L 139.841328 279.455624 
L 137.532465 281.157066 
L 135.253857 282.777508 
L 133.004915 284.30218 
L 130.785061 285.720263 
L 128.593735 287.024687 
L 126.430391 288.211814 
L 124.294496 289.281055 
L 122.185532 290.234435 
L 120.102991 291.076141 
L 118.046381 291.812061 
L 116.01522 292.449349 
L 114.009039 292.996018 
L 112.02738 293.460568 
L 110.069795 293.851673 
L 108.135849 294.177909 
L 106.225116 294.44754 
L 104.337181 294.668355 
L 102.471638 294.847549 
L 100.628091 294.991652 
L 98.806154 295.106493 
L 97.005448 295.19719 
L 95.225605 295.26818 
L 93.466263 295.323247 
L 91.727072 295.365582 
L 90.007687 295.397839 
L 88.307771 295.422198 
L 86.626995 295.440427 
L 84.965038 295.453946 
L 83.321587 295.463881 
L 81.696332 295.471116 
L 80.088975 295.476339 
L 78.49922 295.480076 
L 76.92678 295.482728 
L 75.371374 295.484596 
L 73.832727 295.485902 
" style="fill:none;stroke:#ff7f0e;stroke-linecap:square;stroke-width:1.5;"/>
   </g>
   <g id="line2d_19">
    <path clip-path="url(#p96e24a0f4f)" d="M 398.487273 295.487503 
L 391.540314 295.486885 
L 384.750127 295.48597 
L 378.111464 295.484623 
L 371.61931 295.48266 
L 365.268868 295.479823 
L 359.055547 295.475759 
L 352.974953 295.469987 
L 347.02288 295.461861 
L 341.195294 295.450521 
L 335.488331 295.434836 
L 329.898284 295.413332 
L 324.421597 295.38411 
L 319.054856 295.344751 
L 313.794783 295.292211 
L 308.638229 295.222703 
L 303.582168 295.131572 
L 298.623691 295.01317 
L 293.76 294.860732 
L 288.988402 294.666266 
L 284.306307 294.420466 
L 279.71122 294.11266 
L 275.200736 293.730799 
L 270.772543 293.261521 
L 266.424407 292.69028 
L 262.154177 292.001565 
L 257.959778 291.179222 
L 253.839208 290.206883 
L 249.790534 289.06852 
L 245.811892 287.749106 
L 241.901479 286.235406 
L 238.057556 284.516889 
L 234.27844 282.586789 
L 230.562508 280.443362 
L 226.908187 278.091043 
L 223.313957 275.540297 
L 219.778349 272.806173 
L 216.299939 269.909224 
L 212.877352 266.877958 
L 209.509254 263.749266 
L 206.194353 260.574934 
L 202.931401 257.426962 
L 199.719184 254.335052 
L 196.556528 251.348995 
L 193.442297 248.536683 
L 190.375385 245.960478 
L 187.354722 243.678029 
L 184.37927 241.741628 
L 181.448022 240.196591 
L 178.56 239.079575 
L 175.714254 238.417136 
L 172.909864 238.224674 
L 170.145933 238.505828 
L 167.421594 239.252374 
L 164.736 240.444622 
L 162.088332 242.052287 
L 159.477791 244.035784 
L 156.903603 246.34787 
L 154.365013 248.935532 
L 151.861288 251.742015 
L 149.391714 254.708892 
L 146.955597 257.778059 
L 144.552262 260.893565 
L 142.181053 264.003202 
L 139.841328 267.059793 
L 137.532465 270.022143 
L 135.253857 272.855643 
L 133.004915 275.532534 
L 130.785061 278.031876 
L 128.593735 280.339246 
L 126.430391 282.44625 
L 124.294496 284.349874 
L 122.185532 286.051748 
L 120.102991 287.557387 
L 118.046381 288.875517 
L 116.01522 290.017592 
L 114.009039 290.997414 
L 112.02738 291.830471 
L 110.069795 292.532817 
L 108.135849 293.120023 
L 106.225116 293.606703 
L 104.337181 294.006365 
L 102.471638 294.331017 
L 100.628091 294.590862 
L 98.806154 294.79673 
L 97.005448 294.959759 
L 95.225605 295.088005 
L 93.466263 295.1878 
L 91.727072 295.264649 
L 90.007687 295.323256 
L 88.307771 295.367538 
L 86.626995 295.400695 
L 84.965038 295.425299 
L 83.321587 295.443396 
L 81.696332 295.45659 
L 80.088975 295.466125 
L 78.49922 295.472957 
L 76.92678 295.477808 
L 75.371374 295.481225 
L 73.832727 295.483609 
" style="fill:none;stroke:#2ca02c;stroke-linecap:square;stroke-width:1.5;"/>
   </g>
   <g id="line2d_20">
    <path clip-path="url(#p96e24a0f4f)" d="M 398.487273 295.487053 
L 391.540314 295.486203 
L 384.750127 295.484943 
L 378.111464 295.483096 
L 371.61931 295.480408 
L 365.268868 295.476503 
L 359.055547 295.47088 
L 352.974953 295.462899 
L 347.02288 295.451754 
L 341.195294 295.43627 
L 335.488331 295.414459 
L 329.898284 295.384655 
L 324.421597 295.344218 
L 319.054856 295.289788 
L 313.794783 295.217157 
L 308.638229 295.121095 
L 303.582168 294.995184 
L 298.623691 294.831636 
L 293.76 294.621128 
L 288.988402 294.352649 
L 284.306307 294.013378 
L 279.71122 293.588608 
L 275.200736 293.061741 
L 270.772543 292.414364 
L 266.424407 291.626429 
L 262.154177 290.676563 
L 257.959778 289.542517 
L 253.839208 288.201772 
L 249.790534 286.632305 
L 245.811892 284.813516 
L 241.901479 282.72731 
L 238.057556 280.359305 
L 234.27844 277.700148 
L 230.562508 274.746869 
L 226.908187 271.504007 
L 223.313957 267.984077 
L 219.778349 264.20783 
L 216.299939 260.20572 
L 212.877352 256.019193 
L 209.509254 251.700759 
L 206.194353 247.31655 
L 202.931401 242.941433 
L 199.719184 238.635635 
L 196.556528 234.480287 
L 193.442297 230.562553 
L 190.375385 226.965405 
L 187.354722 223.76748 
L 184.37927 221.040948 
L 181.448022 218.848891 
L 178.56 217.242859 
L 175.714254 216.26083 
L 172.909864 215.925694 
L 170.145933 216.24437 
L 167.421594 217.2076 
L 164.736 218.790428 
L 162.088332 220.953332 
L 159.477791 223.643918 
L 156.903603 226.799076 
L 154.365013 230.34744 
L 151.861288 234.212005 
L 149.391714 238.312752 
L 146.955597 242.569127 
L 144.552262 246.902295 
L 142.181053 251.237162 
L 139.841328 255.504496 
L 137.532465 259.643643 
L 135.253857 263.605504 
L 133.004915 267.353366 
L 130.785061 270.860315 
L 128.593735 274.106362 
L 126.430391 277.077712 
L 124.294496 279.765658 
L 122.185532 282.162559 
L 120.102991 284.272062 
L 118.046381 286.123639 
L 116.01522 287.737443 
L 114.009039 289.127094 
L 112.02738 290.310424 
L 110.069795 291.307871 
L 108.135849 292.140511 
L 106.225116 292.829016 
L 104.337181 293.393033 
L 102.471638 293.850811 
L 100.628091 294.218961 
L 98.806154 294.51234 
L 97.005448 294.744022 
L 95.225605 294.925336 
L 93.466263 295.065965 
L 91.727072 295.174066 
L 90.007687 295.256426 
L 88.307771 295.318621 
L 86.626995 295.365174 
L 84.965038 295.399713 
L 83.321587 295.425114 
L 81.696332 295.44363 
L 80.088975 295.457011 
L 78.49922 295.466597 
L 76.92678 295.473406 
L 75.371374 295.4782 
L 73.832727 295.481549 
" style="fill:none;stroke:#d62728;stroke-linecap:square;stroke-width:1.5;"/>
   </g>
   <g id="line2d_21">
    <path clip-path="url(#p96e24a0f4f)" d="M 398.487273 295.486549 
L 391.540314 295.485439 
L 384.750127 295.483793 
L 378.111464 295.481372 
L 371.61931 295.477842 
L 365.268868 295.472741 
L 359.055547 295.465435 
L 352.974953 295.455064 
L 347.02288 295.44048 
L 341.195294 295.420157 
L 335.488331 295.392063 
L 329.898284 295.353488 
L 324.421597 295.300997 
L 319.054856 295.23035 
L 313.794783 295.136315 
L 308.638229 295.012393 
L 303.582168 294.848669 
L 298.623691 294.636122 
L 293.76 294.362944 
L 288.988402 294.014745 
L 284.306307 293.574885 
L 279.71122 293.02432 
L 275.200736 292.341574 
L 270.772543 291.502831 
L 266.424407 290.482174 
L 262.154177 289.251976 
L 257.959778 287.783482 
L 253.839208 286.047571 
L 249.790534 284.015738 
L 245.811892 281.661266 
L 241.901479 278.960592 
L 238.057556 275.894849 
L 234.27844 272.451565 
L 230.562508 268.626512 
L 226.908187 264.425507 
L 223.313957 259.865322 
L 219.778349 254.973246 
L 216.299939 249.787723 
L 212.877352 244.360412 
L 209.509254 238.756744 
L 206.194353 233.05972 
L 202.931401 227.37512 
L 199.719184 221.78394 
L 196.556528 216.380147 
L 193.442297 211.276407 
L 190.375385 206.581325 
L 187.354722 202.397513 
L 184.37927 198.819182 
L 181.448022 195.928955 
L 178.56 193.794802 
L 175.714254 192.467428 
L 172.909864 191.978313 
L 170.145933 192.338522 
L 167.421594 193.538332 
L 164.736 195.547655 
L 162.088332 198.317191 
L 159.477791 201.780138 
L 156.903603 205.85431 
L 154.365013 210.444776 
L 151.861288 215.447891 
L 149.391714 220.757609 
L 146.955597 226.271819 
L 144.552262 231.894346 
L 142.181053 237.534107 
L 139.841328 243.105757 
L 137.532465 248.528635 
L 135.253857 253.716766 
L 133.004915 258.605848 
L 130.785061 263.183827 
L 128.593735 267.427583 
L 126.430391 271.312882 
L 124.294496 274.828694 
L 122.185532 277.97546 
L 120.102991 280.762414 
L 118.046381 283.205547 
L 116.01522 285.325902 
L 114.009039 287.148063 
L 112.02738 288.698806 
L 110.069795 290.005925 
L 108.135849 291.097238 
L 106.225116 291.999792 
L 104.337181 292.739246 
L 102.471638 293.33944 
L 100.628091 293.822118 
L 98.806154 294.206775 
L 97.005448 294.510597 
L 95.225605 294.748474 
L 93.466263 294.933091 
L 91.727072 295.075108 
L 90.007687 295.183372 
L 88.307771 295.265139 
L 86.626995 295.326282 
L 84.965038 295.371568 
L 83.321587 295.404889 
L 81.696332 295.429241 
L 80.088975 295.446875 
L 78.49922 295.459522 
L 76.92678 295.468511 
L 75.371374 295.474842 
L 73.832727 295.479264 
" style="fill:none;stroke:#9467bd;stroke-linecap:square;stroke-width:1.5;"/>
   </g>
   <g id="line2d_22">
    <path clip-path="url(#p96e24a0f4f)" d="M 398.487273 295.48609 
L 391.540314 295.48474 
L 384.750127 295.48274 
L 378.111464 295.479799 
L 371.61931 295.475515 
L 365.268868 295.469328 
L 359.055547 295.460468 
L 352.974953 295.44789 
L 347.02288 295.43019 
L 341.195294 295.405501 
L 335.488331 295.371367 
L 329.898284 295.324598 
L 324.421597 295.261099 
L 319.054856 295.175676 
L 313.794783 295.061768 
L 308.638229 294.911063 
L 303.582168 294.713338 
L 298.623691 294.45648 
L 293.76 294.126256 
L 288.988402 293.706535 
L 284.306307 293.174816 
L 279.71122 292.507382 
L 275.200736 291.680361 
L 270.772543 290.664769 
L 266.424407 289.429076 
L 262.154177 287.939763 
L 257.959778 286.161975 
L 253.839208 284.060439 
L 249.790534 281.600646 
L 245.811892 278.750285 
L 241.901479 275.480892 
L 238.057556 271.769696 
L 234.27844 267.60159 
L 230.562508 262.971152 
L 226.908187 257.884496 
L 223.313957 252.360571 
L 219.778349 246.432046 
L 216.299939 240.146724 
L 212.877352 233.568755 
L 209.509254 226.778669 
L 206.194353 219.87459 
L 202.931401 212.968766 
L 199.719184 206.168206 
L 196.556528 199.597859 
L 193.442297 193.390458 
L 190.375385 187.675537 
L 187.354722 182.577026 
L 184.37927 178.209414 
L 181.448022 174.673574 
L 178.56 172.052883 
L 175.714254 170.409872 
L 172.909864 169.783615 
L 170.145933 170.187915 
L 167.421594 171.610439 
L 164.736 174.013119 
L 162.088332 177.334621 
L 159.477791 181.495064 
L 156.903603 186.400363 
L 154.365013 191.943619 
L 151.861288 198.006348 
L 149.391714 204.461526 
L 146.955597 211.172608 
L 144.552262 217.994448 
L 142.181053 224.826186 
L 139.841328 231.58654 
L 137.532465 238.172331 
L 135.253857 244.49468 
L 133.004915 250.484506 
L 130.785061 256.089767 
L 128.593735 261.273907 
L 126.430391 266.014647 
L 124.294496 270.302627 
L 122.185532 274.139824 
L 120.102991 277.537831 
L 118.046381 280.516097 
L 116.01522 283.100226 
L 114.009039 285.320361 
L 112.02738 287.209564 
L 110.069795 288.802168 
L 108.135849 290.13233 
L 106.225116 291.233002 
L 104.337181 292.135253 
L 102.471638 292.867678 
L 100.628091 293.456096 
L 98.806154 293.924471 
L 97.005448 294.294714 
L 95.225605 294.58495 
L 93.466263 294.810303 
L 91.727072 294.983639 
L 90.007687 295.115752 
L 88.307771 295.215547 
L 86.626995 295.290262 
L 84.965038 295.34571 
L 83.321587 295.386499 
L 81.696332 295.416242 
L 80.088975 295.437744 
L 78.49922 295.453153 
L 76.92678 295.464101 
L 75.371374 295.471813 
L 73.832727 295.477199 
" style="fill:none;stroke:#8c564b;stroke-linecap:square;stroke-width:1.5;"/>
   </g>
   <g id="line2d_23">
    <path clip-path="url(#p96e24a0f4f)" d="M 398.487273 295.485598 
L 391.540314 295.483992 
L 384.750127 295.481607 
L 378.111464 295.478105 
L 371.61931 295.473041 
L 365.268868 295.465673 
L 359.055547 295.455098 
L 352.974953 295.440107 
L 347.02288 295.419024 
L 341.195294 295.389626 
L 335.488331 295.348988 
L 329.898284 295.293307 
L 324.421597 295.21769 
L 319.054856 295.115916 
L 313.794783 294.980166 
L 308.638229 294.800739 
L 303.582168 294.56572 
L 298.623691 294.260585 
L 293.76 293.867781 
L 288.988402 293.366704 
L 284.306307 292.733726 
L 279.71122 291.942006 
L 275.200736 290.961596 
L 270.772543 289.754872 
L 266.424407 288.284906 
L 262.154177 286.51438 
L 257.959778 284.401563 
L 253.839208 281.904367 
L 249.790534 278.981725 
L 245.811892 275.595187 
L 241.901479 271.710836 
L 238.057556 267.301454 
L 234.27844 262.348867 
L 230.562508 256.846429 
L 226.908187 250.80144 
L 223.313957 244.236855 
L 219.778349 237.191747 
L 216.299939 229.722138 
L 212.877352 221.902765 
L 209.509254 213.827521 
L 206.194353 205.611653 
L 202.931401 197.395346 
L 199.719184 189.306882 
L 196.556528 181.486523 
L 193.442297 174.09218 
L 190.375385 167.278862 
L 187.354722 161.19456 
L 184.37927 155.975998 
L 181.448022 151.743779 
L 178.56 148.597678 
L 175.714254 146.612406 
L 172.909864 145.834111 
L 170.145933 146.278361 
L 167.421594 147.930873 
L 164.736 150.750524 
L 162.088332 154.671298 
L 159.477791 159.602907 
L 156.903603 165.433058 
L 154.365013 172.027663 
L 151.861288 179.222216 
L 149.391714 186.862719 
L 146.955597 194.82524 
L 144.552262 202.963986 
L 142.181053 211.133889 
L 139.841328 219.203639 
L 137.532465 227.057655 
L 135.253857 234.59725 
L 133.004915 241.74153 
L 130.785061 248.427849 
L 128.593735 254.611826 
L 126.430391 260.266872 
L 124.294496 265.382771 
L 122.185532 269.963081 
L 120.102991 274.022149 
L 118.046381 277.582761 
L 116.01522 280.674216 
L 114.009039 283.330036 
L 112.02738 285.586835 
L 110.069795 287.487849 
L 108.135849 289.077606 
L 106.225116 290.394324 
L 104.337181 291.473842 
L 102.471638 292.350365 
L 100.628091 293.055442 
L 98.806154 293.617413 
L 97.005448 294.061261 
L 95.225605 294.408652 
L 93.466263 294.678108 
L 91.727072 294.885253 
L 90.007687 295.043089 
L 88.307771 295.162301 
L 86.626995 295.251559 
L 84.965038 295.317809 
L 83.321587 295.366556 
L 81.696332 295.402112 
L 80.088975 295.42781 
L 78.49922 295.446215 
L 76.92678 295.459288 
L 75.371374 295.468502 
L 73.832727 295.474942 
" style="fill:none;stroke:#e377c2;stroke-linecap:square;stroke-width:1.5;"/>
   </g>
   <g id="line2d_24">
    <path clip-path="url(#p96e24a0f4f)" d="M 398.487273 295.48513 
L 391.540314 295.483284 
L 384.750127 295.480548 
L 378.111464 295.47653 
L 371.61931 295.470681 
L 365.268868 295.462224 
L 359.055547 295.450102 
L 352.974953 295.432901 
L 347.02288 295.408756 
L 341.195294 295.375143 
L 335.488331 295.328449 
L 329.898284 295.264531 
L 324.421597 295.177777 
L 319.054856 295.061034 
L 313.794783 294.905318 
L 308.638229 294.699473 
L 303.582168 294.429809 
L 298.623691 294.079749 
L 293.76 293.629485 
L 288.988402 293.055594 
L 284.306307 292.330578 
L 279.71122 291.422776 
L 275.200736 290.296843 
L 270.772543 288.914014 
L 266.424407 287.233073 
L 262.154177 285.207738 
L 257.959778 282.785322 
L 253.839208 279.922028 
L 249.790534 276.571512 
L 245.811892 272.68947 
L 241.901479 268.236925 
L 238.057556 263.182654 
L 234.27844 257.505792 
L 230.562508 251.198508 
L 226.908187 244.268539 
L 223.313957 236.741201 
L 219.778349 228.660883 
L 216.299939 220.092641 
L 212.877352 211.123413 
L 209.509254 201.861957 
L 206.194353 192.439184 
L 202.931401 183.004763 
L 199.719184 173.710801 
L 196.556528 164.727224 
L 193.442297 156.232701 
L 190.375385 148.403319 
L 187.354722 141.408073 
L 184.37927 135.403195 
L 181.448022 130.526242 
L 178.56 126.890762 
L 175.714254 124.582301 
L 172.909864 123.656144 
L 170.145933 124.135531 
L 167.421594 126.009441 
L 164.736 129.231772 
L 162.088332 133.722243 
L 159.477791 139.364713 
L 156.903603 146.017024 
L 154.365013 153.548358 
L 151.861288 161.802006 
L 149.391714 170.598593 
L 146.955597 179.760646 
L 144.552262 189.11672 
L 142.181053 198.504602 
L 139.841328 207.775135 
L 137.532465 216.795947 
L 135.253857 225.454673 
L 133.004915 233.660719 
L 130.785061 241.344793 
L 128.593735 248.457245 
L 126.430391 254.966596 
L 124.294496 260.857676 
L 122.185532 266.128262 
L 120.102991 270.790866 
L 118.046381 274.87946 
L 116.01522 278.432572 
L 114.009039 281.488607 
L 112.02738 284.090474 
L 110.069795 286.283966 
L 108.135849 288.115445 
L 106.225116 289.630206 
L 104.337181 290.871338 
L 102.471638 291.878916 
L 100.628091 292.689463 
L 98.806154 293.335631 
L 97.005448 293.84613 
L 95.225605 294.245818 
L 93.466263 294.555911 
L 91.727072 294.794254 
L 90.007687 294.975758 
L 88.307771 295.112845 
L 86.626995 295.215552 
L 84.965038 295.291823 
L 83.321587 295.347955 
L 81.696332 295.3889 
L 80.088975 295.418506 
L 78.49922 295.439727 
L 76.92678 295.454807 
L 75.371374 295.465432 
L 73.832727 295.472854 
" style="fill:none;stroke:#7f7f7f;stroke-linecap:square;stroke-width:1.5;"/>
   </g>
   <g id="line2d_25">
    <path clip-path="url(#p96e24a0f4f)" d="M 398.487273 295.484632 
L 391.540314 295.482527 
L 384.750127 295.479407 
L 378.111464 295.474822 
L 371.61931 295.468143 
L 365.268868 295.458499 
L 359.055547 295.444701 
L 352.974953 295.425135 
L 347.02288 295.397613 
L 341.195294 295.359196 
L 335.488331 295.306071 
L 329.898284 295.233334 
L 324.421597 295.13485 
L 319.054856 295.002033 
L 313.794783 294.824521 
L 308.638229 294.589999 
L 303.582168 294.282837 
L 298.623691 293.884108 
L 293.76 293.371197 
L 288.988402 292.717427 
L 284.306307 291.891739 
L 279.71122 290.85839 
L 275.200736 289.576846 
L 270.772543 288.002339 
L 266.424407 286.086589 
L 262.154177 283.778468 
L 257.959778 281.025137 
L 253.839208 277.768026 
L 249.790534 273.953286 
L 245.811892 269.534309 
L 241.901479 264.466472 
L 238.057556 258.713867 
L 234.27844 252.252489 
L 230.562508 245.07325 
L 226.908187 237.184984 
L 223.313957 228.616843 
L 219.778349 219.419509 
L 216.299939 209.666363 
L 212.877352 199.45512 
L 209.509254 188.908147 
L 206.194353 178.173578 
L 202.931401 167.4274 
L 199.719184 156.84324 
L 196.556528 146.607892 
L 193.442297 136.925106 
L 190.375385 127.996326 
L 187.354722 120.01448 
L 184.37927 113.157624 
L 181.448022 107.582273 
L 178.56 103.417954 
L 175.714254 100.76362 
L 172.909864 99.684378 
L 170.145933 100.207869 
L 167.421594 102.322387 
L 164.736 105.974981 
L 162.088332 111.063229 
L 159.477791 117.460578 
L 156.903603 125.034728 
L 154.365013 133.615347 
L 151.861288 143.011353 
L 149.391714 153.02374 
L 146.955597 163.452294 
L 144.552262 174.102516 
L 142.181053 184.792097 
L 139.841328 195.354967 
L 137.532465 205.642909 
L 135.253857 215.527053 
L 133.004915 224.899459 
L 130.785061 233.672415 
L 128.593735 241.780132 
L 126.430391 249.19614 
L 124.294496 255.916211 
L 122.185532 261.937661 
L 120.102991 267.273537 
L 118.046381 271.952425 
L 116.01522 276.013667 
L 114.009039 279.503883 
L 112.02738 282.474249 
L 110.069795 284.978118 
L 108.135849 287.068942 
L 106.225116 288.798621 
L 104.337181 290.216287 
L 102.471638 291.367404 
L 100.628091 292.293114 
L 98.806154 293.030473 
L 97.005448 293.612846 
L 95.225605 294.068929 
L 93.466263 294.422897 
L 91.727072 294.695125 
L 90.007687 294.902612 
L 88.307771 295.059355 
L 86.626995 295.176725 
L 84.965038 295.263847 
L 83.321587 295.327955 
L 81.696332 295.374719 
L 80.088975 295.408534 
L 78.49922 295.432772 
L 76.92678 295.449992 
L 75.371374 295.462119 
L 73.832727 295.470592 
" style="fill:none;stroke:#bcbd22;stroke-linecap:square;stroke-width:1.5;"/>
   </g>
   <g id="line2d_26">
    <path clip-path="url(#p96e24a0f4f)" d="M 398.487273 295.484172 
L 391.540314 295.481828 
L 384.750127 295.478364 
L 378.111464 295.473264 
L 371.61931 295.465821 
L 365.268868 295.455079 
L 359.055547 295.439707 
L 352.974953 295.417896 
L 347.02288 295.387225 
L 341.195294 295.344478 
L 335.488331 295.28542 
L 329.898284 295.204497 
L 324.421597 295.094565 
L 319.054856 294.94662 
L 313.794783 294.749424 
L 308.638229 294.489158 
L 303.582168 294.147483 
L 298.623691 293.703729 
L 293.76 293.133072 
L 288.988402 292.405746 
L 284.306307 291.487176 
L 279.71122 290.337777 
L 275.200736 288.912863 
L 270.772543 287.162626 
L 266.424407 285.032642 
L 262.154177 282.465225 
L 257.959778 279.400805 
L 253.839208 275.780014 
L 249.790534 271.544249 
L 245.811892 266.631079 
L 241.901479 260.994389 
L 238.057556 254.596498 
L 234.27844 247.410652 
L 230.562508 239.426497 
L 226.908187 230.653361 
L 223.313957 221.122898 
L 219.778349 210.891128 
L 216.299939 200.040296 
L 212.877352 188.680115 
L 209.509254 176.947607 
L 206.194353 165.006755 
L 202.931401 153.044913 
L 199.719184 141.258178 
L 196.556528 129.861363 
L 193.442297 119.07895 
L 190.375385 109.133171 
L 187.354722 100.2377 
L 184.37927 92.590714 
L 181.448022 86.368167 
L 178.56 81.717129 
L 175.714254 78.74925 
L 172.909864 77.535722 
L 170.145933 78.103674 
L 167.421594 80.43215 
L 164.736 84.460744 
L 162.088332 90.103778 
L 159.477791 97.225803 
L 156.903603 105.655681 
L 154.365013 115.199911 
L 151.861288 125.648683 
L 149.391714 136.78379 
L 146.955597 148.386581 
L 144.552262 160.243845 
L 142.181053 172.152395 
L 139.841328 183.923711 
L 137.532465 195.386794 
L 135.253857 206.38847 
L 133.004915 216.810531 
L 130.785061 226.576618 
L 128.593735 235.621683 
L 126.430391 243.900362 
L 124.294496 251.392577 
L 122.185532 258.100088 
L 120.102991 264.042632 
L 118.046381 269.254149 
L 116.01522 273.779133 
L 114.009039 277.669412 
L 112.02738 280.98134 
L 110.069795 283.773133 
L 108.135849 286.102974 
L 106.225116 288.029351 
L 104.337181 289.6086 
L 102.471638 290.891421 
L 100.628091 291.923643 
L 98.806154 292.746527 
L 97.005448 293.396559 
L 95.225605 293.905433 
L 93.466263 294.300253 
L 91.727072 294.603865 
L 90.007687 294.835273 
L 88.307771 295.010085 
L 86.626995 295.140959 
L 84.965038 295.238057 
L 83.321587 295.309483 
L 81.696332 295.361593 
L 80.088975 295.399285 
L 78.49922 295.426311 
L 76.92678 295.44552 
L 75.371374 295.459055 
L 73.832727 295.46851 
" style="fill:none;stroke:#17becf;stroke-linecap:square;stroke-width:1.5;"/>
   </g>
   <g id="line2d_27">
    <path clip-path="url(#p96e24a0f4f)" d="M 398.487273 295.483672 
L 391.540314 295.481072 
L 384.750127 295.477216 
L 378.111464 295.471547 
L 371.61931 295.463291 
L 365.268868 295.451381 
L 359.055547 295.43435 
L 352.974953 295.410121 
L 347.02288 295.376059 
L 341.195294 295.328585 
L 335.488331 295.262992 
L 329.898284 295.173172 
L 324.421597 295.05127 
L 319.054856 294.887237 
L 313.794783 294.668369 
L 308.638229 294.378988 
L 303.582168 293.999992 
L 298.623691 293.508625 
L 293.76 292.876363 
L 288.988402 292.069097 
L 284.306307 291.049744 
L 279.71122 289.774373 
L 275.200736 288.193339 
L 270.772543 286.251558 
L 266.424407 283.88887 
L 262.154177 281.041089 
L 257.959778 277.6418 
L 253.839208 273.624129 
L 249.790534 268.923096 
L 245.811892 263.476798 
L 241.901479 257.22534 
L 238.057556 250.128301 
L 234.27844 242.15758 
L 230.562508 233.301311 
L 226.908187 223.569725 
L 223.313957 212.998145 
L 219.778349 201.648798 
L 216.299939 189.61232 
L 212.877352 177.009365 
L 209.509254 163.990775 
L 206.194353 150.737905 
L 202.931401 137.463449 
L 199.719184 124.385215 
L 196.556528 111.736065 
L 193.442297 99.765498 
L 190.375385 88.720767 
L 187.354722 78.838975 
L 184.37927 70.339972 
L 181.448022 63.419399 
L 178.56 58.241192 
L 175.714254 54.930463 
L 172.909864 53.568 
L 170.145933 54.182239 
L 167.421594 56.745771 
L 164.736 61.201758 
L 162.088332 67.446782 
L 159.477791 75.328661 
L 156.903603 84.661496 
L 154.365013 95.234668 
L 151.861288 106.820001 
L 149.391714 119.177683 
L 146.955597 132.062952 
L 144.552262 145.233363 
L 142.181053 158.453281 
L 139.841328 171.504341 
L 137.532465 184.216675 
L 135.253857 196.441549 
L 133.004915 208.038887 
L 130.785061 218.901246 
L 128.593735 228.954266 
L 126.430391 238.152947 
L 124.294496 246.478214 
L 122.185532 253.93324 
L 120.102991 260.539796 
L 118.046381 266.334531 
L 116.01522 271.364679 
L 114.009039 275.685693 
L 112.02738 279.362684 
L 110.069795 282.463458 
L 108.135849 285.053479 
L 106.225116 287.196272 
L 104.337181 288.952473 
L 102.471638 290.378548 
L 100.628091 291.525953 
L 98.806154 292.440727 
L 97.005448 293.163389 
L 95.225605 293.729046 
L 93.466263 294.167726 
L 91.727072 294.504959 
L 90.007687 294.762064 
L 88.307771 294.956369 
L 86.626995 295.101895 
L 84.965038 295.209917 
L 83.321587 295.289398 
L 81.696332 295.347371 
L 80.088975 295.389292 
L 78.49922 295.419344 
L 76.92678 295.440703 
L 75.371374 295.455752 
L 73.832727 295.466262 
" style="fill:none;stroke:#1f77b4;stroke-linecap:square;stroke-width:1.5;"/>
   </g>
   <g id="patch_3">
    <path d="M 57.6 307.584 
L 57.6 41.472 
" style="fill:none;stroke:#000000;stroke-linecap:square;stroke-linejoin:miter;stroke-width:0.8;"/>
   </g>
   <g id="patch_4">
    <path d="M 414.72 307.584 
L 414.72 41.472 
" style="fill:none;stroke:#000000;stroke-linecap:square;stroke-linejoin:miter;stroke-width:0.8;"/>
   </g>
   <g id="patch_5">
    <path d="M 57.6 307.584 
L 414.72 307.584 
" style="fill:none;stroke:#000000;stroke-linecap:square;stroke-linejoin:miter;stroke-width:0.8;"/>
   </g>
   <g id="patch_6">
    <path d="M 57.6 41.472 
L 414.72 41.472 
" style="fill:none;stroke:#000000;stroke-linecap:square;stroke-linejoin:miter;stroke-width:0.8;"/>
   </g>
   <g id="text_20">
    <!-- transmissionToWavelengths -->
    <defs>
     <path d="M -0.296875 72.90625 
L 61.375 72.90625 
L 61.375 64.59375 
L 35.5 64.59375 
L 35.5 0 
L 25.59375 0 
L 25.59375 64.59375 
L -0.296875 64.59375 
z
" id="DejaVuSans-84"/>
     <path d="M 3.328125 72.90625 
L 13.28125 72.90625 
L 28.609375 11.28125 
L 43.890625 72.90625 
L 54.984375 72.90625 
L 70.3125 11.28125 
L 85.59375 72.90625 
L 95.609375 72.90625 
L 77.296875 0 
L 64.890625 0 
L 49.515625 63.28125 
L 33.984375 0 
L 21.578125 0 
z
" id="DejaVuSans-87"/>
    </defs>
    <g transform="translate(152.796562 35.472)scale(0.12 -0.12)">
     <use xlink:href="#DejaVuSans-116"/>
     <use x="39.208984" xlink:href="#DejaVuSans-114"/>
     <use x="80.322266" xlink:href="#DejaVuSans-97"/>
     <use x="141.601562" xlink:href="#DejaVuSans-110"/>
     <use x="204.980469" xlink:href="#DejaVuSans-115"/>
     <use x="257.080078" xlink:href="#DejaVuSans-109"/>
     <use x="354.492188" xlink:href="#DejaVuSans-105"/>
     <use x="382.275391" xlink:href="#DejaVuSans-115"/>
     <use x="434.375" xlink:href="#DejaVuSans-115"/>
     <use x="486.474609" xlink:href="#DejaVuSans-105"/>
     <use x="514.257812" xlink:href="#DejaVuSans-111"/>
     <use x="575.439453" xlink:href="#DejaVuSans-110"/>
     <use x="638.818359" xlink:href="#DejaVuSans-84"/>
     <use x="682.902344" xlink:href="#DejaVuSans-111"/>
     <use x="744.083984" xlink:href="#DejaVuSans-87"/>
     <use x="836.585938" xlink:href="#DejaVuSans-97"/>
     <use x="897.865234" xlink:href="#DejaVuSans-118"/>
     <use x="957.044922" xlink:href="#DejaVuSans-101"/>
     <use x="1018.568359" xlink:href="#DejaVuSans-108"/>
     <use x="1046.351562" xlink:href="#DejaVuSans-101"/>
     <use x="1107.875" xlink:href="#DejaVuSans-110"/>
     <use x="1171.253906" xlink:href="#DejaVuSans-103"/>
     <use x="1234.730469" xlink:href="#DejaVuSans-116"/>
     <use x="1273.939453" xlink:href="#DejaVuSans-104"/>
     <use x="1337.318359" xlink:href="#DejaVuSans-115"/>
    </g>
   </g>
   <g id="legend_1">
    <g id="patch_7">
     <path d="M 265.565313 199.0345 
L 407.72 199.0345 
Q 409.72 199.0345 409.72 197.0345 
L 409.72 48.472 
Q 409.72 46.472 407.72 46.472 
L 265.565313 46.472 
Q 263.565313 46.472 263.565313 48.472 
L 263.565313 197.0345 
Q 263.565313 199.0345 265.565313 199.0345 
z
" style="fill:#ffffff;opacity:0.8;stroke:#cccccc;stroke-linejoin:miter;"/>
    </g>
    <g id="line2d_28">
     <path d="M 267.565313 54.570437 
L 287.565313 54.570437 
" style="fill:none;stroke:#ff7f0e;stroke-linecap:square;stroke-width:1.5;"/>
    </g>
    <g id="line2d_29"/>
    <g id="text_21">
     <!-- spacing_thickness:0.5 -->
     <defs>
      <path d="M 18.109375 8.203125 
L 18.109375 -20.796875 
L 9.078125 -20.796875 
L 9.078125 54.6875 
L 18.109375 54.6875 
L 18.109375 46.390625 
Q 20.953125 51.265625 25.265625 53.625 
Q 29.59375 56 35.59375 56 
Q 45.5625 56 51.78125 48.09375 
Q 58.015625 40.1875 58.015625 27.296875 
Q 58.015625 14.40625 51.78125 6.484375 
Q 45.5625 -1.421875 35.59375 -1.421875 
Q 29.59375 -1.421875 25.265625 0.953125 
Q 20.953125 3.328125 18.109375 8.203125 
z
M 48.6875 27.296875 
Q 48.6875 37.203125 44.609375 42.84375 
Q 40.53125 48.484375 33.40625 48.484375 
Q 26.265625 48.484375 22.1875 42.84375 
Q 18.109375 37.203125 18.109375 27.296875 
Q 18.109375 17.390625 22.1875 11.75 
Q 26.265625 6.109375 33.40625 6.109375 
Q 40.53125 6.109375 44.609375 11.75 
Q 48.6875 17.390625 48.6875 27.296875 
z
" id="DejaVuSans-112"/>
      <path d="M 48.78125 52.59375 
L 48.78125 44.1875 
Q 44.96875 46.296875 41.140625 47.34375 
Q 37.3125 48.390625 33.40625 48.390625 
Q 24.65625 48.390625 19.8125 42.84375 
Q 14.984375 37.3125 14.984375 27.296875 
Q 14.984375 17.28125 19.8125 11.734375 
Q 24.65625 6.203125 33.40625 6.203125 
Q 37.3125 6.203125 41.140625 7.25 
Q 44.96875 8.296875 48.78125 10.40625 
L 48.78125 2.09375 
Q 45.015625 0.34375 40.984375 -0.53125 
Q 36.96875 -1.421875 32.421875 -1.421875 
Q 20.0625 -1.421875 12.78125 6.34375 
Q 5.515625 14.109375 5.515625 27.296875 
Q 5.515625 40.671875 12.859375 48.328125 
Q 20.21875 56 33.015625 56 
Q 37.15625 56 41.109375 55.140625 
Q 45.0625 54.296875 48.78125 52.59375 
z
" id="DejaVuSans-99"/>
      <path d="M 50.984375 -16.609375 
L 50.984375 -23.578125 
L -0.984375 -23.578125 
L -0.984375 -16.609375 
z
" id="DejaVuSans-95"/>
      <path d="M 9.078125 75.984375 
L 18.109375 75.984375 
L 18.109375 31.109375 
L 44.921875 54.6875 
L 56.390625 54.6875 
L 27.390625 29.109375 
L 57.625 0 
L 45.90625 0 
L 18.109375 26.703125 
L 18.109375 0 
L 9.078125 0 
z
" id="DejaVuSans-107"/>
      <path d="M 11.71875 12.40625 
L 22.015625 12.40625 
L 22.015625 0 
L 11.71875 0 
z
M 11.71875 51.703125 
L 22.015625 51.703125 
L 22.015625 39.3125 
L 11.71875 39.3125 
z
" id="DejaVuSans-58"/>
     </defs>
     <g transform="translate(295.565313 58.070437)scale(0.1 -0.1)">
      <use xlink:href="#DejaVuSans-115"/>
      <use x="52.099609" xlink:href="#DejaVuSans-112"/>
      <use x="115.576172" xlink:href="#DejaVuSans-97"/>
      <use x="176.855469" xlink:href="#DejaVuSans-99"/>
      <use x="231.835938" xlink:href="#DejaVuSans-105"/>
      <use x="259.619141" xlink:href="#DejaVuSans-110"/>
      <use x="322.998047" xlink:href="#DejaVuSans-103"/>
      <use x="386.474609" xlink:href="#DejaVuSans-95"/>
      <use x="436.474609" xlink:href="#DejaVuSans-116"/>
      <use x="475.683594" xlink:href="#DejaVuSans-104"/>
      <use x="539.0625" xlink:href="#DejaVuSans-105"/>
      <use x="566.845703" xlink:href="#DejaVuSans-99"/>
      <use x="621.826172" xlink:href="#DejaVuSans-107"/>
      <use x="679.736328" xlink:href="#DejaVuSans-110"/>
      <use x="743.115234" xlink:href="#DejaVuSans-101"/>
      <use x="804.638672" xlink:href="#DejaVuSans-115"/>
      <use x="856.738281" xlink:href="#DejaVuSans-115"/>
      <use x="908.837891" xlink:href="#DejaVuSans-58"/>
      <use x="942.529297" xlink:href="#DejaVuSans-48"/>
      <use x="1006.152344" xlink:href="#DejaVuSans-46"/>
      <use x="1037.939453" xlink:href="#DejaVuSans-53"/>
     </g>
    </g>
    <g id="line2d_30">
     <path d="M 267.565313 69.526687 
L 287.565313 69.526687 
" style="fill:none;stroke:#2ca02c;stroke-linecap:square;stroke-width:1.5;"/>
    </g>
    <g id="line2d_31"/>
    <g id="text_22">
     <!-- spacing_thickness:1.0 -->
     <g transform="translate(295.565313 73.026687)scale(0.1 -0.1)">
      <use xlink:href="#DejaVuSans-115"/>
      <use x="52.099609" xlink:href="#DejaVuSans-112"/>
      <use x="115.576172" xlink:href="#DejaVuSans-97"/>
      <use x="176.855469" xlink:href="#DejaVuSans-99"/>
      <use x="231.835938" xlink:href="#DejaVuSans-105"/>
      <use x="259.619141" xlink:href="#DejaVuSans-110"/>
      <use x="322.998047" xlink:href="#DejaVuSans-103"/>
      <use x="386.474609" xlink:href="#DejaVuSans-95"/>
      <use x="436.474609" xlink:href="#DejaVuSans-116"/>
      <use x="475.683594" xlink:href="#DejaVuSans-104"/>
      <use x="539.0625" xlink:href="#DejaVuSans-105"/>
      <use x="566.845703" xlink:href="#DejaVuSans-99"/>
      <use x="621.826172" xlink:href="#DejaVuSans-107"/>
      <use x="679.736328" xlink:href="#DejaVuSans-110"/>
      <use x="743.115234" xlink:href="#DejaVuSans-101"/>
      <use x="804.638672" xlink:href="#DejaVuSans-115"/>
      <use x="856.738281" xlink:href="#DejaVuSans-115"/>
      <use x="908.837891" xlink:href="#DejaVuSans-58"/>
      <use x="942.529297" xlink:href="#DejaVuSans-49"/>
      <use x="1006.152344" xlink:href="#DejaVuSans-46"/>
      <use x="1037.939453" xlink:href="#DejaVuSans-48"/>
     </g>
    </g>
    <g id="line2d_32">
     <path d="M 267.565313 84.482937 
L 287.565313 84.482937 
" style="fill:none;stroke:#d62728;stroke-linecap:square;stroke-width:1.5;"/>
    </g>
    <g id="line2d_33"/>
    <g id="text_23">
     <!-- spacing_thickness:1.5 -->
     <g transform="translate(295.565313 87.982937)scale(0.1 -0.1)">
      <use xlink:href="#DejaVuSans-115"/>
      <use x="52.099609" xlink:href="#DejaVuSans-112"/>
      <use x="115.576172" xlink:href="#DejaVuSans-97"/>
      <use x="176.855469" xlink:href="#DejaVuSans-99"/>
      <use x="231.835938" xlink:href="#DejaVuSans-105"/>
      <use x="259.619141" xlink:href="#DejaVuSans-110"/>
      <use x="322.998047" xlink:href="#DejaVuSans-103"/>
      <use x="386.474609" xlink:href="#DejaVuSans-95"/>
      <use x="436.474609" xlink:href="#DejaVuSans-116"/>
      <use x="475.683594" xlink:href="#DejaVuSans-104"/>
      <use x="539.0625" xlink:href="#DejaVuSans-105"/>
      <use x="566.845703" xlink:href="#DejaVuSans-99"/>
      <use x="621.826172" xlink:href="#DejaVuSans-107"/>
      <use x="679.736328" xlink:href="#DejaVuSans-110"/>
      <use x="743.115234" xlink:href="#DejaVuSans-101"/>
      <use x="804.638672" xlink:href="#DejaVuSans-115"/>
      <use x="856.738281" xlink:href="#DejaVuSans-115"/>
      <use x="908.837891" xlink:href="#DejaVuSans-58"/>
      <use x="942.529297" xlink:href="#DejaVuSans-49"/>
      <use x="1006.152344" xlink:href="#DejaVuSans-46"/>
      <use x="1037.939453" xlink:href="#DejaVuSans-53"/>
     </g>
    </g>
    <g id="line2d_34">
     <path d="M 267.565313 99.439188 
L 287.565313 99.439188 
" style="fill:none;stroke:#9467bd;stroke-linecap:square;stroke-width:1.5;"/>
    </g>
    <g id="line2d_35"/>
    <g id="text_24">
     <!-- spacing_thickness:2.0 -->
     <g transform="translate(295.565313 102.939188)scale(0.1 -0.1)">
      <use xlink:href="#DejaVuSans-115"/>
      <use x="52.099609" xlink:href="#DejaVuSans-112"/>
      <use x="115.576172" xlink:href="#DejaVuSans-97"/>
      <use x="176.855469" xlink:href="#DejaVuSans-99"/>
      <use x="231.835938" xlink:href="#DejaVuSans-105"/>
      <use x="259.619141" xlink:href="#DejaVuSans-110"/>
      <use x="322.998047" xlink:href="#DejaVuSans-103"/>
      <use x="386.474609" xlink:href="#DejaVuSans-95"/>
      <use x="436.474609" xlink:href="#DejaVuSans-116"/>
      <use x="475.683594" xlink:href="#DejaVuSans-104"/>
      <use x="539.0625" xlink:href="#DejaVuSans-105"/>
      <use x="566.845703" xlink:href="#DejaVuSans-99"/>
      <use x="621.826172" xlink:href="#DejaVuSans-107"/>
      <use x="679.736328" xlink:href="#DejaVuSans-110"/>
      <use x="743.115234" xlink:href="#DejaVuSans-101"/>
      <use x="804.638672" xlink:href="#DejaVuSans-115"/>
      <use x="856.738281" xlink:href="#DejaVuSans-115"/>
      <use x="908.837891" xlink:href="#DejaVuSans-58"/>
      <use x="942.529297" xlink:href="#DejaVuSans-50"/>
      <use x="1006.152344" xlink:href="#DejaVuSans-46"/>
      <use x="1037.939453" xlink:href="#DejaVuSans-48"/>
     </g>
    </g>
    <g id="line2d_36">
     <path d="M 267.565313 114.395437 
L 287.565313 114.395437 
" style="fill:none;stroke:#8c564b;stroke-linecap:square;stroke-width:1.5;"/>
    </g>
    <g id="line2d_37"/>
    <g id="text_25">
     <!-- spacing_thickness:2.5 -->
     <g transform="translate(295.565313 117.895437)scale(0.1 -0.1)">
      <use xlink:href="#DejaVuSans-115"/>
      <use x="52.099609" xlink:href="#DejaVuSans-112"/>
      <use x="115.576172" xlink:href="#DejaVuSans-97"/>
      <use x="176.855469" xlink:href="#DejaVuSans-99"/>
      <use x="231.835938" xlink:href="#DejaVuSans-105"/>
      <use x="259.619141" xlink:href="#DejaVuSans-110"/>
      <use x="322.998047" xlink:href="#DejaVuSans-103"/>
      <use x="386.474609" xlink:href="#DejaVuSans-95"/>
      <use x="436.474609" xlink:href="#DejaVuSans-116"/>
      <use x="475.683594" xlink:href="#DejaVuSans-104"/>
      <use x="539.0625" xlink:href="#DejaVuSans-105"/>
      <use x="566.845703" xlink:href="#DejaVuSans-99"/>
      <use x="621.826172" xlink:href="#DejaVuSans-107"/>
      <use x="679.736328" xlink:href="#DejaVuSans-110"/>
      <use x="743.115234" xlink:href="#DejaVuSans-101"/>
      <use x="804.638672" xlink:href="#DejaVuSans-115"/>
      <use x="856.738281" xlink:href="#DejaVuSans-115"/>
      <use x="908.837891" xlink:href="#DejaVuSans-58"/>
      <use x="942.529297" xlink:href="#DejaVuSans-50"/>
      <use x="1006.152344" xlink:href="#DejaVuSans-46"/>
      <use x="1037.939453" xlink:href="#DejaVuSans-53"/>
     </g>
    </g>
    <g id="line2d_38">
     <path d="M 267.565313 129.351687 
L 287.565313 129.351687 
" style="fill:none;stroke:#e377c2;stroke-linecap:square;stroke-width:1.5;"/>
    </g>
    <g id="line2d_39"/>
    <g id="text_26">
     <!-- spacing_thickness:3.0 -->
     <g transform="translate(295.565313 132.851687)scale(0.1 -0.1)">
      <use xlink:href="#DejaVuSans-115"/>
      <use x="52.099609" xlink:href="#DejaVuSans-112"/>
      <use x="115.576172" xlink:href="#DejaVuSans-97"/>
      <use x="176.855469" xlink:href="#DejaVuSans-99"/>
      <use x="231.835938" xlink:href="#DejaVuSans-105"/>
      <use x="259.619141" xlink:href="#DejaVuSans-110"/>
      <use x="322.998047" xlink:href="#DejaVuSans-103"/>
      <use x="386.474609" xlink:href="#DejaVuSans-95"/>
      <use x="436.474609" xlink:href="#DejaVuSans-116"/>
      <use x="475.683594" xlink:href="#DejaVuSans-104"/>
      <use x="539.0625" xlink:href="#DejaVuSans-105"/>
      <use x="566.845703" xlink:href="#DejaVuSans-99"/>
      <use x="621.826172" xlink:href="#DejaVuSans-107"/>
      <use x="679.736328" xlink:href="#DejaVuSans-110"/>
      <use x="743.115234" xlink:href="#DejaVuSans-101"/>
      <use x="804.638672" xlink:href="#DejaVuSans-115"/>
      <use x="856.738281" xlink:href="#DejaVuSans-115"/>
      <use x="908.837891" xlink:href="#DejaVuSans-58"/>
      <use x="942.529297" xlink:href="#DejaVuSans-51"/>
      <use x="1006.152344" xlink:href="#DejaVuSans-46"/>
      <use x="1037.939453" xlink:href="#DejaVuSans-48"/>
     </g>
    </g>
    <g id="line2d_40">
     <path d="M 267.565313 144.307937 
L 287.565313 144.307937 
" style="fill:none;stroke:#7f7f7f;stroke-linecap:square;stroke-width:1.5;"/>
    </g>
    <g id="line2d_41"/>
    <g id="text_27">
     <!-- spacing_thickness:3.5 -->
     <g transform="translate(295.565313 147.807937)scale(0.1 -0.1)">
      <use xlink:href="#DejaVuSans-115"/>
      <use x="52.099609" xlink:href="#DejaVuSans-112"/>
      <use x="115.576172" xlink:href="#DejaVuSans-97"/>
      <use x="176.855469" xlink:href="#DejaVuSans-99"/>
      <use x="231.835938" xlink:href="#DejaVuSans-105"/>
      <use x="259.619141" xlink:href="#DejaVuSans-110"/>
      <use x="322.998047" xlink:href="#DejaVuSans-103"/>
      <use x="386.474609" xlink:href="#DejaVuSans-95"/>
      <use x="436.474609" xlink:href="#DejaVuSans-116"/>
      <use x="475.683594" xlink:href="#DejaVuSans-104"/>
      <use x="539.0625" xlink:href="#DejaVuSans-105"/>
      <use x="566.845703" xlink:href="#DejaVuSans-99"/>
      <use x="621.826172" xlink:href="#DejaVuSans-107"/>
      <use x="679.736328" xlink:href="#DejaVuSans-110"/>
      <use x="743.115234" xlink:href="#DejaVuSans-101"/>
      <use x="804.638672" xlink:href="#DejaVuSans-115"/>
      <use x="856.738281" xlink:href="#DejaVuSans-115"/>
      <use x="908.837891" xlink:href="#DejaVuSans-58"/>
      <use x="942.529297" xlink:href="#DejaVuSans-51"/>
      <use x="1006.152344" xlink:href="#DejaVuSans-46"/>
      <use x="1037.939453" xlink:href="#DejaVuSans-53"/>
     </g>
    </g>
    <g id="line2d_42">
     <path d="M 267.565313 159.264187 
L 287.565313 159.264187 
" style="fill:none;stroke:#bcbd22;stroke-linecap:square;stroke-width:1.5;"/>
    </g>
    <g id="line2d_43"/>
    <g id="text_28">
     <!-- spacing_thickness:4.0 -->
     <g transform="translate(295.565313 162.764187)scale(0.1 -0.1)">
      <use xlink:href="#DejaVuSans-115"/>
      <use x="52.099609" xlink:href="#DejaVuSans-112"/>
      <use x="115.576172" xlink:href="#DejaVuSans-97"/>
      <use x="176.855469" xlink:href="#DejaVuSans-99"/>
      <use x="231.835938" xlink:href="#DejaVuSans-105"/>
      <use x="259.619141" xlink:href="#DejaVuSans-110"/>
      <use x="322.998047" xlink:href="#DejaVuSans-103"/>
      <use x="386.474609" xlink:href="#DejaVuSans-95"/>
      <use x="436.474609" xlink:href="#DejaVuSans-116"/>
      <use x="475.683594" xlink:href="#DejaVuSans-104"/>
      <use x="539.0625" xlink:href="#DejaVuSans-105"/>
      <use x="566.845703" xlink:href="#DejaVuSans-99"/>
      <use x="621.826172" xlink:href="#DejaVuSans-107"/>
      <use x="679.736328" xlink:href="#DejaVuSans-110"/>
      <use x="743.115234" xlink:href="#DejaVuSans-101"/>
      <use x="804.638672" xlink:href="#DejaVuSans-115"/>
      <use x="856.738281" xlink:href="#DejaVuSans-115"/>
      <use x="908.837891" xlink:href="#DejaVuSans-58"/>
      <use x="942.529297" xlink:href="#DejaVuSans-52"/>
      <use x="1006.152344" xlink:href="#DejaVuSans-46"/>
      <use x="1037.939453" xlink:href="#DejaVuSans-48"/>
     </g>
    </g>
    <g id="line2d_44">
     <path d="M 267.565313 174.220437 
L 287.565313 174.220437 
" style="fill:none;stroke:#17becf;stroke-linecap:square;stroke-width:1.5;"/>
    </g>
    <g id="line2d_45"/>
    <g id="text_29">
     <!-- spacing_thickness:4.5 -->
     <g transform="translate(295.565313 177.720437)scale(0.1 -0.1)">
      <use xlink:href="#DejaVuSans-115"/>
      <use x="52.099609" xlink:href="#DejaVuSans-112"/>
      <use x="115.576172" xlink:href="#DejaVuSans-97"/>
      <use x="176.855469" xlink:href="#DejaVuSans-99"/>
      <use x="231.835938" xlink:href="#DejaVuSans-105"/>
      <use x="259.619141" xlink:href="#DejaVuSans-110"/>
      <use x="322.998047" xlink:href="#DejaVuSans-103"/>
      <use x="386.474609" xlink:href="#DejaVuSans-95"/>
      <use x="436.474609" xlink:href="#DejaVuSans-116"/>
      <use x="475.683594" xlink:href="#DejaVuSans-104"/>
      <use x="539.0625" xlink:href="#DejaVuSans-105"/>
      <use x="566.845703" xlink:href="#DejaVuSans-99"/>
      <use x="621.826172" xlink:href="#DejaVuSans-107"/>
      <use x="679.736328" xlink:href="#DejaVuSans-110"/>
      <use x="743.115234" xlink:href="#DejaVuSans-101"/>
      <use x="804.638672" xlink:href="#DejaVuSans-115"/>
      <use x="856.738281" xlink:href="#DejaVuSans-115"/>
      <use x="908.837891" xlink:href="#DejaVuSans-58"/>
      <use x="942.529297" xlink:href="#DejaVuSans-52"/>
      <use x="1006.152344" xlink:href="#DejaVuSans-46"/>
      <use x="1037.939453" xlink:href="#DejaVuSans-53"/>
     </g>
    </g>
    <g id="line2d_46">
     <path d="M 267.565313 189.176687 
L 287.565313 189.176687 
" style="fill:none;stroke:#1f77b4;stroke-linecap:square;stroke-width:1.5;"/>
    </g>
    <g id="line2d_47"/>
    <g id="text_30">
     <!-- spacing_thickness:5.0 -->
     <g transform="translate(295.565313 192.676687)scale(0.1 -0.1)">
      <use xlink:href="#DejaVuSans-115"/>
      <use x="52.099609" xlink:href="#DejaVuSans-112"/>
      <use x="115.576172" xlink:href="#DejaVuSans-97"/>
      <use x="176.855469" xlink:href="#DejaVuSans-99"/>
      <use x="231.835938" xlink:href="#DejaVuSans-105"/>
      <use x="259.619141" xlink:href="#DejaVuSans-110"/>
      <use x="322.998047" xlink:href="#DejaVuSans-103"/>
      <use x="386.474609" xlink:href="#DejaVuSans-95"/>
      <use x="436.474609" xlink:href="#DejaVuSans-116"/>
      <use x="475.683594" xlink:href="#DejaVuSans-104"/>
      <use x="539.0625" xlink:href="#DejaVuSans-105"/>
      <use x="566.845703" xlink:href="#DejaVuSans-99"/>
      <use x="621.826172" xlink:href="#DejaVuSans-107"/>
      <use x="679.736328" xlink:href="#DejaVuSans-110"/>
      <use x="743.115234" xlink:href="#DejaVuSans-101"/>
      <use x="804.638672" xlink:href="#DejaVuSans-115"/>
      <use x="856.738281" xlink:href="#DejaVuSans-115"/>
      <use x="908.837891" xlink:href="#DejaVuSans-58"/>
      <use x="942.529297" xlink:href="#DejaVuSans-53"/>
      <use x="1006.152344" xlink:href="#DejaVuSans-46"/>
      <use x="1037.939453" xlink:href="#DejaVuSans-48"/>
     </g>
    </g>
   </g>
  </g>
 </g>
 <defs>
  <clipPath id="p96e24a0f4f">
   <rect height="266.112" width="357.12" x="57.6" y="41.472"/>
  </clipPath>
 </defs>
</svg>
