<?xml version="1.0" encoding="utf-8" standalone="no"?>
<!DOCTYPE svg PUBLIC "-//W3C//DTD SVG 1.1//EN"
  "http://www.w3.org/Graphics/SVG/1.1/DTD/svg11.dtd">
<!-- Created with matplotlib (https://matplotlib.org/) -->
<svg height="345.6pt" version="1.1" viewBox="0 0 460.8 345.6" width="460.8pt" xmlns="http://www.w3.org/2000/svg" xmlns:xlink="http://www.w3.org/1999/xlink">
 <defs>
  <style type="text/css">
*{stroke-linecap:butt;stroke-linejoin:round;}
  </style>
 </defs>
 <g id="figure_1">
  <g id="patch_1">
   <path d="M 0 345.6 
L 460.8 345.6 
L 460.8 0 
L 0 0 
z
" style="fill:#ffffff;"/>
  </g>
  <g id="axes_1">
   <g id="patch_2">
    <path d="M 57.6 307.584 
L 414.72 307.584 
L 414.72 41.472 
L 57.6 41.472 
z
" style="fill:#ffffff;"/>
   </g>
   <g id="matplotlib.axis_1">
    <g id="xtick_1">
     <g id="line2d_1">
      <defs>
       <path d="M 0 0 
L 0 3.5 
" id="m314b5d996b" style="stroke:#000000;stroke-width:0.8;"/>
      </defs>
      <g>
       <use style="stroke:#000000;stroke-width:0.8;" x="94.123636" xlink:href="#m314b5d996b" y="307.584"/>
      </g>
     </g>
     <g id="text_1">
      <!-- 200 -->
      <defs>
       <path d="M 19.1875 8.296875 
L 53.609375 8.296875 
L 53.609375 0 
L 7.328125 0 
L 7.328125 8.296875 
Q 12.9375 14.109375 22.625 23.890625 
Q 32.328125 33.6875 34.8125 36.53125 
Q 39.546875 41.84375 41.421875 45.53125 
Q 43.3125 49.21875 43.3125 52.78125 
Q 43.3125 58.59375 39.234375 62.25 
Q 35.15625 65.921875 28.609375 65.921875 
Q 23.96875 65.921875 18.8125 64.3125 
Q 13.671875 62.703125 7.8125 59.421875 
L 7.8125 69.390625 
Q 13.765625 71.78125 18.9375 73 
Q 24.125 74.21875 28.421875 74.21875 
Q 39.75 74.21875 46.484375 68.546875 
Q 53.21875 62.890625 53.21875 53.421875 
Q 53.21875 48.921875 51.53125 44.890625 
Q 49.859375 40.875 45.40625 35.40625 
Q 44.1875 33.984375 37.640625 27.21875 
Q 31.109375 20.453125 19.1875 8.296875 
z
" id="DejaVuSans-50"/>
       <path d="M 31.78125 66.40625 
Q 24.171875 66.40625 20.328125 58.90625 
Q 16.5 51.421875 16.5 36.375 
Q 16.5 21.390625 20.328125 13.890625 
Q 24.171875 6.390625 31.78125 6.390625 
Q 39.453125 6.390625 43.28125 13.890625 
Q 47.125 21.390625 47.125 36.375 
Q 47.125 51.421875 43.28125 58.90625 
Q 39.453125 66.40625 31.78125 66.40625 
z
M 31.78125 74.21875 
Q 44.046875 74.21875 50.515625 64.515625 
Q 56.984375 54.828125 56.984375 36.375 
Q 56.984375 17.96875 50.515625 8.265625 
Q 44.046875 -1.421875 31.78125 -1.421875 
Q 19.53125 -1.421875 13.0625 8.265625 
Q 6.59375 17.96875 6.59375 36.375 
Q 6.59375 54.828125 13.0625 64.515625 
Q 19.53125 74.21875 31.78125 74.21875 
z
" id="DejaVuSans-48"/>
      </defs>
      <g transform="translate(84.579886 322.182437)scale(0.1 -0.1)">
       <use xlink:href="#DejaVuSans-50"/>
       <use x="63.623047" xlink:href="#DejaVuSans-48"/>
       <use x="127.246094" xlink:href="#DejaVuSans-48"/>
      </g>
     </g>
    </g>
    <g id="xtick_2">
     <g id="line2d_2">
      <g>
       <use style="stroke:#000000;stroke-width:0.8;" x="134.705455" xlink:href="#m314b5d996b" y="307.584"/>
      </g>
     </g>
     <g id="text_2">
      <!-- 300 -->
      <defs>
       <path d="M 40.578125 39.3125 
Q 47.65625 37.796875 51.625 33 
Q 55.609375 28.21875 55.609375 21.1875 
Q 55.609375 10.40625 48.1875 4.484375 
Q 40.765625 -1.421875 27.09375 -1.421875 
Q 22.515625 -1.421875 17.65625 -0.515625 
Q 12.796875 0.390625 7.625 2.203125 
L 7.625 11.71875 
Q 11.71875 9.328125 16.59375 8.109375 
Q 21.484375 6.890625 26.8125 6.890625 
Q 36.078125 6.890625 40.9375 10.546875 
Q 45.796875 14.203125 45.796875 21.1875 
Q 45.796875 27.640625 41.28125 31.265625 
Q 36.765625 34.90625 28.71875 34.90625 
L 20.21875 34.90625 
L 20.21875 43.015625 
L 29.109375 43.015625 
Q 36.375 43.015625 40.234375 45.921875 
Q 44.09375 48.828125 44.09375 54.296875 
Q 44.09375 59.90625 40.109375 62.90625 
Q 36.140625 65.921875 28.71875 65.921875 
Q 24.65625 65.921875 20.015625 65.03125 
Q 15.375 64.15625 9.8125 62.3125 
L 9.8125 71.09375 
Q 15.4375 72.65625 20.34375 73.4375 
Q 25.25 74.21875 29.59375 74.21875 
Q 40.828125 74.21875 47.359375 69.109375 
Q 53.90625 64.015625 53.90625 55.328125 
Q 53.90625 49.265625 50.4375 45.09375 
Q 46.96875 40.921875 40.578125 39.3125 
z
" id="DejaVuSans-51"/>
      </defs>
      <g transform="translate(125.161705 322.182437)scale(0.1 -0.1)">
       <use xlink:href="#DejaVuSans-51"/>
       <use x="63.623047" xlink:href="#DejaVuSans-48"/>
       <use x="127.246094" xlink:href="#DejaVuSans-48"/>
      </g>
     </g>
    </g>
    <g id="xtick_3">
     <g id="line2d_3">
      <g>
       <use style="stroke:#000000;stroke-width:0.8;" x="175.287273" xlink:href="#m314b5d996b" y="307.584"/>
      </g>
     </g>
     <g id="text_3">
      <!-- 400 -->
      <defs>
       <path d="M 37.796875 64.3125 
L 12.890625 25.390625 
L 37.796875 25.390625 
z
M 35.203125 72.90625 
L 47.609375 72.90625 
L 47.609375 25.390625 
L 58.015625 25.390625 
L 58.015625 17.1875 
L 47.609375 17.1875 
L 47.609375 0 
L 37.796875 0 
L 37.796875 17.1875 
L 4.890625 17.1875 
L 4.890625 26.703125 
z
" id="DejaVuSans-52"/>
      </defs>
      <g transform="translate(165.743523 322.182437)scale(0.1 -0.1)">
       <use xlink:href="#DejaVuSans-52"/>
       <use x="63.623047" xlink:href="#DejaVuSans-48"/>
       <use x="127.246094" xlink:href="#DejaVuSans-48"/>
      </g>
     </g>
    </g>
    <g id="xtick_4">
     <g id="line2d_4">
      <g>
       <use style="stroke:#000000;stroke-width:0.8;" x="215.869091" xlink:href="#m314b5d996b" y="307.584"/>
      </g>
     </g>
     <g id="text_4">
      <!-- 500 -->
      <defs>
       <path d="M 10.796875 72.90625 
L 49.515625 72.90625 
L 49.515625 64.59375 
L 19.828125 64.59375 
L 19.828125 46.734375 
Q 21.96875 47.46875 24.109375 47.828125 
Q 26.265625 48.1875 28.421875 48.1875 
Q 40.625 48.1875 47.75 41.5 
Q 54.890625 34.8125 54.890625 23.390625 
Q 54.890625 11.625 47.5625 5.09375 
Q 40.234375 -1.421875 26.90625 -1.421875 
Q 22.3125 -1.421875 17.546875 -0.640625 
Q 12.796875 0.140625 7.71875 1.703125 
L 7.71875 11.625 
Q 12.109375 9.234375 16.796875 8.0625 
Q 21.484375 6.890625 26.703125 6.890625 
Q 35.15625 6.890625 40.078125 11.328125 
Q 45.015625 15.765625 45.015625 23.390625 
Q 45.015625 31 40.078125 35.4375 
Q 35.15625 39.890625 26.703125 39.890625 
Q 22.75 39.890625 18.8125 39.015625 
Q 14.890625 38.140625 10.796875 36.28125 
z
" id="DejaVuSans-53"/>
      </defs>
      <g transform="translate(206.325341 322.182437)scale(0.1 -0.1)">
       <use xlink:href="#DejaVuSans-53"/>
       <use x="63.623047" xlink:href="#DejaVuSans-48"/>
       <use x="127.246094" xlink:href="#DejaVuSans-48"/>
      </g>
     </g>
    </g>
    <g id="xtick_5">
     <g id="line2d_5">
      <g>
       <use style="stroke:#000000;stroke-width:0.8;" x="256.450909" xlink:href="#m314b5d996b" y="307.584"/>
      </g>
     </g>
     <g id="text_5">
      <!-- 600 -->
      <defs>
       <path d="M 33.015625 40.375 
Q 26.375 40.375 22.484375 35.828125 
Q 18.609375 31.296875 18.609375 23.390625 
Q 18.609375 15.53125 22.484375 10.953125 
Q 26.375 6.390625 33.015625 6.390625 
Q 39.65625 6.390625 43.53125 10.953125 
Q 47.40625 15.53125 47.40625 23.390625 
Q 47.40625 31.296875 43.53125 35.828125 
Q 39.65625 40.375 33.015625 40.375 
z
M 52.59375 71.296875 
L 52.59375 62.3125 
Q 48.875 64.0625 45.09375 64.984375 
Q 41.3125 65.921875 37.59375 65.921875 
Q 27.828125 65.921875 22.671875 59.328125 
Q 17.53125 52.734375 16.796875 39.40625 
Q 19.671875 43.65625 24.015625 45.921875 
Q 28.375 48.1875 33.59375 48.1875 
Q 44.578125 48.1875 50.953125 41.515625 
Q 57.328125 34.859375 57.328125 23.390625 
Q 57.328125 12.15625 50.6875 5.359375 
Q 44.046875 -1.421875 33.015625 -1.421875 
Q 20.359375 -1.421875 13.671875 8.265625 
Q 6.984375 17.96875 6.984375 36.375 
Q 6.984375 53.65625 15.1875 63.9375 
Q 23.390625 74.21875 37.203125 74.21875 
Q 40.921875 74.21875 44.703125 73.484375 
Q 48.484375 72.75 52.59375 71.296875 
z
" id="DejaVuSans-54"/>
      </defs>
      <g transform="translate(246.907159 322.182437)scale(0.1 -0.1)">
       <use xlink:href="#DejaVuSans-54"/>
       <use x="63.623047" xlink:href="#DejaVuSans-48"/>
       <use x="127.246094" xlink:href="#DejaVuSans-48"/>
      </g>
     </g>
    </g>
    <g id="xtick_6">
     <g id="line2d_6">
      <g>
       <use style="stroke:#000000;stroke-width:0.8;" x="297.032727" xlink:href="#m314b5d996b" y="307.584"/>
      </g>
     </g>
     <g id="text_6">
      <!-- 700 -->
      <defs>
       <path d="M 8.203125 72.90625 
L 55.078125 72.90625 
L 55.078125 68.703125 
L 28.609375 0 
L 18.3125 0 
L 43.21875 64.59375 
L 8.203125 64.59375 
z
" id="DejaVuSans-55"/>
      </defs>
      <g transform="translate(287.488977 322.182437)scale(0.1 -0.1)">
       <use xlink:href="#DejaVuSans-55"/>
       <use x="63.623047" xlink:href="#DejaVuSans-48"/>
       <use x="127.246094" xlink:href="#DejaVuSans-48"/>
      </g>
     </g>
    </g>
    <g id="xtick_7">
     <g id="line2d_7">
      <g>
       <use style="stroke:#000000;stroke-width:0.8;" x="337.614545" xlink:href="#m314b5d996b" y="307.584"/>
      </g>
     </g>
     <g id="text_7">
      <!-- 800 -->
      <defs>
       <path d="M 31.78125 34.625 
Q 24.75 34.625 20.71875 30.859375 
Q 16.703125 27.09375 16.703125 20.515625 
Q 16.703125 13.921875 20.71875 10.15625 
Q 24.75 6.390625 31.78125 6.390625 
Q 38.8125 6.390625 42.859375 10.171875 
Q 46.921875 13.96875 46.921875 20.515625 
Q 46.921875 27.09375 42.890625 30.859375 
Q 38.875 34.625 31.78125 34.625 
z
M 21.921875 38.8125 
Q 15.578125 40.375 12.03125 44.71875 
Q 8.5 49.078125 8.5 55.328125 
Q 8.5 64.0625 14.71875 69.140625 
Q 20.953125 74.21875 31.78125 74.21875 
Q 42.671875 74.21875 48.875 69.140625 
Q 55.078125 64.0625 55.078125 55.328125 
Q 55.078125 49.078125 51.53125 44.71875 
Q 48 40.375 41.703125 38.8125 
Q 48.828125 37.15625 52.796875 32.3125 
Q 56.78125 27.484375 56.78125 20.515625 
Q 56.78125 9.90625 50.3125 4.234375 
Q 43.84375 -1.421875 31.78125 -1.421875 
Q 19.734375 -1.421875 13.25 4.234375 
Q 6.78125 9.90625 6.78125 20.515625 
Q 6.78125 27.484375 10.78125 32.3125 
Q 14.796875 37.15625 21.921875 38.8125 
z
M 18.3125 54.390625 
Q 18.3125 48.734375 21.84375 45.5625 
Q 25.390625 42.390625 31.78125 42.390625 
Q 38.140625 42.390625 41.71875 45.5625 
Q 45.3125 48.734375 45.3125 54.390625 
Q 45.3125 60.0625 41.71875 63.234375 
Q 38.140625 66.40625 31.78125 66.40625 
Q 25.390625 66.40625 21.84375 63.234375 
Q 18.3125 60.0625 18.3125 54.390625 
z
" id="DejaVuSans-56"/>
      </defs>
      <g transform="translate(328.070795 322.182437)scale(0.1 -0.1)">
       <use xlink:href="#DejaVuSans-56"/>
       <use x="63.623047" xlink:href="#DejaVuSans-48"/>
       <use x="127.246094" xlink:href="#DejaVuSans-48"/>
      </g>
     </g>
    </g>
    <g id="xtick_8">
     <g id="line2d_8">
      <g>
       <use style="stroke:#000000;stroke-width:0.8;" x="378.196364" xlink:href="#m314b5d996b" y="307.584"/>
      </g>
     </g>
     <g id="text_8">
      <!-- 900 -->
      <defs>
       <path d="M 10.984375 1.515625 
L 10.984375 10.5 
Q 14.703125 8.734375 18.5 7.8125 
Q 22.3125 6.890625 25.984375 6.890625 
Q 35.75 6.890625 40.890625 13.453125 
Q 46.046875 20.015625 46.78125 33.40625 
Q 43.953125 29.203125 39.59375 26.953125 
Q 35.25 24.703125 29.984375 24.703125 
Q 19.046875 24.703125 12.671875 31.3125 
Q 6.296875 37.9375 6.296875 49.421875 
Q 6.296875 60.640625 12.9375 67.421875 
Q 19.578125 74.21875 30.609375 74.21875 
Q 43.265625 74.21875 49.921875 64.515625 
Q 56.59375 54.828125 56.59375 36.375 
Q 56.59375 19.140625 48.40625 8.859375 
Q 40.234375 -1.421875 26.421875 -1.421875 
Q 22.703125 -1.421875 18.890625 -0.6875 
Q 15.09375 0.046875 10.984375 1.515625 
z
M 30.609375 32.421875 
Q 37.25 32.421875 41.125 36.953125 
Q 45.015625 41.5 45.015625 49.421875 
Q 45.015625 57.28125 41.125 61.84375 
Q 37.25 66.40625 30.609375 66.40625 
Q 23.96875 66.40625 20.09375 61.84375 
Q 16.21875 57.28125 16.21875 49.421875 
Q 16.21875 41.5 20.09375 36.953125 
Q 23.96875 32.421875 30.609375 32.421875 
z
" id="DejaVuSans-57"/>
      </defs>
      <g transform="translate(368.652614 322.182437)scale(0.1 -0.1)">
       <use xlink:href="#DejaVuSans-57"/>
       <use x="63.623047" xlink:href="#DejaVuSans-48"/>
       <use x="127.246094" xlink:href="#DejaVuSans-48"/>
      </g>
     </g>
    </g>
    <g id="text_9">
     <!-- wavelengths -->
     <defs>
      <path d="M 4.203125 54.6875 
L 13.1875 54.6875 
L 24.421875 12.015625 
L 35.59375 54.6875 
L 46.1875 54.6875 
L 57.421875 12.015625 
L 68.609375 54.6875 
L 77.59375 54.6875 
L 63.28125 0 
L 52.6875 0 
L 40.921875 44.828125 
L 29.109375 0 
L 18.5 0 
z
" id="DejaVuSans-119"/>
      <path d="M 34.28125 27.484375 
Q 23.390625 27.484375 19.1875 25 
Q 14.984375 22.515625 14.984375 16.5 
Q 14.984375 11.71875 18.140625 8.90625 
Q 21.296875 6.109375 26.703125 6.109375 
Q 34.1875 6.109375 38.703125 11.40625 
Q 43.21875 16.703125 43.21875 25.484375 
L 43.21875 27.484375 
z
M 52.203125 31.203125 
L 52.203125 0 
L 43.21875 0 
L 43.21875 8.296875 
Q 40.140625 3.328125 35.546875 0.953125 
Q 30.953125 -1.421875 24.3125 -1.421875 
Q 15.921875 -1.421875 10.953125 3.296875 
Q 6 8.015625 6 15.921875 
Q 6 25.140625 12.171875 29.828125 
Q 18.359375 34.515625 30.609375 34.515625 
L 43.21875 34.515625 
L 43.21875 35.40625 
Q 43.21875 41.609375 39.140625 45 
Q 35.0625 48.390625 27.6875 48.390625 
Q 23 48.390625 18.546875 47.265625 
Q 14.109375 46.140625 10.015625 43.890625 
L 10.015625 52.203125 
Q 14.9375 54.109375 19.578125 55.046875 
Q 24.21875 56 28.609375 56 
Q 40.484375 56 46.34375 49.84375 
Q 52.203125 43.703125 52.203125 31.203125 
z
" id="DejaVuSans-97"/>
      <path d="M 2.984375 54.6875 
L 12.5 54.6875 
L 29.59375 8.796875 
L 46.6875 54.6875 
L 56.203125 54.6875 
L 35.6875 0 
L 23.484375 0 
z
" id="DejaVuSans-118"/>
      <path d="M 56.203125 29.59375 
L 56.203125 25.203125 
L 14.890625 25.203125 
Q 15.484375 15.921875 20.484375 11.0625 
Q 25.484375 6.203125 34.421875 6.203125 
Q 39.59375 6.203125 44.453125 7.46875 
Q 49.3125 8.734375 54.109375 11.28125 
L 54.109375 2.78125 
Q 49.265625 0.734375 44.1875 -0.34375 
Q 39.109375 -1.421875 33.890625 -1.421875 
Q 20.796875 -1.421875 13.15625 6.1875 
Q 5.515625 13.8125 5.515625 26.8125 
Q 5.515625 40.234375 12.765625 48.109375 
Q 20.015625 56 32.328125 56 
Q 43.359375 56 49.78125 48.890625 
Q 56.203125 41.796875 56.203125 29.59375 
z
M 47.21875 32.234375 
Q 47.125 39.59375 43.09375 43.984375 
Q 39.0625 48.390625 32.421875 48.390625 
Q 24.90625 48.390625 20.390625 44.140625 
Q 15.875 39.890625 15.1875 32.171875 
z
" id="DejaVuSans-101"/>
      <path d="M 9.421875 75.984375 
L 18.40625 75.984375 
L 18.40625 0 
L 9.421875 0 
z
" id="DejaVuSans-108"/>
      <path d="M 54.890625 33.015625 
L 54.890625 0 
L 45.90625 0 
L 45.90625 32.71875 
Q 45.90625 40.484375 42.875 44.328125 
Q 39.84375 48.1875 33.796875 48.1875 
Q 26.515625 48.1875 22.3125 43.546875 
Q 18.109375 38.921875 18.109375 30.90625 
L 18.109375 0 
L 9.078125 0 
L 9.078125 54.6875 
L 18.109375 54.6875 
L 18.109375 46.1875 
Q 21.34375 51.125 25.703125 53.5625 
Q 30.078125 56 35.796875 56 
Q 45.21875 56 50.046875 50.171875 
Q 54.890625 44.34375 54.890625 33.015625 
z
" id="DejaVuSans-110"/>
      <path d="M 45.40625 27.984375 
Q 45.40625 37.75 41.375 43.109375 
Q 37.359375 48.484375 30.078125 48.484375 
Q 22.859375 48.484375 18.828125 43.109375 
Q 14.796875 37.75 14.796875 27.984375 
Q 14.796875 18.265625 18.828125 12.890625 
Q 22.859375 7.515625 30.078125 7.515625 
Q 37.359375 7.515625 41.375 12.890625 
Q 45.40625 18.265625 45.40625 27.984375 
z
M 54.390625 6.78125 
Q 54.390625 -7.171875 48.1875 -13.984375 
Q 42 -20.796875 29.203125 -20.796875 
Q 24.46875 -20.796875 20.265625 -20.09375 
Q 16.0625 -19.390625 12.109375 -17.921875 
L 12.109375 -9.1875 
Q 16.0625 -11.328125 19.921875 -12.34375 
Q 23.78125 -13.375 27.78125 -13.375 
Q 36.625 -13.375 41.015625 -8.765625 
Q 45.40625 -4.15625 45.40625 5.171875 
L 45.40625 9.625 
Q 42.625 4.78125 38.28125 2.390625 
Q 33.9375 0 27.875 0 
Q 17.828125 0 11.671875 7.65625 
Q 5.515625 15.328125 5.515625 27.984375 
Q 5.515625 40.671875 11.671875 48.328125 
Q 17.828125 56 27.875 56 
Q 33.9375 56 38.28125 53.609375 
Q 42.625 51.21875 45.40625 46.390625 
L 45.40625 54.6875 
L 54.390625 54.6875 
z
" id="DejaVuSans-103"/>
      <path d="M 18.3125 70.21875 
L 18.3125 54.6875 
L 36.8125 54.6875 
L 36.8125 47.703125 
L 18.3125 47.703125 
L 18.3125 18.015625 
Q 18.3125 11.328125 20.140625 9.421875 
Q 21.96875 7.515625 27.59375 7.515625 
L 36.8125 7.515625 
L 36.8125 0 
L 27.59375 0 
Q 17.1875 0 13.234375 3.875 
Q 9.28125 7.765625 9.28125 18.015625 
L 9.28125 47.703125 
L 2.6875 47.703125 
L 2.6875 54.6875 
L 9.28125 54.6875 
L 9.28125 70.21875 
z
" id="DejaVuSans-116"/>
      <path d="M 54.890625 33.015625 
L 54.890625 0 
L 45.90625 0 
L 45.90625 32.71875 
Q 45.90625 40.484375 42.875 44.328125 
Q 39.84375 48.1875 33.796875 48.1875 
Q 26.515625 48.1875 22.3125 43.546875 
Q 18.109375 38.921875 18.109375 30.90625 
L 18.109375 0 
L 9.078125 0 
L 9.078125 75.984375 
L 18.109375 75.984375 
L 18.109375 46.1875 
Q 21.34375 51.125 25.703125 53.5625 
Q 30.078125 56 35.796875 56 
Q 45.21875 56 50.046875 50.171875 
Q 54.890625 44.34375 54.890625 33.015625 
z
" id="DejaVuSans-104"/>
      <path d="M 44.28125 53.078125 
L 44.28125 44.578125 
Q 40.484375 46.53125 36.375 47.5 
Q 32.28125 48.484375 27.875 48.484375 
Q 21.1875 48.484375 17.84375 46.4375 
Q 14.5 44.390625 14.5 40.28125 
Q 14.5 37.15625 16.890625 35.375 
Q 19.28125 33.59375 26.515625 31.984375 
L 29.59375 31.296875 
Q 39.15625 29.25 43.1875 25.515625 
Q 47.21875 21.78125 47.21875 15.09375 
Q 47.21875 7.46875 41.1875 3.015625 
Q 35.15625 -1.421875 24.609375 -1.421875 
Q 20.21875 -1.421875 15.453125 -0.5625 
Q 10.6875 0.296875 5.421875 2 
L 5.421875 11.28125 
Q 10.40625 8.6875 15.234375 7.390625 
Q 20.0625 6.109375 24.8125 6.109375 
Q 31.15625 6.109375 34.5625 8.28125 
Q 37.984375 10.453125 37.984375 14.40625 
Q 37.984375 18.0625 35.515625 20.015625 
Q 33.0625 21.96875 24.703125 23.78125 
L 21.578125 24.515625 
Q 13.234375 26.265625 9.515625 29.90625 
Q 5.8125 33.546875 5.8125 39.890625 
Q 5.8125 47.609375 11.28125 51.796875 
Q 16.75 56 26.8125 56 
Q 31.78125 56 36.171875 55.265625 
Q 40.578125 54.546875 44.28125 53.078125 
z
" id="DejaVuSans-115"/>
     </defs>
     <g transform="translate(204.42875 335.860562)scale(0.1 -0.1)">
      <use xlink:href="#DejaVuSans-119"/>
      <use x="81.787109" xlink:href="#DejaVuSans-97"/>
      <use x="143.066406" xlink:href="#DejaVuSans-118"/>
      <use x="202.246094" xlink:href="#DejaVuSans-101"/>
      <use x="263.769531" xlink:href="#DejaVuSans-108"/>
      <use x="291.552734" xlink:href="#DejaVuSans-101"/>
      <use x="353.076172" xlink:href="#DejaVuSans-110"/>
      <use x="416.455078" xlink:href="#DejaVuSans-103"/>
      <use x="479.931641" xlink:href="#DejaVuSans-116"/>
      <use x="519.140625" xlink:href="#DejaVuSans-104"/>
      <use x="582.519531" xlink:href="#DejaVuSans-115"/>
     </g>
    </g>
   </g>
   <g id="matplotlib.axis_2">
    <g id="ytick_1">
     <g id="line2d_9">
      <defs>
       <path d="M 0 0 
L -3.5 0 
" id="ma60fc35d4d" style="stroke:#000000;stroke-width:0.8;"/>
      </defs>
      <g>
       <use style="stroke:#000000;stroke-width:0.8;" x="57.6" xlink:href="#ma60fc35d4d" y="305.603624"/>
      </g>
     </g>
     <g id="text_10">
      <!-- 0.0 -->
      <defs>
       <path d="M 10.6875 12.40625 
L 21 12.40625 
L 21 0 
L 10.6875 0 
z
" id="DejaVuSans-46"/>
      </defs>
      <g transform="translate(34.696875 309.402843)scale(0.1 -0.1)">
       <use xlink:href="#DejaVuSans-48"/>
       <use x="63.623047" xlink:href="#DejaVuSans-46"/>
       <use x="95.410156" xlink:href="#DejaVuSans-48"/>
      </g>
     </g>
    </g>
    <g id="ytick_2">
     <g id="line2d_10">
      <g>
       <use style="stroke:#000000;stroke-width:0.8;" x="57.6" xlink:href="#ma60fc35d4d" y="254.580767"/>
      </g>
     </g>
     <g id="text_11">
      <!-- 0.2 -->
      <g transform="translate(34.696875 258.379986)scale(0.1 -0.1)">
       <use xlink:href="#DejaVuSans-48"/>
       <use x="63.623047" xlink:href="#DejaVuSans-46"/>
       <use x="95.410156" xlink:href="#DejaVuSans-50"/>
      </g>
     </g>
    </g>
    <g id="ytick_3">
     <g id="line2d_11">
      <g>
       <use style="stroke:#000000;stroke-width:0.8;" x="57.6" xlink:href="#ma60fc35d4d" y="203.55791"/>
      </g>
     </g>
     <g id="text_12">
      <!-- 0.4 -->
      <g transform="translate(34.696875 207.357129)scale(0.1 -0.1)">
       <use xlink:href="#DejaVuSans-48"/>
       <use x="63.623047" xlink:href="#DejaVuSans-46"/>
       <use x="95.410156" xlink:href="#DejaVuSans-52"/>
      </g>
     </g>
    </g>
    <g id="ytick_4">
     <g id="line2d_12">
      <g>
       <use style="stroke:#000000;stroke-width:0.8;" x="57.6" xlink:href="#ma60fc35d4d" y="152.535053"/>
      </g>
     </g>
     <g id="text_13">
      <!-- 0.6 -->
      <g transform="translate(34.696875 156.334272)scale(0.1 -0.1)">
       <use xlink:href="#DejaVuSans-48"/>
       <use x="63.623047" xlink:href="#DejaVuSans-46"/>
       <use x="95.410156" xlink:href="#DejaVuSans-54"/>
      </g>
     </g>
    </g>
    <g id="ytick_5">
     <g id="line2d_13">
      <g>
       <use style="stroke:#000000;stroke-width:0.8;" x="57.6" xlink:href="#ma60fc35d4d" y="101.512196"/>
      </g>
     </g>
     <g id="text_14">
      <!-- 0.8 -->
      <g transform="translate(34.696875 105.311415)scale(0.1 -0.1)">
       <use xlink:href="#DejaVuSans-48"/>
       <use x="63.623047" xlink:href="#DejaVuSans-46"/>
       <use x="95.410156" xlink:href="#DejaVuSans-56"/>
      </g>
     </g>
    </g>
    <g id="ytick_6">
     <g id="line2d_14">
      <g>
       <use style="stroke:#000000;stroke-width:0.8;" x="57.6" xlink:href="#ma60fc35d4d" y="50.489339"/>
      </g>
     </g>
     <g id="text_15">
      <!-- 1.0 -->
      <defs>
       <path d="M 12.40625 8.296875 
L 28.515625 8.296875 
L 28.515625 63.921875 
L 10.984375 60.40625 
L 10.984375 69.390625 
L 28.421875 72.90625 
L 38.28125 72.90625 
L 38.28125 8.296875 
L 54.390625 8.296875 
L 54.390625 0 
L 12.40625 0 
z
" id="DejaVuSans-49"/>
      </defs>
      <g transform="translate(34.696875 54.288558)scale(0.1 -0.1)">
       <use xlink:href="#DejaVuSans-49"/>
       <use x="63.623047" xlink:href="#DejaVuSans-46"/>
       <use x="95.410156" xlink:href="#DejaVuSans-48"/>
      </g>
     </g>
    </g>
    <g id="text_16">
     <!-- transmission -->
     <defs>
      <path d="M 41.109375 46.296875 
Q 39.59375 47.171875 37.8125 47.578125 
Q 36.03125 48 33.890625 48 
Q 26.265625 48 22.1875 43.046875 
Q 18.109375 38.09375 18.109375 28.8125 
L 18.109375 0 
L 9.078125 0 
L 9.078125 54.6875 
L 18.109375 54.6875 
L 18.109375 46.1875 
Q 20.953125 51.171875 25.484375 53.578125 
Q 30.03125 56 36.53125 56 
Q 37.453125 56 38.578125 55.875 
Q 39.703125 55.765625 41.0625 55.515625 
z
" id="DejaVuSans-114"/>
      <path d="M 52 44.1875 
Q 55.375 50.25 60.0625 53.125 
Q 64.75 56 71.09375 56 
Q 79.640625 56 84.28125 50.015625 
Q 88.921875 44.046875 88.921875 33.015625 
L 88.921875 0 
L 79.890625 0 
L 79.890625 32.71875 
Q 79.890625 40.578125 77.09375 44.375 
Q 74.3125 48.1875 68.609375 48.1875 
Q 61.625 48.1875 57.5625 43.546875 
Q 53.515625 38.921875 53.515625 30.90625 
L 53.515625 0 
L 44.484375 0 
L 44.484375 32.71875 
Q 44.484375 40.625 41.703125 44.40625 
Q 38.921875 48.1875 33.109375 48.1875 
Q 26.21875 48.1875 22.15625 43.53125 
Q 18.109375 38.875 18.109375 30.90625 
L 18.109375 0 
L 9.078125 0 
L 9.078125 54.6875 
L 18.109375 54.6875 
L 18.109375 46.1875 
Q 21.1875 51.21875 25.484375 53.609375 
Q 29.78125 56 35.6875 56 
Q 41.65625 56 45.828125 52.96875 
Q 50 49.953125 52 44.1875 
z
" id="DejaVuSans-109"/>
      <path d="M 9.421875 54.6875 
L 18.40625 54.6875 
L 18.40625 0 
L 9.421875 0 
z
M 9.421875 75.984375 
L 18.40625 75.984375 
L 18.40625 64.59375 
L 9.421875 64.59375 
z
" id="DejaVuSans-105"/>
      <path d="M 30.609375 48.390625 
Q 23.390625 48.390625 19.1875 42.75 
Q 14.984375 37.109375 14.984375 27.296875 
Q 14.984375 17.484375 19.15625 11.84375 
Q 23.34375 6.203125 30.609375 6.203125 
Q 37.796875 6.203125 41.984375 11.859375 
Q 46.1875 17.53125 46.1875 27.296875 
Q 46.1875 37.015625 41.984375 42.703125 
Q 37.796875 48.390625 30.609375 48.390625 
z
M 30.609375 56 
Q 42.328125 56 49.015625 48.375 
Q 55.71875 40.765625 55.71875 27.296875 
Q 55.71875 13.875 49.015625 6.21875 
Q 42.328125 -1.421875 30.609375 -1.421875 
Q 18.84375 -1.421875 12.171875 6.21875 
Q 5.515625 13.875 5.515625 27.296875 
Q 5.515625 40.765625 12.171875 48.375 
Q 18.84375 56 30.609375 56 
z
" id="DejaVuSans-111"/>
     </defs>
     <g transform="translate(28.617187 206.467062)rotate(-90)scale(0.1 -0.1)">
      <use xlink:href="#DejaVuSans-116"/>
      <use x="39.208984" xlink:href="#DejaVuSans-114"/>
      <use x="80.322266" xlink:href="#DejaVuSans-97"/>
      <use x="141.601562" xlink:href="#DejaVuSans-110"/>
      <use x="204.980469" xlink:href="#DejaVuSans-115"/>
      <use x="257.080078" xlink:href="#DejaVuSans-109"/>
      <use x="354.492188" xlink:href="#DejaVuSans-105"/>
      <use x="382.275391" xlink:href="#DejaVuSans-115"/>
      <use x="434.375" xlink:href="#DejaVuSans-115"/>
      <use x="486.474609" xlink:href="#DejaVuSans-105"/>
      <use x="514.257812" xlink:href="#DejaVuSans-111"/>
      <use x="575.439453" xlink:href="#DejaVuSans-110"/>
     </g>
    </g>
   </g>
   <g id="line2d_15">
    <path clip-path="url(#pb219f477bc)" d="M 398.487273 105.476872 
L 378.779808 156.470133 
L 360.989179 178.078772 
L 344.848696 207.16792 
L 330.138947 251.507052 
L 316.677772 248.808107 
L 304.312672 245.313409 
L 292.915012 282.224612 
L 282.375529 295.488 
L 272.600816 229.658073 
L 263.510547 195.167806 
L 255.035264 213.517984 
L 247.114601 231.505801 
L 239.695842 161.256865 
L 232.732745 128.314076 
L 226.184581 166.634372 
L 220.015335 149.262729 
L 214.19304 109.132616 
L 208.689231 108.197382 
L 203.478469 110.510967 
L 198.537958 113.846176 
L 193.847204 117.517491 
L 189.387735 120.910388 
L 185.142857 123.743482 
L 181.097445 126.31029 
L 177.237762 129.273297 
L 173.551304 133.324089 
L 170.026667 138.548682 
L 166.653423 143.022404 
L 163.422024 143.603135 
L 160.323707 141.414626 
L 157.350416 141.774711 
L 154.494734 153.290769 
L 151.749818 187.410336 
L 149.109346 149.728534 
L 146.567468 141.738642 
L 144.118763 144.530928 
L 141.7582 147.855386 
L 139.481105 150.770181 
L 137.283127 153.266274 
L 135.160213 155.414547 
L 133.108583 157.256798 
L 131.124706 158.783271 
L 129.205279 159.924932 
L 127.347213 160.574529 
L 125.547611 160.67975 
L 123.803756 160.378828 
L 122.113098 160.000217 
L 120.473239 159.917589 
L 118.881924 160.817878 
L 117.337028 163.1429 
L 115.83655 156.348016 
L 114.378601 155.402713 
L 112.961397 159.154481 
L 111.583256 161.047761 
L 110.242583 161.494129 
L 108.937871 161.131942 
L 107.667692 160.273537 
L 106.430694 159.054825 
L 105.225592 157.525944 
L 104.051169 155.698625 
L 102.906269 153.584553 
L 101.789791 151.236599 
L 100.70069 148.783286 
L 99.637971 146.438962 
L 98.600688 144.496489 
L 97.587938 143.295928 
L 96.59886 142.59296 
L 95.632635 138.988141 
L 94.68848 133.214807 
L 93.765646 131.910531 
L 92.863419 131.39671 
L 91.981118 129.944567 
L 91.118089 127.94708 
L 90.273707 125.781827 
L 89.447375 123.635285 
L 88.638519 121.595586 
L 87.846593 119.70648 
L 87.071068 117.99224 
L 86.311441 116.471019 
L 85.567229 115.163251 
L 84.837966 114.09646 
L 84.123207 113.305277 
L 83.422523 112.814992 
L 82.735503 112.523471 
L 82.06175 111.602636 
L 81.400885 108.119872 
L 80.75254 106.504286 
L 80.116364 111.40279 
L 79.492016 115.910739 
L 78.879171 117.972133 
L 78.277513 118.594406 
L 77.686738 118.535719 
L 77.106555 118.152552 
L 76.53668 117.615325 
L 75.976841 117.018579 
L 75.426776 116.42467 
L 74.88623 115.881496 
L 74.35496 115.429389 
L 73.832727 115.099876 
" style="fill:none;stroke:#ff7f0e;stroke-linecap:square;stroke-width:1.5;"/>
   </g>
   <g id="line2d_16">
    <path clip-path="url(#pb219f477bc)" d="M 398.487273 111.074498 
L 378.779808 115.291186 
L 360.989179 181.582363 
L 344.848696 141.659747 
L 330.138947 224.973499 
L 316.677772 153.426936 
L 304.312672 107.539303 
L 292.915012 100.092044 
L 282.375529 92.800666 
L 272.600816 86.791239 
L 263.510547 85.357403 
L 255.035264 83.566371 
L 247.114601 81.571933 
L 239.695842 79.51279 
L 232.732745 82.191537 
L 226.184581 83.000073 
L 220.015335 85.13578 
L 214.19304 90.523529 
L 208.689231 95.906924 
L 203.478469 99.710205 
L 198.537958 103.36544 
L 193.847204 107.450978 
L 189.387735 111.593554 
L 185.142857 114.131293 
L 181.097445 114.057867 
L 177.237762 113.668671 
L 173.551304 116.461526 
L 170.026667 124.527498 
L 166.653423 113.102115 
L 163.422024 108.169494 
L 160.323707 108.47062 
L 157.350416 109.989498 
L 154.494734 112.046292 
L 151.749818 114.132451 
L 149.109346 115.590307 
L 146.567468 116.162158 
L 144.118763 116.559191 
L 141.7582 118.388116 
L 139.481105 125.027772 
L 137.283127 131.966132 
L 135.160213 120.439272 
L 133.108583 116.608728 
L 131.124706 116.680187 
L 129.205279 117.353495 
L 127.347213 117.985305 
L 125.547611 118.429043 
L 123.803756 118.681903 
L 122.113098 118.817726 
L 120.473239 118.92943 
L 118.881924 119.147893 
L 117.337028 119.395787 
L 115.83655 117.286673 
L 114.378601 117.022831 
L 112.961397 118.932275 
L 111.583256 120.067467 
L 110.242583 120.372793 
L 108.937871 120.122132 
L 107.667692 119.51679 
L 106.430694 118.747123 
L 105.225592 118.044509 
L 104.051169 117.714475 
L 102.906269 118.005386 
L 101.789791 117.431707 
L 100.70069 112.951816 
L 99.637971 110.038645 
L 98.600688 109.026453 
L 97.587938 107.970492 
L 96.59886 106.651363 
L 95.632635 105.201826 
L 94.68848 103.759921 
L 93.765646 102.436809 
L 92.863419 101.298492 
L 91.981118 100.305367 
L 91.118089 99.083639 
L 90.273707 96.766779 
L 89.447375 94.611551 
L 88.638519 95.128006 
L 87.846593 96.135602 
L 87.071068 96.369741 
L 86.311441 96.063129 
L 85.567229 95.514326 
L 84.837966 94.892096 
L 84.123207 94.29264 
L 83.422523 93.774901 
L 82.735503 93.348308 
L 82.06175 92.84389 
L 81.400885 91.710625 
L 80.75254 90.280321 
L 80.116364 90.165749 
L 79.492016 90.56999 
L 78.879171 90.744045 
L 78.277513 90.732306 
L 77.686738 90.661158 
L 77.106555 90.612003 
L 76.53668 90.638728 
L 75.976841 90.767857 
L 75.426776 90.915777 
L 74.88623 90.496496 
L 74.35496 88.192795 
L 73.832727 86.933698 
" style="fill:none;stroke:#2ca02c;stroke-linecap:square;stroke-width:1.5;"/>
   </g>
   <g id="line2d_17">
    <path clip-path="url(#pb219f477bc)" d="M 398.487273 90.56188 
L 378.779808 82.114007 
L 360.989179 90.581408 
L 344.848696 103.460833 
L 330.138947 93.843363 
L 316.677772 96.702437 
L 304.312672 108.698804 
L 292.915012 99.787651 
L 282.375529 103.566002 
L 272.600816 100.142699 
L 263.510547 96.689329 
L 255.035264 99.624876 
L 247.114601 100.406423 
L 239.695842 89.744548 
L 232.732745 84.383618 
L 226.184581 91.809467 
L 220.015335 88.810432 
L 214.19304 81.040082 
L 208.689231 81.123295 
L 203.478469 82.223609 
L 198.537958 83.605349 
L 193.847204 85.03046 
L 189.387735 86.631801 
L 185.142857 87.872701 
L 181.097445 88.950379 
L 177.237762 90.58046 
L 173.551304 92.707832 
L 170.026667 94.458598 
L 166.653423 95.513699 
L 163.422024 96.061411 
L 160.323707 96.435394 
L 157.350416 97.106584 
L 154.494734 98.562595 
L 151.749818 99.96737 
L 149.109346 97.916296 
L 146.567468 98.364179 
L 144.118763 99.688709 
L 141.7582 100.73086 
L 139.481105 101.342693 
L 137.283127 101.886259 
L 135.160213 103.187131 
L 133.108583 106.666653 
L 131.124706 108.609213 
L 129.205279 103.192387 
L 127.347213 100.984326 
L 125.547611 100.629851 
L 123.803756 100.645479 
L 122.113098 100.69341 
L 120.473239 100.698593 
L 118.881924 100.65673 
L 117.337028 100.546049 
L 115.83655 99.749092 
L 114.378601 99.761966 
L 112.961397 100.604219 
L 111.583256 101.001211 
L 110.242583 100.990392 
L 108.937871 100.826865 
L 107.667692 100.765019 
L 106.430694 101.036656 
L 105.225592 101.121204 
L 104.051169 98.86653 
L 102.906269 96.541075 
L 101.789791 95.496413 
L 100.70069 94.673479 
L 99.637971 93.836886 
L 98.600688 93.035971 
L 97.587938 92.305799 
L 96.59886 91.484451 
L 95.632635 89.912647 
L 94.68848 87.907631 
L 93.765646 87.620945 
L 92.863419 88.016081 
L 91.981118 88.050728 
L 91.118089 87.760365 
L 90.273707 87.317575 
L 89.447375 86.827936 
L 88.638519 86.274387 
L 87.846593 85.397685 
L 87.071068 84.168069 
L 86.311441 83.282351 
L 85.567229 82.690042 
L 84.837966 82.14628 
L 84.123207 81.652509 
L 83.422523 81.244314 
L 82.735503 80.917528 
L 82.06175 80.538004 
L 81.400885 79.70903 
L 80.75254 78.668166 
L 80.116364 78.791051 
L 79.492016 79.500329 
L 78.879171 80.014509 
L 78.277513 80.325893 
L 77.686738 80.551631 
L 77.106555 80.742805 
L 76.53668 80.791253 
L 75.976841 80.299102 
L 75.426776 79.547249 
L 74.88623 79.79476 
L 74.35496 80.453495 
L 73.832727 80.96925 
" style="fill:none;stroke:#d62728;stroke-linecap:square;stroke-width:1.5;"/>
   </g>
   <g id="line2d_18">
    <path clip-path="url(#pb219f477bc)" d="M 398.487273 57.467989 
L 378.779808 83.760653 
L 360.989179 53.568 
L 344.848696 100.01465 
L 330.138947 102.722178 
L 316.677772 112.64214 
L 304.312672 141.578515 
L 292.915012 112.382159 
L 282.375529 102.113379 
L 272.600816 112.555754 
L 263.510547 75.592027 
L 255.035264 72.211757 
L 247.114601 70.563296 
L 239.695842 70.250395 
L 232.732745 71.545078 
L 226.184581 71.375491 
L 220.015335 71.954166 
L 214.19304 75.674251 
L 208.689231 78.352216 
L 203.478469 79.921528 
L 198.537958 80.757833 
L 193.847204 82.116195 
L 189.387735 86.212397 
L 185.142857 86.640071 
L 181.097445 83.345805 
L 177.237762 83.173179 
L 173.551304 83.557898 
L 170.026667 83.895421 
L 166.653423 84.183924 
L 163.422024 85.15474 
L 160.323707 86.276391 
L 157.350416 86.093748 
L 154.494734 86.685324 
L 151.749818 87.357004 
L 149.109346 88.070355 
L 146.567468 88.876522 
L 144.118763 89.711242 
L 141.7582 89.759602 
L 139.481105 90.08045 
L 137.283127 90.856695 
L 135.160213 91.396344 
L 133.108583 91.901786 
L 131.124706 92.940309 
L 129.205279 95.055206 
L 127.347213 94.791688 
L 125.547611 91.964365 
L 123.803756 90.899952 
L 122.113098 90.59038 
L 120.473239 90.426863 
L 118.881924 90.245896 
L 117.337028 90.027101 
L 115.83655 89.640711 
L 114.378601 89.708159 
L 112.961397 90.114452 
L 111.583256 90.2913 
L 110.242583 90.350356 
L 108.937871 90.516557 
L 107.667692 90.761326 
L 106.430694 89.87692 
L 105.225592 88.11083 
L 104.051169 87.12759 
L 102.906269 86.500081 
L 101.789791 85.958517 
L 100.70069 85.444645 
L 99.637971 84.73361 
L 98.600688 83.379287 
L 97.587938 82.405836 
L 96.59886 82.411726 
L 95.632635 82.458258 
L 94.68848 82.319327 
L 93.765646 82.079086 
L 92.863419 81.723889 
L 91.981118 80.979108 
L 91.118089 79.944186 
L 90.273707 79.136709 
L 89.447375 78.48128 
L 88.638519 77.885135 
L 87.846593 77.327184 
L 87.071068 76.715204 
L 86.311441 75.87178 
L 85.567229 75.109223 
L 84.837966 74.966346 
L 84.123207 75.023736 
L 83.422523 75.004827 
L 82.735503 74.931643 
L 82.06175 74.810061 
L 81.400885 74.503046 
L 80.75254 73.972504 
L 80.116364 73.673268 
L 79.492016 73.642878 
L 78.879171 73.681542 
L 78.277513 73.74382 
L 77.686738 73.777926 
L 77.106555 73.556496 
L 76.53668 73.015332 
L 75.976841 73.076145 
L 75.426776 73.681542 
L 74.88623 74.214308 
L 74.35496 74.603705 
L 73.832727 74.873742 
" style="fill:none;stroke:#9467bd;stroke-linecap:square;stroke-width:1.5;"/>
   </g>
   <g id="line2d_19">
    <path clip-path="url(#pb219f477bc)" d="M 398.487273 73.323817 
L 378.779808 80.533852 
L 360.989179 97.655912 
L 344.848696 90.004616 
L 330.138947 117.804385 
L 316.677772 100.521194 
L 304.312672 88.793403 
L 292.915012 86.607312 
L 282.375529 81.9376 
L 272.600816 77.700219 
L 263.510547 68.071058 
L 255.035264 74.175269 
L 247.114601 75.912349 
L 239.695842 72.634223 
L 232.732745 71.419003 
L 226.184581 74.965371 
L 220.015335 74.112785 
L 214.19304 70.984281 
L 208.689231 71.119317 
L 203.478469 71.988714 
L 198.537958 73.077794 
L 193.847204 73.210154 
L 189.387735 74.610858 
L 185.142857 77.119665 
L 181.097445 78.443984 
L 177.237762 79.146063 
L 173.551304 80.081871 
L 170.026667 81.457407 
L 166.653423 80.006384 
L 163.422024 79.451926 
L 160.323707 79.578361 
L 157.350416 79.829529 
L 154.494734 80.398185 
L 151.749818 81.763762 
L 149.109346 81.774009 
L 146.567468 81.922051 
L 144.118763 82.40676 
L 141.7582 82.923797 
L 139.481105 83.33018 
L 137.283127 83.507157 
L 135.160213 83.736738 
L 133.108583 84.246301 
L 131.124706 84.696207 
L 129.205279 85.348833 
L 127.347213 86.599185 
L 125.547611 86.956488 
L 123.803756 85.191447 
L 122.113098 84.216511 
L 120.473239 83.81487 
L 118.881924 83.532981 
L 117.337028 83.274938 
L 115.83655 83.029823 
L 114.378601 83.088498 
L 112.961397 83.329015 
L 111.583256 83.482445 
L 110.242583 83.66753 
L 108.937871 83.823547 
L 107.667692 83.079306 
L 106.430694 81.891499 
L 105.225592 81.206495 
L 104.051169 80.75046 
L 102.906269 80.335269 
L 101.789791 79.723129 
L 100.70069 78.75974 
L 99.637971 78.299716 
L 98.600688 78.270182 
L 97.587938 78.215574 
L 96.59886 78.09418 
L 95.632635 77.795679 
L 94.68848 77.079011 
L 93.765646 76.299394 
L 92.863419 75.684444 
L 91.981118 75.132283 
L 91.118089 74.557609 
L 90.273707 73.827626 
L 89.447375 73.056335 
L 88.638519 72.715097 
L 87.846593 72.60057 
L 87.071068 72.44351 
L 86.311441 72.216839 
L 85.567229 71.86525 
L 84.837966 71.360598 
L 84.123207 70.936593 
L 83.422523 70.659085 
L 82.735503 70.444765 
L 82.06175 70.233218 
L 81.400885 69.909673 
L 80.75254 69.512329 
L 80.116364 69.456793 
L 79.492016 69.647967 
L 78.879171 69.827967 
L 78.277513 69.936436 
L 77.686738 69.878937 
L 77.106555 69.644748 
L 76.53668 69.596661 
L 75.976841 69.756102 
L 75.426776 69.949752 
L 74.88623 70.084983 
L 74.35496 69.9937 
L 73.832727 69.779507 
" style="fill:none;stroke:#8c564b;stroke-linecap:square;stroke-width:1.5;"/>
   </g>
   <g id="patch_3">
    <path d="M 57.6 307.584 
L 57.6 41.472 
" style="fill:none;stroke:#000000;stroke-linecap:square;stroke-linejoin:miter;stroke-width:0.8;"/>
   </g>
   <g id="patch_4">
    <path d="M 414.72 307.584 
L 414.72 41.472 
" style="fill:none;stroke:#000000;stroke-linecap:square;stroke-linejoin:miter;stroke-width:0.8;"/>
   </g>
   <g id="patch_5">
    <path d="M 57.6 307.584 
L 414.72 307.584 
" style="fill:none;stroke:#000000;stroke-linecap:square;stroke-linejoin:miter;stroke-width:0.8;"/>
   </g>
   <g id="patch_6">
    <path d="M 57.6 41.472 
L 414.72 41.472 
" style="fill:none;stroke:#000000;stroke-linecap:square;stroke-linejoin:miter;stroke-width:0.8;"/>
   </g>
   <g id="text_17">
    <!-- transmissionToWavelengths -->
    <defs>
     <path d="M -0.296875 72.90625 
L 61.375 72.90625 
L 61.375 64.59375 
L 35.5 64.59375 
L 35.5 0 
L 25.59375 0 
L 25.59375 64.59375 
L -0.296875 64.59375 
z
" id="DejaVuSans-84"/>
     <path d="M 3.328125 72.90625 
L 13.28125 72.90625 
L 28.609375 11.28125 
L 43.890625 72.90625 
L 54.984375 72.90625 
L 70.3125 11.28125 
L 85.59375 72.90625 
L 95.609375 72.90625 
L 77.296875 0 
L 64.890625 0 
L 49.515625 63.28125 
L 33.984375 0 
L 21.578125 0 
z
" id="DejaVuSans-87"/>
    </defs>
    <g transform="translate(152.796562 35.472)scale(0.12 -0.12)">
     <use xlink:href="#DejaVuSans-116"/>
     <use x="39.208984" xlink:href="#DejaVuSans-114"/>
     <use x="80.322266" xlink:href="#DejaVuSans-97"/>
     <use x="141.601562" xlink:href="#DejaVuSans-110"/>
     <use x="204.980469" xlink:href="#DejaVuSans-115"/>
     <use x="257.080078" xlink:href="#DejaVuSans-109"/>
     <use x="354.492188" xlink:href="#DejaVuSans-105"/>
     <use x="382.275391" xlink:href="#DejaVuSans-115"/>
     <use x="434.375" xlink:href="#DejaVuSans-115"/>
     <use x="486.474609" xlink:href="#DejaVuSans-105"/>
     <use x="514.257812" xlink:href="#DejaVuSans-111"/>
     <use x="575.439453" xlink:href="#DejaVuSans-110"/>
     <use x="638.818359" xlink:href="#DejaVuSans-84"/>
     <use x="682.902344" xlink:href="#DejaVuSans-111"/>
     <use x="744.083984" xlink:href="#DejaVuSans-87"/>
     <use x="836.585938" xlink:href="#DejaVuSans-97"/>
     <use x="897.865234" xlink:href="#DejaVuSans-118"/>
     <use x="957.044922" xlink:href="#DejaVuSans-101"/>
     <use x="1018.568359" xlink:href="#DejaVuSans-108"/>
     <use x="1046.351562" xlink:href="#DejaVuSans-101"/>
     <use x="1107.875" xlink:href="#DejaVuSans-110"/>
     <use x="1171.253906" xlink:href="#DejaVuSans-103"/>
     <use x="1234.730469" xlink:href="#DejaVuSans-116"/>
     <use x="1273.939453" xlink:href="#DejaVuSans-104"/>
     <use x="1337.318359" xlink:href="#DejaVuSans-115"/>
    </g>
   </g>
   <g id="legend_1">
    <g id="patch_7">
     <path d="M 64.6 302.584 
L 206.754688 302.584 
Q 208.754688 302.584 208.754688 300.584 
L 208.754688 226.80275 
Q 208.754688 224.80275 206.754688 224.80275 
L 64.6 224.80275 
Q 62.6 224.80275 62.6 226.80275 
L 62.6 300.584 
Q 62.6 302.584 64.6 302.584 
z
" style="fill:#ffffff;opacity:0.8;stroke:#cccccc;stroke-linejoin:miter;"/>
    </g>
    <g id="line2d_20">
     <path d="M 66.6 232.901187 
L 86.6 232.901187 
" style="fill:none;stroke:#ff7f0e;stroke-linecap:square;stroke-width:1.5;"/>
    </g>
    <g id="line2d_21"/>
    <g id="text_18">
     <!-- spacing_thickness:0.5 -->
     <defs>
      <path d="M 18.109375 8.203125 
L 18.109375 -20.796875 
L 9.078125 -20.796875 
L 9.078125 54.6875 
L 18.109375 54.6875 
L 18.109375 46.390625 
Q 20.953125 51.265625 25.265625 53.625 
Q 29.59375 56 35.59375 56 
Q 45.5625 56 51.78125 48.09375 
Q 58.015625 40.1875 58.015625 27.296875 
Q 58.015625 14.40625 51.78125 6.484375 
Q 45.5625 -1.421875 35.59375 -1.421875 
Q 29.59375 -1.421875 25.265625 0.953125 
Q 20.953125 3.328125 18.109375 8.203125 
z
M 48.6875 27.296875 
Q 48.6875 37.203125 44.609375 42.84375 
Q 40.53125 48.484375 33.40625 48.484375 
Q 26.265625 48.484375 22.1875 42.84375 
Q 18.109375 37.203125 18.109375 27.296875 
Q 18.109375 17.390625 22.1875 11.75 
Q 26.265625 6.109375 33.40625 6.109375 
Q 40.53125 6.109375 44.609375 11.75 
Q 48.6875 17.390625 48.6875 27.296875 
z
" id="DejaVuSans-112"/>
      <path d="M 48.78125 52.59375 
L 48.78125 44.1875 
Q 44.96875 46.296875 41.140625 47.34375 
Q 37.3125 48.390625 33.40625 48.390625 
Q 24.65625 48.390625 19.8125 42.84375 
Q 14.984375 37.3125 14.984375 27.296875 
Q 14.984375 17.28125 19.8125 11.734375 
Q 24.65625 6.203125 33.40625 6.203125 
Q 37.3125 6.203125 41.140625 7.25 
Q 44.96875 8.296875 48.78125 10.40625 
L 48.78125 2.09375 
Q 45.015625 0.34375 40.984375 -0.53125 
Q 36.96875 -1.421875 32.421875 -1.421875 
Q 20.0625 -1.421875 12.78125 6.34375 
Q 5.515625 14.109375 5.515625 27.296875 
Q 5.515625 40.671875 12.859375 48.328125 
Q 20.21875 56 33.015625 56 
Q 37.15625 56 41.109375 55.140625 
Q 45.0625 54.296875 48.78125 52.59375 
z
" id="DejaVuSans-99"/>
      <path d="M 50.984375 -16.609375 
L 50.984375 -23.578125 
L -0.984375 -23.578125 
L -0.984375 -16.609375 
z
" id="DejaVuSans-95"/>
      <path d="M 9.078125 75.984375 
L 18.109375 75.984375 
L 18.109375 31.109375 
L 44.921875 54.6875 
L 56.390625 54.6875 
L 27.390625 29.109375 
L 57.625 0 
L 45.90625 0 
L 18.109375 26.703125 
L 18.109375 0 
L 9.078125 0 
z
" id="DejaVuSans-107"/>
      <path d="M 11.71875 12.40625 
L 22.015625 12.40625 
L 22.015625 0 
L 11.71875 0 
z
M 11.71875 51.703125 
L 22.015625 51.703125 
L 22.015625 39.3125 
L 11.71875 39.3125 
z
" id="DejaVuSans-58"/>
     </defs>
     <g transform="translate(94.6 236.401187)scale(0.1 -0.1)">
      <use xlink:href="#DejaVuSans-115"/>
      <use x="52.099609" xlink:href="#DejaVuSans-112"/>
      <use x="115.576172" xlink:href="#DejaVuSans-97"/>
      <use x="176.855469" xlink:href="#DejaVuSans-99"/>
      <use x="231.835938" xlink:href="#DejaVuSans-105"/>
      <use x="259.619141" xlink:href="#DejaVuSans-110"/>
      <use x="322.998047" xlink:href="#DejaVuSans-103"/>
      <use x="386.474609" xlink:href="#DejaVuSans-95"/>
      <use x="436.474609" xlink:href="#DejaVuSans-116"/>
      <use x="475.683594" xlink:href="#DejaVuSans-104"/>
      <use x="539.0625" xlink:href="#DejaVuSans-105"/>
      <use x="566.845703" xlink:href="#DejaVuSans-99"/>
      <use x="621.826172" xlink:href="#DejaVuSans-107"/>
      <use x="679.736328" xlink:href="#DejaVuSans-110"/>
      <use x="743.115234" xlink:href="#DejaVuSans-101"/>
      <use x="804.638672" xlink:href="#DejaVuSans-115"/>
      <use x="856.738281" xlink:href="#DejaVuSans-115"/>
      <use x="908.837891" xlink:href="#DejaVuSans-58"/>
      <use x="942.529297" xlink:href="#DejaVuSans-48"/>
      <use x="1006.152344" xlink:href="#DejaVuSans-46"/>
      <use x="1037.939453" xlink:href="#DejaVuSans-53"/>
     </g>
    </g>
    <g id="line2d_22">
     <path d="M 66.6 247.857437 
L 86.6 247.857437 
" style="fill:none;stroke:#2ca02c;stroke-linecap:square;stroke-width:1.5;"/>
    </g>
    <g id="line2d_23"/>
    <g id="text_19">
     <!-- spacing_thickness:1.0 -->
     <g transform="translate(94.6 251.357437)scale(0.1 -0.1)">
      <use xlink:href="#DejaVuSans-115"/>
      <use x="52.099609" xlink:href="#DejaVuSans-112"/>
      <use x="115.576172" xlink:href="#DejaVuSans-97"/>
      <use x="176.855469" xlink:href="#DejaVuSans-99"/>
      <use x="231.835938" xlink:href="#DejaVuSans-105"/>
      <use x="259.619141" xlink:href="#DejaVuSans-110"/>
      <use x="322.998047" xlink:href="#DejaVuSans-103"/>
      <use x="386.474609" xlink:href="#DejaVuSans-95"/>
      <use x="436.474609" xlink:href="#DejaVuSans-116"/>
      <use x="475.683594" xlink:href="#DejaVuSans-104"/>
      <use x="539.0625" xlink:href="#DejaVuSans-105"/>
      <use x="566.845703" xlink:href="#DejaVuSans-99"/>
      <use x="621.826172" xlink:href="#DejaVuSans-107"/>
      <use x="679.736328" xlink:href="#DejaVuSans-110"/>
      <use x="743.115234" xlink:href="#DejaVuSans-101"/>
      <use x="804.638672" xlink:href="#DejaVuSans-115"/>
      <use x="856.738281" xlink:href="#DejaVuSans-115"/>
      <use x="908.837891" xlink:href="#DejaVuSans-58"/>
      <use x="942.529297" xlink:href="#DejaVuSans-49"/>
      <use x="1006.152344" xlink:href="#DejaVuSans-46"/>
      <use x="1037.939453" xlink:href="#DejaVuSans-48"/>
     </g>
    </g>
    <g id="line2d_24">
     <path d="M 66.6 262.813688 
L 86.6 262.813688 
" style="fill:none;stroke:#d62728;stroke-linecap:square;stroke-width:1.5;"/>
    </g>
    <g id="line2d_25"/>
    <g id="text_20">
     <!-- spacing_thickness:1.5 -->
     <g transform="translate(94.6 266.313688)scale(0.1 -0.1)">
      <use xlink:href="#DejaVuSans-115"/>
      <use x="52.099609" xlink:href="#DejaVuSans-112"/>
      <use x="115.576172" xlink:href="#DejaVuSans-97"/>
      <use x="176.855469" xlink:href="#DejaVuSans-99"/>
      <use x="231.835938" xlink:href="#DejaVuSans-105"/>
      <use x="259.619141" xlink:href="#DejaVuSans-110"/>
      <use x="322.998047" xlink:href="#DejaVuSans-103"/>
      <use x="386.474609" xlink:href="#DejaVuSans-95"/>
      <use x="436.474609" xlink:href="#DejaVuSans-116"/>
      <use x="475.683594" xlink:href="#DejaVuSans-104"/>
      <use x="539.0625" xlink:href="#DejaVuSans-105"/>
      <use x="566.845703" xlink:href="#DejaVuSans-99"/>
      <use x="621.826172" xlink:href="#DejaVuSans-107"/>
      <use x="679.736328" xlink:href="#DejaVuSans-110"/>
      <use x="743.115234" xlink:href="#DejaVuSans-101"/>
      <use x="804.638672" xlink:href="#DejaVuSans-115"/>
      <use x="856.738281" xlink:href="#DejaVuSans-115"/>
      <use x="908.837891" xlink:href="#DejaVuSans-58"/>
      <use x="942.529297" xlink:href="#DejaVuSans-49"/>
      <use x="1006.152344" xlink:href="#DejaVuSans-46"/>
      <use x="1037.939453" xlink:href="#DejaVuSans-53"/>
     </g>
    </g>
    <g id="line2d_26">
     <path d="M 66.6 277.769937 
L 86.6 277.769937 
" style="fill:none;stroke:#9467bd;stroke-linecap:square;stroke-width:1.5;"/>
    </g>
    <g id="line2d_27"/>
    <g id="text_21">
     <!-- spacing_thickness:2.0 -->
     <g transform="translate(94.6 281.269937)scale(0.1 -0.1)">
      <use xlink:href="#DejaVuSans-115"/>
      <use x="52.099609" xlink:href="#DejaVuSans-112"/>
      <use x="115.576172" xlink:href="#DejaVuSans-97"/>
      <use x="176.855469" xlink:href="#DejaVuSans-99"/>
      <use x="231.835938" xlink:href="#DejaVuSans-105"/>
      <use x="259.619141" xlink:href="#DejaVuSans-110"/>
      <use x="322.998047" xlink:href="#DejaVuSans-103"/>
      <use x="386.474609" xlink:href="#DejaVuSans-95"/>
      <use x="436.474609" xlink:href="#DejaVuSans-116"/>
      <use x="475.683594" xlink:href="#DejaVuSans-104"/>
      <use x="539.0625" xlink:href="#DejaVuSans-105"/>
      <use x="566.845703" xlink:href="#DejaVuSans-99"/>
      <use x="621.826172" xlink:href="#DejaVuSans-107"/>
      <use x="679.736328" xlink:href="#DejaVuSans-110"/>
      <use x="743.115234" xlink:href="#DejaVuSans-101"/>
      <use x="804.638672" xlink:href="#DejaVuSans-115"/>
      <use x="856.738281" xlink:href="#DejaVuSans-115"/>
      <use x="908.837891" xlink:href="#DejaVuSans-58"/>
      <use x="942.529297" xlink:href="#DejaVuSans-50"/>
      <use x="1006.152344" xlink:href="#DejaVuSans-46"/>
      <use x="1037.939453" xlink:href="#DejaVuSans-48"/>
     </g>
    </g>
    <g id="line2d_28">
     <path d="M 66.6 292.726187 
L 86.6 292.726187 
" style="fill:none;stroke:#8c564b;stroke-linecap:square;stroke-width:1.5;"/>
    </g>
    <g id="line2d_29"/>
    <g id="text_22">
     <!-- spacing_thickness:2.5 -->
     <g transform="translate(94.6 296.226187)scale(0.1 -0.1)">
      <use xlink:href="#DejaVuSans-115"/>
      <use x="52.099609" xlink:href="#DejaVuSans-112"/>
      <use x="115.576172" xlink:href="#DejaVuSans-97"/>
      <use x="176.855469" xlink:href="#DejaVuSans-99"/>
      <use x="231.835938" xlink:href="#DejaVuSans-105"/>
      <use x="259.619141" xlink:href="#DejaVuSans-110"/>
      <use x="322.998047" xlink:href="#DejaVuSans-103"/>
      <use x="386.474609" xlink:href="#DejaVuSans-95"/>
      <use x="436.474609" xlink:href="#DejaVuSans-116"/>
      <use x="475.683594" xlink:href="#DejaVuSans-104"/>
      <use x="539.0625" xlink:href="#DejaVuSans-105"/>
      <use x="566.845703" xlink:href="#DejaVuSans-99"/>
      <use x="621.826172" xlink:href="#DejaVuSans-107"/>
      <use x="679.736328" xlink:href="#DejaVuSans-110"/>
      <use x="743.115234" xlink:href="#DejaVuSans-101"/>
      <use x="804.638672" xlink:href="#DejaVuSans-115"/>
      <use x="856.738281" xlink:href="#DejaVuSans-115"/>
      <use x="908.837891" xlink:href="#DejaVuSans-58"/>
      <use x="942.529297" xlink:href="#DejaVuSans-50"/>
      <use x="1006.152344" xlink:href="#DejaVuSans-46"/>
      <use x="1037.939453" xlink:href="#DejaVuSans-53"/>
     </g>
    </g>
   </g>
  </g>
 </g>
 <defs>
  <clipPath id="pb219f477bc">
   <rect height="266.112" width="357.12" x="57.6" y="41.472"/>
  </clipPath>
 </defs>
</svg>
