<?xml version="1.0" encoding="utf-8" standalone="no"?>
<!DOCTYPE svg PUBLIC "-//W3C//DTD SVG 1.1//EN"
  "http://www.w3.org/Graphics/SVG/1.1/DTD/svg11.dtd">
<!-- Created with matplotlib (https://matplotlib.org/) -->
<svg height="345.6pt" version="1.1" viewBox="0 0 460.8 345.6" width="460.8pt" xmlns="http://www.w3.org/2000/svg" xmlns:xlink="http://www.w3.org/1999/xlink">
 <defs>
  <style type="text/css">
*{stroke-linecap:butt;stroke-linejoin:round;}
  </style>
 </defs>
 <g id="figure_1">
  <g id="patch_1">
   <path d="M 0 345.6 
L 460.8 345.6 
L 460.8 0 
L 0 0 
z
" style="fill:#ffffff;"/>
  </g>
  <g id="axes_1">
   <g id="patch_2">
    <path d="M 57.6 307.584 
L 414.72 307.584 
L 414.72 41.472 
L 57.6 41.472 
z
" style="fill:#ffffff;"/>
   </g>
   <g id="matplotlib.axis_1">
    <g id="xtick_1">
     <g id="line2d_1">
      <defs>
       <path d="M 0 0 
L 0 3.5 
" id="m98dfb14b2d" style="stroke:#000000;stroke-width:0.8;"/>
      </defs>
      <g>
       <use style="stroke:#000000;stroke-width:0.8;" x="73.832727" xlink:href="#m98dfb14b2d" y="307.584"/>
      </g>
     </g>
     <g id="text_1">
      <!-- 350 -->
      <defs>
       <path d="M 40.578125 39.3125 
Q 47.65625 37.796875 51.625 33 
Q 55.609375 28.21875 55.609375 21.1875 
Q 55.609375 10.40625 48.1875 4.484375 
Q 40.765625 -1.421875 27.09375 -1.421875 
Q 22.515625 -1.421875 17.65625 -0.515625 
Q 12.796875 0.390625 7.625 2.203125 
L 7.625 11.71875 
Q 11.71875 9.328125 16.59375 8.109375 
Q 21.484375 6.890625 26.8125 6.890625 
Q 36.078125 6.890625 40.9375 10.546875 
Q 45.796875 14.203125 45.796875 21.1875 
Q 45.796875 27.640625 41.28125 31.265625 
Q 36.765625 34.90625 28.71875 34.90625 
L 20.21875 34.90625 
L 20.21875 43.015625 
L 29.109375 43.015625 
Q 36.375 43.015625 40.234375 45.921875 
Q 44.09375 48.828125 44.09375 54.296875 
Q 44.09375 59.90625 40.109375 62.90625 
Q 36.140625 65.921875 28.71875 65.921875 
Q 24.65625 65.921875 20.015625 65.03125 
Q 15.375 64.15625 9.8125 62.3125 
L 9.8125 71.09375 
Q 15.4375 72.65625 20.34375 73.4375 
Q 25.25 74.21875 29.59375 74.21875 
Q 40.828125 74.21875 47.359375 69.109375 
Q 53.90625 64.015625 53.90625 55.328125 
Q 53.90625 49.265625 50.4375 45.09375 
Q 46.96875 40.921875 40.578125 39.3125 
z
" id="DejaVuSans-51"/>
       <path d="M 10.796875 72.90625 
L 49.515625 72.90625 
L 49.515625 64.59375 
L 19.828125 64.59375 
L 19.828125 46.734375 
Q 21.96875 47.46875 24.109375 47.828125 
Q 26.265625 48.1875 28.421875 48.1875 
Q 40.625 48.1875 47.75 41.5 
Q 54.890625 34.8125 54.890625 23.390625 
Q 54.890625 11.625 47.5625 5.09375 
Q 40.234375 -1.421875 26.90625 -1.421875 
Q 22.3125 -1.421875 17.546875 -0.640625 
Q 12.796875 0.140625 7.71875 1.703125 
L 7.71875 11.625 
Q 12.109375 9.234375 16.796875 8.0625 
Q 21.484375 6.890625 26.703125 6.890625 
Q 35.15625 6.890625 40.078125 11.328125 
Q 45.015625 15.765625 45.015625 23.390625 
Q 45.015625 31 40.078125 35.4375 
Q 35.15625 39.890625 26.703125 39.890625 
Q 22.75 39.890625 18.8125 39.015625 
Q 14.890625 38.140625 10.796875 36.28125 
z
" id="DejaVuSans-53"/>
       <path d="M 31.78125 66.40625 
Q 24.171875 66.40625 20.328125 58.90625 
Q 16.5 51.421875 16.5 36.375 
Q 16.5 21.390625 20.328125 13.890625 
Q 24.171875 6.390625 31.78125 6.390625 
Q 39.453125 6.390625 43.28125 13.890625 
Q 47.125 21.390625 47.125 36.375 
Q 47.125 51.421875 43.28125 58.90625 
Q 39.453125 66.40625 31.78125 66.40625 
z
M 31.78125 74.21875 
Q 44.046875 74.21875 50.515625 64.515625 
Q 56.984375 54.828125 56.984375 36.375 
Q 56.984375 17.96875 50.515625 8.265625 
Q 44.046875 -1.421875 31.78125 -1.421875 
Q 19.53125 -1.421875 13.0625 8.265625 
Q 6.59375 17.96875 6.59375 36.375 
Q 6.59375 54.828125 13.0625 64.515625 
Q 19.53125 74.21875 31.78125 74.21875 
z
" id="DejaVuSans-48"/>
      </defs>
      <g transform="translate(64.288977 322.182437)scale(0.1 -0.1)">
       <use xlink:href="#DejaVuSans-51"/>
       <use x="63.623047" xlink:href="#DejaVuSans-53"/>
       <use x="127.246094" xlink:href="#DejaVuSans-48"/>
      </g>
     </g>
    </g>
    <g id="xtick_2">
     <g id="line2d_2">
      <g>
       <use style="stroke:#000000;stroke-width:0.8;" x="114.414545" xlink:href="#m98dfb14b2d" y="307.584"/>
      </g>
     </g>
     <g id="text_2">
      <!-- 400 -->
      <defs>
       <path d="M 37.796875 64.3125 
L 12.890625 25.390625 
L 37.796875 25.390625 
z
M 35.203125 72.90625 
L 47.609375 72.90625 
L 47.609375 25.390625 
L 58.015625 25.390625 
L 58.015625 17.1875 
L 47.609375 17.1875 
L 47.609375 0 
L 37.796875 0 
L 37.796875 17.1875 
L 4.890625 17.1875 
L 4.890625 26.703125 
z
" id="DejaVuSans-52"/>
      </defs>
      <g transform="translate(104.870795 322.182437)scale(0.1 -0.1)">
       <use xlink:href="#DejaVuSans-52"/>
       <use x="63.623047" xlink:href="#DejaVuSans-48"/>
       <use x="127.246094" xlink:href="#DejaVuSans-48"/>
      </g>
     </g>
    </g>
    <g id="xtick_3">
     <g id="line2d_3">
      <g>
       <use style="stroke:#000000;stroke-width:0.8;" x="154.996364" xlink:href="#m98dfb14b2d" y="307.584"/>
      </g>
     </g>
     <g id="text_3">
      <!-- 450 -->
      <g transform="translate(145.452614 322.182437)scale(0.1 -0.1)">
       <use xlink:href="#DejaVuSans-52"/>
       <use x="63.623047" xlink:href="#DejaVuSans-53"/>
       <use x="127.246094" xlink:href="#DejaVuSans-48"/>
      </g>
     </g>
    </g>
    <g id="xtick_4">
     <g id="line2d_4">
      <g>
       <use style="stroke:#000000;stroke-width:0.8;" x="195.578182" xlink:href="#m98dfb14b2d" y="307.584"/>
      </g>
     </g>
     <g id="text_4">
      <!-- 500 -->
      <g transform="translate(186.034432 322.182437)scale(0.1 -0.1)">
       <use xlink:href="#DejaVuSans-53"/>
       <use x="63.623047" xlink:href="#DejaVuSans-48"/>
       <use x="127.246094" xlink:href="#DejaVuSans-48"/>
      </g>
     </g>
    </g>
    <g id="xtick_5">
     <g id="line2d_5">
      <g>
       <use style="stroke:#000000;stroke-width:0.8;" x="236.16" xlink:href="#m98dfb14b2d" y="307.584"/>
      </g>
     </g>
     <g id="text_5">
      <!-- 550 -->
      <g transform="translate(226.61625 322.182437)scale(0.1 -0.1)">
       <use xlink:href="#DejaVuSans-53"/>
       <use x="63.623047" xlink:href="#DejaVuSans-53"/>
       <use x="127.246094" xlink:href="#DejaVuSans-48"/>
      </g>
     </g>
    </g>
    <g id="xtick_6">
     <g id="line2d_6">
      <g>
       <use style="stroke:#000000;stroke-width:0.8;" x="276.741818" xlink:href="#m98dfb14b2d" y="307.584"/>
      </g>
     </g>
     <g id="text_6">
      <!-- 600 -->
      <defs>
       <path d="M 33.015625 40.375 
Q 26.375 40.375 22.484375 35.828125 
Q 18.609375 31.296875 18.609375 23.390625 
Q 18.609375 15.53125 22.484375 10.953125 
Q 26.375 6.390625 33.015625 6.390625 
Q 39.65625 6.390625 43.53125 10.953125 
Q 47.40625 15.53125 47.40625 23.390625 
Q 47.40625 31.296875 43.53125 35.828125 
Q 39.65625 40.375 33.015625 40.375 
z
M 52.59375 71.296875 
L 52.59375 62.3125 
Q 48.875 64.0625 45.09375 64.984375 
Q 41.3125 65.921875 37.59375 65.921875 
Q 27.828125 65.921875 22.671875 59.328125 
Q 17.53125 52.734375 16.796875 39.40625 
Q 19.671875 43.65625 24.015625 45.921875 
Q 28.375 48.1875 33.59375 48.1875 
Q 44.578125 48.1875 50.953125 41.515625 
Q 57.328125 34.859375 57.328125 23.390625 
Q 57.328125 12.15625 50.6875 5.359375 
Q 44.046875 -1.421875 33.015625 -1.421875 
Q 20.359375 -1.421875 13.671875 8.265625 
Q 6.984375 17.96875 6.984375 36.375 
Q 6.984375 53.65625 15.1875 63.9375 
Q 23.390625 74.21875 37.203125 74.21875 
Q 40.921875 74.21875 44.703125 73.484375 
Q 48.484375 72.75 52.59375 71.296875 
z
" id="DejaVuSans-54"/>
      </defs>
      <g transform="translate(267.198068 322.182437)scale(0.1 -0.1)">
       <use xlink:href="#DejaVuSans-54"/>
       <use x="63.623047" xlink:href="#DejaVuSans-48"/>
       <use x="127.246094" xlink:href="#DejaVuSans-48"/>
      </g>
     </g>
    </g>
    <g id="xtick_7">
     <g id="line2d_7">
      <g>
       <use style="stroke:#000000;stroke-width:0.8;" x="317.323636" xlink:href="#m98dfb14b2d" y="307.584"/>
      </g>
     </g>
     <g id="text_7">
      <!-- 650 -->
      <g transform="translate(307.779886 322.182437)scale(0.1 -0.1)">
       <use xlink:href="#DejaVuSans-54"/>
       <use x="63.623047" xlink:href="#DejaVuSans-53"/>
       <use x="127.246094" xlink:href="#DejaVuSans-48"/>
      </g>
     </g>
    </g>
    <g id="xtick_8">
     <g id="line2d_8">
      <g>
       <use style="stroke:#000000;stroke-width:0.8;" x="357.905455" xlink:href="#m98dfb14b2d" y="307.584"/>
      </g>
     </g>
     <g id="text_8">
      <!-- 700 -->
      <defs>
       <path d="M 8.203125 72.90625 
L 55.078125 72.90625 
L 55.078125 68.703125 
L 28.609375 0 
L 18.3125 0 
L 43.21875 64.59375 
L 8.203125 64.59375 
z
" id="DejaVuSans-55"/>
      </defs>
      <g transform="translate(348.361705 322.182437)scale(0.1 -0.1)">
       <use xlink:href="#DejaVuSans-55"/>
       <use x="63.623047" xlink:href="#DejaVuSans-48"/>
       <use x="127.246094" xlink:href="#DejaVuSans-48"/>
      </g>
     </g>
    </g>
    <g id="xtick_9">
     <g id="line2d_9">
      <g>
       <use style="stroke:#000000;stroke-width:0.8;" x="398.487273" xlink:href="#m98dfb14b2d" y="307.584"/>
      </g>
     </g>
     <g id="text_9">
      <!-- 750 -->
      <g transform="translate(388.943523 322.182437)scale(0.1 -0.1)">
       <use xlink:href="#DejaVuSans-55"/>
       <use x="63.623047" xlink:href="#DejaVuSans-53"/>
       <use x="127.246094" xlink:href="#DejaVuSans-48"/>
      </g>
     </g>
    </g>
    <g id="text_10">
     <!-- wavelengths -->
     <defs>
      <path d="M 4.203125 54.6875 
L 13.1875 54.6875 
L 24.421875 12.015625 
L 35.59375 54.6875 
L 46.1875 54.6875 
L 57.421875 12.015625 
L 68.609375 54.6875 
L 77.59375 54.6875 
L 63.28125 0 
L 52.6875 0 
L 40.921875 44.828125 
L 29.109375 0 
L 18.5 0 
z
" id="DejaVuSans-119"/>
      <path d="M 34.28125 27.484375 
Q 23.390625 27.484375 19.1875 25 
Q 14.984375 22.515625 14.984375 16.5 
Q 14.984375 11.71875 18.140625 8.90625 
Q 21.296875 6.109375 26.703125 6.109375 
Q 34.1875 6.109375 38.703125 11.40625 
Q 43.21875 16.703125 43.21875 25.484375 
L 43.21875 27.484375 
z
M 52.203125 31.203125 
L 52.203125 0 
L 43.21875 0 
L 43.21875 8.296875 
Q 40.140625 3.328125 35.546875 0.953125 
Q 30.953125 -1.421875 24.3125 -1.421875 
Q 15.921875 -1.421875 10.953125 3.296875 
Q 6 8.015625 6 15.921875 
Q 6 25.140625 12.171875 29.828125 
Q 18.359375 34.515625 30.609375 34.515625 
L 43.21875 34.515625 
L 43.21875 35.40625 
Q 43.21875 41.609375 39.140625 45 
Q 35.0625 48.390625 27.6875 48.390625 
Q 23 48.390625 18.546875 47.265625 
Q 14.109375 46.140625 10.015625 43.890625 
L 10.015625 52.203125 
Q 14.9375 54.109375 19.578125 55.046875 
Q 24.21875 56 28.609375 56 
Q 40.484375 56 46.34375 49.84375 
Q 52.203125 43.703125 52.203125 31.203125 
z
" id="DejaVuSans-97"/>
      <path d="M 2.984375 54.6875 
L 12.5 54.6875 
L 29.59375 8.796875 
L 46.6875 54.6875 
L 56.203125 54.6875 
L 35.6875 0 
L 23.484375 0 
z
" id="DejaVuSans-118"/>
      <path d="M 56.203125 29.59375 
L 56.203125 25.203125 
L 14.890625 25.203125 
Q 15.484375 15.921875 20.484375 11.0625 
Q 25.484375 6.203125 34.421875 6.203125 
Q 39.59375 6.203125 44.453125 7.46875 
Q 49.3125 8.734375 54.109375 11.28125 
L 54.109375 2.78125 
Q 49.265625 0.734375 44.1875 -0.34375 
Q 39.109375 -1.421875 33.890625 -1.421875 
Q 20.796875 -1.421875 13.15625 6.1875 
Q 5.515625 13.8125 5.515625 26.8125 
Q 5.515625 40.234375 12.765625 48.109375 
Q 20.015625 56 32.328125 56 
Q 43.359375 56 49.78125 48.890625 
Q 56.203125 41.796875 56.203125 29.59375 
z
M 47.21875 32.234375 
Q 47.125 39.59375 43.09375 43.984375 
Q 39.0625 48.390625 32.421875 48.390625 
Q 24.90625 48.390625 20.390625 44.140625 
Q 15.875 39.890625 15.1875 32.171875 
z
" id="DejaVuSans-101"/>
      <path d="M 9.421875 75.984375 
L 18.40625 75.984375 
L 18.40625 0 
L 9.421875 0 
z
" id="DejaVuSans-108"/>
      <path d="M 54.890625 33.015625 
L 54.890625 0 
L 45.90625 0 
L 45.90625 32.71875 
Q 45.90625 40.484375 42.875 44.328125 
Q 39.84375 48.1875 33.796875 48.1875 
Q 26.515625 48.1875 22.3125 43.546875 
Q 18.109375 38.921875 18.109375 30.90625 
L 18.109375 0 
L 9.078125 0 
L 9.078125 54.6875 
L 18.109375 54.6875 
L 18.109375 46.1875 
Q 21.34375 51.125 25.703125 53.5625 
Q 30.078125 56 35.796875 56 
Q 45.21875 56 50.046875 50.171875 
Q 54.890625 44.34375 54.890625 33.015625 
z
" id="DejaVuSans-110"/>
      <path d="M 45.40625 27.984375 
Q 45.40625 37.75 41.375 43.109375 
Q 37.359375 48.484375 30.078125 48.484375 
Q 22.859375 48.484375 18.828125 43.109375 
Q 14.796875 37.75 14.796875 27.984375 
Q 14.796875 18.265625 18.828125 12.890625 
Q 22.859375 7.515625 30.078125 7.515625 
Q 37.359375 7.515625 41.375 12.890625 
Q 45.40625 18.265625 45.40625 27.984375 
z
M 54.390625 6.78125 
Q 54.390625 -7.171875 48.1875 -13.984375 
Q 42 -20.796875 29.203125 -20.796875 
Q 24.46875 -20.796875 20.265625 -20.09375 
Q 16.0625 -19.390625 12.109375 -17.921875 
L 12.109375 -9.1875 
Q 16.0625 -11.328125 19.921875 -12.34375 
Q 23.78125 -13.375 27.78125 -13.375 
Q 36.625 -13.375 41.015625 -8.765625 
Q 45.40625 -4.15625 45.40625 5.171875 
L 45.40625 9.625 
Q 42.625 4.78125 38.28125 2.390625 
Q 33.9375 0 27.875 0 
Q 17.828125 0 11.671875 7.65625 
Q 5.515625 15.328125 5.515625 27.984375 
Q 5.515625 40.671875 11.671875 48.328125 
Q 17.828125 56 27.875 56 
Q 33.9375 56 38.28125 53.609375 
Q 42.625 51.21875 45.40625 46.390625 
L 45.40625 54.6875 
L 54.390625 54.6875 
z
" id="DejaVuSans-103"/>
      <path d="M 18.3125 70.21875 
L 18.3125 54.6875 
L 36.8125 54.6875 
L 36.8125 47.703125 
L 18.3125 47.703125 
L 18.3125 18.015625 
Q 18.3125 11.328125 20.140625 9.421875 
Q 21.96875 7.515625 27.59375 7.515625 
L 36.8125 7.515625 
L 36.8125 0 
L 27.59375 0 
Q 17.1875 0 13.234375 3.875 
Q 9.28125 7.765625 9.28125 18.015625 
L 9.28125 47.703125 
L 2.6875 47.703125 
L 2.6875 54.6875 
L 9.28125 54.6875 
L 9.28125 70.21875 
z
" id="DejaVuSans-116"/>
      <path d="M 54.890625 33.015625 
L 54.890625 0 
L 45.90625 0 
L 45.90625 32.71875 
Q 45.90625 40.484375 42.875 44.328125 
Q 39.84375 48.1875 33.796875 48.1875 
Q 26.515625 48.1875 22.3125 43.546875 
Q 18.109375 38.921875 18.109375 30.90625 
L 18.109375 0 
L 9.078125 0 
L 9.078125 75.984375 
L 18.109375 75.984375 
L 18.109375 46.1875 
Q 21.34375 51.125 25.703125 53.5625 
Q 30.078125 56 35.796875 56 
Q 45.21875 56 50.046875 50.171875 
Q 54.890625 44.34375 54.890625 33.015625 
z
" id="DejaVuSans-104"/>
      <path d="M 44.28125 53.078125 
L 44.28125 44.578125 
Q 40.484375 46.53125 36.375 47.5 
Q 32.28125 48.484375 27.875 48.484375 
Q 21.1875 48.484375 17.84375 46.4375 
Q 14.5 44.390625 14.5 40.28125 
Q 14.5 37.15625 16.890625 35.375 
Q 19.28125 33.59375 26.515625 31.984375 
L 29.59375 31.296875 
Q 39.15625 29.25 43.1875 25.515625 
Q 47.21875 21.78125 47.21875 15.09375 
Q 47.21875 7.46875 41.1875 3.015625 
Q 35.15625 -1.421875 24.609375 -1.421875 
Q 20.21875 -1.421875 15.453125 -0.5625 
Q 10.6875 0.296875 5.421875 2 
L 5.421875 11.28125 
Q 10.40625 8.6875 15.234375 7.390625 
Q 20.0625 6.109375 24.8125 6.109375 
Q 31.15625 6.109375 34.5625 8.28125 
Q 37.984375 10.453125 37.984375 14.40625 
Q 37.984375 18.0625 35.515625 20.015625 
Q 33.0625 21.96875 24.703125 23.78125 
L 21.578125 24.515625 
Q 13.234375 26.265625 9.515625 29.90625 
Q 5.8125 33.546875 5.8125 39.890625 
Q 5.8125 47.609375 11.28125 51.796875 
Q 16.75 56 26.8125 56 
Q 31.78125 56 36.171875 55.265625 
Q 40.578125 54.546875 44.28125 53.078125 
z
" id="DejaVuSans-115"/>
     </defs>
     <g transform="translate(204.42875 335.860562)scale(0.1 -0.1)">
      <use xlink:href="#DejaVuSans-119"/>
      <use x="81.787109" xlink:href="#DejaVuSans-97"/>
      <use x="143.066406" xlink:href="#DejaVuSans-118"/>
      <use x="202.246094" xlink:href="#DejaVuSans-101"/>
      <use x="263.769531" xlink:href="#DejaVuSans-108"/>
      <use x="291.552734" xlink:href="#DejaVuSans-101"/>
      <use x="353.076172" xlink:href="#DejaVuSans-110"/>
      <use x="416.455078" xlink:href="#DejaVuSans-103"/>
      <use x="479.931641" xlink:href="#DejaVuSans-116"/>
      <use x="519.140625" xlink:href="#DejaVuSans-104"/>
      <use x="582.519531" xlink:href="#DejaVuSans-115"/>
     </g>
    </g>
   </g>
   <g id="matplotlib.axis_2">
    <g id="ytick_1">
     <g id="line2d_10">
      <defs>
       <path d="M 0 0 
L -3.5 0 
" id="me0cf4c2049" style="stroke:#000000;stroke-width:0.8;"/>
      </defs>
      <g>
       <use style="stroke:#000000;stroke-width:0.8;" x="57.6" xlink:href="#me0cf4c2049" y="290.102037"/>
      </g>
     </g>
     <g id="text_11">
      <!-- −0.06 -->
      <defs>
       <path d="M 10.59375 35.5 
L 73.1875 35.5 
L 73.1875 27.203125 
L 10.59375 27.203125 
z
" id="DejaVuSans-8722"/>
       <path d="M 10.6875 12.40625 
L 21 12.40625 
L 21 0 
L 10.6875 0 
z
" id="DejaVuSans-46"/>
      </defs>
      <g transform="translate(19.954687 293.901255)scale(0.1 -0.1)">
       <use xlink:href="#DejaVuSans-8722"/>
       <use x="83.789062" xlink:href="#DejaVuSans-48"/>
       <use x="147.412109" xlink:href="#DejaVuSans-46"/>
       <use x="179.199219" xlink:href="#DejaVuSans-48"/>
       <use x="242.822266" xlink:href="#DejaVuSans-54"/>
      </g>
     </g>
    </g>
    <g id="ytick_2">
     <g id="line2d_11">
      <g>
       <use style="stroke:#000000;stroke-width:0.8;" x="57.6" xlink:href="#me0cf4c2049" y="248.672604"/>
      </g>
     </g>
     <g id="text_12">
      <!-- −0.04 -->
      <g transform="translate(19.954687 252.471823)scale(0.1 -0.1)">
       <use xlink:href="#DejaVuSans-8722"/>
       <use x="83.789062" xlink:href="#DejaVuSans-48"/>
       <use x="147.412109" xlink:href="#DejaVuSans-46"/>
       <use x="179.199219" xlink:href="#DejaVuSans-48"/>
       <use x="242.822266" xlink:href="#DejaVuSans-52"/>
      </g>
     </g>
    </g>
    <g id="ytick_3">
     <g id="line2d_12">
      <g>
       <use style="stroke:#000000;stroke-width:0.8;" x="57.6" xlink:href="#me0cf4c2049" y="207.243171"/>
      </g>
     </g>
     <g id="text_13">
      <!-- −0.02 -->
      <defs>
       <path d="M 19.1875 8.296875 
L 53.609375 8.296875 
L 53.609375 0 
L 7.328125 0 
L 7.328125 8.296875 
Q 12.9375 14.109375 22.625 23.890625 
Q 32.328125 33.6875 34.8125 36.53125 
Q 39.546875 41.84375 41.421875 45.53125 
Q 43.3125 49.21875 43.3125 52.78125 
Q 43.3125 58.59375 39.234375 62.25 
Q 35.15625 65.921875 28.609375 65.921875 
Q 23.96875 65.921875 18.8125 64.3125 
Q 13.671875 62.703125 7.8125 59.421875 
L 7.8125 69.390625 
Q 13.765625 71.78125 18.9375 73 
Q 24.125 74.21875 28.421875 74.21875 
Q 39.75 74.21875 46.484375 68.546875 
Q 53.21875 62.890625 53.21875 53.421875 
Q 53.21875 48.921875 51.53125 44.890625 
Q 49.859375 40.875 45.40625 35.40625 
Q 44.1875 33.984375 37.640625 27.21875 
Q 31.109375 20.453125 19.1875 8.296875 
z
" id="DejaVuSans-50"/>
      </defs>
      <g transform="translate(19.954687 211.04239)scale(0.1 -0.1)">
       <use xlink:href="#DejaVuSans-8722"/>
       <use x="83.789062" xlink:href="#DejaVuSans-48"/>
       <use x="147.412109" xlink:href="#DejaVuSans-46"/>
       <use x="179.199219" xlink:href="#DejaVuSans-48"/>
       <use x="242.822266" xlink:href="#DejaVuSans-50"/>
      </g>
     </g>
    </g>
    <g id="ytick_4">
     <g id="line2d_13">
      <g>
       <use style="stroke:#000000;stroke-width:0.8;" x="57.6" xlink:href="#me0cf4c2049" y="165.813739"/>
      </g>
     </g>
     <g id="text_14">
      <!-- 0.00 -->
      <g transform="translate(28.334375 169.612958)scale(0.1 -0.1)">
       <use xlink:href="#DejaVuSans-48"/>
       <use x="63.623047" xlink:href="#DejaVuSans-46"/>
       <use x="95.410156" xlink:href="#DejaVuSans-48"/>
       <use x="159.033203" xlink:href="#DejaVuSans-48"/>
      </g>
     </g>
    </g>
    <g id="ytick_5">
     <g id="line2d_14">
      <g>
       <use style="stroke:#000000;stroke-width:0.8;" x="57.6" xlink:href="#me0cf4c2049" y="124.384306"/>
      </g>
     </g>
     <g id="text_15">
      <!-- 0.02 -->
      <g transform="translate(28.334375 128.183525)scale(0.1 -0.1)">
       <use xlink:href="#DejaVuSans-48"/>
       <use x="63.623047" xlink:href="#DejaVuSans-46"/>
       <use x="95.410156" xlink:href="#DejaVuSans-48"/>
       <use x="159.033203" xlink:href="#DejaVuSans-50"/>
      </g>
     </g>
    </g>
    <g id="ytick_6">
     <g id="line2d_15">
      <g>
       <use style="stroke:#000000;stroke-width:0.8;" x="57.6" xlink:href="#me0cf4c2049" y="82.954874"/>
      </g>
     </g>
     <g id="text_16">
      <!-- 0.04 -->
      <g transform="translate(28.334375 86.754092)scale(0.1 -0.1)">
       <use xlink:href="#DejaVuSans-48"/>
       <use x="63.623047" xlink:href="#DejaVuSans-46"/>
       <use x="95.410156" xlink:href="#DejaVuSans-48"/>
       <use x="159.033203" xlink:href="#DejaVuSans-52"/>
      </g>
     </g>
    </g>
    <g id="ytick_7">
     <g id="line2d_16">
      <g>
       <use style="stroke:#000000;stroke-width:0.8;" x="57.6" xlink:href="#me0cf4c2049" y="41.525441"/>
      </g>
     </g>
     <g id="text_17">
      <!-- 0.06 -->
      <g transform="translate(28.334375 45.32466)scale(0.1 -0.1)">
       <use xlink:href="#DejaVuSans-48"/>
       <use x="63.623047" xlink:href="#DejaVuSans-46"/>
       <use x="95.410156" xlink:href="#DejaVuSans-48"/>
       <use x="159.033203" xlink:href="#DejaVuSans-54"/>
      </g>
     </g>
    </g>
    <g id="text_18">
     <!-- transmission -->
     <defs>
      <path d="M 41.109375 46.296875 
Q 39.59375 47.171875 37.8125 47.578125 
Q 36.03125 48 33.890625 48 
Q 26.265625 48 22.1875 43.046875 
Q 18.109375 38.09375 18.109375 28.8125 
L 18.109375 0 
L 9.078125 0 
L 9.078125 54.6875 
L 18.109375 54.6875 
L 18.109375 46.1875 
Q 20.953125 51.171875 25.484375 53.578125 
Q 30.03125 56 36.53125 56 
Q 37.453125 56 38.578125 55.875 
Q 39.703125 55.765625 41.0625 55.515625 
z
" id="DejaVuSans-114"/>
      <path d="M 52 44.1875 
Q 55.375 50.25 60.0625 53.125 
Q 64.75 56 71.09375 56 
Q 79.640625 56 84.28125 50.015625 
Q 88.921875 44.046875 88.921875 33.015625 
L 88.921875 0 
L 79.890625 0 
L 79.890625 32.71875 
Q 79.890625 40.578125 77.09375 44.375 
Q 74.3125 48.1875 68.609375 48.1875 
Q 61.625 48.1875 57.5625 43.546875 
Q 53.515625 38.921875 53.515625 30.90625 
L 53.515625 0 
L 44.484375 0 
L 44.484375 32.71875 
Q 44.484375 40.625 41.703125 44.40625 
Q 38.921875 48.1875 33.109375 48.1875 
Q 26.21875 48.1875 22.15625 43.53125 
Q 18.109375 38.875 18.109375 30.90625 
L 18.109375 0 
L 9.078125 0 
L 9.078125 54.6875 
L 18.109375 54.6875 
L 18.109375 46.1875 
Q 21.1875 51.21875 25.484375 53.609375 
Q 29.78125 56 35.6875 56 
Q 41.65625 56 45.828125 52.96875 
Q 50 49.953125 52 44.1875 
z
" id="DejaVuSans-109"/>
      <path d="M 9.421875 54.6875 
L 18.40625 54.6875 
L 18.40625 0 
L 9.421875 0 
z
M 9.421875 75.984375 
L 18.40625 75.984375 
L 18.40625 64.59375 
L 9.421875 64.59375 
z
" id="DejaVuSans-105"/>
      <path d="M 30.609375 48.390625 
Q 23.390625 48.390625 19.1875 42.75 
Q 14.984375 37.109375 14.984375 27.296875 
Q 14.984375 17.484375 19.15625 11.84375 
Q 23.34375 6.203125 30.609375 6.203125 
Q 37.796875 6.203125 41.984375 11.859375 
Q 46.1875 17.53125 46.1875 27.296875 
Q 46.1875 37.015625 41.984375 42.703125 
Q 37.796875 48.390625 30.609375 48.390625 
z
M 30.609375 56 
Q 42.328125 56 49.015625 48.375 
Q 55.71875 40.765625 55.71875 27.296875 
Q 55.71875 13.875 49.015625 6.21875 
Q 42.328125 -1.421875 30.609375 -1.421875 
Q 18.84375 -1.421875 12.171875 6.21875 
Q 5.515625 13.875 5.515625 27.296875 
Q 5.515625 40.765625 12.171875 48.375 
Q 18.84375 56 30.609375 56 
z
" id="DejaVuSans-111"/>
     </defs>
     <g transform="translate(13.875 206.467062)rotate(-90)scale(0.1 -0.1)">
      <use xlink:href="#DejaVuSans-116"/>
      <use x="39.208984" xlink:href="#DejaVuSans-114"/>
      <use x="80.322266" xlink:href="#DejaVuSans-97"/>
      <use x="141.601562" xlink:href="#DejaVuSans-110"/>
      <use x="204.980469" xlink:href="#DejaVuSans-115"/>
      <use x="257.080078" xlink:href="#DejaVuSans-109"/>
      <use x="354.492188" xlink:href="#DejaVuSans-105"/>
      <use x="382.275391" xlink:href="#DejaVuSans-115"/>
      <use x="434.375" xlink:href="#DejaVuSans-115"/>
      <use x="486.474609" xlink:href="#DejaVuSans-105"/>
      <use x="514.257812" xlink:href="#DejaVuSans-111"/>
      <use x="575.439453" xlink:href="#DejaVuSans-110"/>
     </g>
    </g>
   </g>
   <g id="line2d_17">
    <path clip-path="url(#pa0eae11a22)" d="M 398.487273 147.235505 
L 391.540314 143.776967 
L 384.750127 140.299656 
L 378.111464 136.80148 
L 371.61931 133.28127 
L 365.268868 129.739093 
L 359.055547 126.175858 
L 352.974953 122.593844 
L 347.02288 118.996371 
L 341.195294 115.388097 
L 335.488331 111.774976 
L 329.898284 108.164261 
L 324.421597 104.56465 
L 319.054856 100.986132 
L 313.794783 97.440094 
L 308.638229 93.939127 
L 303.582168 90.496904 
L 298.623691 87.127903 
L 293.76 83.846944 
L 288.988402 80.668678 
L 284.306307 77.606818 
L 279.71122 74.673435 
L 275.200736 71.878324 
L 270.772543 69.228806 
L 266.424407 66.730286 
L 262.154177 64.387644 
L 257.959778 62.207494 
L 253.839208 60.200706 
L 249.790534 58.384791 
L 245.811892 56.785897 
L 241.901479 55.4412 
L 238.057556 54.403383 
L 234.27844 53.747481 
L 230.562508 53.568 
L 226.908187 53.923488 
L 223.313957 54.727541 
L 219.778349 55.797812 
L 216.299939 57.076887 
L 212.877352 58.645465 
L 209.509254 60.662541 
L 206.194353 63.662113 
L 202.931401 67.753269 
L 199.719184 71.627439 
L 196.556528 75.703042 
L 193.442297 80.27979 
L 190.375385 85.388475 
L 187.354722 91.012329 
L 184.37927 97.125948 
L 181.448022 103.699752 
L 178.56 110.699748 
L 175.714254 118.086938 
L 172.909864 125.816951 
L 170.145933 133.839956 
L 167.421594 142.100852 
L 164.736 150.539703 
L 162.088332 159.092431 
L 159.477791 167.691731 
L 156.903603 176.268221 
L 154.365013 184.751769 
L 151.861288 193.072986 
L 149.391714 201.164801 
L 146.955597 208.964087 
L 144.552262 216.413231 
L 142.181053 223.461596 
L 139.841328 230.066793 
L 137.532465 236.195675 
L 135.253857 241.825026 
L 133.004915 246.941887 
L 130.785061 251.543494 
L 128.593735 255.636867 
L 126.430391 259.238035 
L 124.294496 262.370981 
L 122.185532 265.066358 
L 120.102991 267.36006 
L 118.046381 269.29173 
L 116.01522 270.903297 
L 114.009039 272.237625 
L 112.02738 273.337349 
L 110.069795 274.243976 
L 108.135849 274.9973 
L 106.225116 275.635162 
L 104.337181 276.193595 
L 102.471638 276.707298 
L 100.628091 277.210405 
L 98.806154 277.737413 
L 97.005448 278.32405 
L 95.225605 279.007864 
L 93.466263 279.827996 
L 91.727072 280.82363 
L 90.007687 282.030066 
L 88.307771 283.47098 
L 86.626995 285.145233 
L 84.965038 287.007276 
L 83.321587 288.945831 
L 81.696332 290.777579 
L 80.088975 292.287955 
L 78.49922 293.339303 
L 76.92678 293.997751 
L 75.371374 294.56708 
L 73.832727 295.488 
" style="fill:none;stroke:#ff7f0e;stroke-linecap:square;stroke-width:1.5;"/>
   </g>
   <g id="line2d_18">
    <path clip-path="url(#pa0eae11a22)" d="M 398.487273 159.765695 
L 391.540314 154.501851 
L 384.750127 150.665424 
L 378.111464 147.433617 
L 371.61931 144.531516 
L 365.268868 141.82824 
L 359.055547 139.256917 
L 352.974953 136.77798 
L 347.02288 134.364572 
L 341.195294 132.001016 
L 335.488331 129.675443 
L 329.898284 127.381431 
L 324.421597 125.115372 
L 319.054856 122.876447 
L 313.794783 120.666658 
L 308.638229 118.489961 
L 303.582168 116.35286 
L 298.623691 114.263716 
L 293.76 112.232885 
L 288.988402 110.27225 
L 284.306307 108.39466 
L 279.71122 106.613182 
L 275.200736 104.939873 
L 270.772543 103.384549 
L 266.424407 101.953447 
L 262.154177 100.648495 
L 257.959778 99.467429 
L 253.839208 98.405182 
L 249.790534 97.456339 
L 245.811892 96.618381 
L 241.901479 95.895771 
L 238.057556 95.306524 
L 234.27844 94.895258 
L 230.562508 94.752766 
L 226.908187 95.008295 
L 223.313957 95.715258 
L 219.778349 96.727162 
L 216.299939 97.84303 
L 212.877352 98.984939 
L 209.509254 100.175083 
L 206.194353 101.836835 
L 202.931401 104.901617 
L 199.719184 108.039144 
L 196.556528 110.960141 
L 193.442297 114.056048 
L 190.375385 117.44826 
L 187.354722 121.160398 
L 184.37927 125.189017 
L 181.448022 129.520522 
L 178.56 134.135379 
L 175.714254 139.009237 
L 172.909864 144.113285 
L 170.145933 149.414356 
L 167.421594 154.87511 
L 164.736 160.454219 
L 162.088332 166.106691 
L 159.477791 171.78431 
L 156.903603 177.436194 
L 154.365013 183.009587 
L 151.861288 188.450808 
L 149.391714 193.706556 
L 146.955597 198.725526 
L 144.552262 203.460451 
L 142.181053 207.870574 
L 139.841328 211.924395 
L 137.532465 215.602567 
L 135.253857 218.900437 
L 133.004915 221.829799 
L 130.785061 224.419136 
L 128.593735 226.711475 
L 126.430391 228.75857 
L 124.294496 230.608994 
L 122.185532 232.287089 
L 120.102991 233.762092 
L 118.046381 234.921617 
L 116.01522 235.593888 
L 114.009039 235.665192 
L 112.02738 235.232803 
L 110.069795 234.62416 
L 108.135849 234.260308 
L 106.225116 234.539924 
L 104.337181 235.760659 
L 102.471638 237.546526 
L 100.628091 237.510842 
L 98.806154 234.490735 
L 97.005448 231.6134 
L 95.225605 230.158088 
L 93.466263 229.706899 
L 91.727072 229.839502 
L 90.007687 230.332413 
L 88.307771 231.073565 
L 86.626995 232.003484 
L 84.965038 233.087658 
L 83.321587 234.30357 
L 81.696332 235.635059 
L 80.088975 237.06912 
L 78.49922 238.594534 
L 76.92678 240.201269 
L 75.371374 241.879613 
L 73.832727 243.620761 
" style="fill:none;stroke:#2ca02c;stroke-linecap:square;stroke-width:1.5;"/>
   </g>
   <g id="line2d_19">
    <path clip-path="url(#pa0eae11a22)" d="M 398.487273 173.91514 
L 391.540314 170.42941 
L 384.750127 168.089285 
L 378.111464 167.466123 
L 371.61931 167.249601 
L 365.268868 163.385467 
L 359.055547 157.189504 
L 352.974953 152.497463 
L 347.02288 152.95539 
L 341.195294 154.816041 
L 335.488331 145.917086 
L 329.898284 140.71255 
L 324.421597 137.181837 
L 319.054856 134.318399 
L 313.794783 131.80484 
L 308.638229 129.51472 
L 303.582168 127.389741 
L 298.623691 125.400016 
L 293.76 123.529433 
L 288.988402 121.7701 
L 284.306307 120.118214 
L 279.71122 118.572846 
L 275.200736 117.134297 
L 270.772543 115.803312 
L 266.424407 114.580646 
L 262.154177 113.466725 
L 257.959778 112.462206 
L 253.839208 111.568632 
L 249.790534 110.789655 
L 245.811892 110.132302 
L 241.901479 109.608328 
L 238.057556 109.236152 
L 234.27844 109.043495 
L 230.562508 109.068132 
L 226.908187 109.343363 
L 223.313957 109.856677 
L 219.778349 110.539976 
L 216.299939 111.34775 
L 212.877352 112.297564 
L 209.509254 113.449982 
L 206.194353 115.008153 
L 202.931401 117.125549 
L 199.719184 119.231299 
L 196.556528 121.402105 
L 193.442297 123.799775 
L 190.375385 126.44895 
L 187.354722 129.343062 
L 184.37927 132.468858 
L 181.448022 135.809955 
L 178.56 139.347045 
L 175.714254 143.05774 
L 172.909864 146.916563 
L 170.145933 150.895208 
L 167.421594 154.963178 
L 164.736 159.088783 
L 162.088332 163.240534 
L 159.477791 167.38875 
L 156.903603 171.50711 
L 154.365013 175.573687 
L 151.861288 179.570672 
L 149.391714 183.481758 
L 146.955597 187.285394 
L 144.552262 190.941981 
L 142.181053 194.375748 
L 139.841328 197.464874 
L 137.532465 200.076643 
L 135.253857 202.171276 
L 133.004915 203.88865 
L 130.785061 205.486641 
L 128.593735 207.199101 
L 126.430391 209.157744 
L 124.294496 211.225143 
L 122.185532 212.329844 
L 120.102991 211.356711 
L 118.046381 210.293002 
L 116.01522 210.235446 
L 114.009039 210.71189 
L 112.02738 211.363639 
L 110.069795 212.052852 
L 108.135849 212.735853 
L 106.225116 213.403971 
L 104.337181 214.061527 
L 102.471638 214.717613 
L 100.628091 215.382815 
L 98.806154 216.068012 
L 97.005448 216.78397 
L 95.225605 217.541294 
L 93.466263 218.350571 
L 91.727072 219.222241 
L 90.007687 220.16629 
L 88.307771 221.191038 
L 86.626995 222.300832 
L 84.965038 223.492236 
L 83.321587 224.748649 
L 81.696332 226.036229 
L 80.088975 227.305813 
L 78.49922 228.508711 
L 76.92678 229.625608 
L 75.371374 230.69206 
L 73.832727 231.800838 
" style="fill:none;stroke:#d62728;stroke-linecap:square;stroke-width:1.5;"/>
   </g>
   <g id="line2d_20">
    <path clip-path="url(#pa0eae11a22)" d="M 398.487273 168.876746 
L 391.540314 166.893632 
L 384.750127 164.79165 
L 378.111464 162.550802 
L 371.61931 160.202559 
L 365.268868 157.835809 
L 359.055547 155.581031 
L 352.974953 153.593229 
L 347.02288 152.035119 
L 341.195294 150.952433 
L 335.488331 149.790468 
L 329.898284 147.462389 
L 324.421597 144.419874 
L 319.054856 141.949621 
L 313.794783 140.949343 
L 308.638229 141.473171 
L 303.582168 137.60744 
L 298.623691 134.591566 
L 293.76 132.615023 
L 288.988402 131.02999 
L 284.306307 129.645817 
L 279.71122 128.40016 
L 275.200736 127.269742 
L 270.772543 126.245581 
L 266.424407 125.324045 
L 262.154177 124.502877 
L 257.959778 123.779571 
L 253.839208 123.15074 
L 249.790534 122.612747 
L 245.811892 122.162974 
L 241.901479 121.801795 
L 238.057556 121.535634 
L 234.27844 121.382407 
L 230.562508 121.380083 
L 226.908187 121.586837 
L 223.313957 122.039085 
L 219.778349 122.687626 
L 216.299939 123.438874 
L 212.877352 124.245738 
L 209.509254 125.113023 
L 206.194353 126.211435 
L 202.931401 127.987555 
L 199.719184 129.904191 
L 196.556528 131.742423 
L 193.442297 133.685918 
L 190.375385 135.797368 
L 187.354722 138.087115 
L 184.37927 140.550384 
L 181.448022 143.176795 
L 178.56 145.95316 
L 175.714254 148.864788 
L 172.909864 151.896485 
L 170.145933 155.033483 
L 167.421594 158.262125 
L 164.736 161.569798 
L 162.088332 164.943031 
L 159.477791 168.361688 
L 156.903603 171.786775 
L 154.365013 175.144457 
L 151.861288 178.3272 
L 149.391714 181.245779 
L 146.955597 183.907124 
L 144.552262 186.418993 
L 142.181053 188.921829 
L 139.841328 191.542725 
L 137.532465 194.266693 
L 135.253857 196.347913 
L 133.004915 197.099136 
L 130.785061 197.686163 
L 128.593735 198.567832 
L 126.430391 199.555659 
L 124.294496 200.511919 
L 122.185532 201.381785 
L 120.102991 202.151113 
L 118.046381 202.824904 
L 116.01522 203.417827 
L 114.009039 203.949345 
L 112.02738 204.440213 
L 110.069795 204.908846 
L 108.135849 205.366818 
L 106.225116 205.813317 
L 104.337181 206.230037 
L 102.471638 206.581354 
L 100.628091 206.828369 
L 98.806154 206.961267 
L 97.005448 207.033392 
L 95.225605 207.162197 
L 93.466263 207.487593 
L 91.727072 208.121637 
L 90.007687 209.100392 
L 88.307771 210.246287 
L 86.626995 210.852937 
L 84.965038 210.126716 
L 83.321587 208.982869 
L 81.696332 208.651706 
L 80.088975 209.096253 
L 78.49922 209.967029 
L 76.92678 211.052454 
L 75.371374 212.252349 
L 73.832727 213.51969 
" style="fill:none;stroke:#9467bd;stroke-linecap:square;stroke-width:1.5;"/>
   </g>
   <g id="line2d_21">
    <path clip-path="url(#pa0eae11a22)" d="M 398.487273 169.542047 
L 391.540314 166.765642 
L 384.750127 164.666452 
L 378.111464 162.861147 
L 371.61931 161.201425 
L 365.268868 159.599714 
L 359.055547 157.997752 
L 352.974953 156.356447 
L 347.02288 154.664144 
L 341.195294 152.941772 
L 335.488331 151.242225 
L 329.898284 149.650091 
L 324.421597 148.277774 
L 319.054856 147.221975 
L 313.794783 146.33068 
L 308.638229 145.011132 
L 303.582168 143.102056 
L 298.623691 141.192294 
L 293.76 139.897352 
L 288.988402 140.079634 
L 284.306307 138.772058 
L 279.71122 136.375334 
L 275.200736 134.698624 
L 270.772543 133.409866 
L 266.424407 132.336879 
L 262.154177 131.414106 
L 257.959778 130.6134 
L 253.839208 129.921466 
L 249.790534 129.33235 
L 245.811892 128.844843 
L 241.901479 128.461685 
L 238.057556 128.189793 
L 234.27844 128.041081 
L 230.562508 128.032823 
L 226.908187 128.182028 
L 223.313957 128.487319 
L 219.778349 128.919992 
L 216.299939 129.456103 
L 212.877352 130.100832 
L 209.509254 130.881958 
L 206.194353 131.89331 
L 202.931401 133.224975 
L 199.719184 134.604859 
L 196.556528 136.047186 
L 193.442297 137.636867 
L 190.375385 139.389018 
L 187.354722 141.301604 
L 184.37927 143.369314 
L 181.448022 145.585711 
L 178.56 147.943161 
L 175.714254 150.431963 
L 172.909864 153.038451 
L 170.145933 155.741395 
L 167.421594 158.506625 
L 164.736 161.283898 
L 162.088332 164.018619 
L 159.477791 166.686427 
L 156.903603 169.31729 
L 154.365013 171.966974 
L 151.861288 174.672351 
L 149.391714 177.422026 
L 146.955597 180.022457 
L 144.552262 181.942111 
L 142.181053 183.437135 
L 139.841328 185.165726 
L 137.532465 187.002615 
L 135.253857 188.776372 
L 133.004915 190.422661 
L 130.785061 191.924564 
L 128.593735 193.283536 
L 126.430391 194.508387 
L 124.294496 195.609073 
L 122.185532 196.590764 
L 120.102991 197.447341 
L 118.046381 198.157576 
L 116.01522 198.692404 
L 114.009039 199.040835 
L 112.02738 199.242171 
L 110.069795 199.390462 
L 108.135849 199.601519 
L 106.225116 199.975019 
L 104.337181 200.554832 
L 102.471638 201.181669 
L 100.628091 201.246641 
L 98.806154 200.488578 
L 97.005448 199.81306 
L 95.225605 199.650946 
L 93.466263 199.851708 
L 91.727072 200.258258 
L 90.007687 200.791686 
L 88.307771 201.4165 
L 86.626995 202.115769 
L 84.965038 202.87864 
L 83.321587 203.693531 
L 81.696332 204.544274 
L 80.088975 205.409387 
L 78.49922 206.266995 
L 76.92678 207.105189 
L 75.371374 207.933057 
L 73.832727 208.784118 
" style="fill:none;stroke:#8c564b;stroke-linecap:square;stroke-width:1.5;"/>
   </g>
   <g id="line2d_22">
    <path clip-path="url(#pa0eae11a22)" d="M 398.487273 172.800484 
L 391.540314 170.182812 
L 384.750127 166.752027 
L 378.111464 164.730657 
L 371.61931 167.546584 
L 365.268868 164.488083 
L 359.055547 160.516387 
L 352.974953 158.096722 
L 347.02288 156.203234 
L 341.195294 154.522906 
L 335.488331 152.9449 
L 329.898284 151.430262 
L 324.421597 149.977327 
L 319.054856 148.60566 
L 313.794783 147.348757 
L 308.638229 146.242369 
L 303.582168 145.283612 
L 298.623691 144.325795 
L 293.76 143.12058 
L 288.988402 141.740271 
L 284.306307 140.50487 
L 279.71122 139.67244 
L 275.200736 139.438755 
L 270.772543 138.316461 
L 266.424407 136.910173 
L 262.154177 135.97446 
L 257.959778 135.276788 
L 253.839208 134.718509 
L 249.790534 134.264273 
L 245.811892 133.899198 
L 241.901479 133.617084 
L 238.057556 133.417901 
L 234.27844 133.309097 
L 230.562508 133.309424 
L 226.908187 133.449595 
L 223.313957 133.751893 
L 219.778349 134.194325 
L 216.299939 134.726026 
L 212.877352 135.317818 
L 209.509254 135.970206 
L 206.194353 136.770678 
L 202.931401 137.965487 
L 199.719184 139.282209 
L 196.556528 140.579693 
L 193.442297 141.960427 
L 190.375385 143.463524 
L 187.354722 145.098506 
L 184.37927 146.866754 
L 181.448022 148.76637 
L 178.56 150.79176 
L 175.714254 152.929948 
L 172.909864 155.154402 
L 170.145933 157.422961 
L 167.421594 159.694188 
L 164.736 161.957448 
L 162.088332 164.237872 
L 159.477791 166.572538 
L 156.903603 168.994688 
L 154.365013 171.470894 
L 151.861288 173.662396 
L 149.391714 175.439219 
L 146.955597 177.220403 
L 144.552262 179.056978 
L 142.181053 180.871062 
L 139.841328 182.615955 
L 137.532465 184.265984 
L 135.253857 185.800159 
L 133.004915 187.192203 
L 130.785061 188.406806 
L 128.593735 189.408387 
L 126.430391 190.188175 
L 124.294496 190.793391 
L 122.185532 191.320323 
L 120.102991 191.867419 
L 118.046381 192.492129 
L 116.01522 193.17117 
L 114.009039 193.667911 
L 112.02738 193.458656 
L 110.069795 192.733475 
L 108.135849 192.40416 
L 106.225116 192.532288 
L 104.337181 192.871156 
L 102.471638 193.295236 
L 100.628091 193.762642 
L 98.806154 194.261304 
L 97.005448 194.784731 
L 95.225605 195.321561 
L 93.466263 195.853791 
L 91.727072 196.364051 
L 90.007687 196.849597 
L 88.307771 197.332959 
L 86.626995 197.861254 
L 84.965038 198.49889 
L 83.321587 199.314694 
L 81.696332 200.321547 
L 80.088975 201.286396 
L 78.49922 201.767923 
L 76.92678 201.855128 
L 75.371374 201.991872 
L 73.832727 202.33143 
" style="fill:none;stroke:#e377c2;stroke-linecap:square;stroke-width:1.5;"/>
   </g>
   <g id="line2d_23">
    <path clip-path="url(#pa0eae11a22)" d="M 398.487273 168.113653 
L 391.540314 166.598762 
L 384.750127 165.405276 
L 378.111464 164.689864 
L 371.61931 164.16784 
L 365.268868 162.737974 
L 359.055547 160.574062 
L 352.974953 158.796604 
L 347.02288 158.439009 
L 341.195294 158.777476 
L 335.488331 155.797799 
L 329.898284 153.833486 
L 324.421597 152.36544 
L 319.054856 151.076955 
L 313.794783 149.875437 
L 308.638229 148.738841 
L 303.582168 147.677484 
L 298.623691 146.721159 
L 293.76 145.901496 
L 288.988402 145.187084 
L 284.306307 144.410648 
L 279.71122 143.463087 
L 275.200736 142.481957 
L 270.772543 141.67158 
L 266.424407 141.334358 
L 262.154177 141.092125 
L 257.959778 140.085989 
L 253.839208 139.264755 
L 249.790534 138.664951 
L 245.811892 138.20893 
L 241.901479 137.864961 
L 238.057556 137.622866 
L 234.27844 137.482913 
L 230.562508 137.451787 
L 226.908187 137.537995 
L 223.313957 137.741266 
L 219.778349 138.046139 
L 216.299939 138.438669 
L 212.877352 138.921524 
L 209.509254 139.51119 
L 206.194353 140.261075 
L 202.931401 141.225948 
L 199.719184 142.25308 
L 196.556528 143.346362 
L 193.442297 144.556764 
L 190.375385 145.89329 
L 187.354722 147.352822 
L 184.37927 148.927283 
L 181.448022 150.603319 
L 178.56 152.362111 
L 175.714254 154.184851 
L 172.909864 156.064908 
L 170.145933 158.011763 
L 167.421594 160.036234 
L 164.736 162.136231 
L 162.088332 164.284363 
L 159.477791 166.3642 
L 156.903603 168.221078 
L 154.365013 170.080623 
L 151.861288 172.043509 
L 149.391714 174.014461 
L 146.955597 175.937638 
L 144.552262 177.783831 
L 142.181053 179.526179 
L 139.841328 181.131126 
L 137.532465 182.562747 
L 135.253857 183.803456 
L 133.004915 184.876797 
L 130.785061 185.842349 
L 128.593735 186.764883 
L 126.430391 187.688353 
L 124.294496 188.59288 
L 122.185532 189.244375 
L 120.102991 189.31638 
L 118.046381 189.214085 
L 116.01522 189.338416 
L 114.009039 189.618435 
L 112.02738 189.951179 
L 110.069795 190.286906 
L 108.135849 190.599119 
L 106.225116 190.868684 
L 104.337181 191.085817 
L 102.471638 191.260973 
L 100.628091 191.430245 
L 98.806154 191.646422 
L 97.005448 191.963033 
L 95.225605 192.416909 
L 93.466263 192.9775 
L 91.727072 193.414853 
L 90.007687 193.4101 
L 88.307771 193.202845 
L 86.626995 193.214627 
L 84.965038 193.486086 
L 83.321587 193.925798 
L 81.696332 194.462991 
L 80.088975 195.053626 
L 78.49922 195.669355 
L 76.92678 196.294606 
L 75.371374 196.928273 
L 73.832727 197.584345 
" style="fill:none;stroke:#7f7f7f;stroke-linecap:square;stroke-width:1.5;"/>
   </g>
   <g id="line2d_24">
    <path clip-path="url(#pa0eae11a22)" d="M 398.487273 168.461638 
L 391.540314 166.916584 
L 384.750127 165.520056 
L 378.111464 164.168007 
L 371.61931 162.888521 
L 365.268868 161.772273 
L 359.055547 160.956012 
L 352.974953 160.473972 
L 347.02288 159.790213 
L 341.195294 158.357808 
L 335.488331 156.717948 
L 329.898284 155.555412 
L 324.421597 155.970046 
L 319.054856 154.850154 
L 313.794783 152.717409 
L 308.638229 151.211167 
L 303.582168 149.992378 
L 298.623691 148.930662 
L 293.76 147.989706 
L 288.988402 147.162108 
L 284.306307 146.431773 
L 279.71122 145.729889 
L 275.200736 144.965599 
L 270.772543 144.17286 
L 266.424407 143.474124 
L 262.154177 142.975333 
L 257.959778 142.754348 
L 253.839208 142.250379 
L 249.790534 141.591129 
L 245.811892 141.158763 
L 241.901479 140.868605 
L 238.057556 140.675727 
L 234.27844 140.568616 
L 230.562508 140.552274 
L 226.908187 140.642736 
L 223.313957 140.853355 
L 219.778349 141.171682 
L 216.299939 141.566301 
L 212.877352 142.018239 
L 209.509254 142.527714 
L 206.194353 143.147838 
L 202.931401 144.032592 
L 199.719184 145.02336 
L 196.556528 146.02698 
L 193.442297 147.108461 
L 190.375385 148.293373 
L 187.354722 149.585383 
L 184.37927 150.977107 
L 181.448022 152.451624 
L 178.56 153.98919 
L 175.714254 155.581975 
L 172.909864 157.239033 
L 170.145933 158.975549 
L 167.421594 160.805506 
L 164.736 162.717829 
L 162.088332 164.565529 
L 159.477791 166.277983 
L 156.903603 168.021486 
L 154.365013 169.803327 
L 151.861288 171.572522 
L 149.391714 173.282506 
L 146.955597 174.890891 
L 144.552262 176.369144 
L 142.181053 177.721996 
L 139.841328 178.989241 
L 137.532465 180.217067 
L 135.253857 181.428007 
L 133.004915 182.597327 
L 130.785061 183.573492 
L 128.593735 184.055605 
L 126.430391 184.264168 
L 124.294496 184.697981 
L 122.185532 185.288739 
L 120.102991 185.890167 
L 118.046381 186.439721 
L 116.01522 186.9096 
L 114.009039 187.285091 
L 112.02738 187.56899 
L 110.069795 187.789338 
L 108.135849 187.995366 
L 106.225116 188.245903 
L 104.337181 188.596671 
L 102.471638 189.050228 
L 100.628091 189.405153 
L 98.806154 189.388247 
L 97.005448 189.218533 
L 95.225605 189.177177 
L 93.466263 189.280921 
L 91.727072 189.473087 
L 90.007687 189.710299 
L 88.307771 189.973611 
L 86.626995 190.268074 
L 84.965038 190.616826 
L 83.321587 191.049616 
L 81.696332 191.590169 
L 80.088975 192.237072 
L 78.49922 192.911276 
L 76.92678 193.384864 
L 75.371374 193.488148 
L 73.832727 193.505405 
" style="fill:none;stroke:#bcbd22;stroke-linecap:square;stroke-width:1.5;"/>
   </g>
   <g id="line2d_25">
    <path clip-path="url(#pa0eae11a22)" d="M 398.487273 168.302903 
L 391.540314 166.881977 
L 384.750127 167.400401 
L 378.111464 166.265884 
L 371.61931 163.810826 
L 365.268868 162.235062 
L 359.055547 160.950421 
L 352.974953 159.832602 
L 347.02288 158.88692 
L 341.195294 158.144091 
L 335.488331 157.504294 
L 329.898284 156.608789 
L 324.421597 155.401455 
L 319.054856 154.252873 
L 313.794783 153.510008 
L 308.638229 153.512483 
L 303.582168 152.221388 
L 298.623691 150.856588 
L 293.76 149.83803 
L 288.988402 148.983562 
L 284.306307 148.240557 
L 279.71122 147.601413 
L 275.200736 147.04906 
L 270.772543 146.514165 
L 266.424407 145.933947 
L 262.154177 145.347384 
L 257.959778 144.841339 
L 253.839208 144.545639 
L 249.790534 144.453958 
L 245.811892 144.028331 
L 241.901479 143.624105 
L 238.057556 143.360748 
L 234.27844 143.210314 
L 230.562508 143.160727 
L 226.908187 143.210606 
L 223.313957 143.35724 
L 219.778349 143.589971 
L 216.299939 143.8994 
L 212.877352 144.286986 
L 209.509254 144.763313 
L 206.194353 145.362011 
L 202.931401 146.119254 
L 199.719184 146.93838 
L 196.556528 147.817913 
L 193.442297 148.788668 
L 190.375385 149.853001 
L 187.354722 151.004566 
L 184.37927 152.236765 
L 181.448022 153.548382 
L 178.56 154.943185 
L 175.714254 156.42234 
L 172.909864 157.97941 
L 170.145933 159.594007 
L 167.421594 161.204787 
L 164.736 162.778429 
L 162.088332 164.421272 
L 159.477791 166.122 
L 156.903603 167.824372 
L 154.365013 169.489529 
L 151.861288 171.085715 
L 149.391714 172.594558 
L 146.955597 174.022325 
L 144.552262 175.393814 
L 142.181053 176.733428 
L 139.841328 178.050518 
L 137.532465 179.300154 
L 135.253857 180.2859 
L 133.004915 180.93526 
L 130.785061 181.577072 
L 128.593735 182.278528 
L 126.430391 182.95032 
L 124.294496 183.53553 
L 122.185532 184.013484 
L 120.102991 184.395096 
L 118.046381 184.717029 
L 116.01522 185.025678 
L 114.009039 185.360861 
L 112.02738 185.736517 
L 110.069795 186.073988 
L 108.135849 186.140414 
L 106.225116 185.942104 
L 104.337181 185.826138 
L 102.471638 185.875955 
L 100.628091 186.016371 
L 98.806154 186.190841 
L 97.005448 186.378622 
L 95.225605 186.585907 
L 93.466263 186.835614 
L 91.727072 187.156495 
L 90.007687 187.57234 
L 88.307771 188.076995 
L 86.626995 188.563071 
L 84.965038 188.816057 
L 83.321587 188.864446 
L 81.696332 188.981568 
L 80.088975 189.255091 
L 78.49922 189.638261 
L 76.92678 190.082431 
L 75.371374 190.563572 
L 73.832727 191.077783 
" style="fill:none;stroke:#17becf;stroke-linecap:square;stroke-width:1.5;"/>
   </g>
   <g id="line2d_26">
    <path clip-path="url(#pa0eae11a22)" d="M 398.487273 167.714971 
L 391.540314 167.166317 
L 384.750127 166.167555 
L 378.111464 164.703297 
L 371.61931 163.484598 
L 365.268868 162.947833 
L 359.055547 162.885256 
L 352.974953 160.927592 
L 347.02288 159.602367 
L 341.195294 158.573993 
L 335.488331 157.703453 
L 329.898284 157.001203 
L 324.421597 156.453587 
L 319.054856 155.833995 
L 313.794783 154.920636 
L 308.638229 153.894593 
L 303.582168 153.045286 
L 298.623691 152.856556 
L 293.76 152.415548 
L 288.988402 151.165287 
L 284.306307 150.206302 
L 279.71122 149.451773 
L 275.200736 148.825639 
L 270.772543 148.280888 
L 266.424407 147.760208 
L 262.154177 147.236979 
L 257.959778 146.753946 
L 253.839208 146.366986 
L 249.790534 146.131063 
L 245.811892 145.994725 
L 241.901479 145.658439 
L 238.057556 145.390476 
L 234.27844 145.250736 
L 230.562508 145.208706 
L 226.908187 145.260918 
L 223.313957 145.411669 
L 219.778349 145.651507 
L 216.299939 145.958905 
L 212.877352 146.320824 
L 209.509254 146.737744 
L 206.194353 147.245568 
L 202.931401 147.949774 
L 199.719184 148.747618 
L 196.556528 149.572115 
L 193.442297 150.464943 
L 190.375385 151.438212 
L 187.354722 152.486551 
L 184.37927 153.602814 
L 181.448022 154.78828 
L 178.56 156.051021 
L 175.714254 157.399379 
L 172.909864 158.838043 
L 170.145933 160.329567 
L 167.421594 161.774827 
L 164.736 163.220438 
L 162.088332 164.700636 
L 159.477791 166.181176 
L 156.903603 167.632463 
L 154.365013 169.04761 
L 151.861288 170.440497 
L 149.391714 171.826978 
L 146.955597 173.207627 
L 144.552262 174.553587 
L 142.181053 175.754548 
L 139.841328 176.644078 
L 137.532465 177.4321 
L 135.253857 178.337016 
L 133.004915 179.25341 
L 130.785061 180.089586 
L 128.593735 180.811027 
L 126.430391 181.419465 
L 124.294496 181.943108 
L 122.185532 182.423618 
L 120.102991 182.90423 
L 118.046381 183.408173 
L 116.01522 183.846373 
L 114.009039 183.994538 
L 112.02738 183.934604 
L 110.069795 183.899499 
L 108.135849 183.91572 
L 106.225116 183.953314 
L 104.337181 184.008163 
L 102.471638 184.100075 
L 100.628091 184.25534 
L 98.806154 184.491452 
L 97.005448 184.797345 
L 95.225605 185.081324 
L 93.466263 185.147162 
L 91.727072 185.003372 
L 90.007687 184.966697 
L 88.307771 185.138346 
L 86.626995 185.439616 
L 84.965038 185.803528 
L 83.321587 186.202064 
L 81.696332 186.633325 
L 80.088975 187.110921 
L 78.49922 187.656699 
L 76.92678 188.285891 
L 75.371374 188.955569 
L 73.832727 189.510511 
" style="fill:none;stroke:#1f77b4;stroke-linecap:square;stroke-width:1.5;"/>
   </g>
   <g id="patch_3">
    <path d="M 57.6 307.584 
L 57.6 41.472 
" style="fill:none;stroke:#000000;stroke-linecap:square;stroke-linejoin:miter;stroke-width:0.8;"/>
   </g>
   <g id="patch_4">
    <path d="M 414.72 307.584 
L 414.72 41.472 
" style="fill:none;stroke:#000000;stroke-linecap:square;stroke-linejoin:miter;stroke-width:0.8;"/>
   </g>
   <g id="patch_5">
    <path d="M 57.6 307.584 
L 414.72 307.584 
" style="fill:none;stroke:#000000;stroke-linecap:square;stroke-linejoin:miter;stroke-width:0.8;"/>
   </g>
   <g id="patch_6">
    <path d="M 57.6 41.472 
L 414.72 41.472 
" style="fill:none;stroke:#000000;stroke-linecap:square;stroke-linejoin:miter;stroke-width:0.8;"/>
   </g>
   <g id="text_19">
    <!-- transmissionToWavelengths -->
    <defs>
     <path d="M -0.296875 72.90625 
L 61.375 72.90625 
L 61.375 64.59375 
L 35.5 64.59375 
L 35.5 0 
L 25.59375 0 
L 25.59375 64.59375 
L -0.296875 64.59375 
z
" id="DejaVuSans-84"/>
     <path d="M 3.328125 72.90625 
L 13.28125 72.90625 
L 28.609375 11.28125 
L 43.890625 72.90625 
L 54.984375 72.90625 
L 70.3125 11.28125 
L 85.59375 72.90625 
L 95.609375 72.90625 
L 77.296875 0 
L 64.890625 0 
L 49.515625 63.28125 
L 33.984375 0 
L 21.578125 0 
z
" id="DejaVuSans-87"/>
    </defs>
    <g transform="translate(152.796562 35.472)scale(0.12 -0.12)">
     <use xlink:href="#DejaVuSans-116"/>
     <use x="39.208984" xlink:href="#DejaVuSans-114"/>
     <use x="80.322266" xlink:href="#DejaVuSans-97"/>
     <use x="141.601562" xlink:href="#DejaVuSans-110"/>
     <use x="204.980469" xlink:href="#DejaVuSans-115"/>
     <use x="257.080078" xlink:href="#DejaVuSans-109"/>
     <use x="354.492188" xlink:href="#DejaVuSans-105"/>
     <use x="382.275391" xlink:href="#DejaVuSans-115"/>
     <use x="434.375" xlink:href="#DejaVuSans-115"/>
     <use x="486.474609" xlink:href="#DejaVuSans-105"/>
     <use x="514.257812" xlink:href="#DejaVuSans-111"/>
     <use x="575.439453" xlink:href="#DejaVuSans-110"/>
     <use x="638.818359" xlink:href="#DejaVuSans-84"/>
     <use x="682.902344" xlink:href="#DejaVuSans-111"/>
     <use x="744.083984" xlink:href="#DejaVuSans-87"/>
     <use x="836.585938" xlink:href="#DejaVuSans-97"/>
     <use x="897.865234" xlink:href="#DejaVuSans-118"/>
     <use x="957.044922" xlink:href="#DejaVuSans-101"/>
     <use x="1018.568359" xlink:href="#DejaVuSans-108"/>
     <use x="1046.351562" xlink:href="#DejaVuSans-101"/>
     <use x="1107.875" xlink:href="#DejaVuSans-110"/>
     <use x="1171.253906" xlink:href="#DejaVuSans-103"/>
     <use x="1234.730469" xlink:href="#DejaVuSans-116"/>
     <use x="1273.939453" xlink:href="#DejaVuSans-104"/>
     <use x="1337.318359" xlink:href="#DejaVuSans-115"/>
    </g>
   </g>
   <g id="legend_1">
    <g id="patch_7">
     <path d="M 165.082656 302.584 
L 307.237344 302.584 
Q 309.237344 302.584 309.237344 300.584 
L 309.237344 152.0215 
Q 309.237344 150.0215 307.237344 150.0215 
L 165.082656 150.0215 
Q 163.082656 150.0215 163.082656 152.0215 
L 163.082656 300.584 
Q 163.082656 302.584 165.082656 302.584 
z
" style="fill:#ffffff;opacity:0.8;stroke:#cccccc;stroke-linejoin:miter;"/>
    </g>
    <g id="line2d_27">
     <path d="M 167.082656 158.119937 
L 187.082656 158.119937 
" style="fill:none;stroke:#ff7f0e;stroke-linecap:square;stroke-width:1.5;"/>
    </g>
    <g id="line2d_28"/>
    <g id="text_20">
     <!-- spacing_thickness:0.5 -->
     <defs>
      <path d="M 18.109375 8.203125 
L 18.109375 -20.796875 
L 9.078125 -20.796875 
L 9.078125 54.6875 
L 18.109375 54.6875 
L 18.109375 46.390625 
Q 20.953125 51.265625 25.265625 53.625 
Q 29.59375 56 35.59375 56 
Q 45.5625 56 51.78125 48.09375 
Q 58.015625 40.1875 58.015625 27.296875 
Q 58.015625 14.40625 51.78125 6.484375 
Q 45.5625 -1.421875 35.59375 -1.421875 
Q 29.59375 -1.421875 25.265625 0.953125 
Q 20.953125 3.328125 18.109375 8.203125 
z
M 48.6875 27.296875 
Q 48.6875 37.203125 44.609375 42.84375 
Q 40.53125 48.484375 33.40625 48.484375 
Q 26.265625 48.484375 22.1875 42.84375 
Q 18.109375 37.203125 18.109375 27.296875 
Q 18.109375 17.390625 22.1875 11.75 
Q 26.265625 6.109375 33.40625 6.109375 
Q 40.53125 6.109375 44.609375 11.75 
Q 48.6875 17.390625 48.6875 27.296875 
z
" id="DejaVuSans-112"/>
      <path d="M 48.78125 52.59375 
L 48.78125 44.1875 
Q 44.96875 46.296875 41.140625 47.34375 
Q 37.3125 48.390625 33.40625 48.390625 
Q 24.65625 48.390625 19.8125 42.84375 
Q 14.984375 37.3125 14.984375 27.296875 
Q 14.984375 17.28125 19.8125 11.734375 
Q 24.65625 6.203125 33.40625 6.203125 
Q 37.3125 6.203125 41.140625 7.25 
Q 44.96875 8.296875 48.78125 10.40625 
L 48.78125 2.09375 
Q 45.015625 0.34375 40.984375 -0.53125 
Q 36.96875 -1.421875 32.421875 -1.421875 
Q 20.0625 -1.421875 12.78125 6.34375 
Q 5.515625 14.109375 5.515625 27.296875 
Q 5.515625 40.671875 12.859375 48.328125 
Q 20.21875 56 33.015625 56 
Q 37.15625 56 41.109375 55.140625 
Q 45.0625 54.296875 48.78125 52.59375 
z
" id="DejaVuSans-99"/>
      <path d="M 50.984375 -16.609375 
L 50.984375 -23.578125 
L -0.984375 -23.578125 
L -0.984375 -16.609375 
z
" id="DejaVuSans-95"/>
      <path d="M 9.078125 75.984375 
L 18.109375 75.984375 
L 18.109375 31.109375 
L 44.921875 54.6875 
L 56.390625 54.6875 
L 27.390625 29.109375 
L 57.625 0 
L 45.90625 0 
L 18.109375 26.703125 
L 18.109375 0 
L 9.078125 0 
z
" id="DejaVuSans-107"/>
      <path d="M 11.71875 12.40625 
L 22.015625 12.40625 
L 22.015625 0 
L 11.71875 0 
z
M 11.71875 51.703125 
L 22.015625 51.703125 
L 22.015625 39.3125 
L 11.71875 39.3125 
z
" id="DejaVuSans-58"/>
     </defs>
     <g transform="translate(195.082656 161.619937)scale(0.1 -0.1)">
      <use xlink:href="#DejaVuSans-115"/>
      <use x="52.099609" xlink:href="#DejaVuSans-112"/>
      <use x="115.576172" xlink:href="#DejaVuSans-97"/>
      <use x="176.855469" xlink:href="#DejaVuSans-99"/>
      <use x="231.835938" xlink:href="#DejaVuSans-105"/>
      <use x="259.619141" xlink:href="#DejaVuSans-110"/>
      <use x="322.998047" xlink:href="#DejaVuSans-103"/>
      <use x="386.474609" xlink:href="#DejaVuSans-95"/>
      <use x="436.474609" xlink:href="#DejaVuSans-116"/>
      <use x="475.683594" xlink:href="#DejaVuSans-104"/>
      <use x="539.0625" xlink:href="#DejaVuSans-105"/>
      <use x="566.845703" xlink:href="#DejaVuSans-99"/>
      <use x="621.826172" xlink:href="#DejaVuSans-107"/>
      <use x="679.736328" xlink:href="#DejaVuSans-110"/>
      <use x="743.115234" xlink:href="#DejaVuSans-101"/>
      <use x="804.638672" xlink:href="#DejaVuSans-115"/>
      <use x="856.738281" xlink:href="#DejaVuSans-115"/>
      <use x="908.837891" xlink:href="#DejaVuSans-58"/>
      <use x="942.529297" xlink:href="#DejaVuSans-48"/>
      <use x="1006.152344" xlink:href="#DejaVuSans-46"/>
      <use x="1037.939453" xlink:href="#DejaVuSans-53"/>
     </g>
    </g>
    <g id="line2d_29">
     <path d="M 167.082656 173.076187 
L 187.082656 173.076187 
" style="fill:none;stroke:#2ca02c;stroke-linecap:square;stroke-width:1.5;"/>
    </g>
    <g id="line2d_30"/>
    <g id="text_21">
     <!-- spacing_thickness:1.0 -->
     <defs>
      <path d="M 12.40625 8.296875 
L 28.515625 8.296875 
L 28.515625 63.921875 
L 10.984375 60.40625 
L 10.984375 69.390625 
L 28.421875 72.90625 
L 38.28125 72.90625 
L 38.28125 8.296875 
L 54.390625 8.296875 
L 54.390625 0 
L 12.40625 0 
z
" id="DejaVuSans-49"/>
     </defs>
     <g transform="translate(195.082656 176.576187)scale(0.1 -0.1)">
      <use xlink:href="#DejaVuSans-115"/>
      <use x="52.099609" xlink:href="#DejaVuSans-112"/>
      <use x="115.576172" xlink:href="#DejaVuSans-97"/>
      <use x="176.855469" xlink:href="#DejaVuSans-99"/>
      <use x="231.835938" xlink:href="#DejaVuSans-105"/>
      <use x="259.619141" xlink:href="#DejaVuSans-110"/>
      <use x="322.998047" xlink:href="#DejaVuSans-103"/>
      <use x="386.474609" xlink:href="#DejaVuSans-95"/>
      <use x="436.474609" xlink:href="#DejaVuSans-116"/>
      <use x="475.683594" xlink:href="#DejaVuSans-104"/>
      <use x="539.0625" xlink:href="#DejaVuSans-105"/>
      <use x="566.845703" xlink:href="#DejaVuSans-99"/>
      <use x="621.826172" xlink:href="#DejaVuSans-107"/>
      <use x="679.736328" xlink:href="#DejaVuSans-110"/>
      <use x="743.115234" xlink:href="#DejaVuSans-101"/>
      <use x="804.638672" xlink:href="#DejaVuSans-115"/>
      <use x="856.738281" xlink:href="#DejaVuSans-115"/>
      <use x="908.837891" xlink:href="#DejaVuSans-58"/>
      <use x="942.529297" xlink:href="#DejaVuSans-49"/>
      <use x="1006.152344" xlink:href="#DejaVuSans-46"/>
      <use x="1037.939453" xlink:href="#DejaVuSans-48"/>
     </g>
    </g>
    <g id="line2d_31">
     <path d="M 167.082656 188.032437 
L 187.082656 188.032437 
" style="fill:none;stroke:#d62728;stroke-linecap:square;stroke-width:1.5;"/>
    </g>
    <g id="line2d_32"/>
    <g id="text_22">
     <!-- spacing_thickness:1.5 -->
     <g transform="translate(195.082656 191.532437)scale(0.1 -0.1)">
      <use xlink:href="#DejaVuSans-115"/>
      <use x="52.099609" xlink:href="#DejaVuSans-112"/>
      <use x="115.576172" xlink:href="#DejaVuSans-97"/>
      <use x="176.855469" xlink:href="#DejaVuSans-99"/>
      <use x="231.835938" xlink:href="#DejaVuSans-105"/>
      <use x="259.619141" xlink:href="#DejaVuSans-110"/>
      <use x="322.998047" xlink:href="#DejaVuSans-103"/>
      <use x="386.474609" xlink:href="#DejaVuSans-95"/>
      <use x="436.474609" xlink:href="#DejaVuSans-116"/>
      <use x="475.683594" xlink:href="#DejaVuSans-104"/>
      <use x="539.0625" xlink:href="#DejaVuSans-105"/>
      <use x="566.845703" xlink:href="#DejaVuSans-99"/>
      <use x="621.826172" xlink:href="#DejaVuSans-107"/>
      <use x="679.736328" xlink:href="#DejaVuSans-110"/>
      <use x="743.115234" xlink:href="#DejaVuSans-101"/>
      <use x="804.638672" xlink:href="#DejaVuSans-115"/>
      <use x="856.738281" xlink:href="#DejaVuSans-115"/>
      <use x="908.837891" xlink:href="#DejaVuSans-58"/>
      <use x="942.529297" xlink:href="#DejaVuSans-49"/>
      <use x="1006.152344" xlink:href="#DejaVuSans-46"/>
      <use x="1037.939453" xlink:href="#DejaVuSans-53"/>
     </g>
    </g>
    <g id="line2d_33">
     <path d="M 167.082656 202.988687 
L 187.082656 202.988687 
" style="fill:none;stroke:#9467bd;stroke-linecap:square;stroke-width:1.5;"/>
    </g>
    <g id="line2d_34"/>
    <g id="text_23">
     <!-- spacing_thickness:2.0 -->
     <g transform="translate(195.082656 206.488687)scale(0.1 -0.1)">
      <use xlink:href="#DejaVuSans-115"/>
      <use x="52.099609" xlink:href="#DejaVuSans-112"/>
      <use x="115.576172" xlink:href="#DejaVuSans-97"/>
      <use x="176.855469" xlink:href="#DejaVuSans-99"/>
      <use x="231.835938" xlink:href="#DejaVuSans-105"/>
      <use x="259.619141" xlink:href="#DejaVuSans-110"/>
      <use x="322.998047" xlink:href="#DejaVuSans-103"/>
      <use x="386.474609" xlink:href="#DejaVuSans-95"/>
      <use x="436.474609" xlink:href="#DejaVuSans-116"/>
      <use x="475.683594" xlink:href="#DejaVuSans-104"/>
      <use x="539.0625" xlink:href="#DejaVuSans-105"/>
      <use x="566.845703" xlink:href="#DejaVuSans-99"/>
      <use x="621.826172" xlink:href="#DejaVuSans-107"/>
      <use x="679.736328" xlink:href="#DejaVuSans-110"/>
      <use x="743.115234" xlink:href="#DejaVuSans-101"/>
      <use x="804.638672" xlink:href="#DejaVuSans-115"/>
      <use x="856.738281" xlink:href="#DejaVuSans-115"/>
      <use x="908.837891" xlink:href="#DejaVuSans-58"/>
      <use x="942.529297" xlink:href="#DejaVuSans-50"/>
      <use x="1006.152344" xlink:href="#DejaVuSans-46"/>
      <use x="1037.939453" xlink:href="#DejaVuSans-48"/>
     </g>
    </g>
    <g id="line2d_35">
     <path d="M 167.082656 217.944937 
L 187.082656 217.944937 
" style="fill:none;stroke:#8c564b;stroke-linecap:square;stroke-width:1.5;"/>
    </g>
    <g id="line2d_36"/>
    <g id="text_24">
     <!-- spacing_thickness:2.5 -->
     <g transform="translate(195.082656 221.444937)scale(0.1 -0.1)">
      <use xlink:href="#DejaVuSans-115"/>
      <use x="52.099609" xlink:href="#DejaVuSans-112"/>
      <use x="115.576172" xlink:href="#DejaVuSans-97"/>
      <use x="176.855469" xlink:href="#DejaVuSans-99"/>
      <use x="231.835938" xlink:href="#DejaVuSans-105"/>
      <use x="259.619141" xlink:href="#DejaVuSans-110"/>
      <use x="322.998047" xlink:href="#DejaVuSans-103"/>
      <use x="386.474609" xlink:href="#DejaVuSans-95"/>
      <use x="436.474609" xlink:href="#DejaVuSans-116"/>
      <use x="475.683594" xlink:href="#DejaVuSans-104"/>
      <use x="539.0625" xlink:href="#DejaVuSans-105"/>
      <use x="566.845703" xlink:href="#DejaVuSans-99"/>
      <use x="621.826172" xlink:href="#DejaVuSans-107"/>
      <use x="679.736328" xlink:href="#DejaVuSans-110"/>
      <use x="743.115234" xlink:href="#DejaVuSans-101"/>
      <use x="804.638672" xlink:href="#DejaVuSans-115"/>
      <use x="856.738281" xlink:href="#DejaVuSans-115"/>
      <use x="908.837891" xlink:href="#DejaVuSans-58"/>
      <use x="942.529297" xlink:href="#DejaVuSans-50"/>
      <use x="1006.152344" xlink:href="#DejaVuSans-46"/>
      <use x="1037.939453" xlink:href="#DejaVuSans-53"/>
     </g>
    </g>
    <g id="line2d_37">
     <path d="M 167.082656 232.901187 
L 187.082656 232.901187 
" style="fill:none;stroke:#e377c2;stroke-linecap:square;stroke-width:1.5;"/>
    </g>
    <g id="line2d_38"/>
    <g id="text_25">
     <!-- spacing_thickness:3.0 -->
     <g transform="translate(195.082656 236.401187)scale(0.1 -0.1)">
      <use xlink:href="#DejaVuSans-115"/>
      <use x="52.099609" xlink:href="#DejaVuSans-112"/>
      <use x="115.576172" xlink:href="#DejaVuSans-97"/>
      <use x="176.855469" xlink:href="#DejaVuSans-99"/>
      <use x="231.835938" xlink:href="#DejaVuSans-105"/>
      <use x="259.619141" xlink:href="#DejaVuSans-110"/>
      <use x="322.998047" xlink:href="#DejaVuSans-103"/>
      <use x="386.474609" xlink:href="#DejaVuSans-95"/>
      <use x="436.474609" xlink:href="#DejaVuSans-116"/>
      <use x="475.683594" xlink:href="#DejaVuSans-104"/>
      <use x="539.0625" xlink:href="#DejaVuSans-105"/>
      <use x="566.845703" xlink:href="#DejaVuSans-99"/>
      <use x="621.826172" xlink:href="#DejaVuSans-107"/>
      <use x="679.736328" xlink:href="#DejaVuSans-110"/>
      <use x="743.115234" xlink:href="#DejaVuSans-101"/>
      <use x="804.638672" xlink:href="#DejaVuSans-115"/>
      <use x="856.738281" xlink:href="#DejaVuSans-115"/>
      <use x="908.837891" xlink:href="#DejaVuSans-58"/>
      <use x="942.529297" xlink:href="#DejaVuSans-51"/>
      <use x="1006.152344" xlink:href="#DejaVuSans-46"/>
      <use x="1037.939453" xlink:href="#DejaVuSans-48"/>
     </g>
    </g>
    <g id="line2d_39">
     <path d="M 167.082656 247.857437 
L 187.082656 247.857437 
" style="fill:none;stroke:#7f7f7f;stroke-linecap:square;stroke-width:1.5;"/>
    </g>
    <g id="line2d_40"/>
    <g id="text_26">
     <!-- spacing_thickness:3.5 -->
     <g transform="translate(195.082656 251.357437)scale(0.1 -0.1)">
      <use xlink:href="#DejaVuSans-115"/>
      <use x="52.099609" xlink:href="#DejaVuSans-112"/>
      <use x="115.576172" xlink:href="#DejaVuSans-97"/>
      <use x="176.855469" xlink:href="#DejaVuSans-99"/>
      <use x="231.835938" xlink:href="#DejaVuSans-105"/>
      <use x="259.619141" xlink:href="#DejaVuSans-110"/>
      <use x="322.998047" xlink:href="#DejaVuSans-103"/>
      <use x="386.474609" xlink:href="#DejaVuSans-95"/>
      <use x="436.474609" xlink:href="#DejaVuSans-116"/>
      <use x="475.683594" xlink:href="#DejaVuSans-104"/>
      <use x="539.0625" xlink:href="#DejaVuSans-105"/>
      <use x="566.845703" xlink:href="#DejaVuSans-99"/>
      <use x="621.826172" xlink:href="#DejaVuSans-107"/>
      <use x="679.736328" xlink:href="#DejaVuSans-110"/>
      <use x="743.115234" xlink:href="#DejaVuSans-101"/>
      <use x="804.638672" xlink:href="#DejaVuSans-115"/>
      <use x="856.738281" xlink:href="#DejaVuSans-115"/>
      <use x="908.837891" xlink:href="#DejaVuSans-58"/>
      <use x="942.529297" xlink:href="#DejaVuSans-51"/>
      <use x="1006.152344" xlink:href="#DejaVuSans-46"/>
      <use x="1037.939453" xlink:href="#DejaVuSans-53"/>
     </g>
    </g>
    <g id="line2d_41">
     <path d="M 167.082656 262.813687 
L 187.082656 262.813687 
" style="fill:none;stroke:#bcbd22;stroke-linecap:square;stroke-width:1.5;"/>
    </g>
    <g id="line2d_42"/>
    <g id="text_27">
     <!-- spacing_thickness:4.0 -->
     <g transform="translate(195.082656 266.313687)scale(0.1 -0.1)">
      <use xlink:href="#DejaVuSans-115"/>
      <use x="52.099609" xlink:href="#DejaVuSans-112"/>
      <use x="115.576172" xlink:href="#DejaVuSans-97"/>
      <use x="176.855469" xlink:href="#DejaVuSans-99"/>
      <use x="231.835938" xlink:href="#DejaVuSans-105"/>
      <use x="259.619141" xlink:href="#DejaVuSans-110"/>
      <use x="322.998047" xlink:href="#DejaVuSans-103"/>
      <use x="386.474609" xlink:href="#DejaVuSans-95"/>
      <use x="436.474609" xlink:href="#DejaVuSans-116"/>
      <use x="475.683594" xlink:href="#DejaVuSans-104"/>
      <use x="539.0625" xlink:href="#DejaVuSans-105"/>
      <use x="566.845703" xlink:href="#DejaVuSans-99"/>
      <use x="621.826172" xlink:href="#DejaVuSans-107"/>
      <use x="679.736328" xlink:href="#DejaVuSans-110"/>
      <use x="743.115234" xlink:href="#DejaVuSans-101"/>
      <use x="804.638672" xlink:href="#DejaVuSans-115"/>
      <use x="856.738281" xlink:href="#DejaVuSans-115"/>
      <use x="908.837891" xlink:href="#DejaVuSans-58"/>
      <use x="942.529297" xlink:href="#DejaVuSans-52"/>
      <use x="1006.152344" xlink:href="#DejaVuSans-46"/>
      <use x="1037.939453" xlink:href="#DejaVuSans-48"/>
     </g>
    </g>
    <g id="line2d_43">
     <path d="M 167.082656 277.769937 
L 187.082656 277.769937 
" style="fill:none;stroke:#17becf;stroke-linecap:square;stroke-width:1.5;"/>
    </g>
    <g id="line2d_44"/>
    <g id="text_28">
     <!-- spacing_thickness:4.5 -->
     <g transform="translate(195.082656 281.269937)scale(0.1 -0.1)">
      <use xlink:href="#DejaVuSans-115"/>
      <use x="52.099609" xlink:href="#DejaVuSans-112"/>
      <use x="115.576172" xlink:href="#DejaVuSans-97"/>
      <use x="176.855469" xlink:href="#DejaVuSans-99"/>
      <use x="231.835938" xlink:href="#DejaVuSans-105"/>
      <use x="259.619141" xlink:href="#DejaVuSans-110"/>
      <use x="322.998047" xlink:href="#DejaVuSans-103"/>
      <use x="386.474609" xlink:href="#DejaVuSans-95"/>
      <use x="436.474609" xlink:href="#DejaVuSans-116"/>
      <use x="475.683594" xlink:href="#DejaVuSans-104"/>
      <use x="539.0625" xlink:href="#DejaVuSans-105"/>
      <use x="566.845703" xlink:href="#DejaVuSans-99"/>
      <use x="621.826172" xlink:href="#DejaVuSans-107"/>
      <use x="679.736328" xlink:href="#DejaVuSans-110"/>
      <use x="743.115234" xlink:href="#DejaVuSans-101"/>
      <use x="804.638672" xlink:href="#DejaVuSans-115"/>
      <use x="856.738281" xlink:href="#DejaVuSans-115"/>
      <use x="908.837891" xlink:href="#DejaVuSans-58"/>
      <use x="942.529297" xlink:href="#DejaVuSans-52"/>
      <use x="1006.152344" xlink:href="#DejaVuSans-46"/>
      <use x="1037.939453" xlink:href="#DejaVuSans-53"/>
     </g>
    </g>
    <g id="line2d_45">
     <path d="M 167.082656 292.726187 
L 187.082656 292.726187 
" style="fill:none;stroke:#1f77b4;stroke-linecap:square;stroke-width:1.5;"/>
    </g>
    <g id="line2d_46"/>
    <g id="text_29">
     <!-- spacing_thickness:5.0 -->
     <g transform="translate(195.082656 296.226187)scale(0.1 -0.1)">
      <use xlink:href="#DejaVuSans-115"/>
      <use x="52.099609" xlink:href="#DejaVuSans-112"/>
      <use x="115.576172" xlink:href="#DejaVuSans-97"/>
      <use x="176.855469" xlink:href="#DejaVuSans-99"/>
      <use x="231.835938" xlink:href="#DejaVuSans-105"/>
      <use x="259.619141" xlink:href="#DejaVuSans-110"/>
      <use x="322.998047" xlink:href="#DejaVuSans-103"/>
      <use x="386.474609" xlink:href="#DejaVuSans-95"/>
      <use x="436.474609" xlink:href="#DejaVuSans-116"/>
      <use x="475.683594" xlink:href="#DejaVuSans-104"/>
      <use x="539.0625" xlink:href="#DejaVuSans-105"/>
      <use x="566.845703" xlink:href="#DejaVuSans-99"/>
      <use x="621.826172" xlink:href="#DejaVuSans-107"/>
      <use x="679.736328" xlink:href="#DejaVuSans-110"/>
      <use x="743.115234" xlink:href="#DejaVuSans-101"/>
      <use x="804.638672" xlink:href="#DejaVuSans-115"/>
      <use x="856.738281" xlink:href="#DejaVuSans-115"/>
      <use x="908.837891" xlink:href="#DejaVuSans-58"/>
      <use x="942.529297" xlink:href="#DejaVuSans-53"/>
      <use x="1006.152344" xlink:href="#DejaVuSans-46"/>
      <use x="1037.939453" xlink:href="#DejaVuSans-48"/>
     </g>
    </g>
   </g>
  </g>
 </g>
 <defs>
  <clipPath id="pa0eae11a22">
   <rect height="266.112" width="357.12" x="57.6" y="41.472"/>
  </clipPath>
 </defs>
</svg>
