<?xml version="1.0" encoding="utf-8" standalone="no"?>
<!DOCTYPE svg PUBLIC "-//W3C//DTD SVG 1.1//EN"
  "http://www.w3.org/Graphics/SVG/1.1/DTD/svg11.dtd">
<!-- Created with matplotlib (https://matplotlib.org/) -->
<svg height="345.6pt" version="1.1" viewBox="0 0 460.8 345.6" width="460.8pt" xmlns="http://www.w3.org/2000/svg" xmlns:xlink="http://www.w3.org/1999/xlink">
 <defs>
  <style type="text/css">
*{stroke-linecap:butt;stroke-linejoin:round;}
  </style>
 </defs>
 <g id="figure_1">
  <g id="patch_1">
   <path d="M 0 345.6 
L 460.8 345.6 
L 460.8 0 
L 0 0 
z
" style="fill:#ffffff;"/>
  </g>
  <g id="axes_1">
   <g id="patch_2">
    <path d="M 57.6 307.584 
L 414.72 307.584 
L 414.72 41.472 
L 57.6 41.472 
z
" style="fill:#ffffff;"/>
   </g>
   <g id="matplotlib.axis_1">
    <g id="xtick_1">
     <g id="line2d_1">
      <defs>
       <path d="M 0 0 
L 0 3.5 
" id="m63cdf27667" style="stroke:#000000;stroke-width:0.8;"/>
      </defs>
      <g>
       <use style="stroke:#000000;stroke-width:0.8;" x="73.832727" xlink:href="#m63cdf27667" y="307.584"/>
      </g>
     </g>
     <g id="text_1">
      <!-- 350 -->
      <defs>
       <path d="M 40.578125 39.3125 
Q 47.65625 37.796875 51.625 33 
Q 55.609375 28.21875 55.609375 21.1875 
Q 55.609375 10.40625 48.1875 4.484375 
Q 40.765625 -1.421875 27.09375 -1.421875 
Q 22.515625 -1.421875 17.65625 -0.515625 
Q 12.796875 0.390625 7.625 2.203125 
L 7.625 11.71875 
Q 11.71875 9.328125 16.59375 8.109375 
Q 21.484375 6.890625 26.8125 6.890625 
Q 36.078125 6.890625 40.9375 10.546875 
Q 45.796875 14.203125 45.796875 21.1875 
Q 45.796875 27.640625 41.28125 31.265625 
Q 36.765625 34.90625 28.71875 34.90625 
L 20.21875 34.90625 
L 20.21875 43.015625 
L 29.109375 43.015625 
Q 36.375 43.015625 40.234375 45.921875 
Q 44.09375 48.828125 44.09375 54.296875 
Q 44.09375 59.90625 40.109375 62.90625 
Q 36.140625 65.921875 28.71875 65.921875 
Q 24.65625 65.921875 20.015625 65.03125 
Q 15.375 64.15625 9.8125 62.3125 
L 9.8125 71.09375 
Q 15.4375 72.65625 20.34375 73.4375 
Q 25.25 74.21875 29.59375 74.21875 
Q 40.828125 74.21875 47.359375 69.109375 
Q 53.90625 64.015625 53.90625 55.328125 
Q 53.90625 49.265625 50.4375 45.09375 
Q 46.96875 40.921875 40.578125 39.3125 
z
" id="DejaVuSans-51"/>
       <path d="M 10.796875 72.90625 
L 49.515625 72.90625 
L 49.515625 64.59375 
L 19.828125 64.59375 
L 19.828125 46.734375 
Q 21.96875 47.46875 24.109375 47.828125 
Q 26.265625 48.1875 28.421875 48.1875 
Q 40.625 48.1875 47.75 41.5 
Q 54.890625 34.8125 54.890625 23.390625 
Q 54.890625 11.625 47.5625 5.09375 
Q 40.234375 -1.421875 26.90625 -1.421875 
Q 22.3125 -1.421875 17.546875 -0.640625 
Q 12.796875 0.140625 7.71875 1.703125 
L 7.71875 11.625 
Q 12.109375 9.234375 16.796875 8.0625 
Q 21.484375 6.890625 26.703125 6.890625 
Q 35.15625 6.890625 40.078125 11.328125 
Q 45.015625 15.765625 45.015625 23.390625 
Q 45.015625 31 40.078125 35.4375 
Q 35.15625 39.890625 26.703125 39.890625 
Q 22.75 39.890625 18.8125 39.015625 
Q 14.890625 38.140625 10.796875 36.28125 
z
" id="DejaVuSans-53"/>
       <path d="M 31.78125 66.40625 
Q 24.171875 66.40625 20.328125 58.90625 
Q 16.5 51.421875 16.5 36.375 
Q 16.5 21.390625 20.328125 13.890625 
Q 24.171875 6.390625 31.78125 6.390625 
Q 39.453125 6.390625 43.28125 13.890625 
Q 47.125 21.390625 47.125 36.375 
Q 47.125 51.421875 43.28125 58.90625 
Q 39.453125 66.40625 31.78125 66.40625 
z
M 31.78125 74.21875 
Q 44.046875 74.21875 50.515625 64.515625 
Q 56.984375 54.828125 56.984375 36.375 
Q 56.984375 17.96875 50.515625 8.265625 
Q 44.046875 -1.421875 31.78125 -1.421875 
Q 19.53125 -1.421875 13.0625 8.265625 
Q 6.59375 17.96875 6.59375 36.375 
Q 6.59375 54.828125 13.0625 64.515625 
Q 19.53125 74.21875 31.78125 74.21875 
z
" id="DejaVuSans-48"/>
      </defs>
      <g transform="translate(64.288977 322.182437)scale(0.1 -0.1)">
       <use xlink:href="#DejaVuSans-51"/>
       <use x="63.623047" xlink:href="#DejaVuSans-53"/>
       <use x="127.246094" xlink:href="#DejaVuSans-48"/>
      </g>
     </g>
    </g>
    <g id="xtick_2">
     <g id="line2d_2">
      <g>
       <use style="stroke:#000000;stroke-width:0.8;" x="114.414545" xlink:href="#m63cdf27667" y="307.584"/>
      </g>
     </g>
     <g id="text_2">
      <!-- 400 -->
      <defs>
       <path d="M 37.796875 64.3125 
L 12.890625 25.390625 
L 37.796875 25.390625 
z
M 35.203125 72.90625 
L 47.609375 72.90625 
L 47.609375 25.390625 
L 58.015625 25.390625 
L 58.015625 17.1875 
L 47.609375 17.1875 
L 47.609375 0 
L 37.796875 0 
L 37.796875 17.1875 
L 4.890625 17.1875 
L 4.890625 26.703125 
z
" id="DejaVuSans-52"/>
      </defs>
      <g transform="translate(104.870795 322.182437)scale(0.1 -0.1)">
       <use xlink:href="#DejaVuSans-52"/>
       <use x="63.623047" xlink:href="#DejaVuSans-48"/>
       <use x="127.246094" xlink:href="#DejaVuSans-48"/>
      </g>
     </g>
    </g>
    <g id="xtick_3">
     <g id="line2d_3">
      <g>
       <use style="stroke:#000000;stroke-width:0.8;" x="154.996364" xlink:href="#m63cdf27667" y="307.584"/>
      </g>
     </g>
     <g id="text_3">
      <!-- 450 -->
      <g transform="translate(145.452614 322.182437)scale(0.1 -0.1)">
       <use xlink:href="#DejaVuSans-52"/>
       <use x="63.623047" xlink:href="#DejaVuSans-53"/>
       <use x="127.246094" xlink:href="#DejaVuSans-48"/>
      </g>
     </g>
    </g>
    <g id="xtick_4">
     <g id="line2d_4">
      <g>
       <use style="stroke:#000000;stroke-width:0.8;" x="195.578182" xlink:href="#m63cdf27667" y="307.584"/>
      </g>
     </g>
     <g id="text_4">
      <!-- 500 -->
      <g transform="translate(186.034432 322.182437)scale(0.1 -0.1)">
       <use xlink:href="#DejaVuSans-53"/>
       <use x="63.623047" xlink:href="#DejaVuSans-48"/>
       <use x="127.246094" xlink:href="#DejaVuSans-48"/>
      </g>
     </g>
    </g>
    <g id="xtick_5">
     <g id="line2d_5">
      <g>
       <use style="stroke:#000000;stroke-width:0.8;" x="236.16" xlink:href="#m63cdf27667" y="307.584"/>
      </g>
     </g>
     <g id="text_5">
      <!-- 550 -->
      <g transform="translate(226.61625 322.182437)scale(0.1 -0.1)">
       <use xlink:href="#DejaVuSans-53"/>
       <use x="63.623047" xlink:href="#DejaVuSans-53"/>
       <use x="127.246094" xlink:href="#DejaVuSans-48"/>
      </g>
     </g>
    </g>
    <g id="xtick_6">
     <g id="line2d_6">
      <g>
       <use style="stroke:#000000;stroke-width:0.8;" x="276.741818" xlink:href="#m63cdf27667" y="307.584"/>
      </g>
     </g>
     <g id="text_6">
      <!-- 600 -->
      <defs>
       <path d="M 33.015625 40.375 
Q 26.375 40.375 22.484375 35.828125 
Q 18.609375 31.296875 18.609375 23.390625 
Q 18.609375 15.53125 22.484375 10.953125 
Q 26.375 6.390625 33.015625 6.390625 
Q 39.65625 6.390625 43.53125 10.953125 
Q 47.40625 15.53125 47.40625 23.390625 
Q 47.40625 31.296875 43.53125 35.828125 
Q 39.65625 40.375 33.015625 40.375 
z
M 52.59375 71.296875 
L 52.59375 62.3125 
Q 48.875 64.0625 45.09375 64.984375 
Q 41.3125 65.921875 37.59375 65.921875 
Q 27.828125 65.921875 22.671875 59.328125 
Q 17.53125 52.734375 16.796875 39.40625 
Q 19.671875 43.65625 24.015625 45.921875 
Q 28.375 48.1875 33.59375 48.1875 
Q 44.578125 48.1875 50.953125 41.515625 
Q 57.328125 34.859375 57.328125 23.390625 
Q 57.328125 12.15625 50.6875 5.359375 
Q 44.046875 -1.421875 33.015625 -1.421875 
Q 20.359375 -1.421875 13.671875 8.265625 
Q 6.984375 17.96875 6.984375 36.375 
Q 6.984375 53.65625 15.1875 63.9375 
Q 23.390625 74.21875 37.203125 74.21875 
Q 40.921875 74.21875 44.703125 73.484375 
Q 48.484375 72.75 52.59375 71.296875 
z
" id="DejaVuSans-54"/>
      </defs>
      <g transform="translate(267.198068 322.182437)scale(0.1 -0.1)">
       <use xlink:href="#DejaVuSans-54"/>
       <use x="63.623047" xlink:href="#DejaVuSans-48"/>
       <use x="127.246094" xlink:href="#DejaVuSans-48"/>
      </g>
     </g>
    </g>
    <g id="xtick_7">
     <g id="line2d_7">
      <g>
       <use style="stroke:#000000;stroke-width:0.8;" x="317.323636" xlink:href="#m63cdf27667" y="307.584"/>
      </g>
     </g>
     <g id="text_7">
      <!-- 650 -->
      <g transform="translate(307.779886 322.182437)scale(0.1 -0.1)">
       <use xlink:href="#DejaVuSans-54"/>
       <use x="63.623047" xlink:href="#DejaVuSans-53"/>
       <use x="127.246094" xlink:href="#DejaVuSans-48"/>
      </g>
     </g>
    </g>
    <g id="xtick_8">
     <g id="line2d_8">
      <g>
       <use style="stroke:#000000;stroke-width:0.8;" x="357.905455" xlink:href="#m63cdf27667" y="307.584"/>
      </g>
     </g>
     <g id="text_8">
      <!-- 700 -->
      <defs>
       <path d="M 8.203125 72.90625 
L 55.078125 72.90625 
L 55.078125 68.703125 
L 28.609375 0 
L 18.3125 0 
L 43.21875 64.59375 
L 8.203125 64.59375 
z
" id="DejaVuSans-55"/>
      </defs>
      <g transform="translate(348.361705 322.182437)scale(0.1 -0.1)">
       <use xlink:href="#DejaVuSans-55"/>
       <use x="63.623047" xlink:href="#DejaVuSans-48"/>
       <use x="127.246094" xlink:href="#DejaVuSans-48"/>
      </g>
     </g>
    </g>
    <g id="xtick_9">
     <g id="line2d_9">
      <g>
       <use style="stroke:#000000;stroke-width:0.8;" x="398.487273" xlink:href="#m63cdf27667" y="307.584"/>
      </g>
     </g>
     <g id="text_9">
      <!-- 750 -->
      <g transform="translate(388.943523 322.182437)scale(0.1 -0.1)">
       <use xlink:href="#DejaVuSans-55"/>
       <use x="63.623047" xlink:href="#DejaVuSans-53"/>
       <use x="127.246094" xlink:href="#DejaVuSans-48"/>
      </g>
     </g>
    </g>
    <g id="text_10">
     <!-- wavelengths -->
     <defs>
      <path d="M 4.203125 54.6875 
L 13.1875 54.6875 
L 24.421875 12.015625 
L 35.59375 54.6875 
L 46.1875 54.6875 
L 57.421875 12.015625 
L 68.609375 54.6875 
L 77.59375 54.6875 
L 63.28125 0 
L 52.6875 0 
L 40.921875 44.828125 
L 29.109375 0 
L 18.5 0 
z
" id="DejaVuSans-119"/>
      <path d="M 34.28125 27.484375 
Q 23.390625 27.484375 19.1875 25 
Q 14.984375 22.515625 14.984375 16.5 
Q 14.984375 11.71875 18.140625 8.90625 
Q 21.296875 6.109375 26.703125 6.109375 
Q 34.1875 6.109375 38.703125 11.40625 
Q 43.21875 16.703125 43.21875 25.484375 
L 43.21875 27.484375 
z
M 52.203125 31.203125 
L 52.203125 0 
L 43.21875 0 
L 43.21875 8.296875 
Q 40.140625 3.328125 35.546875 0.953125 
Q 30.953125 -1.421875 24.3125 -1.421875 
Q 15.921875 -1.421875 10.953125 3.296875 
Q 6 8.015625 6 15.921875 
Q 6 25.140625 12.171875 29.828125 
Q 18.359375 34.515625 30.609375 34.515625 
L 43.21875 34.515625 
L 43.21875 35.40625 
Q 43.21875 41.609375 39.140625 45 
Q 35.0625 48.390625 27.6875 48.390625 
Q 23 48.390625 18.546875 47.265625 
Q 14.109375 46.140625 10.015625 43.890625 
L 10.015625 52.203125 
Q 14.9375 54.109375 19.578125 55.046875 
Q 24.21875 56 28.609375 56 
Q 40.484375 56 46.34375 49.84375 
Q 52.203125 43.703125 52.203125 31.203125 
z
" id="DejaVuSans-97"/>
      <path d="M 2.984375 54.6875 
L 12.5 54.6875 
L 29.59375 8.796875 
L 46.6875 54.6875 
L 56.203125 54.6875 
L 35.6875 0 
L 23.484375 0 
z
" id="DejaVuSans-118"/>
      <path d="M 56.203125 29.59375 
L 56.203125 25.203125 
L 14.890625 25.203125 
Q 15.484375 15.921875 20.484375 11.0625 
Q 25.484375 6.203125 34.421875 6.203125 
Q 39.59375 6.203125 44.453125 7.46875 
Q 49.3125 8.734375 54.109375 11.28125 
L 54.109375 2.78125 
Q 49.265625 0.734375 44.1875 -0.34375 
Q 39.109375 -1.421875 33.890625 -1.421875 
Q 20.796875 -1.421875 13.15625 6.1875 
Q 5.515625 13.8125 5.515625 26.8125 
Q 5.515625 40.234375 12.765625 48.109375 
Q 20.015625 56 32.328125 56 
Q 43.359375 56 49.78125 48.890625 
Q 56.203125 41.796875 56.203125 29.59375 
z
M 47.21875 32.234375 
Q 47.125 39.59375 43.09375 43.984375 
Q 39.0625 48.390625 32.421875 48.390625 
Q 24.90625 48.390625 20.390625 44.140625 
Q 15.875 39.890625 15.1875 32.171875 
z
" id="DejaVuSans-101"/>
      <path d="M 9.421875 75.984375 
L 18.40625 75.984375 
L 18.40625 0 
L 9.421875 0 
z
" id="DejaVuSans-108"/>
      <path d="M 54.890625 33.015625 
L 54.890625 0 
L 45.90625 0 
L 45.90625 32.71875 
Q 45.90625 40.484375 42.875 44.328125 
Q 39.84375 48.1875 33.796875 48.1875 
Q 26.515625 48.1875 22.3125 43.546875 
Q 18.109375 38.921875 18.109375 30.90625 
L 18.109375 0 
L 9.078125 0 
L 9.078125 54.6875 
L 18.109375 54.6875 
L 18.109375 46.1875 
Q 21.34375 51.125 25.703125 53.5625 
Q 30.078125 56 35.796875 56 
Q 45.21875 56 50.046875 50.171875 
Q 54.890625 44.34375 54.890625 33.015625 
z
" id="DejaVuSans-110"/>
      <path d="M 45.40625 27.984375 
Q 45.40625 37.75 41.375 43.109375 
Q 37.359375 48.484375 30.078125 48.484375 
Q 22.859375 48.484375 18.828125 43.109375 
Q 14.796875 37.75 14.796875 27.984375 
Q 14.796875 18.265625 18.828125 12.890625 
Q 22.859375 7.515625 30.078125 7.515625 
Q 37.359375 7.515625 41.375 12.890625 
Q 45.40625 18.265625 45.40625 27.984375 
z
M 54.390625 6.78125 
Q 54.390625 -7.171875 48.1875 -13.984375 
Q 42 -20.796875 29.203125 -20.796875 
Q 24.46875 -20.796875 20.265625 -20.09375 
Q 16.0625 -19.390625 12.109375 -17.921875 
L 12.109375 -9.1875 
Q 16.0625 -11.328125 19.921875 -12.34375 
Q 23.78125 -13.375 27.78125 -13.375 
Q 36.625 -13.375 41.015625 -8.765625 
Q 45.40625 -4.15625 45.40625 5.171875 
L 45.40625 9.625 
Q 42.625 4.78125 38.28125 2.390625 
Q 33.9375 0 27.875 0 
Q 17.828125 0 11.671875 7.65625 
Q 5.515625 15.328125 5.515625 27.984375 
Q 5.515625 40.671875 11.671875 48.328125 
Q 17.828125 56 27.875 56 
Q 33.9375 56 38.28125 53.609375 
Q 42.625 51.21875 45.40625 46.390625 
L 45.40625 54.6875 
L 54.390625 54.6875 
z
" id="DejaVuSans-103"/>
      <path d="M 18.3125 70.21875 
L 18.3125 54.6875 
L 36.8125 54.6875 
L 36.8125 47.703125 
L 18.3125 47.703125 
L 18.3125 18.015625 
Q 18.3125 11.328125 20.140625 9.421875 
Q 21.96875 7.515625 27.59375 7.515625 
L 36.8125 7.515625 
L 36.8125 0 
L 27.59375 0 
Q 17.1875 0 13.234375 3.875 
Q 9.28125 7.765625 9.28125 18.015625 
L 9.28125 47.703125 
L 2.6875 47.703125 
L 2.6875 54.6875 
L 9.28125 54.6875 
L 9.28125 70.21875 
z
" id="DejaVuSans-116"/>
      <path d="M 54.890625 33.015625 
L 54.890625 0 
L 45.90625 0 
L 45.90625 32.71875 
Q 45.90625 40.484375 42.875 44.328125 
Q 39.84375 48.1875 33.796875 48.1875 
Q 26.515625 48.1875 22.3125 43.546875 
Q 18.109375 38.921875 18.109375 30.90625 
L 18.109375 0 
L 9.078125 0 
L 9.078125 75.984375 
L 18.109375 75.984375 
L 18.109375 46.1875 
Q 21.34375 51.125 25.703125 53.5625 
Q 30.078125 56 35.796875 56 
Q 45.21875 56 50.046875 50.171875 
Q 54.890625 44.34375 54.890625 33.015625 
z
" id="DejaVuSans-104"/>
      <path d="M 44.28125 53.078125 
L 44.28125 44.578125 
Q 40.484375 46.53125 36.375 47.5 
Q 32.28125 48.484375 27.875 48.484375 
Q 21.1875 48.484375 17.84375 46.4375 
Q 14.5 44.390625 14.5 40.28125 
Q 14.5 37.15625 16.890625 35.375 
Q 19.28125 33.59375 26.515625 31.984375 
L 29.59375 31.296875 
Q 39.15625 29.25 43.1875 25.515625 
Q 47.21875 21.78125 47.21875 15.09375 
Q 47.21875 7.46875 41.1875 3.015625 
Q 35.15625 -1.421875 24.609375 -1.421875 
Q 20.21875 -1.421875 15.453125 -0.5625 
Q 10.6875 0.296875 5.421875 2 
L 5.421875 11.28125 
Q 10.40625 8.6875 15.234375 7.390625 
Q 20.0625 6.109375 24.8125 6.109375 
Q 31.15625 6.109375 34.5625 8.28125 
Q 37.984375 10.453125 37.984375 14.40625 
Q 37.984375 18.0625 35.515625 20.015625 
Q 33.0625 21.96875 24.703125 23.78125 
L 21.578125 24.515625 
Q 13.234375 26.265625 9.515625 29.90625 
Q 5.8125 33.546875 5.8125 39.890625 
Q 5.8125 47.609375 11.28125 51.796875 
Q 16.75 56 26.8125 56 
Q 31.78125 56 36.171875 55.265625 
Q 40.578125 54.546875 44.28125 53.078125 
z
" id="DejaVuSans-115"/>
     </defs>
     <g transform="translate(204.42875 335.860562)scale(0.1 -0.1)">
      <use xlink:href="#DejaVuSans-119"/>
      <use x="81.787109" xlink:href="#DejaVuSans-97"/>
      <use x="143.066406" xlink:href="#DejaVuSans-118"/>
      <use x="202.246094" xlink:href="#DejaVuSans-101"/>
      <use x="263.769531" xlink:href="#DejaVuSans-108"/>
      <use x="291.552734" xlink:href="#DejaVuSans-101"/>
      <use x="353.076172" xlink:href="#DejaVuSans-110"/>
      <use x="416.455078" xlink:href="#DejaVuSans-103"/>
      <use x="479.931641" xlink:href="#DejaVuSans-116"/>
      <use x="519.140625" xlink:href="#DejaVuSans-104"/>
      <use x="582.519531" xlink:href="#DejaVuSans-115"/>
     </g>
    </g>
   </g>
   <g id="matplotlib.axis_2">
    <g id="ytick_1">
     <g id="line2d_10">
      <defs>
       <path d="M 0 0 
L -3.5 0 
" id="m0e2130e0e9" style="stroke:#000000;stroke-width:0.8;"/>
      </defs>
      <g>
       <use style="stroke:#000000;stroke-width:0.8;" x="57.6" xlink:href="#m0e2130e0e9" y="295.488615"/>
      </g>
     </g>
     <g id="text_11">
      <!-- 0.00 -->
      <defs>
       <path d="M 10.6875 12.40625 
L 21 12.40625 
L 21 0 
L 10.6875 0 
z
" id="DejaVuSans-46"/>
      </defs>
      <g transform="translate(28.334375 299.287834)scale(0.1 -0.1)">
       <use xlink:href="#DejaVuSans-48"/>
       <use x="63.623047" xlink:href="#DejaVuSans-46"/>
       <use x="95.410156" xlink:href="#DejaVuSans-48"/>
       <use x="159.033203" xlink:href="#DejaVuSans-48"/>
      </g>
     </g>
    </g>
    <g id="ytick_2">
     <g id="line2d_11">
      <g>
       <use style="stroke:#000000;stroke-width:0.8;" x="57.6" xlink:href="#m0e2130e0e9" y="259.854327"/>
      </g>
     </g>
     <g id="text_12">
      <!-- 0.02 -->
      <defs>
       <path d="M 19.1875 8.296875 
L 53.609375 8.296875 
L 53.609375 0 
L 7.328125 0 
L 7.328125 8.296875 
Q 12.9375 14.109375 22.625 23.890625 
Q 32.328125 33.6875 34.8125 36.53125 
Q 39.546875 41.84375 41.421875 45.53125 
Q 43.3125 49.21875 43.3125 52.78125 
Q 43.3125 58.59375 39.234375 62.25 
Q 35.15625 65.921875 28.609375 65.921875 
Q 23.96875 65.921875 18.8125 64.3125 
Q 13.671875 62.703125 7.8125 59.421875 
L 7.8125 69.390625 
Q 13.765625 71.78125 18.9375 73 
Q 24.125 74.21875 28.421875 74.21875 
Q 39.75 74.21875 46.484375 68.546875 
Q 53.21875 62.890625 53.21875 53.421875 
Q 53.21875 48.921875 51.53125 44.890625 
Q 49.859375 40.875 45.40625 35.40625 
Q 44.1875 33.984375 37.640625 27.21875 
Q 31.109375 20.453125 19.1875 8.296875 
z
" id="DejaVuSans-50"/>
      </defs>
      <g transform="translate(28.334375 263.653546)scale(0.1 -0.1)">
       <use xlink:href="#DejaVuSans-48"/>
       <use x="63.623047" xlink:href="#DejaVuSans-46"/>
       <use x="95.410156" xlink:href="#DejaVuSans-48"/>
       <use x="159.033203" xlink:href="#DejaVuSans-50"/>
      </g>
     </g>
    </g>
    <g id="ytick_3">
     <g id="line2d_12">
      <g>
       <use style="stroke:#000000;stroke-width:0.8;" x="57.6" xlink:href="#m0e2130e0e9" y="224.220039"/>
      </g>
     </g>
     <g id="text_13">
      <!-- 0.04 -->
      <g transform="translate(28.334375 228.019257)scale(0.1 -0.1)">
       <use xlink:href="#DejaVuSans-48"/>
       <use x="63.623047" xlink:href="#DejaVuSans-46"/>
       <use x="95.410156" xlink:href="#DejaVuSans-48"/>
       <use x="159.033203" xlink:href="#DejaVuSans-52"/>
      </g>
     </g>
    </g>
    <g id="ytick_4">
     <g id="line2d_13">
      <g>
       <use style="stroke:#000000;stroke-width:0.8;" x="57.6" xlink:href="#m0e2130e0e9" y="188.58575"/>
      </g>
     </g>
     <g id="text_14">
      <!-- 0.06 -->
      <g transform="translate(28.334375 192.384969)scale(0.1 -0.1)">
       <use xlink:href="#DejaVuSans-48"/>
       <use x="63.623047" xlink:href="#DejaVuSans-46"/>
       <use x="95.410156" xlink:href="#DejaVuSans-48"/>
       <use x="159.033203" xlink:href="#DejaVuSans-54"/>
      </g>
     </g>
    </g>
    <g id="ytick_5">
     <g id="line2d_14">
      <g>
       <use style="stroke:#000000;stroke-width:0.8;" x="57.6" xlink:href="#m0e2130e0e9" y="152.951462"/>
      </g>
     </g>
     <g id="text_15">
      <!-- 0.08 -->
      <defs>
       <path d="M 31.78125 34.625 
Q 24.75 34.625 20.71875 30.859375 
Q 16.703125 27.09375 16.703125 20.515625 
Q 16.703125 13.921875 20.71875 10.15625 
Q 24.75 6.390625 31.78125 6.390625 
Q 38.8125 6.390625 42.859375 10.171875 
Q 46.921875 13.96875 46.921875 20.515625 
Q 46.921875 27.09375 42.890625 30.859375 
Q 38.875 34.625 31.78125 34.625 
z
M 21.921875 38.8125 
Q 15.578125 40.375 12.03125 44.71875 
Q 8.5 49.078125 8.5 55.328125 
Q 8.5 64.0625 14.71875 69.140625 
Q 20.953125 74.21875 31.78125 74.21875 
Q 42.671875 74.21875 48.875 69.140625 
Q 55.078125 64.0625 55.078125 55.328125 
Q 55.078125 49.078125 51.53125 44.71875 
Q 48 40.375 41.703125 38.8125 
Q 48.828125 37.15625 52.796875 32.3125 
Q 56.78125 27.484375 56.78125 20.515625 
Q 56.78125 9.90625 50.3125 4.234375 
Q 43.84375 -1.421875 31.78125 -1.421875 
Q 19.734375 -1.421875 13.25 4.234375 
Q 6.78125 9.90625 6.78125 20.515625 
Q 6.78125 27.484375 10.78125 32.3125 
Q 14.796875 37.15625 21.921875 38.8125 
z
M 18.3125 54.390625 
Q 18.3125 48.734375 21.84375 45.5625 
Q 25.390625 42.390625 31.78125 42.390625 
Q 38.140625 42.390625 41.71875 45.5625 
Q 45.3125 48.734375 45.3125 54.390625 
Q 45.3125 60.0625 41.71875 63.234375 
Q 38.140625 66.40625 31.78125 66.40625 
Q 25.390625 66.40625 21.84375 63.234375 
Q 18.3125 60.0625 18.3125 54.390625 
z
" id="DejaVuSans-56"/>
      </defs>
      <g transform="translate(28.334375 156.750681)scale(0.1 -0.1)">
       <use xlink:href="#DejaVuSans-48"/>
       <use x="63.623047" xlink:href="#DejaVuSans-46"/>
       <use x="95.410156" xlink:href="#DejaVuSans-48"/>
       <use x="159.033203" xlink:href="#DejaVuSans-56"/>
      </g>
     </g>
    </g>
    <g id="ytick_6">
     <g id="line2d_15">
      <g>
       <use style="stroke:#000000;stroke-width:0.8;" x="57.6" xlink:href="#m0e2130e0e9" y="117.317173"/>
      </g>
     </g>
     <g id="text_16">
      <!-- 0.10 -->
      <defs>
       <path d="M 12.40625 8.296875 
L 28.515625 8.296875 
L 28.515625 63.921875 
L 10.984375 60.40625 
L 10.984375 69.390625 
L 28.421875 72.90625 
L 38.28125 72.90625 
L 38.28125 8.296875 
L 54.390625 8.296875 
L 54.390625 0 
L 12.40625 0 
z
" id="DejaVuSans-49"/>
      </defs>
      <g transform="translate(28.334375 121.116392)scale(0.1 -0.1)">
       <use xlink:href="#DejaVuSans-48"/>
       <use x="63.623047" xlink:href="#DejaVuSans-46"/>
       <use x="95.410156" xlink:href="#DejaVuSans-49"/>
       <use x="159.033203" xlink:href="#DejaVuSans-48"/>
      </g>
     </g>
    </g>
    <g id="ytick_7">
     <g id="line2d_16">
      <g>
       <use style="stroke:#000000;stroke-width:0.8;" x="57.6" xlink:href="#m0e2130e0e9" y="81.682885"/>
      </g>
     </g>
     <g id="text_17">
      <!-- 0.12 -->
      <g transform="translate(28.334375 85.482104)scale(0.1 -0.1)">
       <use xlink:href="#DejaVuSans-48"/>
       <use x="63.623047" xlink:href="#DejaVuSans-46"/>
       <use x="95.410156" xlink:href="#DejaVuSans-49"/>
       <use x="159.033203" xlink:href="#DejaVuSans-50"/>
      </g>
     </g>
    </g>
    <g id="ytick_8">
     <g id="line2d_17">
      <g>
       <use style="stroke:#000000;stroke-width:0.8;" x="57.6" xlink:href="#m0e2130e0e9" y="46.048597"/>
      </g>
     </g>
     <g id="text_18">
      <!-- 0.14 -->
      <g transform="translate(28.334375 49.847815)scale(0.1 -0.1)">
       <use xlink:href="#DejaVuSans-48"/>
       <use x="63.623047" xlink:href="#DejaVuSans-46"/>
       <use x="95.410156" xlink:href="#DejaVuSans-49"/>
       <use x="159.033203" xlink:href="#DejaVuSans-52"/>
      </g>
     </g>
    </g>
    <g id="text_19">
     <!-- transmission -->
     <defs>
      <path d="M 41.109375 46.296875 
Q 39.59375 47.171875 37.8125 47.578125 
Q 36.03125 48 33.890625 48 
Q 26.265625 48 22.1875 43.046875 
Q 18.109375 38.09375 18.109375 28.8125 
L 18.109375 0 
L 9.078125 0 
L 9.078125 54.6875 
L 18.109375 54.6875 
L 18.109375 46.1875 
Q 20.953125 51.171875 25.484375 53.578125 
Q 30.03125 56 36.53125 56 
Q 37.453125 56 38.578125 55.875 
Q 39.703125 55.765625 41.0625 55.515625 
z
" id="DejaVuSans-114"/>
      <path d="M 52 44.1875 
Q 55.375 50.25 60.0625 53.125 
Q 64.75 56 71.09375 56 
Q 79.640625 56 84.28125 50.015625 
Q 88.921875 44.046875 88.921875 33.015625 
L 88.921875 0 
L 79.890625 0 
L 79.890625 32.71875 
Q 79.890625 40.578125 77.09375 44.375 
Q 74.3125 48.1875 68.609375 48.1875 
Q 61.625 48.1875 57.5625 43.546875 
Q 53.515625 38.921875 53.515625 30.90625 
L 53.515625 0 
L 44.484375 0 
L 44.484375 32.71875 
Q 44.484375 40.625 41.703125 44.40625 
Q 38.921875 48.1875 33.109375 48.1875 
Q 26.21875 48.1875 22.15625 43.53125 
Q 18.109375 38.875 18.109375 30.90625 
L 18.109375 0 
L 9.078125 0 
L 9.078125 54.6875 
L 18.109375 54.6875 
L 18.109375 46.1875 
Q 21.1875 51.21875 25.484375 53.609375 
Q 29.78125 56 35.6875 56 
Q 41.65625 56 45.828125 52.96875 
Q 50 49.953125 52 44.1875 
z
" id="DejaVuSans-109"/>
      <path d="M 9.421875 54.6875 
L 18.40625 54.6875 
L 18.40625 0 
L 9.421875 0 
z
M 9.421875 75.984375 
L 18.40625 75.984375 
L 18.40625 64.59375 
L 9.421875 64.59375 
z
" id="DejaVuSans-105"/>
      <path d="M 30.609375 48.390625 
Q 23.390625 48.390625 19.1875 42.75 
Q 14.984375 37.109375 14.984375 27.296875 
Q 14.984375 17.484375 19.15625 11.84375 
Q 23.34375 6.203125 30.609375 6.203125 
Q 37.796875 6.203125 41.984375 11.859375 
Q 46.1875 17.53125 46.1875 27.296875 
Q 46.1875 37.015625 41.984375 42.703125 
Q 37.796875 48.390625 30.609375 48.390625 
z
M 30.609375 56 
Q 42.328125 56 49.015625 48.375 
Q 55.71875 40.765625 55.71875 27.296875 
Q 55.71875 13.875 49.015625 6.21875 
Q 42.328125 -1.421875 30.609375 -1.421875 
Q 18.84375 -1.421875 12.171875 6.21875 
Q 5.515625 13.875 5.515625 27.296875 
Q 5.515625 40.765625 12.171875 48.375 
Q 18.84375 56 30.609375 56 
z
" id="DejaVuSans-111"/>
     </defs>
     <g transform="translate(22.254687 206.467062)rotate(-90)scale(0.1 -0.1)">
      <use xlink:href="#DejaVuSans-116"/>
      <use x="39.208984" xlink:href="#DejaVuSans-114"/>
      <use x="80.322266" xlink:href="#DejaVuSans-97"/>
      <use x="141.601562" xlink:href="#DejaVuSans-110"/>
      <use x="204.980469" xlink:href="#DejaVuSans-115"/>
      <use x="257.080078" xlink:href="#DejaVuSans-109"/>
      <use x="354.492188" xlink:href="#DejaVuSans-105"/>
      <use x="382.275391" xlink:href="#DejaVuSans-115"/>
      <use x="434.375" xlink:href="#DejaVuSans-115"/>
      <use x="486.474609" xlink:href="#DejaVuSans-105"/>
      <use x="514.257812" xlink:href="#DejaVuSans-111"/>
      <use x="575.439453" xlink:href="#DejaVuSans-110"/>
     </g>
    </g>
   </g>
   <g id="line2d_18">
    <path clip-path="url(#pb4ff638e52)" d="M 398.487273 295.488 
L 391.540314 295.487675 
L 384.750127 295.487191 
L 378.111464 295.486476 
L 371.61931 295.485428 
L 365.268868 295.483905 
L 359.055547 295.481714 
L 352.974953 295.478588 
L 347.02288 295.474166 
L 341.195294 295.467968 
L 335.488331 295.459357 
L 329.898284 295.447501 
L 324.421597 295.431322 
L 319.054856 295.409443 
L 313.794783 295.380125 
L 308.638229 295.341195 
L 303.582168 295.289976 
L 298.623691 295.223208 
L 293.76 295.136981 
L 288.988402 295.026658 
L 284.306307 294.886822 
L 279.71122 294.71123 
L 275.200736 294.492781 
L 270.772543 294.223535 
L 266.424407 293.894786 
L 262.154177 293.497212 
L 257.959778 293.021101 
L 253.839208 292.456638 
L 249.790534 291.794244 
L 245.811892 291.024984 
L 241.901479 290.141044 
L 238.057556 289.136327 
L 234.27844 288.007223 
L 230.562508 286.753696 
L 226.908187 285.379318 
L 223.313957 283.887189 
L 219.778349 282.283199 
L 216.299939 280.582578 
L 212.877352 278.805422 
L 209.509254 276.974961 
L 206.194353 275.124719 
L 202.931401 273.295555 
L 199.719184 271.485992 
L 196.556528 269.751144 
L 193.442297 268.127734 
L 190.375385 266.650548 
L 187.354722 265.352721 
L 184.37927 264.264347 
L 181.448022 263.411173 
L 178.56 262.813546 
L 175.714254 262.485551 
L 172.909864 262.434432 
L 170.145933 262.660329 
L 167.421594 263.156305 
L 164.736 263.908712 
L 162.088332 264.897818 
L 159.477791 266.098694 
L 156.903603 267.482278 
L 154.365013 269.016558 
L 151.861288 270.667814 
L 149.391714 272.401832 
L 146.955597 274.185045 
L 144.552262 275.98555 
L 142.181053 277.773945 
L 139.841328 279.523997 
L 137.532465 281.213091 
L 135.253857 282.822502 
L 133.004915 284.337484 
L 130.785061 285.747197 
L 128.593735 287.044506 
L 126.430391 288.225684 
L 124.294496 289.290031 
L 122.185532 290.239455 
L 120.102991 291.078021 
L 118.046381 291.811511 
L 116.01522 292.446979 
L 114.009039 292.992351 
L 112.02738 293.456056 
L 110.069795 293.846699 
L 108.135849 294.172794 
L 106.225116 294.442542 
L 104.337181 294.663669 
L 102.471638 294.843309 
L 100.628091 294.987934 
L 98.806154 295.103321 
L 97.005448 295.194552 
L 95.225605 295.266034 
L 93.466263 295.321536 
L 91.727072 295.364242 
L 90.007687 295.396806 
L 88.307771 295.421411 
L 86.626995 295.439835 
L 84.965038 295.453503 
L 83.321587 295.463547 
L 81.696332 295.470858 
L 80.088975 295.476131 
L 78.49922 295.479905 
L 76.92678 295.482586 
L 75.371374 295.484476 
L 73.832727 295.485798 
" style="fill:none;stroke:#ff7f0e;stroke-linecap:square;stroke-width:1.5;"/>
   </g>
   <g id="line2d_19">
    <path clip-path="url(#pb4ff638e52)" d="M 398.487273 295.487513 
L 391.540314 295.486932 
L 384.750127 295.486068 
L 378.111464 295.484796 
L 371.61931 295.482936 
L 365.268868 295.480241 
L 359.055547 295.476373 
L 352.974953 295.470867 
L 347.02288 295.463098 
L 341.195294 295.452235 
L 335.488331 295.437178 
L 329.898284 295.416493 
L 324.421597 295.388329 
L 319.054856 295.350327 
L 313.794783 295.299506 
L 308.638229 295.23216 
L 303.582168 295.14372 
L 298.623691 295.028641 
L 293.76 294.880271 
L 288.988402 294.690742 
L 284.306307 294.45088 
L 279.71122 294.150129 
L 275.200736 293.776528 
L 270.772543 293.31673 
L 266.424407 292.756122 
L 262.154177 292.079066 
L 257.959778 291.269255 
L 253.839208 290.3102 
L 249.790534 289.185779 
L 245.811892 287.880923 
L 241.901479 286.382384 
L 238.057556 284.679661 
L 234.27844 282.766134 
L 230.562508 280.640557 
L 226.908187 278.307685 
L 223.313957 275.774047 
L 219.778349 273.05049 
L 216.299939 270.160999 
L 212.877352 267.137855 
L 209.509254 264.019168 
L 206.194353 260.85619 
L 202.931401 257.712457 
L 199.719184 254.602386 
L 196.556528 251.608013 
L 193.442297 248.790563 
L 190.375385 246.20908 
L 187.354722 243.920284 
L 184.37927 241.97628 
L 181.448022 240.422416 
L 178.56 239.295491 
L 175.714254 238.622208 
L 172.909864 238.418102 
L 170.145933 238.686904 
L 167.421594 239.420406 
L 164.736 240.598864 
L 162.088332 242.191854 
L 159.477791 244.159618 
L 156.903603 246.454753 
L 154.365013 249.024203 
L 151.861288 251.811404 
L 149.391714 254.758417 
L 146.955597 257.807946 
L 144.552262 260.905041 
L 142.181053 263.998502 
L 139.841328 267.041945 
L 137.532465 269.994591 
L 135.253857 272.82183 
L 133.004915 275.495547 
L 130.785061 277.994229 
L 128.593735 280.302817 
L 126.430391 282.412335 
L 124.294496 284.319286 
L 122.185532 286.024819 
L 120.102991 287.533767 
L 118.046381 288.854009 
L 116.01522 289.996934 
L 114.009039 290.977687 
L 112.02738 291.8128 
L 110.069795 292.517891 
L 108.135849 293.107664 
L 106.225116 293.596339 
L 104.337181 293.997657 
L 102.471638 294.324276 
L 100.628091 294.5852 
L 98.806154 294.792452 
L 97.005448 294.957009 
L 95.225605 295.086146 
L 93.466263 295.186441 
L 91.727072 295.263605 
L 90.007687 295.322434 
L 88.307771 295.366883 
L 86.626995 295.40017 
L 84.965038 295.424878 
L 83.321587 295.443058 
L 81.696332 295.456316 
L 80.088975 295.465903 
L 78.49922 295.472773 
L 76.92678 295.477655 
L 75.371374 295.481094 
L 73.832727 295.483496 
" style="fill:none;stroke:#2ca02c;stroke-linecap:square;stroke-width:1.5;"/>
   </g>
   <g id="line2d_20">
    <path clip-path="url(#pb4ff638e52)" d="M 398.487273 295.487047 
L 391.540314 295.486227 
L 384.750127 295.485008 
L 378.111464 295.483221 
L 371.61931 295.480636 
L 365.268868 295.47687 
L 359.055547 295.471429 
L 352.974953 295.463687 
L 347.02288 295.452779 
L 341.195294 295.43793 
L 335.488331 295.416768 
L 329.898284 295.387862 
L 324.421597 295.348578 
L 319.054856 295.295631 
L 313.794783 295.224896 
L 308.638229 295.131234 
L 303.582168 295.008336 
L 298.623691 294.84853 
L 293.76 294.642629 
L 288.988402 294.379764 
L 284.306307 294.047262 
L 279.71122 293.630564 
L 275.200736 293.113188 
L 270.772543 292.476801 
L 266.424407 291.701374 
L 262.154177 290.765513 
L 257.959778 289.646926 
L 253.839208 288.323042 
L 249.790534 286.771782 
L 245.811892 284.972458 
L 241.901479 282.906844 
L 238.057556 280.560366 
L 234.27844 277.923478 
L 230.562508 274.993218 
L 226.908187 271.774238 
L 223.313957 268.277053 
L 219.778349 264.520084 
L 216.299939 260.535228 
L 212.877352 256.364967 
L 209.509254 252.060873 
L 206.194353 247.687637 
L 202.931401 243.321587 
L 199.719184 239.013769 
L 196.556528 234.858915 
L 193.442297 230.939975 
L 190.375385 227.338468 
L 187.354722 224.132745 
L 184.37927 221.39499 
L 181.448022 219.188375 
L 178.56 217.564643 
L 175.714254 216.562053 
L 172.909864 216.203948 
L 170.145933 216.497893 
L 167.421594 217.435438 
L 164.736 218.992522 
L 162.088332 221.130432 
L 159.477791 223.797391 
L 156.903603 226.930614 
L 154.365013 230.458793 
L 151.861288 234.304835 
L 149.391714 238.388632 
L 146.955597 242.62973 
L 144.552262 246.949521 
L 142.181053 251.272767 
L 139.841328 255.529116 
L 137.532465 259.657557 
L 135.253857 263.611641 
L 133.004915 267.355685 
L 130.785061 270.85974 
L 128.593735 274.10105 
L 126.430391 277.065884 
L 124.294496 279.749485 
L 122.185532 282.148437 
L 120.102991 284.262677 
L 118.046381 286.120325 
L 116.01522 287.734769 
L 114.009039 289.122802 
L 112.02738 290.304408 
L 110.069795 291.300656 
L 108.135849 292.132705 
L 106.225116 292.821135 
L 104.337181 293.385469 
L 102.471638 293.843828 
L 100.628091 294.212716 
L 98.806154 294.506904 
L 97.005448 294.739398 
L 95.225605 294.921484 
L 93.466263 295.062813 
L 91.727072 295.171529 
L 90.007687 295.254414 
L 88.307771 295.317046 
L 86.626995 295.363954 
L 84.965038 295.398776 
L 83.321587 295.424396 
L 81.696332 295.443081 
L 80.088975 295.456587 
L 78.49922 295.466267 
L 76.92678 295.473146 
L 75.371374 295.477995 
L 73.832727 295.481384 
" style="fill:none;stroke:#d62728;stroke-linecap:square;stroke-width:1.5;"/>
   </g>
   <g id="line2d_21">
    <path clip-path="url(#pb4ff638e52)" d="M 398.487273 295.486556 
L 391.540314 295.485483 
L 384.750127 295.483889 
L 378.111464 295.48154 
L 371.61931 295.478112 
L 365.268868 295.473153 
L 359.055547 295.466044 
L 352.974953 295.455941 
L 347.02288 295.441716 
L 341.195294 295.42188 
L 335.488331 295.394509 
L 329.898284 295.356887 
L 324.421597 295.305585 
L 319.054856 295.23644 
L 313.794783 295.144087 
L 308.638229 295.022792 
L 303.582168 294.86277 
L 298.623691 294.65441 
L 293.76 294.386287 
L 288.988402 294.04418 
L 284.306307 293.61163 
L 279.71122 293.069756 
L 275.200736 292.397206 
L 270.772543 291.570249 
L 266.424407 290.56297 
L 262.154177 289.347689 
L 257.959778 287.895555 
L 253.839208 286.177346 
L 249.790534 284.164464 
L 245.811892 281.830094 
L 241.901479 279.150583 
L 238.057556 276.106963 
L 234.27844 272.686696 
L 230.562508 268.88565 
L 226.908187 264.709621 
L 223.313957 260.172498 
L 219.778349 255.297968 
L 216.299939 250.12653 
L 212.877352 244.71257 
L 209.509254 239.122313 
L 206.194353 233.438244 
L 202.931401 227.759225 
L 199.719184 222.152232 
L 196.556528 216.737983 
L 193.442297 211.623772 
L 190.375385 206.91522 
L 187.354722 202.71423 
L 184.37927 199.115189 
L 181.448022 196.20134 
L 178.56 194.04153 
L 175.714254 192.687383 
L 172.909864 192.171216 
L 170.145933 192.504724 
L 167.421594 193.678581 
L 164.736 195.662931 
L 162.088332 198.40863 
L 159.477791 201.849032 
L 156.903603 205.901647 
L 154.365013 210.469899 
L 151.861288 215.449393 
L 149.391714 220.739275 
L 146.955597 226.241899 
L 144.552262 231.857776 
L 142.181053 237.490232 
L 139.841328 243.051447 
L 137.532465 248.465542 
L 135.253857 253.647211 
L 133.004915 258.542603 
L 130.785061 263.133325 
L 128.593735 267.382085 
L 126.430391 271.268525 
L 124.294496 274.784675 
L 122.185532 277.932199 
L 120.102991 280.72069 
L 118.046381 283.166128 
L 116.01522 285.289398 
L 114.009039 287.11488 
L 112.02738 288.669155 
L 110.069795 289.979851 
L 108.135849 291.074658 
L 106.225116 291.98052 
L 104.337181 292.72301 
L 102.471638 293.325904 
L 100.628091 293.810936 
L 98.806154 294.197652 
L 97.005448 294.503272 
L 95.225605 294.742668 
L 93.466263 294.928513 
L 91.727072 295.071496 
L 90.007687 295.180527 
L 88.307771 295.262935 
L 86.626995 295.324624 
L 84.965038 295.370356 
L 83.321587 295.404035 
L 81.696332 295.428623 
L 80.088975 295.44641 
L 78.49922 295.459165 
L 76.92678 295.468232 
L 75.371374 295.474622 
L 73.832727 295.479087 
" style="fill:none;stroke:#9467bd;stroke-linecap:square;stroke-width:1.5;"/>
   </g>
   <g id="line2d_22">
    <path clip-path="url(#pb4ff638e52)" d="M 398.487273 295.4861 
L 391.540314 295.484789 
L 384.750127 295.482844 
L 378.111464 295.479983 
L 371.61931 295.475811 
L 365.268868 295.469778 
L 359.055547 295.461129 
L 352.974953 295.448836 
L 347.02288 295.431521 
L 341.195294 295.407349 
L 335.488331 295.373906 
L 329.898284 295.328049 
L 324.421597 295.265737 
L 319.054856 295.181869 
L 313.794783 295.070053 
L 308.638229 294.921908 
L 303.582168 294.727327 
L 298.623691 294.474459 
L 293.76 294.148898 
L 288.988402 293.734567 
L 284.306307 293.210639 
L 279.71122 292.552506 
L 275.200736 291.736413 
L 270.772543 290.733308 
L 266.424407 289.511785 
L 262.154177 288.038349 
L 257.959778 286.278126 
L 253.839208 284.195777 
L 249.790534 281.756696 
L 245.811892 278.928422 
L 241.901479 275.682275 
L 238.057556 271.995206 
L 234.27844 267.851795 
L 230.562508 263.246441 
L 226.908187 258.185157 
L 223.313957 252.685196 
L 219.778349 246.77702 
L 216.299939 240.50921 
L 212.877352 233.946601 
L 209.509254 227.168934 
L 206.194353 220.273251 
L 202.931401 213.372075 
L 199.719184 206.565073 
L 196.556528 199.988437 
L 193.442297 193.771605 
L 190.375385 188.04308 
L 187.354722 182.926823 
L 184.37927 178.537652 
L 181.448022 174.976856 
L 178.56 172.328282 
L 175.714254 170.654993 
L 172.909864 169.996754 
L 170.145933 170.368322 
L 167.421594 171.758478 
L 164.736 174.129988 
L 162.088332 177.422371 
L 159.477791 181.557556 
L 156.903603 186.440854 
L 154.365013 191.961569 
L 151.861288 197.998512 
L 149.391714 204.425886 
L 146.955597 211.116823 
L 144.552262 217.934334 
L 142.181053 224.773607 
L 139.841328 231.531036 
L 137.532465 238.107487 
L 135.253857 244.420791 
L 133.004915 250.4041 
L 130.785061 256.005774 
L 128.593735 261.189043 
L 126.430391 265.931225 
L 124.294496 270.222511 
L 122.185532 274.064402 
L 120.102991 277.467944 
L 118.046381 280.451987 
L 116.01522 283.041832 
L 114.009039 285.267868 
L 112.02738 287.163344 
L 110.069795 288.76223 
L 108.135849 290.098188 
L 106.225116 291.203961 
L 104.337181 292.110747 
L 102.471638 292.847495 
L 100.628091 293.439687 
L 98.806154 293.911607 
L 97.005448 294.284889 
L 95.225605 294.577346 
L 93.466263 294.80437 
L 91.727072 294.979014 
L 90.007687 295.112168 
L 88.307771 295.21279 
L 86.626995 295.288159 
L 84.965038 295.344116 
L 83.321587 295.385297 
L 81.696332 295.415339 
L 80.088975 295.437064 
L 78.49922 295.45264 
L 76.92678 295.463712 
L 75.371374 295.471516 
L 73.832727 295.47697 
" style="fill:none;stroke:#8c564b;stroke-linecap:square;stroke-width:1.5;"/>
   </g>
   <g id="line2d_23">
    <path clip-path="url(#pb4ff638e52)" d="M 398.487273 295.485608 
L 391.540314 295.48404 
L 384.750127 295.481709 
L 378.111464 295.478281 
L 371.61931 295.473315 
L 365.268868 295.466128 
L 359.055547 295.455786 
L 352.974953 295.441115 
L 347.02288 295.42046 
L 341.195294 295.391632 
L 335.488331 295.35175 
L 329.898284 295.297066 
L 324.421597 295.222752 
L 319.054856 295.122662 
L 313.794783 294.989068 
L 308.638229 294.812363 
L 303.582168 294.580807 
L 298.623691 294.280137 
L 293.76 293.892748 
L 288.988402 293.398214 
L 284.306307 292.773109 
L 279.71122 291.990308 
L 275.200736 291.020139 
L 270.772543 289.82791 
L 266.424407 288.373853 
L 262.154177 286.620817 
L 257.959778 284.527038 
L 253.839208 282.050447 
L 249.790534 279.149892 
L 245.811892 275.786785 
L 241.901479 271.927015 
L 238.057556 267.543134 
L 234.27844 262.616723 
L 230.562508 257.140984 
L 226.908187 251.12296 
L 223.313957 244.583176 
L 219.778349 237.557479 
L 216.299939 230.103038 
L 212.877352 222.296479 
L 209.509254 214.232143 
L 206.194353 206.024715 
L 202.931401 197.808351 
L 199.719184 189.701242 
L 196.556528 181.864754 
L 193.442297 174.452897 
L 190.375385 167.618556 
L 187.354722 161.50928 
L 184.37927 156.261896 
L 181.448022 151.997307 
L 178.56 148.815789 
L 175.714254 146.792698 
L 172.909864 145.97462 
L 170.145933 146.377756 
L 167.421594 147.991047 
L 164.736 150.776559 
L 162.088332 154.66681 
L 159.477791 159.56808 
L 156.903603 165.366176 
L 154.365013 171.931203 
L 151.861288 179.102553 
L 149.391714 186.741384 
L 146.955597 194.704404 
L 144.552262 202.838753 
L 142.181053 211.003044 
L 139.841328 219.068114 
L 137.532465 226.919263 
L 135.253857 234.458174 
L 133.004915 241.604009 
L 130.785061 248.293832 
L 128.593735 254.482967 
L 126.430391 260.145049 
L 124.294496 265.269799 
L 122.185532 269.859571 
L 120.102991 273.927505 
L 118.046381 277.496157 
L 116.01522 280.59559 
L 114.009039 283.260944 
L 112.02738 285.528822 
L 110.069795 287.441198 
L 108.135849 289.039539 
L 106.225116 290.362423 
L 104.337181 291.447008 
L 102.471638 292.327978 
L 100.628091 293.036981 
L 98.806154 293.602366 
L 97.005448 294.049113 
L 95.225605 294.398911 
L 93.466263 294.670346 
L 91.727072 294.879121 
L 90.007687 295.038305 
L 88.307771 295.158618 
L 86.626995 295.248755 
L 84.965038 295.315694 
L 83.321587 295.364974 
L 81.696332 295.400938 
L 80.088975 295.426932 
L 78.49922 295.445556 
L 76.92678 295.458804 
L 75.371374 295.468145 
L 73.832727 295.474674 
" style="fill:none;stroke:#e377c2;stroke-linecap:square;stroke-width:1.5;"/>
   </g>
   <g id="line2d_24">
    <path clip-path="url(#pb4ff638e52)" d="M 398.487273 295.485144 
L 391.540314 295.483338 
L 384.750127 295.480658 
L 378.111464 295.476722 
L 371.61931 295.470998 
L 365.268868 295.462714 
L 359.055547 295.450824 
L 352.974953 295.433941 
L 347.02288 295.41018 
L 341.195294 295.377252 
L 335.488331 295.331356 
L 329.898284 295.268518 
L 324.421597 295.183149 
L 319.054856 295.068188 
L 313.794783 294.914752 
L 308.638229 294.711799 
L 303.582168 294.445769 
L 298.623691 294.100224 
L 293.76 293.655552 
L 288.988402 293.088589 
L 284.306307 292.371685 
L 279.71122 291.473362 
L 275.200736 290.358828 
L 270.772543 288.989078 
L 266.424407 287.322133 
L 262.154177 285.313997 
L 257.959778 282.910761 
L 253.839208 280.069527 
L 249.790534 276.74251 
L 245.811892 272.885273 
L 241.901479 268.458661 
L 238.057556 263.431131 
L 234.27844 257.781437 
L 230.562508 251.50142 
L 226.908187 244.598506 
L 223.313957 237.096452 
L 219.778349 229.037621 
L 216.299939 220.487387 
L 212.877352 211.53294 
L 209.509254 202.282155 
L 206.194353 192.864752 
L 202.931401 183.430154 
L 199.719184 174.125275 
L 196.556528 165.128474 
L 193.442297 156.615752 
L 190.375385 148.762401 
L 187.354722 141.737613 
L 184.37927 135.698322 
L 181.448022 130.783269 
L 178.56 127.107599 
L 175.714254 124.758322 
L 172.909864 123.791277 
L 170.145933 124.228962 
L 167.421594 126.059316 
L 164.736 129.236336 
L 162.088332 133.682182 
L 159.477791 139.289658 
L 156.903603 145.924438 
L 154.365013 153.440215 
L 151.861288 161.67173 
L 149.391714 170.446222 
L 146.955597 179.589534 
L 144.552262 188.931128 
L 142.181053 198.308733 
L 139.841328 207.572464 
L 137.532465 216.589555 
L 135.253857 225.248866 
L 133.004915 233.460454 
L 130.785061 241.15331 
L 128.593735 248.275725 
L 126.430391 254.795505 
L 124.294496 260.698777 
L 122.185532 265.984997 
L 120.102991 270.664739 
L 118.046381 274.771851 
L 116.01522 278.339837 
L 114.009039 281.408154 
L 112.02738 284.020921 
L 110.069795 286.224294 
L 108.135849 288.064655 
L 106.225116 289.587306 
L 104.337181 290.835445 
L 102.471638 291.849262 
L 100.628091 292.665286 
L 98.806154 293.31614 
L 97.005448 293.830557 
L 95.225605 294.233485 
L 93.466263 294.546274 
L 91.727072 294.786807 
L 90.007687 294.970057 
L 88.307771 295.108591 
L 86.626995 295.212392 
L 84.965038 295.289474 
L 83.321587 295.346209 
L 81.696332 295.387604 
L 80.088975 295.417545 
L 78.49922 295.439014 
L 76.92678 295.454278 
L 75.371374 295.465036 
L 73.832727 295.472556 
" style="fill:none;stroke:#7f7f7f;stroke-linecap:square;stroke-width:1.5;"/>
   </g>
   <g id="line2d_25">
    <path clip-path="url(#pb4ff638e52)" d="M 398.487273 295.484655 
L 391.540314 295.482593 
L 384.750127 295.479533 
L 378.111464 295.475035 
L 371.61931 295.468479 
L 365.268868 295.459009 
L 359.055547 295.44545 
L 352.974953 295.426226 
L 347.02288 295.399172 
L 341.195294 295.361359 
L 335.488331 295.309059 
L 329.898284 295.23738 
L 324.421597 295.140197 
L 319.054856 295.009279 
L 313.794783 294.834233 
L 308.638229 294.60283 
L 303.582168 294.299553 
L 298.623691 293.905643 
L 293.76 293.398647 
L 288.988402 292.752071 
L 284.306307 291.935127 
L 279.71122 290.912343 
L 275.200736 289.643068 
L 270.772543 288.082833 
L 266.424407 286.183406 
L 262.154177 283.893042 
L 257.959778 281.158926 
L 253.839208 277.925457 
L 249.790534 274.136223 
L 245.811892 269.743909 
L 241.901479 264.703539 
L 238.057556 258.979072 
L 234.27844 252.546205 
L 230.562508 245.395538 
L 226.908187 237.535451 
L 223.313957 228.992911 
L 219.778349 219.815734 
L 216.299939 210.077942 
L 212.877352 199.878596 
L 209.509254 189.340303 
L 206.194353 178.61062 
L 202.931401 167.860666 
L 199.719184 157.255625 
L 196.556528 146.999111 
L 193.442297 137.291627 
L 190.375385 128.332816 
L 187.354722 120.315467 
L 184.37927 113.418231 
L 181.448022 107.798569 
L 178.56 103.587875 
L 175.714254 100.887314 
L 172.909864 99.762097 
L 170.145933 100.238509 
L 167.421594 102.303725 
L 164.736 105.906906 
L 162.088332 110.951434 
L 159.477791 117.32069 
L 156.903603 124.869153 
L 154.365013 133.422958 
L 151.861288 142.794096 
L 149.391714 152.785601 
L 146.955597 163.198299 
L 144.552262 173.838637 
L 142.181053 184.524704 
L 139.841328 195.088486 
L 137.532465 205.37912 
L 135.253857 215.266888 
L 133.004915 224.645473 
L 130.785061 233.432003 
L 128.593735 241.562921 
L 126.430391 249.005763 
L 124.294496 255.74556 
L 122.185532 261.782269 
L 120.102991 267.132401 
L 118.046381 271.825193 
L 116.01522 275.899852 
L 114.009039 279.40314 
L 112.02738 282.386428 
L 110.069795 284.902822 
L 108.135849 287.005295 
L 106.225116 288.745413 
L 104.337181 290.17226 
L 102.471638 291.331459 
L 100.628091 292.263789 
L 98.806154 293.006888 
L 97.005448 293.594402 
L 95.225605 294.054614 
L 93.466263 294.411821 
L 91.727072 294.686591 
L 90.007687 294.896076 
L 88.307771 295.054386 
L 86.626995 295.172979 
L 84.965038 295.261043 
L 83.321587 295.325868 
L 81.696332 295.373173 
L 80.088975 295.407393 
L 78.49922 295.431935 
L 76.92678 295.449378 
L 75.371374 295.46167 
L 73.832727 295.470262 
" style="fill:none;stroke:#bcbd22;stroke-linecap:square;stroke-width:1.5;"/>
   </g>
   <g id="line2d_26">
    <path clip-path="url(#pb4ff638e52)" d="M 398.487273 295.484196 
L 391.540314 295.481897 
L 384.750127 295.478488 
L 378.111464 295.473494 
L 371.61931 295.466182 
L 365.268868 295.455626 
L 359.055547 295.440509 
L 352.974953 295.419052 
L 347.02288 295.388861 
L 341.195294 295.346765 
L 335.488331 295.288609 
L 329.898284 295.208859 
L 324.421597 295.100436 
L 319.054856 294.954451 
L 313.794783 294.759643 
L 308.638229 294.502534 
L 303.582168 294.164945 
L 298.623691 293.72632 
L 293.76 293.161926 
L 288.988402 292.442178 
L 284.306307 291.532713 
L 279.71122 290.394184 
L 275.200736 288.982147 
L 270.772543 287.246532 
L 266.424407 285.133003 
L 262.154177 282.584442 
L 257.959778 279.540982 
L 253.839208 275.942268 
L 249.790534 271.731252 
L 245.811892 266.843584 
L 241.901479 261.235976 
L 238.057556 254.867853 
L 234.27844 247.711872 
L 230.562508 239.757268 
L 226.908187 231.012876 
L 223.313957 221.508819 
L 219.778349 211.299168 
L 216.299939 200.466087 
L 212.877352 189.119197 
L 209.509254 177.394561 
L 206.194353 165.455056 
L 202.931401 153.487862 
L 199.719184 141.68429 
L 196.556528 130.26631 
L 193.442297 119.456518 
L 190.375385 109.477101 
L 187.354722 100.542901 
L 184.37927 92.853247 
L 181.448022 86.584024 
L 178.56 81.881943 
L 175.714254 78.859041 
L 172.909864 77.587635 
L 170.145933 78.097247 
L 167.421594 80.374318 
L 164.736 84.363114 
L 162.088332 89.962925 
L 159.477791 97.040044 
L 156.903603 105.428501 
L 154.365013 114.936608 
L 151.861288 125.355363 
L 149.391714 136.468296 
L 146.955597 148.057312 
L 144.552262 159.907002 
L 142.181053 171.811805 
L 139.841328 183.582716 
L 137.532465 195.051885 
L 135.253857 206.068323 
L 133.004915 216.51359 
L 130.785061 226.303382 
L 128.593735 235.368258 
L 126.430391 243.665533 
L 124.294496 251.176356 
L 122.185532 257.903122 
L 120.102991 263.865715 
L 118.046381 269.097365 
L 116.01522 273.641647 
L 114.009039 277.549877 
L 112.02738 280.878467 
L 110.069795 283.686027 
L 108.135849 286.029989 
L 106.225116 287.969563 
L 104.337181 289.560107 
L 102.471638 290.852081 
L 100.628091 291.891811 
L 98.806154 292.720931 
L 97.005448 293.376166 
L 95.225605 293.889353 
L 93.466263 294.2877 
L 91.727072 294.594151 
L 90.007687 294.827819 
L 88.307771 295.004424 
L 86.626995 295.1367 
L 84.965038 295.234869 
L 83.321587 295.307135 
L 81.696332 295.359877 
L 80.088975 295.39803 
L 78.49922 295.425391 
L 76.92678 295.444845 
L 75.371374 295.458558 
L 73.832727 295.468142 
" style="fill:none;stroke:#17becf;stroke-linecap:square;stroke-width:1.5;"/>
   </g>
   <g id="line2d_27">
    <path clip-path="url(#pb4ff638e52)" d="M 398.487273 295.483699 
L 391.540314 295.481147 
L 384.750127 295.477365 
L 378.111464 295.471794 
L 371.61931 295.463675 
L 365.268868 295.451942 
L 359.055547 295.43521 
L 352.974953 295.41135 
L 347.02288 295.377798 
L 341.195294 295.331009 
L 335.488331 295.266331 
L 329.898284 295.177724 
L 324.421597 295.05744 
L 319.054856 294.895463 
L 313.794783 294.679162 
L 308.638229 294.39311 
L 303.582168 294.018243 
L 298.623691 293.531743 
L 293.76 292.90582 
L 288.988402 292.106545 
L 284.306307 291.096921 
L 279.71122 289.833024 
L 275.200736 288.265451 
L 270.772543 286.339392 
L 266.424407 283.994629 
L 262.154177 281.166907 
L 257.959778 277.789993 
L 253.839208 273.796543 
L 249.790534 269.120604 
L 245.811892 263.702478 
L 241.901479 257.48093 
L 238.057556 250.415395 
L 234.27844 242.475943 
L 230.562508 233.650374 
L 226.908187 223.948437 
L 223.313957 213.403487 
L 219.778349 202.075168 
L 216.299939 190.054395 
L 212.877352 177.462709 
L 209.509254 164.450929 
L 206.194353 151.199758 
L 202.931401 137.917761 
L 199.719184 124.814964 
L 196.556528 112.138548 
L 193.442297 100.13558 
L 190.375385 89.052233 
L 187.354722 79.12595 
L 184.37927 70.577708 
L 181.448022 63.604084 
L 178.56 58.368849 
L 175.714254 54.99654 
L 172.909864 53.568 
L 170.145933 54.116135 
L 167.421594 56.622175 
L 164.736 61.027434 
L 162.088332 67.223004 
L 159.477791 75.059542 
L 156.903603 84.353998 
L 154.365013 94.896743 
L 151.861288 106.45791 
L 149.391714 118.795421 
L 146.955597 131.664075 
L 144.552262 144.823708 
L 142.181053 158.04547 
L 139.841328 171.115785 
L 137.532465 183.852482 
L 135.253857 196.093339 
L 133.004915 207.703896 
L 130.785061 218.580791 
L 128.593735 228.651661 
L 126.430391 237.872008 
L 124.294496 246.221432 
L 122.185532 253.701314 
L 120.102991 260.332291 
L 118.046381 266.150955 
L 116.01522 271.203884 
L 114.009039 275.545888 
L 112.02738 279.24452 
L 110.069795 282.364476 
L 108.135849 284.970906 
L 106.225116 287.12787 
L 104.337181 288.896319 
L 102.471638 290.332858 
L 100.628091 291.489074 
L 98.806154 292.411188 
L 97.005448 293.139949 
L 95.225605 293.710693 
L 93.466263 294.153536 
L 91.727072 294.494168 
L 90.007687 294.75391 
L 88.307771 294.950204 
L 86.626995 295.097243 
L 84.965038 295.206427 
L 83.321587 295.286799 
L 81.696332 295.34545 
L 80.088975 295.38788 
L 78.49922 295.41831 
L 76.92678 295.439948 
L 75.371374 295.455198 
L 73.832727 295.465852 
" style="fill:none;stroke:#1f77b4;stroke-linecap:square;stroke-width:1.5;"/>
   </g>
   <g id="patch_3">
    <path d="M 57.6 307.584 
L 57.6 41.472 
" style="fill:none;stroke:#000000;stroke-linecap:square;stroke-linejoin:miter;stroke-width:0.8;"/>
   </g>
   <g id="patch_4">
    <path d="M 414.72 307.584 
L 414.72 41.472 
" style="fill:none;stroke:#000000;stroke-linecap:square;stroke-linejoin:miter;stroke-width:0.8;"/>
   </g>
   <g id="patch_5">
    <path d="M 57.6 307.584 
L 414.72 307.584 
" style="fill:none;stroke:#000000;stroke-linecap:square;stroke-linejoin:miter;stroke-width:0.8;"/>
   </g>
   <g id="patch_6">
    <path d="M 57.6 41.472 
L 414.72 41.472 
" style="fill:none;stroke:#000000;stroke-linecap:square;stroke-linejoin:miter;stroke-width:0.8;"/>
   </g>
   <g id="text_20">
    <!-- transmissionToWavelengths -->
    <defs>
     <path d="M -0.296875 72.90625 
L 61.375 72.90625 
L 61.375 64.59375 
L 35.5 64.59375 
L 35.5 0 
L 25.59375 0 
L 25.59375 64.59375 
L -0.296875 64.59375 
z
" id="DejaVuSans-84"/>
     <path d="M 3.328125 72.90625 
L 13.28125 72.90625 
L 28.609375 11.28125 
L 43.890625 72.90625 
L 54.984375 72.90625 
L 70.3125 11.28125 
L 85.59375 72.90625 
L 95.609375 72.90625 
L 77.296875 0 
L 64.890625 0 
L 49.515625 63.28125 
L 33.984375 0 
L 21.578125 0 
z
" id="DejaVuSans-87"/>
    </defs>
    <g transform="translate(152.796562 35.472)scale(0.12 -0.12)">
     <use xlink:href="#DejaVuSans-116"/>
     <use x="39.208984" xlink:href="#DejaVuSans-114"/>
     <use x="80.322266" xlink:href="#DejaVuSans-97"/>
     <use x="141.601562" xlink:href="#DejaVuSans-110"/>
     <use x="204.980469" xlink:href="#DejaVuSans-115"/>
     <use x="257.080078" xlink:href="#DejaVuSans-109"/>
     <use x="354.492188" xlink:href="#DejaVuSans-105"/>
     <use x="382.275391" xlink:href="#DejaVuSans-115"/>
     <use x="434.375" xlink:href="#DejaVuSans-115"/>
     <use x="486.474609" xlink:href="#DejaVuSans-105"/>
     <use x="514.257812" xlink:href="#DejaVuSans-111"/>
     <use x="575.439453" xlink:href="#DejaVuSans-110"/>
     <use x="638.818359" xlink:href="#DejaVuSans-84"/>
     <use x="682.902344" xlink:href="#DejaVuSans-111"/>
     <use x="744.083984" xlink:href="#DejaVuSans-87"/>
     <use x="836.585938" xlink:href="#DejaVuSans-97"/>
     <use x="897.865234" xlink:href="#DejaVuSans-118"/>
     <use x="957.044922" xlink:href="#DejaVuSans-101"/>
     <use x="1018.568359" xlink:href="#DejaVuSans-108"/>
     <use x="1046.351562" xlink:href="#DejaVuSans-101"/>
     <use x="1107.875" xlink:href="#DejaVuSans-110"/>
     <use x="1171.253906" xlink:href="#DejaVuSans-103"/>
     <use x="1234.730469" xlink:href="#DejaVuSans-116"/>
     <use x="1273.939453" xlink:href="#DejaVuSans-104"/>
     <use x="1337.318359" xlink:href="#DejaVuSans-115"/>
    </g>
   </g>
   <g id="legend_1">
    <g id="patch_7">
     <path d="M 265.565313 199.0345 
L 407.72 199.0345 
Q 409.72 199.0345 409.72 197.0345 
L 409.72 48.472 
Q 409.72 46.472 407.72 46.472 
L 265.565313 46.472 
Q 263.565313 46.472 263.565313 48.472 
L 263.565313 197.0345 
Q 263.565313 199.0345 265.565313 199.0345 
z
" style="fill:#ffffff;opacity:0.8;stroke:#cccccc;stroke-linejoin:miter;"/>
    </g>
    <g id="line2d_28">
     <path d="M 267.565313 54.570437 
L 287.565313 54.570437 
" style="fill:none;stroke:#ff7f0e;stroke-linecap:square;stroke-width:1.5;"/>
    </g>
    <g id="line2d_29"/>
    <g id="text_21">
     <!-- spacing_thickness:0.5 -->
     <defs>
      <path d="M 18.109375 8.203125 
L 18.109375 -20.796875 
L 9.078125 -20.796875 
L 9.078125 54.6875 
L 18.109375 54.6875 
L 18.109375 46.390625 
Q 20.953125 51.265625 25.265625 53.625 
Q 29.59375 56 35.59375 56 
Q 45.5625 56 51.78125 48.09375 
Q 58.015625 40.1875 58.015625 27.296875 
Q 58.015625 14.40625 51.78125 6.484375 
Q 45.5625 -1.421875 35.59375 -1.421875 
Q 29.59375 -1.421875 25.265625 0.953125 
Q 20.953125 3.328125 18.109375 8.203125 
z
M 48.6875 27.296875 
Q 48.6875 37.203125 44.609375 42.84375 
Q 40.53125 48.484375 33.40625 48.484375 
Q 26.265625 48.484375 22.1875 42.84375 
Q 18.109375 37.203125 18.109375 27.296875 
Q 18.109375 17.390625 22.1875 11.75 
Q 26.265625 6.109375 33.40625 6.109375 
Q 40.53125 6.109375 44.609375 11.75 
Q 48.6875 17.390625 48.6875 27.296875 
z
" id="DejaVuSans-112"/>
      <path d="M 48.78125 52.59375 
L 48.78125 44.1875 
Q 44.96875 46.296875 41.140625 47.34375 
Q 37.3125 48.390625 33.40625 48.390625 
Q 24.65625 48.390625 19.8125 42.84375 
Q 14.984375 37.3125 14.984375 27.296875 
Q 14.984375 17.28125 19.8125 11.734375 
Q 24.65625 6.203125 33.40625 6.203125 
Q 37.3125 6.203125 41.140625 7.25 
Q 44.96875 8.296875 48.78125 10.40625 
L 48.78125 2.09375 
Q 45.015625 0.34375 40.984375 -0.53125 
Q 36.96875 -1.421875 32.421875 -1.421875 
Q 20.0625 -1.421875 12.78125 6.34375 
Q 5.515625 14.109375 5.515625 27.296875 
Q 5.515625 40.671875 12.859375 48.328125 
Q 20.21875 56 33.015625 56 
Q 37.15625 56 41.109375 55.140625 
Q 45.0625 54.296875 48.78125 52.59375 
z
" id="DejaVuSans-99"/>
      <path d="M 50.984375 -16.609375 
L 50.984375 -23.578125 
L -0.984375 -23.578125 
L -0.984375 -16.609375 
z
" id="DejaVuSans-95"/>
      <path d="M 9.078125 75.984375 
L 18.109375 75.984375 
L 18.109375 31.109375 
L 44.921875 54.6875 
L 56.390625 54.6875 
L 27.390625 29.109375 
L 57.625 0 
L 45.90625 0 
L 18.109375 26.703125 
L 18.109375 0 
L 9.078125 0 
z
" id="DejaVuSans-107"/>
      <path d="M 11.71875 12.40625 
L 22.015625 12.40625 
L 22.015625 0 
L 11.71875 0 
z
M 11.71875 51.703125 
L 22.015625 51.703125 
L 22.015625 39.3125 
L 11.71875 39.3125 
z
" id="DejaVuSans-58"/>
     </defs>
     <g transform="translate(295.565313 58.070437)scale(0.1 -0.1)">
      <use xlink:href="#DejaVuSans-115"/>
      <use x="52.099609" xlink:href="#DejaVuSans-112"/>
      <use x="115.576172" xlink:href="#DejaVuSans-97"/>
      <use x="176.855469" xlink:href="#DejaVuSans-99"/>
      <use x="231.835938" xlink:href="#DejaVuSans-105"/>
      <use x="259.619141" xlink:href="#DejaVuSans-110"/>
      <use x="322.998047" xlink:href="#DejaVuSans-103"/>
      <use x="386.474609" xlink:href="#DejaVuSans-95"/>
      <use x="436.474609" xlink:href="#DejaVuSans-116"/>
      <use x="475.683594" xlink:href="#DejaVuSans-104"/>
      <use x="539.0625" xlink:href="#DejaVuSans-105"/>
      <use x="566.845703" xlink:href="#DejaVuSans-99"/>
      <use x="621.826172" xlink:href="#DejaVuSans-107"/>
      <use x="679.736328" xlink:href="#DejaVuSans-110"/>
      <use x="743.115234" xlink:href="#DejaVuSans-101"/>
      <use x="804.638672" xlink:href="#DejaVuSans-115"/>
      <use x="856.738281" xlink:href="#DejaVuSans-115"/>
      <use x="908.837891" xlink:href="#DejaVuSans-58"/>
      <use x="942.529297" xlink:href="#DejaVuSans-48"/>
      <use x="1006.152344" xlink:href="#DejaVuSans-46"/>
      <use x="1037.939453" xlink:href="#DejaVuSans-53"/>
     </g>
    </g>
    <g id="line2d_30">
     <path d="M 267.565313 69.526687 
L 287.565313 69.526687 
" style="fill:none;stroke:#2ca02c;stroke-linecap:square;stroke-width:1.5;"/>
    </g>
    <g id="line2d_31"/>
    <g id="text_22">
     <!-- spacing_thickness:1.0 -->
     <g transform="translate(295.565313 73.026687)scale(0.1 -0.1)">
      <use xlink:href="#DejaVuSans-115"/>
      <use x="52.099609" xlink:href="#DejaVuSans-112"/>
      <use x="115.576172" xlink:href="#DejaVuSans-97"/>
      <use x="176.855469" xlink:href="#DejaVuSans-99"/>
      <use x="231.835938" xlink:href="#DejaVuSans-105"/>
      <use x="259.619141" xlink:href="#DejaVuSans-110"/>
      <use x="322.998047" xlink:href="#DejaVuSans-103"/>
      <use x="386.474609" xlink:href="#DejaVuSans-95"/>
      <use x="436.474609" xlink:href="#DejaVuSans-116"/>
      <use x="475.683594" xlink:href="#DejaVuSans-104"/>
      <use x="539.0625" xlink:href="#DejaVuSans-105"/>
      <use x="566.845703" xlink:href="#DejaVuSans-99"/>
      <use x="621.826172" xlink:href="#DejaVuSans-107"/>
      <use x="679.736328" xlink:href="#DejaVuSans-110"/>
      <use x="743.115234" xlink:href="#DejaVuSans-101"/>
      <use x="804.638672" xlink:href="#DejaVuSans-115"/>
      <use x="856.738281" xlink:href="#DejaVuSans-115"/>
      <use x="908.837891" xlink:href="#DejaVuSans-58"/>
      <use x="942.529297" xlink:href="#DejaVuSans-49"/>
      <use x="1006.152344" xlink:href="#DejaVuSans-46"/>
      <use x="1037.939453" xlink:href="#DejaVuSans-48"/>
     </g>
    </g>
    <g id="line2d_32">
     <path d="M 267.565313 84.482937 
L 287.565313 84.482937 
" style="fill:none;stroke:#d62728;stroke-linecap:square;stroke-width:1.5;"/>
    </g>
    <g id="line2d_33"/>
    <g id="text_23">
     <!-- spacing_thickness:1.5 -->
     <g transform="translate(295.565313 87.982937)scale(0.1 -0.1)">
      <use xlink:href="#DejaVuSans-115"/>
      <use x="52.099609" xlink:href="#DejaVuSans-112"/>
      <use x="115.576172" xlink:href="#DejaVuSans-97"/>
      <use x="176.855469" xlink:href="#DejaVuSans-99"/>
      <use x="231.835938" xlink:href="#DejaVuSans-105"/>
      <use x="259.619141" xlink:href="#DejaVuSans-110"/>
      <use x="322.998047" xlink:href="#DejaVuSans-103"/>
      <use x="386.474609" xlink:href="#DejaVuSans-95"/>
      <use x="436.474609" xlink:href="#DejaVuSans-116"/>
      <use x="475.683594" xlink:href="#DejaVuSans-104"/>
      <use x="539.0625" xlink:href="#DejaVuSans-105"/>
      <use x="566.845703" xlink:href="#DejaVuSans-99"/>
      <use x="621.826172" xlink:href="#DejaVuSans-107"/>
      <use x="679.736328" xlink:href="#DejaVuSans-110"/>
      <use x="743.115234" xlink:href="#DejaVuSans-101"/>
      <use x="804.638672" xlink:href="#DejaVuSans-115"/>
      <use x="856.738281" xlink:href="#DejaVuSans-115"/>
      <use x="908.837891" xlink:href="#DejaVuSans-58"/>
      <use x="942.529297" xlink:href="#DejaVuSans-49"/>
      <use x="1006.152344" xlink:href="#DejaVuSans-46"/>
      <use x="1037.939453" xlink:href="#DejaVuSans-53"/>
     </g>
    </g>
    <g id="line2d_34">
     <path d="M 267.565313 99.439188 
L 287.565313 99.439188 
" style="fill:none;stroke:#9467bd;stroke-linecap:square;stroke-width:1.5;"/>
    </g>
    <g id="line2d_35"/>
    <g id="text_24">
     <!-- spacing_thickness:2.0 -->
     <g transform="translate(295.565313 102.939188)scale(0.1 -0.1)">
      <use xlink:href="#DejaVuSans-115"/>
      <use x="52.099609" xlink:href="#DejaVuSans-112"/>
      <use x="115.576172" xlink:href="#DejaVuSans-97"/>
      <use x="176.855469" xlink:href="#DejaVuSans-99"/>
      <use x="231.835938" xlink:href="#DejaVuSans-105"/>
      <use x="259.619141" xlink:href="#DejaVuSans-110"/>
      <use x="322.998047" xlink:href="#DejaVuSans-103"/>
      <use x="386.474609" xlink:href="#DejaVuSans-95"/>
      <use x="436.474609" xlink:href="#DejaVuSans-116"/>
      <use x="475.683594" xlink:href="#DejaVuSans-104"/>
      <use x="539.0625" xlink:href="#DejaVuSans-105"/>
      <use x="566.845703" xlink:href="#DejaVuSans-99"/>
      <use x="621.826172" xlink:href="#DejaVuSans-107"/>
      <use x="679.736328" xlink:href="#DejaVuSans-110"/>
      <use x="743.115234" xlink:href="#DejaVuSans-101"/>
      <use x="804.638672" xlink:href="#DejaVuSans-115"/>
      <use x="856.738281" xlink:href="#DejaVuSans-115"/>
      <use x="908.837891" xlink:href="#DejaVuSans-58"/>
      <use x="942.529297" xlink:href="#DejaVuSans-50"/>
      <use x="1006.152344" xlink:href="#DejaVuSans-46"/>
      <use x="1037.939453" xlink:href="#DejaVuSans-48"/>
     </g>
    </g>
    <g id="line2d_36">
     <path d="M 267.565313 114.395437 
L 287.565313 114.395437 
" style="fill:none;stroke:#8c564b;stroke-linecap:square;stroke-width:1.5;"/>
    </g>
    <g id="line2d_37"/>
    <g id="text_25">
     <!-- spacing_thickness:2.5 -->
     <g transform="translate(295.565313 117.895437)scale(0.1 -0.1)">
      <use xlink:href="#DejaVuSans-115"/>
      <use x="52.099609" xlink:href="#DejaVuSans-112"/>
      <use x="115.576172" xlink:href="#DejaVuSans-97"/>
      <use x="176.855469" xlink:href="#DejaVuSans-99"/>
      <use x="231.835938" xlink:href="#DejaVuSans-105"/>
      <use x="259.619141" xlink:href="#DejaVuSans-110"/>
      <use x="322.998047" xlink:href="#DejaVuSans-103"/>
      <use x="386.474609" xlink:href="#DejaVuSans-95"/>
      <use x="436.474609" xlink:href="#DejaVuSans-116"/>
      <use x="475.683594" xlink:href="#DejaVuSans-104"/>
      <use x="539.0625" xlink:href="#DejaVuSans-105"/>
      <use x="566.845703" xlink:href="#DejaVuSans-99"/>
      <use x="621.826172" xlink:href="#DejaVuSans-107"/>
      <use x="679.736328" xlink:href="#DejaVuSans-110"/>
      <use x="743.115234" xlink:href="#DejaVuSans-101"/>
      <use x="804.638672" xlink:href="#DejaVuSans-115"/>
      <use x="856.738281" xlink:href="#DejaVuSans-115"/>
      <use x="908.837891" xlink:href="#DejaVuSans-58"/>
      <use x="942.529297" xlink:href="#DejaVuSans-50"/>
      <use x="1006.152344" xlink:href="#DejaVuSans-46"/>
      <use x="1037.939453" xlink:href="#DejaVuSans-53"/>
     </g>
    </g>
    <g id="line2d_38">
     <path d="M 267.565313 129.351687 
L 287.565313 129.351687 
" style="fill:none;stroke:#e377c2;stroke-linecap:square;stroke-width:1.5;"/>
    </g>
    <g id="line2d_39"/>
    <g id="text_26">
     <!-- spacing_thickness:3.0 -->
     <g transform="translate(295.565313 132.851687)scale(0.1 -0.1)">
      <use xlink:href="#DejaVuSans-115"/>
      <use x="52.099609" xlink:href="#DejaVuSans-112"/>
      <use x="115.576172" xlink:href="#DejaVuSans-97"/>
      <use x="176.855469" xlink:href="#DejaVuSans-99"/>
      <use x="231.835938" xlink:href="#DejaVuSans-105"/>
      <use x="259.619141" xlink:href="#DejaVuSans-110"/>
      <use x="322.998047" xlink:href="#DejaVuSans-103"/>
      <use x="386.474609" xlink:href="#DejaVuSans-95"/>
      <use x="436.474609" xlink:href="#DejaVuSans-116"/>
      <use x="475.683594" xlink:href="#DejaVuSans-104"/>
      <use x="539.0625" xlink:href="#DejaVuSans-105"/>
      <use x="566.845703" xlink:href="#DejaVuSans-99"/>
      <use x="621.826172" xlink:href="#DejaVuSans-107"/>
      <use x="679.736328" xlink:href="#DejaVuSans-110"/>
      <use x="743.115234" xlink:href="#DejaVuSans-101"/>
      <use x="804.638672" xlink:href="#DejaVuSans-115"/>
      <use x="856.738281" xlink:href="#DejaVuSans-115"/>
      <use x="908.837891" xlink:href="#DejaVuSans-58"/>
      <use x="942.529297" xlink:href="#DejaVuSans-51"/>
      <use x="1006.152344" xlink:href="#DejaVuSans-46"/>
      <use x="1037.939453" xlink:href="#DejaVuSans-48"/>
     </g>
    </g>
    <g id="line2d_40">
     <path d="M 267.565313 144.307937 
L 287.565313 144.307937 
" style="fill:none;stroke:#7f7f7f;stroke-linecap:square;stroke-width:1.5;"/>
    </g>
    <g id="line2d_41"/>
    <g id="text_27">
     <!-- spacing_thickness:3.5 -->
     <g transform="translate(295.565313 147.807937)scale(0.1 -0.1)">
      <use xlink:href="#DejaVuSans-115"/>
      <use x="52.099609" xlink:href="#DejaVuSans-112"/>
      <use x="115.576172" xlink:href="#DejaVuSans-97"/>
      <use x="176.855469" xlink:href="#DejaVuSans-99"/>
      <use x="231.835938" xlink:href="#DejaVuSans-105"/>
      <use x="259.619141" xlink:href="#DejaVuSans-110"/>
      <use x="322.998047" xlink:href="#DejaVuSans-103"/>
      <use x="386.474609" xlink:href="#DejaVuSans-95"/>
      <use x="436.474609" xlink:href="#DejaVuSans-116"/>
      <use x="475.683594" xlink:href="#DejaVuSans-104"/>
      <use x="539.0625" xlink:href="#DejaVuSans-105"/>
      <use x="566.845703" xlink:href="#DejaVuSans-99"/>
      <use x="621.826172" xlink:href="#DejaVuSans-107"/>
      <use x="679.736328" xlink:href="#DejaVuSans-110"/>
      <use x="743.115234" xlink:href="#DejaVuSans-101"/>
      <use x="804.638672" xlink:href="#DejaVuSans-115"/>
      <use x="856.738281" xlink:href="#DejaVuSans-115"/>
      <use x="908.837891" xlink:href="#DejaVuSans-58"/>
      <use x="942.529297" xlink:href="#DejaVuSans-51"/>
      <use x="1006.152344" xlink:href="#DejaVuSans-46"/>
      <use x="1037.939453" xlink:href="#DejaVuSans-53"/>
     </g>
    </g>
    <g id="line2d_42">
     <path d="M 267.565313 159.264187 
L 287.565313 159.264187 
" style="fill:none;stroke:#bcbd22;stroke-linecap:square;stroke-width:1.5;"/>
    </g>
    <g id="line2d_43"/>
    <g id="text_28">
     <!-- spacing_thickness:4.0 -->
     <g transform="translate(295.565313 162.764187)scale(0.1 -0.1)">
      <use xlink:href="#DejaVuSans-115"/>
      <use x="52.099609" xlink:href="#DejaVuSans-112"/>
      <use x="115.576172" xlink:href="#DejaVuSans-97"/>
      <use x="176.855469" xlink:href="#DejaVuSans-99"/>
      <use x="231.835938" xlink:href="#DejaVuSans-105"/>
      <use x="259.619141" xlink:href="#DejaVuSans-110"/>
      <use x="322.998047" xlink:href="#DejaVuSans-103"/>
      <use x="386.474609" xlink:href="#DejaVuSans-95"/>
      <use x="436.474609" xlink:href="#DejaVuSans-116"/>
      <use x="475.683594" xlink:href="#DejaVuSans-104"/>
      <use x="539.0625" xlink:href="#DejaVuSans-105"/>
      <use x="566.845703" xlink:href="#DejaVuSans-99"/>
      <use x="621.826172" xlink:href="#DejaVuSans-107"/>
      <use x="679.736328" xlink:href="#DejaVuSans-110"/>
      <use x="743.115234" xlink:href="#DejaVuSans-101"/>
      <use x="804.638672" xlink:href="#DejaVuSans-115"/>
      <use x="856.738281" xlink:href="#DejaVuSans-115"/>
      <use x="908.837891" xlink:href="#DejaVuSans-58"/>
      <use x="942.529297" xlink:href="#DejaVuSans-52"/>
      <use x="1006.152344" xlink:href="#DejaVuSans-46"/>
      <use x="1037.939453" xlink:href="#DejaVuSans-48"/>
     </g>
    </g>
    <g id="line2d_44">
     <path d="M 267.565313 174.220437 
L 287.565313 174.220437 
" style="fill:none;stroke:#17becf;stroke-linecap:square;stroke-width:1.5;"/>
    </g>
    <g id="line2d_45"/>
    <g id="text_29">
     <!-- spacing_thickness:4.5 -->
     <g transform="translate(295.565313 177.720437)scale(0.1 -0.1)">
      <use xlink:href="#DejaVuSans-115"/>
      <use x="52.099609" xlink:href="#DejaVuSans-112"/>
      <use x="115.576172" xlink:href="#DejaVuSans-97"/>
      <use x="176.855469" xlink:href="#DejaVuSans-99"/>
      <use x="231.835938" xlink:href="#DejaVuSans-105"/>
      <use x="259.619141" xlink:href="#DejaVuSans-110"/>
      <use x="322.998047" xlink:href="#DejaVuSans-103"/>
      <use x="386.474609" xlink:href="#DejaVuSans-95"/>
      <use x="436.474609" xlink:href="#DejaVuSans-116"/>
      <use x="475.683594" xlink:href="#DejaVuSans-104"/>
      <use x="539.0625" xlink:href="#DejaVuSans-105"/>
      <use x="566.845703" xlink:href="#DejaVuSans-99"/>
      <use x="621.826172" xlink:href="#DejaVuSans-107"/>
      <use x="679.736328" xlink:href="#DejaVuSans-110"/>
      <use x="743.115234" xlink:href="#DejaVuSans-101"/>
      <use x="804.638672" xlink:href="#DejaVuSans-115"/>
      <use x="856.738281" xlink:href="#DejaVuSans-115"/>
      <use x="908.837891" xlink:href="#DejaVuSans-58"/>
      <use x="942.529297" xlink:href="#DejaVuSans-52"/>
      <use x="1006.152344" xlink:href="#DejaVuSans-46"/>
      <use x="1037.939453" xlink:href="#DejaVuSans-53"/>
     </g>
    </g>
    <g id="line2d_46">
     <path d="M 267.565313 189.176687 
L 287.565313 189.176687 
" style="fill:none;stroke:#1f77b4;stroke-linecap:square;stroke-width:1.5;"/>
    </g>
    <g id="line2d_47"/>
    <g id="text_30">
     <!-- spacing_thickness:5.0 -->
     <g transform="translate(295.565313 192.676687)scale(0.1 -0.1)">
      <use xlink:href="#DejaVuSans-115"/>
      <use x="52.099609" xlink:href="#DejaVuSans-112"/>
      <use x="115.576172" xlink:href="#DejaVuSans-97"/>
      <use x="176.855469" xlink:href="#DejaVuSans-99"/>
      <use x="231.835938" xlink:href="#DejaVuSans-105"/>
      <use x="259.619141" xlink:href="#DejaVuSans-110"/>
      <use x="322.998047" xlink:href="#DejaVuSans-103"/>
      <use x="386.474609" xlink:href="#DejaVuSans-95"/>
      <use x="436.474609" xlink:href="#DejaVuSans-116"/>
      <use x="475.683594" xlink:href="#DejaVuSans-104"/>
      <use x="539.0625" xlink:href="#DejaVuSans-105"/>
      <use x="566.845703" xlink:href="#DejaVuSans-99"/>
      <use x="621.826172" xlink:href="#DejaVuSans-107"/>
      <use x="679.736328" xlink:href="#DejaVuSans-110"/>
      <use x="743.115234" xlink:href="#DejaVuSans-101"/>
      <use x="804.638672" xlink:href="#DejaVuSans-115"/>
      <use x="856.738281" xlink:href="#DejaVuSans-115"/>
      <use x="908.837891" xlink:href="#DejaVuSans-58"/>
      <use x="942.529297" xlink:href="#DejaVuSans-53"/>
      <use x="1006.152344" xlink:href="#DejaVuSans-46"/>
      <use x="1037.939453" xlink:href="#DejaVuSans-48"/>
     </g>
    </g>
   </g>
  </g>
 </g>
 <defs>
  <clipPath id="pb4ff638e52">
   <rect height="266.112" width="357.12" x="57.6" y="41.472"/>
  </clipPath>
 </defs>
</svg>
